<?xml version="1.0" encoding="utf-8"?>
<!-- Generator: Adobe Illustrator 19.1.0, SVG Export Plug-In . SVG Version: 6.00 Build 0)  -->
<svg version="1.1" id="Ebene_1" xmlns="http://www.w3.org/2000/svg" xmlns:xlink="http://www.w3.org/1999/xlink" x="0px" y="0px"
	 viewBox="0 0 841.9 595.3" style="enable-background:new 0 0 841.9 595.3;" xml:space="preserve">
<style type="text/css">
	.st0{fill:#FFFFFF;}
	.st1{fill:none;}
</style>
<g>
	<polygon class="st0" points="204.5,79.9 215.3,79.9 215.3,168.8 204.5,168.8 204.5,79.9 	"/>
	<g>
		<path class="st0" d="M179.8,79.9h-21.2l0,88.9l21.2,0c2.6,0,4.7-2.1,4.7-4.8l0-36.6v-2c0-2.8-2.2-5-5-5l0.5,0c2.5,0,4.5-2,4.5-4.5
			v-2.9V84.7C184.4,82,182.3,79.9,179.8,79.9z M173.7,157.8h-4.4v-30.7h4.4V157.8z M173.7,116.2h-4.4V90.9h4.4V116.2z"/>
		<rect x="169.3" y="90.9" class="st1" width="4.4" height="25.3"/>
		<rect x="169.3" y="127.1" class="st1" width="4.4" height="30.7"/>
	</g>
	<g>
		<path class="st0" d="M235,79.9v15.5h-10.5c-2.6,0-4.6,2.1-4.6,4.8l0,63.8c0,2.7,2.1,4.8,4.7,4.8l21.2,0V79.9H235z M235,157.8h-4.4
			v-51.6h4.4V157.8z"/>
		<rect x="230.6" y="106.2" class="st1" width="4.4" height="51.6"/>
	</g>
	<polygon class="st0" points="189.1,79.9 199.8,79.9 199.8,90.9 189.1,90.9 189.1,79.9 	"/>
	<polygon class="st0" points="189.1,95.4 199.8,95.4 199.8,168.8 189.1,168.8 189.1,95.4 	"/>
</g>
<g>
	<path class="st0" d="M252,84.9h11.8c6.4,0,12.4,1.4,16.1,5.2c2.5,2.5,3.9,6,3.9,10.7v0.7c0,6.9-3.9,11.1-8,13.3
		c4.5,2.3,8.8,6,8.8,13.5v0.8c0,11.4-8.4,17.1-20.7,17.1H252V84.9z M271.4,103.2c0-4.5-2.6-6.3-6.3-6.3h-0.5v13h0.5
		C268.9,109.9,271.4,107.8,271.4,103.2L271.4,103.2z M265.3,120.6h-0.7V134h0.7c3.9,0,6.7-2.2,6.7-6.5v-0.3
		C271.9,122.8,269.1,120.6,265.3,120.6z"/>
	<path class="st0" d="M287.6,135.1V98.7h12.5v32.9c0,2.4,0.9,3.9,2.6,3.9c1.5,0,2.7-1.5,2.7-3.9V98.7h12.5V146h-12.5v-5.4
		c-1.7,3.3-4.3,6.4-8.7,6.4C290.6,147,287.6,142.1,287.6,135.1z"/>
	<path class="st0" d="M321.1,136.8l11.8-27.4h-11.6V98.7h25.1v9.2l-11.9,27.4h11.9V146h-25.4V136.8z"/>
	<path class="st0" d="M348.4,136.8l11.8-27.4h-11.6V98.7h25.1v9.2l-11.9,27.4h11.9V146h-25.4V136.8z"/>
</g>
<g>
	<path class="st0" d="M165.6,198.3l-6.7,2.2v-11.6l10-3.2h8v66.4h-11.3V198.3z"/>
	<path class="st0" d="M182.8,233.8v-0.7c0-8.7,4-13.9,7.5-16.4c-4.2-2.7-6.6-7.5-6.6-14v-0.6c0-10.5,6.6-16.9,14.4-16.9
		c7.9,0,14.4,6.4,14.4,16.9v0.6c0,6.5-2.4,11.3-6.6,14c3.5,2.4,7.5,7.7,7.5,16.4v0.7c0,12-6.5,19.2-15.3,19.2
		S182.8,245.9,182.8,233.8z M202.7,233.3v-0.7c0-7.6-1.9-10.4-4.5-10.4c-2.6,0-4.5,2.8-4.5,10.4v0.7c0,8,1.9,10.6,4.5,10.6
		C200.7,243.9,202.7,241.3,202.7,233.3z M202.2,203.9v-0.6c0-6.9-1.8-9-4.1-9c-2.2,0-4.1,2.2-4.1,9v0.6c0,6.4,1.6,9.4,4.1,9.4
		S202.2,210.3,202.2,203.9z"/>
	<path class="st0" d="M217.2,233.8v-0.7c0-8.7,4-13.9,7.5-16.4c-4.2-2.7-6.6-7.5-6.6-14v-0.6c0-10.5,6.6-16.9,14.4-16.9
		c7.9,0,14.4,6.4,14.4,16.9v0.6c0,6.5-2.4,11.3-6.6,14c3.5,2.4,7.5,7.7,7.5,16.4v0.7c0,12-6.5,19.2-15.3,19.2
		S217.2,245.9,217.2,233.8z M237,233.3v-0.7c0-7.6-1.9-10.4-4.5-10.4c-2.6,0-4.5,2.8-4.5,10.4v0.7c0,8,1.9,10.6,4.5,10.6
		C235.1,243.9,237,241.3,237,233.3z M236.6,203.9v-0.6c0-6.9-1.8-9-4.1-9c-2.2,0-4.1,2.2-4.1,9v0.6c0,6.4,1.6,9.4,4.1,9.4
		S236.6,210.3,236.6,203.9z"/>
	<path class="st0" d="M253.4,239h12.7v13.1h-12.7V239z"/>
	<path class="st0" d="M271.1,220.9v-3.6c0-22.8,5.5-32.1,16-32.1c10.3,0,16,9.3,16,32.1v3.6c0,22.8-5.7,32.1-16,32.1
		C276.7,253,271.1,243.7,271.1,220.9z M291.9,220.8v-3.4c0-18.6-2.2-21.6-4.8-21.6c-2.7,0-4.9,3-4.9,21.6v3.4
		c0,18.6,2.2,21.6,4.9,21.6C289.7,242.5,291.9,239.5,291.9,220.8z"/>
	<path class="st0" d="M307.5,220.9v-3.6c0-22.8,5.5-32.1,16-32.1c10.3,0,16,9.3,16,32.1v3.6c0,22.8-5.7,32.1-16,32.1
		C313.1,253,307.5,243.7,307.5,220.9z M328.3,220.8v-3.4c0-18.6-2.2-21.6-4.8-21.6c-2.7,0-4.9,3-4.9,21.6v3.4
		c0,18.6,2.2,21.6,4.9,21.6C326.1,242.5,328.3,239.5,328.3,220.8z"/>
	<path class="st0" d="M343.9,220.9v-3.6c0-22.8,5.5-32.1,16-32.1c10.3,0,16,9.3,16,32.1v3.6c0,22.8-5.7,32.1-16,32.1
		C349.5,253,343.9,243.7,343.9,220.9z M364.7,220.8v-3.4c0-18.6-2.2-21.6-4.8-21.6c-2.7,0-4.9,3-4.9,21.6v3.4
		c0,18.6,2.2,21.6,4.9,21.6C362.5,242.5,364.7,239.5,364.7,220.8z"/>
</g>
<g>
	<path class="st0" d="M158.1,326.5v-4.4c1.1,0.5,1.9,0.7,3.3,0.7c1.8,0,3.2-1.4,3.2-3.8v-0.3c0-2.8-1.8-3.9-4.6-4.1v-3l4.3-6.8h-5.9
		v-4.5H169v4.1l-4.4,7c2.7,0.9,4.6,2.8,4.6,7v0.4c0,5.3-3,8.5-7.1,8.5C160.4,327.2,159.2,327,158.1,326.5z"/>
	<path class="st0" d="M177.1,300.2h4.6l3.1,10.1l3.1-10.1h4.6v26.6h-4.4v-16.2l-3.3,10.2h-0.1l-3.3-10.2v16.2h-4.4V300.2z"/>
	<path class="st0" d="M194.5,321.2v-0.6c0-4.6,1.8-6.5,4.4-6.5c0.9,0,1.8,0.3,2.7,0.8v-1.2c0-2.1-1-3.2-2.8-3.2
		c-1.2,0-2.4,0.5-3.3,1v-4.3c1.3-0.6,2.9-0.9,4-0.9c2.2,0,3.6,0.5,4.7,1.6c1.2,1.2,1.8,3,1.8,5.4v13.6h-4.4v-2.2
		c-0.8,1.7-1.9,2.5-3.3,2.5C196,327.2,194.5,324.9,194.5,321.2z M201.6,321.5V318c-0.3-0.2-1-0.4-1.4-0.4c-0.9,0-1.5,0.8-1.5,2.7
		v0.5c0,2,0.6,2.6,1.4,2.6C200.8,323.4,201.6,322.8,201.6,321.5z"/>
	<path class="st0" d="M208.3,300h4.4v26.8h-4.4V300z"/>
	<path class="st0" d="M222.7,323.5v-15.2h-1.9v-1.5h1.9v-5.6h1.6v5.6h3.2v1.5h-3.2v14.9c0,1.8,0.8,2.2,2.1,2.2
		c0.4,0,0.9-0.1,1.2-0.2v1.5c-0.4,0.2-0.9,0.2-1.3,0.2C224.1,327,222.7,326.1,222.7,323.5z"/>
	<path class="st0" d="M229.6,321v-0.3c0-3.7,1.9-6.4,5.2-6.4c1.3,0,2.4,0.3,3.3,0.8v-2.5c0-2.8-1.2-4.4-3.7-4.4
		c-1.4,0-2.5,0.3-3.6,0.9v-1.6c1.1-0.5,2.3-0.9,3.7-0.9c1.6,0,2.8,0.5,3.8,1.4c0.8,0.8,1.4,2.4,1.4,4.3v14.5H238V324
		c-0.8,2-2.1,3.2-4,3.2C231.4,327.2,229.6,324.6,229.6,321z M238,320.6v-4c-1-0.5-2.1-0.8-3.2-0.8c-2.4,0-3.7,2.1-3.7,4.8v0.3
		c0,2.7,1.1,4.8,3.1,4.8C236.6,325.8,238,323.2,238,320.6z M232.2,302h1.7v2.6h-1.7V302z M235.9,302h1.7v2.6h-1.7V302z"/>
	<path class="st0" d="M243.5,331.1v-1.6c1.4,0.6,3.1,1,4.4,1c2.7,0,4-1.3,4-4v-4.7c-0.8,2.3-2.1,4.1-4.1,4.1c-2.6,0-5.1-3.3-5.1-9.4
		V316c0-6.1,2.5-9.4,5.1-9.4c2,0,3.3,1.9,4.1,4.2v-3.8h1.6v19.4c0,1.8-0.5,3.2-1.4,4.1c-1,1-2.4,1.5-4.3,1.5
		C246.5,331.9,244.9,331.6,243.5,331.1z M252,316.4V316c0-5.1-2.1-8-4-8c-1.9,0-3.7,2.9-3.7,8.1v0.3c0,5.2,1.8,8.1,3.7,8.1
		C249.9,324.4,252,321.5,252,316.4z"/>
	<path class="st0" d="M257.7,299.9h1.6v26.9h-1.6V299.9z"/>
	<path class="st0" d="M263.6,299.9h1.7v2.7h-1.7V299.9z M263.7,306.9h1.6v20h-1.6V306.9z"/>
	<path class="st0" d="M268.6,317.1v-0.4c0-6.9,3-10.1,6-10.1c1,0,1.8,0.3,2.4,0.7v1.8c-0.7-0.5-1.5-0.9-2.4-0.9
		c-2,0-4.4,2.6-4.4,8.5v0.5c0,6,2.3,8.4,4.5,8.4c0.8,0,1.6-0.3,2.2-0.9v1.7c-0.6,0.5-1.4,0.8-2.4,0.8
		C271.5,327.1,268.6,324.1,268.6,317.1z"/>
	<path class="st0" d="M279.9,299.9h1.6v9.9c0.7-1.7,1.9-3.2,4-3.2c2.7,0,4.5,2.2,4.5,6.3v14h-1.6V313c0-3.3-1.2-5.1-3.2-5.1
		c-2.1,0-3.7,2.2-3.7,5.4v13.5h-1.6V299.9z"/>
	<path class="st0" d="M299.8,297.6h1.4l-8.1,33h-1.4L299.8,297.6z"/>
	<path class="st0" d="M309.8,299.9h1.7v2.7h-1.7V299.9z M309.9,306.9h1.6v20h-1.6V306.9z"/>
	<path class="st0" d="M315.6,306.9h1.6v2.9c0.7-1.7,1.9-3.2,4-3.2c2.7,0,4.5,2.2,4.5,6.3v14h-1.6V313c0-3.3-1.2-5.1-3.2-5.1
		c-2.1,0-3.7,2.2-3.7,5.4v13.5h-1.6V306.9z"/>
	<path class="st0" d="M329.7,331.1v-1.6c1.4,0.6,3.1,1,4.4,1c2.7,0,4-1.3,4-4v-4.7c-0.8,2.3-2.1,4.1-4.1,4.1c-2.6,0-5.1-3.3-5.1-9.4
		V316c0-6.1,2.5-9.4,5.1-9.4c2,0,3.3,1.9,4.1,4.2v-3.8h1.6v19.4c0,1.8-0.5,3.2-1.4,4.1c-1,1-2.4,1.5-4.3,1.5
		C332.6,331.9,331,331.6,329.7,331.1z M338.1,316.4V316c0-5.1-2.1-8-4-8c-1.9,0-3.7,2.9-3.7,8.1v0.3c0,5.2,1.8,8.1,3.7,8.1
		C336,324.4,338.1,321.5,338.1,316.4z"/>
	<path class="st0" d="M342.8,317.2v-0.3c0-6.9,2.5-10.3,5.4-10.3c2.9,0,5.1,3.5,5.1,9.8v1.2h-8.9c0.1,5.4,2.2,8.1,4.9,8.1
		c1.2,0,2.1-0.3,3.4-1.2l0.2,1.6c-1.4,0.8-2.3,1.1-3.8,1.1C345.8,327.1,342.8,323.9,342.8,317.2z M351.8,316.1
		c0-4.6-1.5-8.1-3.6-8.1c-2.1,0-3.7,2.8-3.8,8.1H351.8z"/>
	<path class="st0" d="M355.5,326.1v-1.7c1.3,0.7,2.7,1.1,4,1.1c1.6,0,3-1.1,3-3v-0.1c0-1.4-0.8-2.8-3.1-5.1
		c-2.9-2.8-3.8-4.4-3.8-6.4V311c0-2.8,2.1-4.4,4.4-4.4c1.3,0,2.2,0.2,3.2,0.6v1.7c-1.1-0.6-2.2-0.8-3.3-0.8c-1.6,0-2.8,1.1-2.8,2.8
		v0.1c0,1.4,0.7,2.6,3.1,4.9c2.8,2.8,3.8,4.4,3.8,6.5v0.1c0,2.8-2.2,4.5-4.6,4.5C357.9,327.1,356.8,326.7,355.5,326.1z"/>
	<path class="st0" d="M366.1,321v-0.3c0-3.7,1.9-6.4,5.2-6.4c1.3,0,2.4,0.3,3.3,0.8v-2.5c0-2.8-1.2-4.4-3.7-4.4
		c-1.4,0-2.5,0.3-3.6,0.9v-1.6c1.1-0.5,2.3-0.9,3.7-0.9c1.6,0,2.8,0.5,3.8,1.4c0.8,0.8,1.4,2.4,1.4,4.3v14.5h-1.6V324
		c-0.8,2-2.1,3.2-4,3.2C367.9,327.2,366.1,324.6,366.1,321z M374.5,320.6v-4c-1-0.5-2.1-0.8-3.2-0.8c-2.4,0-3.7,2.1-3.7,4.8v0.3
		c0,2.7,1.1,4.8,3.1,4.8C373.1,325.8,374.5,323.2,374.5,320.6z"/>
	<path class="st0" d="M379.9,306.9h1.6v2.9c0.7-1.7,1.8-3.2,3.9-3.2c2.1,0,3.2,1.5,3.8,3.4c0.7-1.6,2-3.4,4.3-3.4
		c2.7,0,4.5,2.2,4.5,6.2v14h-1.6V313c0-3.3-1.2-5-3.1-5c-2,0-3.6,2.1-3.6,5.3v13.6h-1.6V313c0-3.3-1.2-5-3.1-5c-2,0-3.6,2.1-3.6,5.3
		v13.6h-1.6V306.9z"/>
	<path class="st0" d="M402.3,323.5v-15.2h-1.9v-1.5h1.9v-5.6h1.6v5.6h3.2v1.5h-3.2v14.9c0,1.8,0.8,2.2,2.1,2.2
		c0.4,0,0.9-0.1,1.2-0.2v1.5c-0.4,0.2-0.9,0.2-1.3,0.2C403.6,327,402.3,326.1,402.3,323.5z"/>
	<path class="st0" d="M416.2,306.9h1.6v2.9c0.7-1.7,1.8-3.2,3.9-3.2c2.1,0,3.2,1.5,3.8,3.4c0.7-1.6,2-3.4,4.3-3.4
		c2.7,0,4.5,2.2,4.5,6.2v14h-1.6V313c0-3.3-1.2-5-3.1-5c-2,0-3.6,2.1-3.6,5.3v13.6h-1.6V313c0-3.3-1.2-5-3.1-5c-2,0-3.6,2.1-3.6,5.3
		v13.6h-1.6V306.9z"/>
	<path class="st0" d="M437.4,317.2v-0.3c0-6.9,2.5-10.3,5.4-10.3c2.9,0,5.1,3.5,5.1,9.8v1.2H439c0.1,5.4,2.2,8.1,4.9,8.1
		c1.2,0,2.1-0.3,3.4-1.2l0.2,1.6c-1.4,0.8-2.3,1.1-3.8,1.1C440.4,327.1,437.4,323.9,437.4,317.2z M446.4,316.1
		c0-4.6-1.5-8.1-3.6-8.1c-2.1,0-3.7,2.8-3.8,8.1H446.4z"/>
	<path class="st0" d="M451.2,299.9h1.6v9.9c0.7-1.7,1.9-3.2,4-3.2c2.7,0,4.5,2.2,4.5,6.3v14h-1.6V313c0-3.3-1.2-5.1-3.2-5.1
		c-2.1,0-3.7,2.2-3.7,5.4v13.5h-1.6V299.9z"/>
	<path class="st0" d="M465.1,306.9h1.6v2.9c0.7-1.8,2.3-3.3,4.6-3.2v1.7h-0.1c-2.5,0-4.5,1.6-4.5,5.1v13.4h-1.6V306.9z"/>
	<path class="st0" d="M479.1,321v-0.3c0-3.7,1.9-6.4,5.2-6.4c1.3,0,2.4,0.3,3.3,0.8v-2.5c0-2.8-1.2-4.4-3.7-4.4
		c-1.4,0-2.5,0.3-3.6,0.9v-1.6c1.1-0.5,2.3-0.9,3.7-0.9c1.6,0,2.8,0.5,3.8,1.4c0.8,0.8,1.4,2.4,1.4,4.3v14.5h-1.6V324
		c-0.8,2-2.1,3.2-4,3.2C480.9,327.2,479.1,324.6,479.1,321z M487.5,320.6v-4c-1-0.5-2.1-0.8-3.2-0.8c-2.4,0-3.7,2.1-3.7,4.8v0.3
		c0,2.7,1.1,4.8,3.1,4.8C486.1,325.8,487.5,323.2,487.5,320.6z"/>
	<path class="st0" d="M493.1,299.9h1.6v26.9h-1.6V299.9z"/>
	<path class="st0" d="M497.8,326.1v-1.7c1.3,0.7,2.7,1.1,4,1.1c1.6,0,3-1.1,3-3v-0.1c0-1.4-0.8-2.8-3.1-5.1
		c-2.9-2.8-3.8-4.4-3.8-6.4V311c0-2.8,2.1-4.4,4.4-4.4c1.3,0,2.2,0.2,3.2,0.6v1.7c-1.1-0.6-2.2-0.8-3.3-0.8c-1.6,0-2.8,1.1-2.8,2.8
		v0.1c0,1.4,0.7,2.6,3.1,4.9c2.8,2.8,3.8,4.4,3.8,6.5v0.1c0,2.8-2.2,4.5-4.6,4.5C500.2,327.1,499.1,326.7,497.8,326.1z"/>
	<path class="st0" d="M516.7,305.1L514,306v-4.7l4-1.3h3.2v26.8h-4.6V305.1z"/>
	<path class="st0" d="M523.8,314.3v-1.4c0-9.2,2.2-13,6.5-13c4.1,0,6.5,3.8,6.5,13v1.4c0,9.2-2.3,13-6.5,13
		C526.1,327.2,523.8,323.5,523.8,314.3z M532.2,314.2v-1.4c0-7.5-0.9-8.8-1.9-8.8c-1.1,0-2,1.2-2,8.8v1.4c0,7.5,0.9,8.8,2,8.8
		C531.3,323,532.2,321.8,532.2,314.2z"/>
	<path class="st0" d="M544.9,300.2h4.6l3.1,10.1l3.1-10.1h4.6v26.6H556v-16.2l-3.3,10.2h-0.1l-3.3-10.2v16.2h-4.4V300.2z"/>
	<path class="st0" d="M563,300h4.5v4.5H563V300z M563,306.5h4.4v20.4H563V306.5z"/>
	<path class="st0" d="M569.9,306.5h4.4v2.4c0.8-1.6,1.8-2.8,3.5-2.8c2.5,0,3.8,2.2,3.8,5.3v15.5h-4.4v-14.4c0-1.5-0.6-2.3-1.5-2.3
		s-1.5,0.8-1.5,2.3v14.4h-4.4V306.5z"/>
	<path class="st0" d="M584,321.9v-15.5h4.4v14.4c0,1.5,0.6,2.3,1.5,2.3s1.5-0.8,1.5-2.3v-14.4h4.4v20.4h-4.4v-2.4
		c-0.8,1.6-1.8,2.8-3.5,2.8C585.3,327.2,584,325,584,321.9z"/>
	<path class="st0" d="M598.8,323.4v-13.2h-1.2v-3.7h1.2v-5.2h4.4v5.2h2.4v3.7h-2.4v11.7c0,0.9,0.4,1.3,1.2,1.3
		c0.3,0,0.7-0.1,1.1-0.2v3.6c-0.7,0.4-1.7,0.7-2.6,0.7C600.8,327.1,598.8,326.4,598.8,323.4z"/>
	<path class="st0" d="M606.5,317.2v-1c0-6.5,2.8-10.1,6.1-10.1c3.5,0,5.7,3.5,5.7,10.2v2.4h-7.4c0.3,3.2,1.6,4.3,3,4.3
		c1.3,0,2.2-0.6,3.5-1.5l0.3,4.1c-1.5,1-2.7,1.6-4.4,1.6C609.6,327.2,606.5,323.8,606.5,317.2z M614.1,315.2c0-3.4-0.5-5.1-1.5-5.1
		c-1,0-1.6,1.4-1.7,5.1H614.1z"/>
	<path class="st0" d="M620.1,306.5h4.4v2.4c0.8-1.6,1.8-2.8,3.5-2.8c2.5,0,3.8,2.2,3.8,5.3v15.5h-4.4v-14.4c0-1.5-0.6-2.3-1.5-2.3
		s-1.5,0.8-1.5,2.3v14.4h-4.4V306.5z"/>
	<path class="st0" d="M641.7,323.5v-15.2h-1.9v-1.5h1.9v-5.6h1.6v5.6h3.2v1.5h-3.2v14.9c0,1.8,0.8,2.2,2.1,2.2
		c0.4,0,0.9-0.1,1.2-0.2v1.5c-0.4,0.2-0.9,0.2-1.3,0.2C643.1,327,641.7,326.1,641.7,323.5z"/>
	<path class="st0" d="M648.6,321v-0.3c0-3.7,1.9-6.4,5.2-6.4c1.3,0,2.4,0.3,3.3,0.8v-2.5c0-2.8-1.2-4.4-3.7-4.4
		c-1.4,0-2.5,0.3-3.6,0.9v-1.6c1.1-0.5,2.3-0.9,3.7-0.9c1.6,0,2.8,0.5,3.8,1.4c0.8,0.8,1.4,2.4,1.4,4.3v14.5H657V324
		c-0.8,2-2.1,3.2-4,3.2C650.4,327.2,648.6,324.6,648.6,321z M657,320.6v-4c-1-0.5-2.1-0.8-3.2-0.8c-2.4,0-3.7,2.1-3.7,4.8v0.3
		c0,2.7,1.1,4.8,3.1,4.8C655.6,325.8,657,323.2,657,320.6z M651.2,302h1.7v2.6h-1.7V302z M654.9,302h1.7v2.6h-1.7V302z"/>
	<path class="st0" d="M662.5,331.1v-1.6c1.4,0.6,3.1,1,4.4,1c2.7,0,4-1.3,4-4v-4.7c-0.8,2.3-2.1,4.1-4.1,4.1c-2.6,0-5.1-3.3-5.1-9.4
		V316c0-6.1,2.5-9.4,5.1-9.4c2,0,3.3,1.9,4.1,4.2v-3.8h1.6v19.4c0,1.8-0.5,3.2-1.4,4.1c-1,1-2.4,1.5-4.3,1.5
		C665.5,331.9,663.9,331.6,662.5,331.1z M671,316.4V316c0-5.1-2.1-8-4-8c-1.9,0-3.7,2.9-3.7,8.1v0.3c0,5.2,1.8,8.1,3.7,8.1
		C668.9,324.4,671,321.5,671,316.4z"/>
	<path class="st0" d="M676.7,299.9h1.6v26.9h-1.6V299.9z"/>
	<path class="st0" d="M682.6,299.9h1.7v2.7h-1.7V299.9z M682.7,306.9h1.6v20h-1.6V306.9z"/>
	<path class="st0" d="M687.6,317.1v-0.4c0-6.9,3-10.1,6-10.1c1,0,1.8,0.3,2.4,0.7v1.8c-0.7-0.5-1.5-0.9-2.4-0.9
		c-2,0-4.4,2.6-4.4,8.5v0.5c0,6,2.3,8.4,4.5,8.4c0.8,0,1.6-0.3,2.2-0.9v1.7c-0.6,0.5-1.4,0.8-2.4,0.8
		C690.5,327.1,687.6,324.1,687.6,317.1z"/>
	<path class="st0" d="M698.9,299.9h1.6v9.9c0.7-1.7,1.9-3.2,4-3.2c2.7,0,4.5,2.2,4.5,6.3v14h-1.6V313c0-3.3-1.2-5.1-3.2-5.1
		c-2.1,0-3.7,2.2-3.7,5.4v13.5h-1.6V299.9z"/>
	<path class="st0" d="M162.3,339.4H158v-1.5h10.2v1.5H164v25.1h-1.6V339.4z"/>
	<path class="st0" d="M168.4,358.7v-0.3c0-3.7,1.9-6.4,5.2-6.4c1.3,0,2.4,0.3,3.3,0.8v-2.5c0-2.8-1.2-4.4-3.7-4.4
		c-1.4,0-2.5,0.3-3.6,0.9v-1.6c1.1-0.5,2.3-0.9,3.7-0.9c1.6,0,2.8,0.5,3.8,1.4c0.8,0.8,1.4,2.4,1.4,4.3v14.5h-1.6v-2.9
		c-0.8,2-2.1,3.2-4,3.2C170.2,364.9,168.4,362.3,168.4,358.7z M176.8,358.3v-4c-1-0.5-2.1-0.8-3.2-0.8c-2.4,0-3.7,2.1-3.7,4.8v0.3
		c0,2.7,1.1,4.8,3.1,4.8C175.4,363.5,176.8,361,176.8,358.3z M171,339.7h1.7v2.6H171V339.7z M174.7,339.7h1.7v2.6h-1.7V339.7z"/>
	<path class="st0" d="M182.3,368.8v-1.6c1.4,0.6,3.1,1,4.4,1c2.7,0,4-1.3,4-4v-4.7c-0.8,2.3-2.1,4.1-4.1,4.1c-2.6,0-5.1-3.3-5.1-9.4
		v-0.3c0-6.1,2.5-9.4,5.1-9.4c2,0,3.3,1.9,4.1,4.2v-3.8h1.6V364c0,1.8-0.5,3.2-1.4,4.1c-1,1-2.4,1.5-4.3,1.5
		C185.3,369.6,183.7,369.3,182.3,368.8z M190.8,354.1v-0.3c0-5.1-2.1-8-4-8c-1.9,0-3.7,2.9-3.7,8.1v0.3c0,5.2,1.8,8.1,3.7,8.1
		C188.7,362.1,190.8,359.2,190.8,354.1z"/>
	<path class="st0" d="M196.5,337.7h1.6v26.9h-1.6V337.7z"/>
	<path class="st0" d="M201.9,361.5h2.3v3.1h-2.3V361.5z"/>
	<path class="st0" d="M213.2,344.6h1.6l3.1,17.3l3.3-17.3h1.4l3.2,17.3l3.2-17.3h1.5l-4.1,20.1h-1.4l-3.3-16.8l-3.2,16.8h-1.4
		L213.2,344.6z"/>
	<path class="st0" d="M232.4,354.9v-0.3c0-6.9,2.5-10.3,5.4-10.3c2.9,0,5.1,3.5,5.1,9.8v1.2H234c0.1,5.4,2.2,8.1,4.9,8.1
		c1.2,0,2.1-0.3,3.4-1.2l0.2,1.6c-1.4,0.8-2.3,1.1-3.8,1.1C235.3,364.8,232.4,361.6,232.4,354.9z M241.4,353.8
		c0-4.6-1.5-8.1-3.6-8.1c-2.1,0-3.7,2.8-3.8,8.1H241.4z"/>
	<path class="st0" d="M246.2,344.6h1.6v2.9c0.7-1.8,2.3-3.3,4.6-3.2v1.7h-0.1c-2.5,0-4.5,1.6-4.5,5.1v13.4h-1.6V344.6z"/>
	<path class="st0" d="M253.5,354.9v-0.7c0-6.4,2.4-9.9,5.1-9.9c2,0,3.3,1.9,4.1,4.2v-10.8h1.6v26.9h-1.6v-3.8
		c-0.8,2.3-2.1,4.1-4.1,4.1C255.9,364.9,253.5,361.4,253.5,354.9z M262.8,355.1v-1c0-5.4-2-8.4-4-8.4c-2,0-3.7,3.1-3.7,8.6v0.6
		c0,5.5,1.7,8.6,3.7,8.6C260.7,363.5,262.8,360.4,262.8,355.1z"/>
	<path class="st0" d="M267.4,354.9v-0.3c0-6.9,2.5-10.3,5.4-10.3c2.9,0,5.1,3.5,5.1,9.8v1.2H269c0.1,5.4,2.2,8.1,4.9,8.1
		c1.2,0,2.1-0.3,3.4-1.2l0.2,1.6c-1.4,0.8-2.3,1.1-3.8,1.1C270.4,364.8,267.4,361.6,267.4,354.9z M276.4,353.8
		c0-4.6-1.5-8.1-3.6-8.1c-2.1,0-3.7,2.8-3.8,8.1H276.4z"/>
	<path class="st0" d="M281.2,344.6h1.6v2.9c0.7-1.7,1.9-3.2,4-3.2c2.7,0,4.5,2.2,4.5,6.3v14h-1.6v-13.8c0-3.3-1.2-5.1-3.2-5.1
		c-2.1,0-3.7,2.2-3.7,5.4v13.5h-1.6V344.6z"/>
	<path class="st0" d="M300.4,359.6v-15.5h4.4v14.4c0,1.5,0.6,2.3,1.5,2.3s1.5-0.8,1.5-2.3v-14.4h4.4v20.4h-4.4v-2.4
		c-0.8,1.6-1.8,2.8-3.5,2.8C301.7,365,300.4,362.7,300.4,359.6z M301.7,338.6h4v4.1h-4V338.6z M307,338.6h4v4.1h-4V338.6z"/>
	<path class="st0" d="M319.1,362.1v2.5h-4.4v-26.8h4.4v9c0.6-1.2,1.6-2.9,3.5-2.9c2.4,0,4.3,2.3,4.3,9.7v1.8c0,7.3-1.9,9.7-4.3,9.7
		C320.7,365,319.8,363.3,319.1,362.1z M322.5,355.1v-1.4c0-3.7-0.5-5.6-1.6-5.6c-1.1,0-1.8,1.9-1.8,5.6v1.4c0,3.6,0.6,5.6,1.8,5.6
		C321.9,360.7,322.5,358.7,322.5,355.1z"/>
	<path class="st0" d="M328.5,354.9v-1c0-6.5,2.8-10.1,6.1-10.1c3.5,0,5.7,3.5,5.7,10.2v2.4h-7.4c0.3,3.2,1.6,4.3,3,4.3
		c1.3,0,2.2-0.6,3.5-1.5l0.3,4.1c-1.5,1-2.7,1.6-4.4,1.6C331.7,365,328.5,361.5,328.5,354.9z M336.2,352.9c0-3.4-0.5-5.1-1.5-5.1
		c-1,0-1.6,1.4-1.7,5.1H336.2z"/>
	<path class="st0" d="M342.1,344.2h4.4v2.6c0.6-1.8,1.5-2.9,3.2-2.8v5.4h-0.1c-2.1,0-3.1,1.4-3.1,4.3v10.9h-4.4V344.2z"/>
	<path class="st0" d="M359.4,342.8l-2.7,0.9V339l4-1.3h3.2v26.8h-4.6V342.8z"/>
	<path class="st0" d="M372.9,337.9h4.6l3.1,10.1l3.1-10.1h4.6v26.6H384v-16.2l-3.3,10.2h-0.1l-3.3-10.2v16.2h-4.4V337.9z"/>
	<path class="st0" d="M390.9,337.7h4.5v4.5h-4.5V337.7z M391,344.2h4.4v20.4H391V344.2z"/>
	<path class="st0" d="M397.5,355v-1.2c0-6.5,2.6-9.9,6.2-9.9s6.2,3.4,6.2,9.9v1.2c0,6.5-2.6,9.9-6.2,9.9S397.5,361.6,397.5,355z
		 M405.5,355.1v-1.4c0-4-0.7-5.9-1.8-5.9c-1.1,0-1.8,1.8-1.8,5.9v1.4c0,4,0.7,5.9,1.8,5.9C404.8,361,405.5,359.1,405.5,355.1z"/>
	<path class="st0" d="M412.1,359.3h5.2v5.3h-5.2V359.3z"/>
	<path class="st0" d="M426,337.9h4.6v11.4l3.8-11.4h5l-4.4,11.3l4.4,15.4h-4.9l-2.9-10.2l-1,3v7.2H426V337.9z"/>
	<path class="st0" d="M440.2,358.9v-0.6c0-4.6,1.8-6.5,4.4-6.5c0.9,0,1.8,0.3,2.7,0.8v-1.2c0-2.1-1-3.2-2.8-3.2
		c-1.2,0-2.4,0.5-3.3,1v-4.3c1.3-0.6,2.9-0.9,4-0.9c2.2,0,3.6,0.5,4.7,1.6c1.2,1.2,1.8,3,1.8,5.4v13.6h-4.4v-2.2
		c-0.8,1.7-1.9,2.5-3.3,2.5C441.8,364.9,440.2,362.6,440.2,358.9z M447.3,359.2v-3.5c-0.3-0.2-1-0.4-1.4-0.4c-0.9,0-1.5,0.8-1.5,2.7
		v0.5c0,2,0.6,2.6,1.4,2.6C446.6,361.1,447.3,360.5,447.3,359.2z"/>
	<path class="st0" d="M454,344.2h4.4v2.6c0.6-1.8,1.5-2.9,3.2-2.8v5.4h-0.1c-2.1,0-3.1,1.4-3.1,4.3v10.9H454V344.2z"/>
	<path class="st0" d="M463.9,361.1v-13.2h-1.2v-3.7h1.2V339h4.4v5.2h2.4v3.7h-2.4v11.7c0,0.9,0.4,1.3,1.2,1.3c0.3,0,0.7-0.1,1.1-0.2
		v3.6c-0.7,0.4-1.7,0.7-2.6,0.7C465.9,364.8,463.9,364.2,463.9,361.1z"/>
	<path class="st0" d="M471.6,354.9v-1c0-6.5,2.8-10.1,6.1-10.1c3.5,0,5.7,3.5,5.7,10.2v2.4H476c0.3,3.2,1.6,4.3,3,4.3
		c1.3,0,2.2-0.6,3.5-1.5l0.3,4.1c-1.5,1-2.7,1.6-4.4,1.6C474.7,365,471.6,361.5,471.6,354.9z M479.2,352.9c0-3.4-0.5-5.1-1.5-5.1
		c-1,0-1.6,1.4-1.7,5.1H479.2z"/>
	<path class="st0" d="M485.2,344.2h4.4v2.4c0.8-1.6,1.8-2.8,3.5-2.8c2.5,0,3.8,2.2,3.8,5.3v15.5h-4.4v-14.4c0-1.5-0.6-2.3-1.5-2.3
		s-1.5,0.8-1.5,2.3v14.4h-4.4V344.2z"/>
	<path class="st0" d="M506.4,368.8v-1.6c1.4,0.6,3.1,1,4.4,1c2.7,0,4-1.3,4-4v-4.7c-0.8,2.3-2.1,4.1-4.1,4.1c-2.6,0-5.1-3.3-5.1-9.4
		v-0.3c0-6.1,2.5-9.4,5.1-9.4c2,0,3.3,1.9,4.1,4.2v-3.8h1.6V364c0,1.8-0.5,3.2-1.4,4.1c-1,1-2.4,1.5-4.3,1.5
		C509.3,369.6,507.7,369.3,506.4,368.8z M514.8,354.1v-0.3c0-5.1-2.1-8-4-8c-1.9,0-3.7,2.9-3.7,8.1v0.3c0,5.2,1.8,8.1,3.7,8.1
		C512.7,362.1,514.8,359.2,514.8,354.1z"/>
	<path class="st0" d="M519.5,354.9v-0.3c0-6.9,2.5-10.3,5.4-10.3c2.9,0,5.1,3.5,5.1,9.8v1.2h-8.9c0.1,5.4,2.2,8.1,4.9,8.1
		c1.2,0,2.1-0.3,3.4-1.2l0.2,1.6c-1.4,0.8-2.3,1.1-3.8,1.1C522.5,364.8,519.5,361.6,519.5,354.9z M528.5,353.8
		c0-4.6-1.5-8.1-3.6-8.1c-2.1,0-3.7,2.8-3.8,8.1H528.5z"/>
	<path class="st0" d="M532.2,363.9v-1.7c1.3,0.7,2.7,1.1,4,1.1c1.6,0,3-1.1,3-3v-0.1c0-1.4-0.8-2.8-3.1-5.1
		c-2.9-2.8-3.8-4.4-3.8-6.4v-0.1c0-2.8,2.1-4.4,4.4-4.4c1.3,0,2.2,0.2,3.2,0.6v1.7c-1.1-0.6-2.2-0.8-3.3-0.8c-1.6,0-2.8,1.1-2.8,2.8
		v0.1c0,1.4,0.7,2.6,3.1,4.9c2.8,2.8,3.8,4.4,3.8,6.5v0.1c0,2.8-2.2,4.5-4.6,4.5C534.6,364.8,533.5,364.5,532.2,363.9z"/>
	<path class="st0" d="M542.9,354.9v-0.3c0-6.9,2.5-10.3,5.4-10.3c2.9,0,5.1,3.5,5.1,9.8v1.2h-8.9c0.1,5.4,2.2,8.1,4.9,8.1
		c1.2,0,2.1-0.3,3.4-1.2l0.2,1.6c-1.4,0.8-2.3,1.1-3.8,1.1C545.9,364.8,542.9,361.6,542.9,354.9z M551.9,353.8
		c0-4.6-1.5-8.1-3.6-8.1c-2.1,0-3.7,2.8-3.8,8.1H551.9z"/>
	<path class="st0" d="M556.7,337.7h1.6v9.9c0.7-1.7,1.9-3.2,4-3.2c2.7,0,4.5,2.2,4.5,6.3v14h-1.6v-13.8c0-3.3-1.2-5.1-3.2-5.1
		c-2.1,0-3.7,2.2-3.7,5.4v13.5h-1.6V337.7z"/>
	<path class="st0" d="M569.8,354.9v-0.3c0-6.9,2.5-10.3,5.4-10.3c2.9,0,5.1,3.5,5.1,9.8v1.2h-8.9c0.1,5.4,2.2,8.1,4.9,8.1
		c1.2,0,2.1-0.3,3.4-1.2l0.2,1.6c-1.4,0.8-2.3,1.1-3.8,1.1C572.8,364.8,569.8,361.6,569.8,354.9z M578.8,353.8
		c0-4.6-1.5-8.1-3.6-8.1c-2.1,0-3.7,2.8-3.8,8.1H578.8z"/>
	<path class="st0" d="M583.6,344.6h1.6v2.9c0.7-1.7,1.9-3.2,4-3.2c2.7,0,4.5,2.2,4.5,6.3v14h-1.6v-13.8c0-3.3-1.2-5.1-3.2-5.1
		c-2.1,0-3.7,2.2-3.7,5.4v13.5h-1.6V344.6z"/>
	<path class="st0" d="M603.5,335.3h1.4l-8.1,33h-1.4L603.5,335.3z"/>
	<path class="st0" d="M606,368.8v-1.6c1.4,0.6,3.1,1,4.4,1c2.7,0,4-1.3,4-4v-4.7c-0.8,2.3-2.1,4.1-4.1,4.1c-2.6,0-5.1-3.3-5.1-9.4
		v-0.3c0-6.1,2.5-9.4,5.1-9.4c2,0,3.3,1.9,4.1,4.2v-3.8h1.6V364c0,1.8-0.5,3.2-1.4,4.1c-1,1-2.4,1.5-4.3,1.5
		C609,369.6,607.4,369.3,606,368.8z M614.5,354.1v-0.3c0-5.1-2.1-8-4-8c-1.9,0-3.7,2.9-3.7,8.1v0.3c0,5.2,1.8,8.1,3.7,8.1
		C612.4,362.1,614.5,359.2,614.5,354.1z"/>
	<path class="st0" d="M619.2,354.9v-0.3c0-6.9,2.5-10.3,5.4-10.3c2.9,0,5.1,3.5,5.1,9.8v1.2h-8.9c0.1,5.4,2.2,8.1,4.9,8.1
		c1.2,0,2.1-0.3,3.4-1.2l0.2,1.6c-1.4,0.8-2.3,1.1-3.8,1.1C622.1,364.8,619.2,361.6,619.2,354.9z M628.1,353.8
		c0-4.6-1.5-8.1-3.6-8.1c-2.1,0-3.7,2.8-3.8,8.1H628.1z"/>
	<path class="st0" d="M631.9,363.9v-1.7c1.3,0.7,2.7,1.1,4,1.1c1.6,0,3-1.1,3-3v-0.1c0-1.4-0.8-2.8-3.1-5.1
		c-2.9-2.8-3.8-4.4-3.8-6.4v-0.1c0-2.8,2.1-4.4,4.4-4.4c1.3,0,2.2,0.2,3.2,0.6v1.7c-1.1-0.6-2.2-0.8-3.3-0.8c-1.6,0-2.8,1.1-2.8,2.8
		v0.1c0,1.4,0.7,2.6,3.1,4.9c2.8,2.8,3.8,4.4,3.8,6.5v0.1c0,2.8-2.2,4.5-4.6,4.5C634.3,364.8,633.2,364.5,631.9,363.9z"/>
	<path class="st0" d="M642,344.6h1.6l3.1,17.3l3.3-17.3h1.4l3.2,17.3l3.2-17.3h1.5l-4.1,20.1h-1.4l-3.3-16.8l-3.2,16.8h-1.4
		L642,344.6z"/>
	<path class="st0" d="M662.9,337.7h1.7v2.7h-1.7V337.7z M662.9,344.6h1.6v20h-1.6V344.6z"/>
	<path class="st0" d="M668.7,344.6h1.6v3.8c0.8-2.3,2.1-4.2,4.1-4.2c2.7,0,5.1,3.5,5.1,9.9v0.7c0,6.4-2.4,9.9-5.1,9.9
		c-2,0-3.3-1.9-4.1-4.1v8.8h-1.6V344.6z M677.9,354.9v-0.6c0-5.5-1.7-8.6-3.7-8.6c-2,0-4,3-4,8.4v1c0,5.4,2,8.4,4,8.4
		C676.2,363.5,677.9,360.4,677.9,354.9z"/>
	<path class="st0" d="M683.3,361.2v-15.2h-1.9v-1.5h1.9V339h1.6v5.6h3.2v1.5h-3.2V361c0,1.8,0.8,2.2,2.1,2.2c0.4,0,0.9-0.1,1.2-0.2
		v1.5c-0.4,0.2-0.9,0.2-1.3,0.2C684.7,364.7,683.3,363.8,683.3,361.2z"/>
	<path class="st0" d="M159.7,375.6h2l4.8,14.9l4.9-14.9h2v26.6h-1.6v-23l-5.2,15.5h-0.1l-5.2-15.5v23h-1.6V375.6z"/>
	<path class="st0" d="M176.7,392.7v-0.3c0-6.9,2.5-10.3,5.4-10.3c2.9,0,5.1,3.5,5.1,9.8v1.2h-8.9c0.1,5.4,2.2,8.1,4.9,8.1
		c1.2,0,2.1-0.3,3.4-1.2l0.2,1.6c-1.4,0.8-2.3,1.1-3.8,1.1C179.6,402.6,176.7,399.3,176.7,392.7z M185.6,391.6
		c0-4.6-1.5-8.1-3.6-8.1c-2.1,0-3.7,2.8-3.8,8.1H185.6z"/>
	<path class="st0" d="M190.4,375.4h1.6v9.9c0.7-1.7,1.9-3.2,4-3.2c2.7,0,4.5,2.2,4.5,6.3v14H199v-13.8c0-3.3-1.2-5.1-3.2-5.1
		c-2.1,0-3.7,2.2-3.7,5.4v13.5h-1.6V375.4z"/>
	<path class="st0" d="M204.3,382.3h1.6v2.9c0.7-1.8,2.3-3.3,4.6-3.2v1.7h-0.1c-2.5,0-4.5,1.6-4.5,5.1v13.4h-1.6V382.3z"/>
	<path class="st0" d="M218.3,396.5v-0.3c0-3.7,1.9-6.4,5.2-6.4c1.3,0,2.4,0.3,3.3,0.8V388c0-2.8-1.2-4.4-3.7-4.4
		c-1.4,0-2.5,0.3-3.6,0.9v-1.6c1.1-0.5,2.3-0.9,3.7-0.9c1.6,0,2.8,0.5,3.8,1.4c0.8,0.8,1.4,2.4,1.4,4.3v14.5h-1.6v-2.9
		c-0.8,2-2.1,3.2-4,3.2C220.1,402.6,218.3,400,218.3,396.5z M226.7,396v-4c-1-0.5-2.1-0.8-3.2-0.8c-2.4,0-3.7,2.1-3.7,4.8v0.3
		c0,2.7,1.1,4.8,3.1,4.8C225.3,401.2,226.7,398.7,226.7,396z"/>
	<path class="st0" d="M232.3,375.4h1.6v26.9h-1.6V375.4z"/>
	<path class="st0" d="M237.1,401.6v-1.7c1.3,0.7,2.7,1.1,4,1.1c1.6,0,3-1.1,3-3V398c0-1.4-0.8-2.8-3.1-5.1c-2.9-2.8-3.8-4.4-3.8-6.4
		v-0.1c0-2.8,2.1-4.4,4.4-4.4c1.3,0,2.2,0.2,3.2,0.6v1.7c-1.1-0.6-2.2-0.8-3.3-0.8c-1.6,0-2.8,1.1-2.8,2.8v0.1
		c0,1.4,0.7,2.6,3.1,4.9c2.8,2.8,3.8,4.4,3.8,6.5v0.1c0,2.8-2.2,4.5-4.6,4.5C239.4,402.5,238.3,402.2,237.1,401.6z"/>
	<path class="st0" d="M253.5,398.4l4.7-10.2c1.5-3.2,1.9-4.6,1.9-5.9c0-1.3-0.8-2.6-2.5-2.6c-1.4,0-2.6,0.6-3.6,1.3v-4.5
		c1.2-0.6,2.7-1.3,4.7-1.3c3.5,0,5.9,2.3,5.9,6.2v0.2c0,2.1-0.5,4.1-2,7.3l-4.2,8.8h6.1v4.6h-11V398.4z"/>
	<path class="st0" d="M266,389.7v-1.4c0-9.2,2.2-13,6.5-13c4.1,0,6.5,3.8,6.5,13v1.4c0,9.2-2.3,13-6.5,13
		C268.2,402.7,266,398.9,266,389.7z M274.4,389.6v-1.4c0-7.5-0.9-8.8-1.9-8.8c-1.1,0-2,1.2-2,8.8v1.4c0,7.5,0.9,8.8,2,8.8
		C273.5,398.4,274.4,397.2,274.4,389.6z"/>
	<path class="st0" d="M286.7,389.7v-1.4c0-9.2,2.2-13,6.5-13c4.1,0,6.5,3.8,6.5,13v1.4c0,9.2-2.3,13-6.5,13
		C288.9,402.7,286.7,398.9,286.7,389.7z M295.1,389.6v-1.4c0-7.5-0.9-8.8-1.9-8.8c-1.1,0-2,1.2-2,8.8v1.4c0,7.5,0.9,8.8,2,8.8
		C294.2,398.4,295.1,397.2,295.1,389.6z"/>
	<path class="st0" d="M301.4,389.7v-1.4c0-9.2,2.2-13,6.5-13c4.1,0,6.5,3.8,6.5,13v1.4c0,9.2-2.3,13-6.5,13
		C303.6,402.7,301.4,398.9,301.4,389.7z M309.8,389.6v-1.4c0-7.5-0.9-8.8-1.9-8.8c-1.1,0-2,1.2-2,8.8v1.4c0,7.5,0.9,8.8,2,8.8
		C308.9,398.4,309.8,397.2,309.8,389.6z"/>
	<path class="st0" d="M316.1,389.7v-1.4c0-9.2,2.2-13,6.5-13c4.1,0,6.5,3.8,6.5,13v1.4c0,9.2-2.3,13-6.5,13
		C318.3,402.7,316.1,398.9,316.1,389.7z M324.5,389.6v-1.4c0-7.5-0.9-8.8-1.9-8.8c-1.1,0-2,1.2-2,8.8v1.4c0,7.5,0.9,8.8,2,8.8
		C323.6,398.4,324.5,397.2,324.5,389.6z"/>
	<path class="st0" d="M335.9,375.6h4.6L343,393l2.5-17.4h4.5l-4.7,26.7h-4.7L335.9,375.6z"/>
	<path class="st0" d="M351.2,375.4h4.5v4.5h-4.5V375.4z M351.3,381.9h4.4v20.4h-4.4V381.9z"/>
	<path class="st0" d="M357.9,393v-1.8c0-7.3,1.9-9.7,4.3-9.7c1.9,0,2.8,1.6,3.5,2.9v-8.9h4.4v26.8h-4.4v-2.6
		c-0.6,1.2-1.6,2.9-3.5,2.9C359.7,402.7,357.9,400.3,357.9,393z M365.7,392.8v-1.4c0-3.6-0.6-5.6-1.8-5.6c-1.1,0-1.6,2-1.6,5.6v1.4
		c0,3.7,0.5,5.6,1.6,5.6C365,398.4,365.7,396.4,365.7,392.8z"/>
	<path class="st0" d="M372,392.6v-1c0-6.5,2.8-10.1,6.1-10.1c3.5,0,5.7,3.5,5.7,10.2v2.4h-7.4c0.3,3.2,1.6,4.3,3,4.3
		c1.3,0,2.2-0.6,3.5-1.5l0.3,4.1c-1.5,1-2.7,1.6-4.4,1.6C375.2,402.7,372,399.2,372,392.6z M379.6,390.6c0-3.4-0.5-5.1-1.5-5.1
		c-1,0-1.6,1.4-1.7,5.1H379.6z"/>
	<path class="st0" d="M385.2,392.7v-1.2c0-6.5,2.6-9.9,6.2-9.9s6.2,3.4,6.2,9.9v1.2c0,6.5-2.6,9.9-6.2,9.9S385.2,399.3,385.2,392.7z
		 M393.2,392.8v-1.4c0-4-0.7-5.9-1.8-5.9c-1.1,0-1.8,1.8-1.8,5.9v1.4c0,4,0.7,5.9,1.8,5.9C392.5,398.7,393.2,396.8,393.2,392.8z"/>
	<path class="st0" d="M399.9,388.2h9.6v4.6h-9.6V388.2z"/>
	<path class="st0" d="M415.3,375.6h4.9l5,26.7h-4.6l-0.9-5.3h-4.1l-0.8,5.3h-4.4L415.3,375.6z M419,392.8l-1.4-8.8l-1.4,8.8H419z"/>
	<path class="st0" d="M430.8,399.8v2.5h-4.4v-26.8h4.4v9c0.6-1.2,1.6-2.9,3.5-2.9c2.4,0,4.3,2.3,4.3,9.7v1.8c0,7.3-1.9,9.7-4.3,9.7
		C432.4,402.7,431.5,401,430.8,399.8z M434.1,392.8v-1.4c0-3.7-0.5-5.6-1.6-5.6c-1.1,0-1.8,1.9-1.8,5.6v1.4c0,3.6,0.6,5.6,1.8,5.6
		C433.6,398.4,434.1,396.4,434.1,392.8z"/>
	<path class="st0" d="M440.7,381.9h4.4v2.6c0.6-1.8,1.5-2.9,3.2-2.8v5.4h-0.1c-2.1,0-3.1,1.4-3.1,4.3v10.9h-4.4V381.9z"/>
	<path class="st0" d="M449.9,397.3v-15.5h4.4v14.4c0,1.5,0.6,2.3,1.5,2.3s1.5-0.8,1.5-2.3v-14.4h4.4v20.4h-4.4v-2.4
		c-0.8,1.6-1.8,2.8-3.5,2.8C451.3,402.7,449.9,400.5,449.9,397.3z"/>
	<path class="st0" d="M464.7,385.5h-1.2v-3.7h1.2v-1.5c0-1.7,0.4-2.9,1.2-3.7c0.9-0.9,2.2-1.3,3.8-1.3c0.7,0,1.2,0,1.6,0.2v3.7
		c-0.2,0-0.3,0-0.5,0c-1.1,0-1.8,0.6-1.8,1.9v0.8h2.3v3.7h-2.3v16.8h-4.4V385.5z"/>
	<path class="st0" d="M471.9,392.6v-1c0-6.5,2.8-10.1,6.1-10.1c3.5,0,5.7,3.5,5.7,10.2v2.4h-7.4c0.3,3.2,1.6,4.3,3,4.3
		c1.3,0,2.2-0.6,3.5-1.5l0.3,4.1c-1.5,1-2.7,1.6-4.4,1.6C475.1,402.7,471.9,399.2,471.9,392.6z M479.6,390.6c0-3.4-0.5-5.1-1.5-5.1
		c-1,0-1.6,1.4-1.7,5.1H479.6z"/>
	<path class="st0" d="M493,398.9v-15.2h-1.9v-1.5h1.9v-5.6h1.6v5.6h3.2v1.5h-3.2v14.9c0,1.8,0.8,2.2,2.1,2.2c0.4,0,0.9-0.1,1.2-0.2
		v1.5c-0.4,0.2-0.9,0.2-1.3,0.2C494.4,402.4,493,401.5,493,398.9z"/>
	<path class="st0" d="M499.9,396.5v-0.3c0-3.7,1.9-6.4,5.2-6.4c1.3,0,2.4,0.3,3.3,0.8V388c0-2.8-1.2-4.4-3.7-4.4
		c-1.4,0-2.5,0.3-3.6,0.9v-1.6c1.1-0.5,2.3-0.9,3.7-0.9c1.6,0,2.8,0.5,3.8,1.4c0.8,0.8,1.4,2.4,1.4,4.3v14.5h-1.6v-2.9
		c-0.8,2-2.1,3.2-4,3.2C501.7,402.6,499.9,400,499.9,396.5z M508.3,396v-4c-1-0.5-2.1-0.8-3.2-0.8c-2.4,0-3.7,2.1-3.7,4.8v0.3
		c0,2.7,1.1,4.8,3.1,4.8C506.9,401.2,508.3,398.7,508.3,396z M502.5,377.4h1.7v2.6h-1.7V377.4z M506.2,377.4h1.7v2.6h-1.7V377.4z"/>
	<path class="st0" d="M513.8,406.5v-1.6c1.4,0.6,3.1,1,4.4,1c2.7,0,4-1.3,4-4v-4.7c-0.8,2.3-2.1,4.1-4.1,4.1c-2.6,0-5.1-3.3-5.1-9.4
		v-0.3c0-6.1,2.5-9.4,5.1-9.4c2,0,3.3,1.9,4.1,4.2v-3.8h1.6v19.4c0,1.8-0.5,3.2-1.4,4.1c-1,1-2.4,1.5-4.3,1.5
		C516.8,407.3,515.2,407,513.8,406.5z M522.3,391.8v-0.3c0-5.1-2.1-8-4-8c-1.9,0-3.7,2.9-3.7,8.1v0.3c0,5.2,1.8,8.1,3.7,8.1
		C520.2,399.8,522.3,396.9,522.3,391.8z"/>
	<path class="st0" d="M528,375.4h1.6v26.9H528V375.4z"/>
	<path class="st0" d="M533.9,375.4h1.7v2.7h-1.7V375.4z M534,382.3h1.6v20H534V382.3z"/>
	<path class="st0" d="M538.9,392.5v-0.4c0-6.9,3-10.1,6-10.1c1,0,1.8,0.3,2.4,0.7v1.8c-0.7-0.5-1.5-0.9-2.4-0.9
		c-2,0-4.4,2.6-4.4,8.5v0.5c0,6,2.3,8.4,4.5,8.4c0.8,0,1.6-0.3,2.2-0.9v1.7c-0.6,0.5-1.4,0.8-2.4,0.8
		C541.8,402.6,538.9,399.5,538.9,392.5z"/>
	<path class="st0" d="M550.2,375.4h1.6v9.9c0.7-1.7,1.9-3.2,4-3.2c2.7,0,4.5,2.2,4.5,6.3v14h-1.6v-13.8c0-3.3-1.2-5.1-3.2-5.1
		c-2.1,0-3.7,2.2-3.7,5.4v13.5h-1.6V375.4z"/>
</g>
<g>
	<path class="st0" d="M385,186.7h6.5c8.8,0,13.9,6.5,13.9,19.5v1.4c0,13-5,19.5-13.9,19.5H385V186.7z M391.9,193.1v27.5h0.3
		c3.3,0,6.1-2.9,6.1-13v-1.4c0-10.1-2.8-13-6.1-13H391.9z"/>
	<path class="st0" d="M408,212.6v-1.8c0-9.9,4-15.1,9.4-15.1s9.4,5.1,9.4,15.1v1.8c0,9.9-4,15.1-9.4,15.1S408,222.5,408,212.6z
		 M420.1,212.7v-2.1c0-6.1-1-8.9-2.7-8.9s-2.7,2.8-2.7,8.9v2.1c0,6,1,8.9,2.7,8.9S420.1,218.7,420.1,212.7z"/>
	<path class="st0" d="M428.2,196.1h6.7l2.3,17.8l2.7-17.8h5.2l2.7,17.8l2.3-17.8h6.6l-5.2,31.1h-6.3l-2.8-17.4l-2.7,17.4h-6.3
		L428.2,196.1z"/>
	<path class="st0" d="M459.2,196.1h6.7v3.7c1.2-2.4,2.7-4.3,5.4-4.3c3.9,0,5.8,3.3,5.8,8.1v23.4h-6.7v-21.9c0-2.3-0.8-3.5-2.2-3.5
		s-2.3,1.3-2.3,3.5v21.9h-6.7V196.1z"/>
	<path class="st0" d="M480.7,186.4h6.7v40.7h-6.7V186.4z"/>
	<path class="st0" d="M490.6,212.6v-1.8c0-9.9,4-15.1,9.4-15.1s9.4,5.1,9.4,15.1v1.8c0,9.9-4,15.1-9.4,15.1S490.6,222.5,490.6,212.6
		z M502.8,212.7v-2.1c0-6.1-1-8.9-2.7-8.9s-2.7,2.8-2.7,8.9v2.1c0,6,1,8.9,2.7,8.9S502.8,218.7,502.8,212.7z"/>
	<path class="st0" d="M511.5,218.5v-1c0-6.9,2.7-9.8,6.7-9.8c1.4,0,2.7,0.4,4,1.2V207c0-3.2-1.5-4.8-4.2-4.8c-1.8,0-3.6,0.7-5,1.4
		v-6.5c2-0.9,4.4-1.3,6.1-1.3c3.3,0,5.5,0.8,7.1,2.5c1.8,1.8,2.7,4.6,2.7,8.3v20.5h-6.7v-3.3c-1.2,2.5-2.8,3.8-5,3.8
		C513.9,227.6,511.5,224.1,511.5,218.5z M522.3,218.9v-5.3c-0.5-0.3-1.5-0.6-2.1-0.6c-1.4,0-2.3,1.2-2.3,4.1v0.8c0,3.1,0.9,4,2.1,4
		C521.2,221.9,522.3,220.9,522.3,218.9z"/>
	<path class="st0" d="M532,213v-2.8c0-11,2.8-14.7,6.5-14.7c2.9,0,4.3,2.5,5.3,4.3v-13.5h6.7v40.7h-6.7v-3.9c-1,1.8-2.4,4.4-5.3,4.4
		C534.8,227.7,532,224.1,532,213z M543.8,212.6v-2.1c0-5.5-1-8.5-2.7-8.5s-2.5,3-2.5,8.5v2.1c0,5.5,0.8,8.5,2.5,8.5
		S543.8,218.2,543.8,212.6z"/>
	<path class="st0" d="M553.3,226.2v-6.7c2.3,1.2,4.2,2,5.7,2c1.6,0,2.5-0.9,2.5-2.5c0-1.3-0.5-2.3-3.4-5.1c-3.1-3.1-5.2-5.8-5.2-9.8
		V204c0-5.1,3.5-8.4,8.6-8.4c1.9,0,3.3,0.2,5,0.8v6.7c-1.4-0.8-3-1.4-4.6-1.4c-1.6,0-2.5,0.9-2.5,2.1c0,1.2,0.5,2,3.6,5.1
		c3.7,3.7,4.9,6.2,4.9,9.7v0.1c0,5.4-3.7,8.8-8.5,8.8C557.5,227.7,555.2,227.1,553.3,226.2z"/>
</g>
<g>
	<path class="st0" d="M384.5,242.9c0-4.1,1.5-6.9,3.5-8.4v0.7c-1.6,1.5-2.7,3.8-2.7,7.7c0,3.8,1.2,6.2,2.7,7.7v0.7
		C386,249.8,384.5,247,384.5,242.9z"/>
	<path class="st0" d="M389.5,234.7h0.9v1.4h-0.9V234.7z M389.5,238.3h0.8v10.3h-0.8V238.3z"/>
	<path class="st0" d="M392.2,241.9v-0.3c0-4.5,1.4-6.9,3.2-6.9c1.8,0,3.2,2.3,3.2,6.9v0.3c0,4.5-1.4,6.9-3.2,6.9
		C393.5,248.8,392.2,246.4,392.2,241.9z M397.7,241.9v-0.3c0-4-1-6.1-2.4-6.1s-2.4,2.1-2.4,6.1v0.3c0,4,1,6.1,2.4,6.1
		S397.7,245.9,397.7,241.9z"/>
	<path class="st0" d="M399.8,248v-1c0.9,0.6,1.7,0.9,2.4,0.9c1.1,0,1.9-0.8,1.9-2v0c0-1.1-0.4-1.9-1.9-3.9c-1.8-2.5-2.2-3.2-2.2-4.5
		v0c0-1.6,1.2-2.8,2.6-2.8c0.8,0,1.4,0.2,2,0.6v1c-0.7-0.5-1.4-0.8-2.1-0.8c-1,0-1.8,0.8-1.8,1.9v0c0,1,0.4,1.8,1.9,3.7
		c1.6,2.1,2.2,3.2,2.2,4.7v0c0,1.7-1.2,2.9-2.7,2.9C401.4,248.8,400.6,248.5,399.8,248z"/>
	<path class="st0" d="M409.7,233.5h0.7l-4.2,17h-0.7L409.7,233.5z"/>
	<path class="st0" d="M413.2,234.8h0.9l2.9,13.8h-0.9l-0.8-3.8h-3.5l-0.8,3.8h-0.8L413.2,234.8z M415.3,244l-1.6-7.8l-1.6,7.8H415.3
		z"/>
	<path class="st0" d="M418.6,238.3h0.8v1.5c0.3-0.9,1-1.7,2.1-1.7c1.4,0,2.3,1.2,2.3,3.3v7.2H423v-7.1c0-1.7-0.6-2.6-1.7-2.6
		c-1.1,0-1.9,1.1-1.9,2.8v7h-0.8V238.3z"/>
	<path class="st0" d="M425.4,243.6v-0.4c0-3.3,1.3-5.1,2.6-5.1c1,0,1.7,1,2.1,2.1v-5.6h0.8v13.9h-0.8v-2c-0.4,1.2-1.1,2.1-2.1,2.1
		C426.7,248.8,425.4,247,425.4,243.6z M430.2,243.7v-0.5c0-2.8-1-4.3-2.1-4.3c-1,0-1.9,1.6-1.9,4.4v0.3c0,2.8,0.9,4.4,1.9,4.4
		C429.2,248,430.2,246.5,430.2,243.7z"/>
	<path class="st0" d="M433.1,238.3h0.8v1.5c0.4-0.9,1.2-1.7,2.4-1.6v0.9h0c-1.3,0-2.3,0.8-2.3,2.6v6.9h-0.8V238.3z"/>
	<path class="st0" d="M436.8,243.5v-0.2c0-3.2,1.4-5.2,2.9-5.2c1.5,0,2.9,2,2.9,5.2v0.2c0,3.2-1.3,5.2-2.9,5.2
		C438.1,248.8,436.8,246.8,436.8,243.5z M441.7,243.5v-0.2c0-2.7-0.9-4.5-2.1-4.5s-2.1,1.7-2.1,4.5v0.2c0,2.7,0.9,4.5,2.1,4.5
		S441.7,246.3,441.7,243.5z"/>
	<path class="st0" d="M444.2,234.7h0.9v1.4h-0.9V234.7z M444.3,238.3h0.8v10.3h-0.8V238.3z"/>
	<path class="st0" d="M446.9,243.6v-0.4c0-3.3,1.3-5.1,2.6-5.1c1,0,1.7,1,2.1,2.1v-5.6h0.8v13.9h-0.8v-2c-0.4,1.2-1.1,2.1-2.1,2.1
		C448.1,248.8,446.9,247,446.9,243.6z M451.7,243.7v-0.5c0-2.8-1-4.3-2.1-4.3c-1,0-1.9,1.6-1.9,4.4v0.3c0,2.8,0.9,4.4,1.9,4.4
		C450.6,248,451.7,246.5,451.7,243.7z"/>
	<path class="st0" d="M453.8,250.6c1.6-1.5,2.7-3.8,2.7-7.7c0-3.8-1.2-6.2-2.7-7.7v-0.7c2,1.5,3.5,4.3,3.5,8.4
		c0,4.1-1.5,6.9-3.5,8.4V250.6z"/>
</g>
<rect x="251.9" y="152.1" class="st0" width="122.1" height="17"/>
<g>
	<path class="st0" d="M159.4,423.4h5.9c8,0,12.6,5.9,12.6,17.7v1.3c0,11.8-4.6,17.7-12.6,17.7h-5.9V423.4z M165.7,429.3v24.9h0.3
		c3,0,5.5-2.7,5.5-11.8v-1.3c0-9.2-2.6-11.8-5.5-11.8H165.7z"/>
	<path class="st0" d="M180.8,432h6.1v3.5c0.8-2.4,2.1-4,4.4-3.8v7.4h-0.1c-2.9,0-4.3,2-4.3,6v15h-6.1V432z"/>
	<path class="st0" d="M193.7,423.1h6.2v6.2h-6.2V423.1z M193.7,432h6.1V460h-6.1V432z"/>
	<path class="st0" d="M203.9,455.2V437h-1.6v-5h1.6v-7.2h6.1v7.2h3.2v5H210v16.1c0,1.3,0.6,1.7,1.7,1.7c0.5,0,1-0.1,1.5-0.3v4.9
		c-0.9,0.5-2.4,0.9-3.6,0.9C206.7,460.4,203.9,459.5,203.9,455.2z"/>
	<path class="st0" d="M216.2,455.2V437h-1.6v-5h1.6v-7.2h6.1v7.2h3.2v5h-3.2v16.1c0,1.3,0.6,1.7,1.7,1.7c0.5,0,1-0.1,1.5-0.3v4.9
		c-0.9,0.5-2.4,0.9-3.6,0.9C219,460.4,216.2,459.5,216.2,455.2z"/>
	<path class="st0" d="M228.5,466.1v-5.7c1.7,0.6,3.9,1.2,5.1,1.2c2.7,0,4.4-1.2,4.4-4.4v-2.8c-0.9,1.7-2.2,4-4.9,4
		c-3.3,0-5.8-3.3-5.8-13.3v-0.3c0-10,2.5-13.3,5.8-13.3c2.7,0,4,2.2,4.9,3.9V432h6.1v25.6c0,3.1-0.8,5.3-2.4,7
		c-1.6,1.7-4.2,2.4-7.3,2.4C231.9,467,230.4,466.6,228.5,466.1z M238.1,445v-0.1c0-5-1-7.5-2.4-7.5s-2.3,2.5-2.3,7.5v0.1
		c0,5,0.8,7.5,2.3,7.5S238.1,450,238.1,445z"/>
	<path class="st0" d="M247.5,432h6.1v3.5c0.8-2.4,2.1-4,4.4-3.8v7.4h-0.1c-2.9,0-4.3,2-4.3,6v15h-6.1V432z"/>
	<path class="st0" d="M259,446.9v-1.7c0-9,3.6-13.7,8.5-13.7s8.5,4.7,8.5,13.7v1.7c0,9-3.6,13.7-8.5,13.7S259,455.9,259,446.9z
		 M261.2,423.9h5.4v5.7h-5.4V423.9z M270,447v-1.9c0-5.5-0.9-8.1-2.5-8.1s-2.5,2.5-2.5,8.1v1.9c0,5.4,0.9,8.1,2.5,8.1
		S270,452.5,270,447z M268.5,423.9h5.4v5.7h-5.4V423.9z"/>
	<path class="st0" d="M287.5,454.9c2.3-0.3,3.4-2.2,3.4-5.5v-0.2c0-3-1-5.1-3.4-5.8v-4.5c1.9-1.3,2.7-3.5,2.7-6.1v-0.3
		c0-2.6-0.9-4.1-2.5-4.1c-1.7,0-2.6,1.8-2.6,5.3V460H279V434c0-6.5,3.1-10.9,8.8-10.9c5.3,0,8.2,4,8.2,8.6v0.4c0,4.2-1.6,6.7-4,8.4
		c3,1.5,4.9,4.2,4.9,8.7v0.4c0,6.4-3.1,10.4-9.4,10.6V454.9z"/>
	<path class="st0" d="M300.1,455.2V437h-1.6v-5h1.6v-7.2h6.1v7.2h3.2v5h-3.2v16.1c0,1.3,0.6,1.7,1.7,1.7c0.5,0,1-0.1,1.5-0.3v4.9
		c-0.9,0.5-2.4,0.9-3.6,0.9C302.9,460.4,300.1,459.5,300.1,455.2z"/>
	<path class="st0" d="M310.7,446.8v-1.4c0-9,3.8-13.8,8.4-13.8c4.8,0,7.8,4.9,7.8,14.1v3.2h-10.1c0.4,4.4,2.2,5.9,4.2,5.9
		c1.8,0,3-0.8,4.8-2l0.5,5.7c-2.1,1.4-3.7,2.1-6.1,2.1C315,460.6,310.7,455.8,310.7,446.8z M321.2,444c0-4.7-0.7-7-2.1-7
		c-1.4,0-2.3,2-2.4,7H321.2z"/>
	<path class="st0" d="M329.4,432h6.1v3.5c0.8-2.4,2.1-4,4.4-3.8v7.4h-0.1c-2.9,0-4.3,2-4.3,6v15h-6.1V432z"/>
	<path class="st0" d="M350.5,423.4h6.5c3.3,0,6.2,0.9,8.1,2.9c1.9,1.9,3,4.8,3,8.7v0.5c0,4.8-1.8,7.8-4.2,9.6l4.8,14.9H362
		l-4.1-12.8h-1.2V460h-6.3V423.4z M357.1,441.5c2.7,0,4.7-1.6,4.7-5.9v-0.4c0-4.6-2.2-5.8-4.9-5.8h-0.2v12.1H357.1z"/>
	<path class="st0" d="M369.6,446.8v-1.4c0-9,3.8-13.8,8.4-13.8c4.8,0,7.8,4.9,7.8,14.1v3.2h-10.1c0.4,4.4,2.2,5.9,4.2,5.9
		c1.8,0,3-0.8,4.8-2l0.5,5.7c-2.1,1.4-3.7,2.1-6.1,2.1C373.9,460.6,369.6,455.8,369.6,446.8z M380.1,444c0-4.7-0.7-7-2.1-7
		c-1.4,0-2.3,2-2.4,7H380.1z"/>
	<path class="st0" d="M388.9,437h-1.7v-5h1.7v-2c0-2.3,0.6-4,1.7-5.1c1.2-1.2,3-1.8,5.2-1.8c1,0,1.6,0.1,2.3,0.2v5.1
		c-0.3-0.1-0.4-0.1-0.7-0.1c-1.5,0-2.4,0.8-2.4,2.6v1.1h3.1v5H395v23h-6.1V437z"/>
	<path class="st0" d="M398.9,446.8v-1.4c0-9,3.8-13.8,8.4-13.8c4.8,0,7.8,4.9,7.8,14.1v3.2H405c0.4,4.4,2.2,5.9,4.2,5.9
		c1.8,0,3-0.8,4.8-2l0.5,5.7c-2.1,1.4-3.7,2.1-6.1,2.1C403.2,460.6,398.9,455.8,398.9,446.8z M409.4,444c0-4.7-0.7-7-2.1-7
		c-1.4,0-2.3,2-2.4,7H409.4z"/>
	<path class="st0" d="M417.6,432h6.1v3.5c0.8-2.4,2.1-4,4.4-3.8v7.4h-0.1c-2.9,0-4.3,2-4.3,6v15h-6.1V432z"/>
	<path class="st0" d="M430.4,432h6.1v3.5c0.8-2.4,2.1-4,4.4-3.8v7.4h-0.1c-2.9,0-4.3,2-4.3,6v15h-6.1V432z"/>
	<path class="st0" d="M441.8,446.8v-1.4c0-9,3.8-13.8,8.4-13.8c4.8,0,7.8,4.9,7.8,14.1v3.2h-10.1c0.4,4.4,2.2,5.9,4.2,5.9
		c1.8,0,3-0.8,4.8-2l0.5,5.7c-2.1,1.4-3.7,2.1-6.1,2.1C446.1,460.6,441.8,455.8,441.8,446.8z M452.3,444c0-4.7-0.7-7-2.1-7
		c-1.4,0-2.3,2-2.4,7H452.3z"/>
	<path class="st0" d="M460.4,432h6.1v3.5c0.8-2.4,2.1-4,4.4-3.8v7.4h-0.1c-2.9,0-4.3,2-4.3,6v15h-6.1V432z"/>
	<path class="st0" d="M160,489.4h-1.7v-5h1.7v-2c0-2.3,0.6-4,1.7-5.1c1.2-1.2,3-1.8,5.2-1.8c1,0,1.6,0.1,2.3,0.2v5.1
		c-0.3-0.1-0.4-0.1-0.7-0.1c-1.5,0-2.4,0.8-2.4,2.6v1.1h3.1v5H166v23H160V489.4z"/>
	<path class="st0" d="M171,505.6v-21.2h6.1v19.8c0,2,0.8,3.2,2,3.2s2.1-1.2,2.1-3.2v-19.8h6.1v28.1h-6.1V509
		c-1.1,2.1-2.5,3.9-4.9,3.9C172.8,512.9,171,509.9,171,505.6z M172.7,476.7h5.4v5.7h-5.4V476.7z M180,476.7h5.4v5.7H180V476.7z"/>
	<path class="st0" d="M190.6,484.3h6.1v3.5c0.8-2.4,2.1-4,4.4-3.8v7.4H201c-2.9,0-4.3,2-4.3,6v15h-6.1V484.3z"/>
	<path class="st0" d="M211.7,475.7h5.3c3.7,0,7.2,0.9,9.3,3.1c1.5,1.6,2.4,3.6,2.4,6.2v0.3c0,4.7-2.6,7-5.2,8.3
		c3,1.4,5.6,3.5,5.6,8.2v0.5c0,6.5-4.9,10.2-11.9,10.2h-5.6V475.7z M222.6,486.2c0-3.2-1.8-4.6-4.6-4.6h-0.1v9.5h0.1
		c2.8,0,4.6-1.6,4.6-4.8V486.2z M218.1,496.7h-0.2v9.8h0.2c2.9,0,4.9-1.7,4.9-4.8v-0.3C223,498.4,220.9,496.7,218.1,496.7z"/>
	<path class="st0" d="M232,475.7h6.3v36.6H232V475.7z"/>
	<path class="st0" d="M242,475.7h6.3v30.6h6.6v6.1H242V475.7z"/>
	<path class="st0" d="M257.5,475.7h5.9c8,0,12.6,5.9,12.6,17.7v1.3c0,11.8-4.6,17.7-12.6,17.7h-5.9V475.7z M263.7,481.6v24.9h0.3
		c3,0,5.5-2.7,5.5-11.8v-1.3c0-9.2-2.6-11.8-5.5-11.8H263.7z"/>
	<path class="st0" d="M287,484.3h6.1v3.3c1.2-2.4,2.6-3.8,4.9-3.8c2.3,0,3.6,1.4,4.6,3.2c1.1-1.5,2.6-3.2,4.9-3.2
		c2.9,0,5.7,2.5,5.7,7.4v21.1h-6.1v-19.8c0-2-0.7-3.2-2-3.2s-2.1,1.2-2.1,3.2v19.8h-6.1v-19.8c0-2-0.7-3.2-2-3.2
		c-1.2,0-2.1,1.2-2.1,3.2v19.8H287V484.3z"/>
	<path class="st0" d="M316.1,499.2v-1.7c0-9,3.6-13.7,8.5-13.7s8.5,4.7,8.5,13.7v1.7c0,9-3.6,13.7-8.5,13.7S316.1,508.2,316.1,499.2
		z M327.1,499.3v-1.9c0-5.5-0.9-8.1-2.5-8.1s-2.5,2.5-2.5,8.1v1.9c0,5.4,0.9,8.1,2.5,8.1S327.1,504.8,327.1,499.3z"/>
	<path class="st0" d="M342,509v3.4H336v-36.9h6.1v12.4c0.9-1.7,2.2-4,4.8-4c3.3,0,5.9,3.2,5.9,13.3v2.5c0,10-2.6,13.3-5.9,13.3
		C344.2,512.9,343,510.7,342,509z M346.7,499.3v-1.9c0-5-0.7-7.7-2.3-7.7s-2.4,2.7-2.4,7.7v1.9c0,5,0.9,7.7,2.4,7.7
		S346.7,504.3,346.7,499.3z"/>
	<path class="st0" d="M355.7,475.5h6.2v6.2h-6.2V475.5z M355.8,484.3h6.1v28.1h-6.1V484.3z"/>
	<path class="st0" d="M365.3,475.5h6.1v36.9h-6.1V475.5z"/>
</g>
<g>
	<path class="st0" d="M160.4,273.6h1.6c2.6,0,4.4,2.3,4.4,6.8v0.4c0,4.5-1.8,6.8-4.4,6.8h-1.6V273.6z M161.3,274.4v12.4h0.8
		c2.1,0,3.5-2.1,3.5-6v-0.4c0-4-1.5-6-3.6-6H161.3z"/>
	<path class="st0" d="M168.2,284.5v-7.4h0.8v7.3c0,1.7,0.6,2.7,1.7,2.7c1.1,0,2-1.1,2-2.8v-7.1h0.8v10.5h-0.8v-1.5
		c-0.4,0.9-1,1.7-2.1,1.7C169.2,287.8,168.2,286.6,168.2,284.5z"/>
	<path class="st0" d="M175.6,277.1h0.8v1.5c0.4-1,1.2-1.7,2.4-1.7v0.9h0c-1.3,0-2.4,0.8-2.4,2.7v7.1h-0.8V277.1z"/>
	<path class="st0" d="M179.4,282.5v-0.2c0-3.7,1.6-5.3,3.1-5.3c0.5,0,0.9,0.2,1.2,0.4v0.9c-0.4-0.3-0.8-0.5-1.3-0.5
		c-1.1,0-2.3,1.4-2.3,4.5v0.3c0,3.2,1.2,4.4,2.4,4.4c0.4,0,0.8-0.2,1.2-0.5v0.9c-0.3,0.2-0.7,0.4-1.2,0.4
		C180.9,287.8,179.4,286.2,179.4,282.5z"/>
	<path class="st0" d="M185.3,273.5h0.8v5.2c0.4-0.9,1-1.7,2.1-1.7c1.4,0,2.4,1.2,2.4,3.3v7.4h-0.8v-7.3c0-1.7-0.6-2.7-1.7-2.7
		c-1.1,0-2,1.1-2,2.8v7.1h-0.8V273.5z"/>
	<path class="st0" d="M192.1,287.3v-0.9c0.7,0.4,1.4,0.6,2.1,0.6c0.9,0,1.6-0.6,1.6-1.6v0c0-0.7-0.4-1.5-1.6-2.7
		c-1.5-1.5-2-2.3-2-3.4v0c0-1.5,1.1-2.3,2.3-2.3c0.7,0,1.2,0.1,1.7,0.3v0.9c-0.6-0.3-1.1-0.4-1.8-0.4c-0.8,0-1.5,0.6-1.5,1.5v0
		c0,0.8,0.4,1.3,1.6,2.6c1.5,1.5,2,2.3,2,3.5v0c0,1.5-1.2,2.4-2.4,2.4C193.4,287.8,192.8,287.6,192.1,287.3z"/>
	<path class="st0" d="M197.7,282.5v-0.2c0-3.7,1.6-5.3,3.1-5.3c0.5,0,0.9,0.2,1.2,0.4v0.9c-0.4-0.3-0.8-0.5-1.3-0.5
		c-1.1,0-2.3,1.4-2.3,4.5v0.3c0,3.2,1.2,4.4,2.4,4.4c0.4,0,0.8-0.2,1.2-0.5v0.9c-0.3,0.2-0.7,0.4-1.2,0.4
		C199.3,287.8,197.7,286.2,197.7,282.5z"/>
	<path class="st0" d="M203.7,273.5h0.8v5.2c0.4-0.9,1-1.7,2.1-1.7c1.4,0,2.4,1.2,2.4,3.3v7.4h-0.8v-7.3c0-1.7-0.6-2.7-1.7-2.7
		c-1.1,0-2,1.1-2,2.8v7.1h-0.8V273.5z"/>
	<path class="st0" d="M211,277.1h0.8v1.5c0.4-0.9,1-1.7,2.1-1.7c1.4,0,2.4,1.2,2.4,3.3v7.4h-0.8v-7.3c0-1.7-0.6-2.7-1.7-2.7
		c-1.1,0-2,1.1-2,2.8v7.1H211V277.1z"/>
	<path class="st0" d="M218.4,273.5h0.9v1.4h-0.9V273.5z M218.5,277.1h0.8v10.5h-0.8V277.1z"/>
	<path class="st0" d="M221.8,285.9v-8h-1v-0.8h1v-3h0.8v3h1.7v0.8h-1.7v7.9c0,0.9,0.4,1.2,1.1,1.2c0.2,0,0.5,0,0.6-0.1v0.8
		c-0.2,0.1-0.5,0.1-0.7,0.1C222.5,287.7,221.8,287.2,221.8,285.9z"/>
	<path class="st0" d="M226.1,285.9v-8h-1v-0.8h1v-3h0.8v3h1.7v0.8H227v7.9c0,0.9,0.4,1.2,1.1,1.2c0.2,0,0.5,0,0.6-0.1v0.8
		c-0.2,0.1-0.5,0.1-0.7,0.1C226.8,287.7,226.1,287.2,226.1,285.9z"/>
	<path class="st0" d="M230.4,273.5h0.8v14.2h-0.8V273.5z"/>
	<path class="st0" d="M233.5,273.5h0.9v1.4h-0.9V273.5z M233.5,277.1h0.8v10.5h-0.8V277.1z"/>
	<path class="st0" d="M236.1,282.5v-0.2c0-3.7,1.6-5.3,3.1-5.3c0.5,0,0.9,0.2,1.2,0.4v0.9c-0.4-0.3-0.8-0.5-1.3-0.5
		c-1.1,0-2.3,1.4-2.3,4.5v0.3c0,3.2,1.2,4.4,2.4,4.4c0.4,0,0.8-0.2,1.2-0.5v0.9c-0.3,0.2-0.7,0.4-1.2,0.4
		C237.7,287.8,236.1,286.2,236.1,282.5z"/>
	<path class="st0" d="M242.1,273.5h0.8v5.2c0.4-0.9,1-1.7,2.1-1.7c1.4,0,2.4,1.2,2.4,3.3v7.4h-0.8v-7.3c0-1.7-0.6-2.7-1.7-2.7
		c-1.1,0-2,1.1-2,2.8v7.1h-0.8V273.5z"/>
	<path class="st0" d="M249,282.6v-0.2c0-3.7,1.3-5.4,2.8-5.4c1.5,0,2.7,1.9,2.7,5.2v0.6h-4.7c0,2.8,1.2,4.3,2.6,4.3
		c0.6,0,1.1-0.2,1.8-0.6l0.1,0.9c-0.7,0.4-1.2,0.6-2,0.6C250.5,287.8,249,286.1,249,282.6z M253.7,282c0-2.4-0.8-4.3-1.9-4.3
		c-1.1,0-1.9,1.5-2,4.3H253.7z"/>
	<path class="st0" d="M259.6,273.6h0.9l4.3,11.8v-11.8h0.8v14h-0.8l-4.4-12.1v12.1h-0.8V273.6z"/>
	<path class="st0" d="M267.7,284.5v-7.4h0.8v7.3c0,1.7,0.6,2.7,1.7,2.7c1.1,0,2-1.1,2-2.8v-7.1h0.8v10.5h-0.8v-1.5
		c-0.4,0.9-1,1.7-2.1,1.7C268.7,287.8,267.7,286.6,267.7,284.5z"/>
	<path class="st0" d="M275.4,285.9v-8h-1v-0.8h1v-3h0.8v3h1.7v0.8h-1.7v7.9c0,0.9,0.4,1.2,1.1,1.2c0.2,0,0.5,0,0.6-0.1v0.8
		c-0.2,0.1-0.5,0.1-0.7,0.1C276.1,287.7,275.4,287.2,275.4,285.9z"/>
	<path class="st0" d="M279,287.2l3.8-9.3h-3.6v-0.7h4.5v0.5l-3.8,9.3h3.7v0.7H279V287.2z"/>
	<path class="st0" d="M285.2,284.5v-7.4h0.8v7.3c0,1.7,0.6,2.7,1.7,2.7c1.1,0,2-1.1,2-2.8v-7.1h0.8v10.5h-0.8v-1.5
		c-0.4,0.9-1,1.7-2.1,1.7C286.1,287.8,285.2,286.6,285.2,284.5z"/>
	<path class="st0" d="M292.6,277.1h0.8v1.5c0.4-0.9,1-1.7,2.1-1.7c1.4,0,2.4,1.2,2.4,3.3v7.4h-0.8v-7.3c0-1.7-0.6-2.7-1.7-2.7
		c-1.1,0-2,1.1-2,2.8v7.1h-0.8V277.1z"/>
	<path class="st0" d="M299.9,289.9V289c0.7,0.3,1.6,0.5,2.3,0.5c1.4,0,2.1-0.7,2.1-2.1v-2.5c-0.4,1.2-1.1,2.2-2.2,2.2
		c-1.4,0-2.7-1.7-2.7-5v-0.2c0-3.2,1.3-5,2.7-5c1,0,1.8,1,2.2,2.2v-2h0.8v10.2c0,1-0.3,1.7-0.7,2.2c-0.5,0.5-1.3,0.8-2.3,0.8
		C301.5,290.3,300.7,290.2,299.9,289.9z M304.4,282.1v-0.2c0-2.7-1.1-4.2-2.1-4.2c-1,0-2,1.5-2,4.3v0.1c0,2.7,0.9,4.3,2,4.3
		C303.3,286.4,304.4,284.8,304.4,282.1z"/>
	<path class="st0" d="M310.5,277.1h0.8v2c0.4-1.2,1.1-2.2,2.2-2.2c1.4,0,2.7,1.8,2.7,5.2v0.4c0,3.4-1.3,5.2-2.7,5.2
		c-1,0-1.8-1-2.2-2.2v4.6h-0.8V277.1z M315.4,282.6v-0.3c0-2.9-0.9-4.5-2-4.5c-1,0-2.1,1.6-2.1,4.4v0.5c0,2.8,1.1,4.4,2.1,4.4
		C314.5,287.1,315.4,285.5,315.4,282.6z"/>
	<path class="st0" d="M317.9,277.1h0.8v1.5c0.4-1,1.2-1.7,2.4-1.7v0.9h0c-1.3,0-2.4,0.8-2.4,2.7v7.1h-0.8V277.1z"/>
	<path class="st0" d="M321.7,282.5v-0.2c0-3.3,1.4-5.3,3-5.3c1.6,0,2.9,2,2.9,5.3v0.2c0,3.3-1.4,5.3-2.9,5.3
		C323.1,287.8,321.7,285.8,321.7,282.5z M326.8,282.5v-0.2c0-2.8-0.9-4.6-2.1-4.6c-1.2,0-2.1,1.8-2.1,4.6v0.2c0,2.8,0.9,4.6,2.1,4.6
		C325.8,287,326.8,285.3,326.8,282.5z"/>
	<path class="st0" d="M332.6,273.6h0.9l4.3,11.8v-11.8h0.8v14h-0.8l-4.4-12.1v12.1h-0.8V273.6z"/>
	<path class="st0" d="M340.7,284.5v-7.4h0.8v7.3c0,1.7,0.6,2.7,1.7,2.7c1.1,0,2-1.1,2-2.8v-7.1h0.8v10.5h-0.8v-1.5
		c-0.4,0.9-1,1.7-2.1,1.7C341.7,287.8,340.7,286.6,340.7,284.5z"/>
	<path class="st0" d="M348.4,285.9v-8h-1v-0.8h1v-3h0.8v3h1.7v0.8h-1.7v7.9c0,0.9,0.4,1.2,1.1,1.2c0.2,0,0.5,0,0.6-0.1v0.8
		c-0.2,0.1-0.5,0.1-0.7,0.1C349.2,287.7,348.4,287.2,348.4,285.9z"/>
	<path class="st0" d="M352,287.2l3.8-9.3h-3.6v-0.7h4.5v0.5l-3.8,9.3h3.7v0.7H352V287.2z"/>
	<path class="st0" d="M357.7,282.6v-0.2c0-3.7,1.3-5.4,2.8-5.4c1.5,0,2.7,1.9,2.7,5.2v0.6h-4.7c0,2.8,1.2,4.3,2.6,4.3
		c0.6,0,1.1-0.2,1.8-0.6l0.1,0.9c-0.7,0.4-1.2,0.6-2,0.6C359.2,287.8,357.7,286.1,357.7,282.6z M362.4,282c0-2.4-0.8-4.3-1.9-4.3
		c-1.1,0-1.9,1.5-2,4.3H362.4z"/>
	<path class="st0" d="M364.9,277.1h0.8v1.5c0.4-1,1.2-1.7,2.4-1.7v0.9h0c-1.3,0-2.4,0.8-2.4,2.7v7.1h-0.8V277.1z"/>
	<path class="st0" d="M369.5,277.1h1.2v1.6h-1.2V277.1z M369.5,286h1.2v1.6h-1.2V286z"/>
</g>
</svg>
