<?xml version="1.0" encoding="utf-8"?>
<!-- Generator: Adobe Illustrator 19.1.0, SVG Export Plug-In . SVG Version: 6.00 Build 0)  -->
<svg version="1.1" id="Ebene_1" xmlns="http://www.w3.org/2000/svg" xmlns:xlink="http://www.w3.org/1999/xlink" x="0px" y="0px"
	 viewBox="0 0 841.9 595.3" style="enable-background:new 0 0 841.9 595.3;" xml:space="preserve">
<style type="text/css">
	.st0{fill:#FFFFFF;}
	.st1{fill:none;}
</style>
<g>
	<polygon class="st0" points="310.6,66.3 322,66.3 322,163.5 310.6,163.5 310.6,66.3 	"/>
	<g>
		<path class="st0" d="M284.3,66.3h-22.5l0,97.1l22.5,0c2.7,0,5-2.3,5-5.2l0-40V116c0-3-2.4-5.5-5.3-5.5l0.5,0c2.6,0,4.8-2.2,4.8-5
			v-3.2V71.5C289.2,68.6,287,66.3,284.3,66.3z M277.9,151.4h-4.7v-33.5h4.7V151.4z M277.9,106h-4.7V78.3h4.7V106z"/>
		<rect x="273.2" y="78.3" class="st1" width="4.7" height="27.7"/>
		<rect x="273.2" y="117.9" class="st1" width="4.7" height="33.5"/>
	</g>
	<g>
		<path class="st0" d="M343,66.3v16.9h-11.1c-2.7,0-4.9,2.3-4.9,5.2l0,69.7c0,2.9,2.2,5.2,5,5.2l22.5,0V66.3H343z M343,151.4h-4.7
			V95.1h4.7V151.4z"/>
		<rect x="338.3" y="95.1" class="st1" width="4.7" height="56.3"/>
	</g>
	<polygon class="st0" points="294.2,66.3 305.6,66.3 305.6,78.3 294.2,78.3 294.2,66.3 	"/>
	<polygon class="st0" points="294.2,83.2 305.6,83.2 305.6,163.5 294.2,163.5 294.2,83.2 	"/>
</g>
<g>
	<path class="st0" d="M360.7,76.6h20.7v10.3h-10v10h8.8V107h-8.8v20.3h-10.7V76.6z"/>
	<path class="st0" d="M381.4,116.4v-1.2c0-8.8,3.8-12.4,8.9-12.4c2.1,0,3.6,0.5,5.3,1.4v-1.5c0-3.6-1.7-5.4-5.1-5.4
		c-2.4,0-5.2,1-7,2v-9.9c2.8-1.2,5.9-1.8,9.3-1.8c4.3,0,7.5,1.2,9.6,3.3c2.3,2.4,3.6,6.1,3.6,10.9v25.6h-10.3v-3.7
		c-1.6,2.8-3.6,4.4-6.5,4.4C384.7,128,381.4,123.8,381.4,116.4z M395.6,116.7v-6c-0.6-0.3-1.6-0.7-2.3-0.7c-1.5,0-2.4,1.4-2.4,4.4
		v1.4c0,3,1,4.2,2.3,4.2C394.4,120.1,395.6,119,395.6,116.7z"/>
	<path class="st0" d="M408.6,109v-2.8c0-12.4,5.7-18.9,13.3-18.9c2.7,0,4.3,0.4,6.3,1.3v10.3c-1.6-0.9-2.8-1.5-4.5-1.5
		c-2.7,0-4.6,2.5-4.6,9.1v2.4c0,6.6,1.8,9.1,4.8,9.1c1.4,0,2.8-0.7,4.4-1.6v10c-2,1.2-3.8,1.7-6.5,1.7
		C413.7,128.2,408.6,121.5,408.6,109z"/>
	<path class="st0" d="M429.8,108.9v-2.3c0-12.5,5.5-19.3,12.9-19.3s12.1,6.8,12.1,19.7v5.3h-14.8c0.5,4.6,2.6,6.3,5.6,6.3
		c2.6,0,5.1-1.2,7.6-2.8l0.6,9.4c-2.8,1.8-6,3-9.9,3C435.8,128.2,429.8,121.6,429.8,108.9z M445.3,105c0-6.2-0.9-8.6-2.6-8.6
		c-1.6,0-2.6,1.9-2.8,8.6H445.3z"/>
	<path class="st0" d="M468,122.7v4.6h-10.4V75.9H468v16.8c1.6-2.8,3.4-5.4,7-5.4c4.6,0,8.5,4,8.5,18.5v3.8c0,14.3-3.9,18.5-8.5,18.5
		C471.4,128.1,469.6,125.6,468,122.7z M473.2,109.8v-4.1c0-5.9-0.8-8.7-2.6-8.7c-1.8,0-2.7,2.8-2.7,8.7v4.1c0,5.9,0.9,8.7,2.7,8.7
		C472.4,118.5,473.2,115.6,473.2,109.8z"/>
	<path class="st0" d="M486.2,109.3v-3c0-12.5,5.4-19,13.2-19c7.7,0,13,6.5,13,19v3c0,12.5-5.3,19-13.1,19
		C491.6,128.2,486.2,121.7,486.2,109.3z M502.1,109.3v-3.3c0-6.8-0.9-9.5-2.8-9.5c-1.8,0-2.7,2.7-2.7,9.5v3.3c0,6.8,0.9,9.5,2.7,9.5
		C501.2,118.8,502.1,116.1,502.1,109.3z"/>
	<path class="st0" d="M514.8,109.3v-3c0-12.5,5.4-19,13.2-19c7.7,0,13,6.5,13,19v3c0,12.5-5.3,19-13.1,19
		C520.2,128.2,514.8,121.7,514.8,109.3z M530.7,109.3v-3.3c0-6.8-0.9-9.5-2.8-9.5s-2.7,2.7-2.7,9.5v3.3c0,6.8,0.9,9.5,2.7,9.5
		S530.7,116.1,530.7,109.3z"/>
	<path class="st0" d="M544,75.9h10.4v25.5l4.5-13.3h10.7l-6.2,16l6.2,23.2h-10.9l-3.1-14l-1.2,3.3v10.7H544V75.9z"/>
</g>
<g>
	<path class="st0" d="M396.6,80v-0.5c0-3.5,1.7-4.8,4.1-4.8c1,0,1.7,0.2,2.4,0.6v-0.6c0-1.4-0.8-2.1-2.4-2.1c-1.1,0-2.4,0.4-3.3,0.8
		v-3.9c1.3-0.5,2.7-0.7,4.3-0.7c2,0,3.5,0.5,4.4,1.3c1.1,0.9,1.6,2.4,1.6,4.3v10h-4.8v-1.4c-0.7,1.1-1.7,1.7-3,1.7
		C398.2,84.6,396.6,83,396.6,80z M403.2,80.2v-2.4c-0.3-0.1-0.7-0.3-1.1-0.3c-0.7,0-1.1,0.6-1.1,1.7v0.6c0,1.2,0.5,1.6,1.1,1.6
		C402.7,81.5,403.2,81.1,403.2,80.2z"/>
	<path class="st0" d="M409.4,80.8V69h4.8v10.7c0,0.8,0.4,1.3,1,1.3c0.6,0,1-0.5,1-1.3V69h4.8v15.3h-4.8v-1.8
		c-0.7,1.1-1.6,2.1-3.3,2.1C410.6,84.6,409.4,83.1,409.4,80.8z"/>
	<path class="st0" d="M423.2,72.3h-1V69h1v-0.7c0-1.4,0.4-2.4,1.2-3.1c0.8-0.7,2-1,3.6-1c0.9,0,1.5,0.1,2,0.1v3.2
		c-0.2,0-0.5-0.1-0.7-0.1c-0.9,0-1.4,0.4-1.4,1.2V69h2.1v3.3h-2v12h-4.8V72.3z"/>
</g>
<g>
	<path class="st0" d="M285.6,250.1h-25.4v-14l24.4-61.6h19v59.2h7.3v16.5h-7.3v15.5h-18V250.1z M285.9,233.6v-29.1l-10.2,29.1H285.9
		z"/>
	<path class="st0" d="M314.2,248.6l16.6-32.5c4.5-9,6-12.7,6-16.5c0-4.2-2.3-7.7-7.7-7.7c-4.6,0-8.7,1.7-13.1,4.2v-18.9
		c4.7-2.2,10.7-4.2,18.1-4.2c12.5,0,21.6,7.8,21.6,22v0.6c0,7.9-2.2,14.3-7.1,23.7l-14.3,26.9h21.1v19.2h-41.1V248.6z"/>
</g>
<g>
	<path class="st0" d="M264.9,289.3l-4.7,1.4v-9.6l7.4-2.4h6.9V325h-9.7V289.3z"/>
	<path class="st0" d="M277.6,331c4.5-1.1,5.9-3.6,5.8-6h-4.9v-10.7h10.3v8.7c0,7.1-4,10.8-10.4,11.7L277.6,331z"/>
	<path class="st0" d="M291.6,312.5v-0.5c0-5.4,2.3-9.2,5.1-11.3c-2.8-2.1-4.6-5.5-4.6-9.8v-0.5c0-7.4,4.8-12.3,11.4-12.3
		c6.6,0,11.4,4.9,11.4,12.3v0.5c0,4.2-1.7,7.7-4.7,9.8c2.9,2,5.2,5.8,5.2,11.3v0.5c0,8.3-4.8,13.5-12,13.5
		C296.3,325.9,291.6,320.8,291.6,312.5z M306.2,311.7v-0.6c0-4.7-1.1-6.4-2.7-6.4s-2.8,1.7-2.8,6.4v0.6c0,4.8,1.2,6.3,2.8,6.3
		S306.2,316.6,306.2,311.7z M306,291.8v-0.5c0-4.3-1.1-5.6-2.5-5.6c-1.4,0-2.5,1.3-2.5,5.6v0.5c0,4,1,5.7,2.5,5.7
		C305,297.5,306,295.8,306,291.8z"/>
</g>
<g>
	<path class="st0" d="M321.6,282.4h5.2l3,8.6l3-8.6h5.3V308h-5.2v-13.8l-3,8.4h-0.1l-3-8.4V308h-5.2V282.4z"/>
	<path class="st0" d="M339.9,282h5.3v4.7h-5.3V282z M340,288.2h5.3V308H340V288.2z"/>
	<path class="st0" d="M346.8,298.9v-1.5c0-6.3,2.7-9.6,6.7-9.6c3.9,0,6.6,3.3,6.6,9.6v1.5c0,6.3-2.7,9.6-6.6,9.6
		C349.5,308.5,346.8,305.2,346.8,298.9z M354.8,298.9v-1.7c0-3.4-0.5-4.8-1.4-4.8s-1.4,1.4-1.4,4.8v1.7c0,3.5,0.4,4.8,1.4,4.8
		S354.8,302.4,354.8,298.9z"/>
	<path class="st0" d="M361.6,302.1h5.8v5.9h-5.8V302.1z"/>
	<path class="st0" d="M374.7,282.4h10.5v5.2h-5.1v5.1h4.5v5.1h-4.5V308h-5.4V282.4z"/>
	<path class="st0" d="M385.2,302.5v-0.6c0-4.5,1.9-6.3,4.5-6.3c1,0,1.8,0.3,2.7,0.7v-0.8c0-1.8-0.9-2.8-2.6-2.8
		c-1.2,0-2.6,0.5-3.6,1v-5c1.4-0.6,3-0.9,4.7-0.9c2.2,0,3.8,0.6,4.9,1.7c1.2,1.2,1.8,3.1,1.8,5.5v13h-5.2v-1.9
		c-0.8,1.4-1.8,2.2-3.3,2.2C386.9,308.4,385.2,306.3,385.2,302.5z M392.4,302.6v-3c-0.3-0.1-0.8-0.3-1.2-0.3c-0.8,0-1.2,0.7-1.2,2.2
		v0.7c0,1.5,0.5,2.1,1.2,2.1C391.8,304.4,392.4,303.8,392.4,302.6z"/>
	<path class="st0" d="M399.3,288.2h5.3v2.3c0.7-1.4,1.8-2.7,3.6-2.7c2.6,0,3.8,2,3.8,5V308h-5.3v-13.8c0-1-0.4-1.6-1.1-1.6
		c-0.6,0-1.1,0.6-1.1,1.6V308h-5.3V288.2z"/>
	<path class="st0" d="M413.4,307.3v-5.1c1.5,0.9,3,1.5,4,1.5c0.8,0,1.2-0.5,1.2-1.1v0c0-0.6-0.3-1.1-1.8-2.5
		c-2.1-1.8-3.6-3.5-3.6-6.5v-0.1c0-3.5,2.4-5.7,5.9-5.7c1.4,0,2.6,0.2,3.8,0.7v5.1c-1.2-0.6-2.4-1.1-3.4-1.1c-0.8,0-1.2,0.4-1.2,1v0
		c0,0.6,0.5,1,1.9,2.4c2.2,1.9,3.6,3.5,3.6,6.5v0.1c0,3.6-2.5,5.9-5.7,5.9C416.4,308.4,414.8,308,413.4,307.3z"/>
</g>
<g>
	<path class="st0" d="M330.7,353.7l-2.8,0.9v-5.7l4.4-1.4h4.1V375h-5.8V353.7z"/>
	<path class="st0" d="M338.4,362.2v-1.7c0-9.1,2.7-13.4,7.6-13.4c4.8,0,7.5,4.2,7.5,13.4v1.7c0,9.1-2.8,13.4-7.5,13.4
		C341.1,375.5,338.4,371.3,338.4,362.2z M347.8,362.5v-2.4c0-6.5-0.7-7.7-1.8-7.7s-1.8,1.2-1.8,7.7v2.4c0,6.4,0.7,7.6,1.8,7.6
		S347.8,368.9,347.8,362.5z"/>
	<path class="st0" d="M355.2,359.9h10.4v5.7h-10.4V359.9z"/>
	<path class="st0" d="M368.2,353.7l-2.8,0.9v-5.7l4.4-1.4h4.1V375h-5.8V353.7z"/>
	<path class="st0" d="M376.2,374.7V369c1,0.5,2.2,0.8,3.5,0.8c2,0,3.3-1.5,3.3-3.9v-0.2c0-2.4-1.1-3.3-2.5-3.3
		c-0.7,0-1.2,0.1-1.7,0.3l-2.7-1.6l0.7-13.7h10.9v5.6h-6.6l-0.3,4.4c0.3,0,0.7-0.1,1.2-0.1c3.5,0,6.7,2.2,6.7,8.2v0.3
		c0,6.2-3.4,9.5-8.4,9.5C378.8,375.5,377.2,375.1,376.2,374.7z"/>
	<path class="st0" d="M396,347.6h5.6l3.2,9.2l3.2-9.2h5.6V375H408v-14.7l-3.2,9h-0.1l-3.2-9V375H396V347.6z"/>
	<path class="st0" d="M415.6,347.2h5.7v5h-5.7V347.2z M415.6,353.8h5.6V375h-5.6V353.8z"/>
	<path class="st0" d="M423,365.3v-1.6c0-6.7,2.9-10.3,7.1-10.3c4.2,0,7,3.5,7,10.3v1.6c0,6.7-2.9,10.3-7.1,10.3
		C425.9,375.5,423,372,423,365.3z M431.5,365.3v-1.8c0-3.7-0.5-5.1-1.5-5.1s-1.5,1.5-1.5,5.1v1.8c0,3.7,0.5,5.1,1.5,5.1
		S431.5,369,431.5,365.3z"/>
	<path class="st0" d="M438.7,368.7h6.2v6.4h-6.2V368.7z"/>
</g>
<g>
	<path class="st0" d="M261.7,488.8h5.7v1h-4.6v7.5h4.2v1h-4.2v8.2h-1.1V488.8z"/>
	<path class="st0" d="M268.2,502.6v-0.2c0-2.5,1.2-4.2,3.4-4.2c0.9,0,1.6,0.2,2.2,0.5V497c0-1.8-0.8-2.9-2.5-2.9
		c-0.9,0-1.6,0.2-2.4,0.6v-1c0.7-0.4,1.5-0.6,2.5-0.6c1,0,1.9,0.3,2.5,1c0.5,0.6,0.9,1.6,0.9,2.9v9.6h-1v-1.9
		c-0.5,1.3-1.4,2.1-2.6,2.1C269.4,506.7,268.2,504.9,268.2,502.6z M273.8,502.3v-2.7c-0.7-0.3-1.4-0.5-2.1-0.5
		c-1.6,0-2.4,1.4-2.4,3.2v0.2c0,1.8,0.7,3.2,2.1,3.2C272.9,505.7,273.8,504.1,273.8,502.3z"/>
	<path class="st0" d="M276.8,500v-0.3c0-4.6,2-6.7,4-6.7c0.6,0,1.2,0.2,1.6,0.5v1.2c-0.4-0.4-1-0.6-1.6-0.6c-1.3,0-2.9,1.7-2.9,5.7
		v0.4c0,4,1.5,5.6,3,5.6c0.5,0,1-0.2,1.5-0.6v1.1c-0.4,0.3-0.9,0.5-1.6,0.5C278.8,506.6,276.8,504.6,276.8,500z"/>
	<path class="st0" d="M283.6,500.1v-0.2c0-4.6,1.7-6.9,3.6-6.9c1.9,0,3.4,2.4,3.4,6.5v0.8h-5.9c0,3.6,1.5,5.4,3.2,5.4
		c0.8,0,1.4-0.2,2.3-0.8l0.1,1.1c-0.9,0.5-1.5,0.7-2.5,0.7C285.5,506.6,283.6,504.5,283.6,500.1z M289.5,499.3c0-3.1-1-5.4-2.4-5.4
		c-1.4,0-2.4,1.8-2.5,5.4H289.5z"/>
	<path class="st0" d="M293.8,503.9v2.6h-1v-17.9h1v7.2c0.5-1.5,1.4-2.8,2.7-2.8c1.8,0,3.4,2.3,3.4,6.6v0.5c0,4.2-1.6,6.6-3.4,6.6
		C295.2,506.7,294.3,505.4,293.8,503.9z M298.9,500v-0.4c0-3.6-1.1-5.7-2.5-5.7c-1.3,0-2.7,2-2.7,5.6v0.6c0,3.6,1.3,5.6,2.7,5.6
		C297.7,505.7,298.9,503.7,298.9,500z"/>
	<path class="st0" d="M301.5,499.9v-0.2c0-4.2,1.8-6.7,3.7-6.7s3.7,2.6,3.7,6.7v0.2c0,4.2-1.7,6.7-3.7,6.7
		C303.3,506.7,301.5,504.1,301.5,499.9z M307.9,499.9v-0.2c0-3.5-1.2-5.7-2.7-5.7s-2.7,2.2-2.7,5.7v0.2c0,3.5,1.2,5.7,2.7,5.7
		S307.9,503.4,307.9,499.9z"/>
	<path class="st0" d="M310.5,499.9v-0.2c0-4.2,1.8-6.7,3.7-6.7s3.7,2.6,3.7,6.7v0.2c0,4.2-1.7,6.7-3.7,6.7
		C312.2,506.7,310.5,504.1,310.5,499.9z M316.9,499.9v-0.2c0-3.5-1.2-5.7-2.7-5.7s-2.7,2.2-2.7,5.7v0.2c0,3.5,1.2,5.7,2.7,5.7
		S316.9,503.4,316.9,499.9z"/>
	<path class="st0" d="M320,488.6h1v12l3.7-7.4h1.2l-2.9,5.3l3.2,7.9h-1.1l-2.7-6.8l-1.4,2.6v4.3h-1V488.6z"/>
	<path class="st0" d="M331.6,502.6v-0.2c0-2.5,1.2-4.2,3.4-4.2c0.9,0,1.6,0.2,2.2,0.5V497c0-1.8-0.8-2.9-2.5-2.9
		c-0.9,0-1.6,0.2-2.4,0.6v-1c0.7-0.4,1.5-0.6,2.5-0.6c1,0,1.9,0.3,2.5,1c0.5,0.6,0.9,1.6,0.9,2.9v9.6h-1v-1.9
		c-0.5,1.3-1.4,2.1-2.6,2.1C332.8,506.7,331.6,504.9,331.6,502.6z M337.2,502.3v-2.7c-0.7-0.3-1.4-0.5-2.1-0.5
		c-1.6,0-2.4,1.4-2.4,3.2v0.2c0,1.8,0.7,3.2,2.1,3.2C336.3,505.7,337.2,504.1,337.2,502.3z"/>
	<path class="st0" d="M341,488.6h1v17.9h-1V488.6z"/>
	<path class="st0" d="M344.1,506v-1.1c0.9,0.5,1.8,0.8,2.7,0.8c1.1,0,2-0.7,2-2v-0.1c0-0.9-0.5-1.9-2.1-3.4
		c-1.9-1.9-2.6-2.9-2.6-4.2v-0.1c0-1.8,1.4-2.9,3-2.9c0.9,0,1.5,0.1,2.2,0.4v1.1c-0.7-0.4-1.4-0.6-2.2-0.6c-1.1,0-1.9,0.7-1.9,1.9v0
		c0,1,0.5,1.7,2.1,3.3c1.8,1.8,2.6,2.9,2.6,4.3v0c0,1.9-1.5,3-3.1,3C345.7,506.6,344.9,506.4,344.1,506z"/>
	<path class="st0" d="M357.6,489.8h-2.8v-1h6.7v1h-2.8v16.7h-1.1V489.8z"/>
	<path class="st0" d="M362.5,493.2h1v1.9c0.5-1.2,1.5-2.2,3.1-2.1v1.1h0c-1.6,0-3,1.1-3,3.4v8.9h-1V493.2z"/>
	<path class="st0" d="M367.2,502.6v-0.2c0-2.5,1.2-4.2,3.4-4.2c0.9,0,1.6,0.2,2.2,0.5V497c0-1.8-0.8-2.9-2.5-2.9
		c-0.9,0-1.6,0.2-2.4,0.6v-1c0.7-0.4,1.5-0.6,2.5-0.6c1,0,1.9,0.3,2.5,1c0.5,0.6,0.9,1.6,0.9,2.9v9.6h-1v-1.9
		c-0.5,1.3-1.4,2.1-2.6,2.1C368.4,506.7,367.2,504.9,367.2,502.6z M372.8,502.3v-2.7c-0.7-0.3-1.4-0.5-2.1-0.5
		c-1.6,0-2.4,1.4-2.4,3.2v0.2c0,1.8,0.7,3.2,2.1,3.2C371.9,505.7,372.8,504.1,372.8,502.3z"/>
	<path class="st0" d="M376.9,494.2h-1.3v-1h1.3v-1.5c0-1.1,0.3-1.9,0.8-2.5c0.4-0.4,1-0.7,1.8-0.7c0.2,0,0.6,0,0.8,0.1v1
		c-0.2-0.1-0.6-0.1-0.7-0.1c-1,0-1.5,0.7-1.5,2.1v1.5h2.1v1h-2.1v12.3h-1V494.2z M382.3,494.2h-1.3v-1h1.3v-1.5
		c0-1.1,0.3-1.9,0.8-2.5c0.4-0.4,1-0.7,1.8-0.7c0.2,0,0.6,0,0.8,0.1v1c-0.2-0.1-0.6-0.1-0.7-0.1c-1,0-1.5,0.7-1.5,2.1v1.5h2.1v1
		h-2.1v12.3h-1V494.2z M387.2,488.6h1.1v1.8h-1.1V488.6z M387.2,493.2h1v13.3h-1V493.2z"/>
	<path class="st0" d="M390.5,500v-0.3c0-4.6,2-6.7,4-6.7c0.6,0,1.2,0.2,1.6,0.5v1.2c-0.4-0.4-1-0.6-1.6-0.6c-1.3,0-2.9,1.7-2.9,5.7
		v0.4c0,4,1.5,5.6,3,5.6c0.5,0,1-0.2,1.5-0.6v1.1c-0.4,0.3-0.9,0.5-1.6,0.5C392.5,506.6,390.5,504.6,390.5,500z"/>
	<path class="st0" d="M403.6,503.9c-0.5,1.5-1.4,2.8-2.7,2.8c-1.8,0-3.4-2.3-3.4-6.6v-0.5c0-4.2,1.6-6.6,3.4-6.6
		c1.3,0,2.2,1.2,2.7,2.8v-2.6h1v16.6h-1V503.9z M403.6,500.1v-0.6c0-3.6-1.3-5.6-2.7-5.6c-1.3,0-2.5,2-2.5,5.7v0.4
		c0,3.6,1.1,5.7,2.5,5.7C402.3,505.7,403.6,503.7,403.6,500.1z"/>
	<path class="st0" d="M407.1,502.5v-9.3h1v9.2c0,2.2,0.8,3.4,2.1,3.4c1.4,0,2.5-1.4,2.5-3.6v-9h1v13.3h-1v-1.9
		c-0.4,1.1-1.2,2.1-2.7,2.1C408.4,506.7,407.1,505.2,407.1,502.5z"/>
	<path class="st0" d="M415.9,500.1v-0.2c0-4.6,1.7-6.9,3.6-6.9c1.9,0,3.4,2.4,3.4,6.5v0.8H417c0,3.6,1.5,5.4,3.2,5.4
		c0.8,0,1.4-0.2,2.3-0.8l0.1,1.1c-0.9,0.5-1.5,0.7-2.5,0.7C417.9,506.6,415.9,504.5,415.9,500.1z M421.9,499.3c0-3.1-1-5.4-2.4-5.4
		c-1.4,0-2.4,1.8-2.5,5.4H421.9z"/>
	<path class="st0" d="M425.2,488.6h1v17.9h-1V488.6z"/>
	<path class="st0" d="M429.2,488.6h1v17.9h-1V488.6z"/>
	<path class="st0" d="M432.5,500.1v-0.2c0-4.6,1.7-6.9,3.6-6.9c1.9,0,3.4,2.4,3.4,6.5v0.8h-5.9c0,3.6,1.5,5.4,3.2,5.4
		c0.8,0,1.4-0.2,2.3-0.8l0.1,1.1c-0.9,0.5-1.5,0.7-2.5,0.7C434.5,506.6,432.5,504.5,432.5,500.1z M438.5,499.3c0-3.1-1-5.4-2.4-5.4
		c-1.4,0-2.4,1.8-2.5,5.4H438.5z"/>
	<path class="st0" d="M446.3,494.2h-1.3v-1h1.3v-1.5c0-1.1,0.3-1.9,0.8-2.5c0.4-0.4,1-0.7,1.8-0.7c0.2,0,0.6,0,0.8,0.1v1
		c-0.2-0.1-0.6-0.1-0.7-0.1c-1,0-1.5,0.7-1.5,2.1v1.5h2.1v1h-2.1v12.3h-1V494.2z"/>
	<path class="st0" d="M451,502.5v-9.3h1v9.2c0,2.2,0.8,3.4,2.1,3.4c1.4,0,2.5-1.4,2.5-3.6v-9h1v13.3h-1v-1.9
		c-0.4,1.1-1.2,2.1-2.7,2.1C452.2,506.7,451,505.2,451,502.5z M452.5,490.1h1.1v1.7h-1.1V490.1z M455,490.1h1.1v1.7H455V490.1z"/>
	<path class="st0" d="M460.3,493.2h1v1.9c0.5-1.2,1.5-2.2,3.1-2.1v1.1h0c-1.6,0-3,1.1-3,3.4v8.9h-1V493.2z"/>
	<path class="st0" d="M470.3,488.8h2.2c1.4,0,2.6,0.5,3.5,1.3c0.7,0.7,1.2,1.8,1.2,3.1v0.1c0,2.6-1.5,3.8-3.2,4.3
		c2.1,0.5,3.4,1.9,3.4,4.3v0.1c0,2.9-2.1,4.6-5.3,4.6h-1.8V488.8z M476.1,493.2c0-2.1-1.4-3.5-3.6-3.5h-1.1v7.3h0.8
		C474.7,497,476.1,495.6,476.1,493.2L476.1,493.2z M472.2,498h-0.9v7.4h0.7c2.6,0,4.2-1.2,4.2-3.6v-0.1
		C476.3,499.4,474.8,498,472.2,498z"/>
	<path class="st0" d="M479.7,488.8h1.1v17.7h-1.1V488.8z"/>
	<path class="st0" d="M483.7,488.8h1.1v16.7h4.4v1h-5.5V488.8z"/>
	<path class="st0" d="M490.8,488.8h2.1c3.2,0,5.6,3,5.6,8.6v0.5c0,5.7-2.3,8.6-5.6,8.6h-2.1V488.8z M491.9,489.8v15.7h1
		c2.6,0,4.4-2.6,4.4-7.6v-0.5c0-5-1.9-7.6-4.5-7.6H491.9z"/>
	<path class="st0" d="M500.2,504.4h1.5v2.1h-1.5V504.4z"/>
	<path class="st0" d="M503.5,500.1v-0.5c0-4.2,1.6-6.6,3.4-6.6c1.3,0,2.2,1.2,2.7,2.8v-7.2h1v17.9h-1v-2.6c-0.5,1.5-1.4,2.8-2.7,2.8
		C505.1,506.7,503.5,504.3,503.5,500.1z M509.7,500.1v-0.6c0-3.6-1.3-5.6-2.7-5.6c-1.3,0-2.5,2-2.5,5.7v0.4c0,3.6,1.1,5.7,2.5,5.7
		C508.4,505.7,509.7,503.7,509.7,500.1z"/>
	<path class="st0" d="M512.8,500.1v-0.2c0-4.6,1.7-6.9,3.6-6.9c1.9,0,3.4,2.4,3.4,6.5v0.8h-5.9c0,3.6,1.5,5.4,3.2,5.4
		c0.8,0,1.4-0.2,2.3-0.8l0.1,1.1c-0.9,0.5-1.5,0.7-2.5,0.7C514.8,506.6,512.8,504.5,512.8,500.1z M518.8,499.3c0-3.1-1-5.4-2.4-5.4
		c-1.4,0-2.4,1.8-2.5,5.4H518.8z"/>
	<path class="st0" d="M521.9,493.2h1.5v2.1h-1.5V493.2z M521.9,504.4h1.5v2.1h-1.5V504.4z"/>
	<path class="st0" d="M260.8,525.2v-0.8c0-4.3,1.8-6.6,4.2-6.6c0.8,0,1.2,0.1,1.8,0.4v3.1c-0.5-0.3-0.9-0.5-1.5-0.5
		c-0.9,0-1.6,1-1.6,3.6v0.9c0,2.6,0.7,3.6,1.6,3.6c0.4,0,0.9-0.3,1.4-0.6v2.9c-0.7,0.4-1.2,0.6-1.9,0.6
		C262.5,531.8,260.8,529.5,260.8,525.2z"/>
	<path class="st0" d="M267.7,527.7v-0.4c0-3,1.2-4.3,3-4.3c0.6,0,1.2,0.2,1.8,0.5v-0.8c0-1.4-0.6-2.1-1.9-2.1
		c-0.8,0-1.6,0.3-2.2,0.6v-2.8c0.9-0.4,1.9-0.6,2.7-0.6c1.4,0,2.4,0.4,3.1,1.1c0.8,0.8,1.2,2,1.2,3.6v9h-2.9v-1.4
		c-0.5,1.1-1.2,1.7-2.2,1.7C268.8,531.7,267.7,530.2,267.7,527.7z M272.4,527.9v-2.3c-0.2-0.1-0.7-0.3-0.9-0.3c-0.6,0-1,0.5-1,1.8
		v0.4c0,1.3,0.4,1.7,0.9,1.7C271.9,529.2,272.4,528.8,272.4,527.9z"/>
	<path class="st0" d="M277,528h3.4v3.5H277V528z"/>
	<path class="st0" d="M291.1,524.7c-0.6,0.5-1.2,0.7-2,0.7c-1.6,0-3.3-1.3-3.3-5.3v-0.4c0-3.8,1.7-6.2,4-6.2c0.9,0,1.7,0.3,2.4,0.9
		c1.1,1.2,1.7,3.5,1.7,7.3v0.7c0,7.3-2.1,9.3-4.9,9.3c-0.9,0-1.6-0.2-2.3-0.5v-2.9c0.6,0.3,1.3,0.6,2,0.6
		C290,529,291,528,291.1,524.7z M291,522.5v-2.4c0-2.7-0.5-3.8-1.2-3.8c-0.7,0-1.2,0.9-1.2,3.3v0.4c0,2.2,0.5,2.9,1.3,2.9
		C290.4,522.9,290.8,522.7,291,522.5z"/>
	<path class="st0" d="M295.1,523.1v-1c0-6.1,1.5-8.6,4.3-8.6c2.8,0,4.3,2.5,4.3,8.6v1c0,6.1-1.5,8.6-4.3,8.6
		C296.6,531.8,295.1,529.3,295.1,523.1z M300.7,523.1v-0.9c0-5-0.6-5.8-1.3-5.8c-0.7,0-1.3,0.8-1.3,5.8v0.9c0,5,0.6,5.8,1.3,5.8
		C300.1,528.9,300.7,528.1,300.7,523.1z"/>
	<path class="st0" d="M308.9,518.7v-0.6c0-2.8,1.1-4.5,2.8-4.5c1.7,0,2.8,1.7,2.8,4.5v0.6c0,2.8-1.1,4.4-2.8,4.4
		C310,523.1,308.9,521.4,308.9,518.7z M318.5,513.8h1.8L316,523l-3.9,8.5h-1.8l4.2-9.2L318.5,513.8z M310.9,518.1v0.5
		c0,1.9,0.3,2.4,0.7,2.4c0.5,0,0.7-0.6,0.7-2.4v-0.5c0-1.9-0.3-2.4-0.7-2.4C311.2,515.7,310.9,516.3,310.9,518.1z M316.2,527.2v-0.6
		c0-2.8,1.1-4.5,2.8-4.5s2.8,1.7,2.8,4.5v0.6c0,2.8-1.1,4.4-2.8,4.4S316.2,530,316.2,527.2z M319.7,527.2v-0.5
		c0-1.9-0.3-2.4-0.7-2.4s-0.7,0.6-0.7,2.4v0.5c0,1.9,0.3,2.4,0.7,2.4S319.7,529,319.7,527.2z"/>
	<path class="st0" d="M327,525.3v-1.2c0-4.8,1.2-6.4,2.8-6.4c1.3,0,1.9,1.1,2.3,1.9v-5.9h2.9v17.8h-2.9v-1.7c-0.4,0.8-1,1.9-2.3,1.9
		C328.2,531.8,327,530.2,327,525.3z M332.1,525.2v-0.9c0-2.4-0.4-3.7-1.2-3.7s-1.1,1.3-1.1,3.7v0.9c0,2.4,0.3,3.7,1.1,3.7
		S332.1,527.6,332.1,525.2z"/>
	<path class="st0" d="M336.4,525.1v-0.7c0-4.3,1.8-6.7,4-6.7c2.3,0,3.8,2.4,3.8,6.8v1.6h-4.9c0.2,2.1,1,2.9,2,2.9
		c0.9,0,1.5-0.4,2.3-1l0.2,2.7c-1,0.7-1.8,1-2.9,1C338.4,531.8,336.4,529.5,336.4,525.1z M341.4,523.8c0-2.3-0.3-3.4-1-3.4
		c-0.7,0-1.1,1-1.1,3.4H341.4z"/>
	<path class="st0" d="M345,531.1v-2.9c1,0.5,1.8,0.9,2.5,0.9c0.7,0,1.1-0.4,1.1-1.1c0-0.6-0.2-1-1.5-2.2c-1.3-1.3-2.3-2.6-2.3-4.3v0
		c0-2.3,1.5-3.7,3.8-3.7c0.8,0,1.4,0.1,2.2,0.4v2.9c-0.6-0.3-1.3-0.6-2-0.6c-0.7,0-1.1,0.4-1.1,0.9c0,0.5,0.2,0.9,1.6,2.2
		c1.6,1.6,2.2,2.7,2.2,4.2v0.1c0,2.4-1.6,3.8-3.7,3.8C346.8,531.8,345.8,531.5,345,531.1z"/>
	<path class="st0" d="M356.1,530.9v-3.2c1.1,0.6,1.8,1,2.7,1c1,0,1.7-0.6,1.7-1.7c0-0.6-0.2-1.4-1.7-3c-2.1-2.4-2.9-3.6-2.9-5.7
		c0-2.8,1.8-4.6,4.3-4.6c1.1,0,1.9,0.3,2.6,0.6v3.2c-0.9-0.6-1.5-0.8-2.3-0.8c-0.8,0-1.6,0.6-1.6,1.6c0,0.7,0.2,1.2,1.7,2.9
		c2.4,2.8,2.9,4,2.9,5.9c0,2.8-1.9,4.6-4.3,4.6C357.9,531.6,356.9,531.3,356.1,530.9z"/>
	<path class="st0" d="M364.2,525.2v-0.8c0-4.3,1.7-6.6,4.1-6.6s4.1,2.2,4.1,6.6v0.8c0,4.3-1.7,6.6-4.1,6.6S364.2,529.5,364.2,525.2z
		 M369.5,525.2v-0.9c0-2.7-0.4-3.9-1.2-3.9s-1.2,1.2-1.2,3.9v0.9c0,2.6,0.4,3.9,1.2,3.9S369.5,527.8,369.5,525.2z"/>
	<path class="st0" d="M373.5,525.2v-0.8c0-4.3,1.8-6.6,4.2-6.6c0.8,0,1.2,0.1,1.8,0.4v3.1c-0.5-0.3-0.9-0.5-1.5-0.5
		c-0.9,0-1.6,1-1.6,3.6v0.9c0,2.6,0.7,3.6,1.6,3.6c0.4,0,0.9-0.3,1.4-0.6v2.9c-0.7,0.4-1.2,0.6-1.9,0.6
		C375.2,531.8,373.5,529.5,373.5,525.2z"/>
	<path class="st0" d="M380.9,513.7h3v3h-3V513.7z M380.9,518h2.9v13.6h-2.9V518z"/>
	<path class="st0" d="M385,527.7v-0.4c0-3,1.2-4.3,3-4.3c0.6,0,1.2,0.2,1.8,0.5v-0.8c0-1.4-0.6-2.1-1.9-2.1c-0.8,0-1.6,0.3-2.2,0.6
		v-2.8c0.9-0.4,1.9-0.6,2.7-0.6c1.4,0,2.4,0.4,3.1,1.1c0.8,0.8,1.2,2,1.2,3.6v9h-2.9v-1.4c-0.5,1.1-1.2,1.7-2.2,1.7
		C386.1,531.7,385,530.2,385,527.7z M389.7,527.9v-2.3c-0.2-0.1-0.7-0.3-0.9-0.3c-0.6,0-1,0.5-1,1.8v0.4c0,1.3,0.4,1.7,0.9,1.7
		C389.3,529.2,389.7,528.8,389.7,527.9z"/>
	<path class="st0" d="M394.2,513.7h2.9v17.8h-2.9V513.7z"/>
	<path class="st0" d="M404.4,516.7h-2.1v-2.9h7.3v2.9h-2.1v14.8h-3V516.7z"/>
	<path class="st0" d="M409.9,518h2.9v1.7c0.4-1.2,1-1.9,2.1-1.8v3.6h0c-1.4,0-2.1,1-2.1,2.9v7.2h-2.9V518z"/>
	<path class="st0" d="M415.4,527.7v-0.4c0-3,1.2-4.3,3-4.3c0.6,0,1.2,0.2,1.8,0.5v-0.8c0-1.4-0.6-2.1-1.9-2.1
		c-0.8,0-1.6,0.3-2.2,0.6v-2.8c0.9-0.4,1.9-0.6,2.7-0.6c1.4,0,2.4,0.4,3.1,1.1c0.8,0.8,1.2,2,1.2,3.6v9h-2.9v-1.4
		c-0.5,1.1-1.2,1.7-2.2,1.7C416.4,531.7,415.4,530.2,415.4,527.7z M420.1,527.9v-2.3c-0.2-0.1-0.7-0.3-0.9-0.3c-0.6,0-1,0.5-1,1.8
		v0.4c0,1.3,0.4,1.7,0.9,1.7C419.6,529.2,420.1,528.8,420.1,527.9z"/>
	<path class="st0" d="M424.9,520.4h-0.8V518h0.8v-1c0-1.1,0.3-1.9,0.8-2.5c0.6-0.6,1.4-0.9,2.5-0.9c0.5,0,0.8,0,1.1,0.1v2.5
		c-0.1,0-0.2,0-0.3,0c-0.7,0-1.2,0.4-1.2,1.2v0.5h1.5v2.4h-1.5v11.1h-2.9V520.4z M430.6,520.4h-0.8V518h0.8v-1
		c0-1.1,0.3-1.9,0.8-2.5c0.6-0.6,1.4-0.9,2.5-0.9c0.5,0,0.8,0,1.1,0.1v2.5c-0.1,0-0.2,0-0.3,0c-0.7,0-1.2,0.4-1.2,1.2v0.5h1.5v2.4
		h-1.5v11.1h-2.9V520.4z M436.1,513.7h3v3h-3V513.7z M436.1,518h2.9v13.6h-2.9V518z"/>
	<path class="st0" d="M440.4,525.2v-0.8c0-4.3,1.8-6.6,4.2-6.6c0.8,0,1.2,0.1,1.8,0.4v3.1c-0.5-0.3-0.9-0.5-1.5-0.5
		c-0.9,0-1.6,1-1.6,3.6v0.9c0,2.6,0.7,3.6,1.6,3.6c0.4,0,0.9-0.3,1.4-0.6v2.9c-0.7,0.4-1.2,0.6-1.9,0.6
		C442.1,531.8,440.4,529.5,440.4,525.2z"/>
	<path class="st0" d="M447.4,531.1v-2.9c1,0.5,1.8,0.9,2.5,0.9c0.7,0,1.1-0.4,1.1-1.1c0-0.6-0.2-1-1.5-2.2c-1.3-1.3-2.3-2.6-2.3-4.3
		v0c0-2.3,1.5-3.7,3.8-3.7c0.8,0,1.4,0.1,2.2,0.4v2.9c-0.6-0.3-1.3-0.6-2-0.6c-0.7,0-1.1,0.4-1.1,0.9c0,0.5,0.2,0.9,1.6,2.2
		c1.6,1.6,2.2,2.7,2.2,4.2v0.1c0,2.4-1.6,3.8-3.7,3.8C449.2,531.8,448.2,531.5,447.4,531.1z"/>
	<path class="st0" d="M458.2,518h2.9l1.4,8.8l1.4-8.8h2.9l-2.7,13.6h-3L458.2,518z"/>
	<path class="st0" d="M467.7,513.7h3v3h-3V513.7z M467.8,518h2.9v13.6h-2.9V518z"/>
	<path class="st0" d="M471.9,527.7v-0.4c0-3,1.2-4.3,3-4.3c0.6,0,1.2,0.2,1.8,0.5v-0.8c0-1.4-0.6-2.1-1.9-2.1
		c-0.8,0-1.6,0.3-2.2,0.6v-2.8c0.9-0.4,1.9-0.6,2.7-0.6c1.4,0,2.4,0.4,3.1,1.1c0.8,0.8,1.2,2,1.2,3.6v9h-2.9v-1.4
		c-0.5,1.1-1.2,1.7-2.2,1.7C472.9,531.7,471.9,530.2,471.9,527.7z M476.6,527.9v-2.3c-0.2-0.1-0.7-0.3-0.9-0.3c-0.6,0-1,0.5-1,1.8
		v0.4c0,1.3,0.4,1.7,0.9,1.7C476.1,529.2,476.6,528.8,476.6,527.9z"/>
	<path class="st0" d="M485.1,513.8h6.3v2.9h-3.3v4.5h2.9v2.9h-2.9v7.4h-3V513.8z"/>
	<path class="st0" d="M491.8,527.7v-0.4c0-3,1.2-4.3,3-4.3c0.6,0,1.2,0.2,1.8,0.5v-0.8c0-1.4-0.6-2.1-1.9-2.1
		c-0.8,0-1.6,0.3-2.2,0.6v-2.8c0.9-0.4,1.9-0.6,2.7-0.6c1.4,0,2.4,0.4,3.1,1.1c0.8,0.8,1.2,2,1.2,3.6v9h-2.9v-1.4
		c-0.5,1.1-1.2,1.7-2.2,1.7C492.9,531.7,491.8,530.2,491.8,527.7z M496.6,527.9v-2.3c-0.2-0.1-0.7-0.3-0.9-0.3c-0.6,0-1,0.5-1,1.8
		v0.4c0,1.3,0.4,1.7,0.9,1.7C496.1,529.2,496.6,528.8,496.6,527.9z"/>
	<path class="st0" d="M500.7,525.2v-0.8c0-4.3,1.8-6.6,4.2-6.6c0.8,0,1.2,0.1,1.8,0.4v3.1c-0.5-0.3-0.9-0.5-1.5-0.5
		c-0.9,0-1.6,1-1.6,3.6v0.9c0,2.6,0.7,3.6,1.6,3.6c0.4,0,0.9-0.3,1.4-0.6v2.9c-0.7,0.4-1.2,0.6-1.9,0.6
		C502.4,531.8,500.7,529.5,500.7,525.2z"/>
	<path class="st0" d="M507.5,525.1v-0.7c0-4.3,1.8-6.7,4-6.7c2.3,0,3.8,2.4,3.8,6.8v1.6h-4.9c0.2,2.1,1,2.9,2,2.9
		c0.9,0,1.5-0.4,2.3-1l0.2,2.7c-1,0.7-1.8,1-2.9,1C509.6,531.8,507.5,529.5,507.5,525.1z M512.6,523.8c0-2.3-0.3-3.4-1-3.4
		c-0.7,0-1.1,1-1.1,3.4H512.6z"/>
	<path class="st0" d="M519.4,529.9v1.6h-2.9v-17.8h2.9v6c0.4-0.8,1-1.9,2.3-1.9c1.6,0,2.8,1.5,2.8,6.4v1.2c0,4.8-1.2,6.4-2.8,6.4
		C520.5,531.8,519.9,530.7,519.4,529.9z M521.7,525.2v-0.9c0-2.4-0.3-3.7-1.1-3.7s-1.2,1.3-1.2,3.7v0.9c0,2.4,0.4,3.7,1.2,3.7
		S521.7,527.6,521.7,525.2z"/>
	<path class="st0" d="M525.8,525.2v-0.8c0-4.3,1.7-6.6,4.1-6.6s4.1,2.2,4.1,6.6v0.8c0,4.3-1.7,6.6-4.1,6.6S525.8,529.5,525.8,525.2z
		 M531.1,525.2v-0.9c0-2.7-0.4-3.9-1.2-3.9s-1.2,1.2-1.2,3.9v0.9c0,2.6,0.4,3.9,1.2,3.9S531.1,527.8,531.1,525.2z"/>
	<path class="st0" d="M535.2,525.2v-0.8c0-4.3,1.7-6.6,4.1-6.6s4.1,2.2,4.1,6.6v0.8c0,4.3-1.7,6.6-4.1,6.6S535.2,529.5,535.2,525.2z
		 M540.5,525.2v-0.9c0-2.7-0.4-3.9-1.2-3.9s-1.2,1.2-1.2,3.9v0.9c0,2.6,0.4,3.9,1.2,3.9S540.5,527.8,540.5,525.2z"/>
	<path class="st0" d="M544.8,513.7h2.9v9.6l1.9-5.3h3.1l-2.3,5.5l2.2,8.1h-3.2l-1.2-5.2l-0.5,1.5v3.7h-2.9V513.7z"/>
</g>
<g>
	<path class="st0" d="M262.2,395.6h0.8l1.6,10.2l1.9-10.2h0.7l1.8,10.2l1.6-10.2h0.7l-2,11.7h-0.7l-1.8-10.2l-1.9,10.2h-0.7
		L262.2,395.6z"/>
	<path class="st0" d="M271.8,403v-0.1c0-3,1.1-4.5,2.4-4.5c1.3,0,2.2,1.5,2.2,4.3v0.5h-3.9c0,2.4,1,3.5,2.1,3.5
		c0.5,0,0.9-0.1,1.5-0.5l0.1,0.7c-0.6,0.3-1,0.5-1.7,0.5C273,407.3,271.8,405.9,271.8,403z M275.7,402.5c0-2-0.7-3.5-1.6-3.5
		c-0.9,0-1.6,1.2-1.7,3.5H275.7z"/>
	<path class="st0" d="M277.8,395.4h0.8v1.2h-0.8V395.4z M277.9,398.5h0.7v8.7h-0.7V398.5z"/>
	<path class="st0" d="M280.7,405.7v-6.6h-0.8v-0.6h0.8V396h0.7v2.5h1.4v0.6h-1.4v6.5c0,0.8,0.3,1,0.9,1c0.2,0,0.4,0,0.5-0.1v0.6
		c-0.2,0.1-0.4,0.1-0.6,0.1C281.2,407.3,280.7,406.9,280.7,405.7z"/>
	<path class="st0" d="M283.6,403v-0.1c0-3,1.1-4.5,2.4-4.5c1.3,0,2.2,1.5,2.2,4.3v0.5h-3.9c0,2.4,1,3.5,2.1,3.5
		c0.5,0,0.9-0.1,1.5-0.5l0.1,0.7c-0.6,0.3-1,0.5-1.7,0.5C284.8,407.3,283.6,405.9,283.6,403z M287.5,402.5c0-2-0.7-3.5-1.6-3.5
		c-0.9,0-1.6,1.2-1.7,3.5H287.5z"/>
	<path class="st0" d="M289.6,398.5h0.7v1.3c0.3-0.8,1-1.4,2-1.4v0.7h0c-1.1,0-2,0.7-2,2.2v5.9h-0.7V398.5z"/>
	<path class="st0" d="M292.7,403v-0.1c0-3,1.1-4.5,2.4-4.5c1.3,0,2.2,1.5,2.2,4.3v0.5h-3.9c0,2.4,1,3.5,2.1,3.5
		c0.5,0,0.9-0.1,1.5-0.5l0.1,0.7c-0.6,0.3-1,0.5-1.7,0.5C294,407.3,292.7,405.9,292.7,403z M296.7,402.5c0-2-0.7-3.5-1.6-3.5
		c-0.9,0-1.6,1.2-1.7,3.5H296.7z"/>
	<path class="st0" d="M301.5,395.6h1.4c1,0,1.8,0.3,2.4,0.9s0.9,1.4,0.9,2.5v0c0,1.6-0.7,2.8-2,3.3l2.2,4.9h-0.8l-2.1-4.7
		c-0.2,0-0.4,0-0.6,0h-0.6v4.7h-0.7V395.6z M302.9,401.9c1.6,0,2.6-1,2.6-2.8v0c0-1.9-1-2.8-2.6-2.8h-0.7v5.6H302.9z"/>
	<path class="st0" d="M307.2,403v-0.1c0-3,1.1-4.5,2.4-4.5c1.3,0,2.2,1.5,2.2,4.3v0.5h-3.9c0,2.4,1,3.5,2.1,3.5
		c0.5,0,0.9-0.1,1.5-0.5l0.1,0.7c-0.6,0.3-1,0.5-1.7,0.5C308.5,407.3,307.2,405.9,307.2,403z M311.1,402.5c0-2-0.7-3.5-1.6-3.5
		c-0.9,0-1.6,1.2-1.7,3.5H311.1z"/>
	<path class="st0" d="M313.3,395.4h0.8v1.2h-0.8V395.4z M313.3,398.5h0.7v8.7h-0.7V398.5z"/>
	<path class="st0" d="M315.5,402.9v-0.2c0-3,1.3-4.4,2.6-4.4c0.4,0,0.8,0.1,1,0.3v0.8c-0.3-0.2-0.6-0.4-1-0.4
		c-0.9,0-1.9,1.1-1.9,3.7v0.2c0,2.6,1,3.7,2,3.7c0.4,0,0.7-0.1,1-0.4v0.7c-0.3,0.2-0.6,0.3-1,0.3C316.8,407.3,315.5,406,315.5,402.9
		z"/>
	<path class="st0" d="M320.4,395.4h0.7v4.3c0.3-0.7,0.8-1.4,1.8-1.4c1.2,0,2,1,2,2.8v6.1h-0.7v-6c0-1.4-0.5-2.2-1.4-2.2
		c-0.9,0-1.6,0.9-1.6,2.4v5.9h-0.7V395.4z"/>
	<path class="st0" d="M326,398.5h0.7l1.4,7.6l1.5-7.6h0.6l1.4,7.6l1.4-7.6h0.7l-1.8,8.8h-0.6l-1.4-7.4l-1.4,7.4h-0.6L326,398.5z"/>
	<path class="st0" d="M334.4,403v-0.1c0-3,1.1-4.5,2.4-4.5c1.3,0,2.2,1.5,2.2,4.3v0.5h-3.9c0,2.4,1,3.5,2.1,3.5
		c0.5,0,0.9-0.1,1.5-0.5l0.1,0.7c-0.6,0.3-1,0.5-1.7,0.5C335.7,407.3,334.4,405.9,334.4,403z M338.3,402.5c0-2-0.7-3.5-1.6-3.5
		c-0.9,0-1.6,1.2-1.7,3.5H338.3z"/>
	<path class="st0" d="M340.5,395.4h0.8v1.2h-0.8V395.4z M340.5,398.5h0.7v8.7h-0.7V398.5z"/>
	<path class="st0" d="M343.3,405.7v-6.6h-0.8v-0.6h0.8V396h0.7v2.5h1.4v0.6H344v6.5c0,0.8,0.3,1,0.9,1c0.2,0,0.4,0,0.5-0.1v0.6
		c-0.2,0.1-0.4,0.1-0.6,0.1C343.9,407.3,343.3,406.9,343.3,405.7z"/>
	<path class="st0" d="M346.2,403v-0.1c0-3,1.1-4.5,2.4-4.5c1.3,0,2.2,1.5,2.2,4.3v0.5h-3.9c0,2.4,1,3.5,2.1,3.5
		c0.5,0,0.9-0.1,1.5-0.5l0.1,0.7c-0.6,0.3-1,0.5-1.7,0.5C347.5,407.3,346.2,405.9,346.2,403z M350.1,402.5c0-2-0.7-3.5-1.6-3.5
		c-0.9,0-1.6,1.2-1.7,3.5H350.1z"/>
	<path class="st0" d="M352.2,398.5h0.7v1.3c0.3-0.7,0.8-1.4,1.8-1.4c1.2,0,2,1,2,2.8v6.1h-0.7v-6c0-1.4-0.5-2.2-1.4-2.2
		c-0.9,0-1.6,0.9-1.6,2.4v5.9h-0.7V398.5z"/>
	<path class="st0" d="M357.8,406.9v-0.7c0.6,0.3,1.2,0.5,1.7,0.5c0.7,0,1.3-0.5,1.3-1.3v0c0-0.6-0.3-1.2-1.4-2.2
		c-1.3-1.2-1.7-1.9-1.7-2.8v0c0-1.2,0.9-1.9,1.9-1.9c0.6,0,1,0.1,1.4,0.3v0.7c-0.5-0.2-0.9-0.4-1.5-0.4c-0.7,0-1.2,0.5-1.2,1.2v0
		c0,0.6,0.3,1.1,1.4,2.1c1.2,1.2,1.7,1.9,1.7,2.9v0c0,1.2-1,2-2,2C358.9,407.3,358.4,407.2,357.8,406.9z"/>
	<path class="st0" d="M363,405.7v-6.6h-0.8v-0.6h0.8V396h0.7v2.5h1.4v0.6h-1.4v6.5c0,0.8,0.3,1,0.9,1c0.2,0,0.4,0,0.5-0.1v0.6
		c-0.2,0.1-0.4,0.1-0.6,0.1C363.6,407.3,363,406.9,363,405.7z"/>
	<path class="st0" d="M366,404.7v-0.1c0-1.6,0.8-2.8,2.3-2.8c0.6,0,1,0.1,1.4,0.3V401c0-1.2-0.5-1.9-1.6-1.9c-0.6,0-1.1,0.1-1.6,0.4
		v-0.7c0.5-0.2,1-0.4,1.6-0.4c0.7,0,1.2,0.2,1.7,0.6c0.4,0.4,0.6,1,0.6,1.9v6.3h-0.7v-1.3c-0.3,0.9-0.9,1.4-1.7,1.4
		C366.8,407.4,366,406.2,366,404.7z M369.7,404.5v-1.7c-0.5-0.2-0.9-0.3-1.4-0.3c-1.1,0-1.6,0.9-1.6,2.1v0.1c0,1.2,0.5,2.1,1.4,2.1
		C369.1,406.7,369.7,405.6,369.7,404.5z"/>
	<path class="st0" d="M372.1,398.5h0.7v1.3c0.3-0.8,1-1.4,2-1.4v0.7h0c-1.1,0-2,0.7-2,2.2v5.9h-0.7V398.5z"/>
	<path class="st0" d="M375.9,395.4h0.7v7.9l2.5-4.8h0.8l-1.9,3.5l2.1,5.2h-0.8l-1.7-4.5l-0.9,1.7v2.8h-0.7V395.4z"/>
	<path class="st0" d="M380.6,403v-0.1c0-3,1.1-4.5,2.4-4.5c1.3,0,2.2,1.5,2.2,4.3v0.5h-3.9c0,2.4,1,3.5,2.1,3.5
		c0.5,0,0.9-0.1,1.5-0.5l0.1,0.7c-0.6,0.3-1,0.5-1.7,0.5C381.9,407.3,380.6,405.9,380.6,403z M384.5,402.5c0-2-0.7-3.5-1.6-3.5
		c-0.9,0-1.6,1.2-1.7,3.5H384.5z"/>
	<path class="st0" d="M389.3,395.6h1.4c1,0,1.8,0.3,2.4,0.9s0.9,1.4,0.9,2.5v0c0,1.6-0.7,2.8-2,3.3l2.2,4.9h-0.8l-2.1-4.7
		c-0.2,0-0.4,0-0.6,0h-0.6v4.7h-0.7V395.6z M390.8,401.9c1.6,0,2.6-1,2.6-2.8v0c0-1.9-1-2.8-2.6-2.8h-0.7v5.6H390.8z"/>
	<path class="st0" d="M395,403v-0.1c0-3,1.1-4.5,2.4-4.5c1.3,0,2.2,1.5,2.2,4.3v0.5h-3.9c0,2.4,1,3.5,2.1,3.5c0.5,0,0.9-0.1,1.5-0.5
		l0.1,0.7c-0.6,0.3-1,0.5-1.7,0.5C396.3,407.3,395,405.9,395,403z M399,402.5c0-2-0.7-3.5-1.6-3.5c-0.9,0-1.6,1.2-1.7,3.5H399z"/>
	<path class="st0" d="M400.6,406.9v-0.7c0.6,0.3,1.2,0.5,1.7,0.5c0.7,0,1.3-0.5,1.3-1.3v0c0-0.6-0.3-1.2-1.4-2.2
		c-1.3-1.2-1.7-1.9-1.7-2.8v0c0-1.2,0.9-1.9,1.9-1.9c0.6,0,1,0.1,1.4,0.3v0.7c-0.5-0.2-0.9-0.4-1.5-0.4c-0.7,0-1.2,0.5-1.2,1.2v0
		c0,0.6,0.3,1.1,1.4,2.1c1.2,1.2,1.7,1.9,1.7,2.9v0c0,1.2-1,2-2,2C401.6,407.3,401.2,407.2,400.6,406.9z"/>
	<path class="st0" d="M405.2,406.9v-0.7c0.6,0.3,1.2,0.5,1.7,0.5c0.7,0,1.3-0.5,1.3-1.3v0c0-0.6-0.3-1.2-1.4-2.2
		c-1.3-1.2-1.7-1.9-1.7-2.8v0c0-1.2,0.9-1.9,1.9-1.9c0.6,0,1,0.1,1.4,0.3v0.7c-0.5-0.2-0.9-0.4-1.5-0.4c-0.7,0-1.2,0.5-1.2,1.2v0
		c0,0.6,0.3,1.1,1.4,2.1c1.2,1.2,1.7,1.9,1.7,2.9v0c0,1.2-1,2-2,2C406.2,407.3,405.7,407.2,405.2,406.9z"/>
	<path class="st0" d="M409.8,402.9v-0.1c0-2.7,1.2-4.4,2.4-4.4s2.4,1.7,2.4,4.4v0.1c0,2.7-1.1,4.4-2.4,4.4S409.8,405.7,409.8,402.9z
		 M414,402.9v-0.1c0-2.3-0.8-3.8-1.7-3.8s-1.7,1.5-1.7,3.8v0.1c0,2.3,0.8,3.8,1.7,3.8S414,405.2,414,402.9z"/>
	<path class="st0" d="M416.1,398.5h0.7v1.3c0.3-0.8,1-1.4,2-1.4v0.7h0c-1.1,0-2,0.7-2,2.2v5.9h-0.7V398.5z"/>
	<path class="st0" d="M420.2,405.7v-6.6h-0.8v-0.6h0.8V396h0.7v2.5h1.4v0.6h-1.4v6.5c0,0.8,0.3,1,0.9,1c0.2,0,0.4,0,0.5-0.1v0.6
		c-0.2,0.1-0.4,0.1-0.6,0.1C420.8,407.3,420.2,406.9,420.2,405.7z"/>
	<path class="st0" d="M423.1,402h3.1v0.7h-3.1V402z"/>
	<path class="st0" d="M429.5,395.5h0.8l2.5,11.7H432l-0.7-3.3h-3l-0.7,3.3H427L429.5,395.5z M431.2,403.3l-1.4-6.6l-1.4,6.6H431.2z"
		/>
	<path class="st0" d="M433.6,402.9v-0.2c0-3,1.3-4.4,2.6-4.4c0.4,0,0.8,0.1,1,0.3v0.8c-0.3-0.2-0.6-0.4-1-0.4
		c-0.9,0-1.9,1.1-1.9,3.7v0.2c0,2.6,1,3.7,2,3.7c0.4,0,0.7-0.1,1-0.4v0.7c-0.3,0.2-0.6,0.3-1,0.3C434.8,407.3,433.6,406,433.6,402.9
		z"/>
	<path class="st0" d="M438,402.9v-0.2c0-3,1.3-4.4,2.6-4.4c0.4,0,0.8,0.1,1,0.3v0.8c-0.3-0.2-0.6-0.4-1-0.4c-0.9,0-1.9,1.1-1.9,3.7
		v0.2c0,2.6,1,3.7,2,3.7c0.4,0,0.7-0.1,1-0.4v0.7c-0.3,0.2-0.6,0.3-1,0.3C439.3,407.3,438,406,438,402.9z"/>
	<path class="st0" d="M442.4,402.9v-0.1c0-2.7,1.2-4.4,2.4-4.4s2.4,1.7,2.4,4.4v0.1c0,2.7-1.1,4.4-2.4,4.4S442.4,405.7,442.4,402.9z
		 M446.6,402.9v-0.1c0-2.3-0.8-3.8-1.7-3.8s-1.7,1.5-1.7,3.8v0.1c0,2.3,0.8,3.8,1.7,3.8S446.6,405.2,446.6,402.9z"/>
	<path class="st0" d="M448.6,404.6v-6.1h0.7v6c0,1.4,0.5,2.2,1.4,2.2c0.9,0,1.6-0.9,1.6-2.4v-5.9h0.7v8.7h-0.7v-1.3
		c-0.3,0.7-0.8,1.4-1.8,1.4C449.4,407.3,448.6,406.4,448.6,404.6z"/>
	<path class="st0" d="M454.8,398.5h0.7v1.3c0.3-0.7,0.8-1.4,1.8-1.4c1.2,0,2,1,2,2.8v6.1h-0.7v-6c0-1.4-0.5-2.2-1.4-2.2
		c-0.9,0-1.6,0.9-1.6,2.4v5.9h-0.7V398.5z"/>
	<path class="st0" d="M461,405.7v-6.6h-0.8v-0.6h0.8V396h0.7v2.5h1.4v0.6h-1.4v6.5c0,0.8,0.3,1,0.9,1c0.2,0,0.4,0,0.5-0.1v0.6
		c-0.2,0.1-0.4,0.1-0.6,0.1C461.6,407.3,461,406.9,461,405.7z"/>
	<path class="st0" d="M464,406.9v-0.7c0.6,0.3,1.2,0.5,1.7,0.5c0.7,0,1.3-0.5,1.3-1.3v0c0-0.6-0.3-1.2-1.4-2.2
		c-1.3-1.2-1.7-1.9-1.7-2.8v0c0-1.2,0.9-1.9,1.9-1.9c0.6,0,1,0.1,1.4,0.3v0.7c-0.5-0.2-0.9-0.4-1.5-0.4c-0.7,0-1.2,0.5-1.2,1.2v0
		c0,0.6,0.3,1.1,1.4,2.1c1.2,1.2,1.7,1.9,1.7,2.9v0c0,1.2-1,2-2,2C465,407.3,464.5,407.2,464,406.9z"/>
	<path class="st0" d="M468.9,398.5h1v1.4h-1V398.5z M468.9,405.8h1v1.4h-1V405.8z"/>
	<path class="st0" d="M262.4,436.7v-3.8c1.3,0.8,2.1,1.2,3.2,1.2c1.2,0,2-0.7,2-2.1c0-0.7-0.2-1.7-2-3.7c-2.6-2.9-3.5-4.4-3.5-6.8
		c0-3.4,2.2-5.6,5.2-5.6c1.4,0,2.3,0.3,3.1,0.7v3.8c-1.1-0.7-1.8-1-2.8-1c-1,0-1.9,0.7-1.9,1.9c0,0.9,0.3,1.5,2,3.5
		c2.9,3.4,3.5,4.8,3.5,7.1c0,3.4-2.3,5.6-5.2,5.6C264.7,437.6,263.4,437.3,262.4,436.7z"/>
	<path class="st0" d="M272.5,421.1h3.5v2c0.5-1,1.3-2.4,2.8-2.4c1.9,0,3.4,1.9,3.4,7.8v1.5c0,5.8-1.5,7.8-3.4,7.8
		c-1.6,0-2.3-1.3-2.8-2.3v6h-3.5V421.1z M278.7,429.8v-1.1c0-2.9-0.4-4.5-1.3-4.5c-0.9,0-1.4,1.6-1.4,4.5v1.1c0,2.9,0.5,4.5,1.4,4.5
		C278.3,434.3,278.7,432.7,278.7,429.8z"/>
	<path class="st0" d="M283.7,429.8v-1c0-5.3,2.1-8,5-8c2.9,0,5,2.7,5,8v1c0,5.3-2.1,8-5,8C285.8,437.8,283.7,435.1,283.7,429.8z
		 M290.1,429.9v-1.1c0-3.2-0.5-4.7-1.4-4.7s-1.4,1.5-1.4,4.7v1.1c0,3.2,0.5,4.7,1.4,4.7S290.1,433.1,290.1,429.9z"/>
	<path class="st0" d="M295.3,421.1h3.5v2c0.5-1.4,1.2-2.3,2.6-2.2v4.3h-0.1c-1.7,0-2.5,1.2-2.5,3.5v8.7h-3.5V421.1z"/>
	<path class="st0" d="M303.2,434.7V424h-1v-2.9h1v-4.2h3.5v4.2h1.9v2.9h-1.9v9.4c0,0.7,0.4,1,1,1c0.3,0,0.6-0.1,0.9-0.2v2.9
		c-0.5,0.3-1.4,0.5-2.1,0.5C304.9,437.7,303.2,437.1,303.2,434.7z"/>
	<path class="st0" d="M310.5,421.1h4.1v4.2h-4.1V421.1z M310.5,433.2h4.1v4.2h-4.1V433.2z"/>
	<path class="st0" d="M321.4,429.8v-1c0-5.3,2.2-8,5.1-8c1,0,1.5,0.1,2.2,0.4v3.7c-0.6-0.4-1.1-0.6-1.8-0.6c-1.1,0-1.9,1.2-1.9,4.4
		v1.1c0,3.2,0.8,4.4,2,4.4c0.5,0,1.1-0.3,1.7-0.7v3.5c-0.8,0.5-1.4,0.7-2.3,0.7C323.4,437.8,321.4,435.1,321.4,429.8z"/>
	<path class="st0" d="M329.8,432.9v-0.5c0-3.7,1.4-5.2,3.6-5.2c0.7,0,1.4,0.2,2.1,0.6v-1c0-1.7-0.8-2.6-2.2-2.6
		c-0.9,0-1.9,0.4-2.7,0.8v-3.4c1.1-0.5,2.3-0.7,3.2-0.7c1.7,0,2.9,0.4,3.8,1.3c1,1,1.4,2.4,1.4,4.4v10.9h-3.5v-1.7
		c-0.6,1.3-1.5,2-2.6,2C331,437.8,329.8,435.9,329.8,432.9z M335.5,433.2v-2.8c-0.3-0.2-0.8-0.3-1.1-0.3c-0.7,0-1.2,0.6-1.2,2.2v0.4
		c0,1.6,0.5,2.1,1.1,2.1C334.9,434.7,335.5,434.2,335.5,433.2z"/>
	<path class="st0" d="M341,433.2h4.1v4.2H341V433.2z"/>
	<path class="st0" d="M353.9,436.7c-1.4-1.4-2.1-4.2-2.1-8.9V427c0-8.8,2.5-11.2,5.9-11.2c1.1,0,1.8,0.2,2.5,0.5v3.5
		c-0.6-0.3-1.4-0.6-2.1-0.6c-1.6,0-2.8,1.2-2.8,5.4c0.8-0.6,1.4-0.9,2.4-0.9c1.9,0,3.9,1.5,3.9,6.2v0.6c0,4.4-2,7.3-4.9,7.3
		C355.6,437.8,354.7,437.5,353.9,436.7z M358.2,430.7V430c0-2.4-0.7-3.3-1.6-3.3c-0.6,0-1,0.2-1.3,0.5v2.6c0,3.3,0.6,4.6,1.4,4.6
		C357.7,434.5,358.2,433.3,358.2,430.7z"/>
	<path class="st0" d="M362.9,427.4v-1.2c0-7.4,1.8-10.4,5.2-10.4c3.3,0,5.2,3,5.2,10.4v1.2c0,7.4-1.9,10.4-5.2,10.4
		C364.7,437.8,362.9,434.8,362.9,427.4z M369.6,427.3v-1.1c0-6-0.7-7-1.6-7c-0.9,0-1.6,1-1.6,7v1.1c0,6,0.7,7,1.6,7
		C368.9,434.4,369.6,433.4,369.6,427.3z"/>
	<path class="st0" d="M374.7,427.4v-1.2c0-7.4,1.8-10.4,5.2-10.4c3.3,0,5.2,3,5.2,10.4v1.2c0,7.4-1.9,10.4-5.2,10.4
		C376.5,437.8,374.7,434.8,374.7,427.4z M381.5,427.3v-1.1c0-6-0.7-7-1.6-7c-0.9,0-1.6,1-1.6,7v1.1c0,6,0.7,7,1.6,7
		C380.7,434.4,381.5,433.4,381.5,427.3z"/>
	<path class="st0" d="M386.7,433.2h4.1v4.2h-4.1V433.2z"/>
	<path class="st0" d="M392.5,427.4v-1.2c0-7.4,1.8-10.4,5.2-10.4c3.3,0,5.2,3,5.2,10.4v1.2c0,7.4-1.9,10.4-5.2,10.4
		C394.3,437.8,392.5,434.8,392.5,427.4z M399.2,427.3v-1.1c0-6-0.7-7-1.6-7c-0.9,0-1.6,1-1.6,7v1.1c0,6,0.7,7,1.6,7
		C398.5,434.4,399.2,433.4,399.2,427.3z"/>
	<path class="st0" d="M404.3,427.4v-1.2c0-7.4,1.8-10.4,5.2-10.4c3.3,0,5.2,3,5.2,10.4v1.2c0,7.4-1.9,10.4-5.2,10.4
		C406.1,437.8,404.3,434.8,404.3,427.4z M411,427.3v-1.1c0-6-0.7-7-1.6-7c-0.9,0-1.6,1-1.6,7v1.1c0,6,0.7,7,1.6,7
		C410.3,434.4,411,433.4,411,427.3z"/>
	<path class="st0" d="M416.1,427.4v-1.2c0-7.4,1.8-10.4,5.2-10.4c3.3,0,5.2,3,5.2,10.4v1.2c0,7.4-1.9,10.4-5.2,10.4
		C417.9,437.8,416.1,434.8,416.1,427.4z M422.8,427.3v-1.1c0-6-0.7-7-1.6-7c-0.9,0-1.6,1-1.6,7v1.1c0,6,0.7,7,1.6,7
		C422.1,434.4,422.8,433.4,422.8,427.3z"/>
	<path class="st0" d="M433,416.1h7.6v3.5h-4v5.4h3.5v3.5h-3.5v8.9H433V416.1z"/>
	<path class="st0" d="M441.2,432.9v-0.5c0-3.7,1.4-5.2,3.6-5.2c0.7,0,1.4,0.2,2.1,0.6v-1c0-1.7-0.8-2.6-2.2-2.6
		c-0.9,0-1.9,0.4-2.7,0.8v-3.4c1.1-0.5,2.3-0.7,3.2-0.7c1.7,0,2.9,0.4,3.8,1.3c1,1,1.4,2.4,1.4,4.4v10.9h-3.5v-1.7
		c-0.6,1.3-1.5,2-2.6,2C442.5,437.8,441.2,435.9,441.2,432.9z M446.9,433.2v-2.8c-0.3-0.2-0.8-0.3-1.1-0.3c-0.7,0-1.2,0.6-1.2,2.2
		v0.4c0,1.6,0.5,2.1,1.1,2.1C446.3,434.7,446.9,434.2,446.9,433.2z"/>
	<path class="st0" d="M452.3,421.1h3.5v2c0.6-1.3,1.4-2.3,2.8-2.3c2,0,3.1,1.8,3.1,4.3v12.4h-3.5v-11.6c0-1.2-0.4-1.9-1.2-1.9
		s-1.2,0.7-1.2,1.9v11.6h-3.5V421.1z"/>
	<path class="st0" d="M463.2,437v-3.5c1.2,0.6,2.2,1.1,3,1.1c0.8,0,1.3-0.5,1.3-1.3c0-0.7-0.3-1.2-1.8-2.7c-1.6-1.6-2.7-3.1-2.7-5.2
		v-0.1c0-2.7,1.8-4.4,4.6-4.4c1,0,1.7,0.1,2.6,0.4v3.5c-0.7-0.4-1.6-0.7-2.4-0.7c-0.9,0-1.3,0.5-1.3,1.1c0,0.6,0.3,1.1,1.9,2.7
		c2,2,2.6,3.3,2.6,5.1v0.1c0,2.8-1.9,4.6-4.5,4.6C465.4,437.8,464.2,437.5,463.2,437z"/>
	<path class="st0" d="M262.8,446.4h3.4l3.8,11.1v-11.1h3.5v21.4h-3.2l-4-11.6v11.6h-3.5V446.4z"/>
	<path class="st0" d="M275.2,460v-0.8c0-5.3,2.2-8.1,4.9-8.1c2.8,0,4.6,2.8,4.6,8.2v1.9h-5.9c0.2,2.6,1.3,3.5,2.4,3.5
		c1.1,0,1.8-0.5,2.8-1.2l0.3,3.3c-1.2,0.8-2.2,1.3-3.5,1.3C277.7,468.1,275.2,465.3,275.2,460z M281.3,458.4c0-2.7-0.4-4.1-1.2-4.1
		c-0.8,0-1.3,1.2-1.4,4.1H281.3z"/>
	<path class="st0" d="M285.4,451.4h3.6l1.2,9.4l1.4-9.4h2.8l1.4,9.4l1.2-9.4h3.5l-2.7,16.4h-3.4l-1.5-9.2l-1.4,9.2h-3.4L285.4,451.4
		z"/>
	<path class="st0" d="M301.4,467.3v-3.5c1.2,0.6,2.2,1.1,3,1.1c0.8,0,1.3-0.5,1.3-1.3c0-0.7-0.3-1.2-1.8-2.7
		c-1.6-1.6-2.7-3.1-2.7-5.2v-0.1c0-2.7,1.8-4.4,4.6-4.4c1,0,1.7,0.1,2.6,0.4v3.5c-0.7-0.4-1.6-0.7-2.4-0.7c-0.9,0-1.3,0.5-1.3,1.1
		c0,0.6,0.3,1.1,1.9,2.7c2,2,2.6,3.3,2.6,5.1v0.1c0,2.8-1.9,4.6-4.5,4.6C303.6,468.1,302.4,467.8,301.4,467.3z"/>
	<path class="st0" d="M310.7,451.4h4.1v4.2h-4.1V451.4z M310.7,463.5h4.1v4.2h-4.1V463.5z"/>
	<path class="st0" d="M321.7,460.1v-1c0-5.3,2.2-8,5.1-8c1,0,1.5,0.1,2.2,0.4v3.7c-0.6-0.4-1.1-0.6-1.8-0.6c-1.1,0-1.9,1.2-1.9,4.4
		v1.1c0,3.2,0.8,4.4,2,4.4c0.5,0,1.1-0.3,1.7-0.7v3.5c-0.8,0.5-1.4,0.7-2.3,0.7C323.6,468.1,321.7,465.3,321.7,460.1z"/>
	<path class="st0" d="M330,463.2v-0.5c0-3.7,1.4-5.2,3.6-5.2c0.7,0,1.4,0.2,2.1,0.6v-1c0-1.7-0.8-2.6-2.2-2.6
		c-0.9,0-1.9,0.4-2.7,0.8v-3.4c1.1-0.5,2.3-0.7,3.2-0.7c1.7,0,2.9,0.4,3.8,1.3c1,1,1.4,2.4,1.4,4.4v10.9h-3.5V466
		c-0.6,1.3-1.5,2-2.6,2C331.2,468,330,466.2,330,463.2z M335.7,463.4v-2.8c-0.3-0.2-0.8-0.3-1.1-0.3c-0.7,0-1.2,0.6-1.2,2.2v0.4
		c0,1.6,0.5,2.1,1.1,2.1C335.1,465,335.7,464.5,335.7,463.4z"/>
	<path class="st0" d="M341.2,463.5h4.1v4.2h-4.1V463.5z"/>
	<path class="st0" d="M351.8,467.5v-3.5c0.9,0.4,1.5,0.6,2.6,0.6c1.5,0,2.6-1.1,2.6-3.1v-0.2c0-2.2-1.4-3.1-3.7-3.3v-2.4l3.4-5.5
		H352v-3.6h8.5v3.3l-3.5,5.6c2.1,0.7,3.7,2.3,3.7,5.7v0.3c0,4.2-2.4,6.8-5.7,6.8C353.6,468.1,352.6,467.8,351.8,467.5z"/>
	<path class="st0" d="M361.9,457.6v-1.2c0-7.4,1.8-10.4,5.2-10.4c3.3,0,5.2,3,5.2,10.4v1.2c0,7.4-1.9,10.4-5.2,10.4
		C363.7,468.1,361.9,465,361.9,457.6z M368.6,457.6v-1.1c0-6-0.7-7-1.6-7c-0.9,0-1.6,1-1.6,7v1.1c0,6,0.7,7,1.6,7
		C367.9,464.6,368.6,463.7,368.6,457.6z"/>
	<path class="st0" d="M373.7,457.6v-1.2c0-7.4,1.8-10.4,5.2-10.4c3.3,0,5.2,3,5.2,10.4v1.2c0,7.4-1.9,10.4-5.2,10.4
		C375.5,468.1,373.7,465,373.7,457.6z M380.5,457.6v-1.1c0-6-0.7-7-1.6-7c-0.9,0-1.6,1-1.6,7v1.1c0,6,0.7,7,1.6,7
		C379.7,464.6,380.5,463.7,380.5,457.6z"/>
	<path class="st0" d="M385.7,463.5h4.1v4.2h-4.1V463.5z"/>
	<path class="st0" d="M391.5,457.6v-1.2c0-7.4,1.8-10.4,5.2-10.4c3.3,0,5.2,3,5.2,10.4v1.2c0,7.4-1.9,10.4-5.2,10.4
		C393.3,468.1,391.5,465,391.5,457.6z M398.2,457.6v-1.1c0-6-0.7-7-1.6-7c-0.9,0-1.6,1-1.6,7v1.1c0,6,0.7,7,1.6,7
		C397.5,464.6,398.2,463.7,398.2,457.6z"/>
	<path class="st0" d="M403.3,457.6v-1.2c0-7.4,1.8-10.4,5.2-10.4c3.3,0,5.2,3,5.2,10.4v1.2c0,7.4-1.9,10.4-5.2,10.4
		C405.1,468.1,403.3,465,403.3,457.6z M410,457.6v-1.1c0-6-0.7-7-1.6-7c-0.9,0-1.6,1-1.6,7v1.1c0,6,0.7,7,1.6,7
		C409.3,464.6,410,463.7,410,457.6z"/>
	<path class="st0" d="M415.1,457.6v-1.2c0-7.4,1.8-10.4,5.2-10.4c3.3,0,5.2,3,5.2,10.4v1.2c0,7.4-1.9,10.4-5.2,10.4
		C416.9,468.1,415.1,465,415.1,457.6z M421.8,457.6v-1.1c0-6-0.7-7-1.6-7c-0.9,0-1.6,1-1.6,7v1.1c0,6,0.7,7,1.6,7
		C421.1,464.6,421.8,463.7,421.8,457.6z"/>
	<path class="st0" d="M432,446.4h7.6v3.5h-4v5.4h3.5v3.5h-3.5v8.9H432V446.4z"/>
	<path class="st0" d="M440.2,463.2v-0.5c0-3.7,1.4-5.2,3.6-5.2c0.7,0,1.4,0.2,2.1,0.6v-1c0-1.7-0.8-2.6-2.2-2.6
		c-0.9,0-1.9,0.4-2.7,0.8v-3.4c1.1-0.5,2.3-0.7,3.2-0.7c1.7,0,2.9,0.4,3.8,1.3c1,1,1.4,2.4,1.4,4.4v10.9h-3.5V466
		c-0.6,1.3-1.5,2-2.6,2C441.5,468,440.2,466.2,440.2,463.2z M445.9,463.4v-2.8c-0.3-0.2-0.8-0.3-1.1-0.3c-0.7,0-1.2,0.6-1.2,2.2v0.4
		c0,1.6,0.5,2.1,1.1,2.1C445.3,465,445.9,464.5,445.9,463.4z"/>
	<path class="st0" d="M451.3,451.4h3.5v2c0.6-1.3,1.4-2.3,2.8-2.3c2,0,3.1,1.8,3.1,4.3v12.4h-3.5v-11.6c0-1.2-0.4-1.9-1.2-1.9
		s-1.2,0.7-1.2,1.9v11.6h-3.5V451.4z"/>
	<path class="st0" d="M462.2,467.3v-3.5c1.2,0.6,2.2,1.1,3,1.1c0.8,0,1.3-0.5,1.3-1.3c0-0.7-0.3-1.2-1.8-2.7
		c-1.6-1.6-2.7-3.1-2.7-5.2v-0.1c0-2.7,1.8-4.4,4.6-4.4c1,0,1.7,0.1,2.6,0.4v3.5c-0.7-0.4-1.6-0.7-2.4-0.7c-0.9,0-1.3,0.5-1.3,1.1
		c0,0.6,0.3,1.1,1.9,2.7c2,2,2.6,3.3,2.6,5.1v0.1c0,2.8-1.9,4.6-4.5,4.6C464.4,468.1,463.2,467.8,462.2,467.3z"/>
</g>
<g>
	<path class="st0" d="M261.4,347.6h1.1l1.3,9.2l1.6-9.2h1l1.6,9.2l1.3-9.2h1.1l-1.9,11.5h-1l-1.6-9.1l-1.6,9.1h-1L261.4,347.6z"/>
	<path class="st0" d="M270.7,354.8v-0.2c0-2.7,1.1-4.3,2.5-4.3c1.3,0,2.4,1.6,2.4,4.3v0.2c0,2.7-1.1,4.3-2.5,4.3
		C271.9,359.1,270.7,357.5,270.7,354.8z M274.6,354.8v-0.3c0-2.1-0.6-3.4-1.5-3.4s-1.5,1.3-1.5,3.4v0.3c0,2.1,0.6,3.4,1.5,3.4
		S274.6,356.9,274.6,354.8z M271.8,348.2h1v1.3h-1V348.2z M273.6,348.2h1v1.3h-1V348.2z"/>
	<path class="st0" d="M276.6,354.8v-0.3c0-2.9,1.2-4.3,2.6-4.3c0.4,0,0.8,0.1,1.1,0.3v1.1c-0.3-0.2-0.6-0.4-1-0.4
		c-0.8,0-1.6,1-1.6,3.3v0.3c0,2.3,0.8,3.3,1.7,3.3c0.3,0,0.7-0.2,0.9-0.4v1c-0.3,0.2-0.6,0.3-1.1,0.3
		C277.8,359.1,276.6,357.8,276.6,354.8z"/>
	<path class="st0" d="M281.4,347.5h1v4.1c0.3-0.7,0.8-1.4,1.7-1.4c1.1,0,1.8,1,1.8,2.6v6.2h-1v-6c0-1.2-0.4-1.9-1.2-1.9
		c-0.8,0-1.3,0.8-1.3,2v5.9h-1V347.5z"/>
	<path class="st0" d="M287.1,354.9v-0.2c0-2.9,1.1-4.4,2.4-4.4c1.3,0,2.3,1.5,2.3,4.2v0.7H288c0.1,2.1,0.9,3,1.9,3
		c0.5,0,0.9-0.2,1.5-0.5l0.1,1c-0.6,0.4-1,0.5-1.7,0.5C288.3,359.1,287.1,357.7,287.1,354.9z M290.7,354.3c0-1.8-0.5-3.1-1.3-3.1
		s-1.3,1-1.4,3.1H290.7z"/>
	<path class="st0" d="M292.9,350.4h1v1.2c0.3-0.7,0.8-1.4,1.7-1.4c1.1,0,1.8,1,1.8,2.6v6.2h-1v-6c0-1.2-0.4-1.9-1.2-1.9
		c-0.8,0-1.3,0.8-1.3,2v5.9h-1V350.4z"/>
	<path class="st0" d="M299.1,357.5v-6.3h-0.7v-0.9h0.7V348h1v2.4h1.3v0.9h-1.3v6c0,0.7,0.3,0.8,0.8,0.8c0.1,0,0.4,0,0.5-0.1v0.9
		c-0.2,0.1-0.5,0.1-0.7,0.1C299.7,359.1,299.1,358.7,299.1,357.5z"/>
	<path class="st0" d="M302.6,347.5h1V359h-1V347.5z"/>
	<path class="st0" d="M305.2,347.5h1.1v1.3h-1.1V347.5z M305.2,350.4h1v8.6h-1V350.4z"/>
	<path class="st0" d="M307.6,354.8v-0.3c0-2.9,1.2-4.3,2.6-4.3c0.4,0,0.8,0.1,1.1,0.3v1.1c-0.3-0.2-0.6-0.4-1-0.4
		c-0.8,0-1.6,1-1.6,3.3v0.3c0,2.3,0.8,3.3,1.7,3.3c0.3,0,0.7-0.2,0.9-0.4v1c-0.3,0.2-0.6,0.3-1.1,0.3
		C308.7,359.1,307.6,357.8,307.6,354.8z"/>
	<path class="st0" d="M312.4,347.5h1v4.1c0.3-0.7,0.8-1.4,1.7-1.4c1.1,0,1.8,1,1.8,2.6v6.2h-1v-6c0-1.2-0.4-1.9-1.2-1.9
		c-0.8,0-1.3,0.8-1.3,2v5.9h-1V347.5z"/>
	<path class="st0" d="M318,354.9v-0.2c0-2.9,1.1-4.4,2.4-4.4c1.3,0,2.3,1.5,2.3,4.2v0.7H319c0.1,2.1,0.9,3,1.9,3
		c0.5,0,0.9-0.2,1.5-0.5l0.1,1c-0.6,0.4-1,0.5-1.7,0.5C319.3,359.1,318,357.7,318,354.9z M321.7,354.3c0-1.8-0.5-3.1-1.3-3.1
		s-1.3,1-1.4,3.1H321.7z"/>
	<path class="st0" d="M261.8,363.7h1.6c1,0,1.8,0.3,2.4,0.9c0.6,0.6,0.9,1.4,0.9,2.5v0c0,1.6-0.7,2.7-1.8,3.1l2,4.8h-1.2l-1.8-4.5
		c-0.1,0-0.3,0-0.5,0h-0.5v4.4h-1V363.7z M263.4,369.7c1.3,0,2.2-0.9,2.2-2.5v0c0-1.7-0.9-2.5-2.3-2.5h-0.5v5.1H263.4z"/>
	<path class="st0" d="M267.5,371v-0.2c0-2.9,1.1-4.4,2.4-4.4c1.3,0,2.3,1.5,2.3,4.2v0.7h-3.6c0.1,2.1,0.9,3,1.9,3
		c0.5,0,0.9-0.2,1.5-0.5l0.1,1c-0.6,0.4-1,0.5-1.7,0.5C268.8,375.3,267.5,373.8,267.5,371z M271.2,370.4c0-1.8-0.5-3.1-1.3-3.1
		s-1.3,1-1.4,3.1H271.2z"/>
	<path class="st0" d="M273.4,363.6h1.1v1.3h-1.1V363.6z M273.4,366.5h1v8.6h-1V366.5z"/>
	<path class="st0" d="M275.7,371v-0.3c0-2.9,1.2-4.3,2.6-4.3c0.4,0,0.8,0.1,1.1,0.3v1.1c-0.3-0.2-0.6-0.4-1-0.4
		c-0.8,0-1.6,1-1.6,3.3v0.3c0,2.3,0.8,3.3,1.7,3.3c0.3,0,0.7-0.2,0.9-0.4v1c-0.3,0.2-0.6,0.3-1.1,0.3
		C276.9,375.3,275.7,373.9,275.7,371z"/>
	<path class="st0" d="M280.5,363.6h1v4.1c0.3-0.7,0.8-1.4,1.7-1.4c1.1,0,1.8,1,1.8,2.6v6.2h-1v-6c0-1.2-0.4-1.9-1.2-1.9
		c-0.8,0-1.3,0.8-1.3,2v5.9h-1V363.6z"/>
	<path class="st0" d="M286,366.5h1l1.2,6.8l1.2-6.8h0.8l1.2,6.8l1.2-6.8h1l-1.7,8.7h-0.9l-1.2-6.6l-1.2,6.6h-0.9L286,366.5z"/>
	<path class="st0" d="M294.2,371v-0.2c0-2.9,1.1-4.4,2.4-4.4c1.3,0,2.3,1.5,2.3,4.2v0.7h-3.6c0.1,2.1,0.9,3,1.9,3
		c0.5,0,0.9-0.2,1.5-0.5l0.1,1c-0.6,0.4-1,0.5-1.7,0.5C295.5,375.3,294.2,373.8,294.2,371z M297.9,370.4c0-1.8-0.5-3.1-1.3-3.1
		s-1.3,1-1.4,3.1H297.9z"/>
	<path class="st0" d="M300.2,363.6h1.1v1.3h-1.1V363.6z M300.2,366.5h1v8.6h-1V366.5z"/>
	<path class="st0" d="M303,373.7v-6.3h-0.7v-0.9h0.7v-2.4h1v2.4h1.3v0.9H304v6c0,0.7,0.3,0.8,0.8,0.8c0.1,0,0.4,0,0.5-0.1v0.9
		c-0.2,0.1-0.5,0.1-0.7,0.1C303.7,375.2,303,374.8,303,373.7z"/>
	<path class="st0" d="M306,371v-0.2c0-2.9,1.1-4.4,2.4-4.4c1.3,0,2.3,1.5,2.3,4.2v0.7H307c0.1,2.1,0.9,3,1.9,3
		c0.5,0,0.9-0.2,1.5-0.5l0.1,1c-0.6,0.4-1,0.5-1.7,0.5C307.3,375.3,306,373.8,306,371z M309.7,370.4c0-1.8-0.5-3.1-1.3-3.1
		s-1.3,1-1.4,3.1H309.7z"/>
	<path class="st0" d="M311.9,366.5h1.3v1.6h-1.3V366.5z M311.9,373.5h1.3v1.6h-1.3V373.5z"/>
</g>
<g>
	<path class="st0" d="M364.9,221.8h8.5v4.2h-4.1v4.1h3.6v4.1h-3.6v8.3h-4.4V221.8z"/>
	<path class="st0" d="M376.7,221.7h5l3.9,20.7h-4.4l-0.6-3.7h-3.1l-0.6,3.7h-4.3L376.7,221.7z M380.1,234.9l-1-6.5l-1,6.5H380.1z"/>
	<path class="st0" d="M385.5,232.6v-1c0-7.3,3.2-10.1,6.8-10.1c1.1,0,1.8,0.2,2.7,0.6v4.5c-0.8-0.5-1.5-0.7-2.2-0.7
		c-1.5,0-2.7,1.2-2.7,5.9v0.8c0,4.9,1.2,5.9,2.8,5.9c0.6,0,1.3-0.2,2.2-0.7v4.3c-0.9,0.5-1.8,0.8-3,0.8
		C388.4,242.7,385.5,239.6,385.5,232.6z"/>
	<path class="st0" d="M396.5,221.8h8.9v4.2h-4.5v4h4v4.1h-4v4.1h4.6v4.2h-9V221.8z"/>
	<path class="st0" d="M406.8,221.8h4c2.2,0,4.2,0.5,5.5,1.7c0.8,0.9,1.3,2,1.3,3.6v0.2c0,2.3-1.3,3.8-2.7,4.5c1.5,0.8,3,2,3,4.6v0.3
		c0,3.9-2.9,5.8-7.1,5.8h-4.1V221.8z M413.4,228c0-1.5-0.9-2.1-2.2-2.1H411v4.4h0.2C412.5,230.2,413.4,229.5,413.4,228L413.4,228z
		 M411.3,233.8H411v4.5h0.2c1.3,0,2.3-0.7,2.3-2.2v-0.1C413.6,234.6,412.6,233.8,411.3,233.8z"/>
	<path class="st0" d="M418.7,232.8v-1.3c0-6.7,2.3-10.1,6.1-10.1c3.7,0,6,3.3,6,10.1v1.3c0,6.7-2.3,10.1-6,10.1
		C421.1,242.8,418.7,239.5,418.7,232.8z M426.3,232.8v-1.4c0-4.8-0.6-5.9-1.6-5.9c-1,0-1.6,1.1-1.6,5.9v1.4c0,4.9,0.6,5.9,1.6,5.9
		C425.8,238.7,426.3,237.7,426.3,232.8z"/>
	<path class="st0" d="M431.9,232.8v-1.3c0-6.7,2.3-10.1,6.1-10.1c3.7,0,6,3.3,6,10.1v1.3c0,6.7-2.3,10.1-6,10.1
		C434.2,242.8,431.9,239.5,431.9,232.8z M439.5,232.8v-1.4c0-4.8-0.6-5.9-1.6-5.9c-1,0-1.6,1.1-1.6,5.9v1.4c0,4.9,0.6,5.9,1.6,5.9
		C438.9,238.7,439.5,237.7,439.5,232.8z"/>
	<path class="st0" d="M445.3,221.8h4.4v7.9l2.5-7.9h4.6l-3.2,8.7l3.3,11.9h-4.6l-1.9-7.3l-0.6,1.9v5.4h-4.4V221.8z"/>
	<path class="st0" d="M456.8,231.1h7.9v4.3h-7.9V231.1z"/>
	<path class="st0" d="M364.7,266.2v-4.4c1.3,0.7,2.4,1.2,3.6,1.2c1,0,1.7-0.5,1.7-1.5v0c0-0.7-0.4-1.4-1.8-2.7
		c-2.6-2.5-3.8-3.9-3.8-6.7V252c0-3.6,2.4-5.8,5.5-5.8c1.6,0,2.7,0.3,3.6,0.7v4.5c-1.2-0.7-2.2-1-3.2-1c-0.9,0-1.6,0.6-1.6,1.4v0
		c0,0.7,0.4,1.3,1.8,2.7c2.8,2.7,3.8,4.2,3.8,6.8v0.1c0,3.5-2.5,5.8-5.5,5.8C367.2,267.3,365.8,266.9,364.7,266.2z"/>
	<path class="st0" d="M375.4,246.4h8.9v4.2h-4.5v4h4v4.1h-4v4.1h4.6v4.2h-9V246.4z"/>
	<path class="st0" d="M385.7,246.4h4.4v20.7h-4.4V246.4z"/>
	<path class="st0" d="M394,250.6h-2.7v-4.2h9.8v4.2h-2.7v16.5H394V250.6z"/>
	<path class="st0" d="M402.2,246.4h8.9v4.2h-4.5v4h4v4.1h-4v4.1h4.6v4.2h-9V246.4z"/>
	<path class="st0" d="M412.5,246.4h4.2l3.2,9.3v-9.3h4.2v20.7h-4l-3.4-9.8v9.8h-4.2V246.4z"/>
</g>
<g>
	<path class="st0" d="M320.3,322.7v-0.1c0-1.5,0.8-2.6,2.1-2.6c0.5,0,1,0.1,1.3,0.3v-1c0-1.1-0.5-1.8-1.5-1.8c-0.6,0-1,0.1-1.5,0.4
		v-0.6c0.4-0.2,0.9-0.4,1.5-0.4c0.6,0,1.1,0.2,1.5,0.6c0.3,0.3,0.6,1,0.6,1.7v5.8h-0.6v-1.2c-0.3,0.8-0.8,1.3-1.6,1.3
		C321,325.2,320.3,324.1,320.3,322.7z M323.7,322.5v-1.6c-0.4-0.2-0.8-0.3-1.3-0.3c-1,0-1.5,0.8-1.5,1.9v0.1c0,1.1,0.4,1.9,1.3,1.9
		C323.1,324.6,323.7,323.6,323.7,322.5z"/>
	<path class="st0" d="M325.8,322.6V317h0.6v5.6c0,1.3,0.5,2.1,1.3,2.1c0.8,0,1.5-0.9,1.5-2.2V317h0.6v8h-0.6v-1.2
		c-0.3,0.7-0.8,1.3-1.6,1.3C326.5,325.2,325.8,324.3,325.8,322.6z"/>
	<path class="st0" d="M331.8,317.6H331V317h0.8v-0.9c0-0.7,0.2-1.2,0.5-1.5c0.3-0.3,0.6-0.4,1.1-0.4c0.1,0,0.3,0,0.5,0.1v0.6
		c-0.1,0-0.4-0.1-0.5-0.1c-0.6,0-0.9,0.4-0.9,1.3v0.9h1.3v0.6h-1.3v7.4h-0.6V317.6z"/>
	<path class="st0" d="M336.9,321.2v-0.3c0-2.6,1-4,2.1-4c0.8,0,1.3,0.8,1.7,1.7v-4.3h0.6V325h-0.6v-1.5c-0.3,0.9-0.9,1.7-1.7,1.7
		C337.8,325.2,336.9,323.8,336.9,321.2z M340.6,321.2v-0.4c0-2.2-0.8-3.4-1.6-3.4c-0.8,0-1.5,1.2-1.5,3.4v0.3c0,2.2,0.7,3.4,1.5,3.4
		C339.8,324.6,340.6,323.4,340.6,321.2z"/>
	<path class="st0" d="M342.5,321.2V321c0-2.8,1-4.2,2.2-4.2c1.2,0,2.1,1.4,2.1,3.9v0.5h-3.6c0,2.2,0.9,3.2,2,3.2
		c0.5,0,0.9-0.1,1.4-0.5l0.1,0.7c-0.6,0.3-0.9,0.4-1.5,0.4C343.7,325.2,342.5,323.8,342.5,321.2z M346.1,320.7
		c0-1.9-0.6-3.2-1.4-3.2c-0.8,0-1.5,1.1-1.5,3.2H346.1z"/>
	<path class="st0" d="M348,317h0.6v1.2c0.3-0.7,0.9-1.3,1.9-1.3v0.7h0c-1,0-1.8,0.6-1.8,2.1v5.4H348V317z"/>
	<path class="st0" d="M354.1,314.3h1.4c0.9,0,1.6,0.3,2.1,0.8c0.4,0.4,0.7,1.1,0.7,1.9v0c0,1.6-0.9,2.3-1.9,2.6
		c1.2,0.3,2.1,1.1,2.1,2.6v0c0,1.7-1.3,2.8-3.2,2.8h-1.1V314.3z M357.6,317c0-1.3-0.9-2.1-2.2-2.1h-0.7v4.4h0.5
		C356.8,319.3,357.6,318.5,357.6,317L357.6,317z M355.3,319.9h-0.5v4.5h0.4c1.6,0,2.6-0.8,2.6-2.2v0
		C357.7,320.8,356.8,319.9,355.3,319.9z"/>
	<path class="st0" d="M359.8,314.3h0.7V325h-0.7V314.3z"/>
	<path class="st0" d="M362.2,314.3h0.7v10.1h2.6v0.6h-3.3V314.3z"/>
	<path class="st0" d="M366.5,314.3h1.2c2,0,3.4,1.8,3.4,5.2v0.3c0,3.4-1.4,5.2-3.4,5.2h-1.2V314.3z M367.2,314.9v9.5h0.6
		c1.6,0,2.7-1.6,2.7-4.6v-0.3c0-3-1.2-4.6-2.7-4.6H367.2z"/>
	<path class="st0" d="M372.3,320.2h2.8v0.6h-2.8V320.2z"/>
	<path class="st0" d="M376.6,314.3h0.7v5h3.2v-5h0.7V325h-0.7V320h-3.2v5.1h-0.7V314.3z"/>
	<path class="st0" d="M382.4,322.7v-0.1c0-1.5,0.8-2.6,2.1-2.6c0.5,0,1,0.1,1.3,0.3v-1c0-1.1-0.5-1.8-1.5-1.8c-0.6,0-1,0.1-1.5,0.4
		v-0.6c0.4-0.2,0.9-0.4,1.5-0.4c0.6,0,1.1,0.2,1.5,0.6c0.3,0.3,0.6,1,0.6,1.7v5.8h-0.6v-1.2c-0.3,0.8-0.8,1.3-1.6,1.3
		C383.1,325.2,382.4,324.1,382.4,322.7z M385.8,322.5v-1.6c-0.4-0.2-0.8-0.3-1.3-0.3c-1,0-1.5,0.8-1.5,1.9v0.1
		c0,1.1,0.4,1.9,1.3,1.9C385.2,324.6,385.8,323.6,385.8,322.5z"/>
	<path class="st0" d="M387.9,322.6V317h0.6v5.6c0,1.3,0.5,2.1,1.3,2.1c0.8,0,1.5-0.9,1.5-2.2V317h0.6v8h-0.6v-1.2
		c-0.3,0.7-0.8,1.3-1.6,1.3C388.6,325.2,387.9,324.3,387.9,322.6z"/>
	<path class="st0" d="M393.6,317h0.6v1.5c0.3-0.9,0.9-1.7,1.7-1.7c1.1,0,2.1,1.4,2.1,4v0.3c0,2.6-1,4-2.1,4c-0.8,0-1.3-0.8-1.7-1.7
		v3.5h-0.6V317z M397.3,321.2v-0.3c0-2.2-0.7-3.4-1.5-3.4c-0.8,0-1.6,1.2-1.6,3.4v0.4c0,2.2,0.8,3.4,1.6,3.4
		C396.6,324.6,397.3,323.4,397.3,321.2z"/>
	<path class="st0" d="M399.5,323.7v-6.1h-0.8V317h0.8v-2.3h0.6v2.3h1.3v0.6h-1.3v6c0,0.7,0.3,0.9,0.8,0.9c0.2,0,0.4,0,0.5-0.1v0.6
		c-0.2,0.1-0.4,0.1-0.5,0.1C400,325.1,399.5,324.7,399.5,323.7z"/>
	<path class="st0" d="M402.2,324.8v-0.7c0.5,0.3,1.1,0.5,1.6,0.5c0.7,0,1.2-0.4,1.2-1.2v0c0-0.6-0.3-1.1-1.2-2
		c-1.2-1.1-1.5-1.8-1.5-2.6v0c0-1.1,0.9-1.8,1.8-1.8c0.5,0,0.9,0.1,1.3,0.3v0.7c-0.5-0.2-0.9-0.3-1.3-0.3c-0.6,0-1.1,0.4-1.1,1.1v0
		c0,0.6,0.3,1,1.2,2c1.1,1.1,1.5,1.8,1.5,2.6v0c0,1.1-0.9,1.8-1.9,1.8C403.1,325.1,402.7,325,402.2,324.8z"/>
	<path class="st0" d="M406.5,321.2V321c0-2.8,1-4.2,2.2-4.2c1.2,0,2.1,1.4,2.1,3.9v0.5h-3.6c0,2.2,0.9,3.2,2,3.2
		c0.5,0,0.9-0.1,1.4-0.5l0.1,0.7c-0.6,0.3-0.9,0.4-1.5,0.4C407.7,325.2,406.5,323.8,406.5,321.2z M410.1,320.7
		c0-1.9-0.6-3.2-1.4-3.2c-0.8,0-1.5,1.1-1.5,3.2H410.1z"/>
	<path class="st0" d="M412.1,314.2h0.7v1.1h-0.7V314.2z M412.1,317h0.6v8h-0.6V317z"/>
	<path class="st0" d="M414.7,323.7v-6.1h-0.8V317h0.8v-2.3h0.6v2.3h1.3v0.6h-1.3v6c0,0.7,0.3,0.9,0.8,0.9c0.2,0,0.4,0,0.5-0.1v0.6
		c-0.2,0.1-0.4,0.1-0.5,0.1C415.2,325.1,414.7,324.7,414.7,323.7z"/>
	<path class="st0" d="M417.4,321.2V321c0-2.8,1-4.2,2.2-4.2c1.2,0,2.1,1.4,2.1,3.9v0.5H418c0,2.2,0.9,3.2,2,3.2
		c0.5,0,0.9-0.1,1.4-0.5l0.1,0.7c-0.6,0.3-0.9,0.4-1.5,0.4C418.5,325.2,417.4,323.8,417.4,321.2z M421,320.7c0-1.9-0.6-3.2-1.4-3.2
		c-0.8,0-1.5,1.1-1.5,3.2H421z"/>
</g>
<rect x="361" y="148.3" class="st0" width="210.4" height="15.1"/>
<g>
	<path class="st0" d="M360.5,140.4v-6.8h0.6v6.8c0,1.7,0.8,2.7,2.1,2.7c1.3,0,2.1-0.9,2.1-2.6v-6.8h0.7v6.8c0,2.1-1.1,3.3-2.8,3.3
		C361.6,143.7,360.5,142.5,360.5,140.4z M362,131.9h0.8v1H362V131.9z M363.8,131.9h0.8v1h-0.8V131.9z"/>
	<path class="st0" d="M368,133.6h2.2c0.9,0,1.7,0.3,2.2,0.8c0.4,0.4,0.6,1,0.6,1.7v0c0,1.4-0.8,2.1-1.7,2.4c1.2,0.3,2,1,2,2.4v0
		c0,1.6-1.3,2.6-3.2,2.6H368V133.6z M372.3,136.1c0-1.2-0.8-1.9-2.2-1.9h-1.5v4h1.4C371.5,138.2,372.3,137.4,372.3,136.1
		L372.3,136.1z M370.1,138.8h-1.5v4.1h1.5c1.5,0,2.5-0.7,2.5-2v0C372.6,139.6,371.7,138.8,370.1,138.8z"/>
	<path class="st0" d="M374.9,133.6h4.6v0.6h-3.9v4h3.6v0.6h-3.6v4.1h4v0.6h-4.6V133.6z"/>
	<path class="st0" d="M381.1,133.6h2.2c1,0,1.8,0.3,2.3,0.8c0.5,0.5,0.8,1.2,0.8,2.1v0c0,1.5-0.9,2.5-2.1,2.8l2.3,4.2h-0.8l-2.2-4.1
		c-0.2,0-0.3,0-0.5,0h-1.3v4h-0.7V133.6z M383,138.9c2,0,2.7-1,2.7-2.3v0c0-1.5-0.9-2.3-2.4-2.3h-1.5v4.7H383z"/>
	<path class="st0" d="M391.5,135.5l-1.3,0.4l-0.2-1.8l2-0.6h1.3v10h-1.9V135.5z"/>
	<path class="st0" d="M394.7,145.1c1-0.2,1.3-0.8,1.2-1.5h-0.9v-2.1h2v1.7c0,1.6-0.8,2.5-2.3,2.7L394.7,145.1z"/>
	<path class="st0" d="M398.1,142.7l0.9-1.5c0.5,0.4,0.9,0.7,1.5,0.7c0.8,0,1.3-0.6,1.3-1.5v0c0-0.9-0.6-1.5-1.4-1.5
		c-0.4,0-0.7,0.1-1,0.3l-1-0.7l0.3-4.9h4.6v1.8h-3.1l-0.1,1.9c0.2-0.1,0.5-0.1,0.9-0.1c1.4,0,2.7,0.9,2.7,3.1v0
		c0,2.1-1.4,3.4-3.1,3.4C399.7,143.7,398.8,143.3,398.1,142.7z"/>
	<path class="st0" d="M407.5,133.6h1.9l1.7,3.8l1.7-3.8h1.9v9.9h-1.8v-6.2l-1.8,3.9h0l-1.8-3.9v6.2h-1.8V133.6z"/>
	<path class="st0" d="M416.2,133.6h1.9v9.9h-1.9V133.6z"/>
	<path class="st0" d="M419.7,133.6h1.9v8.2h2.9v1.8h-4.8V133.6z"/>
	<path class="st0" d="M425.5,133.6h1.9v8.2h2.9v1.8h-4.8V133.6z"/>
	<path class="st0" d="M431.4,133.6h1.9v9.9h-1.9V133.6z"/>
	<path class="st0" d="M436.9,133.6h1.9l2.7,10h-1.9l-0.5-2.1h-2.5l-0.5,2.1h-1.8L436.9,133.6z M438.6,139.8l-0.8-3.3l-0.8,3.3H438.6
		z"/>
	<path class="st0" d="M442.3,133.6h2.8c1,0,1.9,0.3,2.4,0.9c0.5,0.5,0.8,1.3,0.8,2.3v0.1c0,1.4-0.6,2.3-1.5,2.8l1.7,3.8h-2.1
		l-1.5-3.4h-0.8v3.4h-1.9V133.6z M444.9,138.5c1,0,1.5-0.6,1.5-1.6c0-1.1-0.6-1.6-1.6-1.6h-0.7v3.1H444.9z"/>
	<path class="st0" d="M449.5,133.6h2.4c2.6,0,4.1,1.8,4.1,4.9v0.2c0,3-1.5,4.9-4.1,4.9h-2.4V133.6z M451.4,135.3v6.5h0.5
		c1.3,0,2.2-1,2.2-3.2v-0.1c0-2.2-0.9-3.2-2.2-3.2H451.4z"/>
	<path class="st0" d="M457.2,133.6h5.1v1.8h-3.2v2.3h2.8v1.8h-2.8v2.4h3.3v1.8h-5.1V133.6z"/>
	<path class="st0" d="M463.6,133.6h1.7l2.8,5.4v-5.4h1.8v9.9h-1.6l-2.9-5.6v5.6h-1.8V133.6z"/>
	<path class="st0" d="M474,133.6h1.7l2.8,5.4v-5.4h1.8v9.9h-1.6l-2.9-5.6v5.6H474V133.6z"/>
	<path class="st0" d="M481.7,140.1v-6.5h1.9v6.6c0,1.1,0.5,1.7,1.2,1.7s1.2-0.5,1.2-1.7v-6.6h1.9v6.5c0,2.4-1.3,3.6-3.1,3.6
		C483,143.7,481.7,142.5,481.7,140.1z"/>
	<path class="st0" d="M490.8,135.4h-1.9v-1.8h5.6v1.8h-1.9v8.1h-1.9V135.4z"/>
	<path class="st0" d="M495.2,142.1l3.4-6.7h-3.3v-1.7h5.5v1.5l-3.4,6.7h3.4v1.7h-5.6V142.1z"/>
	<path class="st0" d="M502.1,133.6h5.1v1.8H504v2.3h2.8v1.8H504v2.4h3.3v1.8h-5.1V133.6z"/>
	<path class="st0" d="M508.5,133.6h2.8c1,0,1.9,0.3,2.4,0.9c0.5,0.5,0.8,1.3,0.8,2.3v0.1c0,1.4-0.6,2.3-1.5,2.8l1.7,3.8h-2.1
		l-1.5-3.4h-0.8v3.4h-1.9V133.6z M511.1,138.5c1,0,1.5-0.6,1.5-1.6c0-1.1-0.6-1.6-1.6-1.6h-0.7v3.1H511.1z"/>
	<path class="st0" d="M518.2,133.6h0.7l2,8.7l2-8.7h0.6l2,8.7l1.9-8.7h0.7l-2.3,10h-0.6l-2-8.7l-2,8.7h-0.6L518.2,133.6z"/>
	<path class="st0" d="M529.6,133.6h4.6v0.6h-3.9v4h3.6v0.6h-3.6v4.1h4v0.6h-4.6V133.6z"/>
	<path class="st0" d="M535.8,133.6h0.7v9.3h3.6v0.6h-4.2V133.6z"/>
	<path class="st0" d="M542.2,134.2H540v-0.6h5.1v0.6h-2.2v9.3h-0.7V134.2z"/>
	<path class="st0" d="M545.9,133.6h0.7l2,8.7l2-8.7h0.6l2,8.7l1.9-8.7h0.7l-2.3,10h-0.6l-2-8.7l-2,8.7h-0.6L545.9,133.6z"/>
	<path class="st0" d="M557.3,133.6h4.6v0.6h-3.9v4h3.6v0.6h-3.6v4.1h4v0.6h-4.6V133.6z"/>
	<path class="st0" d="M563.6,133.6h0.7v9.9h-0.7V133.6z"/>
	<path class="st0" d="M567.9,134.2h-2.2v-0.6h5.1v0.6h-2.2v9.3h-0.7V134.2z"/>
</g>
</svg>
