<?xml version="1.0" encoding="utf-8"?>
<!-- Generator: Adobe Illustrator 19.1.0, SVG Export Plug-In . SVG Version: 6.00 Build 0)  -->
<svg version="1.1" id="Ebene_1" xmlns="http://www.w3.org/2000/svg" xmlns:xlink="http://www.w3.org/1999/xlink" x="0px" y="0px"
	 viewBox="0 0 841.9 595.3" style="enable-background:new 0 0 841.9 595.3;" xml:space="preserve">
<style type="text/css">
	.st0{fill:#FFFFFF;}
	.st1{fill:none;}
</style>
<g>
	<path class="st0" d="M162.8,339.4h1.8l5.8,26.9h-1.7l-1.5-7.5h-6.8l-1.5,7.5H157L162.8,339.4z M166.8,357.3l-3.1-15.3l-3.1,15.3
		H166.8z"/>
	<path class="st0" d="M173.6,339.3h1.6v27.1h-1.6V339.3z"/>
	<path class="st0" d="M178.4,365.6V364c1.4,0.7,2.7,1.1,4,1.1c1.7,0,3-1.1,3-3V362c0-1.4-0.8-2.8-3.1-5.1c-2.9-2.8-3.9-4.4-3.9-6.4
		v-0.1c0-2.8,2.1-4.4,4.5-4.4c1.3,0,2.2,0.2,3.3,0.7v1.7c-1.1-0.6-2.2-0.8-3.3-0.8c-1.6,0-2.8,1.1-2.8,2.8v0.1
		c0,1.5,0.8,2.6,3.1,4.9c2.8,2.8,3.9,4.4,3.9,6.6v0.1c0,2.8-2.3,4.6-4.7,4.6C180.8,366.6,179.6,366.3,178.4,365.6z"/>
	<path class="st0" d="M195.3,346.3h1.7l3.2,17.4l3.3-17.4h1.4l3.3,17.4l3.2-17.4h1.5l-4.1,20.2h-1.4l-3.3-16.9l-3.3,16.9h-1.4
		L195.3,346.3z"/>
	<path class="st0" d="M214.6,356.7v-0.3c0-7,2.5-10.4,5.4-10.4c2.9,0,5.2,3.6,5.2,9.8v1.2h-9c0.1,5.4,2.3,8.1,4.9,8.1
		c1.2,0,2.1-0.3,3.4-1.2l0.2,1.6c-1.4,0.8-2.3,1.1-3.8,1.1C217.6,366.6,214.6,363.3,214.6,356.7z M223.6,355.6
		c0-4.6-1.5-8.1-3.6-8.1c-2.1,0-3.7,2.8-3.8,8.1H223.6z"/>
	<path class="st0" d="M228.7,339.3h1.6v27.1h-1.6V339.3z"/>
	<path class="st0" d="M235.1,363v-15.3h-1.9v-1.5h1.9v-5.7h1.6v5.7h3.2v1.5h-3.2v15c0,1.8,0.8,2.2,2.1,2.2c0.4,0,0.9-0.1,1.2-0.2
		v1.5c-0.4,0.2-0.9,0.2-1.4,0.2C236.5,366.5,235.1,365.6,235.1,363z"/>
	<path class="st0" d="M241.8,346.3h1.7l3.2,17.4l3.3-17.4h1.4l3.3,17.4l3.2-17.4h1.5l-4.1,20.2h-1.4l-3.3-16.9l-3.3,16.9h-1.4
		L241.8,346.3z"/>
	<path class="st0" d="M261.1,356.7v-0.3c0-7,2.5-10.4,5.4-10.4c2.9,0,5.2,3.6,5.2,9.8v1.2h-9c0.1,5.4,2.3,8.1,4.9,8.1
		c1.2,0,2.1-0.3,3.4-1.2l0.2,1.6c-1.4,0.8-2.3,1.1-3.8,1.1C264.1,366.6,261.1,363.3,261.1,356.7z M270.1,355.6
		c0-4.6-1.5-8.1-3.6-8.1c-2.1,0-3.7,2.8-3.8,8.1H270.1z"/>
	<path class="st0" d="M275.1,339.3h1.7v2.7h-1.7V339.3z M275.2,346.3h1.6v20.1h-1.6V346.3z"/>
	<path class="st0" d="M281.6,363v-15.3h-1.9v-1.5h1.9v-5.7h1.6v5.7h3.2v1.5h-3.2v15c0,1.8,0.8,2.2,2.1,2.2c0.4,0,0.9-0.1,1.2-0.2
		v1.5c-0.4,0.2-0.9,0.2-1.4,0.2C282.9,366.5,281.6,365.6,281.6,363z"/>
	<path class="st0" d="M294.4,356.6v-1c0-6.6,2.8-10.1,6.1-10.1c3.5,0,5.7,3.6,5.7,10.3v2.4h-7.4c0.3,3.2,1.6,4.3,3,4.3
		c1.4,0,2.2-0.6,3.5-1.5l0.3,4.1c-1.5,1-2.7,1.6-4.4,1.6C297.6,366.8,294.4,363.3,294.4,356.6z M302.1,354.6c0-3.4-0.5-5.1-1.5-5.1
		c-1,0-1.7,1.5-1.7,5.1H302.1z"/>
	<path class="st0" d="M308.1,345.8h4.4v2.6c0.6-1.8,1.5-2.9,3.2-2.8v5.4h-0.1c-2.1,0-3.2,1.5-3.2,4.4v11h-4.4V345.8z"/>
	<path class="st0" d="M316.9,365.8v-4.4c1.5,0.8,2.8,1.3,3.8,1.3c1.1,0,1.7-0.6,1.7-1.6c0-0.8-0.3-1.5-2.3-3.4c-2-2-3.4-3.9-3.4-6.5
		v-0.1c0-3.4,2.3-5.6,5.7-5.6c1.2,0,2.2,0.2,3.3,0.5v4.4c-0.9-0.5-2-0.9-3-0.9c-1.1,0-1.7,0.6-1.7,1.4c0,0.8,0.3,1.3,2.4,3.4
		c2.5,2.5,3.3,4.1,3.3,6.4v0.1c0,3.6-2.4,5.8-5.6,5.8C319.6,366.8,318.1,366.4,316.9,365.8z"/>
	<path class="st0" d="M328.5,362.8v-13.3h-1.2v-3.7h1.2v-5.3h4.4v5.3h2.4v3.7h-2.4v11.8c0,0.9,0.5,1.3,1.2,1.3
		c0.3,0,0.7-0.1,1.1-0.2v3.6c-0.7,0.4-1.7,0.7-2.6,0.7C330.5,366.6,328.5,366,328.5,362.8z"/>
	<path class="st0" d="M336.3,356.6v-1c0-6.6,2.8-10.1,6.1-10.1c3.5,0,5.7,3.6,5.7,10.3v2.4h-7.4c0.3,3.2,1.6,4.3,3,4.3
		c1.4,0,2.2-0.6,3.5-1.5l0.3,4.1c-1.5,1-2.7,1.6-4.4,1.6C339.4,366.8,336.3,363.3,336.3,356.6z M343.9,354.6c0-3.4-0.5-5.1-1.5-5.1
		c-1,0-1.7,1.5-1.7,5.1H343.9z"/>
	<path class="st0" d="M349.9,345.8h4.4v2.6c0.6-1.8,1.5-2.9,3.2-2.8v5.4h-0.1c-2.1,0-3.2,1.5-3.2,4.4v11h-4.4V345.8z"/>
	<path class="st0" d="M365.4,339.5h4.1c5,0,8.5,2.8,8.5,9v0.1c0,6.1-3.3,8.9-8,9.3h0v8.4h-4.6V339.5z M370,353.6
		c1.9-0.1,3.4-1.5,3.4-4.8v-0.1c0-3.4-1.3-4.9-3.3-4.9H370L370,353.6L370,353.6z"/>
	<path class="st0" d="M379.7,361.4v-15.6h4.4v14.5c0,1.5,0.6,2.3,1.5,2.3s1.5-0.8,1.5-2.3v-14.5h4.4v20.5h-4.4v-2.5
		c-0.8,1.6-1.8,2.8-3.6,2.8C381,366.8,379.7,364.5,379.7,361.4z"/>
	<path class="st0" d="M398.5,363.9v2.5H394v-27h4.4v9c0.6-1.2,1.6-3,3.5-3c2.4,0,4.3,2.3,4.3,9.7v1.8c0,7.3-1.9,9.7-4.3,9.7
		C400.1,366.8,399.2,365.1,398.5,363.9z M401.9,356.8v-1.4c0-3.7-0.5-5.6-1.7-5.6s-1.8,2-1.8,5.6v1.4c0,3.6,0.6,5.6,1.8,5.6
		S401.9,360.4,401.9,356.8z"/>
	<path class="st0" d="M408.5,339.4h4.4v27h-4.4V339.4z"/>
	<path class="st0" d="M415.5,339.4h4.5v4.5h-4.5V339.4z M415.5,345.8h4.4v20.5h-4.4V345.8z"/>
	<path class="st0" d="M421.9,365.8v-4.4c1.5,0.8,2.8,1.3,3.8,1.3c1.1,0,1.7-0.6,1.7-1.6c0-0.8-0.3-1.5-2.3-3.4c-2-2-3.4-3.9-3.4-6.5
		v-0.1c0-3.4,2.3-5.6,5.7-5.6c1.2,0,2.2,0.2,3.3,0.5v4.4c-0.9-0.5-2-0.9-3-0.9c-1.1,0-1.7,0.6-1.7,1.4c0,0.8,0.3,1.3,2.4,3.4
		c2.5,2.5,3.3,4.1,3.3,6.4v0.1c0,3.6-2.4,5.8-5.6,5.8C424.6,366.8,423.1,366.4,421.9,365.8z"/>
	<path class="st0" d="M433.1,339.4h4.4v8.9c0.8-1.6,1.8-2.8,3.6-2.8c2.6,0,3.9,2.2,3.9,5.4v15.6h-4.4v-14.5c0-1.5-0.6-2.3-1.5-2.3
		s-1.5,0.8-1.5,2.3v14.5h-4.4V339.4z"/>
	<path class="st0" d="M446.9,356.6v-1c0-6.6,2.8-10.1,6.1-10.1c3.5,0,5.7,3.6,5.7,10.3v2.4h-7.4c0.3,3.2,1.6,4.3,3,4.3
		c1.4,0,2.2-0.6,3.5-1.5l0.3,4.1c-1.5,1-2.7,1.6-4.4,1.6C450.1,366.8,446.9,363.3,446.9,356.6z M454.6,354.6c0-3.4-0.5-5.1-1.5-5.1
		c-1,0-1.7,1.5-1.7,5.1H454.6z"/>
	<path class="st0" d="M460.6,345.8h4.4v2.6c0.6-1.8,1.5-2.9,3.2-2.8v5.4h-0.1c-2.1,0-3.2,1.5-3.2,4.4v11h-4.4V345.8z"/>
	<path class="st0" d="M157,377.5h1.7l4.6,23.8l4.6-23.8h1.7l-5.5,27h-1.7L157,377.5z"/>
	<path class="st0" d="M172.9,377.2h1.7v2.7h-1.7V377.2z M172.9,384.2h1.6v20.1h-1.6V384.2z"/>
	<path class="st0" d="M177.9,394.6v-0.3c0-7,2.5-10.4,5.4-10.4c2.9,0,5.2,3.6,5.2,9.8v1.2h-9c0.1,5.4,2.3,8.1,4.9,8.1
		c1.2,0,2.1-0.3,3.4-1.2l0.2,1.6c-1.4,0.8-2.3,1.1-3.8,1.1C180.9,404.6,177.9,401.3,177.9,394.6z M187,393.5c0-4.6-1.5-8.1-3.6-8.1
		c-2.1,0-3.7,2.8-3.8,8.1H187z"/>
	<path class="st0" d="M192,377.2h1.6v27.1H192V377.2z"/>
	<path class="st0" d="M198.6,385.7h-2v-1.5h2v-2.3c0-1.7,0.4-3,1.2-3.7c0.6-0.7,1.5-1,2.7-1c0.3,0,0.9,0.1,1.2,0.2v1.6
		c-0.3-0.1-0.9-0.2-1.1-0.2c-1.5,0-2.3,1-2.3,3.2v2.3h3.2v1.5h-3.2v18.6h-1.6V385.7z"/>
	<path class="st0" d="M204.8,398.5v-0.3c0-3.7,1.9-6.4,5.2-6.4c1.4,0,2.4,0.3,3.3,0.8V390c0-2.8-1.2-4.4-3.8-4.4
		c-1.4,0-2.5,0.3-3.6,0.9v-1.6c1.1-0.5,2.3-0.9,3.7-0.9c1.6,0,2.9,0.5,3.8,1.5c0.8,0.8,1.4,2.4,1.4,4.3v14.6h-1.6v-2.9
		c-0.8,2-2.1,3.3-4,3.3C206.6,404.7,204.8,402,204.8,398.5z M213.3,398.1v-4c-1.1-0.5-2.1-0.8-3.2-0.8c-2.4,0-3.7,2.1-3.7,4.9v0.3
		c0,2.7,1.1,4.9,3.2,4.9C211.8,403.3,213.3,400.7,213.3,398.1z"/>
	<path class="st0" d="M217.9,394.5v-0.4c0-7,3-10.2,6-10.2c1,0,1.8,0.3,2.4,0.7v1.8c-0.7-0.5-1.5-0.9-2.4-0.9c-2,0-4.4,2.6-4.4,8.6
		v0.5c0,6.1,2.3,8.5,4.6,8.5c0.8,0,1.6-0.3,2.3-0.9v1.7c-0.6,0.5-1.4,0.8-2.4,0.8C220.8,404.6,217.9,401.5,217.9,394.5z"/>
	<path class="st0" d="M229.2,377.2h1.6v9.9c0.7-1.7,1.9-3.3,4.1-3.3c2.7,0,4.5,2.3,4.5,6.4v14.1h-1.6v-13.9c0-3.3-1.2-5.1-3.2-5.1
		c-2.1,0-3.8,2.2-3.8,5.4v13.6h-1.6V377.2z"/>
	<path class="st0" d="M242.4,394.6v-0.3c0-7,2.5-10.4,5.4-10.4c2.9,0,5.2,3.6,5.2,9.8v1.2h-9c0.1,5.4,2.3,8.1,4.9,8.1
		c1.2,0,2.1-0.3,3.4-1.2l0.2,1.6c-1.4,0.8-2.3,1.1-3.8,1.1C245.4,404.6,242.4,401.3,242.4,394.6z M251.5,393.5
		c0-4.6-1.5-8.1-3.6-8.1c-2.1,0-3.7,2.8-3.8,8.1H251.5z"/>
	<path class="st0" d="M261.8,377.3h4.4v8.9c0.8-1.6,1.8-2.8,3.6-2.8c2.6,0,3.9,2.2,3.9,5.4v15.6h-4.4v-14.5c0-1.5-0.6-2.3-1.5-2.3
		s-1.5,0.8-1.5,2.3v14.5h-4.4V377.3z"/>
	<path class="st0" d="M275.6,394.7v-1.2c0-6.6,2.6-10,6.2-10c3.6,0,6.2,3.4,6.2,10v1.2c0,6.6-2.6,10-6.2,10
		C278.3,404.7,275.6,401.3,275.6,394.7z M277.2,377.9h4v4.1h-4V377.9z M283.7,394.8v-1.4c0-4.1-0.7-5.9-1.8-5.9
		c-1.1,0-1.8,1.8-1.8,5.9v1.4c0,4,0.7,5.9,1.8,5.9C283,400.7,283.7,398.8,283.7,394.8z M282.6,377.9h4v4.1h-4V377.9z"/>
	<path class="st0" d="M290.2,377.3h4.4v8.9c0.8-1.6,1.8-2.8,3.6-2.8c2.6,0,3.9,2.2,3.9,5.4v15.6h-4.4v-14.5c0-1.5-0.6-2.3-1.5-2.3
		s-1.5,0.8-1.5,2.3v14.5h-4.4V377.3z"/>
	<path class="st0" d="M304,394.6v-1c0-6.6,2.8-10.1,6.1-10.1c3.5,0,5.7,3.6,5.7,10.3v2.4h-7.4c0.3,3.2,1.6,4.3,3,4.3
		c1.4,0,2.2-0.6,3.5-1.5l0.3,4.1c-1.5,1-2.7,1.6-4.4,1.6C307.2,404.7,304,401.2,304,394.6z M311.7,392.6c0-3.4-0.5-5.1-1.5-5.1
		c-1,0-1.7,1.5-1.7,5.1H311.7z"/>
	<path class="st0" d="M317.7,383.8h4.4v2.6c0.6-1.8,1.5-2.9,3.2-2.8v5.4h-0.1c-2.1,0-3.2,1.5-3.2,4.4v11h-4.4V383.8z"/>
	<path class="st0" d="M326,394.6v-1c0-6.6,2.8-10.1,6.1-10.1c3.5,0,5.7,3.6,5.7,10.3v2.4h-7.4c0.3,3.2,1.6,4.3,3,4.3
		c1.4,0,2.2-0.6,3.5-1.5l0.3,4.1c-1.5,1-2.7,1.6-4.4,1.6C329.2,404.7,326,401.2,326,394.6z M333.7,392.6c0-3.4-0.5-5.1-1.5-5.1
		c-1,0-1.7,1.5-1.7,5.1H333.7z"/>
	<path class="st0" d="M345.3,391.4v-0.9c0-9.4,3.4-13.1,7.7-13.1c1.3,0,2,0.2,3,0.6v4.8c-0.9-0.6-1.7-0.9-2.6-0.9
		c-2,0-3.5,1.8-3.5,8.5v1c0,7.1,1.5,8.5,3.6,8.5c0.7,0,1.6-0.3,2.6-0.8v4.6c-1.1,0.6-2.1,0.8-3.4,0.8
		C348.5,404.5,345.3,400.7,345.3,391.4z"/>
	<path class="st0" d="M360.8,382h-3.2v-4.4h11.1v4.4h-3.2v22.4h-4.6V382z"/>
	<path class="st0" d="M370.6,377.5h4.7c2.4,0,4.5,0.7,5.9,2.1c1.4,1.4,2.2,3.5,2.2,6.4v0.3c0,3.5-1.4,5.7-3.1,7.1l3.5,10.9H379
		l-3-9.4h-0.9v9.4h-4.6V377.5z M375.4,390.8c2,0,3.5-1.2,3.5-4.3v-0.3c0-3.4-1.6-4.3-3.6-4.3h-0.1v8.9H375.4z"/>
	<path class="st0" d="M391.4,398.5v-0.3c0-3.7,1.9-6.4,5.2-6.4c1.4,0,2.4,0.3,3.3,0.8V390c0-2.8-1.2-4.4-3.8-4.4
		c-1.4,0-2.5,0.3-3.6,0.9v-1.6c1.1-0.5,2.3-0.9,3.7-0.9c1.6,0,2.9,0.5,3.8,1.5c0.8,0.8,1.4,2.4,1.4,4.3v14.6h-1.6v-2.9
		c-0.8,2-2.1,3.3-4,3.3C393.3,404.7,391.4,402,391.4,398.5z M399.9,398.1v-4c-1.1-0.5-2.1-0.8-3.2-0.8c-2.4,0-3.7,2.1-3.7,4.9v0.3
		c0,2.7,1.1,4.9,3.2,4.9C398.5,403.3,399.9,400.7,399.9,398.1z"/>
	<path class="st0" d="M405.6,377.2h1.6v27.1h-1.6V377.2z"/>
	<path class="st0" d="M410.3,403.6v-1.7c1.4,0.7,2.7,1.1,4,1.1c1.7,0,3-1.1,3-3V400c0-1.4-0.8-2.8-3.1-5.1c-2.9-2.8-3.9-4.4-3.9-6.4
		v-0.1c0-2.8,2.1-4.4,4.5-4.4c1.3,0,2.2,0.2,3.3,0.7v1.7c-1.1-0.6-2.2-0.8-3.3-0.8c-1.6,0-2.8,1.1-2.8,2.8v0.1
		c0,1.5,0.8,2.6,3.1,4.9c2.8,2.8,3.9,4.4,3.9,6.6v0.1c0,2.8-2.3,4.6-4.7,4.6C412.7,404.6,411.6,404.2,410.3,403.6z"/>
	<path class="st0" d="M427.1,398.5v-0.3c0-3.7,1.9-6.4,5.2-6.4c1.4,0,2.4,0.3,3.3,0.8V390c0-2.8-1.2-4.4-3.8-4.4
		c-1.4,0-2.5,0.3-3.6,0.9v-1.6c1.1-0.5,2.3-0.9,3.7-0.9c1.6,0,2.9,0.5,3.8,1.5c0.8,0.8,1.4,2.4,1.4,4.3v14.6h-1.6v-2.9
		c-0.8,2-2.1,3.3-4,3.3C429,404.7,427.1,402,427.1,398.5z M435.6,398.1v-4c-1.1-0.5-2.1-0.8-3.2-0.8c-2.4,0-3.7,2.1-3.7,4.9v0.3
		c0,2.7,1.1,4.9,3.2,4.9C434.2,403.3,435.6,400.7,435.6,398.1z"/>
	<path class="st0" d="M440.9,398.3v-14.1h1.6v13.9c0,3.3,1.2,5.1,3.2,5.1c2.1,0,3.8-2.2,3.8-5.4v-13.6h1.6v20.1h-1.6v-3
		c-0.7,1.7-1.9,3.3-4.1,3.3C442.7,404.6,440.9,402.4,440.9,398.3z"/>
	<path class="st0" d="M455.8,385.7h-2v-1.5h2v-2.3c0-1.7,0.4-3,1.2-3.7c0.6-0.7,1.5-1,2.7-1c0.3,0,0.9,0.1,1.2,0.2v1.6
		c-0.3-0.1-0.9-0.2-1.1-0.2c-1.5,0-2.3,1-2.3,3.2v2.3h3.2v1.5h-3.2v18.6h-1.6V385.7z"/>
	<path class="st0" d="M468.3,398.5v-0.3c0-3.7,1.9-6.4,5.2-6.4c1.4,0,2.4,0.3,3.3,0.8V390c0-2.8-1.2-4.4-3.8-4.4
		c-1.4,0-2.5,0.3-3.6,0.9v-1.6c1.1-0.5,2.3-0.9,3.7-0.9c1.6,0,2.9,0.5,3.8,1.5c0.8,0.8,1.4,2.4,1.4,4.3v14.6h-1.6v-2.9
		c-0.8,2-2.1,3.3-4,3.3C470.2,404.7,468.3,402,468.3,398.5z M476.8,398.1v-4c-1.1-0.5-2.1-0.8-3.2-0.8c-2.4,0-3.7,2.1-3.7,4.9v0.3
		c0,2.7,1.1,4.9,3.2,4.9C475.4,403.3,476.8,400.7,476.8,398.1z"/>
	<path class="st0" d="M482.3,384.2h1.6v3c0.7-1.7,1.9-3.3,4.1-3.3c2.7,0,4.5,2.3,4.5,6.4v14.1h-1.6v-13.9c0-3.3-1.2-5.1-3.2-5.1
		c-2.1,0-3.8,2.2-3.8,5.4v13.6h-1.6V384.2z"/>
	<path class="st0" d="M495.5,394.6v-0.7c0-6.4,2.4-10,5.2-10c2,0,3.3,1.9,4.1,4.2v-10.8h1.6v27.1h-1.6v-3.9
		c-0.8,2.3-2.1,4.2-4.1,4.2C498,404.6,495.5,401.1,495.5,394.6z M504.9,394.8v-1c0-5.4-2-8.5-4-8.5c-2,0-3.8,3.1-3.8,8.6v0.7
		c0,5.5,1.7,8.6,3.8,8.6C502.9,403.2,504.9,400.2,504.9,394.8z"/>
	<path class="st0" d="M509.6,394.6v-0.3c0-7,2.5-10.4,5.4-10.4c2.9,0,5.2,3.6,5.2,9.8v1.2h-9c0.1,5.4,2.3,8.1,4.9,8.1
		c1.2,0,2.1-0.3,3.4-1.2l0.2,1.6c-1.4,0.8-2.3,1.1-3.8,1.1C512.6,404.6,509.6,401.3,509.6,394.6z M518.6,393.5
		c0-4.6-1.5-8.1-3.6-8.1c-2.1,0-3.7,2.8-3.8,8.1H518.6z"/>
	<path class="st0" d="M523.5,384.2h1.6v3c0.8-1.8,2.3-3.3,4.6-3.2v1.7h-0.1c-2.5,0-4.6,1.6-4.6,5.1v13.5h-1.6V384.2z"/>
	<path class="st0" d="M530.7,394.6v-0.3c0-7,2.5-10.4,5.4-10.4c2.9,0,5.2,3.6,5.2,9.8v1.2h-9c0.1,5.4,2.3,8.1,4.9,8.1
		c1.2,0,2.1-0.3,3.4-1.2l0.2,1.6c-1.4,0.8-2.3,1.1-3.8,1.1C533.7,404.6,530.7,401.3,530.7,394.6z M539.8,393.5
		c0-4.6-1.5-8.1-3.6-8.1c-2.1,0-3.7,2.8-3.8,8.1H539.8z"/>
	<path class="st0" d="M544.6,384.2h1.6v3c0.7-1.7,1.9-3.3,4.1-3.3c2.7,0,4.5,2.3,4.5,6.4v14.1h-1.6v-13.9c0-3.3-1.2-5.1-3.2-5.1
		c-2.1,0-3.8,2.2-3.8,5.4v13.6h-1.6V384.2z"/>
	<path class="st0" d="M564.9,377.5h3.3c4.7,0,7.6,3.3,7.6,8.4v0.1c0,5.1-2.7,8.5-7.7,8.5h-1.5v9.9h-1.7V377.5z M568.2,393
		c3.8,0,5.9-2.6,5.9-7v-0.1c0-4.4-2.3-6.9-6-6.9h-1.5V393H568.2z"/>
	<path class="st0" d="M578.7,377.2h1.6v27.1h-1.6V377.2z"/>
	<path class="st0" d="M583.6,398.5v-0.3c0-3.7,1.9-6.4,5.2-6.4c1.4,0,2.4,0.3,3.3,0.8V390c0-2.8-1.2-4.4-3.8-4.4
		c-1.4,0-2.5,0.3-3.6,0.9v-1.6c1.1-0.5,2.3-0.9,3.7-0.9c1.6,0,2.9,0.5,3.8,1.5c0.8,0.8,1.4,2.4,1.4,4.3v14.6h-1.6v-2.9
		c-0.8,2-2.1,3.3-4,3.3C585.4,404.7,583.6,402,583.6,398.5z M592.1,398.1v-4c-1.1-0.5-2.1-0.8-3.2-0.8c-2.4,0-3.7,2.1-3.7,4.9v0.3
		c0,2.7,1.1,4.9,3.2,4.9C590.6,403.3,592.1,400.7,592.1,398.1z"/>
	<path class="st0" d="M597.9,401v-15.3H596v-1.5h1.9v-5.7h1.6v5.7h3.2v1.5h-3.2v15c0,1.8,0.8,2.2,2.1,2.2c0.4,0,0.9-0.1,1.2-0.2v1.5
		c-0.4,0.2-0.9,0.2-1.4,0.2C599.3,404.5,597.9,403.5,597.9,401z"/>
	<path class="st0" d="M606.2,401v-15.3h-1.9v-1.5h1.9v-5.7h1.6v5.7h3.2v1.5h-3.2v15c0,1.8,0.8,2.2,2.1,2.2c0.4,0,0.9-0.1,1.2-0.2
		v1.5c-0.4,0.2-0.9,0.2-1.4,0.2C607.5,404.5,606.2,403.5,606.2,401z"/>
	<path class="st0" d="M614.8,385.7h-2v-1.5h2v-2.3c0-1.7,0.4-3,1.2-3.7c0.6-0.7,1.5-1,2.7-1c0.3,0,0.9,0.1,1.2,0.2v1.6
		c-0.3-0.1-0.9-0.2-1.1-0.2c-1.5,0-2.3,1-2.3,3.2v2.3h3.2v1.5h-3.2v18.6h-1.6V385.7z"/>
	<path class="st0" d="M620.9,394.5v-0.3c0-6.3,2.7-10.2,5.6-10.2c3,0,5.6,3.9,5.6,10.2v0.3c0,6.3-2.6,10.2-5.6,10.2
		C623.6,404.6,620.9,400.8,620.9,394.5z M630.5,394.5v-0.3c0-5.3-1.8-8.7-4-8.7s-4,3.4-4,8.7v0.3c0,5.3,1.8,8.7,4,8.7
		S630.5,399.7,630.5,394.5z"/>
	<path class="st0" d="M635.3,384.2h1.6v3c0.8-1.8,2.3-3.3,4.6-3.2v1.7h-0.1c-2.5,0-4.6,1.6-4.6,5.1v13.5h-1.6V384.2z"/>
	<path class="st0" d="M644.1,384.2h1.6v3c0.7-1.7,1.8-3.3,3.9-3.3c2.1,0,3.3,1.5,3.9,3.4c0.7-1.6,2-3.4,4.4-3.4
		c2.7,0,4.5,2.2,4.5,6.3v14.1h-1.6v-14c0-3.3-1.2-5.1-3.1-5.1c-2,0-3.6,2.1-3.6,5.4v13.7h-1.6v-14c0-3.3-1.2-5.1-3.1-5.1
		c-2,0-3.6,2.1-3.6,5.4v13.7h-1.6V384.2z"/>
	<path class="st0" d="M665.5,394.6v-0.3c0-7,2.5-10.4,5.4-10.4c2.9,0,5.2,3.6,5.2,9.8v1.2h-9c0.1,5.4,2.3,8.1,4.9,8.1
		c1.2,0,2.1-0.3,3.4-1.2l0.2,1.6c-1.4,0.8-2.3,1.1-3.8,1.1C668.4,404.6,665.5,401.3,665.5,394.6z M674.5,393.5
		c0-4.6-1.5-8.1-3.6-8.1c-2.1,0-3.7,2.8-3.8,8.1H674.5z"/>
	<path class="st0" d="M679.3,384.2h1.6v3c0.7-1.7,1.9-3.3,4.1-3.3c2.7,0,4.5,2.3,4.5,6.4v14.1h-1.6v-13.9c0-3.3-1.2-5.1-3.2-5.1
		c-2.1,0-3.8,2.2-3.8,5.4v13.6h-1.6V384.2z"/>
</g>
<g>
	<polygon class="st0" points="220.1,183.9 235.1,183.9 235.1,310.8 220.1,310.8 220.1,183.9 	"/>
	<g>
		<path class="st0" d="M185.8,183.9h-29.5l0,126.9l29.4,0c3.6,0,6.5-3.1,6.5-6.8l0-52.3v-2.8c0-4-3.1-7.2-6.9-7.2l0.7,0
			c3.4,0,6.2-2.9,6.2-6.5v-4.2v-40.3C192.3,186.9,189.4,183.9,185.8,183.9z M177.4,295.1h-6.1v-43.8h6.1V295.1z M177.4,235.7h-6.1
			v-36.2h6.1V235.7z"/>
		<rect x="171.3" y="199.6" class="st1" width="6.1" height="36.2"/>
		<rect x="171.3" y="251.3" class="st1" width="6.1" height="43.8"/>
	</g>
	<g>
		<path class="st0" d="M262.5,183.9V206H248c-3.6,0-6.4,3.1-6.5,6.8l0,91.1c0,3.8,2.9,6.8,6.5,6.8l29.4,0V183.9H262.5z M262.5,295.1
			h-6.1v-73.6h6.1V295.1z"/>
		<rect x="256.4" y="221.5" class="st1" width="6.1" height="73.6"/>
	</g>
	<polygon class="st0" points="198.8,183.9 213.7,183.9 213.7,199.6 198.8,199.6 198.8,183.9 	"/>
	<polygon class="st0" points="198.8,206 213.7,206 213.7,310.8 198.8,310.8 198.8,206 	"/>
</g>
<g>
	<path class="st0" d="M286.4,184.8h7.7l5.9,17.3v-17.3h7.7v38.3h-7.4l-6.2-18.2v18.2h-7.7V184.8z"/>
	<path class="st0" d="M310.6,211.7v-26.9h8.1v27.5c0,2.7,0.9,3.8,2.3,3.8c1.3,0,2.3-1.1,2.3-3.8v-27.5h8.1v26.8
		c0,8.4-4.5,12.1-10.4,12.1C315,223.8,310.6,220.1,310.6,211.7z"/>
	<path class="st0" d="M338.3,192.7h-4.9v-7.8h17.9v7.8h-4.9v30.5h-8.1V192.7z"/>
	<path class="st0" d="M352.8,216.5l8.4-23.9h-8.2v-7.8h17.1v6.7l-8.4,23.9h8.4v7.8h-17.4V216.5z"/>
	<path class="st0" d="M376.7,192.7h-4.9v-7.8h17.9v7.8h-4.9v30.5h-8.1V192.7z"/>
	<path class="st0" d="M286.4,228.6h15.6v7.8h-7.6v7.6h6.7v7.7h-6.7v15.3h-8.1V228.6z"/>
	<path class="st0" d="M308.1,228.4h9.2l7.1,38.4h-8.1l-1-6.9h-5.6l-1,6.9h-7.8L308.1,228.4z M314.4,253l-1.8-12l-1.8,12H314.4z"/>
	<path class="st0" d="M324.3,248.7v-1.9c0-13.5,5.9-18.7,12.4-18.7c2.1,0,3.4,0.3,4.9,1v8.3c-1.5-0.9-2.7-1.4-4.1-1.4
		c-2.7,0-5,2.3-5,10.9v1.4c0,9,2.1,10.9,5.2,10.9c1.2,0,2.4-0.4,4-1.4v7.9c-1.6,1-3.2,1.5-5.6,1.5
		C329.6,267.3,324.3,261.6,324.3,248.7z"/>
	<path class="st0" d="M344.4,228.6h16.3v7.8h-8.2v7.4h7.3v7.7h-7.3v7.6h8.4v7.8h-16.4V228.6z"/>
	<path class="st0" d="M363.3,228.6h7.4c4,0,7.8,0.9,10.1,3.2c1.6,1.6,2.5,3.8,2.5,6.7v0.4c0,4.3-2.4,7-5,8.3
		c2.8,1.4,5.5,3.8,5.5,8.4v0.5c0,7.2-5.3,10.7-12.9,10.7h-7.6V228.6z M375.4,240c0-2.8-1.6-3.9-4-3.9h-0.3v8.2h0.3
		C373.8,244.3,375.4,243,375.4,240L375.4,240z M371.6,250.9h-0.4v8.4h0.4c2.4,0,4.2-1.4,4.2-4.1V255
		C375.8,252.3,374,250.9,371.6,250.9z"/>
	<path class="st0" d="M385.3,248.9v-2.4c0-12.5,4.3-18.7,11.1-18.7c6.8,0,11.1,6.2,11.1,18.7v2.4c0,12.4-4.3,18.7-11.1,18.7
		C389.6,267.6,385.3,261.3,385.3,248.9z M399.2,249v-2.6c0-9-1.1-11-2.8-11c-1.8,0-2.9,2-2.9,11v2.6c0,9,1.1,11,2.9,11
		C398.2,260,399.2,258,399.2,249z"/>
	<path class="st0" d="M409.4,248.9v-2.4c0-12.5,4.3-18.7,11.1-18.7c6.8,0,11.1,6.2,11.1,18.7v2.4c0,12.4-4.3,18.7-11.1,18.7
		C413.7,267.6,409.4,261.3,409.4,248.9z M423.4,249v-2.6c0-9-1.1-11-2.8-11s-2.9,2-2.9,11v2.6c0,9,1.1,11,2.9,11
		S423.4,258,423.4,249z"/>
	<path class="st0" d="M434.1,228.6h8.1v14.6l4.5-14.6h8.4l-5.9,16.2l6.1,22.1h-8.5l-3.4-13.5l-1.2,3.5v10h-8.1V228.6z"/>
	<path class="st0" d="M286.4,272.3h7.8l4.5,12.8l4.4-12.8h7.8v38.3h-7.8v-20.5l-4.4,12.5h-0.1l-4.5-12.5v20.5h-7.7V272.3z"/>
	<path class="st0" d="M313.9,272.3h16.3v7.8h-8.2v7.4h7.3v7.7h-7.3v7.6h8.4v7.8h-16.4V272.3z"/>
	<path class="st0" d="M332.4,309.1v-8.2c2.3,1.4,4.5,2.3,6.6,2.3c1.9,0,3.1-1,3.1-2.8v-0.1c0-1.2-0.8-2.6-3.3-5.1
		c-4.8-4.6-6.9-7.3-6.9-12.4v-0.2c0-6.6,4.4-10.8,10.1-10.8c2.8,0,4.9,0.6,6.7,1.4v8.3c-2.1-1.3-4-1.9-5.9-1.9c-1.7,0-2.8,1-2.8,2.7
		v0.1c0,1.4,0.8,2.4,3.3,5c5.1,5.1,6.9,7.7,6.9,12.6v0.2c0,6.5-4.6,10.8-10.2,10.8C337.1,311,334.4,310.2,332.4,309.1z"/>
	<path class="st0" d="M351.4,309.1v-8.2c2.3,1.4,4.5,2.3,6.6,2.3c1.9,0,3.1-1,3.1-2.8v-0.1c0-1.2-0.8-2.6-3.3-5.1
		c-4.8-4.6-6.9-7.3-6.9-12.4v-0.2c0-6.6,4.4-10.8,10.1-10.8c2.8,0,4.9,0.6,6.7,1.4v8.3c-2.1-1.3-4-1.9-5.9-1.9c-1.7,0-2.8,1-2.8,2.7
		v0.1c0,1.4,0.8,2.4,3.3,5c5.1,5.1,6.9,7.7,6.9,12.6v0.2c0,6.5-4.6,10.8-10.2,10.8C356.1,311,353.4,310.2,351.4,309.1z"/>
	<path class="st0" d="M371.1,272.3h16.3v7.8h-8.2v7.4h7.3v7.7h-7.3v7.6h8.4v7.8h-16.4V272.3z"/>
	<path class="st0" d="M390,272.3h7.7l5.9,17.3v-17.3h7.7v38.3H404l-6.2-18.2v18.2H390V272.3z"/>
	<path class="st0" d="M413.8,292.5v-2.2c0-12.3,5.8-18.6,13.4-18.6c2.6,0,4.5,0.5,6.1,1.4v8.3c-1.8-1.1-3.6-1.9-5.5-1.9
		c-3.5,0-5.9,3.2-5.9,10.6v2.6c0,8.9,2.5,10.9,4.7,10.9c0.3,0,0.4-0.1,0.6-0.1v-8.2h-2.8v-7.2h10.2v20.8c-2.5,1.3-5.1,2.2-8.1,2.2
		C419.4,311.1,413.8,305.4,413.8,292.5z"/>
	<path class="st0" d="M437.5,272.3h16.3v7.8h-8.2v7.4h7.3v7.7h-7.3v7.6h8.4v7.8h-16.4V272.3z"/>
	<path class="st0" d="M456.4,272.3h8.1c3.8,0,7,1,9.2,3.2c2,2.1,3.2,5,3.2,9.2v0.5c0,5.3-2,8.3-4.4,10.2l5,15.2h-8.6l-3.8-12.5h-0.6
		v12.5h-8V272.3z M464.7,291.2c2.3,0,4-1.5,4-5.4V285c0-4.1-1.7-5.4-4-5.4h-0.2v11.6H464.7z"/>
</g>
<g>
	<path class="st0" d="M489.5,301.8c0-6,1.8-11.1,6.6-12.5v2.6c-2.5,1.3-3.4,5.2-3.4,9.9c0,4.8,0.9,8.6,3.4,9.9v2.6
		C491.3,312.9,489.5,307.8,489.5,301.8z"/>
	<path class="st0" d="M496.9,289.8h3.6l1.5,12.6l1.8-12.6h3.3l1.7,12.6l1.5-12.6h3.5l-3,20.6H507l-1.7-12.2l-1.7,12.2H500
		L496.9,289.8z"/>
	<path class="st0" d="M514.8,289.6h3.4v6.8c0.6-1.2,1.4-2.2,2.7-2.2c2,0,3,1.7,3,4.1v11.9h-3.4v-11.1c0-1.1-0.4-1.8-1.1-1.8
		c-0.7,0-1.2,0.6-1.2,1.8v11.1h-3.4V289.6z"/>
	<path class="st0" d="M525.2,305.9v-0.5c0-3.5,1.4-5,3.4-5c0.7,0,1.4,0.2,2,0.6v-0.9c0-1.6-0.7-2.5-2.2-2.5c-0.9,0-1.8,0.4-2.6,0.7
		v-3.3c1-0.5,2.2-0.7,3.1-0.7c1.7,0,2.8,0.4,3.6,1.3c0.9,0.9,1.4,2.3,1.4,4.2v10.4h-3.4v-1.7c-0.6,1.3-1.4,1.9-2.5,1.9
		C526.4,310.5,525.2,308.8,525.2,305.9z M530.6,306.1v-2.7c-0.3-0.1-0.8-0.3-1.1-0.3c-0.7,0-1.2,0.6-1.2,2.1v0.4c0,1.6,0.5,2,1.1,2
		C530.1,307.6,530.6,307.1,530.6,306.1z"/>
	<path class="st0" d="M536.1,307.6v-10.2h-0.9v-2.8h0.9v-4h3.4v4h1.8v2.8h-1.8v9c0,0.7,0.3,1,0.9,1c0.3,0,0.5-0.1,0.8-0.2v2.8
		c-0.5,0.3-1.3,0.5-2,0.5C537.6,310.5,536.1,309.9,536.1,307.6z"/>
	<path class="st0" d="M542.2,309.8v-3.4c1.2,0.6,2.1,1,2.9,1c0.8,0,1.3-0.5,1.3-1.3c0-0.6-0.3-1.1-1.7-2.6c-1.6-1.6-2.6-3-2.6-5
		v-0.1c0-2.6,1.8-4.3,4.4-4.3c0.9,0,1.7,0.1,2.5,0.4v3.4c-0.7-0.4-1.5-0.7-2.3-0.7c-0.8,0-1.3,0.4-1.3,1.1c0,0.6,0.3,1,1.8,2.6
		c1.9,1.9,2.5,3.1,2.5,4.9v0.1c0,2.7-1.9,4.5-4.3,4.5C544.3,310.6,543.2,310.3,542.2,309.8z"/>
	<path class="st0" d="M550.3,305.9v-0.5c0-3.5,1.4-5,3.4-5c0.7,0,1.4,0.2,2,0.6v-0.9c0-1.6-0.7-2.5-2.2-2.5c-0.9,0-1.8,0.4-2.6,0.7
		v-3.3c1-0.5,2.2-0.7,3.1-0.7c1.7,0,2.8,0.4,3.6,1.3c0.9,0.9,1.4,2.3,1.4,4.2v10.4h-3.4v-1.7c-0.6,1.3-1.4,1.9-2.5,1.9
		C551.5,310.5,550.3,308.8,550.3,305.9z M555.8,306.1v-2.7c-0.3-0.1-0.8-0.3-1.1-0.3c-0.7,0-1.2,0.6-1.2,2.1v0.4c0,1.6,0.5,2,1.1,2
		C555.2,307.6,555.8,307.1,555.8,306.1z"/>
	<path class="st0" d="M560.9,294.6h3.4v2c0.5-0.9,1.2-2.3,2.7-2.3c1.8,0,3.3,1.8,3.3,7.4v1.4c0,5.6-1.4,7.4-3.3,7.4
		c-1.5,0-2.2-1.3-2.7-2.2v5.7h-3.4V294.6z M566.9,302.9v-1.1c0-2.8-0.4-4.3-1.3-4.3c-0.9,0-1.4,1.5-1.4,4.3v1.1
		c0,2.8,0.5,4.3,1.4,4.3C566.5,307.3,566.9,305.7,566.9,302.9z"/>
	<path class="st0" d="M572,294.6h3.4v2c0.5-0.9,1.2-2.3,2.7-2.3c1.8,0,3.3,1.8,3.3,7.4v1.4c0,5.6-1.4,7.4-3.3,7.4
		c-1.5,0-2.2-1.3-2.7-2.2v5.7H572V294.6z M577.9,302.9v-1.1c0-2.8-0.4-4.3-1.3-4.3c-0.9,0-1.4,1.5-1.4,4.3v1.1
		c0,2.8,0.5,4.3,1.4,4.3C577.5,307.3,577.9,305.7,577.9,302.9z"/>
	<path class="st0" d="M583.2,299.4h7.4v3.5h-7.4V299.4z"/>
	<path class="st0" d="M592.8,289.8h3.5v8.8l2.9-8.8h3.9l-3.4,8.7l3.4,11.8h-3.8l-2.2-7.9l-0.8,2.3v5.6h-3.5V289.8z"/>
	<path class="st0" d="M603.5,302.9V302c0-5,2-7.7,4.8-7.7s4.8,2.6,4.8,7.7v0.9c0,5-2,7.7-4.8,7.7S603.5,308,603.5,302.9z M609.7,303
		v-1.1c0-3.1-0.5-4.5-1.4-4.5s-1.4,1.4-1.4,4.5v1.1c0,3,0.5,4.5,1.4,4.5S609.7,306,609.7,303z"/>
	<path class="st0" d="M614.7,294.6h3.4v1.9c0.6-1.2,1.4-2.2,2.7-2.2c2,0,3,1.7,3,4.1v11.9h-3.4v-11.1c0-1.1-0.4-1.8-1.1-1.8
		c-0.7,0-1.2,0.6-1.2,1.8v11.1h-3.4V294.6z"/>
	<path class="st0" d="M625.6,289.6h3.4v11.1l2.2-6.2h3.6l-2.6,6.4l2.5,9.4H631l-1.4-6L629,306v4.3h-3.4V289.6z"/>
	<path class="st0" d="M635.6,306.5v-11.9h3.4v11.1c0,1.1,0.4,1.8,1.1,1.8c0.7,0,1.2-0.6,1.2-1.8v-11.1h3.4v15.7h-3.4v-1.9
		c-0.6,1.2-1.4,2.2-2.7,2.2C636.6,310.6,635.6,308.9,635.6,306.5z"/>
	<path class="st0" d="M646.6,294.6h3.4v2c0.5-1.3,1.2-2.2,2.5-2.1v4.2h-0.1c-1.6,0-2.4,1.1-2.4,3.3v8.4h-3.4V294.6z"/>
	<path class="st0" d="M653.8,294.6h3.4v2c0.5-1.3,1.2-2.2,2.5-2.1v4.2h-0.1c-1.6,0-2.4,1.1-2.4,3.3v8.4h-3.4V294.6z"/>
	<path class="st0" d="M660.2,302.8v-0.8c0-5,2.1-7.7,4.7-7.7c2.7,0,4.4,2.7,4.4,7.9v1.8h-5.7c0.2,2.5,1.2,3.3,2.3,3.3
		c1,0,1.7-0.4,2.7-1.1l0.3,3.2c-1.2,0.8-2.1,1.2-3.4,1.2C662.6,310.6,660.2,307.9,660.2,302.8z M666.1,301.3c0-2.6-0.4-3.9-1.2-3.9
		c-0.8,0-1.3,1.1-1.3,3.9H666.1z"/>
	<path class="st0" d="M670.6,294.6h3.4v1.9c0.6-1.2,1.4-2.2,2.7-2.2c2,0,3,1.7,3,4.1v11.9h-3.4v-11.1c0-1.1-0.4-1.8-1.1-1.8
		c-0.7,0-1.2,0.6-1.2,1.8v11.1h-3.4V294.6z"/>
	<path class="st0" d="M680.9,307.8l4.1-10.3h-3.9v-2.9h7.5v2.5l-4.1,10.3h4.1v2.9h-7.7V307.8z"/>
	<path class="st0" d="M689.7,311.8c2.5-1.3,3.4-5.2,3.4-9.9c0-4.7-0.9-8.6-3.4-9.9v-2.6c4.8,1.4,6.6,6.5,6.6,12.5
		c0,6-1.8,11.1-6.6,12.5V311.8z"/>
</g>
<rect x="156" y="317.9" class="st0" width="548.1" height="11.4"/>
</svg>
