<?xml version="1.0" encoding="utf-8"?>
<!-- Generator: Adobe Illustrator 19.1.0, SVG Export Plug-In . SVG Version: 6.00 Build 0)  -->
<svg version="1.1" id="Ebene_1" xmlns="http://www.w3.org/2000/svg" xmlns:xlink="http://www.w3.org/1999/xlink" x="0px" y="0px"
	 viewBox="0 0 841.9 595.3" style="enable-background:new 0 0 841.9 595.3;" xml:space="preserve">
<style type="text/css">
	.st0{fill:#FFFFFF;}
	.st1{fill:none;}
</style>
<g>
	<path class="st0" d="M560.8,415.3l-4.9,1.5v-10l7.8-2.5h7.2v48.4h-10.1V415.3z"/>
	<path class="st0" d="M574.3,430.1v-3c0-16,4.8-23.5,13.3-23.5c8.4,0,13.2,7.4,13.2,23.5v3c0,16-4.9,23.5-13.2,23.5
		C579.1,453.6,574.3,446.1,574.3,430.1z M590.7,430.6v-4.1c0-11.4-1.3-13.4-3.2-13.4c-1.9,0-3.2,2.1-3.2,13.4v4.1
		c0,11.3,1.3,13.4,3.2,13.4C589.5,444,590.7,441.9,590.7,430.6z"/>
	<path class="st0" d="M603.4,418.1v-1.2c0-8.5,3.1-12.9,7.8-12.9s7.9,4.3,7.9,12.9v1.2c0,8.4-3.2,12.8-7.9,12.8
		C606.5,430.9,603.4,426.6,603.4,418.1z M630,404.5h5.4l-11.5,24.6l-10.7,23.6h-5.4l11.5-24.6L630,404.5z M609.5,416.4v2.2
		c0,4.9,0.5,6.3,1.8,6.3s1.8-1.4,1.8-6.3v-2.2c0-4.9-0.6-6.3-1.8-6.3S609.5,411.5,609.5,416.4z M623.9,440.3V439
		c0-8.4,3.2-12.9,7.8-12.9c4.7,0,7.9,4.3,7.9,12.9v1.2c0,8.5-3.2,12.9-7.9,12.9S623.9,448.7,623.9,440.3z M633.6,440.8v-2.2
		c0-4.9-0.6-6.3-1.8-6.3s-1.8,1.4-1.8,6.3v2.2c0,4.9,0.5,6.3,1.8,6.3S633.6,445.6,633.6,440.8z"/>
</g>
<g>
	<path class="st0" d="M559.1,475.3v-0.4c0-2.7,1-3.8,2.6-3.8c0.5,0,1,0.2,1.5,0.4v-0.7c0-1.2-0.6-1.9-1.6-1.9
		c-0.7,0-1.4,0.3-1.9,0.6v-2.5c0.8-0.4,1.7-0.5,2.3-0.5c1.3,0,2.1,0.3,2.7,1c0.7,0.7,1,1.8,1,3.2v7.9h-2.6v-1.3
		c-0.5,1-1.1,1.5-1.9,1.5C560.1,478.8,559.1,477.5,559.1,475.3z M563.3,475.5v-2c-0.2-0.1-0.6-0.2-0.8-0.2c-0.5,0-0.9,0.4-0.9,1.6
		v0.3c0,1.2,0.3,1.5,0.8,1.5C562.9,476.6,563.3,476.2,563.3,475.5z"/>
	<path class="st0" d="M567.2,462.9h2.6v15.7h-2.6V462.9z"/>
	<path class="st0" d="M571.3,462.9h2.6v15.7h-2.6V462.9z"/>
	<path class="st0" d="M575,473v-0.6c0-3.8,1.6-5.9,3.6-5.9c2,0,3.3,2.1,3.3,6v1.4h-4.3c0.2,1.9,0.9,2.5,1.8,2.5
		c0.8,0,1.3-0.3,2.1-0.9l0.2,2.4c-0.9,0.6-1.6,0.9-2.6,0.9C576.9,478.8,575,476.8,575,473z M579.5,471.8c0-2-0.3-3-0.9-3
		c-0.6,0-1,0.8-1,3H579.5z"/>
	<path class="st0" d="M582.9,466.7h2.6v1.5c0.3-1,0.9-1.7,1.9-1.6v3.2h0c-1.2,0-1.8,0.8-1.8,2.5v6.4h-2.6V466.7z"/>
	<path class="st0" d="M591.9,463h2.3c1.6,0,3.1,0.4,4,1.3c0.7,0.7,1,1.5,1,2.6v0.1c0,2-1.1,3-2.2,3.5c1.3,0.6,2.4,1.5,2.4,3.5v0.2
		c0,2.8-2.1,4.3-5.1,4.3h-2.4V463z M596.6,467.5c0-1.4-0.8-1.9-2-1.9h0v4h0C595.8,469.6,596.6,468.9,596.6,467.5L596.6,467.5z
		 M594.6,471.9L594.6,471.9l-0.1,4.2h0.1c1.2,0,2.1-0.7,2.1-2V474C596.7,472.7,595.8,471.9,594.6,471.9z"/>
	<path class="st0" d="M600.5,463h2.7v15.6h-2.7V463z"/>
	<path class="st0" d="M604.8,463h2.7v13h2.8v2.6h-5.5V463z"/>
	<path class="st0" d="M611.4,463h2.5c3.4,0,5.3,2.5,5.3,7.5v0.5c0,5-1.9,7.5-5.3,7.5h-2.5V463z M614,465.5v10.6h0.1
		c1.3,0,2.4-1.1,2.4-5v-0.5c0-3.9-1.1-5-2.4-5H614z"/>
	<path class="st0" d="M620.6,470.4h5.6v2.7h-5.6V470.4z"/>
	<path class="st0" d="M629.5,463h2.8l2.9,15.6h-2.7l-0.5-3.1h-2.4l-0.5,3.1h-2.6L629.5,463z M631.7,473.1l-0.8-5.1l-0.8,5.1H631.7z"
		/>
	<path class="st0" d="M636,466.7h2.6v1.5c0.3-1,0.9-1.7,1.9-1.6v3.2h0c-1.2,0-1.8,0.8-1.8,2.5v6.4H636V466.7z"/>
	<path class="st0" d="M641.8,476.6v-7.7h-0.7v-2.1h0.7v-3h2.6v3h1.4v2.1h-1.4v6.8c0,0.5,0.3,0.7,0.7,0.7c0.2,0,0.4,0,0.6-0.1v2.1
		c-0.4,0.2-1,0.4-1.5,0.4C642.9,478.8,641.8,478.4,641.8,476.6z"/>
	<path class="st0" d="M646.8,462.9h2.6v2.6h-2.6V462.9z M646.8,466.7h2.6v11.9h-2.6V466.7z"/>
	<path class="st0" d="M650.8,462.9h2.6v8.4l1.7-4.7h2.8l-2,4.8l1.9,7.1h-2.8l-1-4.6l-0.5,1.3v3.3h-2.6V462.9z"/>
	<path class="st0" d="M658.2,473v-0.6c0-3.8,1.6-5.9,3.6-5.9c2,0,3.3,2.1,3.3,6v1.4h-4.3c0.2,1.9,0.9,2.5,1.8,2.5
		c0.8,0,1.3-0.3,2.1-0.9l0.2,2.4c-0.9,0.6-1.6,0.9-2.6,0.9C660.1,478.8,658.2,476.8,658.2,473z M662.7,471.8c0-2-0.3-3-0.9-3
		c-0.6,0-1,0.8-1,3H662.7z"/>
	<path class="st0" d="M666.2,462.9h2.6v15.7h-2.6V462.9z"/>
	<path class="st0" d="M559.5,485.4h0.9l1.7,9.3l1.8-9.3h0.8l1.7,9.3l1.7-9.3h0.8l-2.2,10.8h-0.8l-1.8-9l-1.7,9h-0.8L559.5,485.4z"/>
	<path class="st0" d="M569.8,491v-0.2c0-3.7,1.3-5.5,2.9-5.5c1.6,0,2.7,1.9,2.7,5.3v0.6h-4.8c0,2.9,1.2,4.3,2.6,4.3
		c0.6,0,1.1-0.2,1.8-0.6l0.1,0.9c-0.7,0.4-1.2,0.6-2,0.6C571.4,496.3,569.8,494.5,569.8,491z M574.6,490.4c0-2.5-0.8-4.3-1.9-4.3
		c-1.1,0-2,1.5-2,4.3H574.6z"/>
	<path class="st0" d="M577.2,485.4h0.8v1.6c0.4-1,1.2-1.8,2.5-1.7v0.9h0c-1.3,0-2.4,0.9-2.4,2.7v7.2h-0.8V485.4z"/>
	<path class="st0" d="M581.1,491v-0.4c0-3.4,1.3-5.3,2.7-5.3c1.1,0,1.8,1,2.2,2.2v-5.8h0.8v14.5H586v-2.1c-0.4,1.2-1.1,2.2-2.2,2.2
		C582.4,496.3,581.1,494.4,581.1,491z M586.1,491v-0.5c0-2.9-1.1-4.5-2.1-4.5c-1.1,0-2,1.7-2,4.6v0.3c0,2.9,0.9,4.6,2,4.6
		C585,495.6,586.1,493.9,586.1,491z"/>
	<path class="st0" d="M588.6,491v-0.2c0-3.7,1.3-5.5,2.9-5.5c1.6,0,2.7,1.9,2.7,5.3v0.6h-4.8c0,2.9,1.2,4.3,2.6,4.3
		c0.6,0,1.1-0.2,1.8-0.6l0.1,0.9c-0.7,0.4-1.2,0.6-2,0.6C590.2,496.3,588.6,494.5,588.6,491z M593.4,490.4c0-2.5-0.8-4.3-1.9-4.3
		c-1.1,0-2,1.5-2,4.3H593.4z"/>
	<path class="st0" d="M596,485.4h0.8v1.6c0.4-0.9,1-1.7,2.2-1.7c1.4,0,2.4,1.2,2.4,3.4v7.5h-0.8v-7.4c0-1.8-0.6-2.7-1.7-2.7
		c-1.1,0-2,1.2-2,2.9v7.3H596V485.4z"/>
	<path class="st0" d="M606.3,493v-0.2c0-2,1-3.4,2.8-3.4c0.7,0,1.3,0.2,1.8,0.4v-1.3c0-1.5-0.7-2.4-2-2.4c-0.7,0-1.3,0.1-1.9,0.5
		v-0.8c0.6-0.3,1.2-0.5,2-0.5c0.8,0,1.5,0.2,2,0.8c0.4,0.4,0.8,1.3,0.8,2.3v7.8h-0.8v-1.6c-0.4,1.1-1.1,1.7-2.1,1.7
		C607.2,496.3,606.3,494.9,606.3,493z M610.8,492.8v-2.1c-0.6-0.3-1.1-0.4-1.7-0.4c-1.3,0-2,1.1-2,2.6v0.2c0,1.5,0.6,2.6,1.7,2.6
		C610,495.6,610.8,494.2,610.8,492.8z"/>
	<path class="st0" d="M613.6,492.9v-7.5h0.8v7.4c0,1.8,0.6,2.7,1.7,2.7c1.1,0,2-1.2,2-2.9v-7.3h0.8v10.7h-0.8v-1.6
		c-0.4,0.9-1,1.7-2.2,1.7C614.6,496.3,613.6,495.1,613.6,492.9z"/>
	<path class="st0" d="M620.6,495.8v-0.9c0.7,0.4,1.5,0.6,2.1,0.6c0.9,0,1.6-0.6,1.6-1.6v0c0-0.8-0.4-1.5-1.7-2.7
		c-1.6-1.5-2.1-2.4-2.1-3.4v0c0-1.5,1.1-2.4,2.4-2.4c0.7,0,1.2,0.1,1.7,0.3v0.9c-0.6-0.3-1.2-0.4-1.8-0.4c-0.9,0-1.5,0.6-1.5,1.5v0
		c0,0.8,0.4,1.4,1.7,2.6c1.5,1.5,2.1,2.4,2.1,3.5v0c0,1.5-1.2,2.4-2.5,2.4C621.9,496.3,621.3,496.1,620.6,495.8z"/>
	<path class="st0" d="M626.8,498.4v-0.9c0.8,0.3,1.7,0.5,2.3,0.5c1.4,0,2.2-0.7,2.2-2.2v-2.5c-0.4,1.2-1.1,2.2-2.2,2.2
		c-1.4,0-2.7-1.8-2.7-5.1v-0.2c0-3.3,1.3-5.1,2.7-5.1c1.1,0,1.8,1,2.2,2.2v-2.1h0.8v10.4c0,1-0.3,1.7-0.7,2.2
		c-0.5,0.5-1.3,0.8-2.3,0.8C628.4,498.9,627.5,498.7,626.8,498.4z M631.4,490.5v-0.2c0-2.7-1.1-4.3-2.1-4.3c-1,0-2,1.5-2,4.3v0.1
		c0,2.8,1,4.3,2,4.3C630.2,494.8,631.4,493.3,631.4,490.5z"/>
	<path class="st0" d="M633.9,491v-0.2c0-3.7,1.3-5.5,2.9-5.5c1.6,0,2.7,1.9,2.7,5.3v0.6h-4.8c0,2.9,1.2,4.3,2.6,4.3
		c0.6,0,1.1-0.2,1.8-0.6l0.1,0.9c-0.7,0.4-1.2,0.6-2,0.6C635.5,496.3,633.9,494.5,633.9,491z M638.7,490.4c0-2.5-0.8-4.3-1.9-4.3
		c-1.1,0-2,1.5-2,4.3H638.7z"/>
	<path class="st0" d="M640.7,495.8v-0.9c0.7,0.4,1.5,0.6,2.1,0.6c0.9,0,1.6-0.6,1.6-1.6v0c0-0.8-0.4-1.5-1.7-2.7
		c-1.6-1.5-2.1-2.4-2.1-3.4v0c0-1.5,1.1-2.4,2.4-2.4c0.7,0,1.2,0.1,1.7,0.3v0.9c-0.6-0.3-1.2-0.4-1.8-0.4c-0.9,0-1.5,0.6-1.5,1.5v0
		c0,0.8,0.4,1.4,1.7,2.6c1.5,1.5,2.1,2.4,2.1,3.5v0c0,1.5-1.2,2.4-2.5,2.4C642,496.3,641.4,496.1,640.7,495.8z"/>
	<path class="st0" d="M646.9,485.4h0.8v2.1c0.4-1.2,1.1-2.2,2.2-2.2c1.4,0,2.7,1.9,2.7,5.3v0.4c0,3.4-1.3,5.3-2.7,5.3
		c-1.1,0-1.8-1-2.2-2.2v4.7h-0.8V485.4z M651.8,491v-0.3c0-2.9-0.9-4.6-2-4.6c-1.1,0-2.1,1.6-2.1,4.5v0.5c0,2.9,1.1,4.5,2.1,4.5
		C650.9,495.6,651.8,493.9,651.8,491z"/>
	<path class="st0" d="M654.5,481.7h0.9v1.4h-0.9V481.7z M654.5,485.4h0.8v10.7h-0.8V485.4z"/>
	<path class="st0" d="M657.2,491v-0.2c0-3.7,1.3-5.5,2.9-5.5c1.6,0,2.7,1.9,2.7,5.3v0.6H658c0,2.9,1.2,4.3,2.6,4.3
		c0.6,0,1.1-0.2,1.8-0.6l0.1,0.9c-0.7,0.4-1.2,0.6-2,0.6C658.8,496.3,657.2,494.5,657.2,491z M662,490.4c0-2.5-0.8-4.3-1.9-4.3
		c-1.1,0-2,1.5-2,4.3H662z"/>
	<path class="st0" d="M664.7,481.7h0.8v14.5h-0.8V481.7z"/>
	<path class="st0" d="M668.1,494.4v-8.1h-1v-0.8h1v-3h0.8v3h1.7v0.8H669v8c0,0.9,0.4,1.2,1.1,1.2c0.2,0,0.5,0,0.6-0.1v0.8
		c-0.2,0.1-0.5,0.1-0.7,0.1C668.9,496.2,668.1,495.7,668.1,494.4z"/>
</g>
<g>
	<path class="st0" d="M165.2,204.1v-1.3c1.2,0.8,2.2,1.2,3.1,1.2c1.5,0,2.5-1,2.5-2.6v-0.1c0-1.5-0.5-2.4-2.5-5.1
		c-2.3-3.2-2.9-4.2-2.9-5.8v-0.1c0-2.1,1.5-3.7,3.5-3.7c1,0,1.8,0.3,2.7,0.8v1.3c-1-0.7-1.8-1-2.7-1c-1.4,0-2.3,1-2.3,2.5v0.1
		c0,1.3,0.5,2.3,2.5,4.9c2.1,2.8,2.9,4.2,2.9,6.1v0.1c0,2.3-1.5,3.8-3.6,3.8C167.2,205.1,166.2,204.7,165.2,204.1z"/>
	<path class="st0" d="M174.5,202.6v-10.3h-1.3v-1h1.3v-3.8h1.1v3.8h2.1v1h-2.1v10.1c0,1.2,0.5,1.5,1.4,1.5c0.3,0,0.6-0.1,0.8-0.1v1
		c-0.3,0.1-0.6,0.2-0.9,0.2C175.4,204.9,174.5,204.3,174.5,202.6z"/>
	<path class="st0" d="M179.1,200.9v-0.2c0-2.5,1.3-4.3,3.5-4.3c0.9,0,1.6,0.2,2.2,0.5v-1.7c0-1.9-0.8-3-2.5-3
		c-0.9,0-1.7,0.2-2.5,0.6v-1.1c0.7-0.4,1.6-0.6,2.5-0.6c1.1,0,1.9,0.3,2.6,1c0.6,0.6,1,1.6,1,2.9v9.8h-1.1v-2
		c-0.5,1.3-1.4,2.2-2.7,2.2C180.4,205.1,179.1,203.3,179.1,200.9z M184.8,200.6v-2.7c-0.7-0.3-1.4-0.5-2.2-0.5
		c-1.6,0-2.5,1.4-2.5,3.3v0.2c0,1.8,0.7,3.3,2.1,3.3C183.9,204.1,184.8,202.4,184.8,200.6z"/>
	<path class="st0" d="M188.5,191.3h1.1v2c0.5-1.2,1.5-2.2,3.1-2.1v1.2h-0.1c-1.7,0-3.1,1.1-3.1,3.5v9.1h-1.1V191.3z"/>
	<path class="st0" d="M194.8,202.6v-10.3h-1.3v-1h1.3v-3.8h1.1v3.8h2.1v1h-2.1v10.1c0,1.2,0.5,1.5,1.4,1.5c0.3,0,0.6-0.1,0.8-0.1v1
		c-0.3,0.1-0.6,0.2-0.9,0.2C195.7,204.9,194.8,204.3,194.8,202.6z"/>
	<path class="st0" d="M205.1,190.1l-1.8,0.6v-3.2l2.7-0.9h2.2v18.2h-3.1V190.1z"/>
	<path class="st0" d="M209.7,204.6v-3c0.7,0.3,1.3,0.5,2.2,0.5c1.2,0,2.2-0.9,2.2-2.6v-0.2c0-1.9-1.2-2.7-3.1-2.8v-2.1l2.9-4.6h-4
		v-3.1h7.1v2.8l-3,4.7c1.8,0.6,3.1,1.9,3.1,4.8v0.3c0,3.6-2,5.7-4.8,5.7C211.2,205.1,210.4,204.9,209.7,204.6z"/>
	<path class="st0" d="M218.6,201.3h3.5v3.6h-3.5V201.3z"/>
	<path class="st0" d="M227.5,204.7v-3.1c0.5,0.2,1,0.3,1.5,0.3c1,0,1.6-0.5,1.6-1.9v-13.3h3.1v13.5c0,1.6-0.4,2.8-1.2,3.6
		c-0.7,0.7-1.8,1.1-3.1,1.1C228.7,205,228.1,204.9,227.5,204.7z"/>
	<path class="st0" d="M235.3,201.5V191h3v9.8c0,1,0.4,1.6,1,1.6s1-0.6,1-1.6V191h3v13.8h-3v-1.6c-0.5,1.1-1.2,1.9-2.4,1.9
		C236.2,205.1,235.3,203.6,235.3,201.5z"/>
	<path class="st0" d="M245,186.7h3v18.2h-3V186.7z"/>
	<path class="st0" d="M249.7,186.7h3v3h-3V186.7z M249.7,191h3v13.8h-3V191z"/>
	<path class="st0" d="M258.1,202.2l3.2-6.9c1-2.2,1.3-3.1,1.3-4c0-0.9-0.5-1.7-1.7-1.7c-0.9,0-1.7,0.4-2.5,0.9v-3
		c0.8-0.4,1.8-0.9,3.2-0.9c2.4,0,4,1.5,4,4.2v0.1c0,1.4-0.3,2.8-1.4,4.9l-2.9,5.9h4.1v3.1h-7.4V202.2z"/>
	<path class="st0" d="M268.2,190.1l-1.8,0.6v-3.2l2.7-0.9h2.2v18.2h-3.1V190.1z"/>
	<path class="st0" d="M273,196.3v-1c0-6.2,1.5-8.8,4.4-8.8c2.8,0,4.4,2.5,4.4,8.8v1c0,6.2-1.6,8.8-4.4,8.8
		C274.5,205.1,273,202.6,273,196.3z M278.7,196.3v-0.9c0-5.1-0.6-5.9-1.3-5.9c-0.7,0-1.3,0.8-1.3,5.9v0.9c0,5.1,0.6,5.9,1.3,5.9
		C278.1,202.2,278.7,201.4,278.7,196.3z"/>
	<path class="st0" d="M283.1,204.6v-3.1c0.6,0.3,1.3,0.5,2,0.5c1.4,0,2.2-1.2,2.2-3.1v-0.2c0-1.9-0.7-2.6-1.7-2.6
		c-0.5,0-0.8,0.1-1.2,0.3l-1.5-1l0.5-8.6h6.3v3h-4l-0.2,3.7c0.3-0.1,0.7-0.1,1.2-0.1c1.9,0,3.7,1.4,3.7,5.4v0.2c0,3.9-2,6.1-5,6.1
		C284.5,205.1,283.6,204.9,283.1,204.6z"/>
	<path class="st0" d="M296.2,191.3h1.1v2c0.5-1.1,1.2-2.2,2.7-2.2c1.4,0,2.2,1,2.6,2.3c0.5-1.1,1.3-2.3,2.9-2.3c1.8,0,3,1.5,3,4.2
		v9.5h-1.1v-9.4c0-2.2-0.8-3.4-2.1-3.4c-1.4,0-2.5,1.4-2.5,3.6v9.2h-1.1v-9.4c0-2.2-0.8-3.4-2.1-3.4c-1.4,0-2.5,1.4-2.5,3.6v9.2
		h-1.1V191.3z"/>
	<path class="st0" d="M311.2,186.6h1.2v1.8h-1.2V186.6z M311.3,191.3h1.1v13.5h-1.1V191.3z"/>
	<path class="st0" d="M315.6,202.6v-10.3h-1.3v-1h1.3v-3.8h1.1v3.8h2.1v1h-2.1v10.1c0,1.2,0.5,1.5,1.4,1.5c0.3,0,0.6-0.1,0.8-0.1v1
		c-0.3,0.1-0.6,0.2-0.9,0.2C316.5,204.9,315.6,204.3,315.6,202.6z"/>
</g>
<g>
	<path class="st0" d="M510.6,390.5c1-0.4,1.4-1,1.3-2h-0.7v-2.1h1.6v1.8c0,1.6-0.5,2.3-1.9,2.9L510.6,390.5z"/>
	<path class="st0" d="M518.9,381.9v-0.5c0-4.3,1.6-6.7,3.5-6.7c1.3,0,2.2,1.3,2.8,2.8v-7.3h1.1v18.2h-1.1v-2.6
		c-0.5,1.5-1.4,2.8-2.8,2.8C520.6,388.7,518.9,386.3,518.9,381.9z M525.2,382v-0.6c0-3.6-1.4-5.7-2.7-5.7c-1.4,0-2.5,2.1-2.5,5.8
		v0.4c0,3.7,1.2,5.8,2.5,5.8C523.9,387.7,525.2,385.7,525.2,382z"/>
	<path class="st0" d="M528.4,381.9v-0.2c0-4.7,1.7-7,3.6-7c2,0,3.5,2.4,3.5,6.6v0.8h-6c0,3.7,1.5,5.5,3.3,5.5c0.8,0,1.4-0.2,2.3-0.8
		l0.1,1.1c-0.9,0.5-1.5,0.7-2.6,0.7C530.4,388.6,528.4,386.4,528.4,381.9z M534.5,381.2c0-3.1-1-5.5-2.4-5.5c-1.4,0-2.5,1.9-2.6,5.5
		H534.5z"/>
	<path class="st0" d="M537.7,374.9h1.1v2c0.5-1.1,1.2-2.2,2.7-2.2c1.4,0,2.2,1,2.6,2.3c0.5-1.1,1.3-2.3,2.9-2.3c1.8,0,3,1.5,3,4.2
		v9.5h-1.1v-9.4c0-2.2-0.8-3.4-2.1-3.4c-1.4,0-2.5,1.4-2.5,3.6v9.2h-1.1v-9.4c0-2.2-0.8-3.4-2.1-3.4c-1.4,0-2.5,1.4-2.5,3.6v9.2
		h-1.1V374.9z"/>
	<path class="st0" d="M555.9,381.9v-0.7c0-4.4,1.9-6.8,4.1-6.8c2.3,0,3.8,2.4,3.8,6.9v1.6h-5c0.2,2.2,1.1,2.9,2,2.9
		c0.9,0,1.5-0.4,2.4-1l0.2,2.8c-1,0.7-1.8,1.1-3,1.1C558,388.7,555.9,386.4,555.9,381.9z M561.1,380.6c0-2.3-0.3-3.4-1-3.4
		c-0.7,0-1.1,1-1.2,3.4H561.1z"/>
	<path class="st0" d="M565.1,374.7h3v1.7c0.4-1.2,1-2,2.2-1.9v3.7h0c-1.4,0-2.1,1-2.1,2.9v7.4h-3V374.7z"/>
	<path class="st0" d="M571,388.1v-3c1,0.5,1.9,0.9,2.6,0.9c0.7,0,1.1-0.4,1.1-1.1c0-0.6-0.2-1-1.5-2.3c-1.4-1.4-2.3-2.6-2.3-4.4
		v-0.1c0-2.3,1.5-3.7,3.8-3.7c0.8,0,1.5,0.1,2.2,0.4v3c-0.6-0.3-1.3-0.6-2-0.6c-0.7,0-1.1,0.4-1.1,1c0,0.5,0.2,0.9,1.6,2.3
		c1.7,1.6,2.2,2.8,2.2,4.3v0.1c0,2.4-1.6,3.9-3.8,3.9C572.9,388.7,571.9,388.5,571,388.1z"/>
	<path class="st0" d="M578.8,386.1v-9H578v-2.5h0.8v-3.5h3v3.5h1.6v2.5h-1.6v7.9c0,0.6,0.3,0.9,0.8,0.9c0.2,0,0.5-0.1,0.7-0.2v2.4
		c-0.5,0.3-1.2,0.5-1.8,0.5C580.2,388.6,578.8,388.2,578.8,386.1z"/>
	<path class="st0" d="M584,381.9v-0.7c0-4.4,1.9-6.8,4.1-6.8c2.4,0,3.8,2.4,3.8,6.9v1.6h-5c0.2,2.2,1.1,2.9,2,2.9
		c0.9,0,1.5-0.4,2.4-1l0.2,2.8c-1,0.7-1.8,1.1-3,1.1C586.2,388.7,584,386.4,584,381.9z M589.2,380.6c0-2.3-0.3-3.4-1-3.4
		c-0.7,0-1.1,1-1.2,3.4H589.2z"/>
	<path class="st0" d="M593.2,374.7h3v1.6c0.5-1.1,1.2-1.9,2.4-1.9c1.7,0,2.6,1.5,2.6,3.6v10.5h-3v-9.8c0-1-0.4-1.6-1-1.6
		s-1,0.6-1,1.6v9.8h-3V374.7z"/>
	<path class="st0" d="M610.7,370.4h1.2l3.9,18.1h-1.2l-1-5H609l-1,5h-1.1L610.7,370.4z M613.4,382.4l-2.1-10.3l-2.1,10.3H613.4z"/>
	<path class="st0" d="M617.8,374.9h1.1v2c0.5-1.2,1.5-2.2,3.1-2.1v1.2H622c-1.7,0-3.1,1.1-3.1,3.5v9.1h-1.1V374.9z"/>
	<path class="st0" d="M624.2,386.2v-10.3h-1.3v-1h1.3v-3.8h1.1v3.8h2.1v1h-2.1V386c0,1.2,0.5,1.5,1.4,1.5c0.3,0,0.6-0.1,0.8-0.1v1
		c-0.3,0.1-0.6,0.2-0.9,0.2C625.1,388.6,624.2,387.9,624.2,386.2z"/>
	<path class="st0" d="M629.5,370.3h1.2v1.8h-1.2V370.3z M629.6,374.9h1.1v13.5h-1.1V374.9z"/>
	<path class="st0" d="M633.5,370.3h1.1v12.2l3.8-7.5h1.2l-3,5.4l3.2,8.1h-1.2l-2.7-7l-1.4,2.6v4.4h-1.1V370.3z"/>
	<path class="st0" d="M640.7,381.9v-0.2c0-4.7,1.7-7,3.6-7c2,0,3.5,2.4,3.5,6.6v0.8h-6c0.1,3.7,1.5,5.5,3.3,5.5
		c0.8,0,1.4-0.2,2.3-0.8l0.1,1.1c-0.9,0.5-1.5,0.7-2.6,0.7C642.7,388.6,640.7,386.4,640.7,381.9z M646.8,381.2c0-3.1-1-5.5-2.4-5.5
		c-1.4,0-2.5,1.9-2.6,5.5H646.8z"/>
	<path class="st0" d="M650.2,370.3h1.1v18.2h-1.1V370.3z"/>
</g>
<g>
	<polygon class="st0" points="201.9,96.4 211,96.4 211,174.1 201.9,174.1 201.9,96.4 	"/>
	<g>
		<path class="st0" d="M180.9,96.4h-18l0,77.7l18,0c2.2,0,4-1.9,4-4.2l0-32v-1.7c0-2.4-1.9-4.4-4.2-4.4l0.4,0c2.1,0,3.8-1.8,3.8-4
			v-2.6v-24.7C184.8,98.3,183.1,96.4,180.9,96.4z M175.7,164.5H172v-26.8h3.8V164.5z M175.7,128.1H172V106h3.8V128.1z"/>
		<rect x="172" y="106" class="st1" width="3.8" height="22.1"/>
		<rect x="172" y="137.7" class="st1" width="3.8" height="26.8"/>
	</g>
	<g>
		<path class="st0" d="M227.8,96.4v13.5h-8.9c-2.2,0-3.9,1.9-3.9,4.2l0,55.8c0,2.3,1.8,4.2,4,4.2l18,0V96.4H227.8z M227.8,164.5
			h-3.7v-45h3.7V164.5z"/>
		<rect x="224.1" y="119.4" class="st1" width="3.7" height="45"/>
	</g>
	<polygon class="st0" points="188.8,96.4 197.9,96.4 197.9,106 188.8,106 188.8,96.4 	"/>
	<polygon class="st0" points="188.8,109.9 197.9,109.9 197.9,174.1 188.8,174.1 188.8,109.9 	"/>
</g>
<g>
	<path class="st0" d="M245.5,141.2V140c0-9,3.8-12.6,9.1-12.6c2.1,0,3.7,0.5,5.4,1.5v-1.6c0-3.7-1.7-5.5-5.2-5.5c-2.5,0-5.3,1-7.2,2
		v-10c2.8-1.2,6-1.8,9.5-1.8c4.3,0,7.6,1.2,9.8,3.4c2.4,2.4,3.6,6.2,3.6,11.1v26.1H260v-3.8c-1.6,2.9-3.7,4.5-6.6,4.5
		C248.9,153.1,245.5,148.8,245.5,141.2z M260,141.5v-6.1c-0.6-0.3-1.6-0.7-2.3-0.7c-1.5,0-2.5,1.5-2.5,4.5v1.5c0,3.1,1,4.3,2.3,4.3
		C258.8,145,260,143.9,260,141.5z"/>
	<path class="st0" d="M273.7,143.2v-30.7h10.6v27.8c0,2.1,0.8,3.3,2.2,3.3c1.3,0,2.2-1.3,2.2-3.3v-27.8h10.6v39.9h-10.6v-4.6
		c-1.4,2.8-3.6,5.4-7.3,5.4C276.3,153.2,273.7,149.1,273.7,143.2z"/>
	<path class="st0" d="M304.2,121.1h-2.2v-8.6h2.2v-1.8c0-3.7,0.9-6.3,2.7-8.2c1.8-1.8,4.5-2.7,7.8-2.7c2,0,3.3,0.1,4.5,0.4v8.4
		c-0.4-0.1-1-0.1-1.5-0.1c-1.9,0-3,1-3,3v1h4.6v8.6h-4.4v31.3h-10.6V121.1z"/>
	<path class="st0" d="M332.4,100.7h10.9v51.7h-10.9V100.7z"/>
	<path class="st0" d="M347.3,112.4h10.6v4.6c1.4-2.8,3.6-5.4,7.3-5.4c5.1,0,7.7,4.1,7.7,10v30.7h-10.6v-27.8c0-2.1-0.8-3.2-2.2-3.2
		c-1.3,0-2.2,1.2-2.2,3.2v27.8h-10.6V112.4z"/>
	<path class="st0" d="M375.6,151v-10.3c3.1,1.8,6,3,8,3c1.6,0,2.5-1,2.5-2.3v-0.1c0-1.3-0.6-2.1-3.6-4.9c-4.1-3.7-7.3-7-7.3-13.1
		v-0.1c0-7.1,4.9-11.4,11.8-11.4c2.9,0,5.1,0.4,7.6,1.3v10.3c-2.3-1.3-4.8-2.1-6.8-2.1c-1.6,0-2.5,0.8-2.5,2v0.1
		c0,1.2,0.9,2.1,3.8,4.8c4.3,3.9,7.2,7.1,7.2,13.1v0.1c0,7.2-5,11.9-11.5,11.9C381.7,153.2,378.3,152.4,375.6,151z"/>
	<path class="st0" d="M399.1,144.7v-23.6h-2.2v-8.6h2.2v-9.7h10.6v9.7h4.4v8.6h-4.4v20.3c0,1.4,0.7,2.1,2,2.1c0.7,0,1.4-0.2,2.3-0.6
		v8.6c-1.7,0.9-4,1.6-6.2,1.6C403,153,399.1,151.1,399.1,144.7z"/>
	<path class="st0" d="M415.7,141.2V140c0-9,3.8-12.6,9.1-12.6c2.1,0,3.7,0.5,5.4,1.5v-1.6c0-3.7-1.7-5.5-5.2-5.5c-2.5,0-5.3,1-7.2,2
		v-10c2.8-1.2,6-1.8,9.5-1.8c4.3,0,7.6,1.2,9.8,3.4c2.4,2.4,3.6,6.2,3.6,11.1v26.1h-10.5v-3.8c-1.6,2.9-3.7,4.5-6.6,4.5
		C419,153.1,415.7,148.8,415.7,141.2z M430.1,141.5v-6.1c-0.6-0.3-1.6-0.7-2.3-0.7c-1.5,0-2.5,1.5-2.5,4.5v1.5c0,3.1,1,4.3,2.3,4.3
		C428.9,145,430.1,143.9,430.1,141.5z"/>
	<path class="st0" d="M444.1,112.4h10.6v4.6c1.4-2.8,3.6-5.4,7.3-5.4c5.1,0,7.7,4.1,7.7,10v30.7h-10.6v-27.8c0-2.1-0.8-3.2-2.2-3.2
		c-1.3,0-2.2,1.2-2.2,3.2v27.8h-10.6V112.4z"/>
	<path class="st0" d="M474.1,144.7v-23.6h-2.2v-8.6h2.2v-9.7h10.6v9.7h4.4v8.6h-4.4v20.3c0,1.4,0.7,2.1,2,2.1c0.7,0,1.4-0.2,2.3-0.6
		v8.6c-1.7,0.9-4,1.6-6.2,1.6C478,153,474.1,151.1,474.1,144.7z"/>
	<path class="st0" d="M510.2,100.6h12.5l9.6,51.8h-10.9l-1.4-9.3h-7.6l-1.4,9.3h-10.6L510.2,100.6z M518.7,133.6l-2.4-16.2
		l-2.5,16.2H518.7z"/>
	<path class="st0" d="M533.9,112.4h10.5v5.5c1.2-4,3-6.3,6.2-6.1v12.9h-0.2c-4.1,0-5.9,2.7-5.9,8.3v19.3h-10.6V112.4z"/>
	<path class="st0" d="M554.3,144.7v-23.6h-2.2v-8.6h2.2v-9.7h10.6v9.7h4.4v8.6h-4.4v20.3c0,1.4,0.7,2.1,2,2.1c0.7,0,1.4-0.2,2.3-0.6
		v8.6c-1.7,0.9-4,1.6-6.2,1.6C558.2,153,554.3,151.1,554.3,144.7z"/>
	<path class="st0" d="M572,100h10.7v9.4H572V100z M572.1,112.4h10.6v39.9h-10.6V112.4z"/>
	<path class="st0" d="M585.9,133.8v-2.9c0-12.6,5.8-19.3,13.5-19.3c2.8,0,4.4,0.4,6.4,1.3v10.5c-1.6-1-2.9-1.5-4.6-1.5
		c-2.8,0-4.7,2.6-4.7,9.3v2.4c0,6.7,1.9,9.3,4.9,9.3c1.4,0,2.9-0.7,4.5-1.6v10.2c-2,1.2-3.9,1.8-6.6,1.8
		C591,153.3,585.9,146.5,585.9,133.8z"/>
	<path class="st0" d="M609,100h10.6v52.4H609V100z"/>
	<path class="st0" d="M622.7,133.6v-2.4c0-12.8,5.7-19.7,13.2-19.7c7.5,0,12.3,6.9,12.3,20.1v5.4h-15.1c0.5,4.7,2.7,6.4,5.7,6.4
		c2.7,0,5.2-1.2,7.8-2.9l0.7,9.6c-2.9,1.8-6.2,3.1-10.1,3.1C628.7,153.3,622.7,146.6,622.7,133.6z M638.4,129.6
		c0-6.3-0.9-8.7-2.6-8.7c-1.6,0-2.7,1.9-2.8,8.7H638.4z"/>
	<path class="st0" d="M650.2,151v-10.3c3.1,1.8,6,3,8,3c1.6,0,2.5-1,2.5-2.3v-0.1c0-1.3-0.6-2.1-3.6-4.9c-4.1-3.7-7.3-7-7.3-13.1
		v-0.1c0-7.1,4.9-11.4,11.8-11.4c2.9,0,5.1,0.4,7.6,1.3v10.3c-2.3-1.3-4.8-2.1-6.8-2.1c-1.6,0-2.5,0.8-2.5,2v0.1
		c0,1.2,0.9,2.1,3.8,4.8c4.3,3.9,7.2,7.1,7.2,13.1v0.1c0,7.2-5,11.9-11.5,11.9C656.3,153.2,652.9,152.4,650.2,151z"/>
</g>
<g>
	<path class="st0" d="M268.2,279.4c8.6-1.5,10.8-6.5,11.5-10.4h-8.2l3.6-18.4h17.4l-3.1,16.9c-2.4,12.2-9.6,17.7-20.8,18.4
		L268.2,279.4z M290.1,279.4c8.6-1.5,10.8-6.5,11.5-10.4h-8.2l3.6-18.4h17.4l-3.3,16.9c-2.2,12.2-9.5,17.7-20.7,18.4L290.1,279.4z"
		/>
	<path class="st0" d="M321.7,242.7c0-12.7,4.3-34.9,15.7-46.6c5.5-5.6,11.8-8.2,19.1-8.2c7.1,0,11.5,1.9,14.6,4l-3.4,16.9
		c-3.5-2.6-7.1-4.6-11.3-4.6c-2.9,0-5.4,1-7.5,3.2c-7.6,7.8-10.2,28.5-10.2,35.5c0,8.1,2.6,11.8,6.3,11.8c0.6,0,1.1-0.1,1.6-0.2
		l3.2-17.2h-5.9l2.9-15.1h21.2l-8.6,44.9c-4.5,1.9-9.3,3.2-14.5,3.2C330.6,270.2,321.7,261,321.7,242.7z"/>
	<path class="st0" d="M376.5,207.2h16.3L381,269h-16.3L376.5,207.2z M380.1,187.9h16.5l-2.8,14.6h-16.5L380.1,187.9z"/>
	<path class="st0" d="M386.5,281.2l2.8-14.4c4.3,1.8,9.5,3.3,13.6,3.3c3,0,5-0.7,6.6-2.2c1.5-1.5,2.5-3.9,3.1-7.2l0.9-4.7
		c-3.8,5.4-7.5,8.7-12.3,8.7c-6.3,0-9.8-5.1-9.8-16c0-12.1,4.1-31.6,11.4-39.1c2.5-2.5,5.3-3.7,8.3-3.7c5.6,0,8.5,3.9,10.2,8.3
		l1.3-7.2h16.4l-10.5,55.4c-1.3,6.9-3.6,12-7.2,15.6c-3.8,3.9-9.4,5.9-16.8,5.9C397.3,284.2,392,283,386.5,281.2z M412.8,248.9
		c3.4-3.5,5.7-18.2,5.7-23.3c0-2.9-0.9-4.5-2.8-4.5c-0.8,0-1.5,0.2-2.1,0.9c-3.4,3.5-5.7,18.2-5.7,23.3c0,2.9,0.9,4.5,2.8,4.5
		C411.5,249.8,412.2,249.6,412.8,248.9z"/>
	<path class="st0" d="M434.4,257c0-7,2.4-17.4,7.5-22.6c2.6-2.6,5.9-4,9.5-4c3.6,0,6.3,1.1,9.1,2.9l0.3-1.7c0.2-1.4,0.4-2.7,0.4-3.8
		c0-4.3-2.6-6.4-7.5-6.4c-3.5,0-7.3,1.1-10.9,2.7l2.9-15.5c4.4-1.5,7.8-2.3,13.3-2.3c11.3,0,18.6,5.7,18.6,17.6c0,2.4-0.2,5-1,8.9
		l-6.9,36.2h-16.3l0.9-5.3c-2.9,4-6.3,6.3-10.5,6.3C438,270,434.4,265.3,434.4,257z M456.8,252.9l1.8-9.6c-1.2-0.8-2.4-1.4-3.6-1.4
		c-0.9,0-1.7,0.3-2.4,1c-2.2,2.4-3.2,9-3.2,11.1c0,3.1,1.2,4.1,2.8,4.1C454,258.1,456.1,256.5,456.8,252.9z"/>
	<path class="st0" d="M486.9,207.2h16.4l-1.3,7.1c3.1-4.5,7.2-8.3,12.4-8.3c6.7,0,9.9,4.7,9.9,10.6c0,2.2-0.2,3.8-0.7,6.1l-8.9,46.4
		h-16.4l7.8-40.9c0.3-1.8,0.6-3,0.6-4c0-1.9-0.9-3.2-2.7-3.2c-2,0-3.8,1.9-4.4,5l-8.2,43.1h-16.4L486.9,207.2z"/>
	<path class="st0" d="M523.8,259.4c0-1.6,0.2-3.3,0.8-6.2l6.2-32.7h-3.4l2.5-13.4h3.5l2.8-15.1h16.3l-2.8,15.1h6.8l-2.5,13.4H547
		l-5.4,27.8c-0.2,1.5-0.8,3.9-0.8,5c0,1.6,1.1,2.4,2.9,2.4c1.1,0,2-0.1,3.5-0.6l-2.5,13.2c-2.5,0.9-5.4,1.5-8.9,1.5
		C529.2,269.9,523.8,266.8,523.8,259.4z"/>
</g>
<g>
	<path class="st0" d="M410.4,332.9c0-13.4,4.5-36.8,16.5-49.1c5.8-5.9,12.4-8.7,20.1-8.7c7.4,0,12.2,2,15.3,4.2l-3.5,17.8
		c-3.7-2.8-7.4-4.8-11.9-4.8c-3.1,0-5.7,1.1-7.9,3.4c-8,8.2-10.7,30.1-10.7,37.4c0,8.5,2.7,12.4,6.6,12.4c0.6,0,1.2-0.1,1.7-0.2
		l3.4-18.2h-6.3l3.1-15.9h22.3l-9.1,47.3c-4.7,2-9.8,3.4-15.2,3.4C419.8,361.9,410.4,352.1,410.4,332.9z"/>
	<path class="st0" d="M505.4,316.4c0,10-3.2,29.6-12.5,39.1c-4.2,4.3-9.2,6.5-15.1,6.5c-11.8,0-18.2-8.7-18.2-22.3
		c0-10,3.2-29.6,12.5-39.1c4.2-4.2,9.2-6.5,15-6.5C499,294.2,505.4,302.8,505.4,316.4z M477.1,277h13.3l-2.6,13.8h-13.3L477.1,277z
		 M481.4,345.6c3.9-4,7.3-25.1,7.3-30.9c0-3.7-1.1-5.3-3-5.3c-0.7,0-1.4,0.2-2.2,1.1c-3.9,4-7.4,25.1-7.4,30.9c0,3.7,1.1,5.3,3,5.3
		C479.9,346.7,480.6,346.5,481.4,345.6z M494,277h13.3l-2.6,13.8h-13.3L494,277z"/>
	<path class="st0" d="M506.5,350.4c0-1.7,0.2-3.5,0.8-6.5l6.5-34.4h-3.5l2.6-14.1h3.7l3-15.9h17.1l-3,15.9h7.2l-2.6,14.1H531
		l-5.7,29.2c-0.2,1.6-0.8,4.1-0.8,5.3c0,1.7,1.2,2.5,3.1,2.5c1.2,0,2.1-0.1,3.7-0.6l-2.6,14c-2.6,1-5.7,1.6-9.3,1.6
		C512.2,361.5,506.5,358.3,506.5,350.4z"/>
	<path class="st0" d="M533.7,347.3l22.8-37.2h-15.6l2.7-14.7h34.6l-2.5,13.1l-22.8,37.3H569l-2.8,14.7h-34.9L533.7,347.3z"/>
	<path class="st0" d="M589.8,335.5c-0.1,1-0.1,1.8-0.1,2.2c0,6.5,3,8.8,8.6,8.8c3.8,0,7.4-1,12.3-3.4l-1.9,15.5
		c-3.9,2-8.9,3.4-14.4,3.4c-13.3,0-21-7.8-21-23.6c0-9.1,3.2-28.1,12.6-37.8c4.2-4.3,9.2-6.5,14.8-6.5c10.3,0,16.6,7.3,16.6,20.9
		c0,5.8-1.1,12-3,20.4H589.8z M591.8,323.5h8.9c0.8-3.8,1.2-6.9,1.2-9.1c0-3.5-1.1-4.9-3-4.9c-0.7,0-1.5,0.2-2.4,1.1
		C594.5,312.6,592.9,318,591.8,323.5z"/>
	<path class="st0" d="M625.6,295.2c2.5-12.9,10.2-18.6,22-19.4l0.4,6.9c-9.1,1.6-11.3,6.9-12.2,10.9h8.5l-3.7,19.4h-18.3
		L625.6,295.2z M648.8,295.2c2.5-12.9,10.2-18.6,21.8-19.4l0.4,6.9c-9,1.6-11.2,6.9-12,10.9h8.5l-3.7,19.4h-18.3L648.8,295.2z"/>
</g>
<rect x="246.3" y="160.1" class="st0" width="424.1" height="15.4"/>
</svg>
