<?xml version="1.0" encoding="utf-8"?>
<!-- Generator: Adobe Illustrator 19.1.0, SVG Export Plug-In . SVG Version: 6.00 Build 0)  -->
<svg version="1.1" id="Ebene_1" xmlns="http://www.w3.org/2000/svg" xmlns:xlink="http://www.w3.org/1999/xlink" x="0px" y="0px"
	 viewBox="0 0 841.9 595.3" style="enable-background:new 0 0 841.9 595.3;" xml:space="preserve">
<style type="text/css">
	.st0{fill:#FFFFFF;}
	.st1{fill:none;}
</style>
<g>
	<polygon class="st0" points="291.3,190.2 306.5,190.2 306.5,321 291.3,321 291.3,190.2 	"/>
	<g>
		<path class="st0" d="M256.4,190.2h-30l0,130.7l30,0c3.7,0,6.6-3.1,6.6-7.1l0-53.9v-2.9c0-4.1-3.1-7.4-7-7.4l0.7,0
			c3.5,0,6.3-3,6.3-6.7v-4.3v-41.5C262.9,193.3,260,190.2,256.4,190.2z M247.8,304.7h-6.2v-45.2h6.2V304.7z M247.8,243.6h-6.2v-37.3
			h6.2V243.6z"/>
		<rect x="241.6" y="206.3" class="st1" width="6.2" height="37.3"/>
		<rect x="241.6" y="259.6" class="st1" width="6.2" height="45.2"/>
	</g>
	<g>
		<path class="st0" d="M334.4,190.2v22.8h-14.8c-3.6,0-6.6,3.1-6.6,7.1l0,93.9c0,3.9,3,7,6.6,7.1l30,0V190.2H334.4z M334.4,304.7
			h-6.2v-75.8h6.2V304.7z"/>
		<rect x="328.2" y="228.9" class="st1" width="6.2" height="75.8"/>
	</g>
	<polygon class="st0" points="269.5,190.2 284.7,190.2 284.7,206.3 269.5,206.3 269.5,190.2 	"/>
	<polygon class="st0" points="269.5,212.9 284.7,212.9 284.7,321 269.5,321 269.5,212.9 	"/>
</g>
<g>
	<path class="st0" d="M355.3,234.3v-2.4c0-9.2,2.4-11.7,5.2-11.7c2.2,0,3.3,1.6,4.3,3.4v-10.6h6.3v32.7h-6.3v-2.9
		c-1,1.8-2.1,3.4-4.3,3.4C357.7,246,355.3,243.5,355.3,234.3z M364.8,234.4v-2.6c0-3.8-0.5-5.5-1.6-5.5c-1.1,0-1.6,1.7-1.6,5.5v2.6
		c0,3.8,0.5,5.5,1.6,5.5C364.3,239.9,364.8,238.2,364.8,234.4z"/>
	<path class="st0" d="M372.9,233.9v-1.5c0-8,3.4-12.3,7.9-12.3s7.4,4.3,7.4,12.5v3.4h-9c0.3,2.9,1.6,4,3.4,4c1.6,0,3.1-0.7,4.6-1.8
		l0.4,6c-1.7,1.1-3.7,1.9-6,1.9C376.6,246.1,372.9,241.9,372.9,233.9z M382.3,231.4c0-4-0.5-5.4-1.6-5.4c-1,0-1.6,1.2-1.7,5.4H382.3
		z"/>
	<path class="st0" d="M389.9,220.7h6.3v2.9c0.9-1.7,2.2-3.4,4.4-3.4c3.1,0,4.6,2.5,4.6,6.3v19.1h-6.3v-17.3c0-1.3-0.5-2-1.3-2
		c-0.8,0-1.3,0.7-1.3,2v17.3h-6.3V220.7z"/>
	<path class="st0" d="M407.3,212.9h6.3v16.2l2.7-8.4h6.5l-3.8,10.2l3.8,14.7h-6.6l-1.9-8.9l-0.7,2.1v6.8h-6.3V212.9z"/>
	<path class="st0" d="M424.4,240.7V226h-1.3v-5.4h1.3v-6.1h6.3v6.1h2.6v5.4h-2.6v12.6c0,0.9,0.4,1.3,1.2,1.3c0.4,0,0.9-0.1,1.4-0.4
		v5.4c-1,0.6-2.4,1-3.7,1C426.7,245.9,424.4,244.8,424.4,240.7z"/>
	<path class="st0" d="M441.5,212.9h6.4v5.9h-6.4V212.9z M441.5,220.7h6.3v24.9h-6.3V220.7z"/>
	<path class="st0" d="M450.2,220.7h6.3v2.9c0.9-1.7,2.2-3.4,4.4-3.4c3.1,0,4.6,2.5,4.6,6.3v19.1h-6.3v-17.3c0-1.3-0.5-2-1.3-2
		c-0.8,0-1.3,0.7-1.3,2v17.3h-6.3V220.7z"/>
</g>
<g>
	<path class="st0" d="M355.8,257.4h8.9c9,0,15.1,5,15.1,16.3v0.5c0,11.6-7.1,16.3-14.2,16.5h-0.3v14.4h-9.6V257.4z M365.6,281.7
		c2.7-0.1,4.7-2.2,4.7-7.2v-0.8c0-5.1-1.9-7.2-4.6-7.2h-0.2v15.2H365.6z"/>
	<path class="st0" d="M382.1,256.7h9.4v48.5h-9.4V256.7z"/>
	<path class="st0" d="M393.9,294.9v-1.2c0-8.3,3.4-11.7,8.1-11.7c1.9,0,3.3,0.5,4.8,1.4V282c0-3.4-1.5-5.1-4.6-5.1
		c-2.2,0-4.7,1-6.4,1.8v-9.3c2.5-1.1,5.3-1.7,8.4-1.7c3.9,0,6.8,1.1,8.7,3.1c2.1,2.3,3.2,5.7,3.2,10.3v24.1h-9.3v-3.5
		c-1.4,2.7-3.3,4.2-5.9,4.2C396.9,305.9,393.9,302,393.9,294.9z M406.8,295.2v-5.7c-0.5-0.3-1.4-0.6-2.1-0.6c-1.4,0-2.2,1.4-2.2,4.2
		v1.4c0,2.9,0.9,4,2.1,4C405.7,298.4,406.8,297.4,406.8,295.2z"/>
	<path class="st0" d="M419.6,298.1v-21.9h-1.9v-8h1.9v-9h9.4v9h3.9v8H429v18.8c0,1.3,0.6,1.9,1.8,1.9c0.6,0,1.3-0.2,2.1-0.5v8
		c-1.5,0.8-3.5,1.4-5.5,1.4C423.1,305.9,419.6,304.1,419.6,298.1z"/>
	<path class="st0" d="M436.2,298.1v-21.9h-1.9v-8h1.9v-9h9.4v9h3.9v8h-3.9v18.8c0,1.3,0.6,1.9,1.8,1.9c0.6,0,1.3-0.2,2.1-0.5v8
		c-1.5,0.8-3.5,1.4-5.5,1.4C439.6,305.9,436.2,304.1,436.2,298.1z"/>
	<path class="st0" d="M452.9,276.3h-2v-8h2v-1.6c0-3.4,0.8-5.9,2.4-7.6c1.6-1.6,4-2.5,7-2.5c1.8,0,2.9,0.1,4,0.3v7.8
		c-0.3-0.1-0.9-0.1-1.4-0.1c-1.7,0-2.7,0.9-2.7,2.8v1h4.1v7.9h-3.9v29h-9.4V276.3z"/>
	<path class="st0" d="M466.9,288.2v-2.9c0-11.8,4.9-17.9,11.9-17.9c7,0,11.8,6.2,11.8,17.9v2.9c0,11.8-4.8,17.9-11.9,17.9
		C471.8,306.1,466.9,300,466.9,288.2z M481.3,288.3v-3.1c0-6.4-0.8-9-2.5-9c-1.7,0-2.4,2.5-2.4,9v3.1c0,6.4,0.8,9,2.4,9
		C480.4,297.3,481.3,294.7,481.3,288.3z"/>
	<path class="st0" d="M493.4,268.3h9.3v5.1c1.1-3.7,2.7-5.8,5.5-5.6v12h-0.2c-3.6,0-5.3,2.5-5.3,7.7v17.8h-9.4V268.3z"/>
	<path class="st0" d="M510.5,268.3h9.3v4.2c1.4-2.7,3.3-4.9,6.5-4.9c3.2,0,5,2,6.1,4.6c1.4-2.3,3.5-4.6,6.7-4.6
		c4.2,0,7.2,3.5,7.2,9.4v28.4H537v-25.7c0-1.9-0.7-3.1-1.9-3.1c-1.2,0-2,1.2-2,3.1v25.7h-9.3v-25.7c0-1.9-0.7-3.1-1.9-3.1
		c-1.2,0-2,1.2-2,3.1v25.7h-9.3V268.3z"/>
	<path class="st0" d="M548.9,287.9v-2.2c0-11.8,5-18.3,11.7-18.3c6.7,0,11,6.4,11,18.6v5h-13.4c0.5,4.4,2.4,5.9,5.1,5.9
		c2.4,0,4.6-1.1,6.9-2.7l0.6,8.9c-2.6,1.7-5.5,2.9-9,2.9C554.3,306.1,548.9,299.9,548.9,287.9z M562.9,284.2c0-5.9-0.8-8.1-2.3-8.1
		c-1.4,0-2.4,1.8-2.5,8.1H562.9z"/>
	<path class="st0" d="M574.1,268.3h9.4v4.2c1.3-2.6,3.2-5,6.5-5c4.6,0,6.8,3.8,6.8,9.3v28.4h-9.4v-25.8c0-1.9-0.7-3-1.9-3
		c-1.2,0-2,1.1-2,3v25.8h-9.4V268.3z"/>
</g>
<rect x="355.9" y="311.4" class="st0" width="241.8" height="10"/>
<g>
	<path class="st0" d="M228.4,334.9h8.2v1.5H230v10.8h6v1.5h-6v11.8h-1.6V334.9z"/>
	<path class="st0" d="M238.7,354.6v-13.4h1.5v13.2c0,3.2,1.1,4.9,3.1,4.9c2,0,3.6-2.1,3.6-5.2v-12.9h1.5v19.1h-1.5v-2.8
		c-0.6,1.6-1.8,3.1-3.9,3.1C240.5,360.7,238.7,358.5,238.7,354.6z M240.9,336.8h1.6v2.4h-1.6V336.8z M244.5,336.8h1.6v2.4h-1.6
		V336.8z"/>
	<path class="st0" d="M252.1,341.3h1.5v2.8c0.7-1.7,2.2-3.2,4.4-3v1.6H258c-2.4,0-4.3,1.5-4.3,4.9v12.8h-1.5V341.3z"/>
	<path class="st0" d="M265.7,340.9h4.2v2.3c0.9-1.6,1.8-2.7,3.4-2.7c1.6,0,2.5,1,3.2,2.3c0.8-1.1,1.8-2.3,3.4-2.3c2,0,4,1.7,4,5.2
		v14.7h-4.2v-13.8c0-1.4-0.5-2.3-1.4-2.3c-0.9,0-1.4,0.8-1.4,2.3v13.8h-4.2v-13.8c0-1.4-0.5-2.3-1.4-2.3c-0.9,0-1.4,0.8-1.4,2.3
		v13.8h-4.2V340.9z"/>
	<path class="st0" d="M285.8,351.1v-0.9c0-6.3,2.6-9.6,5.8-9.6c3.3,0,5.4,3.4,5.4,9.8v2.3h-7c0.3,3.1,1.5,4.1,2.9,4.1
		c1.3,0,2.1-0.5,3.4-1.4l0.3,3.9c-1.5,1-2.6,1.5-4.2,1.5C288.8,360.7,285.8,357.4,285.8,351.1z M293.1,349.2c0-3.3-0.5-4.8-1.5-4.8
		c-1,0-1.6,1.4-1.6,4.8H293.1z"/>
	<path class="st0" d="M298.7,334.7h4.2v8.5c0.7-1.5,1.7-2.7,3.4-2.7c2.4,0,3.7,2.1,3.7,5.1v14.8h-4.2v-13.8c0-1.4-0.5-2.2-1.4-2.2
		s-1.5,0.8-1.5,2.2v13.8h-4.2V334.7z"/>
	<path class="st0" d="M312.3,340.9h4.2v2.4c0.6-1.7,1.5-2.8,3.1-2.7v5.2h-0.1c-2,0-3,1.4-3,4.1v10.4h-4.2V340.9z"/>
	<path class="st0" d="M328,334.9h1.6v25.5H328V334.9z"/>
	<path class="st0" d="M333.7,341.3h1.5v2.8c0.6-1.6,1.8-3.1,3.9-3.1c2.5,0,4.3,2.1,4.3,6v13.4h-1.5v-13.2c0-3.2-1.1-4.9-3.1-4.9
		c-2,0-3.6,2.1-3.6,5.2v12.9h-1.5V341.3z"/>
	<path class="st0" d="M347.5,342.7h-1.9v-1.4h1.9V339c0-1.6,0.4-2.8,1.1-3.5c0.6-0.6,1.5-0.9,2.5-0.9c0.3,0,0.8,0.1,1.1,0.1v1.5
		c-0.3-0.1-0.9-0.1-1.1-0.1c-1.4,0-2.2,0.9-2.2,3v2.2h3.1v1.4H349v17.7h-1.5V342.7z"/>
	<path class="st0" d="M353.3,351v-0.3c0-6,2.5-9.7,5.4-9.7s5.3,3.7,5.3,9.7v0.3c0,6-2.5,9.7-5.3,9.7S353.3,357,353.3,351z
		 M362.5,351v-0.3c0-5-1.7-8.3-3.8-8.3c-2.1,0-3.8,3.2-3.8,8.3v0.3c0,5,1.7,8.3,3.8,8.3C360.8,359.2,362.5,356,362.5,351z"/>
	<path class="st0" d="M367,341.3h1.5v2.8c0.7-1.7,2.2-3.2,4.4-3v1.6h-0.1c-2.4,0-4.3,1.5-4.3,4.9v12.8H367V341.3z"/>
	<path class="st0" d="M375.4,341.3h1.5v2.8c0.6-1.6,1.8-3.1,3.8-3.1c2,0,3.1,1.5,3.7,3.2c0.7-1.6,1.9-3.2,4.1-3.2
		c2.6,0,4.3,2.1,4.3,6v13.4h-1.5v-13.3c0-3.2-1.1-4.8-3-4.8c-1.9,0-3.5,2-3.5,5.1v13h-1.5v-13.3c0-3.2-1.1-4.8-3-4.8
		c-1.9,0-3.5,2-3.5,5.1v13h-1.5V341.3z"/>
	<path class="st0" d="M395.5,354.8v-0.3c0-3.5,1.8-6.1,4.9-6.1c1.3,0,2.3,0.3,3.1,0.7v-2.4c0-2.7-1.2-4.2-3.6-4.2
		c-1.3,0-2.4,0.3-3.5,0.9v-1.5c1-0.5,2.2-0.8,3.5-0.8c1.5,0,2.7,0.4,3.6,1.4c0.8,0.8,1.4,2.3,1.4,4.1v13.8h-1.5v-2.8
		c-0.8,1.9-2,3.1-3.8,3.1C397.2,360.7,395.5,358.2,395.5,354.8z M403.5,354.4v-3.8c-1-0.5-2-0.8-3.1-0.8c-2.3,0-3.5,2-3.5,4.6v0.3
		c0,2.6,1,4.6,3,4.6C402.2,359.4,403.5,356.9,403.5,354.4z"/>
	<path class="st0" d="M409.1,357.2v-14.5h-1.8v-1.4h1.8v-5.4h1.5v5.4h3v1.4h-3V357c0,1.7,0.8,2.1,2,2.1c0.4,0,0.9-0.1,1.1-0.2v1.4
		c-0.4,0.1-0.9,0.2-1.3,0.2C410.4,360.5,409.1,359.6,409.1,357.2z"/>
	<path class="st0" d="M416.7,334.6h1.6v2.5h-1.6V334.6z M416.8,341.3h1.5v19.1h-1.5V341.3z"/>
	<path class="st0" d="M421.5,351v-0.3c0-6,2.5-9.7,5.4-9.7s5.3,3.7,5.3,9.7v0.3c0,6-2.5,9.7-5.3,9.7S421.5,357,421.5,351z
		 M430.7,351v-0.3c0-5-1.7-8.3-3.8-8.3c-2.1,0-3.8,3.2-3.8,8.3v0.3c0,5,1.7,8.3,3.8,8.3C428.9,359.2,430.7,356,430.7,351z"/>
	<path class="st0" d="M435.2,341.3h1.5v2.8c0.6-1.6,1.8-3.1,3.9-3.1c2.5,0,4.3,2.1,4.3,6v13.4h-1.5v-13.2c0-3.2-1.1-4.9-3.1-4.9
		c-2,0-3.6,2.1-3.6,5.2v12.9h-1.5V341.3z"/>
	<path class="st0" d="M447.7,351.2v-0.3c0-6.6,2.4-9.9,5.1-9.9c2.8,0,4.9,3.4,4.9,9.4v1.1h-8.5c0.1,5.2,2.1,7.7,4.7,7.7
		c1.1,0,2-0.3,3.3-1.1l0.2,1.6c-1.3,0.8-2.2,1-3.6,1C450.5,360.6,447.7,357.5,447.7,351.2z M456.3,350.1c0-4.4-1.4-7.7-3.4-7.7
		c-2,0-3.5,2.7-3.6,7.7H456.3z"/>
	<path class="st0" d="M460.9,341.3h1.5v2.8c0.6-1.6,1.8-3.1,3.9-3.1c2.5,0,4.3,2.1,4.3,6v13.4H469v-13.2c0-3.2-1.1-4.9-3.1-4.9
		c-2,0-3.6,2.1-3.6,5.2v12.9h-1.5V341.3z"/>
	<path class="st0" d="M473,363.2c1.4-0.6,1.9-1.5,1.8-2.8h-1v-3h2.2v2.6c0,2.3-0.7,3.2-2.6,4.1L473,363.2z"/>
	<path class="st0" d="M485.4,334.6h1.5v17.2l5.4-10.6h1.7l-4.2,7.7l4.6,11.4h-1.6l-3.8-9.8l-2,3.7v6.2h-1.5V334.6z"/>
	<path class="st0" d="M497.4,334.6h1.5v25.7h-1.5V334.6z"/>
	<path class="st0" d="M503,334.6h1.6v2.5H503V334.6z M503.1,341.3h1.5v19.1h-1.5V341.3z"/>
	<path class="st0" d="M507.8,351.1v-0.4c0-6.6,2.9-9.7,5.7-9.7c0.9,0,1.7,0.3,2.3,0.7v1.7c-0.6-0.5-1.4-0.9-2.3-0.9
		c-1.9,0-4.2,2.5-4.2,8.2v0.5c0,5.8,2.2,8,4.3,8c0.8,0,1.5-0.3,2.1-0.9v1.6c-0.6,0.4-1.3,0.7-2.3,0.7
		C510.6,360.6,507.8,357.7,507.8,351.1z"/>
	<path class="st0" d="M518.6,334.6h1.5v17.2l5.4-10.6h1.7l-4.2,7.7l4.6,11.4h-1.6l-3.8-9.8l-2,3.7v6.2h-1.5V334.6z"/>
	<path class="st0" d="M528.9,351.2v-0.3c0-6.6,2.4-9.9,5.1-9.9c2.8,0,4.9,3.4,4.9,9.4v1.1h-8.5c0.1,5.2,2.1,7.7,4.7,7.7
		c1.1,0,2-0.3,3.3-1.1l0.2,1.6c-1.3,0.8-2.2,1-3.6,1C531.7,360.6,528.9,357.5,528.9,351.2z M537.4,350.1c0-4.4-1.4-7.7-3.4-7.7
		c-2,0-3.5,2.7-3.6,7.7H537.4z"/>
	<path class="st0" d="M542.1,341.3h1.5v2.8c0.6-1.6,1.8-3.1,3.9-3.1c2.5,0,4.3,2.1,4.3,6v13.4h-1.5v-13.2c0-3.2-1.1-4.9-3.1-4.9
		c-2,0-3.6,2.1-3.6,5.2v12.9h-1.5V341.3z"/>
	<path class="st0" d="M560.6,359.3v-1.8c1.7,1.1,3.1,1.6,4.4,1.6c2.1,0,3.5-1.4,3.5-3.7v-0.1c0-2.1-0.8-3.5-3.5-7.2
		c-3.3-4.5-4.1-5.9-4.1-8.3v-0.1c0-3,2.2-5.2,4.9-5.2c1.4,0,2.6,0.4,3.8,1.1v1.8c-1.4-0.9-2.6-1.4-3.8-1.4c-1.9,0-3.3,1.5-3.3,3.6
		v0.1c0,1.9,0.7,3.3,3.5,6.9c3,3.9,4.1,5.9,4.1,8.6v0.1c0,3.2-2.2,5.3-5.1,5.3C563.4,360.7,562.1,360.2,560.6,359.3z"/>
	<path class="st0" d="M573.3,334.6h1.6v2.5h-1.6V334.6z M573.3,341.3h1.5v19.1h-1.5V341.3z"/>
	<path class="st0" d="M578.1,351.2v-0.3c0-6.6,2.4-9.9,5.1-9.9c2.8,0,4.9,3.4,4.9,9.4v1.1h-8.5c0.1,5.2,2.1,7.7,4.7,7.7
		c1.1,0,2-0.3,3.3-1.1l0.2,1.6c-1.3,0.8-2.2,1-3.6,1C580.9,360.6,578.1,357.5,578.1,351.2z M586.7,350.1c0-4.4-1.4-7.7-3.4-7.7
		c-2,0-3.5,2.7-3.6,7.7H586.7z"/>
	<path class="st0" d="M227.5,387.2v-0.3c0-6.6,2.4-9.9,5.1-9.9c2.8,0,4.9,3.4,4.9,9.4v1.1H229c0.1,5.2,2.1,7.7,4.7,7.7
		c1.1,0,2-0.3,3.3-1.1l0.2,1.6c-1.3,0.8-2.2,1-3.6,1C230.3,396.7,227.5,393.6,227.5,387.2z M236.1,386.2c0-4.4-1.4-7.7-3.4-7.7
		c-2,0-3.5,2.7-3.6,7.7H236.1z"/>
	<path class="st0" d="M240.8,370.7h1.6v2.5h-1.6V370.7z M240.9,377.3h1.5v19.1h-1.5V377.3z"/>
	<path class="st0" d="M246.4,377.3h1.5v2.8c0.6-1.6,1.8-3.1,3.9-3.1c2.5,0,4.3,2.1,4.3,6v13.4h-1.5v-13.2c0-3.2-1.1-4.9-3.1-4.9
		c-2,0-3.6,2.1-3.6,5.2v12.9h-1.5V377.3z"/>
	<path class="st0" d="M260.3,378.7h-1.9v-1.4h1.9v-2.2c0-1.6,0.4-2.8,1.1-3.5c0.6-0.6,1.5-0.9,2.5-0.9c0.3,0,0.8,0.1,1.1,0.1v1.5
		c-0.3-0.1-0.9-0.1-1.1-0.1c-1.4,0-2.2,0.9-2.2,3v2.2h3.1v1.4h-3.1v17.7h-1.5V378.7z"/>
	<path class="st0" d="M266.1,390.9v-0.3c0-3.5,1.8-6.1,4.9-6.1c1.3,0,2.3,0.3,3.1,0.7v-2.4c0-2.7-1.2-4.2-3.6-4.2
		c-1.3,0-2.4,0.3-3.5,0.9v-1.5c1-0.5,2.2-0.8,3.5-0.8c1.5,0,2.7,0.4,3.6,1.4c0.8,0.8,1.4,2.3,1.4,4.1v13.8h-1.5v-2.8
		c-0.8,1.9-2,3.1-3.8,3.1C267.8,396.8,266.1,394.2,266.1,390.9z M274.2,390.5v-3.8c-1-0.5-2-0.8-3.1-0.8c-2.3,0-3.5,2-3.5,4.6v0.3
		c0,2.6,1,4.6,3,4.6C272.8,395.4,274.2,393,274.2,390.5z"/>
	<path class="st0" d="M278.6,387.1v-0.4c0-6.6,2.9-9.7,5.7-9.7c0.9,0,1.7,0.3,2.3,0.7v1.7c-0.6-0.5-1.4-0.9-2.3-0.9
		c-1.9,0-4.2,2.5-4.2,8.2v0.5c0,5.7,2.2,8,4.3,8c0.8,0,1.5-0.3,2.1-0.9v1.6c-0.6,0.4-1.3,0.7-2.3,0.7
		C281.3,396.7,278.6,393.8,278.6,387.1z"/>
	<path class="st0" d="M289.3,370.7h1.5v9.4c0.6-1.6,1.8-3.1,3.9-3.1c2.5,0,4.3,2.1,4.3,6v13.4h-1.5v-13.2c0-3.2-1.1-4.9-3.1-4.9
		c-2,0-3.6,2.1-3.6,5.2v12.9h-1.5V370.7z"/>
	<path class="st0" d="M307.6,390.9v-0.3c0-3.5,1.8-6.1,4.9-6.1c1.3,0,2.3,0.3,3.1,0.7v-2.4c0-2.7-1.2-4.2-3.6-4.2
		c-1.3,0-2.4,0.3-3.5,0.9v-1.5c1-0.5,2.2-0.8,3.5-0.8c1.5,0,2.7,0.4,3.6,1.4c0.8,0.8,1.4,2.3,1.4,4.1v13.8h-1.5v-2.8
		c-0.8,1.9-2,3.1-3.8,3.1C309.4,396.8,307.6,394.2,307.6,390.9z M315.7,390.5v-3.8c-1-0.5-2-0.8-3.1-0.8c-2.3,0-3.5,2-3.5,4.6v0.3
		c0,2.6,1,4.6,3,4.6C314.4,395.4,315.7,393,315.7,390.5z"/>
	<path class="st0" d="M320.7,390.7v-13.4h1.5v13.2c0,3.2,1.1,4.9,3.1,4.9c2,0,3.6-2.1,3.6-5.2v-12.9h1.5v19.1h-1.5v-2.8
		c-0.6,1.6-1.8,3.1-3.9,3.1C322.5,396.7,320.7,394.6,320.7,390.7z"/>
	<path class="st0" d="M334.9,378.7H333v-1.4h1.9v-2.2c0-1.6,0.4-2.8,1.1-3.5c0.6-0.6,1.5-0.9,2.5-0.9c0.3,0,0.8,0.1,1.1,0.1v1.5
		c-0.3-0.1-0.9-0.1-1.1-0.1c-1.4,0-2.2,0.9-2.2,3v2.2h3.1v1.4h-3.1v17.7h-1.5V378.7z"/>
	<path class="st0" d="M347,387.2v-0.7c0-6.1,2.3-9.5,4.9-9.5c1.9,0,3.2,1.8,3.9,4v-10.3h1.5v25.7h-1.5v-3.7c-0.7,2.2-2,4-3.9,4
		C349.3,396.7,347,393.4,347,387.2z M355.9,387.3v-0.9c0-5.1-1.9-8-3.8-8c-1.9,0-3.6,2.9-3.6,8.2v0.6c0,5.2,1.6,8.2,3.6,8.2
		C354,395.4,355.9,392.5,355.9,387.3z"/>
	<path class="st0" d="M361.2,370.7h1.6v2.5h-1.6V370.7z M361.3,377.3h1.5v19.1h-1.5V377.3z"/>
	<path class="st0" d="M366.1,387.2v-0.3c0-6.6,2.4-9.9,5.1-9.9c2.8,0,4.9,3.4,4.9,9.4v1.1h-8.5c0.1,5.2,2.1,7.7,4.7,7.7
		c1.1,0,2-0.3,3.3-1.1l0.2,1.6c-1.3,0.8-2.2,1-3.6,1C368.9,396.7,366.1,393.6,366.1,387.2z M374.6,386.2c0-4.4-1.4-7.7-3.4-7.7
		c-2,0-3.5,2.7-3.6,7.7H374.6z"/>
	<path class="st0" d="M384.4,376.9h4.2v2.4c0.6-1.7,1.5-2.8,3.1-2.7v5.2h-0.1c-2,0-3,1.4-3,4.1v10.4h-4.2V376.9z"/>
	<path class="st0" d="M392.5,387.3v-1.2c0-6.3,2.5-9.5,5.9-9.5c3.4,0,5.9,3.2,5.9,9.5v1.2c0,6.3-2.5,9.5-5.9,9.5
		C395,396.8,392.5,393.6,392.5,387.3z M400.1,387.4v-1.3c0-3.9-0.6-5.6-1.7-5.6c-1.1,0-1.7,1.7-1.7,5.6v1.3c0,3.8,0.6,5.6,1.7,5.6
		C399.5,393,400.1,391.2,400.1,387.4z"/>
	<path class="st0" d="M406.6,393.1v-12.7h-1.1v-3.5h1.1v-5h4.2v5h2.3v3.5h-2.3v11.2c0,0.9,0.4,1.2,1.2,1.2c0.3,0,0.7-0.1,1-0.2v3.4
		c-0.6,0.4-1.6,0.7-2.5,0.7C408.6,396.7,406.6,396,406.6,393.1z"/>
	<path class="st0" d="M414,387.2v-0.9c0-6.3,2.6-9.6,5.8-9.6c3.3,0,5.4,3.4,5.4,9.8v2.3h-7c0.3,3.1,1.5,4.1,2.9,4.1
		c1.3,0,2.1-0.5,3.4-1.4l0.3,3.9c-1.5,1-2.6,1.5-4.2,1.5C417,396.8,414,393.5,414,387.2z M421.3,385.3c0-3.3-0.5-4.8-1.5-4.8
		c-1,0-1.6,1.4-1.6,4.8H421.3z"/>
	<path class="st0" d="M427,376.9h4.2v2.3c0.7-1.5,1.7-2.7,3.4-2.7c2.4,0,3.7,2.1,3.7,5.1v14.8h-4.2v-13.8c0-1.4-0.5-2.2-1.4-2.2
		c-0.9,0-1.5,0.8-1.5,2.2v13.8H427V376.9z"/>
	<path class="st0" d="M446.4,371h4.4v25.5h-4.4V371z"/>
	<path class="st0" d="M453.3,376.9h4.2v2.3c0.7-1.5,1.7-2.7,3.4-2.7c2.4,0,3.7,2.1,3.7,5.1v14.8h-4.2v-13.8c0-1.4-0.5-2.2-1.4-2.2
		s-1.5,0.8-1.5,2.2v13.8h-4.2V376.9z"/>
	<path class="st0" d="M467.1,380.4h-1.2v-3.5h1.2v-1.4c0-1.6,0.4-2.8,1.2-3.6c0.8-0.8,2.1-1.2,3.6-1.2c0.7,0,1.1,0,1.6,0.1v3.6
		c-0.2,0-0.3,0-0.5,0c-1,0-1.7,0.6-1.7,1.8v0.8h2.2v3.5h-2.2v16h-4.2V380.4z"/>
	<path class="st0" d="M474.2,387.3v-1.2c0-6.3,2.5-9.5,5.9-9.5s5.9,3.2,5.9,9.5v1.2c0,6.3-2.5,9.5-5.9,9.5S474.2,393.6,474.2,387.3z
		 M481.8,387.4v-1.3c0-3.9-0.6-5.6-1.7-5.6s-1.7,1.7-1.7,5.6v1.3c0,3.8,0.6,5.6,1.7,5.6S481.8,391.2,481.8,387.4z"/>
	<path class="st0" d="M488.2,383h9.2v4.4h-9.2V383z"/>
	<path class="st0" d="M500.1,371h3.7c2.6,0,5,0.7,6.5,2.1c1.1,1.1,1.6,2.5,1.6,4.3v0.2c0,3.3-1.8,4.9-3.6,5.7
		c2.1,0.9,3.9,2.4,3.9,5.7v0.3c0,4.5-3.4,7.1-8.3,7.1h-3.9V371z M507.7,378.2c0-2.2-1.3-3.2-3.2-3.2h-0.1v6.6h0.1
		C506.4,381.7,507.7,380.5,507.7,378.2L507.7,378.2z M504.5,385.5h-0.1v6.8h0.1c2,0,3.4-1.2,3.4-3.3v-0.2
		C507.9,386.7,506.5,385.5,504.5,385.5z"/>
	<path class="st0" d="M513.9,391.7v-14.8h4.2v13.8c0,1.4,0.5,2.2,1.4,2.2c0.9,0,1.5-0.8,1.5-2.2v-13.8h4.2v19.5H521v-2.3
		c-0.8,1.5-1.7,2.7-3.4,2.7C515.2,396.8,513.9,394.7,513.9,391.7z"/>
	<path class="st0" d="M528.1,393.1v-12.7h-1.1v-3.5h1.1v-5h4.2v5h2.3v3.5h-2.3v11.2c0,0.9,0.4,1.2,1.2,1.2c0.3,0,0.7-0.1,1-0.2v3.4
		c-0.6,0.4-1.6,0.7-2.5,0.7C530,396.7,528.1,396,528.1,393.1z"/>
	<path class="st0" d="M536.6,393.1v-12.7h-1.1v-3.5h1.1v-5h4.2v5h2.3v3.5h-2.3v11.2c0,0.9,0.4,1.2,1.2,1.2c0.3,0,0.7-0.1,1-0.2v3.4
		c-0.6,0.4-1.6,0.7-2.5,0.7C538.5,396.7,536.6,396,536.6,393.1z"/>
	<path class="st0" d="M544.1,387.3v-1.2c0-6.3,2.5-9.5,5.9-9.5c3.4,0,5.9,3.2,5.9,9.5v1.2c0,6.3-2.5,9.5-5.9,9.5
		C546.6,396.8,544.1,393.6,544.1,387.3z M551.7,387.4v-1.3c0-3.9-0.6-5.6-1.7-5.6s-1.7,1.7-1.7,5.6v1.3c0,3.8,0.6,5.6,1.7,5.6
		S551.7,391.2,551.7,387.4z"/>
	<path class="st0" d="M557.9,376.9h4.2v2.3c0.7-1.5,1.7-2.7,3.4-2.7c2.4,0,3.7,2.1,3.7,5.1v14.8H565v-13.8c0-1.4-0.5-2.2-1.4-2.2
		c-0.9,0-1.5,0.8-1.5,2.2v13.8h-4.2V376.9z"/>
	<path class="st0" d="M570.9,395.9v-4.2c1.4,0.8,2.6,1.3,3.6,1.3c1,0,1.6-0.6,1.6-1.6c0-0.8-0.3-1.4-2.1-3.2
		c-1.9-1.9-3.3-3.7-3.3-6.2v-0.1c0-3.2,2.2-5.3,5.4-5.3c1.2,0,2.1,0.1,3.1,0.5v4.2c-0.9-0.5-1.9-0.9-2.9-0.9c-1,0-1.6,0.5-1.6,1.3
		c0,0.8,0.3,1.3,2.3,3.2c2.4,2.3,3.1,3.9,3.1,6.1v0.1c0,3.4-2.3,5.5-5.4,5.5C573.6,396.8,572.1,396.4,570.9,395.9z"/>
	<path class="st0" d="M582.8,393.4h2.1v3h-2.1V393.4z M582.9,373.5V371h1.9v2.5l-0.5,16.3h-0.8L582.9,373.5z"/>
</g>
</svg>
