<?xml version="1.0" encoding="utf-8"?>
<!-- Generator: Adobe Illustrator 19.1.0, SVG Export Plug-In . SVG Version: 6.00 Build 0)  -->
<svg version="1.1" id="Ebene_1" xmlns="http://www.w3.org/2000/svg" xmlns:xlink="http://www.w3.org/1999/xlink" x="0px" y="0px"
	 viewBox="0 0 841.9 595.3" style="enable-background:new 0 0 841.9 595.3;" xml:space="preserve">
<style type="text/css">
	.st0{fill:#FFFFFF;}
	.st1{fill:none;}
</style>
<g>
	<path class="st0" d="M278,426.3h4.7v11.3h4v-11.3h4.7v27.2h-4.7v-11.4h-4v11.4H278V426.3z"/>
	<path class="st0" d="M293.6,443.8v-1.2c0-6.7,2.7-10.1,6.3-10.1s6.3,3.5,6.3,10.1v1.2c0,6.7-2.7,10.1-6.3,10.1
		S293.6,450.4,293.6,443.8z M301.8,443.8v-1.4c0-4.1-0.7-6-1.8-6s-1.8,1.9-1.8,6v1.4c0,4,0.7,6,1.8,6S301.8,447.9,301.8,443.8z"/>
	<path class="st0" d="M308.4,426.1h4.5v9.1c0.8-1.6,1.8-2.9,3.6-2.9c2.6,0,3.9,2.3,3.9,5.4v15.8h-4.5v-14.7c0-1.5-0.6-2.4-1.5-2.4
		s-1.6,0.9-1.6,2.4v14.7h-4.5V426.1z"/>
	<path class="st0" d="M322.3,443.6v-1c0-6.7,2.8-10.3,6.2-10.3c3.5,0,5.8,3.6,5.8,10.5v2.4h-7.5c0.3,3.3,1.6,4.4,3.1,4.4
		c1.4,0,2.2-0.6,3.6-1.5l0.3,4.2c-1.6,1-2.8,1.6-4.5,1.6C325.6,453.9,322.3,450.4,322.3,443.6z M330.1,441.6c0-3.5-0.5-5.2-1.6-5.2
		c-1,0-1.7,1.5-1.8,5.2H330.1z"/>
	<path class="st0" d="M341,426.3h4.7l2.5,17.7l2.5-17.7h4.6l-4.8,27.3h-4.8L341,426.3z"/>
	<path class="st0" d="M355.2,443.6v-1c0-6.7,2.8-10.3,6.2-10.3c3.5,0,5.8,3.6,5.8,10.5v2.4h-7.5c0.3,3.3,1.6,4.4,3.1,4.4
		c1.4,0,2.2-0.6,3.6-1.5l0.3,4.2c-1.6,1-2.8,1.6-4.5,1.6C358.4,453.9,355.2,450.4,355.2,443.6z M363,441.6c0-3.5-0.5-5.2-1.6-5.2
		c-1,0-1.7,1.5-1.8,5.2H363z"/>
	<path class="st0" d="M369.1,432.7h4.5v2.6c0.6-1.8,1.6-3,3.3-2.8v5.5h-0.1c-2.1,0-3.2,1.5-3.2,4.4v11.1h-4.5V432.7z"/>
	<path class="st0" d="M377.8,432.7h4.5l1.6,12l1.8-12h3.5l1.8,12l1.6-12h4.5l-3.5,20.9h-4.3l-1.9-11.7l-1.8,11.7h-4.3L377.8,432.7z"
		/>
	<path class="st0" d="M397.6,443.6v-1c0-6.7,2.8-10.3,6.2-10.3c3.5,0,5.8,3.6,5.8,10.5v2.4h-7.5c0.3,3.3,1.6,4.4,3.1,4.4
		c1.4,0,2.2-0.6,3.6-1.5l0.3,4.2c-1.6,1-2.8,1.6-4.5,1.6C400.8,453.9,397.6,450.4,397.6,443.6z M405.4,441.6c0-3.5-0.5-5.2-1.6-5.2
		c-1,0-1.7,1.5-1.8,5.2H405.4z"/>
	<path class="st0" d="M411.4,426.1h4.6v4.6h-4.6V426.1z M411.5,432.7h4.5v20.8h-4.5V432.7z"/>
	<path class="st0" d="M418.6,426.1h4.5v27.4h-4.5V426.1z"/>
	<path class="st0" d="M425.3,444v-1.9c0-7.4,1.9-9.9,4.3-9.9c2,0,2.9,1.7,3.6,2.9v-9.1h4.5v27.4h-4.5v-2.6c-0.6,1.2-1.6,3-3.6,3
		C427.2,453.9,425.3,451.5,425.3,444z M433.3,443.8v-1.4c0-3.7-0.6-5.7-1.8-5.7c-1.1,0-1.7,2-1.7,5.7v1.4c0,3.7,0.5,5.7,1.7,5.7
		C432.6,449.5,433.3,447.5,433.3,443.8z"/>
	<path class="st0" d="M439.5,447.7v-0.7c0-4.7,1.8-6.6,4.5-6.6c1,0,1.8,0.3,2.7,0.8V440c0-2.1-1-3.3-2.9-3.3c-1.2,0-2.4,0.5-3.4,1
		v-4.4c1.4-0.6,2.9-0.9,4.1-0.9c2.2,0,3.7,0.5,4.8,1.7c1.2,1.2,1.8,3.1,1.8,5.6v13.8h-4.5v-2.2c-0.8,1.7-1.9,2.6-3.4,2.6
		C441.1,453.9,439.5,451.5,439.5,447.7z M446.8,448v-3.6c-0.3-0.2-1-0.4-1.4-0.4c-0.9,0-1.5,0.8-1.5,2.8v0.5c0,2.1,0.6,2.7,1.4,2.7
		C446,450,446.8,449.4,446.8,448z"/>
	<path class="st0" d="M453.5,448.5v-15.8h4.5v14.7c0,1.5,0.6,2.4,1.5,2.4c0.9,0,1.6-0.9,1.6-2.4v-14.7h4.5v20.8H461V451
		c-0.8,1.6-1.8,2.9-3.6,2.9C454.8,453.9,453.5,451.6,453.5,448.5z"/>
	<path class="st0" d="M467.6,443.6v-1c0-6.7,2.8-10.3,6.2-10.3c3.5,0,5.8,3.6,5.8,10.5v2.4h-7.5c0.3,3.3,1.6,4.4,3.1,4.4
		c1.4,0,2.2-0.6,3.6-1.5l0.3,4.2c-1.6,1-2.8,1.6-4.5,1.6C470.8,453.9,467.6,450.4,467.6,443.6z M475.3,441.6c0-3.5-0.5-5.2-1.6-5.2
		c-1,0-1.7,1.5-1.8,5.2H475.3z"/>
	<path class="st0" d="M481.4,432.7h4.5v2.6c0.6-1.8,1.6-3,3.3-2.8v5.5h-0.1c-2.1,0-3.2,1.5-3.2,4.4v11.1h-4.5V432.7z"/>
	<path class="st0" d="M491.4,432.7h5.3v5.4h-5.3V432.7z M491.4,448.1h5.3v5.4h-5.3V448.1z"/>
	<path class="st0" d="M277.8,461.1h5.1v0.9h-4.2v6.3h3.8v0.9h-3.8v6.4h4.3v0.9h-5.2V461.1z"/>
	<path class="st0" d="M284.9,461h1v1.5h-1V461z M284.9,465h0.9v11.6h-0.9V465z"/>
	<path class="st0" d="M288.2,465h0.9v1.7c0.4-1,1.1-1.9,2.3-1.9c1.5,0,2.6,1.3,2.6,3.7v8.1h-0.9v-8c0-1.9-0.7-2.9-1.9-2.9
		c-1.2,0-2.2,1.3-2.2,3.1v7.8h-0.9V465z"/>
	<path class="st0" d="M299.8,472.6v-11.4h1v11.5c0,2.1,0.9,3.3,2.3,3.3c1.4,0,2.3-1.2,2.3-3.3v-11.5h1v11.4c0,2.6-1.3,4.2-3.3,4.2
		S299.8,475.1,299.8,472.6z"/>
	<path class="st0" d="M308,476.1v-1c0.8,0.4,1.6,0.7,2.3,0.7c1,0,1.7-0.6,1.7-1.7v0c0-0.8-0.5-1.6-1.8-2.9c-1.7-1.6-2.2-2.5-2.2-3.7
		v0c0-1.6,1.2-2.5,2.6-2.5c0.8,0,1.3,0.1,1.9,0.4v1c-0.6-0.3-1.3-0.5-1.9-0.5c-0.9,0-1.6,0.6-1.6,1.6v0c0,0.8,0.4,1.5,1.8,2.8
		c1.6,1.6,2.2,2.6,2.2,3.8v0c0,1.6-1.3,2.6-2.7,2.6C309.4,476.7,308.8,476.5,308,476.1z"/>
	<path class="st0" d="M314.2,471v-0.2c0-4,1.4-6,3.1-6c1.7,0,3,2,3,5.7v0.7h-5.2c0,3.1,1.3,4.7,2.8,4.7c0.7,0,1.2-0.2,2-0.7l0.1,0.9
		c-0.8,0.5-1.3,0.6-2.2,0.6C315.9,476.7,314.2,474.8,314.2,471z M319.4,470.3c0-2.7-0.9-4.7-2.1-4.7c-1.2,0-2.1,1.6-2.2,4.7H319.4z"
		/>
	<path class="st0" d="M322.2,465h0.9v1.7c0.4-1.1,1.3-1.9,2.7-1.8v1h0c-1.4,0-2.6,0.9-2.6,2.9v7.7h-0.9V465z"/>
	<path class="st0" d="M330.2,465h0.9l2.2,10l2.3-10h0.9l-2.8,11.6H333L330.2,465z"/>
	<path class="st0" d="M337.4,471v-0.2c0-4,1.4-6,3.1-6c1.7,0,3,2,3,5.7v0.7h-5.2c0,3.1,1.3,4.7,2.8,4.7c0.7,0,1.2-0.2,2-0.7l0.1,0.9
		c-0.8,0.5-1.3,0.6-2.2,0.6C339.1,476.7,337.4,474.8,337.4,471z M342.6,470.3c0-2.7-0.9-4.7-2.1-4.7c-1.2,0-2.1,1.6-2.2,4.7H342.6z"
		/>
	<path class="st0" d="M345.4,465h0.9v1.7c0.4-1.1,1.3-1.9,2.7-1.8v1h0c-1.4,0-2.6,0.9-2.6,2.9v7.7h-0.9V465z"/>
	<path class="st0" d="M351.4,474.3v2.2h-0.9V461h0.9v6.2c0.5-1.3,1.2-2.4,2.4-2.4c1.6,0,3,2,3,5.7v0.4c0,3.7-1.4,5.7-3,5.7
		C352.6,476.7,351.8,475.6,351.4,474.3z M355.8,471v-0.4c0-3.2-1-5-2.2-5c-1.1,0-2.3,1.8-2.3,4.9v0.5c0,3.1,1.2,4.9,2.3,4.9
		C354.8,475.9,355.8,474.1,355.8,471z"/>
	<path class="st0" d="M358.6,465h0.9v1.7c0.4-1.1,1.3-1.9,2.7-1.8v1h0c-1.4,0-2.6,0.9-2.6,2.9v7.7h-0.9V465z"/>
	<path class="st0" d="M362.7,473.2V473c0-2.1,1.1-3.7,3-3.7c0.8,0,1.4,0.2,1.9,0.4v-1.5c0-1.6-0.7-2.6-2.2-2.6
		c-0.8,0-1.4,0.2-2.1,0.5v-0.9c0.6-0.3,1.3-0.5,2.1-0.5c0.9,0,1.6,0.3,2.2,0.8c0.5,0.5,0.8,1.4,0.8,2.5v8.4h-0.9v-1.7
		c-0.5,1.1-1.2,1.9-2.3,1.9C363.7,476.7,362.7,475.2,362.7,473.2z M367.5,472.9v-2.3c-0.6-0.3-1.2-0.5-1.9-0.5
		c-1.4,0-2.1,1.2-2.1,2.8v0.2c0,1.6,0.6,2.8,1.8,2.8C366.7,475.9,367.5,474.5,367.5,472.9z"/>
	<path class="st0" d="M370.2,470.9v-0.2c0-4,1.7-5.9,3.5-5.9c0.6,0,1,0.2,1.4,0.4v1c-0.4-0.3-0.8-0.5-1.4-0.5
		c-1.2,0-2.5,1.5-2.5,4.9v0.3c0,3.5,1.3,4.9,2.6,4.9c0.5,0,0.9-0.2,1.3-0.5v1c-0.4,0.3-0.8,0.4-1.4,0.4
		C371.9,476.7,370.2,474.9,370.2,470.9z"/>
	<path class="st0" d="M376.7,461h0.9v5.7c0.4-1,1.1-1.9,2.3-1.9c1.5,0,2.6,1.3,2.6,3.7v8.1h-0.9v-8c0-1.9-0.7-2.9-1.9-2.9
		c-1.2,0-2.2,1.3-2.2,3.1v7.8h-0.9V461z"/>
	<path class="st0" d="M385,474.6v-8.8h-1.1V465h1.1v-3.3h0.9v3.3h1.8v0.9h-1.8v8.6c0,1,0.5,1.3,1.2,1.3c0.2,0,0.5,0,0.7-0.1v0.9
		c-0.2,0.1-0.5,0.1-0.8,0.1C385.8,476.6,385,476.1,385,474.6z"/>
	<path class="st0" d="M388.8,471v-0.2c0-4,1.4-6,3.1-6c1.7,0,3,2,3,5.7v0.7h-5.2c0,3.1,1.3,4.7,2.8,4.7c0.7,0,1.2-0.2,2-0.7l0.1,0.9
		c-0.8,0.5-1.3,0.6-2.2,0.6C390.5,476.7,388.8,474.8,388.8,471z M394,470.3c0-2.7-0.9-4.7-2.1-4.7c-1.2,0-2.1,1.6-2.2,4.7H394z"/>
	<path class="st0" d="M399.8,475.9l3.7-7.6c0.7-1.4,1.1-2.5,1.1-3.8c0-1.5-0.8-2.5-2.1-2.5c-0.9,0-1.6,0.3-2.2,0.7v-1
		c0.6-0.4,1.3-0.6,2.2-0.6c1.9,0,3,1.4,3,3.4v0.1c0,1.5-0.5,2.7-1.3,4.4l-3.2,6.8h4.6v0.9h-5.8V475.9z"/>
	<path class="st0" d="M407.2,469v-0.4c0-5.5,1.3-7.7,3.2-7.7c1.9,0,3.2,2.2,3.2,7.7v0.4c0,5.5-1.3,7.7-3.2,7.7
		C408.5,476.7,407.2,474.5,407.2,469z M412.6,469v-0.4c0-4.6-0.9-6.8-2.2-6.8c-1.3,0-2.2,2.2-2.2,6.8v0.4c0,4.6,0.9,6.8,2.2,6.8
		C411.7,475.8,412.6,473.6,412.6,469z"/>
	<path class="st0" d="M416.2,462.3l-1.6,0.9v-1.1l1.7-1h0.8v15.4h-0.9V462.3z"/>
	<path class="st0" d="M419.4,476.3v-0.9c0.4,0.2,1,0.4,1.8,0.4c1.5,0,2.7-1.6,2.7-4v-0.1c0-2.6-1.1-3.4-2.4-3.4
		c-0.6,0-1,0.1-1.5,0.3l-0.6-0.4l0.3-7h4.6v0.9h-3.8l-0.2,5.5c0.4-0.2,0.8-0.3,1.3-0.3c1.7,0,3.2,1.3,3.2,4.3v0.1c0,2.9-1.6,5-3.7,5
		C420.3,476.7,419.8,476.5,419.4,476.3z"/>
	<path class="st0" d="M430.5,461h1v1.5h-1V461z M430.5,465h0.9v11.6h-0.9V465z"/>
	<path class="st0" d="M433.8,465h0.9v1.7c0.4-1,1.1-1.9,2.3-1.9c1.2,0,1.9,0.9,2.2,2c0.4-0.9,1.1-2,2.5-2c1.6,0,2.6,1.3,2.6,3.6v8.1
		h-0.9v-8c0-1.9-0.7-2.9-1.8-2.9c-1.2,0-2.1,1.2-2.1,3.1v7.9h-0.9v-8c0-1.9-0.7-2.9-1.8-2.9c-1.2,0-2.1,1.2-2.1,3.1v7.9h-0.9V465z"
		/>
	<path class="st0" d="M449.7,475.9v-1.1c1,0.7,1.9,1,2.6,1c1.3,0,2.1-0.9,2.1-2.2v0c0-1.3-0.5-2.1-2.1-4.4c-2-2.8-2.5-3.6-2.5-5v0
		c0-1.8,1.3-3.1,3-3.1c0.9,0,1.6,0.2,2.3,0.7v1.1c-0.8-0.6-1.6-0.9-2.3-0.9c-1.2,0-2,0.9-2,2.2v0c0,1.1,0.5,2,2.1,4.2
		c1.8,2.4,2.5,3.6,2.5,5.2v0c0,2-1.3,3.2-3.1,3.2C451.4,476.7,450.6,476.4,449.7,475.9z"/>
	<path class="st0" d="M456.8,470.9v-0.2c0-4,1.7-5.9,3.5-5.9c0.6,0,1,0.2,1.4,0.4v1c-0.4-0.3-0.8-0.5-1.4-0.5
		c-1.2,0-2.5,1.5-2.5,4.9v0.3c0,3.5,1.3,4.9,2.6,4.9c0.5,0,0.9-0.2,1.3-0.5v1c-0.4,0.3-0.8,0.4-1.4,0.4
		C458.5,476.7,456.8,474.9,456.8,470.9z"/>
	<path class="st0" d="M463.4,461h0.9v5.7c0.4-1,1.1-1.9,2.3-1.9c1.5,0,2.6,1.3,2.6,3.7v8.1h-0.9v-8c0-1.9-0.7-2.9-1.9-2.9
		c-1.2,0-2.2,1.3-2.2,3.1v7.8h-0.9V461z"/>
	<path class="st0" d="M471.4,465h0.9v1.7c0.4-1,1.1-1.9,2.3-1.9c1.5,0,2.6,1.3,2.6,3.7v8.1h-0.9v-8c0-1.9-0.7-2.9-1.9-2.9
		c-1.2,0-2.2,1.3-2.2,3.1v7.8h-0.9V465z"/>
	<path class="st0" d="M479.5,461h1v1.5h-1V461z M479.6,465h0.9v11.6h-0.9V465z"/>
	<path class="st0" d="M483.2,474.6v-8.8h-1.1V465h1.1v-3.3h0.9v3.3h1.8v0.9h-1.8v8.6c0,1,0.5,1.3,1.2,1.3c0.2,0,0.5,0,0.7-0.1v0.9
		c-0.2,0.1-0.5,0.1-0.8,0.1C484,476.6,483.2,476.1,483.2,474.6z"/>
	<path class="st0" d="M488,474.6v-8.8h-1.1V465h1.1v-3.3h0.9v3.3h1.8v0.9h-1.8v8.6c0,1,0.5,1.3,1.2,1.3c0.2,0,0.5,0,0.7-0.1v0.9
		c-0.2,0.1-0.5,0.1-0.8,0.1C488.8,476.6,488,476.1,488,474.6z"/>
	<path class="st0" d="M277.3,499.4v-2.6c0.5,0.3,1.1,0.5,1.7,0.5c1.2,0,1.9-1,1.9-2.7v-0.2c0-1.6-0.6-2.2-1.4-2.2
		c-0.4,0-0.7,0.1-1,0.2l-1.3-0.9l0.4-7.4h5.4v2.6h-3.4l-0.2,3.1c0.3-0.1,0.6-0.1,1-0.1c1.6,0,3.2,1.2,3.2,4.6v0.2
		c0,3.3-1.7,5.2-4.2,5.2C278.5,499.8,277.7,499.6,277.3,499.4z"/>
	<path class="st0" d="M288.6,493.7c-0.5,0.5-1,0.6-1.7,0.6c-1.4,0-2.8-1.1-2.8-4.6v-0.4c0-3.3,1.5-5.4,3.5-5.4
		c0.8,0,1.5,0.2,2.1,0.8c1,1,1.5,3.1,1.5,6.4v0.6c0,6.4-1.8,8.1-4.3,8.1c-0.8,0-1.4-0.2-2-0.4v-2.5c0.5,0.3,1.2,0.5,1.8,0.5
		C287.8,497.4,288.6,496.5,288.6,493.7z M288.6,491.7v-2.1c0-2.4-0.4-3.3-1-3.3c-0.6,0-1,0.8-1,2.9v0.4c0,1.9,0.4,2.5,1.1,2.5
		C288.1,492.1,288.4,491.9,288.6,491.7z"/>
	<path class="st0" d="M291.8,502.1c1.6-0.4,1.9-1.5,1.8-2.5h-1.3v-3.1h3v2.5c0,2.3-1.1,3.8-3.2,4.1L291.8,502.1z"/>
	<path class="st0" d="M296.6,497.3l2.7-5.9c0.9-1.9,1.1-2.7,1.1-3.4c0-0.8-0.5-1.5-1.4-1.5c-0.8,0-1.5,0.4-2.1,0.7v-2.6
		c0.7-0.4,1.6-0.7,2.7-0.7c2.1,0,3.4,1.3,3.4,3.6v0.1c0,1.2-0.3,2.4-1.2,4.2l-2.4,5.1h3.5v2.6h-6.4V497.3z"/>
	<path class="st0" d="M307.5,484.2h2.7l1.8,5.9l1.8-5.9h2.7v15.4H314v-9.4l-1.9,5.9h0l-1.9-5.9v9.4h-2.5V484.2z"/>
	<path class="st0" d="M318,484.1h2.6v2.6H318V484.1z M318,487.8h2.5v11.8H318V487.8z"/>
	<path class="st0" d="M322,487.8h2.5v1.4c0.5-0.9,1-1.6,2.1-1.6c1.5,0,2.2,1.3,2.2,3.1v8.9h-2.5v-8.3c0-0.9-0.3-1.3-0.8-1.3
		s-0.9,0.5-0.9,1.3v8.3H322V487.8z"/>
	<path class="st0" d="M330.1,496.7v-8.9h2.5v8.3c0,0.9,0.3,1.3,0.8,1.3s0.9-0.5,0.9-1.3v-8.3h2.5v11.8h-2.5v-1.4
		c-0.5,0.9-1,1.6-2.1,1.6C330.9,499.8,330.1,498.5,330.1,496.7z"/>
	<path class="st0" d="M338.7,497.6v-7.7H338v-2.1h0.7v-3h2.5v3h1.4v2.1h-1.4v6.8c0,0.5,0.3,0.7,0.7,0.7c0.2,0,0.4,0,0.6-0.1v2.1
		c-0.4,0.2-1,0.4-1.5,0.4C339.8,499.7,338.7,499.3,338.7,497.6z"/>
	<path class="st0" d="M343.1,494v-0.6c0-3.8,1.6-5.8,3.5-5.8c2,0,3.3,2,3.3,5.9v1.4h-4.3c0.2,1.8,0.9,2.5,1.8,2.5
		c0.8,0,1.3-0.3,2-0.9l0.2,2.4c-0.9,0.6-1.6,0.9-2.5,0.9C344.9,499.8,343.1,497.8,343.1,494z M347.5,492.8c0-2-0.3-2.9-0.9-2.9
		c-0.6,0-1,0.8-1,2.9H347.5z"/>
	<path class="st0" d="M351,487.8h2.5v1.4c0.5-0.9,1-1.6,2.1-1.6c1.5,0,2.2,1.3,2.2,3.1v8.9h-2.5v-8.3c0-0.9-0.3-1.3-0.8-1.3
		s-0.9,0.5-0.9,1.3v8.3H351V487.8z"/>
	<path class="st0" d="M363.2,488h0.9v2.2c0.5-1.3,1.2-2.4,2.4-2.4c1.6,0,3,2,3,5.7v0.4c0,3.7-1.4,5.7-3,5.7c-1.1,0-1.9-1.1-2.4-2.4
		v5.1h-0.9V488z M368.5,494v-0.4c0-3.2-1-5-2.2-5c-1.1,0-2.3,1.8-2.3,4.9v0.5c0,3.1,1.2,4.9,2.3,4.9
		C367.5,498.9,368.5,497.2,368.5,494z"/>
	<path class="st0" d="M371.3,488h0.9v1.7c0.4-1.1,1.3-1.9,2.7-1.8v1h0c-1.4,0-2.6,0.9-2.6,2.9v7.7h-0.9V488z"/>
	<path class="st0" d="M375.4,493.9v-0.2c0-3.6,1.5-5.9,3.2-5.9c1.7,0,3.2,2.2,3.2,5.9v0.2c0,3.6-1.5,5.9-3.2,5.9
		C377,499.8,375.4,497.5,375.4,493.9z M381,493.9v-0.2c0-3-1-5-2.3-5s-2.3,2-2.3,5v0.2c0,3,1,5,2.3,5S381,496.9,381,493.9z"/>
	<path class="st0" d="M387.3,484.2h1.2l2.8,8.6l2.8-8.6h1.1v15.4h-0.9v-13.3l-3,9h-0.1l-3-9v13.3h-0.9V484.2z"/>
	<path class="st0" d="M397.2,493.9v-0.2c0-3.6,1.5-5.9,3.2-5.9c1.7,0,3.2,2.2,3.2,5.9v0.2c0,3.6-1.5,5.9-3.2,5.9
		C398.7,499.8,397.2,497.5,397.2,493.9z M402.7,493.9v-0.2c0-3-1-5-2.3-5s-2.3,2-2.3,5v0.2c0,3,1,5,2.3,5S402.7,496.9,402.7,493.9z"
		/>
	<path class="st0" d="M405.4,488h0.9v1.7c0.4-1,1.1-1.9,2.3-1.9c1.5,0,2.6,1.3,2.6,3.7v8.1h-0.9v-8c0-1.9-0.7-2.9-1.9-2.9
		c-1.2,0-2.2,1.3-2.2,3.1v7.8h-0.9V488z"/>
	<path class="st0" d="M412.9,496.2V496c0-2.1,1.1-3.7,3-3.7c0.8,0,1.4,0.2,1.9,0.4v-1.5c0-1.6-0.7-2.6-2.2-2.6
		c-0.8,0-1.4,0.2-2.1,0.5v-0.9c0.6-0.3,1.3-0.5,2.1-0.5c0.9,0,1.6,0.3,2.2,0.8c0.5,0.5,0.8,1.4,0.8,2.5v8.4h-0.9v-1.7
		c-0.5,1.1-1.2,1.9-2.3,1.9C414,499.8,412.9,498.3,412.9,496.2z M417.8,496v-2.3c-0.6-0.3-1.2-0.5-1.9-0.5c-1.4,0-2.1,1.2-2.1,2.8
		v0.2c0,1.6,0.6,2.8,1.8,2.8C417,499,417.8,497.5,417.8,496z"/>
	<path class="st0" d="M421.2,497.6v-8.8h-1.1V488h1.1v-3.3h0.9v3.3h1.8v0.9h-1.8v8.6c0,1,0.5,1.3,1.2,1.3c0.2,0,0.5,0,0.7-0.1v0.9
		c-0.2,0.1-0.5,0.1-0.8,0.1C421.9,499.7,421.2,499.1,421.2,497.6z"/>
	<path class="st0" d="M428.7,496.2V496c0-2.1,1.1-3.7,3-3.7c0.8,0,1.4,0.2,1.9,0.4v-1.5c0-1.6-0.7-2.6-2.2-2.6
		c-0.8,0-1.4,0.2-2.1,0.5v-0.9c0.6-0.3,1.3-0.5,2.1-0.5c0.9,0,1.6,0.3,2.2,0.8c0.5,0.5,0.8,1.4,0.8,2.5v8.4h-0.9v-1.7
		c-0.5,1.1-1.2,1.9-2.3,1.9C429.7,499.8,428.7,498.3,428.7,496.2z M433.6,496v-2.3c-0.6-0.3-1.2-0.5-1.9-0.5c-1.4,0-2.1,1.2-2.1,2.8
		v0.2c0,1.6,0.6,2.8,1.8,2.8C432.8,499,433.6,497.5,433.6,496z"/>
	<path class="st0" d="M436.6,496.1V488h0.9v8c0,1.9,0.7,2.9,1.9,2.9c1.2,0,2.2-1.3,2.2-3.1V488h0.9v11.6h-0.9v-1.7
		c-0.4,1-1.1,1.9-2.3,1.9C437.7,499.8,436.6,498.5,436.6,496.1z"/>
	<path class="st0" d="M445.2,488.9H444V488h1.2v-1.3c0-1,0.2-1.7,0.7-2.1c0.4-0.4,0.9-0.6,1.5-0.6c0.2,0,0.5,0,0.7,0.1v0.9
		c-0.2,0-0.5-0.1-0.6-0.1c-0.9,0-1.3,0.6-1.3,1.8v1.3h1.9v0.9h-1.9v10.7h-0.9V488.9z"/>
	<path class="st0" d="M453,484.2h1.9c1.3,0,2.3,0.4,3,1.2c0.6,0.6,1,1.6,1,2.7v0c0,2.3-1.3,3.3-2.8,3.7c1.8,0.4,3,1.7,3,3.8v0
		c0,2.5-1.8,4-4.6,4H453V484.2z M458,488.1c0-1.9-1.3-3-3.1-3h-1v6.3h0.7C456.8,491.4,458,490.1,458,488.1L458,488.1z M454.7,492.3
		h-0.8v6.4h0.6c2.3,0,3.7-1.1,3.7-3.1v0C458.2,493.4,456.9,492.3,454.7,492.3z"/>
	<path class="st0" d="M461.2,484.2h1v15.4h-1V484.2z"/>
	<path class="st0" d="M464.7,484.2h1v14.5h3.8v0.9h-4.8V484.2z"/>
	<path class="st0" d="M470.8,484.2h1.8c2.8,0,4.8,2.6,4.8,7.5v0.4c0,4.9-2,7.5-4.8,7.5h-1.8V484.2z M471.8,485.1v13.6h0.9
		c2.3,0,3.9-2.3,3.9-6.6v-0.4c0-4.4-1.7-6.6-3.9-6.6H471.8z"/>
	<path class="st0" d="M479,497.8h1.3v1.8H479V497.8z"/>
	<path class="st0" d="M481.9,494v-0.4c0-3.7,1.4-5.7,3-5.7c1.1,0,1.9,1.1,2.4,2.4V484h0.9v15.6h-0.9v-2.2c-0.5,1.3-1.2,2.4-2.4,2.4
		C483.3,499.8,481.9,497.7,481.9,494z M487.3,494.1v-0.5c0-3.1-1.2-4.9-2.3-4.9c-1.2,0-2.2,1.8-2.2,5v0.4c0,3.2,1,5,2.2,5
		C486.1,498.9,487.3,497.2,487.3,494.1z"/>
	<path class="st0" d="M490,494v-0.2c0-4,1.4-6,3.1-6c1.7,0,3,2,3,5.7v0.7h-5.2c0,3.1,1.3,4.7,2.8,4.7c0.7,0,1.2-0.2,2-0.7l0.1,0.9
		c-0.8,0.5-1.3,0.6-2.2,0.6C491.7,499.7,490,497.8,490,494z M495.2,493.4c0-2.7-0.9-4.7-2.1-4.7c-1.2,0-2.1,1.6-2.2,4.7H495.2z"/>
</g>
<g>
	<path class="st0" d="M275.8,235.5v-13.3c2.9,1.1,5.4,1.8,9,1.8c4.5,0,7.6-2.9,7.6-7.6V216c0-5.5-4.3-8-11.9-8.5v-9.2l10.6-14h-14.4
		v-13.4h29.1v12.3l-11.4,15c6.6,2.2,11.8,6.6,11.8,17.2v0.8c0,13.2-8.1,21-19.3,21C282.2,237.4,278.8,236.7,275.8,235.5z"/>
	<path class="st0" d="M308.8,235.5v-13.3c2.9,1.1,5.4,1.8,9,1.8c4.5,0,7.6-2.9,7.6-7.6V216c0-5.5-4.3-8-11.9-8.5v-9.2l10.6-14h-14.4
		v-13.4h29.1v12.3l-11.4,15c6.6,2.2,11.8,6.6,11.8,17.2v0.8c0,13.2-8.1,21-19.3,21C315.1,237.4,311.8,236.7,308.8,235.5z"/>
	<path class="st0" d="M342.1,205.7v-4c0-21.8,6.6-32,18.4-32c11.6,0,18.3,10.1,18.3,31.9v4c0,21.8-6.7,32-18.3,32
		C348.6,237.6,342.1,227.5,342.1,205.7z M364.8,206.4v-5.6c0-15.4-1.8-18.2-4.4-18.2s-4.4,2.8-4.4,18.2v5.6
		c0,15.3,1.8,18.1,4.4,18.1S364.8,221.8,364.8,206.4z"/>
	<path class="st0" d="M382.2,221.2h15v15.1h-15V221.2z"/>
	<path class="st0" d="M415.2,184.6h-15.4v-13.7h29.5v9l-12.1,56.5h-13.6L415.2,184.6z"/>
	<path class="st0" d="M431.4,205.7v-4c0-21.8,6.6-32,18.4-32c11.6,0,18.3,10.1,18.3,31.9v4c0,21.8-6.7,32-18.3,32
		C438,237.6,431.4,227.5,431.4,205.7z M454.2,206.4v-5.6c0-15.4-1.8-18.2-4.4-18.2s-4.4,2.8-4.4,18.2v5.6c0,15.3,1.8,18.1,4.4,18.1
		S454.2,221.8,454.2,206.4z"/>
	<path class="st0" d="M489.5,225.2h-18.6v-10.1l17.9-44.3h13.9v42.5h5.3v11.9h-5.3v11.1h-13.2V225.2z M489.7,213.3v-20.9l-7.5,20.9
		H489.7z"/>
	<path class="st0" d="M511.2,221.2h15v15.1h-15V221.2z"/>
	<path class="st0" d="M548.9,212.2c-2.1,1.4-4.5,2.1-7.2,2.1c-6.7,0-13.5-4.1-13.5-19.3v-2.2c0-15.1,7.3-23.1,16.7-23.1
		c4.3,0,7.8,1.2,10.6,4c4.6,4.6,6.9,13.5,6.9,27.7v1.9c0,27-9.5,34-21,34c-3.7,0-7-0.7-9.7-1.7v-12.7c2.4,1.1,5.5,2.1,8.6,2.1
		C545.3,224.9,548.5,221.8,548.9,212.2z M548.9,202.3v-9.3c0-8.7-1.6-11.5-3.8-11.5c-2.3,0-3.7,2.4-3.7,10.6v2.3c0,7.1,1.7,9,4.3,9
		C546.9,203.4,548,203,548.9,202.3z"/>
	<path class="st0" d="M565.5,218.5v-0.7c0-7.7,3.3-13.1,7.4-16c-4.1-3-6.6-7.9-6.6-13.9v-0.7c0-10.5,7-17.5,16.6-17.5
		c9.5,0,16.6,6.9,16.6,17.4v0.7c0,6-2.5,10.9-6.7,13.9c4.2,2.9,7.5,8.2,7.5,16v0.7c0,11.8-7,19.2-17.4,19.2
		C572.4,237.6,565.5,230.3,565.5,218.5z M586.7,217.5v-0.8c0-6.6-1.6-9.1-3.9-9.1s-4,2.4-4,9.1v0.8c0,6.8,1.8,9,4,9
		C585,226.4,586.7,224.3,586.7,217.5z M586.4,189.2v-0.7c0-6.1-1.6-7.9-3.7-7.9s-3.7,1.9-3.7,7.9v0.7c0,5.6,1.4,8,3.7,8
		C584.9,197.3,586.4,194.8,586.4,189.2z"/>
	<path class="st0" d="M623,212.2c-2.1,1.4-4.5,2.1-7.2,2.1c-6.7,0-13.5-4.1-13.5-19.3v-2.2c0-15.1,7.3-23.1,16.7-23.1
		c4.3,0,7.8,1.2,10.6,4c4.6,4.6,6.9,13.5,6.9,27.7v1.9c0,27-9.5,34-21,34c-3.7,0-7-0.7-9.7-1.7v-12.7c2.4,1.1,5.5,2.1,8.6,2.1
		C619.5,224.9,622.7,221.8,623,212.2z M623,202.3v-9.3c0-8.7-1.6-11.5-3.8-11.5c-2.3,0-3.7,2.4-3.7,10.6v2.3c0,7.1,1.7,9,4.3,9
		C621.1,203.4,622.2,203,623,202.3z"/>
</g>
<g>
	<path class="st0" d="M287.1,347.7h-9.7v-8.8H296v5.8l-7.6,36.3h-8.6L287.1,347.7z"/>
	<path class="st0" d="M297.3,361.2v-2.6c0-14,4.2-20.6,11.6-20.6c7.3,0,11.5,6.5,11.5,20.5v2.6c0,14-4.2,20.6-11.6,20.6
		C301.5,381.7,297.3,375.2,297.3,361.2z M311.7,361.7v-3.6c0-9.9-1.1-11.7-2.8-11.7s-2.8,1.8-2.8,11.7v3.6c0,9.9,1.1,11.7,2.8,11.7
		S311.7,371.6,311.7,361.7z"/>
	<path class="st0" d="M322.7,350.8v-1.1c0-7.5,2.7-11.2,6.8-11.2c4.1,0,6.9,3.8,6.9,11.2v1.1c0,7.3-2.8,11.2-6.9,11.2
		C325.4,362,322.7,358.2,322.7,350.8z M346,338.9h4.7l-10.1,21.5l-9.4,20.6h-4.7l10-21.5L346,338.9z M328,349.3v1.9
		c0,4.3,0.5,5.5,1.5,5.5s1.6-1.2,1.6-5.5v-1.9c0-4.3-0.5-5.5-1.6-5.5S328,345,328,349.3z M340.6,370.1V369c0-7.3,2.8-11.2,6.8-11.2
		c4.1,0,6.9,3.8,6.9,11.2v1.1c0,7.4-2.8,11.2-6.9,11.2C343.3,381.4,340.6,377.5,340.6,370.1z M349,370.5v-1.9c0-4.3-0.5-5.5-1.6-5.5
		s-1.5,1.3-1.5,5.5v1.9c0,4.3,0.5,5.5,1.5,5.5S349,374.8,349,370.5z"/>
</g>
<g>
	<path class="st0" d="M276.7,158.2h1.1c0.7,0,1.3,0.2,1.7,0.6c0.4,0.4,0.6,1,0.6,1.8v0c0,1.1-0.5,1.9-1.2,2.2l1.4,3.4h-0.8l-1.3-3.2
		c-0.1,0-0.2,0-0.3,0h-0.4v3.1h-0.7V158.2z M277.8,162.5c1,0,1.6-0.6,1.6-1.8v0c0-1.2-0.7-1.8-1.6-1.8h-0.3v3.6H277.8z"/>
	<path class="st0" d="M280.7,163.3v-0.2c0-2.1,0.8-3.1,1.7-3.1c0.9,0,1.6,1.1,1.6,3v0.5h-2.6c0,1.5,0.6,2.1,1.3,2.1
		c0.4,0,0.6-0.1,1-0.4l0.1,0.7c-0.4,0.3-0.7,0.4-1.2,0.4C281.6,166.4,280.7,165.3,280.7,163.3z M283.3,162.9c0-1.3-0.4-2.2-0.9-2.2
		s-1,0.7-1,2.2H283.3z"/>
	<path class="st0" d="M284.9,158.1h0.7v0.9h-0.7V158.1z M284.9,160.2h0.7v6.1h-0.7V160.2z"/>
	<path class="st0" d="M286.5,163.3v-0.2c0-2.1,0.9-3,1.8-3c0.3,0,0.6,0.1,0.7,0.2v0.8c-0.2-0.2-0.4-0.3-0.7-0.3
		c-0.6,0-1.2,0.7-1.2,2.3v0.2c0,1.7,0.6,2.3,1.2,2.3c0.2,0,0.5-0.1,0.7-0.3v0.7c-0.2,0.1-0.4,0.2-0.8,0.2
		C287.4,166.4,286.5,165.4,286.5,163.3z"/>
	<path class="st0" d="M289.9,158.1h0.7v2.9c0.2-0.5,0.6-1,1.2-1c0.8,0,1.3,0.7,1.3,1.8v4.4h-0.7V162c0-0.9-0.3-1.3-0.8-1.3
		c-0.5,0-1,0.6-1,1.4v4.2h-0.7V158.1z"/>
	<path class="st0" d="M293.8,160.2h0.7l0.8,4.8l0.9-4.8h0.6l0.9,4.8l0.8-4.8h0.7l-1.2,6.1h-0.7l-0.9-4.7l-0.9,4.7H295L293.8,160.2z"
		/>
	<path class="st0" d="M299.6,163.3v-0.2c0-2.1,0.8-3.1,1.7-3.1c0.9,0,1.6,1.1,1.6,3v0.5h-2.6c0,1.5,0.6,2.1,1.3,2.1
		c0.4,0,0.6-0.1,1-0.4l0.1,0.7c-0.4,0.3-0.7,0.4-1.2,0.4C300.5,166.4,299.6,165.3,299.6,163.3z M302.2,162.9c0-1.3-0.4-2.2-0.9-2.2
		s-1,0.7-1,2.2H302.2z"/>
	<path class="st0" d="M303.8,158.1h0.7v0.9h-0.7V158.1z M303.8,160.2h0.7v6.1h-0.7V160.2z"/>
	<path class="st0" d="M305.8,165.2v-4.4h-0.5v-0.6h0.5v-1.7h0.7v1.7h0.9v0.6h-0.9v4.3c0,0.5,0.2,0.6,0.6,0.6c0.1,0,0.2,0,0.4-0.1
		v0.6c-0.1,0.1-0.4,0.1-0.5,0.1C306.3,166.3,305.8,166.1,305.8,165.2z"/>
	<path class="st0" d="M307.9,163.3v-0.2c0-2.1,0.8-3.1,1.7-3.1c0.9,0,1.6,1.1,1.6,3v0.5h-2.6c0,1.5,0.6,2.1,1.3,2.1
		c0.4,0,0.6-0.1,1-0.4l0.1,0.7c-0.4,0.3-0.7,0.4-1.2,0.4C308.8,166.4,307.9,165.3,307.9,163.3z M310.5,162.9c0-1.3-0.4-2.2-0.9-2.2
		s-1,0.7-1,2.2H310.5z"/>
	<path class="st0" d="M312.1,160.2h0.7v0.9c0.2-0.5,0.6-1,1.2-1c0.8,0,1.3,0.7,1.3,1.8v4.4h-0.7V162c0-0.9-0.3-1.3-0.8-1.3
		c-0.5,0-1,0.6-1,1.4v4.2h-0.7V160.2z"/>
	<path class="st0" d="M316.1,166.1v-0.7c0.4,0.2,0.8,0.4,1.2,0.4c0.5,0,0.8-0.3,0.8-0.8v0c0-0.4-0.2-0.8-0.9-1.4
		c-0.8-0.8-1.1-1.3-1.1-1.9v0c0-0.9,0.7-1.4,1.4-1.4c0.4,0,0.7,0.1,1,0.2v0.7c-0.3-0.2-0.6-0.3-1-0.3c-0.4,0-0.8,0.3-0.8,0.7v0
		c0,0.4,0.2,0.7,0.9,1.4c0.8,0.8,1.1,1.3,1.1,2v0c0,0.9-0.7,1.5-1.5,1.5C316.8,166.3,316.4,166.2,316.1,166.1z"/>
	<path class="st0" d="M319.6,165.2v-4.4h-0.5v-0.6h0.5v-1.7h0.7v1.7h0.9v0.6h-0.9v4.3c0,0.5,0.2,0.6,0.6,0.6c0.1,0,0.2,0,0.4-0.1
		v0.6c-0.1,0.1-0.4,0.1-0.5,0.1C320.1,166.3,319.6,166.1,319.6,165.2z"/>
	<path class="st0" d="M321.8,164.5v-0.1c0-1.2,0.6-1.9,1.5-1.9c0.4,0,0.7,0.1,1,0.2V162c0-0.8-0.4-1.2-1.1-1.2
		c-0.4,0-0.7,0.1-1.1,0.3v-0.7c0.4-0.2,0.7-0.3,1.2-0.3c0.5,0,0.9,0.1,1.2,0.5c0.3,0.3,0.5,0.8,0.5,1.4v4.3h-0.7v-0.8
		c-0.2,0.6-0.6,0.9-1.1,0.9C322.3,166.4,321.8,165.6,321.8,164.5z M322.5,158.6h0.7v0.9h-0.7V158.6z M324.2,164.4v-1.2
		c-0.3-0.1-0.5-0.2-0.8-0.2c-0.6,0-0.9,0.5-0.9,1.3v0.1c0,0.8,0.3,1.3,0.8,1.3C323.8,165.7,324.2,165.1,324.2,164.4z M323.7,158.6
		h0.7v0.9h-0.7V158.6z"/>
	<path class="st0" d="M326,160.2h0.7v0.9c0.2-0.5,0.6-1,1.3-0.9v0.8h0c-0.7,0-1.3,0.5-1.3,1.5v3.9H326V160.2z"/>
	<path class="st0" d="M328.7,158.1h0.7v5.2l1.5-3.1h0.8l-1.2,2.5l1.3,3.6h-0.8l-1-2.9l-0.5,1v1.9h-0.7V158.1z"/>
	<path class="st0" d="M332.2,166.1v-0.7c0.4,0.2,0.8,0.4,1.2,0.4c0.5,0,0.8-0.3,0.8-0.8v0c0-0.4-0.2-0.8-0.9-1.4
		c-0.8-0.8-1.1-1.3-1.1-1.9v0c0-0.9,0.7-1.4,1.4-1.4c0.4,0,0.7,0.1,1,0.2v0.7c-0.3-0.2-0.6-0.3-1-0.3c-0.4,0-0.8,0.3-0.8,0.7v0
		c0,0.4,0.2,0.7,0.9,1.4c0.8,0.8,1.1,1.3,1.1,2v0c0,0.9-0.7,1.5-1.5,1.5C332.9,166.3,332.6,166.2,332.2,166.1z"/>
	<path class="st0" d="M335.7,165.2v-4.4h-0.5v-0.6h0.5v-1.7h0.7v1.7h0.9v0.6h-0.9v4.3c0,0.5,0.2,0.6,0.6,0.6c0.1,0,0.2,0,0.4-0.1
		v0.6c-0.1,0.1-0.4,0.1-0.5,0.1C336.2,166.3,335.7,166.1,335.7,165.2z"/>
	<path class="st0" d="M337.8,163.3v-0.2c0-2.1,0.8-3.1,1.7-3.1c0.9,0,1.6,1.1,1.6,3v0.5h-2.6c0,1.5,0.6,2.1,1.3,2.1
		c0.4,0,0.6-0.1,1-0.4l0.1,0.7c-0.4,0.3-0.7,0.4-1.2,0.4C338.7,166.4,337.8,165.3,337.8,163.3z M340.4,162.9c0-1.3-0.4-2.2-0.9-2.2
		s-1,0.7-1,2.2H340.4z"/>
	<path class="st0" d="M341.7,166.1v-0.7c0.4,0.2,0.8,0.4,1.2,0.4c0.5,0,0.8-0.3,0.8-0.8v0c0-0.4-0.2-0.8-0.9-1.4
		c-0.8-0.8-1.1-1.3-1.1-1.9v0c0-0.9,0.7-1.4,1.4-1.4c0.4,0,0.7,0.1,1,0.2v0.7c-0.3-0.2-0.6-0.3-1-0.3c-0.4,0-0.8,0.3-0.8,0.7v0
		c0,0.4,0.2,0.7,0.9,1.4c0.8,0.8,1.1,1.3,1.1,2v0c0,0.9-0.7,1.5-1.5,1.5C342.5,166.3,342.1,166.2,341.7,166.1z"/>
	<path class="st0" d="M347.1,158.2h0.7l2.2,6.1v-6.1h0.7v8.1H350l-2.2-6.3v6.3h-0.7V158.2z"/>
	<path class="st0" d="M351.6,163.3v-0.2c0-2.1,0.8-3.1,1.7-3.1c0.9,0,1.6,1.1,1.6,3v0.5h-2.6c0,1.5,0.6,2.1,1.3,2.1
		c0.4,0,0.6-0.1,1-0.4l0.1,0.7c-0.4,0.3-0.7,0.4-1.2,0.4C352.5,166.4,351.6,165.3,351.6,163.3z M354.2,162.9c0-1.3-0.4-2.2-0.9-2.2
		s-1,0.7-1,2.2H354.2z"/>
	<path class="st0" d="M355.3,160.2h0.7l0.8,4.8l0.9-4.8h0.6l0.9,4.8l0.8-4.8h0.7l-1.2,6.1h-0.7l-0.9-4.7l-0.9,4.7h-0.7L355.3,160.2z
		"/>
	<path class="st0" d="M361.3,166.1v-0.7c0.4,0.2,0.8,0.4,1.2,0.4c0.5,0,0.8-0.3,0.8-0.8v0c0-0.4-0.2-0.8-0.9-1.4
		c-0.8-0.8-1.1-1.3-1.1-1.9v0c0-0.9,0.7-1.4,1.4-1.4c0.4,0,0.7,0.1,1,0.2v0.7c-0.3-0.2-0.6-0.3-1-0.3c-0.4,0-0.8,0.3-0.8,0.7v0
		c0,0.4,0.2,0.7,0.9,1.4c0.8,0.8,1.1,1.3,1.1,2v0c0,0.9-0.7,1.5-1.5,1.5C362,166.3,361.6,166.2,361.3,166.1z"/>
	<path class="st0" d="M364.7,160.2h0.7v1.1c0.2-0.6,0.6-1.2,1.2-1.2c0.8,0,1.5,1,1.5,3v0.3c0,2-0.7,3-1.5,3c-0.6,0-1-0.6-1.2-1.2
		v2.5h-0.7V160.2z M367.4,163.3v-0.3c0-1.5-0.4-2.4-1-2.4c-0.5,0-1,0.8-1,2.3v0.3c0,1.5,0.5,2.3,1,2.3
		C367,165.7,367.4,164.9,367.4,163.3z"/>
	<path class="st0" d="M368.8,163.3v-0.2c0-1.9,0.8-3.1,1.7-3.1c0.9,0,1.7,1.1,1.7,3.1v0.2c0,1.9-0.8,3.1-1.7,3.1
		C369.6,166.4,368.8,165.2,368.8,163.3z M371.5,163.3v-0.2c0-1.5-0.5-2.4-1-2.4c-0.6,0-1,0.9-1,2.4v0.2c0,1.5,0.5,2.4,1,2.4
		C371.1,165.7,371.5,164.8,371.5,163.3z"/>
	<path class="st0" d="M373.1,160.2h0.7v0.9c0.2-0.5,0.6-1,1.3-0.9v0.8h0c-0.7,0-1.3,0.5-1.3,1.5v3.9h-0.7V160.2z"/>
	<path class="st0" d="M376,165.2v-4.4h-0.5v-0.6h0.5v-1.7h0.7v1.7h0.9v0.6h-0.9v4.3c0,0.5,0.2,0.6,0.6,0.6c0.1,0,0.2,0,0.4-0.1v0.6
		c-0.1,0.1-0.4,0.1-0.5,0.1C376.5,166.3,376,166.1,376,165.2z"/>
	<path class="st0" d="M378.1,164.5v-0.1c0-1.2,0.6-1.9,1.5-1.9c0.4,0,0.7,0.1,1,0.2V162c0-0.8-0.4-1.2-1.1-1.2
		c-0.4,0-0.7,0.1-1.1,0.3v-0.7c0.4-0.2,0.7-0.3,1.2-0.3c0.5,0,0.9,0.1,1.2,0.5c0.3,0.3,0.5,0.8,0.5,1.4v4.3h-0.7v-0.8
		c-0.2,0.6-0.6,0.9-1.1,0.9C378.7,166.4,378.1,165.6,378.1,164.5z M380.6,164.4v-1.2c-0.3-0.1-0.5-0.2-0.8-0.2
		c-0.6,0-0.9,0.5-0.9,1.3v0.1c0,0.8,0.3,1.3,0.8,1.3C380.2,165.7,380.6,165.1,380.6,164.4z"/>
	<path class="st0" d="M382.4,158.1h0.7v8.1h-0.7V158.1z"/>
	<path class="st0" d="M386.1,158.1h0.7v0.9h-0.7V158.1z M386.1,160.2h0.7v6.1h-0.7V160.2z"/>
	<path class="st0" d="M388,160.2h0.7v0.9c0.2-0.5,0.6-1,1.2-1c0.8,0,1.3,0.7,1.3,1.8v4.4h-0.7V162c0-0.9-0.3-1.3-0.8-1.3
		c-0.5,0-1,0.6-1,1.4v4.2H388V160.2z"/>
	<path class="st0" d="M394.1,158.2h1c1.6,0,2.6,1.3,2.6,3.9v0.2c0,2.6-1.1,3.9-2.6,3.9h-1V158.2z M394.8,158.9v6.7h0.3
		c1.1,0,1.8-1,1.8-3.2v-0.2c0-2.2-0.8-3.2-1.8-3.2H394.8z"/>
	<path class="st0" d="M398.4,163.3v-0.2c0-2.1,0.8-3.1,1.7-3.1c0.9,0,1.6,1.1,1.6,3v0.5h-2.6c0,1.5,0.6,2.1,1.3,2.1
		c0.4,0,0.6-0.1,1-0.4l0.1,0.7c-0.4,0.3-0.7,0.4-1.2,0.4C399.3,166.4,398.4,165.3,398.4,163.3z M401,162.9c0-1.3-0.4-2.2-0.9-2.2
		s-1,0.7-1,2.2H401z"/>
	<path class="st0" d="M402.5,164.5v-4.4h0.7v4.2c0,0.9,0.3,1.3,0.8,1.3s1-0.6,1-1.4v-4.2h0.7v6.1H405v-0.8c-0.2,0.5-0.6,0.9-1.2,0.9
		C403,166.4,402.5,165.7,402.5,164.5z"/>
	<path class="st0" d="M407,165.2v-4.4h-0.5v-0.6h0.5v-1.7h0.7v1.7h0.9v0.6h-0.9v4.3c0,0.5,0.2,0.6,0.6,0.6c0.1,0,0.2,0,0.4-0.1v0.6
		c-0.1,0.1-0.4,0.1-0.5,0.1C407.4,166.3,407,166.1,407,165.2z"/>
	<path class="st0" d="M409.1,166.1v-0.7c0.4,0.2,0.8,0.4,1.2,0.4c0.5,0,0.8-0.3,0.8-0.8v0c0-0.4-0.2-0.8-0.9-1.4
		c-0.8-0.8-1.1-1.3-1.1-1.9v0c0-0.9,0.7-1.4,1.4-1.4c0.4,0,0.7,0.1,1,0.2v0.7c-0.3-0.2-0.6-0.3-1-0.3c-0.4,0-0.8,0.3-0.8,0.7v0
		c0,0.4,0.2,0.7,0.9,1.4c0.8,0.8,1.1,1.3,1.1,2v0c0,0.9-0.7,1.5-1.5,1.5C409.9,166.3,409.5,166.2,409.1,166.1z"/>
	<path class="st0" d="M412.4,163.3v-0.2c0-2.1,0.9-3,1.8-3c0.3,0,0.6,0.1,0.7,0.2v0.8c-0.2-0.2-0.4-0.3-0.7-0.3
		c-0.6,0-1.2,0.7-1.2,2.3v0.2c0,1.7,0.6,2.3,1.2,2.3c0.2,0,0.5-0.1,0.7-0.3v0.7c-0.2,0.1-0.4,0.2-0.8,0.2
		C413.2,166.4,412.4,165.4,412.4,163.3z"/>
	<path class="st0" d="M415.8,158.1h0.7v2.9c0.2-0.5,0.6-1,1.2-1c0.8,0,1.3,0.7,1.3,1.8v4.4h-0.7V162c0-0.9-0.3-1.3-0.8-1.3
		c-0.5,0-1,0.6-1,1.4v4.2h-0.7V158.1z"/>
	<path class="st0" d="M420,158.1h0.7v8.1H420V158.1z"/>
	<path class="st0" d="M421.6,164.5v-0.1c0-1.2,0.6-1.9,1.5-1.9c0.4,0,0.7,0.1,1,0.2V162c0-0.8-0.4-1.2-1.1-1.2
		c-0.4,0-0.7,0.1-1.1,0.3v-0.7c0.4-0.2,0.7-0.3,1.2-0.3c0.5,0,0.9,0.1,1.2,0.5c0.3,0.3,0.5,0.8,0.5,1.4v4.3h-0.7v-0.8
		c-0.2,0.6-0.6,0.9-1.1,0.9C422.1,166.4,421.6,165.6,421.6,164.5z M424.1,164.4v-1.2c-0.3-0.1-0.5-0.2-0.8-0.2
		c-0.6,0-0.9,0.5-0.9,1.3v0.1c0,0.8,0.3,1.3,0.8,1.3C423.7,165.7,424.1,165.1,424.1,164.4z"/>
	<path class="st0" d="M425.8,160.2h0.7v0.9c0.2-0.5,0.6-1,1.2-1c0.8,0,1.3,0.7,1.3,1.8v4.4h-0.7V162c0-0.9-0.3-1.3-0.8-1.3
		c-0.5,0-1,0.6-1,1.4v4.2h-0.7V160.2z"/>
	<path class="st0" d="M429.8,163.4v-0.3c0-2,0.7-3,1.5-3c0.6,0,1,0.6,1.2,1.2v-3.1h0.7v8.1h-0.7v-1.1c-0.2,0.6-0.6,1.2-1.2,1.2
		C430.5,166.4,429.8,165.4,429.8,163.4z M432.5,163.4v-0.3c0-1.5-0.5-2.3-1-2.3c-0.5,0-1,0.8-1,2.4v0.3c0,1.5,0.4,2.4,1,2.4
		C432,165.7,432.5,164.9,432.5,163.4z"/>
	<path class="st0" d="M434.3,160.2h0.9v1.1h-0.9V160.2z M434.3,165.1h0.9v1.1h-0.9V165.1z"/>
</g>
<g>
	<path class="st0" d="M277,279.7v-0.9c0.6,0.4,1,0.5,1.4,0.5c0.6,0,1.1-0.4,1.1-1.1v0c0-0.6-0.2-1.1-1.1-2.2c-1.1-1.4-1.4-2-1.4-2.8
		v0c0-1.1,0.8-1.9,1.8-1.9c0.5,0,0.9,0.1,1.3,0.3v0.9c-0.5-0.3-0.9-0.5-1.3-0.5c-0.6,0-1,0.4-1,1.1v0c0,0.6,0.2,1,1.1,2.1
		c1.1,1.3,1.4,2,1.4,2.9v0c0,1.2-0.8,1.9-1.8,1.9C278,280.2,277.5,280,277,279.7z"/>
	<path class="st0" d="M281.4,279v-4.8h-0.5v-0.7h0.5v-1.8h0.8v1.8h1v0.7h-1v4.6c0,0.5,0.2,0.6,0.6,0.6c0.1,0,0.3,0,0.4-0.1v0.7
		c-0.1,0.1-0.4,0.1-0.5,0.1C281.9,280.1,281.4,279.9,281.4,279z"/>
	<path class="st0" d="M283.7,278.2v-0.1c0-1.3,0.6-2.1,1.6-2.1c0.4,0,0.7,0.1,1,0.2v-0.7c0-0.8-0.4-1.3-1.1-1.3
		c-0.4,0-0.8,0.1-1.2,0.3v-0.7c0.4-0.2,0.8-0.3,1.2-0.3c0.6,0,1,0.2,1.3,0.5c0.3,0.3,0.5,0.8,0.5,1.5v4.6h-0.8v-0.9
		c-0.3,0.6-0.6,1-1.2,1C284.3,280.2,283.7,279.4,283.7,278.2z M284.5,271.9h0.8v1h-0.8V271.9z M286.4,278.1v-1.3
		c-0.3-0.1-0.6-0.2-0.9-0.2c-0.7,0-1,0.6-1,1.4v0.1c0,0.8,0.3,1.4,0.9,1.4C286,279.5,286.4,278.9,286.4,278.1z M285.8,271.9h0.8v1
		h-0.8V271.9z"/>
	<path class="st0" d="M288.2,273.5h0.8v0.9c0.2-0.6,0.7-1,1.4-1v0.9h0c-0.8,0-1.3,0.5-1.3,1.6v4.1h-0.8V273.5z"/>
	<path class="st0" d="M291.1,271.3h0.8v5.5l1.6-3.3h0.8l-1.3,2.6l1.4,3.9h-0.8l-1.1-3.1l-0.6,1.1v2h-0.8V271.3z"/>
	<path class="st0" d="M294.9,279.9v-0.8c0.4,0.2,0.9,0.4,1.3,0.4c0.5,0,0.9-0.3,0.9-0.9v0c0-0.4-0.2-0.8-0.9-1.5
		c-0.9-0.8-1.2-1.4-1.2-2.1v0c0-1,0.7-1.5,1.6-1.5c0.4,0,0.7,0.1,1.1,0.2v0.8c-0.4-0.2-0.7-0.3-1.1-0.3c-0.5,0-0.8,0.3-0.8,0.8v0
		c0,0.4,0.2,0.7,0.9,1.5c0.9,0.9,1.2,1.4,1.2,2.1v0c0,1-0.7,1.6-1.6,1.6C295.7,280.2,295.3,280.1,294.9,279.9z"/>
	<path class="st0" d="M298.7,279v-4.8h-0.5v-0.7h0.5v-1.8h0.8v1.8h1v0.7h-1v4.6c0,0.5,0.2,0.6,0.6,0.6c0.1,0,0.3,0,0.4-0.1v0.7
		c-0.1,0.1-0.4,0.1-0.5,0.1C299.2,280.1,298.7,279.9,298.7,279z"/>
	<path class="st0" d="M301,276.9v-0.2c0-2.2,0.8-3.3,1.8-3.3c1,0,1.7,1.2,1.7,3.2v0.5h-2.8c0,1.6,0.7,2.3,1.4,2.3
		c0.4,0,0.7-0.1,1.1-0.4l0.1,0.7c-0.5,0.3-0.8,0.4-1.3,0.4C302,280.2,301,279.1,301,276.9z M303.8,276.5c0-1.4-0.4-2.4-1-2.4
		c-0.6,0-1,0.8-1.1,2.4H303.8z"/>
	<path class="st0" d="M307.5,271.4h0.9l1.4,4.4l1.4-4.4h0.9v8.7h-0.8v-6.9l-1.5,4.6h0l-1.5-4.6v6.9h-0.8V271.4z"/>
	<path class="st0" d="M313,278.2v-0.1c0-1.3,0.6-2.1,1.6-2.1c0.4,0,0.7,0.1,1,0.2v-0.7c0-0.8-0.4-1.3-1.1-1.3
		c-0.4,0-0.8,0.1-1.2,0.3v-0.7c0.4-0.2,0.8-0.3,1.2-0.3c0.6,0,1,0.2,1.3,0.5c0.3,0.3,0.5,0.8,0.5,1.5v4.6h-0.8v-0.9
		c-0.3,0.6-0.6,1-1.2,1C313.6,280.2,313,279.4,313,278.2z M315.6,278.1v-1.3c-0.3-0.1-0.6-0.2-0.9-0.2c-0.7,0-1,0.6-1,1.4v0.1
		c0,0.8,0.3,1.4,0.9,1.4C315.2,279.5,315.6,278.9,315.6,278.1z"/>
	<path class="st0" d="M317.5,273.5h0.8v0.9c0.2-0.6,0.7-1,1.4-1v0.9h0c-0.8,0-1.3,0.5-1.3,1.6v4.1h-0.8V273.5z"/>
	<path class="st0" d="M320.4,271.3h0.8v5.5l1.6-3.3h0.8l-1.3,2.6l1.4,3.9h-0.8l-1.1-3.1l-0.6,1.1v2h-0.8V271.3z"/>
	<path class="st0" d="M324.1,276.9v-0.2c0-2.2,0.8-3.3,1.8-3.3c1,0,1.7,1.2,1.7,3.2v0.5h-2.8c0,1.6,0.7,2.3,1.4,2.3
		c0.4,0,0.7-0.1,1.1-0.4l0.1,0.7c-0.5,0.3-0.8,0.4-1.3,0.4C325,280.2,324.1,279.1,324.1,276.9z M326.9,276.5c0-1.4-0.4-2.4-1-2.4
		c-0.6,0-1,0.8-1.1,2.4H326.9z"/>
	<path class="st0" d="M330.2,278.2v-0.1c0-1.3,0.6-2.1,1.6-2.1c0.4,0,0.7,0.1,1,0.2v-0.7c0-0.8-0.4-1.3-1.1-1.3
		c-0.4,0-0.8,0.1-1.2,0.3v-0.7c0.4-0.2,0.8-0.3,1.2-0.3c0.6,0,1,0.2,1.3,0.5c0.3,0.3,0.5,0.8,0.5,1.5v4.6h-0.8v-0.9
		c-0.3,0.6-0.6,1-1.2,1C330.8,280.2,330.2,279.4,330.2,278.2z M332.9,278.1v-1.3c-0.3-0.1-0.6-0.2-0.9-0.2c-0.7,0-1,0.6-1,1.4v0.1
		c0,0.8,0.3,1.4,0.9,1.4C332.4,279.5,332.9,278.9,332.9,278.1z"/>
	<path class="st0" d="M334.7,278.2v-4.7h0.8v4.5c0,0.9,0.3,1.4,0.9,1.4c0.6,0,1-0.6,1-1.5v-4.5h0.8v6.5h-0.8v-0.9
		c-0.2,0.5-0.6,1-1.3,1C335.2,280.2,334.7,279.5,334.7,278.2z"/>
	<path class="st0" d="M339,276.9v-0.2c0-2.2,0.9-3.3,2-3.3c0.3,0,0.6,0.1,0.8,0.2v0.8c-0.2-0.2-0.5-0.3-0.8-0.3
		c-0.6,0-1.2,0.8-1.2,2.5v0.2c0,1.8,0.6,2.5,1.3,2.5c0.2,0,0.5-0.1,0.7-0.3v0.8c-0.2,0.2-0.5,0.3-0.8,0.3
		C339.9,280.2,339,279.2,339,276.9z"/>
	<path class="st0" d="M342.7,271.3h0.8v3.1c0.2-0.5,0.6-1,1.3-1c0.9,0,1.4,0.7,1.4,2v4.7h-0.8v-4.5c0-0.9-0.3-1.4-0.9-1.4
		c-0.6,0-1,0.6-1,1.5v4.5h-0.8V271.3z"/>
	<path class="st0" d="M350,279v1.1h-0.8v-8.7h0.8v3.3c0.2-0.7,0.6-1.3,1.3-1.3c0.9,0,1.6,1,1.6,3.2v0.3c0,2.2-0.7,3.2-1.6,3.2
		C350.6,280.2,350.2,279.6,350,279z M352.1,276.9v-0.3c0-1.6-0.4-2.5-1-2.5c-0.6,0-1.1,0.9-1.1,2.5v0.3c0,1.6,0.5,2.5,1.1,2.5
		C351.6,279.5,352.1,278.6,352.1,276.9z"/>
	<path class="st0" d="M353.6,276.9v-0.2c0-2.2,0.8-3.3,1.8-3.3c1,0,1.7,1.2,1.7,3.2v0.5h-2.8c0,1.6,0.7,2.3,1.4,2.3
		c0.4,0,0.7-0.1,1.1-0.4l0.1,0.7c-0.5,0.3-0.8,0.4-1.3,0.4C354.6,280.2,353.6,279.1,353.6,276.9z M356.4,276.5c0-1.4-0.4-2.4-1-2.4
		c-0.6,0-1,0.8-1.1,2.4H356.4z"/>
	<path class="st0" d="M358.1,271.3h0.8v1h-0.8V271.3z M358.1,273.5h0.8v6.5h-0.8V273.5z"/>
	<path class="st0" d="M277,289.2v-0.3c0-2.2,0.7-3.2,1.6-3.2c0.6,0,1,0.6,1.3,1.2v-3.3h0.8v8.7h-0.8v-1.1c-0.2,0.7-0.6,1.3-1.3,1.3
		C277.8,292.5,277,291.4,277,289.2z M279.9,289.3v-0.3c0-1.6-0.5-2.5-1.1-2.5c-0.6,0-1,0.9-1,2.5v0.3c0,1.6,0.5,2.5,1,2.5
		C279.4,291.8,279.9,290.9,279.9,289.3z"/>
	<path class="st0" d="M281.6,289.2v-0.2c0-2.2,0.8-3.3,1.8-3.3c1,0,1.7,1.2,1.7,3.2v0.5h-2.8c0,1.6,0.7,2.3,1.4,2.3
		c0.4,0,0.7-0.1,1.1-0.4l0.1,0.7c-0.5,0.3-0.8,0.4-1.3,0.4C282.5,292.5,281.6,291.4,281.6,289.2z M284.4,288.8c0-1.4-0.4-2.4-1-2.4
		c-0.6,0-1,0.8-1.1,2.4H284.4z"/>
	<path class="st0" d="M286,285.8h0.8v0.9c0.2-0.5,0.6-1,1.3-1c0.9,0,1.4,0.7,1.4,2v4.7h-0.8v-4.5c0-0.9-0.3-1.4-0.9-1.4
		c-0.6,0-1,0.6-1,1.5v4.5H286V285.8z"/>
	<path class="st0" d="M292.6,290.1v-6.4h0.8v6.4c0,1.1,0.4,1.6,1.1,1.6c0.7,0,1.1-0.6,1.1-1.6v-6.4h0.8v6.4c0,1.5-0.8,2.4-1.9,2.4
		S292.6,291.6,292.6,290.1z"/>
	<path class="st0" d="M297.6,285.8h0.8v0.9c0.2-0.5,0.6-1,1.3-1c0.9,0,1.4,0.7,1.4,2v4.7h-0.8v-4.5c0-0.9-0.3-1.4-0.9-1.4
		c-0.6,0-1,0.6-1,1.5v4.5h-0.8V285.8z"/>
	<path class="st0" d="M302.1,283.6h0.8v1h-0.8V283.6z M302.1,285.8h0.8v6.5h-0.8V285.8z"/>
	<path class="st0" d="M306.8,291.2c-0.2,0.7-0.6,1.3-1.3,1.3c-0.8,0-1.6-1-1.6-3.2v-0.3c0-2.2,0.7-3.2,1.6-3.2c0.6,0,1,0.6,1.3,1.2
		v-1.1h0.8v8.2h-0.8V291.2z M306.8,289.3v-0.3c0-1.6-0.5-2.5-1.1-2.5c-0.6,0-1,0.9-1,2.5v0.3c0,1.6,0.5,2.5,1,2.5
		C306.3,291.8,306.8,290.9,306.8,289.3z"/>
	<path class="st0" d="M308.7,290.5v-4.7h0.8v4.5c0,0.9,0.3,1.4,0.9,1.4c0.6,0,1-0.6,1-1.5v-4.5h0.8v6.5h-0.8v-0.9
		c-0.2,0.5-0.6,1-1.3,1C309.2,292.5,308.7,291.7,308.7,290.5z"/>
	<path class="st0" d="M313,289.2v-0.2c0-2.2,0.8-3.3,1.8-3.3c1,0,1.7,1.2,1.7,3.2v0.5h-2.8c0,1.6,0.7,2.3,1.4,2.3
		c0.4,0,0.7-0.1,1.1-0.4l0.1,0.7c-0.5,0.3-0.8,0.4-1.3,0.4C314,292.5,313,291.4,313,289.2z M315.8,288.8c0-1.4-0.4-2.4-1-2.4
		c-0.6,0-1,0.8-1.1,2.4H315.8z"/>
	<path class="st0" d="M319.5,290.1v-6.4h0.8v6.4c0,1.1,0.4,1.6,1.1,1.6c0.7,0,1.1-0.6,1.1-1.6v-6.4h0.8v6.4c0,1.5-0.8,2.4-1.9,2.4
		S319.5,291.6,319.5,290.1z"/>
	<path class="st0" d="M324.2,292.1v-0.8c0.4,0.2,0.9,0.4,1.3,0.4c0.5,0,0.9-0.3,0.9-0.9v0c0-0.4-0.2-0.8-0.9-1.5
		c-0.9-0.8-1.2-1.4-1.2-2.1v0c0-1,0.7-1.5,1.6-1.5c0.4,0,0.7,0.1,1.1,0.2v0.8c-0.4-0.2-0.7-0.3-1.1-0.3c-0.5,0-0.8,0.3-0.8,0.8v0
		c0,0.4,0.2,0.7,0.9,1.5c0.9,0.9,1.2,1.4,1.2,2.1v0c0,1-0.7,1.6-1.6,1.6C325,292.4,324.6,292.3,324.2,292.1z"/>
	<path class="st0" d="M327.6,289.2v-0.2c0-2.2,0.8-3.3,1.8-3.3c1,0,1.7,1.2,1.7,3.2v0.5h-2.8c0,1.6,0.7,2.3,1.4,2.3
		c0.4,0,0.7-0.1,1.1-0.4l0.1,0.7c-0.5,0.3-0.8,0.4-1.3,0.4C328.6,292.5,327.6,291.4,327.6,289.2z M330.4,288.8c0-1.4-0.4-2.4-1-2.4
		c-0.6,0-1,0.8-1.1,2.4H330.4z"/>
	<path class="st0" d="M332.1,285.8h0.8v0.9c0.2-0.6,0.7-1,1.4-1v0.9h0c-0.8,0-1.3,0.5-1.3,1.6v4.1h-0.8V285.8z"/>
	<path class="st0" d="M335,285.8h0.8v0.9c0.2-0.5,0.6-1,1.3-1c0.9,0,1.4,0.7,1.4,2v4.7h-0.8v-4.5c0-0.9-0.3-1.4-0.9-1.4
		c-0.6,0-1,0.6-1,1.5v4.5H335V285.8z"/>
	<path class="st0" d="M341.2,292.1v-0.8c0.4,0.2,0.9,0.4,1.3,0.4c0.5,0,0.9-0.3,0.9-0.9v0c0-0.4-0.2-0.8-0.9-1.5
		c-0.9-0.8-1.2-1.4-1.2-2.1v0c0-1,0.7-1.5,1.6-1.5c0.4,0,0.7,0.1,1.1,0.2v0.8c-0.4-0.2-0.7-0.3-1.1-0.3c-0.5,0-0.8,0.3-0.8,0.8v0
		c0,0.4,0.2,0.7,0.9,1.5c0.9,0.9,1.2,1.4,1.2,2.1v0c0,1-0.7,1.6-1.6,1.6C342.1,292.4,341.7,292.3,341.2,292.1z"/>
	<path class="st0" d="M345.1,291.3v-4.8h-0.5v-0.7h0.5V284h0.8v1.8h1v0.7h-1v4.6c0,0.5,0.2,0.6,0.6,0.6c0.1,0,0.3,0,0.4-0.1v0.7
		c-0.1,0.1-0.4,0.1-0.5,0.1C345.6,292.4,345.1,292.1,345.1,291.3z"/>
	<path class="st0" d="M347.4,290.5v-0.1c0-1.3,0.6-2.1,1.6-2.1c0.4,0,0.7,0.1,1,0.2v-0.7c0-0.8-0.4-1.3-1.1-1.3
		c-0.4,0-0.8,0.1-1.2,0.3V286c0.4-0.2,0.8-0.3,1.2-0.3c0.6,0,1,0.2,1.3,0.5c0.3,0.3,0.5,0.8,0.5,1.5v4.6H350v-0.9
		c-0.3,0.6-0.6,1-1.2,1C348,292.5,347.4,291.6,347.4,290.5z M350,290.4v-1.3c-0.3-0.1-0.6-0.2-0.9-0.2c-0.7,0-1,0.6-1,1.4v0.1
		c0,0.8,0.3,1.4,0.9,1.4C349.6,291.8,350,291.1,350,290.4z"/>
	<path class="st0" d="M352,291.3v-4.8h-0.5v-0.7h0.5V284h0.8v1.8h1v0.7h-1v4.6c0,0.5,0.2,0.6,0.6,0.6c0.1,0,0.3,0,0.4-0.1v0.7
		c-0.1,0.1-0.4,0.1-0.5,0.1C352.5,292.4,352,292.1,352,291.3z"/>
	<path class="st0" d="M354.7,283.6h0.8v1h-0.8V283.6z M354.7,285.8h0.8v6.5h-0.8V285.8z"/>
	<path class="st0" d="M356.4,289.2V289c0-2.1,0.9-3.3,1.9-3.3c1,0,1.9,1.2,1.9,3.3v0.2c0,2.1-0.9,3.3-1.9,3.3
		C357.3,292.5,356.4,291.3,356.4,289.2z M359.4,289.2V289c0-1.6-0.5-2.6-1.1-2.6s-1.1,1-1.1,2.6v0.2c0,1.6,0.5,2.6,1.1,2.6
		S359.4,290.8,359.4,289.2z"/>
	<path class="st0" d="M361.1,285.8h0.8v0.9c0.2-0.5,0.6-1,1.3-1c0.9,0,1.4,0.7,1.4,2v4.7h-0.8v-4.5c0-0.9-0.3-1.4-0.9-1.4
		c-0.6,0-1,0.6-1,1.5v4.5h-0.8V285.8z"/>
	<path class="st0" d="M365.4,290.5v-0.1c0-1.3,0.6-2.1,1.6-2.1c0.4,0,0.7,0.1,1,0.2v-0.7c0-0.8-0.4-1.3-1.1-1.3
		c-0.4,0-0.8,0.1-1.2,0.3V286c0.4-0.2,0.8-0.3,1.2-0.3c0.6,0,1,0.2,1.3,0.5c0.3,0.3,0.5,0.8,0.5,1.5v4.6H368v-0.9
		c-0.3,0.6-0.6,1-1.2,1C365.9,292.5,365.4,291.6,365.4,290.5z M366.1,284.1h0.8v1h-0.8V284.1z M368,290.4v-1.3
		c-0.3-0.1-0.6-0.2-0.9-0.2c-0.7,0-1,0.6-1,1.4v0.1c0,0.8,0.3,1.4,0.9,1.4C367.6,291.8,368,291.1,368,290.4z M367.5,284.1h0.8v1
		h-0.8V284.1z"/>
	<path class="st0" d="M369.9,285.8h0.8v0.9c0.2-0.6,0.7-1,1.4-1v0.9h0c-0.8,0-1.3,0.5-1.3,1.6v4.1h-0.8V285.8z"/>
	<path class="st0" d="M372.8,285.8h1v1.2h-1V285.8z M372.8,291.2h1v1.2h-1V291.2z"/>
</g>
<g>
	<path class="st0" d="M377.8,276l-2.2,0.7v-4.4l3.5-1.1h3.2v21.4h-4.5V276z"/>
	<path class="st0" d="M386.1,291.6c-1.5-1.5-2.2-4.4-2.2-9V282c0-8.8,3-11.1,6.7-11.1c1.1,0,2,0.2,2.8,0.4v4.2
		c-0.7-0.3-1.6-0.6-2.5-0.6c-1.7,0-2.7,1.1-2.8,4.4c0.6-0.5,1.4-0.7,2.3-0.7c2.1,0,4.3,1.4,4.3,6.1v0.8c0,4.7-2.3,7.4-5.4,7.4
		C388.1,292.9,387,292.5,386.1,291.6z M390.6,285.7v-0.8c0-2.1-0.6-2.7-1.4-2.7c-0.5,0-0.8,0.2-1.1,0.3v2.8c0,2.8,0.5,3.7,1.2,3.7
		C390.2,289,390.6,288.2,390.6,285.7z"/>
	<path class="st0" d="M395.6,295.3c2.1-0.5,2.7-1.7,2.7-2.8H396v-4.9h4.8v4c0,3.3-1.9,5-4.8,5.4L395.6,295.3z"/>
	<path class="st0" d="M402.2,288.5l3.9-7.6c1.1-2.1,1.4-3,1.4-3.9c0-1-0.5-1.8-1.8-1.8c-1.1,0-2,0.4-3.1,1v-4.4c1.1-0.5,2.5-1,4.3-1
		c2.9,0,5.1,1.8,5.1,5.1v0.2c0,1.9-0.5,3.3-1.7,5.5l-3.4,6.3h5v4.5h-9.7V288.5z"/>
	<path class="st0" d="M412.8,292.2v-4.3c0.9,0.4,1.7,0.6,2.9,0.6c1.4,0,2.4-0.9,2.4-2.5v-0.2c0-1.8-1.4-2.6-3.8-2.8v-3l3.4-4.6h-4.6
		v-4.3h9.4v4l-3.7,4.9c2.1,0.7,3.8,2.2,3.8,5.6v0.3c0,4.3-2.6,6.8-6.2,6.8C414.9,292.8,413.8,292.6,412.8,292.2z"/>
	<path class="st0" d="M428.3,271.2h4.4l2.5,7.1l2.5-7.1h4.4v21.3h-4.4v-11.4l-2.5,7h-0.1l-2.5-7v11.4h-4.3V271.2z"/>
	<path class="st0" d="M443.7,270.9h4.5v3.9h-4.5V270.9z M443.7,276.1h4.4v16.4h-4.4V276.1z"/>
	<path class="st0" d="M449.4,284.9v-1.3c0-5.2,2.3-8,5.6-8c3.2,0,5.5,2.7,5.5,8v1.3c0,5.2-2.3,8-5.5,8
		C451.7,292.9,449.4,290.2,449.4,284.9z M456.1,285v-1.4c0-2.9-0.4-4-1.2-4c-0.8,0-1.1,1.1-1.1,4v1.4c0,2.9,0.4,4,1.1,4
		C455.7,288.9,456.1,287.8,456.1,285z"/>
	<path class="st0" d="M461.7,287.6h4.8v4.9h-4.8V287.6z"/>
</g>
<g>
	<path class="st0" d="M276.4,242.5h3l1.1,8.1l1.2-8.1h2.9l-2.5,13.6h-3L276.4,242.5z"/>
	<path class="st0" d="M284.9,242.3h2.8v2.5h-2.8V242.3z M284.9,245.6h2.8V256h-2.8V245.6z"/>
	<path class="st0" d="M288.5,255.7V253c0.8,0.5,1.6,0.8,2.1,0.8c0.4,0,0.7-0.3,0.7-0.6v0c0-0.3-0.2-0.6-1-1.3
		c-1.1-1-1.9-1.8-1.9-3.4v0c0-1.9,1.3-3,3.1-3c0.8,0,1.4,0.1,2,0.3v2.7c-0.6-0.3-1.3-0.6-1.8-0.6c-0.4,0-0.7,0.2-0.7,0.5v0
		c0,0.3,0.2,0.5,1,1.3c1.2,1,1.9,1.9,1.9,3.4v0c0,1.9-1.3,3.1-3,3.1C290.1,256.3,289.2,256,288.5,255.7z"/>
	<path class="st0" d="M294.6,242.3h2.8v2.5h-2.8V242.3z M294.7,245.6h2.8V256h-2.8V245.6z"/>
	<path class="st0" d="M298.8,254v-6.2h-0.6v-2.3h0.6V243h2.8v2.6h1.2v2.3h-1.2v5.3c0,0.4,0.2,0.5,0.5,0.5c0.2,0,0.4-0.1,0.6-0.2v2.3
		c-0.4,0.2-1.1,0.4-1.6,0.4C299.8,256.2,298.8,255.7,298.8,254z"/>
	<path class="st0" d="M303.2,255.7V253c0.8,0.5,1.6,0.8,2.1,0.8c0.4,0,0.7-0.3,0.7-0.6v0c0-0.3-0.2-0.6-1-1.3
		c-1.1-1-1.9-1.8-1.9-3.4v0c0-1.9,1.3-3,3.1-3c0.8,0,1.4,0.1,2,0.3v2.7c-0.6-0.3-1.3-0.6-1.8-0.6c-0.4,0-0.7,0.2-0.7,0.5v0
		c0,0.3,0.2,0.5,1,1.3c1.2,1,1.9,1.9,1.9,3.4v0c0,1.9-1.3,3.1-3,3.1C304.9,256.3,304,256,303.2,255.7z"/>
	<path class="st0" d="M312.2,242.3h2.8v2.5h-2.8V242.3z M312.3,245.6h2.8V256h-2.8V245.6z"/>
	<path class="st0" d="M316.1,245.6h2.8v1.2c0.4-0.8,1-1.4,1.9-1.4c1,0,1.5,0.6,1.8,1.3c0.4-0.7,1-1.3,2-1.3c1.2,0,2.1,1,2.1,2.7v8
		H324v-7.3c0-0.5-0.2-0.9-0.6-0.9c-0.3,0-0.6,0.3-0.6,0.9v7.3H320v-7.3c0-0.5-0.2-0.9-0.6-0.9c-0.4,0-0.6,0.3-0.6,0.9v7.3h-2.8
		V245.6z"/>
	<path class="st0" d="M330.3,255.9v-2.8c0.4,0.1,0.8,0.2,1.2,0.2c0.7,0,1.1-0.4,1.1-1.3v-9.6h2.9v9.9c0,1.3-0.3,2.3-0.9,2.9
		c-0.6,0.6-1.4,0.9-2.4,0.9C331.5,256.2,330.8,256.1,330.3,255.9z"/>
	<path class="st0" d="M336.2,253.1v-0.3c0-2.4,1-3.3,2.4-3.3c0.6,0,1,0.1,1.4,0.4v-0.4c0-1-0.5-1.5-1.4-1.5c-0.7,0-1.4,0.3-1.9,0.5
		v-2.6c0.7-0.3,1.6-0.5,2.5-0.5c1.2,0,2,0.3,2.6,0.9c0.6,0.6,1,1.6,1,2.9v6.8h-2.8v-1c-0.4,0.8-1,1.2-1.7,1.2
		C337.1,256.2,336.2,255.1,336.2,253.1z M340.1,253.2v-1.6c-0.2-0.1-0.4-0.2-0.6-0.2c-0.4,0-0.7,0.4-0.7,1.2v0.4
		c0,0.8,0.3,1.1,0.6,1.1C339.8,254.1,340.1,253.8,340.1,253.2z"/>
	<path class="st0" d="M343.8,245.6h2.8v1.2c0.4-0.7,1-1.4,1.9-1.4c1.4,0,2,1.1,2,2.6v8.1h-2.8v-7.3c0-0.5-0.2-0.9-0.6-0.9
		c-0.3,0-0.6,0.3-0.6,0.9v7.3h-2.8V245.6z"/>
	<path class="st0" d="M351.4,253.6v-8.1h2.8v7.3c0,0.5,0.2,0.9,0.6,0.9c0.3,0,0.6-0.3,0.6-0.9v-7.3h2.8V256h-2.8v-1.2
		c-0.4,0.7-1,1.4-1.9,1.4C352.1,256.3,351.4,255.2,351.4,253.6z"/>
	<path class="st0" d="M358.9,253.1v-0.3c0-2.4,1-3.3,2.4-3.3c0.6,0,1,0.1,1.4,0.4v-0.4c0-1-0.5-1.5-1.4-1.5c-0.7,0-1.4,0.3-1.9,0.5
		v-2.6c0.7-0.3,1.6-0.5,2.5-0.5c1.2,0,2,0.3,2.6,0.9c0.6,0.6,1,1.6,1,2.9v6.8h-2.8v-1c-0.4,0.8-1,1.2-1.7,1.2
		C359.8,256.2,358.9,255.1,358.9,253.1z M362.7,253.2v-1.6c-0.2-0.1-0.4-0.2-0.6-0.2c-0.4,0-0.7,0.4-0.7,1.2v0.4
		c0,0.8,0.3,1.1,0.6,1.1C362.4,254.1,362.7,253.8,362.7,253.2z"/>
	<path class="st0" d="M366.4,245.6h2.8v1.5c0.3-1,0.8-1.6,1.6-1.6v3.4h-0.1c-1.1,0-1.6,0.7-1.6,2.2v5.1h-2.8V245.6z"/>
	<path class="st0" d="M374.2,253.5l2.5-4.8c0.7-1.3,0.9-1.9,0.9-2.5c0-0.6-0.3-1.1-1.2-1.1c-0.7,0-1.3,0.3-2,0.6v-2.8
		c0.7-0.3,1.6-0.6,2.7-0.6c1.9,0,3.2,1.2,3.2,3.3v0.1c0,1.2-0.3,2.1-1.1,3.5l-2.1,4h3.2v2.9h-6.2V253.5z"/>
	<path class="st0" d="M381.1,249.7v-0.8c0-4.5,1.4-6.6,3.8-6.6c2.4,0,3.7,2.1,3.7,6.6v0.8c0,4.5-1.4,6.6-3.8,6.6
		C382.4,256.3,381.1,254.2,381.1,249.7z M385.7,249.8v-1.2c0-3.2-0.4-3.8-0.9-3.8s-0.9,0.6-0.9,3.8v1.2c0,3.2,0.4,3.8,0.9,3.8
		S385.7,253,385.7,249.8z"/>
	<path class="st0" d="M390.4,245.5L389,246v-2.8l2.2-0.7h2.1V256h-2.9V245.5z"/>
	<path class="st0" d="M395.6,255.4c-0.9-0.9-1.4-2.8-1.4-5.7v-0.4c0-5.6,1.9-7,4.3-7c0.7,0,1.3,0.1,1.8,0.3v2.7
		c-0.4-0.2-1-0.4-1.6-0.4c-1.1,0-1.7,0.7-1.8,2.8c0.4-0.3,0.9-0.5,1.5-0.5c1.4,0,2.8,0.9,2.8,3.9v0.5c0,3-1.5,4.7-3.4,4.7
		C396.9,256.3,396.2,256,395.6,255.4z M398.5,251.7v-0.5c0-1.4-0.4-1.7-0.9-1.7c-0.3,0-0.5,0.1-0.7,0.2v1.8c0,1.8,0.3,2.4,0.8,2.4
		C398.2,253.8,398.5,253.3,398.5,251.7z"/>
	<path class="st0" d="M404.9,250.7v-0.4c0-4.3,1.6-7.4,4.7-8v2.1c-1.5,0.8-2.1,2.9-2.1,6v0.3c0,3.2,0.5,5.2,2.1,6v2.1
		C406.5,258.1,404.9,255.1,404.9,250.7z"/>
	<path class="st0" d="M410.5,242.5h2.9V256h-2.9V242.5z"/>
	<path class="st0" d="M413.8,242.5h3l1.1,8.1l1.2-8.1h2.9l-2.5,13.6h-3L413.8,242.5z"/>
	<path class="st0" d="M421.7,242.5h3l0.8,7.8l1-7.8h2.5l1,7.8l0.8-7.8h2.9l-2.1,13.6h-3l-1-6.8l-1,6.8h-3L421.7,242.5z"/>
	<path class="st0" d="M434.2,256.6c1.5-0.8,2.1-2.9,2.1-6v-0.3c0-3.2-0.5-5.2-2.1-6v-2.1c2.9,0.6,4.7,3.5,4.7,8v0.3
		c0,4.6-1.8,7.5-4.7,8.1V256.6z"/>
</g>
<g>
	<path class="st0" d="M276.9,318.1v-1.8c0.6,0.4,1,0.6,1.5,0.6c0.6,0,0.9-0.3,0.9-1c0-0.3-0.1-0.8-0.9-1.7c-1.2-1.3-1.7-2-1.7-3.2
		c0-1.6,1-2.6,2.5-2.6c0.7,0,1.1,0.1,1.5,0.3v1.8c-0.5-0.3-0.9-0.5-1.3-0.5c-0.5,0-0.9,0.3-0.9,0.9c0,0.4,0.1,0.7,1,1.7
		c1.4,1.6,1.7,2.3,1.7,3.3c0,1.6-1.1,2.6-2.5,2.6C278,318.5,277.4,318.4,276.9,318.1z"/>
	<path class="st0" d="M282.5,310.1h-1.2v-1.7h4.2v1.7h-1.2v8.4h-1.7V310.1z"/>
	<path class="st0" d="M287.1,308.4h1.8l1.9,10h-1.7l-0.3-2h-1.6l-0.3,2h-1.7L287.1,308.4z M288.5,314.9l-0.5-3.3l-0.5,3.3H288.5z"/>
	<path class="st0" d="M291.3,308.4h1.8c0.9,0,1.7,0.3,2.2,0.8c0.5,0.5,0.8,1.3,0.8,2.4v0.1c0,1.3-0.5,2.1-1.2,2.6l1.3,4.1h-1.8
		l-1.1-3.5h-0.3v3.5h-1.7V308.4z M293.2,313.4c0.8,0,1.3-0.4,1.3-1.6v-0.1c0-1.3-0.6-1.6-1.3-1.6h0L293.2,313.4L293.2,313.4z"/>
	<path class="st0" d="M297,308.4h1.7v4.3l1.4-4.3h1.9l-1.7,4.2l1.7,5.8h-1.9l-1.1-3.8l-0.4,1.1v2.7H297V308.4z"/>
	<path class="st0" d="M302.7,308.4h3.8v1.7h-2.1v2.5h1.8v1.7h-1.8v2.5h2.1v1.7h-3.8V308.4z"/>
	<path class="st0" d="M309.6,308.4h1.7v4.2h1.5v-4.2h1.7v10h-1.7v-4.2h-1.5v4.2h-1.7V308.4z"/>
	<path class="st0" d="M315.4,313.7v-0.5c0-3.3,1.1-4.9,2.6-4.9c1.6,0,2.6,1.6,2.6,4.9v0.5c0,3.3-1.1,4.9-2.6,4.9
		C316.5,318.6,315.4,317,315.4,313.7z M319,313.7v-0.5c0-2.6-0.4-3.3-0.9-3.3c-0.5,0-0.9,0.7-0.9,3.3v0.5c0,2.6,0.4,3.3,0.9,3.3
		C318.6,317,319,316.3,319,313.7z"/>
	<path class="st0" d="M321.6,308.4h1.7l1.2,3.8l1.2-3.8h1.7v10h-1.7v-6.1l-1.3,3.8h0l-1.3-3.8v6.1h-1.7V308.4z"/>
	<path class="st0" d="M328.5,308.4h3.8v1.7h-2.1v2.5h1.8v1.7h-1.8v2.5h2.1v1.7h-3.8V308.4z"/>
	<path class="st0" d="M333.1,308.4h1.5c1.9,0,3.2,1,3.2,3.4v0c0,2.3-1.2,3.3-3,3.5h0v3.1h-1.7V308.4z M334.9,313.7
		c0.7,0,1.3-0.6,1.3-1.8v0c0-1.3-0.5-1.8-1.2-1.8h-0.1L334.9,313.7L334.9,313.7z"/>
	<path class="st0" d="M339.5,308.4h1.8l1.9,10h-1.7l-0.3-2h-1.6l-0.3,2h-1.7L339.5,308.4z M340.9,314.9l-0.5-3.3l-0.5,3.3H340.9z"/>
	<path class="st0" d="M343.4,313.6v-0.3c0-3.3,1.4-5,3.3-5c0.5,0,1,0.1,1.3,0.3v1.8c-0.4-0.3-0.8-0.4-1.3-0.4c-1,0-1.6,1-1.6,3.2
		v0.5c0,2.7,0.8,3.3,1.5,3.3c0.1,0,0.1,0,0.2,0v-2.6H346v-1.6h2.4v5.4c-0.6,0.3-1.1,0.4-1.8,0.4
		C344.9,318.6,343.4,317.2,343.4,313.6z"/>
	<path class="st0" d="M349.3,308.4h3.8v1.7h-2.1v2.5h1.8v1.7h-1.8v2.5h2.1v1.7h-3.8V308.4z"/>
	<path class="st0" d="M354.1,310.8h2v2h-2V310.8z M354.1,316.5h2v2h-2V316.5z"/>
	<path class="st0" d="M277.3,323h1.3c1.9,0,3.3,1.7,3.3,4.9v0.3c0,3.2-1.3,4.9-3.3,4.9h-1.3V323z M278.3,323.9v8.3h0.4
		c1.3,0,2.3-1.3,2.3-4v-0.3c0-2.7-1-4-2.3-4H278.3z"/>
	<path class="st0" d="M283,330.4V323h0.9v7.4c0,1.2,0.5,1.9,1.3,1.9c0.8,0,1.3-0.6,1.3-1.9V323h0.9v7.4c0,1.8-0.9,2.8-2.2,2.8
		S283,332.2,283,330.4z"/>
	<path class="st0" d="M288.9,323h1.4c0.9,0,1.6,0.3,2.1,0.8c0.5,0.5,0.8,1.3,0.8,2.2v0c0,1.4-0.6,2.3-1.6,2.8l1.7,4.2h-1l-1.6-3.9
		c-0.1,0-0.3,0-0.4,0h-0.5v3.9h-0.9V323z M290.3,328.3c1.2,0,2-0.8,2-2.2v0c0-1.5-0.8-2.2-2-2.2h-0.4v4.4H290.3z"/>
	<path class="st0" d="M294.1,328.2v-0.3c0-3.4,1.3-5,2.7-5c0.5,0,0.7,0.1,1,0.2v1c-0.4-0.2-0.6-0.3-1-0.3c-1,0-1.8,1.3-1.8,4v0.3
		c0,2.8,0.8,4,1.8,4c0.3,0,0.6-0.1,1-0.3v0.9c-0.3,0.2-0.7,0.3-1.1,0.3C295.3,333.1,294.1,331.6,294.1,328.2z"/>
	<path class="st0" d="M299.1,323h0.9v4.6h2.6V323h0.9v10h-0.9v-4.6H300v4.6h-0.9V323z"/>
	<path class="st0" d="M304.7,332.7v-1c0.7,0.4,1.2,0.6,1.7,0.6c0.8,0,1.3-0.5,1.3-1.3v0c0-0.7-0.3-1.2-1.3-2.5
		c-1.3-1.7-1.7-2.3-1.7-3.2v0c0-1.3,0.9-2.2,2.1-2.2c0.6,0,1,0.2,1.5,0.4v1c-0.5-0.4-1-0.5-1.5-0.5c-0.7,0-1.2,0.5-1.2,1.3v0
		c0,0.6,0.3,1.1,1.3,2.4c1.2,1.5,1.6,2.3,1.6,3.4v0c0,1.4-0.9,2.2-2.1,2.2C305.8,333.2,305.3,333,304.7,332.7z"/>
	<path class="st0" d="M309.4,328.2v-0.3c0-3.4,1.3-5,2.7-5c0.5,0,0.7,0.1,1,0.2v1c-0.4-0.2-0.6-0.3-1-0.3c-1,0-1.8,1.3-1.8,4v0.3
		c0,2.8,0.8,4,1.8,4c0.3,0,0.6-0.1,1-0.3v0.9c-0.3,0.2-0.7,0.3-1.1,0.3C310.5,333.1,309.4,331.6,309.4,328.2z"/>
	<path class="st0" d="M314.3,323h0.9v4.6h2.6V323h0.9v10h-0.9v-4.6h-2.6v4.6h-0.9V323z"/>
	<path class="st0" d="M320.2,323h0.9l2.7,7.5V323h0.9v10h-0.9l-2.8-7.8v7.8h-0.9V323z"/>
	<path class="st0" d="M326.3,323h0.9v10h-0.9V323z"/>
	<path class="st0" d="M329.7,323.9h-1.5V323h3.9v0.9h-1.5v9.1h-0.9V323.9z"/>
	<path class="st0" d="M334,323.9h-1.5V323h3.9v0.9h-1.5v9.1H334V323.9z"/>
	<path class="st0" d="M337.4,323h0.9v9.1h2.3v0.9h-3.2V323z"/>
	<path class="st0" d="M341.5,323h0.9v10h-0.9V323z"/>
	<path class="st0" d="M343.7,328.2v-0.3c0-3.4,1.3-5,2.7-5c0.5,0,0.7,0.1,1,0.2v1c-0.4-0.2-0.6-0.3-1-0.3c-1,0-1.8,1.3-1.8,4v0.3
		c0,2.8,0.8,4,1.8,4c0.3,0,0.6-0.1,1-0.3v0.9c-0.3,0.2-0.7,0.3-1.1,0.3C344.9,333.1,343.7,331.6,343.7,328.2z"/>
	<path class="st0" d="M348.7,323h0.9v4.6h2.6V323h0.9v10h-0.9v-4.6h-2.6v4.6h-0.9V323z"/>
</g>
<g>
	<path class="st0" d="M277.3,387.6h1.3c1.9,0,3.3,1.7,3.3,4.9v0.3c0,3.2-1.3,4.9-3.3,4.9h-1.3V387.6z M278.3,388.4v8.3h0.4
		c1.3,0,2.3-1.3,2.3-4v-0.3c0-2.7-1-4-2.3-4H278.3z"/>
	<path class="st0" d="M283.2,387.6h0.9v10h-0.9V387.6z"/>
	<path class="st0" d="M285.6,387.6h1.4c0.9,0,1.6,0.3,2.1,0.8c0.5,0.5,0.8,1.3,0.8,2.2v0c0,1.4-0.6,2.3-1.6,2.8l1.7,4.2h-1l-1.6-3.9
		c-0.1,0-0.3,0-0.4,0h-0.5v3.9h-0.9V387.6z M287,392.9c1.2,0,2-0.8,2-2.2v0c0-1.5-0.8-2.2-2-2.2h-0.4v4.4H287z"/>
	<path class="st0" d="M291.1,387.6h3.5v0.9H292v3.7h2.3v0.9H292v3.7h2.6v0.9h-3.5V387.6z"/>
	<path class="st0" d="M295.7,387.6h0.9v5.3l2.4-5.3h1l-2.1,4.5l2.3,5.6h-1l-1.9-4.6l-0.7,1.5v3h-0.9V387.6z"/>
	<path class="st0" d="M301.8,388.5h-1.5v-0.9h3.9v0.9h-1.5v9.1h-0.9V388.5z"/>
	<path class="st0" d="M305.1,387.6h3.5v0.9H306v3.7h2.3v0.9H306v3.7h2.6v0.9h-3.5V387.6z"/>
	<path class="st0" d="M309.8,387.6h0.9v10h-0.9V387.6z"/>
	<path class="st0" d="M312.3,387.6h0.9l2.7,7.5v-7.5h0.9v10h-0.9l-2.8-7.8v7.8h-0.9V387.6z"/>
	<path class="st0" d="M317.9,397.2v-1c0.7,0.4,1.2,0.6,1.7,0.6c0.8,0,1.3-0.5,1.3-1.3v0c0-0.7-0.3-1.2-1.3-2.5
		c-1.3-1.7-1.7-2.3-1.7-3.2v0c0-1.3,0.9-2.2,2.1-2.2c0.6,0,1,0.2,1.5,0.4v1c-0.5-0.4-1-0.5-1.5-0.5c-0.7,0-1.2,0.5-1.2,1.3v0
		c0,0.6,0.3,1.1,1.3,2.4c1.2,1.5,1.6,2.3,1.6,3.4v0c0,1.4-0.9,2.2-2.1,2.2C319.1,397.7,318.5,397.5,317.9,397.2z"/>
	<path class="st0" d="M323.7,388.5h-1.5v-0.9h3.9v0.9h-1.5v9.1h-0.9V388.5z"/>
	<path class="st0" d="M327.1,387.6h0.9v10h-0.9V387.6z"/>
	<path class="st0" d="M329.6,387.6h3.5v0.9h-2.6v3.7h2.3v0.9h-2.3v3.7h2.6v0.9h-3.5V387.6z"/>
	<path class="st0" d="M333.8,392.7v-0.3c0-3.3,1.4-5,3.1-5c0.5,0,0.9,0.1,1.2,0.3v1c-0.4-0.3-0.8-0.4-1.2-0.4
		c-1.2,0-2.2,1.3-2.2,4.1v0.3c0,2.9,1,4.1,2.2,4.1c0.2,0,0.3,0,0.5-0.1v-3.6h-1.3v-0.8h2.2v5c-0.5,0.3-0.9,0.4-1.4,0.4
		C335.2,397.7,333.8,396.1,333.8,392.7z"/>
	<path class="st0" d="M339.7,387.6h3.5v0.9h-2.6v3.7h2.3v0.9h-2.3v3.7h2.6v0.9h-3.5V387.6z"/>
	<path class="st0" d="M279,402.1h1l2.1,10.1h-0.9l-0.5-2.6h-2.3l-0.5,2.6h-0.9L279,402.1z M280.5,408.8l-1-5l-1,5H280.5z"/>
	<path class="st0" d="M282.8,409.5v-7.4h0.9v7.4c0,1.2,0.5,1.9,1.3,1.9c0.8,0,1.3-0.6,1.3-1.9v-7.4h0.9v7.4c0,1.8-0.9,2.8-2.2,2.8
		S282.8,411.3,282.8,409.5z"/>
	<path class="st0" d="M288.7,402.2h3.3v0.9h-2.4v3.8h2.2v0.9h-2.2v4.5h-0.9V402.2z"/>
	<path class="st0" d="M295.4,402.2h1.3c0.9,0,1.6,0.3,2.2,0.8c0.4,0.4,0.7,1,0.7,1.7v0c0,1.4-0.8,2.1-1.7,2.4c1.1,0.3,1.8,1,1.8,2.4
		v0c0,1.7-1.2,2.6-3.1,2.6h-1.1V402.2z M298.6,404.8c0-1.1-0.7-1.8-1.8-1.8h-0.5v3.7h0.3C297.9,406.7,298.6,406,298.6,404.8
		L298.6,404.8z M296.6,407.6h-0.4v3.8h0.3c1.3,0,2.1-0.6,2.1-1.8v0C298.7,408.3,297.9,407.6,296.6,407.6z"/>
	<path class="st0" d="M300.8,402.2h0.9v10h-0.9V402.2z"/>
	<path class="st0" d="M303.2,402.2h0.9v9.1h2.3v0.9h-3.2V402.2z"/>
	<path class="st0" d="M307.3,402.2h1.3c1.9,0,3.3,1.7,3.3,4.9v0.3c0,3.2-1.3,4.9-3.3,4.9h-1.3V402.2z M308.2,403v8.3h0.4
		c1.3,0,2.3-1.3,2.3-4V407c0-2.7-1-4-2.3-4H308.2z"/>
	<path class="st0" d="M312.8,410.8h1.2v1.4h-1.2V410.8z"/>
	<path class="st0" d="M315.3,402.2h1.3c1.9,0,3.3,1.7,3.3,4.9v0.3c0,3.2-1.3,4.9-3.3,4.9h-1.3V402.2z M316.2,403v8.3h0.4
		c1.3,0,2.3-1.3,2.3-4V407c0-2.7-1-4-2.3-4H316.2z"/>
	<path class="st0" d="M321,402.2h3.5v0.9H322v3.7h2.3v0.9H322v3.7h2.6v0.9H321V402.2z"/>
</g>
<g>
	<path class="st0" d="M402.8,337.4l-5.9,1.8V327l9.4-3h8.8v58.6h-12.3V337.4z"/>
	<path class="st0" d="M419.8,382v-12.1c2.1,1.1,4.6,1.8,7.4,1.8c4.2,0,7-3.1,7-8.3V363c0-5-2.3-6.9-5.3-6.9c-1.5,0-2.5,0.2-3.7,0.7
		l-5.6-3.3l1.5-29.1h23.2v11.8h-14l-0.6,9.3c0.7-0.1,1.6-0.2,2.6-0.2c7.5,0,14.2,4.6,14.2,17.4v0.7c0,13.3-7.3,20.3-17.8,20.3
		C425.2,383.6,421.9,382.9,419.8,382z"/>
	<path class="st0" d="M448.4,390.2c5.7-1.3,7.4-4.6,7.4-7.6h-6.2v-13.5h13.1v11c0,9-5.1,13.7-13.2,14.8L448.4,390.2z"/>
	<path class="st0" d="M466.1,366.7V366c0-6.8,2.9-11.7,6.5-14.3c-3.6-2.7-5.8-7-5.8-12.4v-0.6c0-9.3,6.1-15.6,14.5-15.6
		s14.5,6.2,14.5,15.5v0.6c0,5.3-2.2,9.8-5.9,12.4c3.7,2.6,6.5,7.3,6.5,14.3v0.7c0,10.5-6.1,17.1-15.2,17.1
		C472.2,383.7,466.1,377.2,466.1,366.7z M484.7,365.8V365c0-5.9-1.4-8.1-3.4-8.1c-2,0-3.5,2.2-3.5,8.1v0.8c0,6.1,1.6,8,3.5,8
		C483.2,373.8,484.7,371.9,484.7,365.8z M484.5,340.6V340c0-5.4-1.4-7.1-3.2-7.1c-1.8,0-3.2,1.7-3.2,7.1v0.6c0,5,1.2,7.2,3.2,7.2
		C483.1,347.8,484.5,345.6,484.5,340.6z"/>
</g>
<g>
	<path class="st0" d="M396.4,308.4h1.7v4.2h1.5v-4.2h1.7v10h-1.7v-4.2h-1.5v4.2h-1.7V308.4z"/>
	<path class="st0" d="M402.2,313.7v-0.5c0-3.3,1.1-4.9,2.6-4.9c1.6,0,2.6,1.6,2.6,4.9v0.5c0,3.3-1.1,4.9-2.6,4.9
		C403.3,318.6,402.2,317,402.2,313.7z M405.7,313.7v-0.5c0-2.6-0.4-3.3-0.9-3.3c-0.5,0-0.9,0.7-0.9,3.3v0.5c0,2.6,0.4,3.3,0.9,3.3
		C405.4,317,405.7,316.3,405.7,313.7z"/>
	<path class="st0" d="M408.3,308.4h1.7v4.2h1.5v-4.2h1.7v10h-1.7v-4.2h-1.5v4.2h-1.7V308.4z"/>
	<path class="st0" d="M414.3,308.4h3.8v1.7H416v2.5h1.8v1.7H416v2.5h2.1v1.7h-3.8V308.4z"/>
	<path class="st0" d="M421.2,308.4h1.6l1.8,5.2v-5.2h1.7v10h-1.5l-1.9-5.4v5.4h-1.7V308.4z"/>
	<path class="st0" d="M427.3,315.5v-7.1h1.7v7.3c0,0.9,0.3,1.2,0.7,1.2c0.4,0,0.7-0.3,0.7-1.2v-7.3h1.7v7.1c0,2.1-1,3-2.5,3
		C428.3,318.6,427.3,317.6,427.3,315.5z"/>
	<path class="st0" d="M434.1,310.1h-1.2v-1.7h4.2v1.7h-1.2v8.4h-1.7V310.1z"/>
	<path class="st0" d="M437.6,317.1l2.3-7h-2.2v-1.6h4.1v1.4l-2.3,7h2.3v1.6h-4.2V317.1z"/>
	<path class="st0" d="M442.6,308.4h3.8v1.7h-2.1v2.5h1.8v1.7h-1.8v2.5h2.1v1.7h-3.8V308.4z"/>
	<path class="st0" d="M447.3,308.4h1.8c0.9,0,1.7,0.3,2.2,0.8c0.5,0.5,0.8,1.3,0.8,2.4v0.1c0,1.3-0.5,2.1-1.2,2.6l1.3,4.1h-1.8
		l-1.1-3.5H449v3.5h-1.7V308.4z M449.1,313.4c0.8,0,1.3-0.4,1.3-1.6v-0.1c0-1.3-0.6-1.6-1.3-1.6h0L449.1,313.4L449.1,313.4z"/>
	<path class="st0" d="M452.9,308.4h3.6v1.7h-1.9v2.5h1.6v1.7h-1.6v4.2h-1.7V308.4z"/>
	<path class="st0" d="M457.3,308.4h1.8c0.9,0,1.7,0.3,2.2,0.8c0.5,0.5,0.8,1.3,0.8,2.4v0.1c0,1.3-0.5,2.1-1.2,2.6l1.3,4.1h-1.8
		l-1.1-3.5h-0.3v3.5h-1.7V308.4z M459.2,313.4c0.8,0,1.3-0.4,1.3-1.6v-0.1c0-1.3-0.6-1.6-1.3-1.6h0L459.2,313.4L459.2,313.4z"/>
	<path class="st0" d="M463,308.4h3.8v1.7h-2.1v2.5h1.8v1.7h-1.8v2.5h2.1v1.7H463V308.4z"/>
	<path class="st0" d="M472.1,318.7l-0.7-0.7c-0.4,0.4-0.9,0.6-1.4,0.6c-1.6,0-2.7-1.6-2.7-4.9v-0.5c0-3.3,1.1-4.9,2.6-4.9
		c1.6,0,2.6,1.6,2.6,4.9v0.5c0,1.4-0.2,2.4-0.5,3.2l0.9,0.8L472.1,318.7z M470.4,316.9l-0.9-0.8l0.8-0.9l0.4,0.4
		c0-0.5,0.1-1.1,0.1-1.9v-0.5c0-2.6-0.4-3.3-0.9-3.3c-0.5,0-0.9,0.7-0.9,3.3v0.5c0,2.8,0.4,3.3,1,3.3
		C470.2,317,470.3,317,470.4,316.9z"/>
	<path class="st0" d="M473.5,315.5v-7.1h1.7v7.3c0,0.9,0.3,1.2,0.7,1.2c0.4,0,0.7-0.3,0.7-1.2v-7.3h1.7v7.1c0,2.1-1,3-2.5,3
		C474.6,318.6,473.5,317.6,473.5,315.5z"/>
	<path class="st0" d="M479.5,308.4h3.8v1.7h-2.1v2.5h1.8v1.7h-1.8v2.5h2.1v1.7h-3.8V308.4z"/>
	<path class="st0" d="M484.1,308.4h1.6l1.8,5.2v-5.2h1.7v10h-1.5l-1.9-5.4v5.4h-1.7V308.4z"/>
	<path class="st0" d="M490,317.1l2.3-7h-2.2v-1.6h4.1v1.4l-2.3,7h2.3v1.6H490V317.1z"/>
	<path class="st0" d="M495.2,310.8h2v2h-2V310.8z M495.2,316.5h2v2h-2V316.5z"/>
</g>
<g>
	<path class="st0" d="M402.2,386.8h1.3c0.9,0,1.6,0.3,2.2,0.8c0.4,0.4,0.7,1,0.7,1.7v0c0,1.4-0.8,2.1-1.7,2.4c1.1,0.3,1.8,1,1.8,2.4
		v0c0,1.7-1.2,2.6-3.1,2.6h-1.1V386.8z M405.4,389.4c0-1.1-0.7-1.8-1.8-1.8h-0.5v3.7h0.3C404.7,391.3,405.4,390.6,405.4,389.4
		L405.4,389.4z M403.4,392.2h-0.4v3.8h0.3c1.3,0,2.1-0.6,2.1-1.8v0C405.5,392.8,404.7,392.2,403.4,392.2z"/>
	<path class="st0" d="M407.2,393.2V393c0-2.6,1-3.9,2.1-3.9c1.2,0,2,1.3,2,3.7v0.6h-3.2c0.1,1.8,0.8,2.6,1.7,2.6
		c0.5,0,0.8-0.1,1.3-0.5l0.1,0.9c-0.5,0.3-0.9,0.5-1.5,0.5C408.3,396.9,407.2,395.6,407.2,393.2z M410.5,392.7
		c0-1.6-0.5-2.7-1.1-2.7c-0.7,0-1.2,0.9-1.2,2.7H410.5z"/>
	<path class="st0" d="M412.1,396.5v-0.9c0.5,0.3,1,0.4,1.5,0.4c0.6,0,1-0.4,1-1v0c0-0.5-0.3-0.9-1.1-1.7c-1-1-1.4-1.6-1.4-2.4v0
		c0-1.1,0.8-1.8,1.8-1.8c0.5,0,0.8,0.1,1.2,0.2v0.9c-0.4-0.2-0.8-0.3-1.2-0.3c-0.6,0-0.9,0.3-0.9,0.9v0c0,0.5,0.2,0.8,1.1,1.7
		c1,1,1.4,1.6,1.4,2.4v0c0,1.1-0.9,1.8-1.9,1.8C413,396.9,412.6,396.8,412.1,396.5z"/>
	<path class="st0" d="M416.3,394.6v-5.4h0.9v5.3c0,1.1,0.4,1.6,1,1.6c0.7,0,1.2-0.7,1.2-1.7v-5.2h0.9v7.6h-0.9v-1
		c-0.3,0.6-0.7,1.2-1.5,1.2C417,396.9,416.3,396.1,416.3,394.6z"/>
	<path class="st0" d="M421.4,393.1v-0.2c0-2.6,1.1-3.8,2.3-3.8c0.4,0,0.7,0.1,0.9,0.2v0.9c-0.3-0.2-0.6-0.3-0.9-0.3
		c-0.7,0-1.4,0.9-1.4,2.9v0.3c0,2.1,0.7,2.9,1.5,2.9c0.3,0,0.6-0.1,0.8-0.3v0.9c-0.3,0.2-0.6,0.3-0.9,0.3
		C422.5,396.9,421.4,395.7,421.4,393.1z"/>
	<path class="st0" d="M425.7,386.7h0.9v3.6c0.3-0.6,0.7-1.2,1.5-1.2c1,0,1.6,0.8,1.6,2.3v5.4h-0.9v-5.3c0-1.1-0.4-1.6-1-1.6
		c-0.7,0-1.2,0.7-1.2,1.7v5.2h-0.9V386.7z"/>
	<path class="st0" d="M430.7,393.2V393c0-2.6,1-3.9,2.1-3.9c1.2,0,2,1.3,2,3.7v0.6h-3.2c0.1,1.8,0.8,2.6,1.7,2.6
		c0.5,0,0.8-0.1,1.3-0.5l0.1,0.9c-0.5,0.3-0.9,0.5-1.5,0.5C431.9,396.9,430.7,395.6,430.7,393.2z M434,392.7c0-1.6-0.5-2.7-1.1-2.7
		c-0.7,0-1.2,0.9-1.2,2.7H434z"/>
	<path class="st0" d="M438.3,385.8h0.8l-3.1,12.4h-0.8L438.3,385.8z"/>
	<path class="st0" d="M402.2,401.4h1l1.7,5.1l1.7-5.1h1v10h-0.9v-7.9l-1.8,5.3h-0.1l-1.8-5.3v7.9h-0.9V401.4z"/>
	<path class="st0" d="M408.7,407.7v-0.2c0-2.4,1-3.8,2.2-3.8c1.2,0,2.2,1.4,2.2,3.8v0.2c0,2.4-1,3.8-2.2,3.8
		C409.7,411.5,408.7,410.1,408.7,407.7z M412.1,407.7v-0.2c0-1.8-0.6-3-1.3-3c-0.7,0-1.3,1.1-1.3,3v0.2c0,1.8,0.6,3,1.3,3
		C411.6,410.7,412.1,409.6,412.1,407.7z"/>
	<path class="st0" d="M414.1,403.8h0.9v1.1c0.3-0.6,0.7-1.2,1.5-1.2c1,0,1.6,0.8,1.6,2.3v5.4h-0.9v-5.3c0-1.1-0.4-1.6-1-1.6
		c-0.7,0-1.2,0.7-1.2,1.7v5.2h-0.9V403.8z"/>
	<path class="st0" d="M419.1,409.2v-0.1c0-1.5,0.7-2.4,1.9-2.4c0.5,0,0.9,0.1,1.2,0.3v-0.8c0-1-0.5-1.5-1.3-1.5
		c-0.5,0-0.9,0.1-1.3,0.3v-0.9c0.4-0.2,0.9-0.3,1.4-0.3c0.7,0,1.1,0.2,1.5,0.6c0.4,0.4,0.6,1,0.6,1.7v5.4h-0.9v-1
		c-0.3,0.7-0.8,1.1-1.4,1.1C419.7,411.5,419.1,410.6,419.1,409.2z M422.1,409.1v-1.4c-0.3-0.2-0.7-0.3-1-0.3c-0.8,0-1.2,0.6-1.2,1.6
		v0.1c0,0.9,0.4,1.6,1,1.6C421.7,410.7,422.1,410,422.1,409.1z"/>
	<path class="st0" d="M424.5,410.1v-5.5h-0.6v-0.8h0.6v-2.1h0.9v2.1h1.1v0.8h-1.1v5.3c0,0.6,0.3,0.7,0.7,0.7c0.1,0,0.3,0,0.4-0.1
		v0.8c-0.2,0.1-0.4,0.1-0.6,0.1C425,411.5,424.5,411.1,424.5,410.1z"/>
	<path class="st0" d="M429.8,403.8h0.9v1.3c0.3-0.8,0.8-1.4,1.5-1.4c1,0,1.9,1.2,1.9,3.7v0.4c0,2.5-0.9,3.7-1.9,3.7
		c-0.8,0-1.2-0.7-1.5-1.4v3.2h-0.9V403.8z M433.2,407.8v-0.3c0-1.9-0.5-2.9-1.2-2.9c-0.7,0-1.3,1-1.3,2.9v0.4c0,1.8,0.6,2.9,1.3,2.9
		C432.6,410.7,433.2,409.6,433.2,407.8z"/>
	<path class="st0" d="M435.2,403.8h0.9v1.1c0.3-0.7,0.8-1.2,1.6-1.1v1h0c-0.9,0-1.6,0.6-1.6,1.8v4.8h-0.9V403.8z"/>
	<path class="st0" d="M438,407.7v-0.2c0-2.4,1-3.8,2.2-3.8c1.2,0,2.2,1.4,2.2,3.8v0.2c0,2.4-1,3.8-2.2,3.8
		C439,411.5,438,410.1,438,407.7z M441.5,407.7v-0.2c0-1.8-0.6-3-1.3-3c-0.7,0-1.3,1.1-1.3,3v0.2c0,1.8,0.6,3,1.3,3
		C440.9,410.7,441.5,409.6,441.5,407.7z"/>
	<path class="st0" d="M445.8,401.4h0.9l2.7,7.5v-7.5h0.9v10h-0.9l-2.8-7.8v7.8h-0.9V401.4z"/>
	<path class="st0" d="M451.7,409.2v-5.4h0.9v5.3c0,1.1,0.4,1.6,1,1.6c0.7,0,1.2-0.7,1.2-1.7v-5.2h0.9v7.6h-0.9v-1
		c-0.3,0.6-0.7,1.2-1.5,1.2C452.3,411.5,451.7,410.7,451.7,409.2z"/>
	<path class="st0" d="M457.3,410.1v-5.5h-0.6v-0.8h0.6v-2.1h0.9v2.1h1.1v0.8h-1.1v5.3c0,0.6,0.3,0.7,0.7,0.7c0.1,0,0.3,0,0.4-0.1
		v0.8c-0.2,0.1-0.4,0.1-0.6,0.1C457.9,411.5,457.3,411.1,457.3,410.1z"/>
	<path class="st0" d="M460,410.8l2.5-6.2h-2.4v-0.8h3.3v0.6l-2.5,6.2h2.5v0.8H460V410.8z"/>
	<path class="st0" d="M464,407.8v-0.2c0-2.6,1-3.9,2.1-3.9c1.2,0,2,1.3,2,3.7v0.6h-3.2c0.1,1.8,0.8,2.6,1.7,2.6
		c0.5,0,0.8-0.1,1.3-0.5l0.1,0.9c-0.5,0.3-0.9,0.5-1.5,0.5C465.2,411.5,464,410.2,464,407.8z M467.3,407.3c0-1.6-0.5-2.7-1.1-2.7
		c-0.7,0-1.2,0.9-1.2,2.7H467.3z"/>
	<path class="st0" d="M469.2,403.8h0.9v1.1c0.3-0.7,0.8-1.2,1.6-1.1v1h0c-0.9,0-1.6,0.6-1.6,1.8v4.8h-0.9V403.8z"/>
</g>
<g>
	<polygon class="st0" points="309.6,79.5 317.3,79.5 317.3,145.4 309.6,145.4 309.6,79.5 	"/>
	<g>
		<path class="st0" d="M291.8,79.5h-15.3l0,65.8l15.3,0c1.9,0,3.4-1.6,3.4-3.6l0-27.1v-1.4c0-2.1-1.6-3.7-3.6-3.7l0.3,0
			c1.8,0,3.2-1.5,3.2-3.4V104V83.1C295.1,81.1,293.6,79.5,291.8,79.5z M287.4,137.2h-3.2v-22.7h3.2V137.2z M287.4,106.4h-3.2V87.7
			h3.2V106.4z"/>
		<rect x="284.2" y="87.7" class="st1" width="3.2" height="18.8"/>
		<rect x="284.2" y="114.5" class="st1" width="3.2" height="22.7"/>
	</g>
	<g>
		<path class="st0" d="M331.5,79.5V91H324c-1.8,0-3.3,1.6-3.3,3.6l0,47.3c0,2,1.5,3.5,3.4,3.6l15.3,0V79.5H331.5z M331.5,137.2h-3.2
			V99h3.2V137.2z"/>
		<rect x="328.4" y="99" class="st1" width="3.2" height="38.2"/>
	</g>
	<polygon class="st0" points="298.5,79.5 306.2,79.5 306.2,87.7 298.5,87.7 298.5,79.5 	"/>
	<polygon class="st0" points="298.5,91 306.2,91 306.2,145.4 298.5,145.4 298.5,91 	"/>
</g>
<g>
	<path class="st0" d="M344.5,79.5h4.7c5.7,0,8.8,4,8.8,11.4V92c0,7.4-3.1,11.4-8.8,11.4h-4.7V79.5z M349.6,84.2v14.5
		c1.8,0,3.3-1.4,3.3-6.6v-1.2C352.9,85.5,351.4,84.2,349.6,84.2z"/>
	<path class="st0" d="M359.5,79.5h10.2v4.9h-5.1V89h4.6v4.8h-4.6v4.8h5.2v4.9h-10.3V79.5z"/>
	<path class="st0" d="M371.1,102.5v-5.1c1.4,0.9,2.8,1.4,4.1,1.4c1.2,0,1.9-0.6,1.9-1.8v0c0-0.8-0.5-1.6-2-3.2
		c-3-2.9-4.3-4.6-4.3-7.8v-0.1c0-4.1,2.7-6.7,6.3-6.7c1.8,0,3.1,0.4,4.2,0.9v5.2c-1.3-0.8-2.5-1.2-3.7-1.2c-1,0-1.8,0.7-1.8,1.7v0
		c0,0.9,0.5,1.5,2,3.2c3.2,3.2,4.3,4.8,4.3,7.9V97c0,4-2.9,6.7-6.4,6.7C374.1,103.7,372.4,103.2,371.1,102.5z"/>
	<path class="st0" d="M383.5,79.5h5v9.1l2.8-9.1h5.3l-3.7,10.1l3.8,13.8h-5.3l-2.2-8.4l-0.7,2.2v6.2h-5V79.5z"/>
	<path class="st0" d="M399.7,84.4h-3.1v-4.9h11.2v4.9h-3.1v19.1h-5V84.4z"/>
	<path class="st0" d="M408.1,92.2v-1.5c0-7.8,2.7-11.7,7-11.7c4.2,0,6.9,3.9,6.9,11.7v1.5c0,7.8-2.7,11.7-6.9,11.7
		C410.8,103.9,408.1,100,408.1,92.2z M416.8,92.2v-1.6c0-5.6-0.7-6.9-1.8-6.9s-1.8,1.3-1.8,6.9v1.6c0,5.7,0.7,6.9,1.8,6.9
		S416.8,97.9,416.8,92.2z"/>
	<path class="st0" d="M423.5,79.5h4.6c4.7,0,7.9,2.5,7.9,8.2v0.3c0,5.8-3.7,8.1-7.4,8.3h-0.1v7.2h-5V79.5z M428.6,91.7
		c1.4-0.1,2.5-1.1,2.5-3.6v-0.4c0-2.6-1-3.6-2.4-3.6h-0.1L428.6,91.7L428.6,91.7z"/>
	<path class="st0" d="M362.4,129.6c-1.2,1-2.5,1.6-4.3,1.6c-3.4,0-6.2-2.5-6.2-6.6v-0.2c0-2.8,1.2-4.9,3.5-6.8c-1.4-2.2-2-3.6-2-5.4
		v-0.2c0-3,2.2-5.5,5.5-5.5s5.3,2.2,5.3,5.5v0.2c0,2.7-1.3,4.7-3.4,6.5l1.9,3.5c0.2-0.8,0.3-1.6,0.5-2.8l3.7,0.6
		c-0.3,2.6-0.9,4.7-1.6,6.4l1.7,3l-3.5,2.1L362.4,129.6z M360.3,126.3l-2.8-5.2c-0.6,0.9-0.9,1.9-0.9,2.9v0.2c0,1.7,0.8,2.8,2.1,2.8
		C359.3,127,359.8,126.8,360.3,126.3z M360,112.3v-0.2c0-1-0.5-1.6-1.2-1.6s-1.1,0.7-1.1,1.6v0.2c0,1,0.3,1.9,1,3.2
		C359.6,114.5,360,113.5,360,112.3z"/>
	<path class="st0" d="M373.1,106.9h4.9l2.8,8l2.8-8h4.9v24h-4.9v-12.8l-2.8,7.8h-0.1l-2.8-7.8v12.8h-4.8V106.9z"/>
	<path class="st0" d="M389.9,119.7v-1.5c0-7.8,2.7-11.7,7-11.7c4.2,0,6.9,3.9,6.9,11.7v1.5c0,7.8-2.7,11.7-6.9,11.7
		C392.6,131.4,389.9,127.4,389.9,119.7z M398.6,119.7v-1.6c0-5.6-0.7-6.9-1.8-6.9s-1.8,1.3-1.8,6.9v1.6c0,5.7,0.7,6.9,1.8,6.9
		S398.6,125.4,398.6,119.7z"/>
	<path class="st0" d="M405.3,106.9h4.6c2.5,0,4.9,0.5,6.3,2c1,1,1.5,2.4,1.5,4.2v0.3c0,2.7-1.5,4.3-3.1,5.2c1.7,0.9,3.5,2.4,3.5,5.3
		v0.3c0,4.5-3.3,6.7-8.1,6.7h-4.7V106.9z M412.9,114.1c0-1.8-1-2.5-2.5-2.5h-0.2v5.1h0.2C411.9,116.8,412.9,115.9,412.9,114.1
		L412.9,114.1z M410.5,120.9h-0.3v5.2h0.3c1.5,0,2.6-0.9,2.6-2.5v-0.1C413.1,121.8,412,120.9,410.5,120.9z"/>
	<path class="st0" d="M419.5,106.9h5v24h-5V106.9z"/>
	<path class="st0" d="M426.4,106.9h5V126h4.5v4.9h-9.5V106.9z"/>
</g>
<rect x="343.7" y="135.1" class="st0" width="92.9" height="10.3"/>
</svg>
