<?xml version="1.0" encoding="utf-8"?>
<!-- Generator: Adobe Illustrator 19.1.0, SVG Export Plug-In . SVG Version: 6.00 Build 0)  -->
<svg version="1.1" id="Ebene_1" xmlns="http://www.w3.org/2000/svg" xmlns:xlink="http://www.w3.org/1999/xlink" x="0px" y="0px"
	 viewBox="0 0 841.9 595.3" style="enable-background:new 0 0 841.9 595.3;" xml:space="preserve">
<style type="text/css">
	.st0{fill:#FFFFFF;}
	.st1{fill:none;}
</style>
<g>
	<polygon class="st0" points="296.3,148.5 311.6,148.5 311.6,280 296.3,280 296.3,148.5 	"/>
	<g>
		<path class="st0" d="M261.2,148.5H231l0,131.5l30.1,0c3.7,0,6.6-3.2,6.7-7.1l0-54.2v-2.9c0-4.1-3.2-7.4-7-7.4l0.7,0
			c3.5,0,6.4-3,6.4-6.7v-4.3v-41.8C267.8,151.6,264.8,148.5,261.2,148.5z M252.6,263.7h-6.3v-45.4h6.3V263.7z M252.6,202.2h-6.3
			v-37.5h6.3V202.2z"/>
		<rect x="246.3" y="164.7" class="st1" width="6.3" height="37.5"/>
		<rect x="246.3" y="218.3" class="st1" width="6.3" height="45.4"/>
	</g>
	<g>
		<path class="st0" d="M339.7,148.5v22.9h-14.9c-3.6,0-6.6,3.2-6.6,7.1l0,94.4c0,3.9,3,7.1,6.7,7.1l30.1,0V148.5H339.7z
			 M339.7,263.7h-6.3v-76.2h6.3V263.7z"/>
		<rect x="333.4" y="187.4" class="st1" width="6.3" height="76.2"/>
	</g>
	<polygon class="st0" points="274.4,148.5 289.7,148.5 289.7,164.7 274.4,164.7 274.4,148.5 	"/>
	<polygon class="st0" points="274.4,171.4 289.7,171.4 289.7,280 274.4,280 274.4,171.4 	"/>
</g>
<g>
	<path class="st0" d="M360.6,192.8v-2.5c0-9.2,2.4-11.8,5.2-11.8c2.2,0,3.4,1.6,4.3,3.4v-10.7h6.4v32.8h-6.4v-3
		c-1,1.8-2.1,3.5-4.3,3.5C363,204.6,360.6,202,360.6,192.8z M370.2,192.9v-2.6c0-3.8-0.5-5.5-1.7-5.5c-1.1,0-1.6,1.8-1.6,5.5v2.6
		c0,3.8,0.5,5.5,1.6,5.5C369.7,198.5,370.2,196.7,370.2,192.9z"/>
	<path class="st0" d="M378.4,192.4v-1.5c0-8,3.4-12.3,7.9-12.3s7.4,4.3,7.4,12.6v3.4h-9.1c0.3,3,1.6,4,3.4,4c1.6,0,3.1-0.7,4.7-1.8
		l0.4,6c-1.7,1.2-3.7,1.9-6.1,1.9C382,204.7,378.4,200.5,378.4,192.4z M387.8,189.9c0-4-0.5-5.5-1.6-5.5c-1,0-1.6,1.2-1.7,5.5H387.8
		z"/>
	<path class="st0" d="M395.4,179.1h6.4v2.9c0.9-1.8,2.2-3.4,4.4-3.4c3.1,0,4.6,2.5,4.6,6.3v19.2h-6.4v-17.4c0-1.3-0.5-2-1.3-2
		c-0.8,0-1.4,0.7-1.4,2v17.4h-6.4V179.1z"/>
	<path class="st0" d="M412.9,171.3h6.4v16.3l2.7-8.5h6.6l-3.8,10.2l3.8,14.8H422l-1.9-8.9l-0.7,2.1v6.8h-6.4V171.3z"/>
	<path class="st0" d="M430.1,199.3v-14.8h-1.3v-5.4h1.3V173h6.4v6.1h2.7v5.4h-2.7v12.7c0,0.9,0.4,1.3,1.2,1.3c0.4,0,0.9-0.1,1.4-0.4
		v5.4c-1,0.6-2.4,1-3.7,1C432.5,204.5,430.1,203.3,430.1,199.3z"/>
	<path class="st0" d="M447.3,171.3h6.5v5.9h-6.5V171.3z M447.4,179.1h6.4v25h-6.4V179.1z"/>
	<path class="st0" d="M456,179.1h6.4v2.9c0.9-1.8,2.2-3.4,4.4-3.4c3.1,0,4.6,2.5,4.6,6.3v19.2h-6.4v-17.4c0-1.3-0.5-2-1.3-2
		c-0.8,0-1.4,0.7-1.4,2v17.4H456V179.1z"/>
</g>
<g>
	<path class="st0" d="M361.2,216.1h8.9c9,0,15.2,5,15.2,16.4v0.5c0,11.7-7.1,16.4-14.3,16.6h-0.3v14.5h-9.7V216.1z M371,240.5
		c2.7-0.1,4.7-2.2,4.7-7.2v-0.8c0-5.2-1.9-7.3-4.7-7.3h-0.2v15.3H371z"/>
	<path class="st0" d="M387.6,215.4h9.5v48.8h-9.5V215.4z"/>
	<path class="st0" d="M399.5,253.8v-1.2c0-8.4,3.4-11.8,8.1-11.8c1.9,0,3.3,0.5,4.8,1.4v-1.4c0-3.4-1.6-5.2-4.7-5.2
		c-2.2,0-4.7,1-6.4,1.9v-9.3c2.5-1.1,5.4-1.7,8.5-1.7c3.9,0,6.8,1.1,8.7,3.2c2.1,2.3,3.2,5.8,3.2,10.3v24.3h-9.4v-3.5
		c-1.4,2.7-3.3,4.2-5.9,4.2C402.5,264.9,399.5,260.9,399.5,253.8z M412.4,254.1v-5.7c-0.5-0.3-1.4-0.6-2.1-0.6
		c-1.4,0-2.2,1.4-2.2,4.2v1.4c0,2.9,0.9,4,2.1,4C411.3,257.3,412.4,256.3,412.4,254.1z"/>
	<path class="st0" d="M425.3,257v-22h-1.9v-8h1.9v-9.1h9.5v9.1h4v8h-4v18.9c0,1.3,0.6,1.9,1.8,1.9c0.6,0,1.3-0.2,2.1-0.5v8
		c-1.5,0.8-3.6,1.4-5.6,1.4C428.8,264.8,425.3,263,425.3,257z"/>
	<path class="st0" d="M442,257v-22H440v-8h1.9v-9.1h9.5v9.1h4v8h-4v18.9c0,1.3,0.6,1.9,1.8,1.9c0.6,0,1.3-0.2,2.1-0.5v8
		c-1.5,0.8-3.6,1.4-5.6,1.4C445.5,264.8,442,263,442,257z"/>
	<path class="st0" d="M458.8,235h-2v-8h2v-1.6c0-3.4,0.8-5.9,2.4-7.6c1.6-1.7,4-2.5,7-2.5c1.8,0,2.9,0.1,4,0.3v7.8
		c-0.3-0.1-0.9-0.1-1.4-0.1c-1.7,0-2.7,0.9-2.7,2.8v1h4.1v8h-4v29.1h-9.5V235z"/>
	<path class="st0" d="M472.9,247.1v-2.9c0-11.8,4.9-18,12-18c7,0,11.9,6.2,11.9,18v2.9c0,11.8-4.9,18-11.9,18
		C477.8,265.1,472.9,258.9,472.9,247.1z M487.3,247.1V244c0-6.5-0.8-9-2.5-9s-2.5,2.5-2.5,9v3.1c0,6.5,0.8,9,2.5,9
		S487.3,253.6,487.3,247.1z"/>
	<path class="st0" d="M499.5,227h9.4v5.2c1.1-3.7,2.7-5.8,5.6-5.6v12h-0.2c-3.6,0-5.3,2.5-5.3,7.7v17.9h-9.5V227z"/>
	<path class="st0" d="M516.7,227h9.4v4.2c1.4-2.7,3.3-4.9,6.5-4.9c3.2,0,5.1,2,6.2,4.6c1.4-2.3,3.5-4.6,6.7-4.6
		c4.2,0,7.2,3.5,7.2,9.4v28.5h-9.4v-25.8c0-1.9-0.7-3.1-1.9-3.1c-1.2,0-2,1.2-2,3.1v25.8H530v-25.8c0-1.9-0.7-3.1-1.9-3.1
		c-1.2,0-2,1.2-2,3.1v25.8h-9.4V227z"/>
	<path class="st0" d="M555.3,246.7v-2.2c0-11.9,5.1-18.4,11.8-18.4c6.7,0,11,6.5,11,18.7v5h-13.5c0.5,4.4,2.4,6,5.1,6
		c2.4,0,4.7-1.1,6.9-2.7l0.6,8.9c-2.6,1.7-5.5,2.9-9,2.9C560.8,265,555.3,258.7,555.3,246.7z M569.4,243c0-5.9-0.8-8.1-2.3-8.1
		c-1.4,0-2.4,1.8-2.5,8.1H569.4z"/>
	<path class="st0" d="M580.7,227h9.5v4.3c1.3-2.6,3.2-5,6.5-5c4.6,0,6.9,3.8,6.9,9.3v28.6h-9.5v-25.9c0-1.9-0.7-3-1.9-3
		c-1.2,0-2,1.1-2,3v25.9h-9.5V227z"/>
</g>
<rect x="361.3" y="270.4" class="st0" width="243.1" height="10"/>
<g>
	<path class="st0" d="M232.8,293.5h7.8v1.3h-6.3v9.6h5.8v1.3h-5.8v9.8h6.4v1.3h-7.9V293.5z"/>
	<path class="st0" d="M243.5,293.3h1.5v2.3h-1.5V293.3z M243.6,299.3h1.4v17.5h-1.4V299.3z"/>
	<path class="st0" d="M248.6,299.3h1.4v2.6c0.6-1.5,1.6-2.8,3.5-2.8c2.3,0,3.9,2,3.9,5.5v12.2H256v-12.1c0-2.9-1-4.5-2.8-4.5
		c-1.8,0-3.3,1.9-3.3,4.7v11.8h-1.4V299.3z"/>
	<path class="st0" d="M260.1,308.4v-0.3c0-6.1,2.2-9,4.7-9c2.5,0,4.5,3.1,4.5,8.6v1h-7.8c0.1,4.7,2,7.1,4.3,7.1c1,0,1.9-0.3,3-1
		l0.2,1.4c-1.2,0.7-2,0.9-3.3,0.9C262.6,317,260.1,314.2,260.1,308.4z M267.9,307.4c0-4-1.3-7.1-3.1-7.1c-1.8,0-3.2,2.4-3.3,7.1
		H267.9z"/>
	<path class="st0" d="M277.6,293.3h1.5v2.3h-1.5V293.3z M277.7,299.3h1.4v17.5h-1.4V299.3z"/>
	<path class="st0" d="M282.7,299.3h1.4v2.6c0.6-1.5,1.6-2.8,3.5-2.8c2.3,0,3.9,2,3.9,5.5v12.2h-1.4v-12.1c0-2.9-1-4.5-2.8-4.5
		c-1.8,0-3.3,1.9-3.3,4.7v11.8h-1.4V299.3z"/>
	<path class="st0" d="M295.2,313.9v-13.2h-1.6v-1.3h1.6v-4.9h1.4v4.9h2.8v1.3h-2.8v13c0,1.5,0.7,1.9,1.8,1.9c0.3,0,0.8-0.1,1-0.2
		v1.3c-0.3,0.1-0.8,0.2-1.2,0.2C296.4,316.9,295.2,316.1,295.2,313.9z"/>
	<path class="st0" d="M301,308.4v-0.3c0-6.1,2.2-9,4.7-9c2.5,0,4.5,3.1,4.5,8.6v1h-7.8c0.1,4.7,2,7.1,4.3,7.1c1,0,1.9-0.3,3-1
		l0.2,1.4c-1.2,0.7-2,0.9-3.3,0.9C303.6,317,301,314.2,301,308.4z M308.9,307.4c0-4-1.3-7.1-3.1-7.1c-1.8,0-3.2,2.4-3.3,7.1H308.9z"
		/>
	<path class="st0" d="M313.1,299.3h1.4v2.6c0.7-1.6,2-2.9,4-2.8v1.5h-0.1c-2.2,0-4,1.4-4,4.5v11.7h-1.4V299.3z"/>
	<path class="st0" d="M319.3,311.7v-0.3c0-3.2,1.6-5.6,4.5-5.6c1.2,0,2.1,0.3,2.9,0.7v-2.2c0-2.4-1.1-3.9-3.3-3.9
		c-1.2,0-2.2,0.2-3.2,0.8v-1.4c0.9-0.5,2-0.8,3.2-0.8c1.4,0,2.5,0.4,3.3,1.3c0.7,0.7,1.2,2.1,1.2,3.8v12.6h-1.4v-2.5
		c-0.7,1.7-1.8,2.8-3.5,2.8C320.9,317.1,319.3,314.8,319.3,311.7z M326.7,311.3v-3.5c-0.9-0.4-1.8-0.7-2.8-0.7
		c-2.1,0-3.2,1.8-3.2,4.2v0.3c0,2.4,0.9,4.2,2.7,4.2C325.4,315.9,326.7,313.6,326.7,311.3z"/>
	<path class="st0" d="M331.4,293.3h1.4V309l4.9-9.7h1.5l-3.8,7l4.2,10.5h-1.5l-3.5-9l-1.8,3.4v5.6h-1.4V293.3z"/>
	<path class="st0" d="M342.6,313.9v-13.2H341v-1.3h1.6v-4.9h1.4v4.9h2.8v1.3H344v13c0,1.5,0.7,1.9,1.8,1.9c0.3,0,0.8-0.1,1-0.2v1.3
		c-0.3,0.1-0.8,0.2-1.2,0.2C343.8,316.9,342.6,316.1,342.6,313.9z"/>
	<path class="st0" d="M349.6,293.3h1.5v2.3h-1.5V293.3z M349.6,299.3h1.4v17.5h-1.4V299.3z"/>
	<path class="st0" d="M353.8,299.3h1.4l3.4,15.1l3.5-15.1h1.3l-4.2,17.6H358L353.8,299.3z"/>
	<path class="st0" d="M364.7,308.4v-0.3c0-6.1,2.2-9,4.7-9c2.5,0,4.5,3.1,4.5,8.6v1h-7.8c0.1,4.7,2,7.1,4.3,7.1c1,0,1.9-0.3,3-1
		l0.2,1.4c-1.2,0.7-2,0.9-3.3,0.9C367.3,317,364.7,314.2,364.7,308.4z M372.5,307.4c0-4-1.3-7.1-3.1-7.1c-1.8,0-3.2,2.4-3.3,7.1
		H372.5z"/>
	<path class="st0" d="M381.4,305.4v-0.5c0-7.7,2.3-11.7,5.4-11.7c3.1,0,5.4,4,5.4,11.7v0.5c0,7.7-2.3,11.7-5.4,11.7
		C383.7,317.1,381.4,313.1,381.4,305.4z M390.8,305.4v-0.5c0-6.8-1.7-10.3-4-10.3s-4,3.5-4,10.3v0.5c0,6.8,1.7,10.3,4,10.3
		S390.8,312.2,390.8,305.4z"/>
	<path class="st0" d="M395.2,299.3h1.4v2.6c0.6-1.5,1.6-2.8,3.5-2.8c2.3,0,3.9,2,3.9,5.5v12.2h-1.4v-12.1c0-2.9-1-4.5-2.8-4.5
		c-1.8,0-3.3,1.9-3.3,4.7v11.8h-1.4V299.3z"/>
	<path class="st0" d="M406.7,308.4v-0.3c0-6.1,2.2-9,4.7-9c2.5,0,4.5,3.1,4.5,8.6v1H408c0.1,4.7,2,7.1,4.3,7.1c1,0,1.9-0.3,3-1
		l0.2,1.4c-1.2,0.7-2,0.9-3.3,0.9C409.2,317,406.7,314.2,406.7,308.4z M414.5,307.4c0-4-1.3-7.1-3.1-7.1c-1.8,0-3.2,2.4-3.3,7.1
		H414.5z"/>
	<path class="st0" d="M417.8,316.2v-1.5c1.2,0.6,2.4,1,3.5,1c1.4,0,2.6-1,2.6-2.6V313c0-1.2-0.7-2.5-2.7-4.4
		c-2.5-2.5-3.4-3.8-3.4-5.6v-0.1c0-2.4,1.9-3.8,3.9-3.8c1.1,0,1.9,0.2,2.8,0.6v1.5c-1-0.5-1.9-0.7-2.9-0.7c-1.4,0-2.4,0.9-2.4,2.5
		v0.1c0,1.3,0.7,2.2,2.7,4.3c2.4,2.4,3.4,3.9,3.4,5.7v0.1c0,2.5-2,4-4,4C419.9,317,418.9,316.7,417.8,316.2z"/>
	<path class="st0" d="M427.1,308.3v-0.3c0-6.1,2.6-8.9,5.2-8.9c0.8,0,1.6,0.3,2.1,0.6v1.5c-0.6-0.5-1.3-0.8-2.1-0.8
		c-1.8,0-3.8,2.3-3.8,7.5v0.5c0,5.3,2,7.4,4,7.4c0.7,0,1.4-0.3,2-0.8v1.5c-0.6,0.4-1.2,0.7-2.1,0.7
		C429.7,317,427.1,314.4,427.1,308.3z"/>
	<path class="st0" d="M437,299.3h1.4v2.6c0.7-1.6,2-2.9,4-2.8v1.5h-0.1c-2.2,0-4,1.4-4,4.5v11.7H437V299.3z"/>
	<path class="st0" d="M443.3,308.4v-0.3c0-6.1,2.2-9,4.7-9c2.5,0,4.5,3.1,4.5,8.6v1h-7.8c0.1,4.7,2,7.1,4.3,7.1c1,0,1.9-0.3,3-1
		l0.2,1.4c-1.2,0.7-2,0.9-3.3,0.9C445.9,317,443.3,314.2,443.3,308.4z M451.1,307.4c0-4-1.3-7.1-3.1-7.1c-1.8,0-3.2,2.4-3.3,7.1
		H451.1z"/>
	<path class="st0" d="M454.7,308.4v-0.3c0-6.1,2.2-9,4.7-9c2.5,0,4.5,3.1,4.5,8.6v1H456c0.1,4.7,2,7.1,4.3,7.1c1,0,1.9-0.3,3-1
		l0.2,1.4c-1.2,0.7-2,0.9-3.3,0.9C457.3,317,454.7,314.2,454.7,308.4z M462.5,307.4c0-4-1.3-7.1-3.1-7.1c-1.8,0-3.2,2.4-3.3,7.1
		H462.5z"/>
	<path class="st0" d="M466.7,299.3h1.4v2.6c0.6-1.5,1.6-2.8,3.5-2.8c2.3,0,3.9,2,3.9,5.5v12.2h-1.4v-12.1c0-2.9-1-4.5-2.8-4.5
		c-1.8,0-3.3,1.9-3.3,4.7v11.8h-1.4V299.3z"/>
	<path class="st0" d="M478.5,306.3h6.1v1.3h-6.1V306.3z"/>
	<path class="st0" d="M487.7,293.5h2.8c4.1,0,6.6,2.8,6.6,7.3v0.1c0,4.4-2.4,7.4-6.7,7.4h-1.3v8.6h-1.4V293.5z M490.6,306.9
		c3.3,0,5.1-2.3,5.1-6.1v-0.1c0-3.8-2-6-5.2-6h-1.3v12.1H490.6z"/>
	<path class="st0" d="M499.5,299.3h1.4v2.6c0.7-1.6,2-2.9,4-2.8v1.5h-0.1c-2.2,0-4,1.4-4,4.5v11.7h-1.4V299.3z"/>
	<path class="st0" d="M505.7,311.7v-0.3c0-3.2,1.6-5.6,4.5-5.6c1.2,0,2.1,0.3,2.9,0.7v-2.2c0-2.4-1.1-3.9-3.3-3.9
		c-1.2,0-2.2,0.2-3.2,0.8v-1.4c0.9-0.5,2-0.8,3.2-0.8c1.4,0,2.5,0.4,3.3,1.3c0.7,0.7,1.2,2.1,1.2,3.8v12.6h-1.4v-2.5
		c-0.7,1.7-1.8,2.8-3.5,2.8C507.3,317.1,505.7,314.8,505.7,311.7z M513.1,311.3v-3.5c-0.9-0.4-1.8-0.7-2.8-0.7
		c-2.1,0-3.2,1.8-3.2,4.2v0.3c0,2.4,0.9,4.2,2.7,4.2C511.8,315.9,513.1,313.6,513.1,311.3z M508,295.1h1.5v2.2H508V295.1z
		 M511.3,295.1h1.5v2.2h-1.5V295.1z"/>
	<path class="st0" d="M516.9,316.2v-1.5c1.2,0.6,2.4,1,3.5,1c1.4,0,2.6-1,2.6-2.6V313c0-1.2-0.7-2.5-2.7-4.4
		c-2.5-2.5-3.4-3.8-3.4-5.6v-0.1c0-2.4,1.9-3.8,3.9-3.8c1.1,0,1.9,0.2,2.8,0.6v1.5c-1-0.5-1.9-0.7-2.9-0.7c-1.4,0-2.4,0.9-2.4,2.5
		v0.1c0,1.3,0.7,2.2,2.7,4.3c2.4,2.4,3.4,3.9,3.4,5.7v0.1c0,2.5-2,4-4,4C519,317,518,316.7,516.9,316.2z"/>
	<path class="st0" d="M526.2,308.4v-0.3c0-6.1,2.2-9,4.7-9c2.5,0,4.5,3.1,4.5,8.6v1h-7.8c0.1,4.7,2,7.1,4.3,7.1c1,0,1.9-0.3,3-1
		l0.2,1.4c-1.2,0.7-2,0.9-3.3,0.9C528.8,317,526.2,314.2,526.2,308.4z M534,307.4c0-4-1.3-7.1-3.1-7.1c-1.8,0-3.2,2.4-3.3,7.1H534z"
		/>
	<path class="st0" d="M538.3,299.3h1.4v2.6c0.6-1.5,1.6-2.8,3.5-2.8c2.3,0,3.9,2,3.9,5.5v12.2h-1.4v-12.1c0-2.9-1-4.5-2.8-4.5
		c-1.8,0-3.3,1.9-3.3,4.7v11.8h-1.4V299.3z"/>
	<path class="st0" d="M550.8,313.9v-13.2h-1.6v-1.3h1.6v-4.9h1.4v4.9h2.8v1.3h-2.8v13c0,1.5,0.7,1.9,1.8,1.9c0.3,0,0.8-0.1,1-0.2
		v1.3c-0.3,0.1-0.8,0.2-1.2,0.2C552,316.9,550.8,316.1,550.8,313.9z"/>
	<path class="st0" d="M556.8,311.7v-0.3c0-3.2,1.6-5.6,4.5-5.6c1.2,0,2.1,0.3,2.9,0.7v-2.2c0-2.4-1.1-3.9-3.3-3.9
		c-1.2,0-2.2,0.2-3.2,0.8v-1.4c0.9-0.5,2-0.8,3.2-0.8c1.4,0,2.5,0.4,3.3,1.3c0.7,0.7,1.2,2.1,1.2,3.8v12.6h-1.4v-2.5
		c-0.7,1.7-1.8,2.8-3.5,2.8C558.4,317.1,556.8,314.8,556.8,311.7z M564.2,311.3v-3.5c-0.9-0.4-1.8-0.7-2.8-0.7
		c-2.1,0-3.2,1.8-3.2,4.2v0.3c0,2.4,0.9,4.2,2.7,4.2C562.9,315.9,564.2,313.6,564.2,311.3z"/>
	<path class="st0" d="M569.2,313.9v-13.2h-1.6v-1.3h1.6v-4.9h1.4v4.9h2.8v1.3h-2.8v13c0,1.5,0.7,1.9,1.8,1.9c0.3,0,0.8-0.1,1-0.2
		v1.3c-0.3,0.1-0.8,0.2-1.2,0.2C570.4,316.9,569.2,316.1,569.2,313.9z"/>
	<path class="st0" d="M576.2,293.3h1.5v2.3h-1.5V293.3z M576.3,299.3h1.4v17.5h-1.4V299.3z"/>
	<path class="st0" d="M580.6,308.2v-0.3c0-5.5,2.3-8.9,4.9-8.9s4.8,3.4,4.8,8.9v0.3c0,5.5-2.3,8.9-4.9,8.9
		C582.9,317.1,580.6,313.7,580.6,308.2z M589,308.2v-0.3c0-4.6-1.6-7.6-3.5-7.6c-1.9,0-3.5,3-3.5,7.6v0.3c0,4.6,1.6,7.6,3.5,7.6
		C587.4,315.8,589,312.8,589,308.2z"/>
	<path class="st0" d="M593.1,299.3h1.4v2.6c0.6-1.5,1.6-2.8,3.5-2.8c2.3,0,3.9,2,3.9,5.5v12.2h-1.4v-12.1c0-2.9-1-4.5-2.8-4.5
		c-1.8,0-3.3,1.9-3.3,4.7v11.8h-1.4V299.3z"/>
	<path class="st0" d="M234.1,346.4v3.4h-1.4v-23.5h1.4v9.4c0.7-2,1.9-3.6,3.6-3.6c2.4,0,4.5,3.1,4.5,8.7v0.6c0,5.6-2.1,8.7-4.5,8.7
		C236,350,234.8,348.4,234.1,346.4z M240.8,341.3v-0.6c0-4.8-1.5-7.5-3.3-7.5c-1.7,0-3.5,2.7-3.5,7.4v0.8c0,4.7,1.8,7.4,3.5,7.4
		C239.3,348.8,240.8,346.1,240.8,341.3z"/>
	<path class="st0" d="M244.3,341.3V341c0-6.1,2.2-9,4.7-9c2.5,0,4.5,3.1,4.5,8.6v1h-7.8c0.1,4.7,2,7.1,4.3,7.1c1,0,1.9-0.3,3-1
		l0.2,1.4c-1.2,0.7-2,0.9-3.3,0.9C246.9,350,244.3,347.1,244.3,341.3z M252.2,340.4c0-4-1.3-7.1-3.1-7.1c-1.8,0-3.2,2.4-3.3,7.1
		H252.2z"/>
	<path class="st0" d="M256.5,326.2h1.5v2.3h-1.5V326.2z M256.6,332.3h1.4v17.5h-1.4V332.3z"/>
	<path class="st0" d="M266.4,341.3v-0.6c0-5.6,2.1-8.7,4.5-8.7c1.7,0,2.9,1.6,3.6,3.6v-9.4h1.4v23.5h-1.4v-3.4
		c-0.7,2-1.9,3.6-3.6,3.6C268.5,350,266.4,347,266.4,341.3z M274.5,341.4v-0.8c0-4.7-1.8-7.4-3.5-7.4c-1.8,0-3.3,2.7-3.3,7.5v0.6
		c0,4.8,1.5,7.5,3.3,7.5C272.8,348.8,274.5,346.1,274.5,341.4z"/>
	<path class="st0" d="M278.6,341.3V341c0-6.1,2.2-9,4.7-9c2.5,0,4.5,3.1,4.5,8.6v1H280c0.1,4.7,2,7.1,4.3,7.1c1,0,1.9-0.3,3-1
		l0.2,1.4c-1.2,0.7-2,0.9-3.3,0.9C281.2,350,278.6,347.1,278.6,341.3z M286.4,340.4c0-4-1.3-7.1-3.1-7.1c-1.8,0-3.2,2.4-3.3,7.1
		H286.4z"/>
	<path class="st0" d="M290.7,332.3h1.4v2.6c0.6-1.5,1.6-2.8,3.5-2.8c2.3,0,3.9,2,3.9,5.5v12.2h-1.4v-12.1c0-2.9-1-4.5-2.8-4.5
		c-1.8,0-3.3,1.9-3.3,4.7v11.8h-1.4V332.3z"/>
	<path class="st0" d="M307.7,338.4v-0.5c0-7.7,2.3-11.6,5.4-11.6c3.1,0,5.4,4,5.4,11.6v0.5c0,7.7-2.3,11.7-5.4,11.7
		C310,350,307.7,346.1,307.7,338.4z M317.1,338.4v-0.5c0-6.8-1.7-10.3-4-10.3c-2.3,0-4,3.5-4,10.3v0.5c0,6.8,1.7,10.3,4,10.3
		C315.4,348.7,317.1,345.2,317.1,338.4z"/>
	<path class="st0" d="M321.5,332.3h1.4v2.6c0.6-1.5,1.6-2.8,3.5-2.8c2.3,0,3.9,2,3.9,5.5v12.2h-1.4v-12.1c0-2.9-1-4.5-2.8-4.5
		c-1.8,0-3.3,1.9-3.3,4.7v11.8h-1.4V332.3z"/>
	<path class="st0" d="M333.8,326.2h1.4v23.5h-1.4V326.2z"/>
	<path class="st0" d="M339,326.2h1.5v2.3H339V326.2z M339,332.3h1.4v17.5H339V332.3z"/>
	<path class="st0" d="M344.1,332.3h1.4v2.6c0.6-1.5,1.6-2.8,3.5-2.8c2.3,0,3.9,2,3.9,5.5v12.2h-1.4v-12.1c0-2.9-1-4.5-2.8-4.5
		c-1.8,0-3.3,1.9-3.3,4.7v11.8h-1.4V332.3z"/>
	<path class="st0" d="M355.5,341.3V341c0-6.1,2.2-9,4.7-9c2.5,0,4.5,3.1,4.5,8.6v1h-7.8c0.1,4.7,2,7.1,4.3,7.1c1,0,1.9-0.3,3-1
		l0.2,1.4c-1.2,0.7-2,0.9-3.3,0.9C358.1,350,355.5,347.1,355.5,341.3z M363.4,340.4c0-4-1.3-7.1-3.1-7.1c-1.8,0-3.2,2.4-3.3,7.1
		H363.4z"/>
	<path class="st0" d="M373.1,326.5h1.8l4.2,13l4.2-13h1.7v23.3h-1.4v-20.1l-4.5,13.5H379l-4.5-13.5v20.1h-1.4V326.5z"/>
	<path class="st0" d="M387.8,344.7v-0.3c0-3.2,1.6-5.6,4.5-5.6c1.2,0,2.1,0.3,2.9,0.7v-2.2c0-2.4-1.1-3.9-3.3-3.9
		c-1.2,0-2.2,0.2-3.2,0.8v-1.4c0.9-0.5,2-0.8,3.2-0.8c1.4,0,2.5,0.4,3.3,1.3c0.7,0.7,1.2,2.1,1.2,3.8v12.6h-1.4v-2.5
		c-0.7,1.7-1.8,2.8-3.5,2.8C389.4,350.1,387.8,347.8,387.8,344.7z M395.2,344.3v-3.5c-0.9-0.4-1.8-0.7-2.8-0.7
		c-2.1,0-3.2,1.8-3.2,4.2v0.3c0,2.4,0.9,4.2,2.7,4.2C393.9,348.8,395.2,346.6,395.2,344.3z"/>
	<path class="st0" d="M399.9,332.3h1.4v2.6c0.7-1.6,2-2.9,4-2.8v1.5h-0.1c-2.2,0-4,1.4-4,4.5v11.7h-1.4V332.3z"/>
	<path class="st0" d="M407.5,326.2h1.4V342l4.9-9.7h1.5l-3.8,7l4.2,10.5h-1.5l-3.5-9l-1.8,3.4v5.6h-1.4V326.2z"/>
	<path class="st0" d="M416.9,341.3V341c0-6.1,2.2-9,4.7-9c2.5,0,4.5,3.1,4.5,8.6v1h-7.8c0.1,4.7,2,7.1,4.3,7.1c1,0,1.9-0.3,3-1
		l0.2,1.4c-1.2,0.7-2,0.9-3.3,0.9C419.5,350,416.9,347.1,416.9,341.3z M424.7,340.4c0-4-1.3-7.1-3.1-7.1c-1.8,0-3.2,2.4-3.3,7.1
		H424.7z"/>
	<path class="st0" d="M429.3,346.8v-13.2h-1.6v-1.3h1.6v-4.9h1.4v4.9h2.8v1.3h-2.8v13c0,1.5,0.7,1.9,1.8,1.9c0.3,0,0.8-0.1,1-0.2
		v1.3c-0.3,0.1-0.8,0.2-1.2,0.2C430.5,349.9,429.3,349.1,429.3,346.8z"/>
	<path class="st0" d="M436.3,326.2h1.5v2.3h-1.5V326.2z M436.3,332.3h1.4v17.5h-1.4V332.3z"/>
	<path class="st0" d="M441.3,332.3h1.4v2.6c0.6-1.5,1.6-2.8,3.5-2.8c2.3,0,3.9,2,3.9,5.5v12.2h-1.4v-12.1c0-2.9-1-4.5-2.8-4.5
		c-1.8,0-3.3,1.9-3.3,4.7v11.8h-1.4V332.3z"/>
	<path class="st0" d="M453.6,353.5V352c1.2,0.5,2.7,0.8,3.8,0.8c2.3,0,3.5-1.1,3.5-3.5v-4.1c-0.7,2-1.9,3.6-3.6,3.6
		c-2.3,0-4.5-2.9-4.5-8.3v-0.3c0-5.3,2.2-8.3,4.5-8.3c1.7,0,2.9,1.6,3.6,3.6v-3.4h1.4v17c0,1.6-0.4,2.8-1.2,3.6
		c-0.8,0.9-2.1,1.3-3.8,1.3C456.2,354.2,454.8,353.9,453.6,353.5z M461,340.6v-0.3c0-4.5-1.8-7-3.5-7c-1.7,0-3.3,2.5-3.3,7.1v0.2
		c0,4.6,1.6,7.1,3.3,7.1C459.2,347.6,461,345,461,340.6z"/>
	<path class="st0" d="M471.3,326.5h2.8c2,0,3.6,0.6,4.8,1.8c1.1,1.2,1.8,2.9,1.8,5.1v0.1c0,3.2-1.5,5.6-4,6.5l4.4,9.9h-1.7l-4.1-9.5
		c-0.4,0.1-0.8,0.1-1.3,0.1h-1.3v9.4h-1.4V326.5z M474.1,339.1c3.1,0,5.1-2,5.1-5.7v-0.1c0-3.8-2.1-5.6-5.2-5.6h-1.3v11.3H474.1z"/>
	<path class="st0" d="M482.7,341.2v-0.3c0-5.5,2.3-8.9,4.9-8.9s4.8,3.4,4.8,8.9v0.3c0,5.5-2.3,8.9-4.9,8.9
		C485,350,482.7,346.7,482.7,341.2z M491,341.2v-0.3c0-4.6-1.6-7.6-3.5-7.6c-1.9,0-3.5,3-3.5,7.6v0.3c0,4.6,1.6,7.6,3.5,7.6
		C489.5,348.7,491,345.8,491,341.2z"/>
	<path class="st0" d="M494.5,341.2v-0.3c0-6.1,2.6-8.9,5.2-8.9c0.8,0,1.6,0.3,2.1,0.6v1.5c-0.6-0.5-1.3-0.8-2.1-0.8
		c-1.8,0-3.8,2.3-3.8,7.5v0.5c0,5.3,2,7.4,4,7.4c0.7,0,1.4-0.3,2-0.8v1.5c-0.6,0.4-1.2,0.7-2.1,0.7C497,350,494.5,347.3,494.5,341.2
		z"/>
	<path class="st0" d="M504.4,326.2h1.4V342l4.9-9.7h1.5l-3.8,7l4.2,10.5h-1.5l-3.5-9l-1.8,3.4v5.6h-1.4V326.2z"/>
	<path class="st0" d="M514.2,349.1v-1.5c1.2,0.6,2.4,1,3.5,1c1.4,0,2.6-1,2.6-2.6V346c0-1.2-0.7-2.5-2.7-4.4
		c-2.5-2.5-3.4-3.8-3.4-5.6v-0.1c0-2.4,1.9-3.8,3.9-3.8c1.1,0,1.9,0.2,2.8,0.6v1.5c-1-0.5-1.9-0.7-2.9-0.7c-1.4,0-2.4,0.9-2.4,2.5
		v0.1c0,1.3,0.7,2.2,2.7,4.3c2.4,2.4,3.4,3.9,3.4,5.7v0.1c0,2.5-2,4-4,4C516.2,350,515.3,349.7,514.2,349.1z"/>
	<path class="st0" d="M524.5,346.8v-13.2h-1.6v-1.3h1.6v-4.9h1.4v4.9h2.8v1.3h-2.8v13c0,1.5,0.7,1.9,1.8,1.9c0.3,0,0.8-0.1,1-0.2
		v1.3c-0.3,0.1-0.8,0.2-1.2,0.2C525.7,349.9,524.5,349.1,524.5,346.8z"/>
	<path class="st0" d="M530.6,344.7v-0.3c0-3.2,1.6-5.6,4.5-5.6c1.2,0,2.1,0.3,2.9,0.7v-2.2c0-2.4-1.1-3.9-3.3-3.9
		c-1.2,0-2.2,0.2-3.2,0.8v-1.4c0.9-0.5,2-0.8,3.2-0.8c1.4,0,2.5,0.4,3.3,1.3c0.7,0.7,1.2,2.1,1.2,3.8v12.6h-1.4v-2.5
		c-0.7,1.7-1.8,2.8-3.5,2.8C532.2,350.1,530.6,347.8,530.6,344.7z M537.9,344.3v-3.5c-0.9-0.4-1.8-0.7-2.8-0.7
		c-2.1,0-3.2,1.8-3.2,4.2v0.3c0,2.4,0.9,4.2,2.7,4.2C536.7,348.8,537.9,346.6,537.9,344.3z"/>
	<path class="st0" d="M542.6,332.3h1.4v2.6c0.7-1.6,2-2.9,4-2.8v1.5H548c-2.2,0-4,1.4-4,4.5v11.7h-1.4V332.3z"/>
	<path class="st0" d="M549,349.1v-1.5c1.2,0.6,2.4,1,3.5,1c1.4,0,2.6-1,2.6-2.6V346c0-1.2-0.7-2.5-2.7-4.4c-2.5-2.5-3.4-3.8-3.4-5.6
		v-0.1c0-2.4,1.9-3.8,3.9-3.8c1.1,0,1.9,0.2,2.8,0.6v1.5c-1-0.5-1.9-0.7-2.9-0.7c-1.4,0-2.4,0.9-2.4,2.5v0.1c0,1.3,0.7,2.2,2.7,4.3
		c2.4,2.4,3.4,3.9,3.4,5.7v0.1c0,2.5-2,4-4,4C551.1,350,550.2,349.7,549,349.1z"/>
	<path class="st0" d="M563.4,346.3l4.1-8.9c1.3-2.8,1.7-4,1.7-5.1c0-1.2-0.7-2.2-2.2-2.2c-1.2,0-2.3,0.5-3.2,1.1v-3.9
		c1.1-0.6,2.4-1.1,4.1-1.1c3.1,0,5.2,2,5.2,5.5v0.2c0,1.8-0.4,3.6-1.8,6.4l-3.7,7.7h5.4v4h-9.6V346.3z"/>
	<path class="st0" d="M574.4,338.7v-1.3c0-8.1,2-11.4,5.7-11.4c3.6,0,5.7,3.3,5.7,11.4v1.3c0,8.1-2,11.4-5.7,11.4
		C576.3,350.1,574.4,346.8,574.4,338.7z M581.7,338.7v-1.2c0-6.6-0.8-7.7-1.7-7.7c-0.9,0-1.7,1.1-1.7,7.7v1.2c0,6.6,0.8,7.7,1.7,7.7
		C580.9,346.4,581.7,345.3,581.7,338.7z"/>
	<path class="st0" d="M589,330.8l-2.4,0.8v-4.1l3.5-1.1h2.8v23.5h-4V330.8z"/>
	<path class="st0" d="M597.4,348.9c-1.5-1.5-2.3-4.6-2.3-9.7v-0.9c0-9.6,2.7-12.2,6.4-12.2c1.2,0,2,0.2,2.7,0.5v3.8
		c-0.6-0.4-1.5-0.7-2.3-0.7c-1.8,0-3,1.3-3.1,5.9c0.8-0.7,1.5-1,2.6-1c2.1,0,4.3,1.6,4.3,6.8v0.7c0,4.8-2.2,7.9-5.3,7.9
		C599.3,350.1,598.3,349.7,597.4,348.9z M602.1,342.3v-0.7c0-2.7-0.8-3.6-1.7-3.6c-0.7,0-1,0.3-1.4,0.6v2.9c0,3.6,0.6,5,1.6,5
		C601.5,346.5,602.1,345.2,602.1,342.3z"/>
</g>
<g>
	<path class="st0" d="M233.9,366.7h0.9v14h-0.9V366.7z"/>
	<path class="st0" d="M236.6,375.7v-0.4c0-3.3,1.3-5.2,2.7-5.2c1,0,1.7,1,2.2,2.2v-5.6h0.8v14.1h-0.8v-2c-0.4,1.2-1.1,2.2-2.2,2.2
		C237.9,380.9,236.6,379,236.6,375.7z M241.5,375.7v-0.5c0-2.8-1.1-4.4-2.1-4.4c-1.1,0-2,1.6-2,4.5v0.3c0,2.9,0.9,4.5,2,4.5
		C240.5,380.1,241.5,378.5,241.5,375.7z"/>
	<path class="st0" d="M244,375.7v-0.2c0-3.6,1.3-5.4,2.8-5.4c1.5,0,2.7,1.9,2.7,5.1v0.6h-4.7c0,2.8,1.2,4.2,2.6,4.2
		c0.6,0,1.1-0.2,1.8-0.6l0.1,0.9c-0.7,0.4-1.2,0.6-2,0.6C245.5,380.8,244,379.1,244,375.7z M248.7,375.1c0-2.4-0.8-4.2-1.9-4.2
		c-1.1,0-1.9,1.5-2,4.2H248.7z"/>
	<path class="st0" d="M250.8,375.7v-0.2c0-3.6,1.3-5.4,2.8-5.4c1.5,0,2.7,1.9,2.7,5.1v0.6h-4.7c0,2.8,1.2,4.2,2.6,4.2
		c0.6,0,1.1-0.2,1.8-0.6l0.1,0.9c-0.7,0.4-1.2,0.6-2,0.6C252.3,380.8,250.8,379.1,250.8,375.7z M255.5,375.1c0-2.4-0.8-4.2-1.9-4.2
		c-1.1,0-1.9,1.5-2,4.2H255.5z"/>
	<path class="st0" d="M257.9,370.2h1.2v1.6h-1.2V370.2z M257.9,379.1h1.2v1.6h-1.2V379.1z"/>
	<path class="st0" d="M263.7,380.6v-1.9c0.3,0.1,0.7,0.2,1.1,0.2c0.8,0,1.3-0.4,1.3-1.5v-10.7h1.9v10.8c0,1.1-0.3,2-0.8,2.5
		c-0.5,0.5-1.2,0.8-2.1,0.8C264.5,380.8,264,380.7,263.7,380.6z"/>
	<path class="st0" d="M269.5,378v-7.9h1.9v7.5c0,1.1,0.4,1.7,1,1.7c0.7,0,1.2-0.6,1.2-1.7v-7.4h1.9v10.6h-1.9v-1.4
		c-0.4,0.8-1,1.5-1.9,1.5C270.2,380.9,269.5,379.7,269.5,378z"/>
	<path class="st0" d="M277,366.6h1.9v14.1H277V366.6z"/>
	<path class="st0" d="M280.4,366.6h1.9v2.1h-1.9V366.6z M280.5,370.1h1.9v10.6h-1.9V370.1z"/>
	<path class="st0" d="M283.5,377.7v-0.3c0-2.3,1-3.4,2.4-3.4c0.5,0,1,0.2,1.5,0.4v-0.8c0-1.2-0.5-1.9-1.6-1.9
		c-0.6,0-1.3,0.2-1.8,0.5v-1.8c0.7-0.3,1.4-0.5,2.1-0.5c1,0,1.8,0.3,2.3,0.8c0.6,0.6,0.9,1.5,0.9,2.7v7.2h-1.9v-1.3
		c-0.4,0.9-1,1.4-1.8,1.4C284.3,380.9,283.5,379.6,283.5,377.7z M287.4,377.8v-1.9c-0.3-0.1-0.7-0.3-1-0.3c-0.7,0-1.1,0.6-1.1,1.8
		v0.2c0,1.2,0.4,1.7,1,1.7C286.9,379.3,287.4,378.7,287.4,377.8z"/>
	<path class="st0" d="M290.7,370.1h1.9v1.4c0.4-0.8,1-1.5,1.9-1.5c1.4,0,2.1,1.2,2.1,3v7.9h-1.9v-7.5c0-1.1-0.4-1.7-1-1.7
		c-0.7,0-1.2,0.6-1.2,1.7v7.4h-1.9V370.1z"/>
	<path class="st0" d="M301.3,366.7h2.2c1.3,0,2.3,0.4,3,1.1c0.7,0.7,1.1,1.8,1.1,3.3v0.1c0,1.9-0.8,3.1-1.8,3.7l2.1,5.7h-2.1
		l-1.8-5.1c-0.1,0-0.2,0-0.3,0h-0.5v5.1h-1.9V366.7z M303.6,373.8c1.3,0,2.2-0.8,2.2-2.6v-0.1c0-1.9-0.9-2.6-2.2-2.6h-0.3v5.3H303.6
		z"/>
	<path class="st0" d="M308.5,375.6v-0.4c0-3.5,1.4-5.3,3.1-5.3c1.7,0,2.9,1.9,2.9,5.3v1h-4.1c0.1,2,0.9,2.9,1.9,2.9
		c0.7,0,1.1-0.3,1.8-0.7l0.2,1.8c-0.8,0.5-1.4,0.7-2.2,0.7C310.1,380.9,308.5,379.1,308.5,375.6z M312.7,374.7c0-2-0.4-3.1-1.1-3.1
		c-0.7,0-1.2,1-1.2,3.1H312.7z"/>
	<path class="st0" d="M315.6,366.6h1.9v2.1h-1.9V366.6z M315.7,370.1h1.9v10.6h-1.9V370.1z"/>
	<path class="st0" d="M318.8,375.7v-0.5c0-3.5,1.4-5.2,3.3-5.2c0.6,0,1,0.1,1.4,0.3v2c-0.4-0.2-0.8-0.4-1.2-0.4
		c-0.8,0-1.6,0.9-1.6,3.4v0.6c0,2.4,0.7,3.4,1.6,3.4c0.4,0,0.8-0.2,1.1-0.5v1.9c-0.5,0.3-0.9,0.4-1.4,0.4
		C320.2,380.9,318.8,379.2,318.8,375.7z"/>
	<path class="st0" d="M324.7,366.6h1.9v4.8c0.4-0.8,1-1.5,1.9-1.5c1.4,0,2.1,1.2,2.1,3v7.9h-1.9v-7.5c0-1.1-0.4-1.7-1-1.7
		c-0.7,0-1.2,0.6-1.2,1.7v7.4h-1.9V366.6z"/>
	<path class="st0" d="M331.8,375.6v-0.4c0-3.5,1.4-5.3,3.1-5.3c1.7,0,2.9,1.9,2.9,5.3v1h-4.1c0.1,2,0.9,2.9,1.9,2.9
		c0.7,0,1.1-0.3,1.8-0.7l0.2,1.8c-0.8,0.5-1.4,0.7-2.2,0.7C333.4,380.9,331.8,379.1,331.8,375.6z M336,374.7c0-2-0.4-3.1-1.1-3.1
		c-0.7,0-1.2,1-1.2,3.1H336z"/>
	<path class="st0" d="M339,366.6h1.9v14.1H339V366.6z"/>
	<path class="st0" d="M342.7,378.9v-7.2h-0.7v-1.6h0.7v-2.8h1.9v2.8h1.4v1.6h-1.4v6.6c0,0.6,0.3,0.8,0.8,0.8c0.2,0,0.4,0,0.6-0.1
		v1.6c-0.3,0.2-0.8,0.3-1.2,0.3C343.6,380.8,342.7,380.4,342.7,378.9z"/>
	<path class="st0" d="M350.2,374.9c0-4.2,1.5-7,3.6-8.5v0.7c-1.6,1.5-2.8,3.9-2.8,7.8c0,3.9,1.2,6.3,2.8,7.8v0.7
		C351.7,381.9,350.2,379.1,350.2,374.9z"/>
	<path class="st0" d="M354.4,373.9v-0.4c0-4.7,1.7-6.9,3.7-6.9c0.6,0,0.9,0.1,1.3,0.3v0.9c-0.5-0.3-0.9-0.4-1.3-0.4
		c-1.5,0-2.8,2.1-2.8,6.1v0.4c0,4,1.3,6.1,2.8,6.1c0.5,0,0.9-0.1,1.4-0.5v0.9c-0.4,0.2-0.8,0.4-1.4,0.4
		C356,380.8,354.4,378.6,354.4,373.9z"/>
	<path class="st0" d="M361.2,366.6h0.8v5.2c0.4-0.9,1-1.7,2.1-1.7c1.4,0,2.4,1.2,2.4,3.3v7.3h-0.8v-7.2c0-1.7-0.6-2.7-1.7-2.7
		c-1.1,0-2,1.1-2,2.8v7.1h-0.8V366.6z"/>
	<path class="st0" d="M368.1,375.7v-0.2c0-3.6,1.3-5.4,2.8-5.4c1.5,0,2.7,1.9,2.7,5.1v0.6h-4.7c0,2.8,1.2,4.2,2.6,4.2
		c0.6,0,1.1-0.2,1.8-0.6l0.1,0.9c-0.7,0.4-1.2,0.6-2,0.6C369.6,380.8,368.1,379.1,368.1,375.7z M372.8,375.1c0-2.4-0.8-4.2-1.9-4.2
		c-1.1,0-1.9,1.5-2,4.2H372.8z"/>
	<path class="st0" d="M375.7,371h-1.1v-0.8h1.1V369c0-0.9,0.2-1.5,0.6-1.9c0.3-0.3,0.8-0.5,1.4-0.5c0.2,0,0.5,0,0.6,0.1v0.8
		c-0.2,0-0.5-0.1-0.6-0.1c-0.8,0-1.2,0.5-1.2,1.7v1.2h1.7v0.8h-1.7v9.7h-0.8V371z"/>
	<path class="st0" d="M379.5,370.2h0.8v1.5c0.4-1,1.2-1.7,2.4-1.7v0.9h0c-1.3,0-2.4,0.8-2.4,2.7v7h-0.8V370.2z"/>
	<path class="st0" d="M383.3,375.7v-0.2c0-3.6,1.3-5.4,2.8-5.4c1.5,0,2.7,1.9,2.7,5.1v0.6h-4.7c0,2.8,1.2,4.2,2.6,4.2
		c0.6,0,1.1-0.2,1.8-0.6l0.1,0.9c-0.7,0.4-1.2,0.6-2,0.6C384.8,380.8,383.3,379.1,383.3,375.7z M388,375.1c0-2.4-0.8-4.2-1.9-4.2
		c-1.1,0-1.9,1.5-2,4.2H388z"/>
	<path class="st0" d="M390.1,375.7v-0.4c0-3.3,1.3-5.2,2.7-5.2c1,0,1.7,1,2.2,2.2v-5.6h0.8v14.1H395v-2c-0.4,1.2-1.1,2.2-2.2,2.2
		C391.4,380.9,390.1,379,390.1,375.7z M395,375.7v-0.5c0-2.8-1.1-4.4-2.1-4.4c-1.1,0-2,1.6-2,4.5v0.3c0,2.9,0.9,4.5,2,4.5
		C393.9,380.1,395,378.5,395,375.7z"/>
	<path class="st0" d="M397.4,377.7v-0.2c0-1.9,1-3.4,2.7-3.4c0.7,0,1.3,0.2,1.7,0.4v-1.3c0-1.5-0.6-2.3-2-2.3
		c-0.7,0-1.3,0.1-1.9,0.5v-0.8c0.6-0.3,1.2-0.5,1.9-0.5c0.8,0,1.5,0.2,2,0.8c0.4,0.4,0.7,1.2,0.7,2.3v7.6h-0.8v-1.5
		c-0.4,1-1.1,1.7-2.1,1.7C398.3,380.9,397.4,379.5,397.4,377.7z M401.8,377.4v-2.1c-0.5-0.3-1.1-0.4-1.7-0.4c-1.3,0-1.9,1.1-1.9,2.5
		v0.2c0,1.4,0.6,2.5,1.6,2.5C401.1,380.2,401.8,378.8,401.8,377.4z"/>
	<path class="st0" d="M404.6,366.6h0.8v9.4l3-5.8h0.9l-2.3,4.2l2.5,6.3h-0.9l-2.1-5.4l-1.1,2v3.4h-0.8V366.6z"/>
	<path class="st0" d="M411.4,379V371h-1v-0.8h1v-3h0.8v3h1.7v0.8h-1.7v7.8c0,0.9,0.4,1.2,1.1,1.2c0.2,0,0.5,0,0.6-0.1v0.8
		c-0.2,0.1-0.5,0.1-0.7,0.1C412.1,380.8,411.4,380.3,411.4,379z"/>
	<path class="st0" d="M414.8,375.7v-0.2c0-3.6,1.3-5.4,2.8-5.4c1.5,0,2.7,1.9,2.7,5.1v0.6h-4.7c0,2.8,1.2,4.2,2.6,4.2
		c0.6,0,1.1-0.2,1.8-0.6l0.1,0.9c-0.7,0.4-1.2,0.6-2,0.6C416.4,380.8,414.8,379.1,414.8,375.7z M419.5,375.1c0-2.4-0.8-4.2-1.9-4.2
		c-1.1,0-1.9,1.5-2,4.2H419.5z"/>
	<path class="st0" d="M422,377.6v-7.3h0.8v7.2c0,1.7,0.6,2.7,1.7,2.7c1.1,0,2-1.1,2-2.8v-7.1h0.8v10.5h-0.8v-1.5
		c-0.4,0.9-1,1.7-2.1,1.7C422.9,380.9,422,379.7,422,377.6z"/>
	<path class="st0" d="M429.4,370.2h0.8v1.5c0.4-1,1.2-1.7,2.4-1.7v0.9h0c-1.3,0-2.4,0.8-2.4,2.7v7h-0.8V370.2z"/>
	<path class="st0" d="M437.2,366.7h1.8c1.1,0,2.1,0.4,2.7,1.1c0.6,0.6,0.9,1.4,0.9,2.4v0c0,2.1-1.2,3-2.5,3.4
		c1.6,0.4,2.7,1.5,2.7,3.4v0c0,2.3-1.7,3.6-4.2,3.6h-1.4V366.7z M441.8,370.3c0-1.7-1.1-2.7-2.8-2.7h-0.9v5.7h0.6
		C440.7,373.3,441.8,372.1,441.8,370.3L441.8,370.3z M438.8,374.1h-0.7v5.8h0.5c2.1,0,3.3-1,3.3-2.8v0
		C442,375.1,440.8,374.1,438.8,374.1z"/>
	<path class="st0" d="M444.7,366.7h0.9v14h-0.9V366.7z"/>
	<path class="st0" d="M447.9,366.7h0.9v13.2h3.4v0.8h-4.3V366.7z"/>
	<path class="st0" d="M453.4,366.7h1.6c2.5,0,4.4,2.3,4.4,6.8v0.4c0,4.5-1.8,6.8-4.4,6.8h-1.6V366.7z M454.3,367.5v12.4h0.8
		c2.1,0,3.5-2.1,3.5-6v-0.4c0-4-1.5-6-3.5-6H454.3z"/>
	<path class="st0" d="M460.8,379.1h1.2v1.6h-1.2V379.1z"/>
	<path class="st0" d="M463.5,375.7v-0.4c0-3.3,1.3-5.2,2.7-5.2c1,0,1.7,1,2.2,2.2v-5.6h0.8v14.1h-0.8v-2c-0.4,1.2-1.1,2.2-2.2,2.2
		C464.7,380.9,463.5,379,463.5,375.7z M468.3,375.7v-0.5c0-2.8-1.1-4.4-2.1-4.4c-1.1,0-2,1.6-2,4.5v0.3c0,2.9,0.9,4.5,2,4.5
		C467.3,380.1,468.3,378.5,468.3,375.7z"/>
	<path class="st0" d="M470.8,375.7v-0.2c0-3.6,1.3-5.4,2.8-5.4c1.5,0,2.7,1.9,2.7,5.1v0.6h-4.7c0,2.8,1.2,4.2,2.6,4.2
		c0.6,0,1.1-0.2,1.8-0.6l0.1,0.9c-0.7,0.4-1.2,0.6-2,0.6C472.3,380.8,470.8,379.1,470.8,375.7z M475.5,375.1c0-2.4-0.8-4.2-1.9-4.2
		c-1.1,0-1.9,1.5-2,4.2H475.5z"/>
	<path class="st0" d="M477.3,382.7c1.6-1.5,2.8-3.9,2.8-7.8c0-3.9-1.2-6.3-2.8-7.8v-0.7c2.1,1.5,3.6,4.3,3.6,8.5
		c0,4.2-1.5,7-3.6,8.5V382.7z"/>
	<path class="st0" d="M235.1,387.3h-2.2v-0.8h5.3v0.8H236v13.2h-0.9V387.3z"/>
	<path class="st0" d="M238.2,395.4v-0.2c0-3.6,1.3-5.4,2.8-5.4c1.5,0,2.7,1.9,2.7,5.1v0.6H239c0,2.8,1.2,4.2,2.6,4.2
		c0.6,0,1.1-0.2,1.8-0.6l0.1,0.9c-0.7,0.4-1.2,0.6-2,0.6C239.7,400.6,238.2,398.9,238.2,395.4z M242.9,394.9c0-2.4-0.8-4.2-1.9-4.2
		c-1.1,0-1.9,1.5-2,4.2H242.9z"/>
	<path class="st0" d="M247.3,394.3l1.7-4.3h0.8l-2.1,5l2.3,5.4h-0.8l-1.9-4.7l-1.9,4.7h-0.8l2.3-5.4l-2.1-5.1h0.8L247.3,394.3z"/>
	<path class="st0" d="M251.7,398.7v-7.9h-1V390h1v-3h0.8v3h1.7v0.8h-1.7v7.8c0,0.9,0.4,1.2,1.1,1.2c0.2,0,0.5,0,0.6-0.1v0.8
		c-0.2,0.1-0.5,0.1-0.7,0.1C252.4,400.6,251.7,400.1,251.7,398.7z"/>
	<path class="st0" d="M255.8,390h1.2v1.6h-1.2V390z M255.8,398.8h1.2v1.6h-1.2V398.8z"/>
	<path class="st0" d="M262,386.5h4.8v1.9h-2.9v4.2h2.6v1.9h-2.6v6H262V386.5z"/>
	<path class="st0" d="M267.8,389.8h1.9v1.4c0.3-0.9,0.9-1.6,1.9-1.5v2.3h0c-1.2,0-1.9,0.8-1.9,2.4v6.1h-1.9V389.8z"/>
	<path class="st0" d="M271.9,397.5v-0.3c0-2.3,1-3.4,2.4-3.4c0.5,0,1,0.2,1.5,0.4v-0.8c0-1.2-0.5-1.9-1.6-1.9
		c-0.6,0-1.3,0.2-1.8,0.5v-1.8c0.7-0.3,1.4-0.5,2.1-0.5c1,0,1.8,0.3,2.3,0.8c0.6,0.6,0.9,1.5,0.9,2.7v7.2h-1.9v-1.3
		c-0.4,0.9-1,1.4-1.8,1.4C272.8,400.7,271.9,399.4,271.9,397.5z M275.9,397.5v-1.9c-0.3-0.1-0.7-0.3-1-0.3c-0.7,0-1.1,0.6-1.1,1.8
		v0.2c0,1.2,0.4,1.7,1,1.7C275.4,399.1,275.9,398.4,275.9,397.5z"/>
	<path class="st0" d="M279.2,389.8h1.9v1.4c0.4-0.8,1-1.5,1.9-1.5c1.4,0,2.1,1.2,2.1,3v7.9h-1.9V393c0-1.1-0.4-1.7-1-1.7
		c-0.7,0-1.2,0.6-1.2,1.7v7.4h-1.9V389.8z"/>
	<path class="st0" d="M286.5,386.4h1.9v8.1l1.9-4.7h2l-2,4.3l2,6.3h-2L289,396l-0.6,1.4v3.1h-1.9V386.4z"/>
	<path class="st0" d="M296.3,393.8v-0.6c0-4.6,1.4-6.9,3.5-6.9c2.1,0,3.5,2.3,3.5,6.9v0.6c0,4.6-1.4,6.9-3.5,6.9
		C297.7,400.7,296.3,398.4,296.3,393.8z M301.4,393.8v-0.6c0-3.7-0.6-5.1-1.6-5.1c-0.9,0-1.6,1.3-1.6,5.1v0.6c0,3.7,0.6,5.1,1.6,5.1
		C300.7,398.9,301.4,397.5,301.4,393.8z"/>
	<path class="st0" d="M304.4,395.4v-0.5c0-3.5,1.4-5.2,3.3-5.2c0.6,0,1,0.1,1.4,0.3v2c-0.4-0.2-0.8-0.4-1.2-0.4
		c-0.8,0-1.6,0.9-1.6,3.4v0.6c0,2.4,0.7,3.4,1.6,3.4c0.4,0,0.8-0.2,1.1-0.5v1.9c-0.5,0.3-0.9,0.4-1.4,0.4
		C305.8,400.7,304.4,398.9,304.4,395.4z"/>
	<path class="st0" d="M310.2,386.4h1.9v4.8c0.4-0.8,1-1.5,1.9-1.5c1.4,0,2.1,1.2,2.1,3v7.9h-1.9V393c0-1.1-0.4-1.7-1-1.7
		c-0.7,0-1.2,0.6-1.2,1.7v7.4h-1.9V386.4z"/>
	<path class="st0" d="M317.2,400.2v-1.9c0.8,0.4,1.4,0.7,2,0.7c0.6,0,1.1-0.4,1.1-1.1c0-0.5-0.3-1-1.3-2c-1.2-1.2-1.8-2.1-1.8-3.4v0
		c0-1.7,1.2-2.7,2.8-2.7c0.6,0,1.1,0.1,1.7,0.3v1.9c-0.5-0.3-1.1-0.5-1.6-0.5c-0.6,0-1.1,0.4-1.1,1c0,0.5,0.2,0.9,1.4,2
		c1.3,1.3,1.8,2.2,1.8,3.4v0c0,1.7-1.2,2.8-2.8,2.8C318.6,400.7,317.9,400.5,317.2,400.2z"/>
	<path class="st0" d="M322.9,395.4V395c0-3.5,1.4-5.3,3.1-5.3c1.7,0,2.9,1.9,2.9,5.3v1h-4.1c0.1,2,0.9,2.9,1.9,2.9
		c0.7,0,1.1-0.3,1.8-0.7l0.2,1.8c-0.8,0.5-1.4,0.7-2.2,0.7C324.5,400.7,322.9,398.9,322.9,395.4z M327.1,394.5c0-2-0.4-3.1-1.1-3.1
		c-0.7,0-1.2,1-1.2,3.1H327.1z"/>
	<path class="st0" d="M333.2,394.7c0-4.2,1.5-7,3.6-8.5v0.7c-1.6,1.5-2.8,3.9-2.8,7.8c0,3.9,1.2,6.3,2.8,7.8v0.7
		C334.7,401.7,333.2,398.9,333.2,394.7z"/>
	<path class="st0" d="M338.2,386.5h0.9v13.2h3.4v0.8h-4.3V386.5z"/>
	<path class="st0" d="M343.1,395.4v-0.2c0-3.6,1.3-5.4,2.8-5.4c1.5,0,2.7,1.9,2.7,5.1v0.6h-4.7c0,2.8,1.2,4.2,2.6,4.2
		c0.6,0,1.1-0.2,1.8-0.6l0.1,0.9c-0.7,0.4-1.2,0.6-2,0.6C344.6,400.6,343.1,398.9,343.1,395.4z M347.8,394.9c0-2.4-0.8-4.2-1.9-4.2
		c-1.1,0-1.9,1.5-2,4.2H347.8z"/>
	<path class="st0" d="M350.4,386.4h0.9v1.4h-0.9V386.4z M350.4,390h0.8v10.5h-0.8V390z"/>
	<path class="st0" d="M353.7,398.7v-7.9h-1V390h1v-3h0.8v3h1.7v0.8h-1.7v7.8c0,0.9,0.4,1.2,1.1,1.2c0.2,0,0.5,0,0.6-0.1v0.8
		c-0.2,0.1-0.5,0.1-0.7,0.1C354.4,400.6,353.7,400.1,353.7,398.7z"/>
	<path class="st0" d="M357.8,397.3V390h0.8v7.2c0,1.7,0.6,2.7,1.7,2.7c1.1,0,2-1.1,2-2.8V390h0.8v10.5h-0.8v-1.5
		c-0.4,0.9-1,1.7-2.1,1.7C358.7,400.6,357.8,399.5,357.8,397.3z"/>
	<path class="st0" d="M365.1,390h0.8v1.5c0.4-0.9,1-1.7,2.1-1.7c1.4,0,2.4,1.2,2.4,3.3v7.3h-0.8v-7.2c0-1.7-0.6-2.7-1.7-2.7
		c-1.1,0-2,1.1-2,2.8v7.1h-0.8V390z"/>
	<path class="st0" d="M372.5,402.7v-0.9c0.7,0.3,1.6,0.5,2.3,0.5c1.4,0,2.1-0.7,2.1-2.1v-2.5c-0.4,1.2-1.1,2.2-2.2,2.2
		c-1.4,0-2.7-1.7-2.7-4.9v-0.2c0-3.2,1.3-4.9,2.7-4.9c1,0,1.7,1,2.2,2.2v-2h0.8v10.2c0,1-0.3,1.7-0.7,2.2c-0.5,0.5-1.3,0.8-2.3,0.8
		C374,403.1,373.2,403,372.5,402.7z M376.9,395v-0.2c0-2.7-1.1-4.2-2.1-4.2c-1,0-2,1.5-2,4.2v0.1c0,2.7,0.9,4.2,2,4.2
		C375.8,399.2,376.9,397.6,376.9,395z"/>
	<path class="st0" d="M383.1,386.5h1.7c1.2,0,2.2,0.4,2.9,1.1c0.7,0.7,1.1,1.7,1.1,3v0c0,1.9-0.9,3.3-2.4,3.9l2.6,5.9h-1l-2.5-5.7
		c-0.2,0-0.5,0.1-0.8,0.1h-0.8v5.6h-0.9V386.5z M384.8,394.1c1.9,0,3.1-1.2,3.1-3.4v0c0-2.3-1.3-3.3-3.1-3.3h-0.8v6.8H384.8z"/>
	<path class="st0" d="M389.9,395.4v-0.2c0-3.6,1.3-5.4,2.8-5.4c1.5,0,2.7,1.9,2.7,5.1v0.6h-4.7c0,2.8,1.2,4.2,2.6,4.2
		c0.6,0,1.1-0.2,1.8-0.6l0.1,0.9c-0.7,0.4-1.2,0.6-2,0.6C391.4,400.6,389.9,398.9,389.9,395.4z M394.6,394.9c0-2.4-0.8-4.2-1.9-4.2
		c-1.1,0-1.9,1.5-2,4.2H394.6z"/>
	<path class="st0" d="M396.7,395.4v-0.4c0-3.3,1.3-5.2,2.7-5.2c1,0,1.7,1,2.2,2.2v-5.6h0.8v14.1h-0.8v-2c-0.4,1.2-1.1,2.2-2.2,2.2
		C398,400.6,396.7,398.8,396.7,395.4z M401.6,395.5V395c0-2.8-1.1-4.4-2.1-4.4c-1.1,0-2,1.6-2,4.5v0.3c0,2.9,0.9,4.5,2,4.5
		C400.6,399.9,401.6,398.3,401.6,395.5z"/>
	<path class="st0" d="M404,397.4v-0.2c0-1.9,1-3.4,2.7-3.4c0.7,0,1.3,0.2,1.7,0.4V393c0-1.5-0.6-2.3-2-2.3c-0.7,0-1.3,0.1-1.9,0.5
		v-0.8c0.6-0.3,1.2-0.5,1.9-0.5c0.8,0,1.5,0.2,2,0.8c0.4,0.4,0.7,1.2,0.7,2.3v7.6h-0.8V399c-0.4,1-1.1,1.7-2.1,1.7
		C405,400.7,404,399.3,404,397.4z M408.4,397.2v-2.1c-0.5-0.3-1.1-0.4-1.7-0.4c-1.3,0-1.9,1.1-1.9,2.5v0.2c0,1.4,0.6,2.5,1.6,2.5
		C407.7,399.9,408.4,398.6,408.4,397.2z"/>
	<path class="st0" d="M411.2,386.4h0.8v9.4l3-5.8h0.9l-2.3,4.2l2.5,6.3h-0.9l-2.1-5.4l-1.1,2v3.4h-0.8V386.4z"/>
	<path class="st0" d="M418,398.7v-7.9h-1V390h1v-3h0.8v3h1.7v0.8h-1.7v7.8c0,0.9,0.4,1.2,1.1,1.2c0.2,0,0.5,0,0.6-0.1v0.8
		c-0.2,0.1-0.5,0.1-0.7,0.1C418.7,400.6,418,400.1,418,398.7z"/>
	<path class="st0" d="M422.1,386.4h0.9v1.4h-0.9V386.4z M422.2,390h0.8v10.5h-0.8V390z"/>
	<path class="st0" d="M424.8,395.3v-0.2c0-3.3,1.4-5.3,2.9-5.3c1.5,0,2.9,2,2.9,5.3v0.2c0,3.3-1.4,5.3-2.9,5.3
		C426.2,400.6,424.8,398.6,424.8,395.3z M429.8,395.3v-0.2c0-2.8-0.9-4.5-2.1-4.5s-2.1,1.8-2.1,4.5v0.2c0,2.8,0.9,4.5,2.1,4.5
		S429.8,398.1,429.8,395.3z"/>
	<path class="st0" d="M432.3,390h0.8v1.5c0.4-0.9,1-1.7,2.1-1.7c1.4,0,2.4,1.2,2.4,3.3v7.3h-0.8v-7.2c0-1.7-0.6-2.7-1.7-2.7
		c-1.1,0-2,1.1-2,2.8v7.1h-0.8V390z"/>
	<path class="st0" d="M439,400.1v-0.9c0.7,0.4,1.4,0.6,2.1,0.6c0.9,0,1.6-0.6,1.6-1.6v0c0-0.7-0.4-1.5-1.6-2.7c-1.5-1.5-2-2.3-2-3.4
		v0c0-1.5,1.1-2.3,2.3-2.3c0.7,0,1.2,0.1,1.7,0.3v0.9c-0.6-0.3-1.1-0.4-1.7-0.4c-0.8,0-1.5,0.6-1.5,1.5v0c0,0.8,0.4,1.3,1.6,2.6
		c1.4,1.5,2,2.3,2,3.4v0c0,1.5-1.2,2.4-2.4,2.4C440.3,400.6,439.7,400.4,439,400.1z"/>
	<path class="st0" d="M445,386.4h0.8v9.4l3-5.8h0.9l-2.3,4.2l2.5,6.3h-0.9l-2.1-5.4l-1.1,2v3.4H445V386.4z"/>
	<path class="st0" d="M450.7,395.3v-0.2c0-3.3,1.4-5.3,2.9-5.3c1.5,0,2.9,2,2.9,5.3v0.2c0,3.3-1.4,5.3-2.9,5.3
		C452,400.6,450.7,398.6,450.7,395.3z M455.7,395.3v-0.2c0-2.8-0.9-4.5-2.1-4.5s-2.1,1.8-2.1,4.5v0.2c0,2.8,0.9,4.5,2.1,4.5
		S455.7,398.1,455.7,395.3z"/>
	<path class="st0" d="M457.7,395.3v-0.2c0-3.3,1.4-5.3,2.9-5.3c1.5,0,2.9,2,2.9,5.3v0.2c0,3.3-1.4,5.3-2.9,5.3
		C459.1,400.6,457.7,398.6,457.7,395.3z M462.8,395.3v-0.2c0-2.8-0.9-4.5-2.1-4.5c-1.2,0-2.1,1.8-2.1,4.5v0.2c0,2.8,0.9,4.5,2.1,4.5
		C461.8,399.9,462.8,398.1,462.8,395.3z"/>
	<path class="st0" d="M465.3,390h0.8v1.5c0.4-1,1.2-1.7,2.4-1.7v0.9h0c-1.3,0-2.4,0.8-2.4,2.7v7h-0.8V390z"/>
	<path class="st0" d="M469.1,395.4v-0.4c0-3.3,1.3-5.2,2.7-5.2c1,0,1.7,1,2.2,2.2v-5.6h0.8v14.1h-0.8v-2c-0.4,1.2-1.1,2.2-2.2,2.2
		C470.3,400.6,469.1,398.8,469.1,395.4z M473.9,395.5V395c0-2.8-1.1-4.4-2.1-4.4c-1.1,0-2,1.6-2,4.5v0.3c0,2.9,0.9,4.5,2,4.5
		C472.9,399.9,473.9,398.3,473.9,395.5z"/>
	<path class="st0" d="M476.9,386.4h0.9v1.4h-0.9V386.4z M476.9,390h0.8v10.5h-0.8V390z"/>
	<path class="st0" d="M479.9,390h0.8v1.5c0.4-0.9,1-1.7,2.1-1.7c1.4,0,2.4,1.2,2.4,3.3v7.3h-0.8v-7.2c0-1.7-0.6-2.7-1.7-2.7
		c-1.1,0-2,1.1-2,2.8v7.1h-0.8V390z"/>
	<path class="st0" d="M486.7,397.4v-0.2c0-1.9,1-3.4,2.7-3.4c0.7,0,1.3,0.2,1.7,0.4V393c0-1.5-0.6-2.3-2-2.3c-0.7,0-1.3,0.1-1.9,0.5
		v-0.8c0.6-0.3,1.2-0.5,1.9-0.5c0.8,0,1.5,0.2,2,0.8c0.4,0.4,0.7,1.2,0.7,2.3v7.6h-0.8V399c-0.4,1-1.1,1.7-2.1,1.7
		C487.7,400.7,486.7,399.3,486.7,397.4z M491.2,397.2v-2.1c-0.5-0.3-1.1-0.4-1.7-0.4c-1.3,0-1.9,1.1-1.9,2.5v0.2
		c0,1.4,0.6,2.5,1.6,2.5C490.4,399.9,491.2,398.6,491.2,397.2z"/>
	<path class="st0" d="M494.2,398.7v-7.9h-1V390h1v-3h0.8v3h1.7v0.8H495v7.8c0,0.9,0.4,1.2,1.1,1.2c0.2,0,0.5,0,0.6-0.1v0.8
		c-0.2,0.1-0.5,0.1-0.7,0.1C494.9,400.6,494.2,400.1,494.2,398.7z"/>
	<path class="st0" d="M498.4,386.4h0.9v1.4h-0.9V386.4z M498.4,390h0.8v10.5h-0.8V390z"/>
	<path class="st0" d="M501,395.3v-0.2c0-3.3,1.4-5.3,2.9-5.3c1.5,0,2.9,2,2.9,5.3v0.2c0,3.3-1.4,5.3-2.9,5.3
		C502.4,400.6,501,398.6,501,395.3z M506,395.3v-0.2c0-2.8-0.9-4.5-2.1-4.5s-2.1,1.8-2.1,4.5v0.2c0,2.8,0.9,4.5,2.1,4.5
		S506,398.1,506,395.3z"/>
	<path class="st0" d="M508.5,390h0.8v1.5c0.4-0.9,1-1.7,2.1-1.7c1.4,0,2.4,1.2,2.4,3.3v7.3H513v-7.2c0-1.7-0.6-2.7-1.7-2.7
		c-1.1,0-2,1.1-2,2.8v7.1h-0.8V390z"/>
	<path class="st0" d="M515.1,402.5c1.6-1.5,2.8-3.9,2.8-7.8c0-3.9-1.2-6.3-2.8-7.8v-0.7c2.1,1.5,3.6,4.3,3.6,8.5
		c0,4.2-1.5,7-3.6,8.5V402.5z"/>
	<path class="st0" d="M233.4,413.4v-0.4c0-4.6,2-6.9,4.2-6.9c0.7,0,1.2,0.2,1.7,0.4v1c-0.6-0.4-1.1-0.6-1.7-0.6
		c-1.7,0-3.3,2-3.3,6.1v0.4c0,4.1,1.4,6.1,3.3,6.1c0.4,0,0.6,0,0.9-0.2v-5.5h-2v-0.8h2.9v6.8c-0.7,0.4-1.1,0.5-1.8,0.5
		C235.2,420.4,233.4,418.1,233.4,413.4z"/>
	<path class="st0" d="M241.4,409.8h0.8v1.5c0.4-1,1.2-1.7,2.4-1.7v0.9h0c-1.3,0-2.4,0.8-2.4,2.7v7h-0.8V409.8z"/>
	<path class="st0" d="M245.1,417.2V417c0-1.9,1-3.4,2.7-3.4c0.7,0,1.3,0.2,1.7,0.4v-1.3c0-1.5-0.6-2.3-2-2.3c-0.7,0-1.3,0.1-1.9,0.5
		v-0.8c0.6-0.3,1.2-0.5,1.9-0.5c0.8,0,1.5,0.2,2,0.8c0.4,0.4,0.7,1.2,0.7,2.3v7.6h-0.8v-1.5c-0.4,1-1.1,1.7-2.1,1.7
		C246,420.4,245.1,419.1,245.1,417.2z M249.5,417v-2.1c-0.5-0.3-1.1-0.4-1.7-0.4c-1.3,0-1.9,1.1-1.9,2.5v0.2c0,1.4,0.6,2.5,1.6,2.5
		C248.8,419.7,249.5,418.4,249.5,417z"/>
	<path class="st0" d="M252.7,410.6h-1.1v-0.8h1.1v-1.2c0-0.9,0.2-1.5,0.6-1.9c0.3-0.3,0.8-0.5,1.4-0.5c0.2,0,0.5,0,0.6,0.1v0.8
		c-0.2,0-0.5-0.1-0.6-0.1c-0.8,0-1.2,0.5-1.2,1.7v1.2h1.7v0.8h-1.7v9.7h-0.8V410.6z M256.6,406.1h0.9v1.4h-0.9V406.1z M256.7,409.8
		h0.8v10.5h-0.8V409.8z"/>
	<path class="st0" d="M259.7,406.1h0.8v9.4l3-5.8h0.9l-2.3,4.2l2.5,6.3h-0.9l-2.1-5.4l-1.1,2v3.4h-0.8V406.1z"/>
	<path class="st0" d="M269.3,417.1v-7.3h0.8v7.2c0,1.7,0.6,2.7,1.7,2.7c1.1,0,2-1.1,2-2.8v-7.1h0.8v10.5h-0.8v-1.5
		c-0.4,0.9-1,1.7-2.1,1.7C270.2,420.4,269.3,419.2,269.3,417.1z"/>
	<path class="st0" d="M276.6,409.8h0.8v1.5c0.4-0.9,1-1.7,2.1-1.7c1.4,0,2.3,1.2,2.3,3.3v7.3h-0.8V413c0-1.7-0.6-2.7-1.7-2.7
		c-1.1,0-2,1.1-2,2.8v7.1h-0.8V409.8z"/>
	<path class="st0" d="M283.5,415.2v-0.4c0-3.3,1.3-5.2,2.7-5.2c1,0,1.7,1,2.2,2.2v-5.6h0.8v14.1h-0.8v-2c-0.4,1.2-1.1,2.2-2.2,2.2
		C284.8,420.4,283.5,418.6,283.5,415.2z M288.4,415.3v-0.5c0-2.8-1.1-4.4-2.1-4.4c-1.1,0-2,1.6-2,4.5v0.3c0,2.9,0.9,4.5,2,4.5
		C287.4,419.7,288.4,418.1,288.4,415.3z"/>
	<path class="st0" d="M294.5,416.7v-10.4h0.9v10.4c0,1.9,0.8,3,2.1,3s2.1-1.1,2.1-3v-10.4h0.9v10.4c0,2.3-1.2,3.8-3,3.8
		C295.6,420.4,294.5,419,294.5,416.7z"/>
	<path class="st0" d="M302.5,409.8h0.8v1.5c0.4-0.9,1-1.7,2.1-1.7c1.1,0,1.7,0.8,2,1.8c0.4-0.9,1-1.8,2.3-1.8c1.4,0,2.4,1.1,2.4,3.3
		v7.4h-0.8V413c0-1.7-0.6-2.6-1.6-2.6c-1.1,0-1.9,1.1-1.9,2.8v7.1h-0.8V413c0-1.7-0.6-2.6-1.6-2.6c-1.1,0-1.9,1.1-1.9,2.8v7.1h-0.8
		V409.8z"/>
	<path class="st0" d="M313.5,419.9V419c0.7,0.4,1.4,0.6,2.1,0.6c0.9,0,1.6-0.6,1.6-1.6v0c0-0.7-0.4-1.5-1.6-2.7
		c-1.5-1.5-2-2.3-2-3.4v0c0-1.5,1.1-2.3,2.3-2.3c0.7,0,1.2,0.1,1.7,0.3v0.9c-0.6-0.3-1.1-0.4-1.7-0.4c-0.8,0-1.5,0.6-1.5,1.5v0
		c0,0.8,0.4,1.3,1.6,2.6c1.4,1.5,2,2.3,2,3.4v0c0,1.5-1.2,2.4-2.4,2.4C314.7,420.4,314.1,420.2,313.5,419.9z"/>
	<path class="st0" d="M319.1,415.2V415c0-3.6,1.3-5.4,2.8-5.4c1.5,0,2.7,1.9,2.7,5.1v0.6h-4.7c0,2.8,1.2,4.2,2.6,4.2
		c0.6,0,1.1-0.2,1.8-0.6l0.1,0.9c-0.7,0.4-1.2,0.6-2,0.6C320.6,420.4,319.1,418.7,319.1,415.2z M323.8,414.6c0-2.4-0.8-4.2-1.9-4.2
		c-1.1,0-1.9,1.5-2,4.2H323.8z"/>
	<path class="st0" d="M326.5,418.5v-7.9h-1v-0.8h1v-3h0.8v3h1.7v0.8h-1.7v7.8c0,0.9,0.4,1.2,1.1,1.2c0.2,0,0.5,0,0.6-0.1v0.8
		c-0.2,0.1-0.5,0.1-0.7,0.1C327.2,420.3,326.5,419.8,326.5,418.5z"/>
	<path class="st0" d="M330.1,419.8l3.7-9.2h-3.5v-0.7h4.4v0.5l-3.7,9.2h3.6v0.7h-4.5V419.8z"/>
	<path class="st0" d="M336.2,417.1v-7.3h0.8v7.2c0,1.7,0.6,2.7,1.7,2.7c1.1,0,2-1.1,2-2.8v-7.1h0.8v10.5h-0.8v-1.5
		c-0.4,0.9-1,1.7-2.1,1.7C337.2,420.4,336.2,419.2,336.2,417.1z"/>
	<path class="st0" d="M343.6,409.8h0.8v1.5c0.4-0.9,1-1.7,2.1-1.7c1.4,0,2.4,1.2,2.4,3.3v7.3H348V413c0-1.7-0.6-2.7-1.7-2.7
		c-1.1,0-2,1.1-2,2.8v7.1h-0.8V409.8z"/>
	<path class="st0" d="M350.9,422.5v-0.9c0.7,0.3,1.6,0.5,2.3,0.5c1.4,0,2.1-0.7,2.1-2.1v-2.5c-0.4,1.2-1.1,2.2-2.2,2.2
		c-1.4,0-2.7-1.7-2.7-4.9v-0.2c0-3.2,1.3-4.9,2.7-4.9c1,0,1.7,1,2.2,2.2v-2h0.8V420c0,1-0.3,1.7-0.7,2.2c-0.5,0.5-1.3,0.8-2.3,0.8
		C352.4,422.9,351.6,422.7,350.9,422.5z M355.3,414.7v-0.2c0-2.7-1.1-4.2-2.1-4.2c-1,0-2,1.5-2,4.2v0.1c0,2.7,0.9,4.2,2,4.2
		C354.2,419,355.3,417.4,355.3,414.7z"/>
	<path class="st0" d="M358.1,409.8h1.2v1.6h-1.2V409.8z M358.1,418.6h1.2v1.6h-1.2V418.6z"/>
	<path class="st0" d="M364.4,406.3h2.1c2.9,0,4.7,2.3,4.7,6.8v0.4c0,4.5-1.8,6.8-4.7,6.8h-2.1V406.3z M366.3,408.1v10.4h0.3
		c1.4,0,2.5-1.3,2.5-5V413c0-3.6-1.1-5-2.5-5H366.3z"/>
	<path class="st0" d="M372,417.3V417c0-2.3,1-3.4,2.4-3.4c0.5,0,1,0.2,1.5,0.4v-0.8c0-1.2-0.5-1.9-1.6-1.9c-0.6,0-1.3,0.2-1.8,0.5
		V410c0.7-0.3,1.4-0.5,2.1-0.5c1,0,1.8,0.3,2.3,0.8c0.6,0.6,0.9,1.5,0.9,2.7v7.2h-1.9V419c-0.4,0.9-1,1.4-1.8,1.4
		C372.8,420.4,372,419.2,372,417.3z M375.9,417.3v-1.9c-0.3-0.1-0.7-0.3-1-0.3c-0.7,0-1.1,0.6-1.1,1.8v0.2c0,1.2,0.4,1.7,1,1.7
		C375.4,418.8,375.9,418.2,375.9,417.3z"/>
	<path class="st0" d="M379.2,409.6h1.9v1.4c0.4-0.8,1-1.5,1.9-1.5c1.4,0,2.1,1.2,2.1,3v7.9h-1.9v-7.5c0-1.1-0.4-1.7-1-1.7
		c-0.7,0-1.2,0.6-1.2,1.7v7.4h-1.9V409.6z"/>
	<path class="st0" d="M386.6,406.2h1.9v2.1h-1.9V406.2z M386.7,409.6h1.9v10.6h-1.9V409.6z"/>
	<path class="st0" d="M389.8,415.2v-0.4c0-3.5,1.4-5.3,3.1-5.3c1.7,0,2.9,1.9,2.9,5.3v1h-4.1c0.1,2,0.9,2.9,1.9,2.9
		c0.7,0,1.1-0.3,1.8-0.7l0.2,1.8c-0.8,0.5-1.4,0.7-2.2,0.7C391.4,420.4,389.8,418.7,389.8,415.2z M394,414.3c0-2-0.4-3.1-1.1-3.1
		c-0.7,0-1.2,1-1.2,3.1H394z"/>
	<path class="st0" d="M397,406.2h1.9v14.1H397V406.2z"/>
	<path class="st0" d="M403.3,413.6V413c0-4.6,1.4-6.9,3.5-6.9c2.1,0,3.5,2.3,3.5,6.9v0.6c0,4.6-1.4,6.9-3.5,6.9
		C404.8,420.4,403.3,418.2,403.3,413.6z M408.4,413.6V413c0-3.7-0.6-5.1-1.6-5.1c-0.9,0-1.6,1.3-1.6,5.1v0.6c0,3.7,0.6,5.1,1.6,5.1
		C407.8,418.6,408.4,417.3,408.4,413.6z"/>
	<path class="st0" d="M411.7,409.6h1.9v1.5c0.4-0.8,0.9-1.7,1.9-1.7c1.3,0,2.4,1.4,2.4,5.1v0.8c0,3.7-1.1,5.1-2.4,5.1
		c-1,0-1.6-0.9-1.9-1.7v4.1h-1.9V409.6z M416,415.2v-0.6c0-2.2-0.5-3.4-1.2-3.4s-1.3,1.2-1.3,3.4v0.7c0,2.2,0.5,3.4,1.3,3.4
		S416,417.4,416,415.2z"/>
	<path class="st0" d="M419,415.3v-0.8c0-3.7,1.1-5.1,2.4-5.1c1,0,1.6,0.9,1.9,1.7v-5h1.9v14.1h-1.9v-1.5c-0.4,0.8-0.9,1.7-1.9,1.7
		C420,420.4,419,419,419,415.3z M423.3,415.3v-0.7c0-2.2-0.5-3.4-1.3-3.4s-1.2,1.2-1.2,3.4v0.6c0,2.2,0.5,3.4,1.2,3.4
		S423.3,417.4,423.3,415.3z"/>
	<path class="st0" d="M426.4,415.2v-0.4c0-3.5,1.4-5.3,3.1-5.3c1.7,0,2.9,1.9,2.9,5.3v1h-4.1c0.1,2,0.9,2.9,1.9,2.9
		c0.7,0,1.1-0.3,1.8-0.7l0.2,1.8c-0.8,0.5-1.4,0.7-2.2,0.7C428,420.4,426.4,418.7,426.4,415.2z M430.6,414.3c0-2-0.4-3.1-1.1-3.1
		c-0.7,0-1.2,1-1.2,3.1H430.6z"/>
	<path class="st0" d="M433.5,409.6h1.9v1.4c0.3-0.9,0.9-1.6,1.9-1.5v2.3h0c-1.2,0-1.9,0.8-1.9,2.4v6.1h-1.9V409.6z"/>
	<path class="st0" d="M440.2,418.7v1.5h-1.9v-14.1h1.9v5c0.4-0.8,0.9-1.7,1.9-1.7c1.3,0,2.4,1.4,2.4,5.1v0.8c0,3.7-1.1,5.1-2.4,5.1
		C441.1,420.4,440.5,419.6,440.2,418.7z M442.6,415.2v-0.6c0-2.2-0.5-3.4-1.2-3.4c-0.7,0-1.3,1.2-1.3,3.4v0.7c0,2.2,0.5,3.4,1.3,3.4
		C442.1,418.6,442.6,417.4,442.6,415.2z"/>
	<path class="st0" d="M445.5,415.2v-0.4c0-3.5,1.4-5.3,3.1-5.3c1.7,0,2.9,1.9,2.9,5.3v1h-4.1c0.1,2,0.9,2.9,1.9,2.9
		c0.7,0,1.1-0.3,1.8-0.7l0.2,1.8c-0.8,0.5-1.4,0.7-2.2,0.7C447.1,420.4,445.5,418.7,445.5,415.2z M449.7,414.3c0-2-0.4-3.1-1.1-3.1
		c-0.7,0-1.2,1-1.2,3.1H449.7z"/>
	<path class="st0" d="M452.4,415.2v-0.5c0-3.5,1.4-5.2,3.3-5.2c0.6,0,1,0.1,1.4,0.3v2c-0.4-0.2-0.8-0.4-1.2-0.4
		c-0.8,0-1.6,0.9-1.6,3.4v0.6c0,2.4,0.7,3.4,1.6,3.4c0.4,0,0.8-0.2,1.1-0.5v1.9c-0.5,0.3-0.9,0.4-1.4,0.4
		C453.7,420.4,452.4,418.7,452.4,415.2z"/>
	<path class="st0" d="M458.2,406.2h1.9v8.1l1.9-4.7h2l-2,4.3l2,6.3h-2l-1.3-4.5l-0.6,1.4v3.1h-1.9V406.2z"/>
	<path class="st0" d="M468.2,414.5c0-4.2,1.5-7,3.6-8.5v0.7c-1.6,1.5-2.8,3.9-2.8,7.8c0,3.9,1.2,6.3,2.8,7.8v0.7
		C469.7,421.5,468.2,418.7,468.2,414.5z"/>
	<path class="st0" d="M475.2,406.2h0.9l3,14h-0.9l-0.8-3.9h-3.6l-0.8,3.9h-0.9L475.2,406.2z M477.3,415.5l-1.6-7.9l-1.6,7.9H477.3z"
		/>
	<path class="st0" d="M480.8,409.8h0.8v1.5c0.4-1,1.2-1.7,2.4-1.7v0.9h0c-1.3,0-2.4,0.8-2.4,2.7v7h-0.8V409.8z"/>
	<path class="st0" d="M485.7,418.5v-7.9h-1v-0.8h1v-3h0.8v3h1.7v0.8h-1.7v7.8c0,0.9,0.4,1.2,1.1,1.2c0.2,0,0.5,0,0.6-0.1v0.8
		c-0.2,0.1-0.5,0.1-0.7,0.1C486.4,420.3,485.7,419.8,485.7,418.5z"/>
	<path class="st0" d="M493,406.3h1.6c2.5,0,4.4,2.3,4.4,6.8v0.4c0,4.5-1.8,6.8-4.4,6.8H493V406.3z M493.9,407.1v12.4h0.8
		c2.1,0,3.5-2.1,3.5-6v-0.4c0-4-1.5-6-3.5-6H493.9z"/>
	<path class="st0" d="M500.9,406.1h0.9v1.4h-0.9V406.1z M500.9,409.8h0.8v10.5h-0.8V409.8z"/>
	<path class="st0" d="M503.9,409.8h0.8v1.5c0.4-1,1.2-1.7,2.4-1.7v0.9h0c-1.3,0-2.4,0.8-2.4,2.7v7h-0.8V409.8z"/>
	<path class="st0" d="M507.7,415.2V415c0-3.6,1.3-5.4,2.8-5.4c1.5,0,2.7,1.9,2.7,5.1v0.6h-4.7c0,2.8,1.2,4.2,2.6,4.2
		c0.6,0,1.1-0.2,1.8-0.6l0.1,0.9c-0.7,0.4-1.2,0.6-2,0.6C509.3,420.4,507.7,418.7,507.7,415.2z M512.4,414.6c0-2.4-0.8-4.2-1.9-4.2
		c-1.1,0-1.9,1.5-2,4.2H512.4z"/>
	<path class="st0" d="M515,406.1h0.8v9.4l3-5.8h0.9l-2.3,4.2l2.5,6.3H519l-2.1-5.4l-1.1,2v3.4H515V406.1z"/>
	<path class="st0" d="M521.7,418.5v-7.9h-1v-0.8h1v-3h0.8v3h1.7v0.8h-1.7v7.8c0,0.9,0.4,1.2,1.1,1.2c0.2,0,0.5,0,0.6-0.1v0.8
		c-0.2,0.1-0.5,0.1-0.7,0.1C522.4,420.3,521.7,419.8,521.7,418.5z"/>
	<path class="st0" d="M525.2,415.1v-0.2c0-3.3,1.4-5.3,2.9-5.3c1.5,0,2.9,2,2.9,5.3v0.2c0,3.3-1.4,5.3-2.9,5.3
		C526.5,420.4,525.2,418.4,525.2,415.1z M530.2,415.1v-0.2c0-2.8-0.9-4.5-2.1-4.5c-1.2,0-2.1,1.8-2.1,4.5v0.2c0,2.8,0.9,4.5,2.1,4.5
		C529.3,419.6,530.2,417.9,530.2,415.1z"/>
	<path class="st0" d="M532.7,409.8h0.8v1.5c0.4-1,1.2-1.7,2.4-1.7v0.9h0c-1.3,0-2.4,0.8-2.4,2.7v7h-0.8V409.8z"/>
	<path class="st0" d="M540.6,406.3h1.8c1.1,0,2.1,0.4,2.7,1.1c0.6,0.6,0.9,1.4,0.9,2.4v0c0,2.1-1.2,3-2.5,3.4
		c1.6,0.4,2.7,1.5,2.7,3.4v0c0,2.3-1.7,3.6-4.2,3.6h-1.4V406.3z M545.1,409.8c0-1.7-1.1-2.7-2.8-2.7h-0.9v5.7h0.6
		C544,412.8,545.1,411.7,545.1,409.8L545.1,409.8z M542.1,413.6h-0.7v5.8h0.5c2.1,0,3.3-1,3.3-2.8v0
		C545.3,414.7,544.1,413.6,542.1,413.6z"/>
	<path class="st0" d="M548,406.3h0.9v14H548V406.3z"/>
	<path class="st0" d="M551.2,406.3h0.9v13.2h3.4v0.8h-4.3V406.3z"/>
	<path class="st0" d="M556.7,406.3h1.6c2.5,0,4.4,2.3,4.4,6.8v0.4c0,4.5-1.8,6.8-4.4,6.8h-1.6V406.3z M557.6,407.1v12.4h0.8
		c2.1,0,3.5-2.1,3.5-6v-0.4c0-4-1.5-6-3.5-6H557.6z"/>
	<path class="st0" d="M567.4,413.4v-0.3c0-4.6,1.4-7,3.3-7s3.3,2.4,3.3,7v0.3c0,4.6-1.4,7-3.3,7S567.4,418,567.4,413.4z
		 M573.1,413.4v-0.3c0-4.1-1-6.2-2.4-6.2c-1.4,0-2.4,2.1-2.4,6.2v0.3c0,4.1,1,6.2,2.4,6.2C572,419.6,573.1,417.5,573.1,413.4z"/>
	<path class="st0" d="M575.7,409.8h0.8v1.5c0.4-0.9,1-1.7,2.1-1.7c1.4,0,2.3,1.2,2.3,3.3v7.3h-0.8V413c0-1.7-0.6-2.7-1.7-2.7
		c-1.1,0-2,1.1-2,2.8v7.1h-0.8V409.8z"/>
	<path class="st0" d="M583.1,406.1h0.8v14.1h-0.8V406.1z"/>
	<path class="st0" d="M586.2,406.1h0.9v1.4h-0.9V406.1z M586.2,409.8h0.8v10.5h-0.8V409.8z"/>
	<path class="st0" d="M589.3,409.8h0.8v1.5c0.4-0.9,1-1.7,2.1-1.7c1.4,0,2.3,1.2,2.3,3.3v7.3h-0.8V413c0-1.7-0.6-2.7-1.7-2.7
		c-1.1,0-2,1.1-2,2.8v7.1h-0.8V409.8z"/>
	<path class="st0" d="M596.1,415.2V415c0-3.6,1.3-5.4,2.8-5.4c1.5,0,2.7,1.9,2.7,5.1v0.6H597c0,2.8,1.2,4.2,2.6,4.2
		c0.6,0,1.1-0.2,1.8-0.6l0.1,0.9c-0.7,0.4-1.2,0.6-2,0.6C597.7,420.4,596.1,418.7,596.1,415.2z M600.8,414.6c0-2.4-0.8-4.2-1.9-4.2
		c-1.1,0-1.9,1.5-2,4.2H600.8z"/>
	<path class="st0" d="M602.6,422.3c1.6-1.5,2.8-3.9,2.8-7.8c0-3.9-1.2-6.3-2.8-7.8v-0.7c2.1,1.5,3.6,4.3,3.6,8.5
		c0,4.2-1.5,7-3.6,8.5V422.3z"/>
	<path class="st0" d="M233.1,453.8v-0.6c0-3.4,1.6-6.2,4.2-6.2c2.6,0,4.2,2.8,4.2,6.2v0.6c0,3.4-1.6,6.2-4.2,6.2
		C234.7,460,233.1,457.2,233.1,453.8z M241,453.8v-0.6c0-3.1-1.4-5.7-3.7-5.7c-2.4,0-3.7,2.6-3.7,5.7v0.6c0,3.1,1.4,5.7,3.7,5.7
		C239.6,459.5,241,456.9,241,453.8z M235.6,453.6v-0.2c0-2.4,0.9-3.5,1.9-3.5c0.3,0,0.5,0.1,0.8,0.2v0.7c-0.3-0.2-0.5-0.3-0.7-0.3
		c-0.7,0-1.3,0.9-1.3,2.8v0.3c0,1.9,0.6,2.8,1.3,2.8c0.2,0,0.4-0.1,0.7-0.3v0.7c-0.3,0.2-0.5,0.2-0.8,0.2
		C236.4,457.1,235.6,456,235.6,453.6z"/>
	<path class="st0" d="M245.5,453.7v-0.3c0-4.2,1.5-6.2,3.3-6.2c0.5,0,0.8,0.1,1.2,0.3v0.8c-0.5-0.3-0.8-0.4-1.2-0.4
		c-1.4,0-2.5,1.9-2.5,5.5v0.3c0,3.6,1.1,5.5,2.5,5.5c0.4,0,0.8-0.1,1.3-0.4v0.8c-0.4,0.2-0.8,0.4-1.3,0.4
		C246.9,459.9,245.5,457.9,245.5,453.7z"/>
	<path class="st0" d="M251,455.1V455c0-3,1.3-4.8,2.7-4.8c1.4,0,2.6,1.8,2.6,4.8v0.2c0,3-1.2,4.8-2.6,4.8S251,458.1,251,455.1z
		 M255.5,455.1V455c0-2.5-0.8-4.1-1.9-4.1c-1,0-1.9,1.6-1.9,4.1v0.2c0,2.5,0.8,4.1,1.9,4.1C254.7,459.2,255.5,457.6,255.5,455.1z"/>
	<path class="st0" d="M257.8,450.3h0.7v1.8c0.4-1.1,1-2,1.9-2c1.3,0,2.4,1.7,2.4,4.7v0.3c0,3-1.1,4.7-2.4,4.7c-0.9,0-1.6-0.9-1.9-2
		v4.2h-0.7V450.3z M262.1,455.2v-0.3c0-2.6-0.8-4.1-1.8-4.1c-0.9,0-1.9,1.4-1.9,4v0.4c0,2.5,1,4,1.9,4
		C261.3,459.3,262.1,457.8,262.1,455.2z"/>
	<path class="st0" d="M268.1,450.3h0.7l-2.8,11.8h-0.7l0.6-2.4l-2.2-9.4h0.8l1.8,8.1L268.1,450.3z"/>
	<path class="st0" d="M270.3,450.3h0.7v1.4c0.4-0.9,1.1-1.6,2.2-1.5v0.8h0c-1.2,0-2.1,0.8-2.1,2.4v6.3h-0.7V450.3z"/>
	<path class="st0" d="M274.5,447.1h0.8v1.3h-0.8V447.1z M274.5,450.3h0.7v9.5h-0.7V450.3z"/>
	<path class="st0" d="M277.3,461.8V461c0.7,0.3,1.5,0.5,2.1,0.5c1.3,0,1.9-0.6,1.9-1.9v-2.2c-0.4,1.1-1,2-1.9,2
		c-1.2,0-2.4-1.6-2.4-4.5v-0.2c0-2.9,1.2-4.5,2.4-4.5c0.9,0,1.6,0.9,1.9,2v-1.8h0.7v9.2c0,0.9-0.2,1.5-0.7,1.9
		c-0.5,0.5-1.1,0.7-2,0.7C278.7,462.2,277.9,462,277.3,461.8z M281.3,454.8v-0.2c0-2.4-1-3.8-1.9-3.8c-0.9,0-1.8,1.4-1.8,3.8v0.1
		c0,2.5,0.8,3.8,1.8,3.8C280.3,458.6,281.3,457.2,281.3,454.8z"/>
	<path class="st0" d="M283.9,447.1h0.7v4.7c0.3-0.8,0.9-1.5,1.9-1.5c1.3,0,2.1,1.1,2.1,3v6.6h-0.7v-6.5c0-1.6-0.5-2.4-1.5-2.4
		c-1,0-1.8,1-1.8,2.6v6.4h-0.7V447.1z"/>
	<path class="st0" d="M290.6,458.2V451h-0.9v-0.7h0.9v-2.7h0.7v2.7h1.5v0.7h-1.5v7.1c0,0.8,0.4,1,1,1c0.2,0,0.4,0,0.6-0.1v0.7
		c-0.2,0.1-0.4,0.1-0.6,0.1C291.3,459.9,290.6,459.4,290.6,458.2z"/>
	<path class="st0" d="M297.3,447.2h1.6c1,0,1.9,0.3,2.5,1c0.5,0.5,0.8,1.3,0.8,2.2v0c0,1.9-1,2.7-2.3,3c1.5,0.3,2.4,1.4,2.4,3.1v0
		c0,2.1-1.5,3.3-3.8,3.3h-1.3V447.2z M301.4,450.4c0-1.5-1-2.5-2.6-2.5h-0.8v5.2h0.5C300.5,453.1,301.4,452.1,301.4,450.4
		L301.4,450.4z M298.7,453.8h-0.6v5.3h0.5c1.9,0,3-0.9,3-2.6v0C301.6,454.8,300.5,453.8,298.7,453.8z"/>
	<path class="st0" d="M304,447.2h0.8v12.6H304V447.2z"/>
	<path class="st0" d="M306.9,447.2h0.8v11.9h3.1v0.7h-3.9V447.2z"/>
	<path class="st0" d="M311.9,447.2h1.5c2.3,0,4,2.1,4,6.1v0.3c0,4-1.7,6.1-4,6.1h-1.5V447.2z M312.7,447.9v11.2h0.7
		c1.9,0,3.2-1.9,3.2-5.4v-0.3c0-3.6-1.4-5.4-3.2-5.4H312.7z"/>
	<path class="st0" d="M321.9,447.2h0.8v7.1l3.4-7.1h0.9l-2.8,5.7l3.2,6.9h-0.8l-2.8-6.1l-1,2.1v4h-0.8V447.2z"/>
	<path class="st0" d="M327.5,453.7v-0.3c0-4.2,1.8-6.2,3.7-6.2c0.7,0,1.1,0.1,1.5,0.4v0.9c-0.5-0.3-1-0.5-1.5-0.5
		c-1.5,0-3,1.8-3,5.5v0.3c0,3.7,1.3,5.5,3,5.5c0.4,0,0.5,0,0.8-0.2v-5h-1.8v-0.7h2.6v6.1c-0.6,0.3-1,0.4-1.6,0.4
		C329.2,459.9,327.5,457.8,327.5,453.7z"/>
	<path class="st0" d="M337.1,459.3l3-6.2c0.5-1.2,0.9-2,0.9-3.1c0-1.3-0.7-2.1-1.7-2.1c-0.7,0-1.3,0.2-1.8,0.6v-0.8
		c0.5-0.3,1.1-0.5,1.8-0.5c1.5,0,2.5,1.1,2.5,2.8v0.1c0,1.2-0.4,2.2-1,3.6l-2.7,5.6h3.8v0.8h-4.8V459.3z"/>
	<path class="st0" d="M343.2,453.7v-0.3c0-4.5,1.1-6.3,2.6-6.3c1.5,0,2.6,1.8,2.6,6.3v0.3c0,4.5-1.1,6.3-2.6,6.3
		C344.3,459.9,343.2,458.1,343.2,453.7z M347.6,453.7v-0.3c0-3.8-0.7-5.6-1.8-5.6c-1.1,0-1.8,1.8-1.8,5.6v0.3c0,3.8,0.7,5.6,1.8,5.6
		C346.9,459.2,347.6,457.4,347.6,453.7z"/>
	<path class="st0" d="M350.6,448.2l-1.3,0.8V448l1.4-0.8h0.7v12.6h-0.8V448.2z"/>
	<path class="st0" d="M354.4,459.4c-0.7-0.7-1.2-2.1-1.2-4.9V454c0-5,1.3-6.9,3-6.9c0.5,0,0.9,0.1,1.2,0.3v0.8
		c-0.4-0.2-0.7-0.3-1.2-0.3c-1.6,0-2.2,2.6-2.2,5c0.6-0.6,1.2-0.9,1.8-0.9c1.2,0,2.4,1.1,2.4,3.8v0.1c0,2.5-1.1,4.1-2.5,4.1
		C355.3,459.9,354.8,459.8,354.4,459.4z M357.5,455.9L357.5,455.9c0-2.2-0.8-3.2-1.7-3.2c-0.6,0-1.2,0.4-1.8,1v1
		c0,3.6,0.9,4.6,1.7,4.6C356.8,459.2,357.5,457.7,357.5,455.9z"/>
</g>
</svg>
