<?xml version="1.0" encoding="utf-8"?>
<!-- Generator: Adobe Illustrator 19.1.0, SVG Export Plug-In . SVG Version: 6.00 Build 0)  -->
<svg version="1.1" id="Ebene_1" xmlns="http://www.w3.org/2000/svg" xmlns:xlink="http://www.w3.org/1999/xlink" x="0px" y="0px"
	 viewBox="0 0 841.9 595.3" style="enable-background:new 0 0 841.9 595.3;" xml:space="preserve">
<style type="text/css">
	.st0{fill:#FFFFFF;}
	.st1{fill:none;}
</style>
<g>
	<polygon class="st0" points="178.3,89.6 189.5,89.6 189.5,182.2 178.3,182.2 178.3,89.6 	"/>
	<g>
		<path class="st0" d="M152.5,89.6h-22.1l0,92.6l22.1,0c2.7,0,4.9-2.2,4.9-5l0-38.1v-2c0-2.9-2.3-5.2-5.2-5.2l0.5,0
			c2.6,0,4.7-2.1,4.7-4.7v-3V94.6C157.4,91.8,155.2,89.6,152.5,89.6z M146.2,170.7h-4.6v-32h4.6V170.7z M146.2,127.4h-4.6V101h4.6
			V127.4z"/>
		<rect x="141.6" y="101" class="st1" width="4.6" height="26.4"/>
		<rect x="141.6" y="138.7" class="st1" width="4.6" height="32"/>
	</g>
	<g>
		<path class="st0" d="M210.1,89.6v16.1h-10.9c-2.7,0-4.8,2.2-4.8,5l0,66.5c0,2.8,2.2,5,4.9,5l22.1,0V89.6H210.1z M210.1,170.7h-4.6
			V117h4.6V170.7z"/>
		<rect x="205.5" y="117" class="st1" width="4.6" height="53.7"/>
	</g>
	<polygon class="st0" points="162.2,89.6 173.4,89.6 173.4,101 162.2,101 162.2,89.6 	"/>
	<polygon class="st0" points="162.2,105.7 173.4,105.7 173.4,182.2 162.2,182.2 162.2,105.7 	"/>
</g>
<g>
	<path class="st0" d="M226.2,144.7v-1.5c0-11.1,4.7-15.6,11.2-15.6c2.6,0,4.6,0.6,6.6,1.8v-1.9c0-4.5-2.1-6.8-6.4-6.8
		c-3,0-6.5,1.3-8.8,2.5v-12.4c3.5-1.5,7.4-2.3,11.7-2.3c5.4,0,9.4,1.5,12.1,4.2c2.9,3,4.5,7.6,4.5,13.6v32.1H244v-4.6
		c-2,3.5-4.6,5.6-8.1,5.6C230.3,159.4,226.2,154.1,226.2,144.7z M244,145.1v-7.6c-0.7-0.4-2-0.8-2.9-0.8c-1.9,0-3,1.8-3,5.6v1.8
		c0,3.8,1.3,5.3,2.9,5.3C242.5,149.4,244,148,244,145.1z"/>
	<path class="st0" d="M260.9,147.1v-37.9h13v34.2c0,2.5,1,4.1,2.7,4.1c1.6,0,2.8-1.5,2.8-4.1v-34.2h13v49.2h-13v-5.6
		c-1.8,3.5-4.5,6.6-9,6.6C264.1,159.5,260.9,154.4,260.9,147.1z"/>
	<path class="st0" d="M298.4,119.9h-2.8v-10.6h2.8V107c0-4.5,1.2-7.8,3.3-10.1c2.2-2.2,5.5-3.3,9.6-3.3c2.5,0,4,0.2,5.5,0.5v10.4
		c-0.4-0.1-1.2-0.2-1.9-0.2c-2.3,0-3.8,1.2-3.8,3.7v1.3h5.6v10.6h-5.4v38.6h-13V119.9z"/>
	<path class="st0" d="M333.3,94.8h13.4v63.7h-13.4V94.8z"/>
	<path class="st0" d="M351.6,109.2h13v5.6c1.8-3.5,4.5-6.6,9-6.6c6.3,0,9.5,5,9.5,12.4v37.9h-13v-34.3c0-2.5-1-4-2.7-4
		c-1.6,0-2.8,1.5-2.8,4v34.3h-13V109.2z"/>
	<path class="st0" d="M386.5,156.7v-12.6c3.8,2.2,7.4,3.6,9.9,3.6c2,0,3-1.2,3-2.8v-0.1c0-1.5-0.7-2.6-4.5-6.1
		c-5.1-4.5-9-8.6-9-16.2v-0.2c0-8.7,6-14,14.6-14c3.6,0,6.3,0.5,9.4,1.6v12.7c-2.9-1.5-5.9-2.6-8.4-2.6c-2,0-3,1-3,2.5v0.1
		c0,1.5,1.2,2.5,4.6,5.9c5.4,4.8,8.8,8.7,8.8,16.1v0.2c0,8.8-6.2,14.6-14.2,14.6C394,159.5,389.9,158.5,386.5,156.7z"/>
	<path class="st0" d="M415.4,149v-29.1h-2.7v-10.6h2.7v-12h13v12h5.4v10.6h-5.4v25c0,1.7,0.8,2.5,2.5,2.5c0.9,0,1.8-0.3,2.9-0.7
		v10.6c-2.1,1.1-4.9,1.9-7.7,1.9C420.2,159.3,415.4,156.9,415.4,149z"/>
	<path class="st0" d="M435.9,144.7v-1.5c0-11.1,4.7-15.6,11.2-15.6c2.6,0,4.6,0.6,6.6,1.8v-1.9c0-4.5-2.1-6.8-6.4-6.8
		c-3,0-6.5,1.3-8.8,2.5v-12.4c3.5-1.5,7.4-2.3,11.7-2.3c5.4,0,9.4,1.5,12.1,4.2c2.9,3,4.5,7.6,4.5,13.6v32.1h-12.9v-4.6
		c-2,3.5-4.6,5.6-8.1,5.6C440,159.4,435.9,154.1,435.9,144.7z M453.7,145.1v-7.6c-0.7-0.4-2-0.8-2.9-0.8c-1.9,0-3,1.8-3,5.6v1.8
		c0,3.8,1.3,5.3,2.9,5.3C452.2,149.4,453.7,148,453.7,145.1z"/>
	<path class="st0" d="M472.3,169v-11.7c3.5,1.3,7.7,2.1,10.8,2.1c4.4,0,7-2.2,7-7.1v-3.8c-2.1,3.5-4.6,6.6-9,6.6
		c-5.8,0-10.7-5-10.7-22.2v-1.9c0-17.4,4.9-22.7,10.7-22.7c4.6,0,6.9,3.1,8.8,6.6v-5.6h13v42.9c0,6.4-1.5,10.7-4.5,13.7
		c-3.3,3.4-8.1,4.7-14.2,4.7C479.4,170.6,475.9,170,472.3,169z M490,132.6v-1.7c0-7.4-1.2-10.6-3.4-10.6c-2.1,0-3.2,3.2-3.2,10.6
		v1.7c0,7.4,1.1,10.6,3.2,10.6C488.8,143.2,490,140,490,132.6z"/>
	<path class="st0" d="M507.6,109.2h12.9v6.8c1.5-4.9,3.8-7.7,7.7-7.5v15.9h-0.3c-5,0-7.3,3.4-7.3,10.2v23.7h-13V109.2z"/>
	<path class="st0" d="M528.6,144.7v-1.5c0-11.1,4.7-15.6,11.2-15.6c2.6,0,4.6,0.6,6.6,1.8v-1.9c0-4.5-2.1-6.8-6.4-6.8
		c-3,0-6.5,1.3-8.8,2.5v-12.4c3.5-1.5,7.4-2.3,11.7-2.3c5.4,0,9.4,1.5,12.1,4.2c2.9,3,4.5,7.6,4.5,13.6v32.1h-12.9v-4.6
		c-2,3.5-4.6,5.6-8.1,5.6C532.7,159.4,528.6,154.1,528.6,144.7z M546.4,145.1v-7.6c-0.7-0.4-2-0.8-2.9-0.8c-1.9,0-3,1.8-3,5.6v1.8
		c0,3.8,1.3,5.3,2.9,5.3C544.9,149.4,546.4,148,546.4,145.1z"/>
	<path class="st0" d="M563.6,109.2h12.9v5.6c2-3.6,4.6-6.6,9-6.6c4.5,0,7,2.6,8.5,6.1c1.9-3.1,4.8-6.1,9.3-6.1
		c5.8,0,9.9,4.6,9.9,12.5v37.8h-13v-34.2c0-2.5-1-4.1-2.7-4.1c-1.6,0-2.8,1.5-2.8,4.1v34.2h-12.9v-34.2c0-2.5-1-4.1-2.6-4.1
		c-1.7,0-2.8,1.5-2.8,4.1v34.2h-12.9V109.2z"/>
</g>
<g>
	<path class="st0" d="M132.6,209.3h2.1l5,15.5l5.1-15.5h2.1v27.7h-1.6v-23.9l-5.4,16.1h-0.2l-5.4-16.1v23.9h-1.6V209.3z"/>
	<path class="st0" d="M151.2,209.1h1.8v2.8h-1.8V209.1z M151.3,216.3h1.6v20.8h-1.6V216.3z"/>
	<path class="st0" d="M156.2,236.3v-1.7c1.4,0.8,2.8,1.2,4.2,1.2c1.7,0,3.1-1.1,3.1-3.1v-0.1c0-1.5-0.8-2.9-3.2-5.3
		c-3-2.9-4-4.6-4-6.7v-0.1c0-2.9,2.2-4.6,4.6-4.6c1.4,0,2.3,0.2,3.4,0.7v1.7c-1.2-0.6-2.3-0.9-3.5-0.9c-1.7,0-2.9,1.1-2.9,2.9v0.1
		c0,1.5,0.8,2.7,3.2,5.1c2.9,2.9,4,4.6,4,6.8v0.1c0,2.9-2.3,4.7-4.8,4.7C158.7,237.3,157.5,237,156.2,236.3z"/>
	<path class="st0" d="M167.3,226.9v-0.4c0-7.2,3.1-10.5,6.2-10.5c1,0,1.9,0.3,2.4,0.7v1.8c-0.7-0.6-1.5-1-2.5-1
		c-2.1,0-4.6,2.7-4.6,8.9v0.6c0,6.3,2.4,8.8,4.7,8.8c0.9,0,1.6-0.4,2.3-1v1.7c-0.7,0.5-1.4,0.8-2.4,0.8
		C170.4,237.4,167.3,234.2,167.3,226.9z"/>
	<path class="st0" d="M179.1,209.1h1.6v10.3c0.7-1.7,1.9-3.4,4.2-3.4c2.8,0,4.7,2.3,4.7,6.6v14.5h-1.6v-14.4c0-3.4-1.2-5.3-3.3-5.3
		c-2.2,0-3.9,2.3-3.9,5.6v14.1h-1.6V209.1z"/>
	<path class="st0" d="M193.4,230.8v-14.5h1.6v14.4c0,3.4,1.2,5.3,3.3,5.3c2.2,0,3.9-2.3,3.9-5.6v-14.1h1.6v20.8h-1.6V234
		c-0.7,1.7-1.9,3.4-4.2,3.4C195.3,237.4,193.4,235.1,193.4,230.8z"/>
	<path class="st0" d="M208,216.3h1.6v3.1c0.7-1.7,1.9-3.4,4.2-3.4c2.8,0,4.7,2.3,4.7,6.6v14.5h-1.6v-14.4c0-3.4-1.2-5.3-3.3-5.3
		c-2.2,0-3.9,2.3-3.9,5.6v14.1H208V216.3z"/>
	<path class="st0" d="M222.6,241.5v-1.7c1.5,0.6,3.2,1,4.6,1c2.8,0,4.2-1.3,4.2-4.2v-4.9c-0.8,2.4-2.2,4.3-4.3,4.3
		c-2.7,0-5.3-3.4-5.3-9.8v-0.4c0-6.3,2.6-9.8,5.3-9.8c2.1,0,3.5,1.9,4.3,4.3v-4h1.6v20.2c0,1.9-0.5,3.3-1.4,4.3
		c-1,1-2.5,1.5-4.5,1.5C225.7,242.3,224,242,222.6,241.5z M231.4,226.2v-0.4c0-5.3-2.2-8.4-4.2-8.4c-2,0-3.9,3-3.9,8.4v0.3
		c0,5.4,1.9,8.4,3.9,8.4C229.2,234.5,231.4,231.5,231.4,226.2z"/>
	<path class="st0" d="M249.3,209.3h9.9v4.6H254v7h4.5v4.6H254v11.6h-4.7V209.3z"/>
	<path class="st0" d="M260.4,227.1v-1.3c0-6.8,2.7-10.3,6.5-10.3c3.7,0,6.5,3.5,6.5,10.3v1.3c0,6.8-2.7,10.3-6.5,10.3
		C263.2,237.5,260.4,234,260.4,227.1z M268.8,227.2v-1.4c0-4.2-0.7-6.1-1.9-6.1c-1.2,0-1.9,1.9-1.9,6.1v1.4c0,4.1,0.7,6.1,1.9,6.1
		C268.1,233.3,268.8,231.3,268.8,227.2z"/>
	<path class="st0" d="M275.9,233.4v-13.8h-1.2v-3.8h1.2v-5.4h4.6v5.4h2.5v3.8h-2.5v12.2c0,1,0.5,1.3,1.3,1.3c0.3,0,0.7-0.1,1.1-0.2
		v3.7c-0.7,0.4-1.8,0.7-2.7,0.7C278,237.4,275.9,236.7,275.9,233.4z"/>
	<path class="st0" d="M284.1,227.1v-1.3c0-6.8,2.7-10.3,6.5-10.3c3.7,0,6.5,3.5,6.5,10.3v1.3c0,6.8-2.7,10.3-6.5,10.3
		C286.8,237.5,284.1,234,284.1,227.1z M292.4,227.2v-1.4c0-4.2-0.7-6.1-1.9-6.1c-1.2,0-1.9,1.9-1.9,6.1v1.4c0,4.1,0.7,6.1,1.9,6.1
		C291.7,233.3,292.4,231.3,292.4,227.2z"/>
	<path class="st0" d="M298.5,236.5v-4.6c1.6,0.8,2.9,1.4,3.9,1.4c1.1,0,1.7-0.6,1.7-1.7c0-0.9-0.3-1.5-2.3-3.5
		c-2.1-2.1-3.5-4-3.5-6.7v-0.1c0-3.5,2.4-5.7,5.9-5.7c1.3,0,2.3,0.2,3.4,0.6v4.6c-1-0.5-2.1-1-3.2-1c-1.1,0-1.8,0.6-1.8,1.5
		c0,0.8,0.3,1.4,2.5,3.5c2.6,2.5,3.4,4.2,3.4,6.7v0.1c0,3.7-2.5,6-5.8,6C301.4,237.5,299.8,237.1,298.5,236.5z"/>
	<path class="st0" d="M317.2,230.8v-14.5h1.6v14.4c0,3.4,1.2,5.3,3.3,5.3c2.2,0,3.9-2.3,3.9-5.6v-14.1h1.6v20.8h-1.6V234
		c-0.7,1.7-1.9,3.4-4.2,3.4C319.1,237.4,317.2,235.1,317.2,230.8z"/>
	<path class="st0" d="M331.9,216.3h1.6v3.1c0.7-1.7,1.9-3.4,4.2-3.4c2.8,0,4.7,2.3,4.7,6.6v14.5h-1.6v-14.4c0-3.4-1.2-5.3-3.3-5.3
		c-2.2,0-3.9,2.3-3.9,5.6v14.1h-1.6V216.3z"/>
	<path class="st0" d="M345.6,227.1v-0.8c0-6.6,2.5-10.3,5.3-10.3c2.1,0,3.5,1.9,4.3,4.3v-11.2h1.6v28h-1.6v-4
		c-0.8,2.4-2.2,4.3-4.3,4.3C348.1,237.4,345.6,233.8,345.6,227.1z M355.3,227.2v-1c0-5.6-2.1-8.8-4.2-8.8c-2.1,0-3.9,3.2-3.9,8.9
		v0.7c0,5.7,1.8,8.9,3.9,8.9C353.2,235.9,355.3,232.8,355.3,227.2z"/>
	<path class="st0" d="M365.4,209.3h4.8l2.6,18.1l2.6-18.1h4.7l-4.9,27.8h-4.9L365.4,209.3z"/>
	<path class="st0" d="M381.3,209.1h4.7v4.7h-4.7V209.1z M381.3,215.8h4.6v21.2h-4.6V215.8z"/>
	<path class="st0" d="M388.2,227.4v-1.9c0-7.6,1.9-10.1,4.4-10.1c2,0,3,1.7,3.7,3v-9.3h4.6v27.9h-4.6v-2.7c-0.7,1.3-1.6,3.1-3.7,3.1
		C390.2,237.5,388.2,235.1,388.2,227.4z M396.4,227.2v-1.4c0-3.8-0.7-5.8-1.8-5.8s-1.7,2.1-1.7,5.8v1.4c0,3.8,0.5,5.8,1.7,5.8
		S396.4,231,396.4,227.2z"/>
	<path class="st0" d="M403,227v-1c0-6.8,2.9-10.5,6.3-10.5c3.6,0,5.9,3.7,5.9,10.7v2.5h-7.7c0.3,3.3,1.6,4.5,3.2,4.5
		c1.4,0,2.3-0.6,3.7-1.5l0.4,4.3c-1.6,1.1-2.8,1.6-4.6,1.6C406.2,237.5,403,233.9,403,227z M410.9,225c0-3.6-0.5-5.3-1.6-5.3
		c-1.1,0-1.7,1.5-1.8,5.3H410.9z"/>
	<path class="st0" d="M416.7,227.1v-1.3c0-6.8,2.7-10.3,6.5-10.3c3.7,0,6.5,3.5,6.5,10.3v1.3c0,6.8-2.7,10.3-6.5,10.3
		C419.4,237.5,416.7,234,416.7,227.1z M425,227.2v-1.4c0-4.2-0.7-6.1-1.9-6.1c-1.2,0-1.9,1.9-1.9,6.1v1.4c0,4.1,0.7,6.1,1.9,6.1
		C424.3,233.3,425,231.3,425,227.2z"/>
	<path class="st0" d="M431.2,236.5v-4.6c1.6,0.8,2.9,1.4,3.9,1.4c1.1,0,1.7-0.6,1.7-1.7c0-0.9-0.3-1.5-2.3-3.5
		c-2.1-2.1-3.5-4-3.5-6.7v-0.1c0-3.5,2.4-5.7,5.9-5.7c1.3,0,2.3,0.2,3.4,0.6v4.6c-1-0.5-2.1-1-3.2-1c-1.1,0-1.8,0.6-1.8,1.5
		c0,0.8,0.3,1.4,2.5,3.5c2.6,2.5,3.4,4.2,3.4,6.7v0.1c0,3.7-2.5,6-5.8,6C434.1,237.5,432.5,237.1,431.2,236.5z"/>
	<path class="st0" d="M131.8,248.6h4.4l4.9,14.4v-14.4h4.6v27.7h-4.2l-5.1-15v15h-4.5V248.6z"/>
	<path class="st0" d="M147.6,270.5v-0.7c0-4.8,1.9-6.7,4.6-6.7c1,0,1.9,0.3,2.8,0.8v-1.3c0-2.2-1-3.3-2.9-3.3c-1.2,0-2.5,0.5-3.5,1
		v-4.4c1.4-0.6,3-0.9,4.2-0.9c2.3,0,3.8,0.6,4.9,1.7c1.2,1.3,1.9,3.2,1.9,5.7v14.1h-4.6v-2.3c-0.8,1.7-1.9,2.6-3.4,2.6
		C149.2,276.7,147.6,274.3,147.6,270.5z M155,270.8v-3.6c-0.4-0.2-1-0.4-1.4-0.4c-0.9,0-1.6,0.8-1.6,2.8v0.6c0,2.1,0.6,2.7,1.4,2.7
		C154.2,272.8,155,272.1,155,270.8z"/>
	<path class="st0" d="M161.6,266.4v-1.3c0-6.8,2.8-10.3,6.6-10.3c1.3,0,1.9,0.1,2.9,0.6v4.8c-0.8-0.5-1.5-0.8-2.3-0.8
		c-1.4,0-2.5,1.5-2.5,5.7v1.4c0,4.1,1,5.7,2.6,5.7c0.7,0,1.5-0.4,2.3-0.9v4.6c-1.1,0.6-1.8,0.9-3,0.9
		C164.1,276.8,161.6,273.2,161.6,266.4z"/>
	<path class="st0" d="M173.1,248.4h4.6v9.2c0.8-1.6,1.9-2.9,3.7-2.9c2.6,0,4,2.3,4,5.5v16.1h-4.6v-15c0-1.5-0.6-2.4-1.5-2.4
		s-1.6,0.9-1.6,2.4v15h-4.6V248.4z"/>
	<path class="st0" d="M187.8,255.1h4.6v2.7c0.6-1.8,1.6-3,3.3-2.9v5.6h-0.1c-2.2,0-3.3,1.5-3.3,4.5v11.3h-4.6V255.1z"/>
	<path class="st0" d="M197.5,248.4h4.7v4.7h-4.7V248.4z M197.6,255.1h4.6v21.2h-4.6V255.1z"/>
	<path class="st0" d="M204.4,266.4v-1.3c0-6.8,2.8-10.3,6.6-10.3c1.3,0,1.9,0.1,2.9,0.6v4.8c-0.8-0.5-1.5-0.8-2.3-0.8
		c-1.4,0-2.5,1.5-2.5,5.7v1.4c0,4.1,1.1,5.7,2.6,5.7c0.7,0,1.5-0.4,2.3-0.9v4.6c-1,0.6-1.8,0.9-3,0.9
		C207,276.8,204.4,273.2,204.4,266.4z"/>
	<path class="st0" d="M215.9,248.4h4.6v9.2c0.8-1.6,1.9-2.9,3.7-2.9c2.6,0,4,2.3,4,5.5v16.1h-4.6v-15c0-1.5-0.6-2.4-1.5-2.4
		s-1.6,0.9-1.6,2.4v15h-4.6V248.4z"/>
	<path class="st0" d="M231,272.7v-13.8h-1.2v-3.8h1.2v-5.4h4.6v5.4h2.5v3.8h-2.5v12.2c0,1,0.5,1.3,1.3,1.3c0.3,0,0.7-0.1,1.1-0.2
		v3.7c-0.7,0.4-1.8,0.7-2.7,0.7C233.1,276.6,231,275.9,231,272.7z"/>
	<path class="st0" d="M239,266.3v-1c0-6.8,2.9-10.5,6.3-10.5c3.6,0,5.9,3.7,5.9,10.7v2.5h-7.7c0.3,3.3,1.6,4.5,3.2,4.5
		c1.4,0,2.3-0.6,3.7-1.5l0.4,4.3c-1.6,1.1-2.8,1.6-4.6,1.6C242.3,276.8,239,273.2,239,266.3z M247,264.2c0-3.6-0.5-5.3-1.6-5.3
		c-1.1,0-1.7,1.5-1.8,5.3H247z"/>
	<path class="st0" d="M253.2,255.1h4.6v2.5c0.8-1.6,1.9-2.9,3.7-2.9c2.6,0,4,2.3,4,5.5v16.1h-4.6v-15c0-1.5-0.6-2.4-1.5-2.4
		s-1.6,0.9-1.6,2.4v15h-4.6V255.1z"/>
	<path class="st0" d="M275,270.1v-14.5h1.6v14.4c0,3.4,1.2,5.3,3.3,5.3c2.2,0,3.9-2.3,3.9-5.6v-14.1h1.6v20.8h-1.6v-3.1
		c-0.7,1.7-1.9,3.4-4.2,3.4C276.9,276.7,275,274.3,275,270.1z"/>
	<path class="st0" d="M289.6,255.6h1.6v3.1c0.7-1.7,1.9-3.4,4.2-3.4c2.8,0,4.7,2.3,4.7,6.6v14.5h-1.6V262c0-3.4-1.2-5.3-3.3-5.3
		c-2.2,0-3.9,2.3-3.9,5.6v14.1h-1.6V255.6z"/>
	<path class="st0" d="M303.3,266.3v-0.8c0-6.6,2.5-10.3,5.3-10.3c2.1,0,3.5,1.9,4.3,4.3v-11.2h1.6v28h-1.6v-4
		c-0.8,2.4-2.2,4.3-4.3,4.3C305.8,276.7,303.3,273,303.3,266.3z M313,266.5v-1c0-5.6-2.1-8.8-4.2-8.8c-2.1,0-3.9,3.2-3.9,8.9v0.7
		c0,5.7,1.8,8.9,3.9,8.9C310.9,275.2,313,272,313,266.5z"/>
	<path class="st0" d="M324.4,268.3v-19.7h4.7v20.1c0,2.5,0.9,3.4,2,3.4s2-1,2-3.4v-20.1h4.7v19.7c0,5.8-2.9,8.4-6.8,8.4
		S324.4,274.1,324.4,268.3z"/>
	<path class="st0" d="M340.5,255.1h4.6v2.5c0.8-1.6,1.9-2.9,3.7-2.9c2.6,0,4,2.3,4,5.5v16.1h-4.6v-15c0-1.5-0.6-2.4-1.5-2.4
		s-1.6,0.9-1.6,2.4v15h-4.6V255.1z"/>
	<path class="st0" d="M355.6,272.7v-13.8h-1.2v-3.8h1.2v-5.4h4.6v5.4h2.5v3.8h-2.5v12.2c0,1,0.5,1.3,1.3,1.3c0.3,0,0.7-0.1,1.1-0.2
		v3.7c-0.7,0.4-1.8,0.7-2.7,0.7C357.7,276.6,355.6,275.9,355.6,272.7z"/>
	<path class="st0" d="M363.6,266.3v-1c0-6.8,2.9-10.5,6.3-10.5c3.6,0,5.9,3.7,5.9,10.7v2.5h-7.7c0.3,3.3,1.6,4.5,3.2,4.5
		c1.4,0,2.3-0.6,3.7-1.5l0.4,4.3c-1.6,1.1-2.8,1.6-4.6,1.6C366.9,276.8,363.6,273.2,363.6,266.3z M371.6,264.2
		c0-3.6-0.5-5.3-1.6-5.3c-1.1,0-1.7,1.5-1.8,5.3H371.6z"/>
	<path class="st0" d="M377.8,255.1h4.6v2.7c0.6-1.8,1.6-3,3.3-2.9v5.6h-0.1c-2.2,0-3.3,1.5-3.3,4.5v11.3h-4.6V255.1z"/>
	<path class="st0" d="M387.5,248.4h4.6v9.2c0.8-1.6,1.9-2.9,3.7-2.9c2.6,0,4,2.3,4,5.5v16.1h-4.6v-15c0-1.5-0.6-2.4-1.5-2.4
		s-1.6,0.9-1.6,2.4v15h-4.6V248.4z"/>
	<path class="st0" d="M401.5,270.5v-0.7c0-4.8,1.9-6.7,4.6-6.7c1,0,1.9,0.3,2.8,0.8v-1.3c0-2.2-1-3.3-2.9-3.3c-1.2,0-2.5,0.5-3.5,1
		v-4.4c1.4-0.6,3-0.9,4.2-0.9c2.3,0,3.8,0.6,4.9,1.7c1.2,1.3,1.9,3.2,1.9,5.7v14.1h-4.6v-2.3c-0.8,1.7-1.9,2.6-3.4,2.6
		C403.1,276.7,401.5,274.3,401.5,270.5z M408.9,270.8v-3.6c-0.4-0.2-1-0.4-1.4-0.4c-0.9,0-1.6,0.8-1.6,2.8v0.6
		c0,2.1,0.6,2.7,1.4,2.7C408.1,272.8,408.9,272.1,408.9,270.8z"/>
	<path class="st0" d="M415.9,248.4h4.6v27.9h-4.6V248.4z"/>
	<path class="st0" d="M423.6,272.7v-13.8h-1.2v-3.8h1.2v-5.4h4.6v5.4h2.5v3.8h-2.5v12.2c0,1,0.5,1.3,1.3,1.3c0.3,0,0.7-0.1,1.1-0.2
		v3.7c-0.7,0.4-1.8,0.7-2.7,0.7C425.7,276.6,423.6,275.9,423.6,272.7z"/>
	<path class="st0" d="M432.5,271.2v-16.1h4.6v15c0,1.5,0.6,2.4,1.5,2.4s1.6-0.9,1.6-2.4v-15h4.6v21.2h-4.6v-2.5
		c-0.8,1.6-1.9,2.9-3.7,2.9C433.8,276.8,432.5,274.5,432.5,271.2z"/>
	<path class="st0" d="M447.3,255.1h4.6v2.5c0.8-1.6,1.9-2.9,3.7-2.9c2.6,0,4,2.3,4,5.5v16.1H455v-15c0-1.5-0.6-2.4-1.5-2.4
		s-1.6,0.9-1.6,2.4v15h-4.6V255.1z"/>
	<path class="st0" d="M462.6,280.9v-4.3c1.3,0.5,3,0.9,3.9,0.9c2.1,0,3.3-0.9,3.3-3.3V272c-0.7,1.3-1.7,3.1-3.7,3.1
		c-2.5,0-4.4-2.5-4.4-10.1v-0.2c0-7.6,1.9-10.1,4.4-10.1c2,0,3,1.7,3.7,3v-2.6h4.6v19.4c0,2.4-0.6,4-1.8,5.3
		c-1.2,1.3-3.2,1.8-5.5,1.8C465.2,281.6,464.1,281.4,462.6,280.9z M469.9,264.9L469.9,264.9c0-3.8-0.7-5.7-1.8-5.7s-1.7,1.9-1.7,5.7
		v0.1c0,3.8,0.6,5.7,1.7,5.7S469.9,268.8,469.9,264.9z"/>
	<path class="st0" d="M476.5,279.5c1.5-0.7,2.1-1.6,2-3.1h-1.1v-3.3h2.4v2.8c0,2.5-0.7,3.5-2.9,4.5L476.5,279.5z"/>
	<path class="st0" d="M489.1,270.3V270c0-3.8,1.9-6.7,5.4-6.7c1.4,0,2.5,0.4,3.4,0.8v-2.6c0-2.9-1.3-4.6-3.9-4.6
		c-1.4,0-2.6,0.3-3.8,1v-1.6c1.1-0.6,2.4-0.9,3.9-0.9c1.6,0,3,0.5,4,1.5c0.9,0.9,1.5,2.5,1.5,4.5v15.1h-1.6v-3
		c-0.8,2.1-2.1,3.4-4.1,3.4C491,276.7,489.1,274,489.1,270.3z M497.8,269.9v-4.2c-1.1-0.5-2.1-0.8-3.3-0.8c-2.5,0-3.8,2.1-3.8,5v0.3
		c0,2.8,1.1,5,3.3,5C496.4,275.3,497.8,272.6,497.8,269.9z M491.8,250.5h1.8v2.7h-1.8V250.5z M495.7,250.5h1.8v2.7h-1.8V250.5z"/>
	<path class="st0" d="M502.4,275.6v-1.7c1.4,0.8,2.8,1.2,4.2,1.2c1.7,0,3.1-1.1,3.1-3.1v-0.1c0-1.5-0.8-2.9-3.2-5.3
		c-3-2.9-4-4.6-4-6.7v-0.1c0-2.9,2.2-4.6,4.6-4.6c1.4,0,2.3,0.2,3.4,0.7v1.7c-1.2-0.6-2.3-0.9-3.5-0.9c-1.7,0-2.9,1.1-2.9,2.9v0.1
		c0,1.5,0.8,2.7,3.2,5.1c2.9,2.9,4,4.6,4,6.8v0.1c0,2.9-2.3,4.7-4.8,4.7C504.8,276.6,503.7,276.2,502.4,275.6z"/>
	<path class="st0" d="M514.7,272.9v-15.8h-1.9v-1.5h1.9v-5.9h1.6v5.9h3.3v1.5h-3.3v15.5c0,1.8,0.8,2.3,2.1,2.3
		c0.4,0,0.9-0.1,1.2-0.2v1.5c-0.4,0.2-1,0.2-1.4,0.2C516.1,276.5,514.7,275.5,514.7,272.9z"/>
	<path class="st0" d="M522.9,248.3h1.6v10.3c0.7-1.7,1.9-3.4,4.2-3.4c2.8,0,4.7,2.3,4.7,6.6v14.5h-1.6V262c0-3.4-1.2-5.3-3.3-5.3
		c-2.2,0-3.9,2.3-3.9,5.6v14.1h-1.6V248.3z"/>
	<path class="st0" d="M536.5,266.3V266c0-7.2,2.6-10.7,5.6-10.7c3,0,5.3,3.7,5.3,10.2v1.2h-9.3c0.1,5.6,2.3,8.4,5.1,8.4
		c1.2,0,2.2-0.3,3.5-1.2l0.2,1.7c-1.4,0.8-2.4,1.1-4,1.1C539.6,276.6,536.5,273.2,536.5,266.3z M545.8,265.2c0-4.8-1.6-8.4-3.7-8.4
		c-2.1,0-3.8,2.9-4,8.4H545.8z"/>
	<path class="st0" d="M551.3,272.9v-15.8h-1.9v-1.5h1.9v-5.9h1.6v5.9h3.3v1.5h-3.3v15.5c0,1.8,0.8,2.3,2.1,2.3
		c0.4,0,0.9-0.1,1.2-0.2v1.5c-0.4,0.2-1,0.2-1.4,0.2C552.7,276.5,551.3,275.5,551.3,272.9z"/>
	<path class="st0" d="M559.6,248.3h1.8v2.8h-1.8V248.3z M559.7,255.6h1.6v20.8h-1.6V255.6z"/>
	<path class="st0" d="M564.6,275.6v-1.7c1.4,0.8,2.8,1.2,4.2,1.2c1.7,0,3.1-1.1,3.1-3.1v-0.1c0-1.5-0.8-2.9-3.2-5.3
		c-3-2.9-4-4.6-4-6.7v-0.1c0-2.9,2.2-4.6,4.6-4.6c1.4,0,2.3,0.2,3.4,0.7v1.7c-1.2-0.6-2.3-0.9-3.5-0.9c-1.7,0-2.9,1.1-2.9,2.9v0.1
		c0,1.5,0.8,2.7,3.2,5.1c2.9,2.9,4,4.6,4,6.8v0.1c0,2.9-2.3,4.7-4.8,4.7C567,276.6,565.9,276.2,564.6,275.6z"/>
	<path class="st0" d="M575.7,266.2v-0.4c0-7.2,3.1-10.5,6.2-10.5c1,0,1.9,0.3,2.5,0.7v1.8c-0.7-0.6-1.5-1-2.5-1
		c-2.1,0-4.6,2.7-4.6,8.9v0.6c0,6.3,2.4,8.8,4.7,8.8c0.9,0,1.6-0.4,2.3-1v1.7c-0.7,0.5-1.4,0.8-2.5,0.8
		C578.7,276.6,575.7,273.5,575.7,266.2z"/>
	<path class="st0" d="M587.4,248.3h1.6v10.3c0.7-1.7,1.9-3.4,4.2-3.4c2.8,0,4.7,2.3,4.7,6.6v14.5h-1.6V262c0-3.4-1.2-5.3-3.3-5.3
		c-2.2,0-3.9,2.3-3.9,5.6v14.1h-1.6V248.3z"/>
	<path class="st0" d="M601.1,266.3V266c0-7.2,2.6-10.7,5.6-10.7c3,0,5.3,3.7,5.3,10.2v1.2h-9.3c0.1,5.6,2.3,8.4,5.1,8.4
		c1.2,0,2.2-0.3,3.5-1.2l0.2,1.7c-1.4,0.8-2.4,1.1-4,1.1C604.2,276.6,601.1,273.2,601.1,266.3z M610.4,265.2c0-4.8-1.6-8.4-3.7-8.4
		c-2.1,0-3.8,2.9-4,8.4H610.4z"/>
	<path class="st0" d="M622,248.6h3.5c2.3,0,4.1,0.8,5.4,2.1c1.1,1.1,1.8,2.9,1.8,4.8v0.1c0,4.1-2.3,5.9-5,6.7c3.2,0.8,5.3,3,5.3,6.8
		v0.1c0,4.5-3.3,7.2-8.4,7.2H622V248.6z M631,255.6c0-3.4-2.3-5.4-5.6-5.4h-1.7v11.4h1.2C628.9,261.6,631,259.4,631,255.6L631,255.6
		z M625,263.2h-1.4v11.6h1.1c4.1,0,6.6-1.9,6.6-5.6v-0.1C631.4,265.3,629.1,263.2,625,263.2z"/>
	<path class="st0" d="M636.5,248.3h1.8v2.8h-1.8V248.3z M636.6,255.6h1.6v20.8h-1.6V255.6z"/>
	<path class="st0" d="M642.8,248.3h1.6v28h-1.6V248.3z"/>
	<path class="st0" d="M648.1,266.3v-0.8c0-6.6,2.5-10.3,5.3-10.3c2.1,0,3.5,1.9,4.3,4.3v-11.2h1.6v28h-1.6v-4
		c-0.8,2.4-2.2,4.3-4.3,4.3C650.6,276.7,648.1,273,648.1,266.3z M657.8,266.5v-1c0-5.6-2.1-8.8-4.2-8.8c-2.1,0-3.9,3.2-3.9,8.9v0.7
		c0,5.7,1.8,8.9,3.9,8.9C655.7,275.2,657.8,272,657.8,266.5z"/>
	<path class="st0" d="M662.6,266.3V266c0-7.2,2.6-10.7,5.6-10.7c3,0,5.3,3.7,5.3,10.2v1.2h-9.3c0.1,5.6,2.3,8.4,5.1,8.4
		c1.2,0,2.2-0.3,3.5-1.2l0.2,1.7c-1.4,0.8-2.4,1.1-4,1.1C665.7,276.6,662.6,273.2,662.6,266.3z M672,265.2c0-4.8-1.6-8.4-3.7-8.4
		c-2.1,0-3.8,2.9-4,8.4H672z"/>
	<path class="st0" d="M677,255.6h1.6v3.1c0.8-1.9,2.4-3.4,4.8-3.3v1.8h-0.1c-2.6,0-4.7,1.7-4.7,5.3v14H677V255.6z"/>
	<path class="st0" d="M131.5,287.9h1.8l4.8,24.7l4.8-24.7h1.7l-5.7,27.9h-1.7L131.5,287.9z"/>
	<path class="st0" d="M147.9,287.6h1.8v2.8h-1.8V287.6z M147.9,294.8h1.6v20.8h-1.6V294.8z"/>
	<path class="st0" d="M153.2,305.6v-0.8c0-6.6,2.5-10.3,5.3-10.3c2.1,0,3.5,1.9,4.3,4.3v-11.2h1.6v28h-1.6v-4
		c-0.8,2.4-2.2,4.3-4.3,4.3C155.7,316,153.2,312.3,153.2,305.6z M162.9,305.7v-1c0-5.6-2.1-8.8-4.2-8.8c-2.1,0-3.9,3.2-3.9,8.9v0.7
		c0,5.7,1.8,8.9,3.9,8.9C160.8,314.5,162.9,311.3,162.9,305.7z"/>
	<path class="st0" d="M167.7,305.6v-0.4c0-7.2,2.6-10.7,5.6-10.7c3,0,5.3,3.7,5.3,10.2v1.2h-9.3c0.1,5.6,2.3,8.4,5.1,8.4
		c1.2,0,2.2-0.3,3.5-1.2l0.2,1.7c-1.4,0.8-2.4,1.1-4,1.1C170.8,315.9,167.7,312.5,167.7,305.6z M177.1,304.5c0-4.8-1.6-8.4-3.7-8.4
		c-2.1,0-3.8,2.9-4,8.4H177.1z"/>
	<path class="st0" d="M181.3,305.4v-0.4c0-6.5,2.8-10.5,5.8-10.5c3.1,0,5.8,4,5.8,10.5v0.4c0,6.5-2.7,10.5-5.8,10.5
		C184,316,181.3,311.9,181.3,305.4z M191.2,305.4v-0.4c0-5.5-1.9-9-4.2-9c-2.3,0-4.2,3.5-4.2,9v0.4c0,5.5,1.9,9,4.2,9
		C189.4,314.4,191.2,310.9,191.2,305.4z"/>
	<path class="st0" d="M195.7,303.1h7.3v1.6h-7.3V303.1z"/>
	<path class="st0" d="M206.7,287.9h1.9l8.5,23.3v-23.3h1.6v27.8H217l-8.7-23.9v23.9h-1.6V287.9z"/>
	<path class="st0" d="M222,309.6v-0.3c0-3.8,1.9-6.7,5.4-6.7c1.4,0,2.5,0.4,3.4,0.8v-2.6c0-2.9-1.3-4.6-3.9-4.6
		c-1.4,0-2.6,0.3-3.8,1v-1.6c1.1-0.6,2.4-0.9,3.9-0.9c1.6,0,3,0.5,4,1.5c0.9,0.9,1.5,2.5,1.5,4.5v15.1h-1.6v-3
		c-0.8,2.1-2.1,3.4-4.1,3.4C223.9,316,222,313.3,222,309.6z M230.8,309.1V305c-1.1-0.5-2.1-0.8-3.3-0.8c-2.5,0-3.8,2.1-3.8,5v0.3
		c0,2.8,1.1,5,3.3,5C229.3,314.5,230.8,311.9,230.8,309.1z"/>
	<path class="st0" d="M235.5,305.5v-0.4c0-7.2,3.1-10.5,6.2-10.5c1,0,1.9,0.3,2.5,0.7v1.8c-0.7-0.6-1.5-1-2.5-1
		c-2.1,0-4.6,2.7-4.6,8.9v0.6c0,6.3,2.4,8.8,4.7,8.8c0.9,0,1.6-0.4,2.3-1v1.7c-0.7,0.5-1.4,0.8-2.5,0.8
		C238.6,315.9,235.5,312.7,235.5,305.5z"/>
	<path class="st0" d="M247.3,287.6h1.6v10.3c0.7-1.7,1.9-3.4,4.2-3.4c2.8,0,4.7,2.3,4.7,6.6v14.5h-1.6v-14.4c0-3.4-1.2-5.3-3.3-5.3
		c-2.2,0-3.9,2.3-3.9,5.6v14.1h-1.6V287.6z"/>
	<path class="st0" d="M261.8,294.8h1.6v3.1c0.8-1.9,2.4-3.4,4.8-3.3v1.8h-0.1c-2.6,0-4.7,1.7-4.7,5.3v14h-1.6V294.8z"/>
	<path class="st0" d="M271,287.6h1.8v2.8H271V287.6z M271.1,294.8h1.6v20.8h-1.6V294.8z"/>
	<path class="st0" d="M276.3,305.5v-0.4c0-7.2,3.1-10.5,6.2-10.5c1,0,1.9,0.3,2.5,0.7v1.8c-0.7-0.6-1.5-1-2.5-1
		c-2.1,0-4.6,2.7-4.6,8.9v0.6c0,6.3,2.4,8.8,4.7,8.8c0.9,0,1.6-0.4,2.3-1v1.7c-0.7,0.5-1.4,0.8-2.5,0.8
		C279.3,315.9,276.3,312.7,276.3,305.5z"/>
	<path class="st0" d="M288,287.6h1.6v10.3c0.7-1.7,1.9-3.4,4.2-3.4c2.8,0,4.7,2.3,4.7,6.6v14.5h-1.6v-14.4c0-3.4-1.2-5.3-3.3-5.3
		c-2.2,0-3.9,2.3-3.9,5.6v14.1H288V287.6z"/>
	<path class="st0" d="M302.9,312.1v-15.8H301v-1.5h1.9V289h1.6v5.9h3.3v1.5h-3.3v15.5c0,1.8,0.8,2.3,2.1,2.3c0.4,0,0.9-0.1,1.2-0.2
		v1.5c-0.4,0.2-1,0.2-1.4,0.2C304.3,315.8,302.9,314.8,302.9,312.1z"/>
	<path class="st0" d="M309.8,305.6v-0.4c0-7.2,2.6-10.7,5.6-10.7c3,0,5.3,3.7,5.3,10.2v1.2h-9.3c0.1,5.6,2.3,8.4,5.1,8.4
		c1.2,0,2.2-0.3,3.5-1.2l0.2,1.7c-1.4,0.8-2.4,1.1-4,1.1C312.9,315.9,309.8,312.5,309.8,305.6z M319.2,304.5c0-4.8-1.6-8.4-3.7-8.4
		c-2.1,0-3.8,2.9-4,8.4H319.2z"/>
	<path class="st0" d="M324.2,294.8h1.6v3.1c0.7-1.7,1.9-3.4,4.2-3.4c2.8,0,4.7,2.3,4.7,6.6v14.5h-1.6v-14.4c0-3.4-1.2-5.3-3.3-5.3
		c-2.2,0-3.9,2.3-3.9,5.6v14.1h-1.6V294.8z"/>
	<path class="st0" d="M339.3,296.4h-2.1v-1.5h2.1v-2.4c0-1.7,0.4-3.1,1.2-3.8c0.7-0.7,1.6-1,2.8-1c0.3,0,0.9,0.1,1.2,0.2v1.6
		c-0.3-0.1-0.9-0.2-1.2-0.2c-1.6,0-2.4,1-2.4,3.3v2.4h3.3v1.5h-3.3v19.3h-1.6V296.4z"/>
	<path class="st0" d="M345.6,305.4v-0.4c0-6.5,2.8-10.5,5.8-10.5c3.1,0,5.8,4,5.8,10.5v0.4c0,6.5-2.7,10.5-5.8,10.5
		C348.3,316,345.6,311.9,345.6,305.4z M355.6,305.4v-0.4c0-5.5-1.9-9-4.2-9s-4.2,3.5-4.2,9v0.4c0,5.5,1.9,9,4.2,9
		S355.6,310.9,355.6,305.4z"/>
	<path class="st0" d="M360.5,294.8h1.6v3.1c0.8-1.9,2.4-3.4,4.8-3.3v1.8h-0.1c-2.6,0-4.7,1.7-4.7,5.3v14h-1.6V294.8z"/>
	<path class="st0" d="M369.6,294.8h1.6v3.1c0.7-1.7,1.9-3.4,4.1-3.4c2.2,0,3.4,1.6,4,3.5c0.7-1.7,2.1-3.5,4.5-3.5
		c2.8,0,4.7,2.3,4.7,6.5v14.6h-1.6v-14.5c0-3.4-1.2-5.2-3.2-5.2c-2.1,0-3.8,2.2-3.8,5.5v14.2h-1.6v-14.5c0-3.4-1.2-5.2-3.2-5.2
		c-2.1,0-3.8,2.2-3.8,5.5v14.2h-1.6V294.8z"/>
	<path class="st0" d="M391.5,309.6v-0.3c0-3.8,1.9-6.7,5.4-6.7c1.4,0,2.5,0.4,3.4,0.8v-2.6c0-2.9-1.3-4.6-3.9-4.6
		c-1.4,0-2.6,0.3-3.8,1v-1.6c1.1-0.6,2.4-0.9,3.9-0.9c1.6,0,3,0.5,4,1.5c0.9,0.9,1.5,2.5,1.5,4.5v15.1h-1.6v-3
		c-0.8,2.1-2.1,3.4-4.1,3.4C393.4,316,391.5,313.3,391.5,309.6z M400.3,309.1V305c-1.1-0.5-2.1-0.8-3.3-0.8c-2.5,0-3.8,2.1-3.8,5
		v0.3c0,2.8,1.1,5,3.3,5C398.8,314.5,400.3,311.9,400.3,309.1z"/>
	<path class="st0" d="M406.3,312.1v-15.8h-1.9v-1.5h1.9V289h1.6v5.9h3.3v1.5H408v15.5c0,1.8,0.8,2.3,2.1,2.3c0.4,0,0.9-0.1,1.2-0.2
		v1.5c-0.4,0.2-1,0.2-1.4,0.2C407.7,315.8,406.3,314.8,406.3,312.1z"/>
	<path class="st0" d="M419.9,320.1c3.2-0.7,3.9-2.7,3.7-4.5h-2.4v-5.5h5.4v4.5c0,4.2-2,6.9-6.3,7.4L419.9,320.1z M427.7,320.1
		c3.2-0.7,3.9-2.7,3.7-4.5H429v-5.5h5.4v4.5c0,4.2-2,6.9-6.3,7.4L427.7,320.1z"/>
	<path class="st0" d="M437.7,287.9h4.4c6.1,0,9.5,4.5,9.5,13.4v1c0,8.9-3.5,13.4-9.5,13.4h-4.4V287.9z M442.5,292.3v18.9h0.2
		c2.3,0,4.2-2,4.2-9v-1c0-6.9-1.9-9-4.2-9H442.5z"/>
	<path class="st0" d="M453.2,309.7v-0.7c0-4.8,1.9-6.7,4.6-6.7c1,0,1.9,0.3,2.8,0.8v-1.3c0-2.2-1-3.3-2.9-3.3c-1.2,0-2.5,0.5-3.5,1
		v-4.4c1.4-0.6,3-0.9,4.2-0.9c2.3,0,3.8,0.6,4.9,1.7c1.2,1.3,1.9,3.2,1.9,5.7v14.1h-4.6v-2.3c-0.8,1.7-1.9,2.6-3.4,2.6
		C454.8,316,453.2,313.6,453.2,309.7z M460.5,310v-3.6c-0.4-0.2-1-0.4-1.4-0.4c-0.9,0-1.6,0.8-1.6,2.8v0.6c0,2.1,0.6,2.7,1.4,2.7
		C459.8,312.1,460.5,311.4,460.5,310z"/>
	<path class="st0" d="M467.5,287.7h4.7v4.7h-4.7V287.7z M467.5,294.4h4.6v21.2h-4.6V294.4z"/>
	<path class="st0" d="M474.8,287.7h4.6v27.9h-4.6V287.7z"/>
	<path class="st0" d="M489.8,294.4h4.5l-5.8,26.4h-4.5l1.3-5.9l-4.3-20.5h4.6l2,12.5L489.8,294.4z"/>
	<path class="st0" d="M496.3,295.2c0-4.2,2-6.9,5.8-7.4l0.4,1.9c-2.9,0.6-3.5,2.7-3.3,4.5h2.4v5.5h-5.4V295.2z M503.7,295.2
		c0-4.2,2-6.9,5.8-7.4l0.4,1.9c-2.9,0.6-3.5,2.7-3.3,4.5h2.4v5.5h-5.4V295.2z"/>
	<path class="st0" d="M518.4,309.6v-0.3c0-3.8,1.9-6.7,5.4-6.7c1.4,0,2.5,0.4,3.4,0.8v-2.6c0-2.9-1.3-4.6-3.9-4.6
		c-1.4,0-2.6,0.3-3.8,1v-1.6c1.1-0.6,2.4-0.9,3.9-0.9c1.6,0,3,0.5,4,1.5c0.9,0.9,1.5,2.5,1.5,4.5v15.1h-1.6v-3
		c-0.8,2.1-2.1,3.4-4.1,3.4C520.3,316,518.4,313.3,518.4,309.6z M527.2,309.1V305c-1.1-0.5-2.1-0.8-3.3-0.8c-2.5,0-3.8,2.1-3.8,5
		v0.3c0,2.8,1.1,5,3.3,5C525.7,314.5,527.2,311.9,527.2,309.1z"/>
	<path class="st0" d="M532.7,309.4v-14.5h1.6v14.4c0,3.4,1.2,5.3,3.3,5.3c2.2,0,3.9-2.3,3.9-5.6v-14.1h1.6v20.8h-1.6v-3.1
		c-0.7,1.7-1.9,3.4-4.2,3.4C534.6,316,532.7,313.6,532.7,309.4z"/>
	<path class="st0" d="M548.1,296.4H546v-1.5h2.1v-2.4c0-1.7,0.4-3.1,1.2-3.8c0.7-0.7,1.6-1,2.8-1c0.3,0,0.9,0.1,1.2,0.2v1.6
		c-0.3-0.1-0.9-0.2-1.2-0.2c-1.6,0-2.4,1-2.4,3.3v2.4h3.3v1.5h-3.3v19.3h-1.6V296.4z"/>
	<path class="st0" d="M563.7,290l-2.8,1.7v-2l3-1.9h1.5v27.8h-1.7V290z"/>
	<path class="st0" d="M569.5,315.2v-1.7c0.8,0.4,1.8,0.8,3.3,0.8c2.7,0,4.9-3,4.9-7.3v-0.2c0-4.6-2.1-6.2-4.3-6.2
		c-1.2,0-1.9,0.2-2.6,0.6l-1.2-0.8l0.5-12.6h8.2v1.7h-6.8l-0.4,9.9c0.7-0.3,1.4-0.5,2.4-0.5c3.1,0,5.8,2.3,5.8,7.8v0.2
		c0,5.3-2.8,9-6.6,9C571.1,316,570.2,315.6,569.5,315.2z"/>
	<path class="st0" d="M588.4,314.5v-2c1.9,1.2,3.4,1.8,4.7,1.8c2.3,0,3.8-1.5,3.8-4v-0.1c0-2.3-0.8-3.8-3.8-7.9
		c-3.6-5-4.5-6.5-4.5-9v-0.1c0-3.3,2.4-5.7,5.3-5.7c1.6,0,2.8,0.4,4.1,1.2v2c-1.5-1-2.8-1.5-4.2-1.5c-2.1,0-3.6,1.6-3.6,3.9v0.1
		c0,2.1,0.8,3.6,3.9,7.5c3.3,4.2,4.5,6.4,4.5,9.4v0.1c0,3.5-2.4,5.8-5.5,5.8C591.6,316,590.1,315.4,588.4,314.5z"/>
	<path class="st0" d="M601.3,305.6v-0.4c0-7.2,2.6-10.7,5.6-10.7c3,0,5.3,3.7,5.3,10.2v1.2H603c0.1,5.6,2.3,8.4,5.1,8.4
		c1.2,0,2.2-0.3,3.5-1.2l0.2,1.7c-1.4,0.8-2.4,1.1-4,1.1C604.4,315.9,601.3,312.5,601.3,305.6z M610.7,304.5c0-4.8-1.6-8.4-3.7-8.4
		c-2.1,0-3.8,2.9-4,8.4H610.7z"/>
	<path class="st0" d="M615.7,287.6h1.6v18.8l5.9-11.5h1.8l-4.6,8.4l5,12.4h-1.8l-4.2-10.7l-2.2,4v6.7h-1.6V287.6z"/>
	<path class="st0" d="M628.1,309.4v-14.5h1.6v14.4c0,3.4,1.2,5.3,3.3,5.3c2.2,0,3.9-2.3,3.9-5.6v-14.1h1.6v20.8h-1.6v-3.1
		c-0.7,1.7-1.9,3.4-4.2,3.4C630,316,628.1,313.6,628.1,309.4z"/>
	<path class="st0" d="M642.7,294.8h1.6v3.1c0.7-1.7,1.9-3.4,4.2-3.4c2.8,0,4.7,2.3,4.7,6.6v14.5h-1.6v-14.4c0-3.4-1.2-5.3-3.3-5.3
		c-2.2,0-3.9,2.3-3.9,5.6v14.1h-1.6V294.8z"/>
	<path class="st0" d="M656.4,305.6v-0.8c0-6.6,2.5-10.3,5.3-10.3c2.1,0,3.5,1.9,4.3,4.3v-11.2h1.6v28H666v-4
		c-0.8,2.4-2.2,4.3-4.3,4.3C659,316,656.4,312.3,656.4,305.6z M666.1,305.7v-1c0-5.6-2.1-8.8-4.2-8.8c-2.1,0-3.9,3.2-3.9,8.9v0.7
		c0,5.7,1.8,8.9,3.9,8.9C664,314.5,666.1,311.3,666.1,305.7z"/>
	<path class="st0" d="M671,305.6v-0.4c0-7.2,2.6-10.7,5.6-10.7c3,0,5.3,3.7,5.3,10.2v1.2h-9.3c0.1,5.6,2.3,8.4,5.1,8.4
		c1.2,0,2.2-0.3,3.5-1.2l0.2,1.7c-1.4,0.8-2.4,1.1-4,1.1C674.1,315.9,671,312.5,671,305.6z M680.3,304.5c0-4.8-1.6-8.4-3.7-8.4
		c-2.1,0-3.8,2.9-4,8.4H680.3z"/>
	<path class="st0" d="M685.3,294.8h1.6v3.1c0.7-1.7,1.9-3.4,4.2-3.4c2.8,0,4.7,2.3,4.7,6.6v14.5h-1.6v-14.4c0-3.4-1.2-5.3-3.3-5.3
		c-2.2,0-3.9,2.3-3.9,5.6v14.1h-1.6V294.8z"/>
	<path class="st0" d="M132.2,337.5h-1.3v-3.8h1.3v-1.5c0-1.7,0.4-3,1.3-3.9c0.9-0.9,2.3-1.3,4-1.3c0.8,0,1.2,0,1.7,0.2v3.9
		c-0.2,0-0.3,0-0.5,0c-1.1,0-1.8,0.6-1.8,1.9v0.8h2.4v3.8h-2.4v17.4h-4.6V337.5z"/>
	<path class="st0" d="M140.5,349.8v-16.1h4.6v15c0,1.5,0.6,2.4,1.5,2.4c0.9,0,1.6-0.9,1.6-2.4v-15h4.6v21.2h-4.6v-2.5
		c-0.8,1.6-1.9,2.9-3.7,2.9C141.9,355.3,140.5,353,140.5,349.8z M141.8,327.9h4.1v4.3h-4.1V327.9z M147.4,327.9h4.1v4.3h-4.1V327.9z
		"/>
	<path class="st0" d="M155.4,333.7h4.6v2.7c0.6-1.8,1.6-3,3.3-2.9v5.6h-0.1c-2.2,0-3.3,1.5-3.3,4.5v11.3h-4.6V333.7z"/>
	<path class="st0" d="M171.5,327.2h4.7v27.8h-4.7V327.2z"/>
	<path class="st0" d="M179,333.7h4.6v2.5c0.8-1.6,1.9-2.9,3.7-2.9c2.6,0,4,2.3,4,5.5v16.1h-4.6v-15c0-1.5-0.6-2.4-1.5-2.4
		s-1.6,0.9-1.6,2.4v15H179V333.7z"/>
	<path class="st0" d="M193.1,354.3v-4.6c1.6,0.8,2.9,1.4,3.9,1.4c1.1,0,1.7-0.6,1.7-1.7c0-0.9-0.3-1.5-2.3-3.5
		c-2.1-2.1-3.5-4-3.5-6.7v-0.1c0-3.5,2.4-5.7,5.9-5.7c1.3,0,2.3,0.2,3.4,0.6v4.6c-1-0.5-2.1-1-3.2-1c-1.1,0-1.8,0.6-1.8,1.5
		c0,0.8,0.4,1.4,2.5,3.5c2.6,2.5,3.4,4.2,3.4,6.7v0.1c0,3.7-2.5,6-5.8,6C196,355.3,194.4,354.9,193.1,354.3z"/>
	<path class="st0" d="M205.1,351.3v-13.8h-1.2v-3.8h1.2v-5.4h4.6v5.4h2.5v3.8h-2.5v12.2c0,1,0.5,1.3,1.3,1.3c0.3,0,0.7-0.1,1.1-0.2
		v3.7c-0.7,0.4-1.8,0.7-2.7,0.7C207.2,355.2,205.1,354.5,205.1,351.3z"/>
	<path class="st0" d="M213.3,349v-0.7c0-4.8,1.9-6.7,4.6-6.7c1,0,1.9,0.3,2.8,0.8v-1.3c0-2.2-1-3.3-2.9-3.3c-1.2,0-2.5,0.5-3.5,1
		v-4.4c1.4-0.6,3-0.9,4.2-0.9c2.3,0,3.8,0.6,4.9,1.7c1.2,1.3,1.9,3.2,1.9,5.7v14.1h-4.6v-2.3c-0.8,1.7-1.9,2.6-3.4,2.6
		C215,355.3,213.3,352.9,213.3,349z M220.7,349.3v-3.6c-0.4-0.2-1-0.4-1.4-0.4c-0.9,0-1.6,0.8-1.6,2.8v0.6c0,2.1,0.6,2.7,1.4,2.7
		C219.9,351.3,220.7,350.7,220.7,349.3z"/>
	<path class="st0" d="M228.2,359.5v-4.3c1.3,0.5,3,0.9,3.9,0.9c2.1,0,3.3-0.9,3.3-3.3v-2.1c-0.7,1.3-1.7,3.1-3.7,3.1
		c-2.5,0-4.4-2.5-4.4-10.1v-0.2c0-7.6,1.9-10.1,4.4-10.1c2,0,3,1.7,3.7,3v-2.6h4.6V353c0,2.4-0.6,4-1.8,5.3
		c-1.2,1.3-3.2,1.8-5.5,1.8C230.8,360.1,229.7,359.9,228.2,359.5z M235.5,343.5L235.5,343.5c0-3.8-0.7-5.7-1.8-5.7s-1.7,1.9-1.7,5.7
		v0.1c0,3.8,0.6,5.7,1.7,5.7S235.5,347.3,235.5,343.5z"/>
	<path class="st0" d="M242.6,333.7h4.6v2.7c0.6-1.8,1.6-3,3.3-2.9v5.6h-0.1c-2.2,0-3.3,1.5-3.3,4.5v11.3h-4.6V333.7z"/>
	<path class="st0" d="M251.2,349v-0.7c0-4.8,1.9-6.7,4.6-6.7c1,0,1.9,0.3,2.8,0.8v-1.3c0-2.2-1-3.3-2.9-3.3c-1.2,0-2.5,0.5-3.5,1
		v-4.4c1.4-0.6,3-0.9,4.2-0.9c2.3,0,3.8,0.6,4.9,1.7c1.2,1.3,1.9,3.2,1.9,5.7v14.1h-4.6v-2.3c-0.8,1.7-1.9,2.6-3.4,2.6
		C252.9,355.3,251.2,352.9,251.2,349z M258.6,349.3v-3.6c-0.4-0.2-1-0.4-1.4-0.4c-0.9,0-1.6,0.8-1.6,2.8v0.6c0,2.1,0.6,2.7,1.4,2.7
		C257.8,351.3,258.6,350.7,258.6,349.3z"/>
	<path class="st0" d="M265.6,333.7h4.6v2.5c0.9-1.8,2-2.9,3.7-2.9c1.8,0,2.8,1.1,3.5,2.5c0.8-1.2,1.9-2.5,3.7-2.5
		c2.2,0,4.3,1.9,4.3,5.6v16h-4.6v-15c0-1.5-0.5-2.5-1.5-2.5c-0.9,0-1.6,0.9-1.6,2.5v15h-4.6v-15c0-1.5-0.5-2.5-1.5-2.5
		s-1.6,0.9-1.6,2.5v15h-4.6V333.7z"/>
	<path class="st0" d="M293.4,349v-0.7c0-4.8,1.9-6.7,4.6-6.7c1,0,1.9,0.3,2.8,0.8v-1.3c0-2.2-1-3.3-2.9-3.3c-1.2,0-2.5,0.5-3.5,1
		v-4.4c1.4-0.6,3-0.9,4.2-0.9c2.3,0,3.8,0.6,4.9,1.7c1.2,1.3,1.9,3.2,1.9,5.7v14.1h-4.6v-2.3c-0.8,1.7-1.9,2.6-3.4,2.6
		C295.1,355.3,293.4,352.9,293.4,349z M300.8,349.3v-3.6c-0.4-0.2-1-0.4-1.4-0.4c-0.9,0-1.6,0.8-1.6,2.8v0.6c0,2.1,0.6,2.7,1.4,2.7
		C300,351.3,300.8,350.7,300.8,349.3z"/>
	<path class="st0" d="M307.7,349.8v-16.1h4.6v15c0,1.5,0.6,2.4,1.5,2.4s1.6-0.9,1.6-2.4v-15h4.6v21.2h-4.6v-2.5
		c-0.8,1.6-1.9,2.9-3.7,2.9C309,355.3,307.7,353,307.7,349.8z"/>
	<path class="st0" d="M323,337.5h-1.3v-3.8h1.3v-1.5c0-1.7,0.4-3,1.3-3.9c0.9-0.9,2.3-1.3,4-1.3c0.8,0,1.2,0,1.7,0.2v3.9
		c-0.2,0-0.3,0-0.5,0c-1.1,0-1.8,0.6-1.8,1.9v0.8h2.4v3.8h-2.4v17.4H323V337.5z"/>
	<path class="st0" d="M336.1,352.3v2.6h-4.6V327h4.6v9.4c0.7-1.3,1.6-3.1,3.7-3.1c2.5,0,4.4,2.4,4.4,10.1v1.9
		c0,7.6-1.9,10.1-4.4,10.1C337.7,355.3,336.8,353.6,336.1,352.3z M339.6,345v-1.4c0-3.8-0.5-5.8-1.7-5.8s-1.8,2-1.8,5.8v1.4
		c0,3.8,0.7,5.8,1.8,5.8S339.6,348.8,339.6,345z"/>
	<path class="st0" d="M345.9,344.8v-1c0-6.8,2.9-10.5,6.3-10.5c3.6,0,5.9,3.7,5.9,10.7v2.5h-7.7c0.3,3.3,1.6,4.5,3.2,4.5
		c1.4,0,2.3-0.6,3.7-1.5l0.4,4.3c-1.6,1.1-2.8,1.6-4.6,1.6C349.2,355.3,345.9,351.7,345.9,344.8z M353.8,342.8
		c0-3.6-0.5-5.3-1.6-5.3c-1.1,0-1.7,1.5-1.8,5.3H353.8z"/>
	<path class="st0" d="M360,333.7h4.6v2.7c0.6-1.8,1.6-3,3.3-2.9v5.6h-0.1c-2.2,0-3.3,1.5-3.3,4.5v11.3H360V333.7z"/>
	<path class="st0" d="M368.7,344.8v-1c0-6.8,2.9-10.5,6.3-10.5c3.6,0,5.9,3.7,5.9,10.7v2.5h-7.7c0.3,3.3,1.6,4.5,3.2,4.5
		c1.4,0,2.3-0.6,3.7-1.5l0.4,4.3c-1.6,1.1-2.8,1.6-4.6,1.6C371.9,355.3,368.7,351.7,368.7,344.8z M376.6,342.8
		c0-3.6-0.5-5.3-1.6-5.3c-1.1,0-1.7,1.5-1.8,5.3H376.6z"/>
	<path class="st0" d="M382.8,327h4.7v4.7h-4.7V327z M382.8,333.7h4.6v21.2h-4.6V333.7z"/>
	<path class="st0" d="M390.6,351.3v-13.8h-1.2v-3.8h1.2v-5.4h4.6v5.4h2.5v3.8h-2.5v12.2c0,1,0.5,1.3,1.3,1.3c0.3,0,0.7-0.1,1.1-0.2
		v3.7c-0.7,0.4-1.8,0.7-2.7,0.7C392.7,355.2,390.6,354.5,390.6,351.3z"/>
	<path class="st0" d="M398.6,344.8v-1c0-6.8,2.9-10.5,6.3-10.5c3.6,0,5.9,3.7,5.9,10.7v2.5h-7.7c0.3,3.3,1.6,4.5,3.2,4.5
		c1.4,0,2.3-0.6,3.7-1.5l0.4,4.3c-1.6,1.1-2.8,1.6-4.6,1.6C401.9,355.3,398.6,351.7,398.6,344.8z M406.5,342.8
		c0-3.6-0.5-5.3-1.6-5.3c-1.1,0-1.7,1.5-1.8,5.3H406.5z"/>
	<path class="st0" d="M413.1,351.3v-13.8h-1.2v-3.8h1.2v-5.4h4.6v5.4h2.5v3.8h-2.5v12.2c0,1,0.5,1.3,1.3,1.3c0.3,0,0.7-0.1,1.1-0.2
		v3.7c-0.7,0.4-1.8,0.7-2.7,0.7C415.2,355.2,413.1,354.5,413.1,351.3z"/>
</g>
<rect x="227.7" y="164.7" class="st0" width="240.4" height="17.7"/>
<rect x="507.7" y="164.7" class="st0" width="106.7" height="17.7"/>
<g>
	<path class="st0" d="M436.8,103.2v-2.6c0.6,0.3,1.1,0.4,1.9,0.4c1.1,0,1.9-0.8,1.9-2.2v-0.2c0-1.6-1.1-2.3-2.7-2.4v-1.8l2.5-4H437
		v-2.7h6.2v2.4l-2.6,4.1c1.6,0.5,2.7,1.7,2.7,4.1v0.2c0,3.1-1.8,5-4.2,5C438.1,103.6,437.4,103.4,436.8,103.2z"/>
	<path class="st0" d="M444.2,96v-0.9c0-5.4,1.3-7.6,3.8-7.6c2.4,0,3.8,2.2,3.8,7.6V96c0,5.4-1.4,7.6-3.8,7.6
		C445.5,103.6,444.2,101.4,444.2,96z M449.2,95.9v-0.8c0-4.4-0.5-5.1-1.1-5.1c-0.6,0-1.2,0.7-1.2,5.1v0.8c0,4.4,0.5,5.1,1.2,5.1
		C448.6,101.1,449.2,100.4,449.2,95.9z"/>
	<path class="st0" d="M452.9,96v-0.9c0-5.4,1.3-7.6,3.8-7.6c2.4,0,3.8,2.2,3.8,7.6V96c0,5.4-1.4,7.6-3.8,7.6
		C454.2,103.6,452.9,101.4,452.9,96z M457.8,95.9v-0.8c0-4.4-0.5-5.1-1.1-5.1c-0.6,0-1.2,0.7-1.2,5.1v0.8c0,4.4,0.5,5.1,1.2,5.1
		C457.3,101.1,457.8,100.4,457.8,95.9z"/>
	<path class="st0" d="M465.3,87.7h2.7l1.8,6l1.8-6h2.7v15.7h-2.6v-9.5l-2,6h0l-2-6v9.5h-2.6V87.7z"/>
	<path class="st0" d="M476,87.7h2.7v15.7H476V87.7z"/>
	<path class="st0" d="M480,95.9v-0.8c0-5.2,1.6-7.7,4.1-7.7c2.4,0,4.1,2.5,4.1,7.7v0.8c0,5.2-1.6,7.7-4.1,7.7
		C481.7,103.6,480,101.1,480,95.9z M485.5,95.9v-0.8c0-4-0.5-5.1-1.4-5.1s-1.4,1.1-1.4,5.1v0.8c0,4,0.5,5.1,1.4,5.1
		S485.5,100,485.5,95.9z"/>
	<path class="st0" d="M489.5,100.3h3v3.1h-3V100.3z"/>
	<path class="st0" d="M497.7,87.7h2.5l2.8,8.1v-8.1h2.6v15.7h-2.3l-2.9-8.5v8.5h-2.6V87.7z"/>
	<path class="st0" d="M507,98.8V87.7h2.7v11.4c0,1.4,0.5,1.9,1.1,1.9c0.7,0,1.1-0.5,1.1-1.9V87.7h2.7v11.1c0,3.3-1.6,4.8-3.8,4.8
		C508.7,103.6,507,102.1,507,98.8z"/>
	<path class="st0" d="M517.6,90.3h-1.9v-2.6h6.5v2.6h-1.9v13.1h-2.7V90.3z"/>
	<path class="st0" d="M523,101.2l3.5-10.9h-3.4v-2.6h6.3v2.2l-3.5,10.9h3.5v2.6H523V101.2z"/>
	<path class="st0" d="M530.8,87.7h5.9v2.6h-3.2v3.9h2.8v2.6h-2.8v4h3.3v2.6h-6V87.7z"/>
	<path class="st0" d="M538,87.7h2.8c1.4,0,2.6,0.4,3.5,1.3c0.8,0.8,1.3,2,1.3,3.7v0.2c0,2-0.8,3.3-1.8,4.1l2.1,6.4H543l-1.7-5.5
		h-0.5v5.5H538V87.7z M540.8,95.5c1.2,0,2-0.7,2-2.5v-0.2c0-2-0.9-2.5-2.1-2.5h-0.1v5.2H540.8z"/>
	<path class="st0" d="M550.3,87.7h1l2.1,13.7l2.5-13.7h0.9l2.5,13.7l2.1-13.7h1l-2.7,15.8h-0.9l-2.5-13.7l-2.5,13.7h-0.9L550.3,87.7
		z"/>
	<path class="st0" d="M564.3,87.7h5.2v0.9h-4.3V95h3.9v0.9h-3.9v6.6h4.3v0.9h-5.3V87.7z"/>
	<path class="st0" d="M571.4,87.7h1v14.8h3.9v0.9h-4.8V87.7z"/>
	<path class="st0" d="M578.4,88.6h-2.5v-0.9h6v0.9h-2.5v14.8h-1V88.6z"/>
	<path class="st0" d="M582.6,87.7h1l2.1,13.7l2.5-13.7h0.9l2.5,13.7l2.1-13.7h1l-2.7,15.8h-0.9l-2.5-13.7l-2.5,13.7h-0.9L582.6,87.7
		z"/>
	<path class="st0" d="M596.6,87.7h5.2v0.9h-4.3V95h3.9v0.9h-3.9v6.6h4.3v0.9h-5.3V87.7z"/>
	<path class="st0" d="M603.8,87.7h1v15.7h-1V87.7z"/>
	<path class="st0" d="M609,88.6h-2.5v-0.9h6v0.9h-2.5v14.8h-1V88.6z"/>
</g>
<g>
	<path class="st0" d="M136.3,476.2h4.6L143,490l2.1-13.8h4.5l-4.3,21.3h-4.7L136.3,476.2z"/>
	<path class="st0" d="M150.1,487.5v-1.3c0-6.8,2.7-10.3,6.5-10.3s6.5,3.5,6.5,10.3v1.3c0,6.8-2.7,10.3-6.5,10.3
		S150.1,494.3,150.1,487.5z M158.4,487.6v-1.4c0-4.2-0.7-6.1-1.9-6.1s-1.9,1.9-1.9,6.1v1.4c0,4.1,0.7,6.1,1.9,6.1
		S158.4,491.7,158.4,487.6z"/>
	<path class="st0" d="M165.2,476.2h4.6v2.5c0.8-1.6,1.9-2.9,3.7-2.9c2.6,0,4,2.3,4,5.5v16.1h-4.6v-15c0-1.5-0.6-2.4-1.5-2.4
		s-1.6,0.9-1.6,2.4v15h-4.6V476.2z"/>
	<path class="st0" d="M192.4,448.1l-6.4,2v-13.3l10.3-3.3h9.5v63.9h-13.4V448.1z"/>
	<path class="st0" d="M210.9,496.7v-13.2c2.3,1.2,5,1.9,8,1.9c4.5,0,7.6-3.4,7.6-9V476c0-5.5-2.5-7.5-5.8-7.5c-1.6,0-2.7,0.2-4,0.7
		l-6.2-3.6l1.6-31.7h25.2v12.9h-15.2l-0.6,10.1c0.7-0.1,1.7-0.2,2.9-0.2c8.2,0,15.4,5,15.4,19v0.7c0,14.4-7.9,22.1-19.3,22.1
		C216.8,498.4,213.2,497.7,210.9,496.7z"/>
	<path class="st0" d="M243.3,482.7h14.3v14.7h-14.3V482.7z"/>
	<path class="st0" d="M260.7,467.7v-3.9c0-21.2,6.3-31.1,17.6-31.1c11.1,0,17.4,9.8,17.4,31v3.9c0,21.2-6.4,31.1-17.5,31.1
		C266.9,498.6,260.7,488.8,260.7,467.7z M282.4,468.4v-5.5c0-15-1.7-17.7-4.2-17.7s-4.2,2.7-4.2,17.7v5.5c0,14.9,1.7,17.6,4.2,17.6
		S282.4,483.3,282.4,468.4z"/>
	<path class="st0" d="M298.9,467.7v-3.9c0-21.2,6.3-31.1,17.6-31.1c11.1,0,17.4,9.8,17.4,31v3.9c0,21.2-6.4,31.1-17.5,31.1
		C305.1,498.6,298.9,488.8,298.9,467.7z M320.5,468.4v-5.5c0-15-1.7-17.7-4.2-17.7s-4.2,2.7-4.2,17.7v5.5c0,14.9,1.7,17.6,4.2,17.6
		S320.5,483.3,320.5,468.4z"/>
	<path class="st0" d="M337,467.7v-3.9c0-21.2,6.3-31.1,17.6-31.1c11.1,0,17.4,9.8,17.4,31v3.9c0,21.2-6.4,31.1-17.5,31.1
		C343.3,498.6,337,488.8,337,467.7z M358.7,468.4v-5.5c0-15-1.7-17.7-4.2-17.7s-4.2,2.7-4.2,17.7v5.5c0,14.9,1.7,17.6,4.2,17.6
		S358.7,483.3,358.7,468.4z"/>
</g>
<g>
	<path class="st0" d="M376.9,491.5v-0.7c0-4.8,1.9-6.7,4.6-6.7c1,0,1.9,0.3,2.8,0.8v-1.3c0-2.2-1-3.3-2.9-3.3c-1.2,0-2.5,0.5-3.5,1
		v-4.4c1.4-0.6,3-0.9,4.2-0.9c2.3,0,3.8,0.6,4.9,1.7c1.2,1.3,1.9,3.2,1.9,5.7v14.1h-4.6v-2.3c-0.8,1.7-1.9,2.6-3.4,2.6
		C378.5,497.8,376.9,495.4,376.9,491.5z M384.3,491.9v-3.6c-0.4-0.2-1-0.4-1.4-0.4c-0.9,0-1.6,0.8-1.6,2.8v0.6
		c0,2.1,0.6,2.7,1.4,2.7C383.5,493.9,384.3,493.2,384.3,491.9z"/>
	<path class="st0" d="M391.1,492.3v-16.1h4.6v15c0,1.5,0.6,2.4,1.5,2.4s1.6-0.9,1.6-2.4v-15h4.6v21.2h-4.6v-2.5
		c-0.8,1.6-1.9,2.9-3.7,2.9C392.5,497.8,391.1,495.5,391.1,492.3z"/>
	<path class="st0" d="M406.5,480h-1.3v-3.8h1.3v-1.5c0-1.7,0.4-3,1.3-3.9c0.9-0.9,2.3-1.3,4-1.3c0.8,0,1.2,0,1.7,0.2v3.9
		c-0.2,0-0.3,0-0.5,0c-1.1,0-1.8,0.6-1.8,1.9v0.8h2.4v3.8h-2.4v17.4h-4.6V480z"/>
	<path class="st0" d="M438.6,486.6h-17.7v-9.8l17-43.1h13.3v41.3h5.1v11.5h-5.1v10.8h-12.6V486.6z M438.8,475.1v-20.3l-7.1,20.3
		H438.8z"/>
	<path class="st0" d="M458.9,496.7v-13.2c2.3,1.2,5,1.9,8,1.9c4.5,0,7.6-3.4,7.6-9V476c0-5.5-2.5-7.5-5.8-7.5c-1.6,0-2.7,0.2-4,0.7
		l-6.2-3.6l1.6-31.7h25.2v12.9h-15.2l-0.6,10.1c0.7-0.1,1.7-0.2,2.9-0.2c8.2,0,15.4,5,15.4,19v0.7c0,14.4-7.9,22.1-19.3,22.1
		C464.7,498.4,461.2,497.7,458.9,496.7z"/>
	<path class="st0" d="M491.3,482.7h14.3v14.7h-14.3V482.7z"/>
	<path class="st0" d="M508.7,467.7v-3.9c0-21.2,6.3-31.1,17.6-31.1c11.1,0,17.4,9.8,17.4,31v3.9c0,21.2-6.4,31.1-17.5,31.1
		C514.9,498.6,508.7,488.8,508.7,467.7z M530.3,468.4v-5.5c0-15-1.7-17.7-4.2-17.7s-4.2,2.7-4.2,17.7v5.5c0,14.9,1.7,17.6,4.2,17.6
		S530.3,483.3,530.3,468.4z"/>
	<path class="st0" d="M546.8,467.7v-3.9c0-21.2,6.3-31.1,17.6-31.1c11.1,0,17.4,9.8,17.4,31v3.9c0,21.2-6.4,31.1-17.5,31.1
		C553.1,498.6,546.8,488.8,546.8,467.7z M568.5,468.4v-5.5c0-15-1.7-17.7-4.2-17.7s-4.2,2.7-4.2,17.7v5.5c0,14.9,1.7,17.6,4.2,17.6
		S568.5,483.3,568.5,468.4z"/>
	<path class="st0" d="M585,467.7v-3.9c0-21.2,6.3-31.1,17.6-31.1c11.1,0,17.4,9.8,17.4,31v3.9c0,21.2-6.4,31.1-17.5,31.1
		C591.2,498.6,585,488.8,585,467.7z M606.7,468.4v-5.5c0-15-1.7-17.7-4.2-17.7s-4.2,2.7-4.2,17.7v5.5c0,14.9,1.7,17.6,4.2,17.6
		S606.7,483.3,606.7,468.4z"/>
</g>
<g>
	<path class="st0" d="M130.3,417.4v-5.6c1.9,1.1,3.1,1.7,4.7,1.7c1.7,0,2.9-1,2.9-3.1c0-1-0.3-2.5-2.9-5.4c-3.8-4.2-5.2-6.4-5.2-10
		c0-5,3.2-8.1,7.6-8.1c2,0,3.4,0.4,4.6,1v5.6c-1.7-1-2.7-1.4-4.1-1.4c-1.5,0-2.8,1-2.8,2.8c0,1.3,0.4,2.2,3,5.2
		c4.2,5,5.1,7.1,5.1,10.4c0,4.9-3.4,8.2-7.6,8.2C133.6,418.7,131.8,418.1,130.3,417.4z"/>
	<path class="st0" d="M145.7,414.4v-15.6h-1.4v-4.3h1.4v-6.1h5.2v6.1h2.8v4.3h-2.8v13.8c0,1.1,0.5,1.5,1.4,1.5
		c0.4,0,0.8-0.1,1.3-0.3v4.2c-0.8,0.4-2,0.8-3.1,0.8C148.1,418.8,145.7,418,145.7,414.4z"/>
	<path class="st0" d="M154.8,407.1v-1.2c0-7.7,3.2-11.8,7.1-11.8c4.1,0,6.7,4.2,6.7,12v2.8H160c0.3,3.8,1.8,5,3.6,5
		c1.6,0,2.6-0.7,4.1-1.7l0.4,4.8c-1.8,1.2-3.2,1.8-5.2,1.8C158.5,418.9,154.8,414.8,154.8,407.1z M163.7,404.8c0-4-0.6-5.9-1.8-5.9
		c-1.2,0-1.9,1.7-2,5.9H163.7z"/>
	<path class="st0" d="M170.7,387h5.3v5.3h-5.3V387z M170.7,394.5h5.2v24h-5.2V394.5z"/>
	<path class="st0" d="M179.5,423.6v-4.9c1.4,0.5,3.3,1,4.4,1c2.3,0,3.8-1,3.8-3.8v-2.4c-0.7,1.5-1.9,3.4-4.2,3.4
		c-2.8,0-5-2.9-5-11.4v-0.3c0-8.5,2.1-11.4,5-11.4c2.3,0,3.4,1.9,4.2,3.4v-2.9h5.2v21.9c0,2.7-0.7,4.6-2,5.9
		c-1.4,1.4-3.6,2.1-6.2,2.1C182.4,424.4,181.1,424.1,179.5,423.6z M187.7,405.6L187.7,405.6c0-4.3-0.8-6.5-2.1-6.5s-1.9,2.1-1.9,6.4
		v0.1c0,4.3,0.7,6.4,1.9,6.4S187.7,409.9,187.7,405.6z"/>
	<path class="st0" d="M195.1,407.1v-1.2c0-7.7,3.2-11.8,7.1-11.8c4.1,0,6.7,4.2,6.7,12v2.8h-8.6c0.3,3.8,1.8,5,3.6,5
		c1.6,0,2.6-0.7,4.1-1.7l0.4,4.8c-1.8,1.2-3.2,1.8-5.2,1.8C198.8,418.9,195.1,414.8,195.1,407.1z M204.1,404.8c0-4-0.6-5.9-1.8-5.9
		c-1.2,0-1.9,1.7-2,5.9H204.1z"/>
	<path class="st0" d="M211,394.5h5.2v3c0.7-2.1,1.8-3.4,3.8-3.3v6.3h-0.1c-2.5,0-3.7,1.7-3.7,5.1v12.8H211V394.5z"/>
	<path class="st0" d="M221.9,412.7v-18.1h5.2v16.9c0,1.7,0.7,2.7,1.7,2.7c1.1,0,1.8-1,1.8-2.7v-16.9h5.2v24h-5.2v-2.9
		c-0.9,1.8-2.1,3.3-4.2,3.3C223.4,418.9,221.9,416.3,221.9,412.7z"/>
	<path class="st0" d="M238.6,394.5h5.2v2.9c0.9-1.8,2.1-3.3,4.2-3.3c3,0,4.5,2.6,4.5,6.3v18.1h-5.2v-16.9c0-1.7-0.7-2.7-1.7-2.7
		s-1.8,1-1.8,2.7v16.9h-5.2V394.5z"/>
	<path class="st0" d="M255.9,423.6v-4.9c1.4,0.5,3.3,1,4.4,1c2.3,0,3.8-1,3.8-3.8v-2.4c-0.7,1.5-1.9,3.4-4.2,3.4
		c-2.8,0-5-2.9-5-11.4v-0.3c0-8.5,2.1-11.4,5-11.4c2.3,0,3.4,1.9,4.2,3.4v-2.9h5.2v21.9c0,2.7-0.7,4.6-2,5.9
		c-1.4,1.4-3.6,2.1-6.2,2.1C258.8,424.4,257.5,424.1,255.9,423.6z M264.1,405.6L264.1,405.6c0-4.3-0.8-6.5-2.1-6.5
		c-1.2,0-1.9,2.1-1.9,6.4v0.1c0,4.3,0.7,6.4,1.9,6.4C263.2,412,264.1,409.9,264.1,405.6z"/>
	<path class="st0" d="M278.7,407.6v-2.1c0-8.5,2.2-11.4,5-11.4c2.3,0,3.3,1.9,4.1,3.4V387h5.2v31.5h-5.2v-3
		c-0.7,1.4-1.8,3.4-4.1,3.4C280.9,418.9,278.7,416.2,278.7,407.6z M287.9,407.3v-1.6c0-4.2-0.7-6.6-2.1-6.6c-1.3,0-1.9,2.3-1.9,6.6
		v1.6c0,4.3,0.6,6.6,1.9,6.6C287.1,413.9,287.9,411.6,287.9,407.3z"/>
	<path class="st0" d="M295.3,407.1v-1.2c0-7.7,3.2-11.8,7.1-11.8c4.1,0,6.7,4.2,6.7,12v2.8h-8.6c0.3,3.8,1.8,5,3.6,5
		c1.6,0,2.6-0.7,4.1-1.7l0.4,4.8c-1.8,1.2-3.2,1.8-5.2,1.8C299,418.9,295.3,414.8,295.3,407.1z M304.3,404.8c0-4-0.6-5.9-1.8-5.9
		c-1.2,0-1.9,1.7-2,5.9H304.3z"/>
	<path class="st0" d="M311.3,394.5h5.2v3c0.7-2.1,1.8-3.4,3.8-3.3v6.3h-0.1c-2.5,0-3.7,1.7-3.7,5.1v12.8h-5.2V394.5z"/>
	<path class="st0" d="M329.3,387.2h11.2v5.2h-5.8v7.9h5.1v5.2h-5.1v13.1h-5.3V387.2z"/>
	<path class="st0" d="M341.9,407.2v-1.4c0-7.7,3.1-11.7,7.3-11.7s7.3,4,7.3,11.7v1.4c0,7.7-3.1,11.7-7.3,11.7
		S341.9,414.9,341.9,407.2z M351.3,407.3v-1.6c0-4.7-0.8-6.9-2.1-6.9s-2.1,2.1-2.1,6.9v1.6c0,4.6,0.8,6.9,2.1,6.9
		S351.3,412,351.3,407.3z"/>
	<path class="st0" d="M359,387h5.2v31.5H359V387z"/>
	<path class="st0" d="M367.1,387h5.2v31.5h-5.2V387z"/>
	<path class="st0" d="M374.8,407.2v-1.4c0-7.7,3.1-11.7,7.3-11.7s7.3,4,7.3,11.7v1.4c0,7.7-3.1,11.7-7.3,11.7
		S374.8,414.9,374.8,407.2z M384.2,407.3v-1.6c0-4.7-0.8-6.9-2.1-6.9s-2.1,2.1-2.1,6.9v1.6c0,4.6,0.8,6.9,2.1,6.9
		S384.2,412,384.2,407.3z"/>
	<path class="st0" d="M390.4,394.5h5.2l1.8,13.8l2.1-13.8h4l2.1,13.8l1.8-13.8h5.1l-4,24h-4.9l-2.1-13.5l-2.1,13.5h-4.9L390.4,394.5
		z"/>
	<path class="st0" d="M413.2,407.1v-1.2c0-7.7,3.2-11.8,7.1-11.8c4.1,0,6.7,4.2,6.7,12v2.8h-8.6c0.3,3.8,1.8,5,3.6,5
		c1.6,0,2.6-0.7,4.1-1.7l0.4,4.8c-1.8,1.2-3.2,1.8-5.2,1.8C416.9,418.9,413.2,414.8,413.2,407.1z M422.2,404.8c0-4-0.6-5.9-1.8-5.9
		c-1.2,0-1.9,1.7-2,5.9H422.2z"/>
	<path class="st0" d="M429.2,394.5h5.2v3c0.7-2.1,1.8-3.4,3.8-3.3v6.3H438c-2.5,0-3.7,1.7-3.7,5.1v12.8h-5.2V394.5z"/>
	<path class="st0" d="M447.1,387h5.3v5.3h-5.3V387z M447.1,394.5h5.2v24h-5.2V394.5z"/>
	<path class="st0" d="M455.3,394.5h5.2v2.9c0.9-1.8,2.1-3.3,4.2-3.3c3,0,4.5,2.6,4.5,6.3v18.1h-5.2v-16.9c0-1.7-0.7-2.7-1.7-2.7
		s-1.8,1-1.8,2.7v16.9h-5.2V394.5z"/>
	<path class="st0" d="M481.5,417.3c-2-2.1-3-6.2-3-13v-1.2c0-12.9,3.6-16.4,8.6-16.4c1.6,0,2.7,0.3,3.7,0.7v5.1
		c-0.8-0.5-2-0.9-3.1-0.9c-2.4,0-4.1,1.7-4.1,7.9c1.1-0.9,2-1.3,3.5-1.3c2.8,0,5.7,2.2,5.7,9.1v0.9c0,6.4-3,10.6-7.1,10.6
		C484,418.9,482.6,418.4,481.5,417.3z M487.8,408.5v-1c0-3.6-1-4.8-2.3-4.8c-0.9,0-1.4,0.4-1.9,0.8v3.8c0,4.8,0.8,6.7,2.1,6.7
		C487,414,487.8,412.3,487.8,408.5z"/>
	<path class="st0" d="M502.1,387.2h5.4l3.7,11.9l3.7-11.9h5.4v31.3h-5.1v-19l-3.9,11.9h-0.1l-3.9-11.9v19h-5.1V387.2z"/>
	<path class="st0" d="M522.8,407.2v-1.4c0-7.7,3.1-11.7,7.3-11.7s7.3,4,7.3,11.7v1.4c0,7.7-3.1,11.7-7.3,11.7
		S522.8,414.9,522.8,407.2z M532.2,407.3v-1.6c0-4.7-0.8-6.9-2.1-6.9s-2.1,2.1-2.1,6.9v1.6c0,4.6,0.8,6.9,2.1,6.9
		S532.2,412,532.2,407.3z"/>
	<path class="st0" d="M539.9,394.5h5.2v2.9c0.9-1.8,2.1-3.3,4.2-3.3c3,0,4.5,2.6,4.5,6.3v18.1h-5.2v-16.9c0-1.7-0.7-2.7-1.7-2.7
		s-1.8,1-1.8,2.7v16.9h-5.2V394.5z"/>
	<path class="st0" d="M555.7,411.8V411c0-5.4,2.1-7.6,5.2-7.6c1.1,0,2.1,0.3,3.1,0.9v-1.4c0-2.5-1.1-3.8-3.3-3.8
		c-1.4,0-2.8,0.5-3.9,1.1v-5c1.6-0.7,3.4-1,4.7-1c2.5,0,4.3,0.6,5.5,1.9c1.4,1.4,2.1,3.6,2.1,6.4v15.9h-5.2v-2.5c-0.9,2-2.2,3-3.9,3
		C557.5,418.9,555.7,416.2,555.7,411.8z M564,412.2V408c-0.4-0.2-1.2-0.5-1.6-0.5c-1.1,0-1.8,0.9-1.8,3.2v0.6c0,2.4,0.7,3.1,1.6,3.1
		C563.1,414.4,564,413.7,564,412.2z"/>
	<path class="st0" d="M572.2,414.4v-15.6h-1.4v-4.3h1.4v-6.1h5.2v6.1h2.8v4.3h-2.8v13.8c0,1.1,0.5,1.5,1.4,1.5
		c0.4,0,0.8-0.1,1.3-0.3v4.2c-0.8,0.4-2,0.8-3.1,0.8C574.6,418.8,572.2,418,572.2,414.4z"/>
	<path class="st0" d="M581.3,407.1v-1.2c0-7.7,3.2-11.8,7.1-11.8c4.1,0,6.7,4.2,6.7,12v2.8h-8.6c0.3,3.8,1.8,5,3.6,5
		c1.6,0,2.6-0.7,4.1-1.7l0.4,4.8c-1.8,1.2-3.2,1.8-5.2,1.8C585,418.9,581.3,414.8,581.3,407.1z M590.3,404.8c0-4-0.6-5.9-1.8-5.9
		c-1.2,0-1.9,1.7-2,5.9H590.3z"/>
	<path class="st0" d="M597.2,394.5h5.2v2.9c0.9-1.8,2.1-3.3,4.2-3.3c3,0,4.5,2.6,4.5,6.3v18.1h-5.2v-16.9c0-1.7-0.7-2.7-1.7-2.7
		s-1.8,1-1.8,2.7v16.9h-5.2V394.5z"/>
</g>
</svg>
