<?xml version="1.0" encoding="utf-8"?>
<!-- Generator: Adobe Illustrator 19.1.0, SVG Export Plug-In . SVG Version: 6.00 Build 0)  -->
<svg version="1.1" id="Ebene_1" xmlns="http://www.w3.org/2000/svg" xmlns:xlink="http://www.w3.org/1999/xlink" x="0px" y="0px"
	 viewBox="0 0 841.9 595.3" style="enable-background:new 0 0 841.9 595.3;" xml:space="preserve">
<style type="text/css">
	.st0{fill:#FFFFFF;}
	.st1{fill:none;}
</style>
<g>
	<polygon class="st0" points="255.4,209.5 277.2,209.5 277.2,397.1 255.4,397.1 255.4,209.5 	"/>
	<g>
		<path class="st0" d="M205.3,209.5h-43l0,187.5l43,0c5.2,0,9.5-4.5,9.5-10.1l0-77.3v-4.1c0-5.9-4.5-10.6-10-10.6l1,0
			c5,0,9.1-4.3,9.1-9.6v-6.2v-59.6C214.7,214,210.4,209.5,205.3,209.5z M193,373.8H184v-64.8h8.9V373.8z M193,286.1H184v-53.4h8.9
			V286.1z"/>
		<rect x="184" y="232.7" class="st1" width="8.9" height="53.4"/>
		<rect x="184" y="309.1" class="st1" width="8.9" height="64.8"/>
	</g>
	<g>
		<path class="st0" d="M317.2,209.5v32.7H296c-5.2,0-9.4,4.5-9.4,10.1l0,134.7c0,5.6,4.3,10.1,9.5,10.1l43,0.1V209.5H317.2z
			 M317.3,373.8h-8.9V265.1h8.9V373.8z"/>
		<rect x="308.3" y="265.1" class="st1" width="8.9" height="108.8"/>
	</g>
	<polygon class="st0" points="224.1,209.5 245.9,209.5 245.9,232.7 224.1,232.7 224.1,209.5 	"/>
	<polygon class="st0" points="224.1,242.2 245.9,242.2 245.9,397.1 224.1,397.1 224.1,242.2 	"/>
</g>
<g>
	<path class="st0" d="M347.1,272.8v-3.5c0-13.1,3.4-16.8,7.5-16.8c3.2,0,4.8,2.3,6.2,4.8v-15.2h9.1v46.8h-9.1v-4.2
		c-1.4,2.6-3,4.9-6.2,4.9C350.6,289.6,347.1,285.9,347.1,272.8z M360.8,272.9v-3.8c0-5.4-0.7-7.9-2.4-7.9c-1.6,0-2.2,2.5-2.2,7.9
		v3.8c0,5.4,0.7,7.9,2.2,7.9C360.1,280.9,360.8,278.4,360.8,272.9z"/>
	<path class="st0" d="M372.5,272.2V270c0-11.4,4.8-17.6,11.3-17.6s10.6,6.2,10.6,17.9v4.8h-12.9c0.4,4.2,2.3,5.7,4.9,5.7
		c2.3,0,4.5-1.1,6.7-2.6l0.6,8.6c-2.5,1.6-5.3,2.8-8.6,2.8C377.7,289.7,372.5,283.7,372.5,272.2z M385.9,268.6
		c0-5.7-0.7-7.8-2.2-7.8c-1.4,0-2.3,1.7-2.4,7.8H385.9z"/>
	<path class="st0" d="M396.8,253.2h9.1v4.1c1.2-2.5,3.1-4.8,6.3-4.8c4.4,0,6.6,3.6,6.6,9v27.4h-9.1V264c0-1.8-0.7-2.9-1.9-2.9
		c-1.1,0-1.9,1.1-1.9,2.9v24.9h-9.1V253.2z"/>
	<path class="st0" d="M421.8,242.1h9.1v23.2l3.9-12.1h9.4l-5.4,14.6l5.4,21.1h-9.5l-2.7-12.7l-1.1,3v9.8h-9.1V242.1z"/>
	<path class="st0" d="M446.3,282.1v-21.1h-1.9v-7.7h1.9v-8.7h9.1v8.7h3.8v7.7h-3.8v18.1c0,1.3,0.6,1.8,1.7,1.8c0.6,0,1.2-0.2,2-0.5
		v7.7c-1.4,0.8-3.4,1.4-5.3,1.4C449.6,289.5,446.3,287.8,446.3,282.1z"/>
	<path class="st0" d="M470.8,242.1h9.2v8.4h-9.2V242.1z M470.9,253.2h9.1v35.7h-9.1V253.2z"/>
	<path class="st0" d="M483.2,253.2h9.1v4.1c1.2-2.5,3.1-4.8,6.3-4.8c4.4,0,6.6,3.6,6.6,9v27.4h-9.1V264c0-1.8-0.7-2.9-1.9-2.9
		c-1.1,0-1.9,1.1-1.9,2.9v24.9h-9.1V253.2z"/>
</g>
<g>
	<path class="st0" d="M347.9,305.9h12.8c12.8,0,21.7,7.2,21.7,23.4v0.8c0,16.7-10.2,23.3-20.3,23.7h-0.4v20.7h-13.8V305.9z
		 M361.9,340.8c3.9-0.2,6.7-3.1,6.7-10.3v-1.2c0-7.4-2.7-10.4-6.7-10.4h-0.3v21.9H361.9z"/>
	<path class="st0" d="M385.6,305h13.5v69.6h-13.5V305z"/>
	<path class="st0" d="M402.5,359.8v-1.7c0-12,4.9-16.8,11.6-16.8c2.7,0,4.7,0.7,6.8,2v-2.1c0-4.9-2.2-7.4-6.7-7.4
		c-3.1,0-6.7,1.4-9.2,2.6v-13.3c3.6-1.6,7.7-2.5,12.1-2.5c5.5,0,9.7,1.6,12.5,4.5c3.1,3.2,4.6,8.2,4.6,14.7v34.6h-13.4v-5
		c-2,3.8-4.7,6-8.4,6C406.8,375.6,402.5,369.9,402.5,359.8z M421,360.2V352c-0.7-0.4-2-0.9-3-0.9c-1.9,0-3.1,2-3.1,6v2
		c0,4.1,1.3,5.7,3,5.7C419.5,364.8,421,363.3,421,360.2z"/>
	<path class="st0" d="M439.4,364.4V333h-2.8v-11.5h2.8v-12.9h13.5v12.9h5.6V333h-5.6v27c0,1.9,0.8,2.7,2.6,2.7c0.9,0,1.8-0.3,3-0.8
		v11.5c-2.1,1.2-5.1,2.1-7.9,2.1C444.4,375.5,439.4,372.9,439.4,364.4z"/>
	<path class="st0" d="M463.2,364.4V333h-2.8v-11.5h2.8v-12.9h13.5v12.9h5.6V333h-5.6v27c0,1.9,0.8,2.7,2.6,2.7c0.9,0,1.8-0.3,3-0.8
		v11.5c-2.1,1.2-5.1,2.1-7.9,2.1C468.2,375.5,463.2,372.9,463.2,364.4z"/>
	<path class="st0" d="M487.2,333h-2.9v-11.5h2.9v-2.4c0-4.9,1.2-8.4,3.4-10.9c2.3-2.4,5.7-3.5,10-3.5c2.6,0,4.2,0.2,5.7,0.5v11.2
		c-0.5-0.1-1.3-0.2-1.9-0.2c-2.4,0-3.9,1.3-3.9,4v1.4h5.8V333h-5.6v41.6h-13.5V333z"/>
	<path class="st0" d="M507.3,350.2V346c0-16.9,7-25.7,17.1-25.7c10,0,16.9,8.8,16.9,25.7v4.1c0,16.9-6.9,25.7-17,25.7
		C514.3,375.9,507.3,367,507.3,350.2z M527.9,350.3v-4.4c0-9.2-1.2-12.8-3.6-12.8s-3.5,3.6-3.5,12.8v4.4c0,9.2,1.1,12.8,3.5,12.8
		S527.9,359.5,527.9,350.3z"/>
	<path class="st0" d="M545.2,321.5h13.4v7.4c1.6-5.3,3.9-8.3,7.9-8V338h-0.3c-5.2,0-7.6,3.6-7.6,11v25.6h-13.5V321.5z"/>
	<path class="st0" d="M569.8,321.5h13.4v6c2-3.9,4.7-7.1,9.3-7.1s7.2,2.8,8.8,6.6c1.9-3.3,5-6.6,9.6-6.6c6,0,10.3,5,10.3,13.4v40.7
		h-13.4v-36.9c0-2.7-1-4.4-2.8-4.4c-1.7,0-2.9,1.7-2.9,4.4v36.9h-13.4v-36.9c0-2.7-1-4.4-2.7-4.4c-1.8,0-2.9,1.7-2.9,4.4v36.9h-13.4
		V321.5z"/>
	<path class="st0" d="M624.9,349.7v-3.1c0-17,7.2-26.2,16.8-26.2c9.6,0,15.7,9.2,15.7,26.7v7.2h-19.2c0.6,6.3,3.4,8.5,7.3,8.5
		c3.4,0,6.7-1.6,9.9-3.8l0.8,12.7c-3.7,2.5-7.9,4.1-12.8,4.1C632.7,375.8,624.9,366.8,624.9,349.7z M645,344.4
		c0-8.4-1.1-11.6-3.3-11.6c-2,0-3.4,2.5-3.6,11.6H645z"/>
	<path class="st0" d="M661,321.5h13.5v6.1c1.8-3.7,4.6-7.2,9.3-7.2c6.6,0,9.8,5.4,9.8,13.3v40.8h-13.5v-37c0-2.7-1-4.3-2.8-4.3
		c-1.7,0-2.9,1.6-2.9,4.3v37H661V321.5z"/>
</g>
<rect x="348" y="383.4" class="st0" width="346.8" height="14.3"/>
</svg>
