<?xml version="1.0" encoding="utf-8"?>
<!-- Generator: Adobe Illustrator 19.1.0, SVG Export Plug-In . SVG Version: 6.00 Build 0)  -->
<svg version="1.1" id="Ebene_1" xmlns="http://www.w3.org/2000/svg" xmlns:xlink="http://www.w3.org/1999/xlink" x="0px" y="0px"
	 viewBox="0 0 841.9 595.3" style="enable-background:new 0 0 841.9 595.3;" xml:space="preserve">
<style type="text/css">
	.st0{fill:#FFFFFF;}
</style>
<g>
	<path class="st0" d="M166.5,169.6h12.9v23.4l7.2-23.4h13.5l-9.5,26l9.7,35.5h-13.6l-5.5-21.6l-1.9,5.6v16h-12.9V169.6z"/>
	<path class="st0" d="M201.1,217.8v-1.5c0-10.7,4.6-15,10.8-15c2.5,0,4.4,0.6,6.4,1.8v-1.8c0-4.4-2.1-6.6-6.2-6.6
		c-2.9,0-6.3,1.2-8.5,2.4V185c3.4-1.4,7.2-2.2,11.3-2.2c5.2,0,9,1.4,11.6,4c2.8,2.9,4.3,7.4,4.3,13.2v31h-12.5v-4.5
		c-1.9,3.4-4.4,5.4-7.8,5.4C205.1,231.9,201.1,226.8,201.1,217.8z M218.3,218.1v-7.3c-0.7-0.4-1.9-0.8-2.8-0.8
		c-1.8,0-2.9,1.8-2.9,5.4v1.8c0,3.7,1.2,5.1,2.8,5.1C216.9,222.2,218.3,220.9,218.3,218.1z"/>
	<path class="st0" d="M234.9,168.7h12.8v11.2h-12.8V168.7z M234.9,183.5h12.6V231h-12.6V183.5z"/>
	<path class="st0" d="M265.2,169.6h12.1c14.6,0,22.5,10.2,22.5,29.2v3c0,19-7.8,29.2-22.5,29.2h-12.1V169.6z M278.1,181.7v37.2
		c4.7,0,8.4-3.7,8.4-17v-3.2C286.5,185.1,282.8,181.7,278.1,181.7z"/>
	<path class="st0" d="M303.5,168.7h12.8v11.2h-12.8V168.7z M303.6,183.5h12.6V231h-12.6V183.5z"/>
	<path class="st0" d="M319.9,208.7v-2.8c0-15.2,6.7-23.4,15.7-23.4c9,0,14.6,8.3,14.6,23.9v6.4h-17.9c0.6,5.6,3.2,7.6,6.8,7.6
		c3.2,0,6.2-1.4,9.2-3.4l0.8,11.4c-3.4,2.2-7.3,3.7-12,3.7C327.1,232.1,319.9,224.1,319.9,208.7z M338.6,204c0-7.5-1-10.4-3.1-10.4
		c-1.9,0-3.2,2.3-3.4,10.4H338.6z"/>
	<path class="st0" d="M353.6,168.7h12.6v30.9l5.4-16.1h13l-7.5,19.4l7.5,28.1h-13.2l-3.8-16.9l-1.5,4v13h-12.6V168.7z"/>
	<path class="st0" d="M386.9,183.5h12.5v5.4c1.9-3.5,4.4-6.3,8.7-6.3s6.7,2.5,8.2,5.9c1.8-3,4.7-5.9,9-5.9c5.6,0,9.6,4.5,9.6,12V231
		h-12.5v-33c0-2.5-0.9-4-2.6-4c-1.6,0-2.7,1.5-2.7,4v33h-12.5v-33c0-2.5-0.9-4-2.5-4c-1.6,0-2.7,1.5-2.7,4v33h-12.5V183.5z"/>
	<path class="st0" d="M437.7,217.8v-1.5c0-10.7,4.6-15,10.8-15c2.5,0,4.4,0.6,6.4,1.8v-1.8c0-4.4-2.1-6.6-6.2-6.6
		c-2.9,0-6.3,1.2-8.5,2.4V185c3.4-1.4,7.2-2.2,11.3-2.2c5.2,0,9,1.4,11.6,4c2.8,2.9,4.3,7.4,4.3,13.2v31h-12.5v-4.5
		c-1.9,3.4-4.4,5.4-7.8,5.4C441.7,231.9,437.7,226.8,437.7,217.8z M455,218.1v-7.3c-0.7-0.4-1.9-0.8-2.8-0.8c-1.8,0-2.9,1.8-2.9,5.4
		v1.8c0,3.7,1.2,5.1,2.8,5.1C453.5,222.2,455,220.9,455,218.1z"/>
	<path class="st0" d="M471.5,183.5h12.6v5.4c1.7-3.3,4.3-6.4,8.7-6.4c6.1,0,9.1,4.8,9.1,11.9V231h-12.6v-33.1c0-2.5-0.9-3.9-2.6-3.9
		c-1.6,0-2.7,1.4-2.7,3.9V231h-12.6V183.5z"/>
	<path class="st0" d="M506.1,183.5h12.6v5.4c1.7-3.3,4.3-6.4,8.7-6.4c6.1,0,9.1,4.8,9.1,11.9V231H524v-33.1c0-2.5-0.9-3.9-2.6-3.9
		c-1.6,0-2.7,1.4-2.7,3.9V231h-12.6V183.5z"/>
</g>
<g>
	<path class="st0" d="M173.1,285.5l-7.8,2.4v-15.8l12.4-3.9h11.6V344h-16.2V285.5z"/>
	<path class="st0" d="M202.1,285.5l-7.8,2.4v-15.8l12.4-3.9h11.6V344h-16.2V285.5z"/>
	<path class="st0" d="M231.8,340.7c-5.3-5.3-8-15.5-8-31.8v-2.2c0-31.3,10.8-39.3,24.1-39.3c4,0,7.3,0.6,10.2,1.5v14.8
		c-2.4-1.2-5.6-2-8.9-2c-6.1,0-9.8,4-9.9,15.5c2.3-1.6,5.2-2.6,8.4-2.6c7.7,0,15.6,4.9,15.6,21.8v2.9c0,16.7-8.4,26.1-19.2,26.1
		C239,345.4,235,343.9,231.8,340.7z M248.1,320v-2.9c0-7.6-2.2-9.7-5-9.7c-1.6,0-2.8,0.5-3.8,1.2v9.9c0,9.9,1.8,13.2,4.4,13.2
		C246.5,331.6,248.1,328.8,248.1,320z"/>
	<path class="st0" d="M267.7,326.6H285V344h-17.3V326.6z"/>
	<path class="st0" d="M288.7,308.6V304c0-25.1,7.7-36.9,21.3-36.9c13.4,0,21.1,11.7,21.1,36.8v4.6c0,25.1-7.8,36.9-21.2,36.9
		C296.3,345.4,288.7,333.8,288.7,308.6z M315,309.5V303c0-17.8-2.1-21-5.1-21s-5.1,3.2-5.1,21v6.5c0,17.7,2.1,20.9,5.1,20.9
		S315,327.2,315,309.5z"/>
	<path class="st0" d="M335,308.6V304c0-25.1,7.7-36.9,21.3-36.9c13.4,0,21.1,11.7,21.1,36.8v4.6c0,25.1-7.8,36.9-21.2,36.9
		C342.5,345.4,335,333.8,335,308.6z M361.2,309.5V303c0-17.8-2.1-21-5.1-21s-5.1,3.2-5.1,21v6.5c0,17.7,2.1,20.9,5.1,20.9
		S361.2,327.2,361.2,309.5z"/>
	<path class="st0" d="M381.2,308.6V304c0-25.1,7.7-36.9,21.3-36.9c13.4,0,21.1,11.7,21.1,36.8v4.6c0,25.1-7.8,36.9-21.2,36.9
		C388.8,345.4,381.2,333.8,381.2,308.6z M407.5,309.5V303c0-17.8-2.1-21-5.1-21s-5.1,3.2-5.1,21v6.5c0,17.7,2.1,20.9,5.1,20.9
		S407.5,327.2,407.5,309.5z"/>
</g>
<g>
	<path class="st0" d="M170.4,478.2v-15.3c3.3,1.3,6.3,2,10.4,2c5.2,0,8.8-3.3,8.8-8.7v-0.5c0-6.4-5-9.3-13.7-9.8v-10.6l12.2-16.2
		h-16.6v-15.4h33.6v14.2l-13.2,17.4c7.7,2.6,13.6,7.7,13.6,19.8v1c0,15.2-9.3,24.3-22.3,24.3C177.7,480.4,173.8,479.6,170.4,478.2z"
		/>
	<path class="st0" d="M208.5,458.6v-0.9c0-8.8,3.8-15.1,8.5-18.4c-4.8-3.5-7.7-9.1-7.7-16.1v-0.8c0-12.1,8.1-20.2,19.1-20.2
		c11,0,19.1,8,19.1,20.1v0.8c0,6.9-2.9,12.6-7.8,16.1c4.9,3.3,8.6,9.5,8.6,18.4v0.9c0,13.6-8.1,22.1-20.1,22.1
		C216.5,480.6,208.5,472.2,208.5,458.6z M233,457.4v-1c0-7.7-1.8-10.5-4.5-10.5s-4.6,2.8-4.6,10.5v1c0,7.9,2.1,10.4,4.6,10.4
		C231.1,467.8,233,465.3,233,457.4z M232.7,424.8v-0.8c0-7-1.8-9.2-4.2-9.2s-4.2,2.2-4.2,9.2v0.8c0,6.5,1.6,9.3,4.2,9.3
		C231,434.1,232.7,431.3,232.7,424.8z"/>
	<path class="st0" d="M251.9,443.8v-4.6c0-25.1,7.7-36.9,21.3-36.9c13.4,0,21.1,11.7,21.1,36.8v4.6c0,25.1-7.8,36.9-21.2,36.9
		C259.5,480.6,251.9,469,251.9,443.8z M278.2,444.7v-6.5c0-17.8-2.1-21-5.1-21s-5.1,3.2-5.1,21v6.5c0,17.7,2.1,20.9,5.1,20.9
		S278.2,462.4,278.2,444.7z"/>
	<path class="st0" d="M298.2,461.7h17.3v17.5h-17.3V461.7z"/>
	<path class="st0" d="M321,478.4v-15.6c2.8,1.4,6.1,2.3,9.7,2.3c5.5,0,9.2-4,9.2-10.7v-0.5c0-6.5-3-9-7-9c-1.9,0-3.2,0.2-4.9,0.9
		l-7.5-4.3l1.9-37.6h30.6V419h-18.5l-0.8,12c0.9-0.1,2.1-0.2,3.5-0.2c9.9,0,18.7,5.9,18.7,22.5v0.9c0,17.2-9.6,26.2-23.4,26.2
		C328.1,480.4,323.8,479.5,321,478.4z"/>
	<path class="st0" d="M358.5,478.2v-15.3c3.3,1.3,6.3,2,10.4,2c5.2,0,8.8-3.3,8.8-8.7v-0.5c0-6.4-5-9.3-13.7-9.8v-10.6l12.2-16.2
		h-16.6v-15.4H393v14.2l-13.2,17.4c7.7,2.6,13.6,7.7,13.6,19.8v1c0,15.2-9.3,24.3-22.3,24.3C365.8,480.4,361.9,479.6,358.5,478.2z"
		/>
	<path class="st0" d="M417.8,466.4h-21.5v-11.7l20.6-51.1H433v49.1h6.2v13.7H433v12.8h-15.2V466.4z M418,452.7v-24.2l-8.6,24.2H418z
		"/>
</g>
<g>
	<path class="st0" d="M174.1,366.8h1.1l3.4,15.9h-1l-0.9-4.4h-4l-0.9,4.4h-1L174.1,366.8z M176.5,377.4l-1.8-9l-1.8,9H176.5z"/>
	<path class="st0" d="M179.9,378.6v-11.8h1v11.8c0,2.1,0.9,3.3,2.4,3.3s2.4-1.2,2.4-3.3v-11.8h1v11.8c0,2.6-1.3,4.3-3.4,4.3
		C181.2,382.9,179.9,381.2,179.9,378.6z"/>
	<path class="st0" d="M189,366.9h5.1v0.9H190v6.7h3.7v0.9H190v7.3h-1V366.9z"/>
	<path class="st0" d="M199.5,366.9h5.1v0.9h-4.1v6.7h3.7v0.9h-3.7v7.3h-1V366.9z"/>
	<path class="st0" d="M208.5,366.8h1.1l3.4,15.9h-1l-0.9-4.4h-4l-0.9,4.4h-1L208.5,366.8z M210.8,377.4l-1.8-9l-1.8,9H210.8z"/>
	<path class="st0" d="M213.7,375v-0.4c0-5.3,1.9-7.8,4.2-7.8c0.7,0,1,0.1,1.5,0.4v1.1c-0.6-0.3-1-0.5-1.5-0.5
		c-1.7,0-3.2,2.4-3.2,6.9v0.4c0,4.5,1.4,6.9,3.2,6.9c0.6,0,1-0.2,1.6-0.5v1c-0.4,0.3-1,0.5-1.6,0.5
		C215.5,382.8,213.7,380.2,213.7,375z"/>
	<path class="st0" d="M221.4,366.9h5.3v0.9h-4.3v6.5h3.9v0.9h-3.9v6.6h4.4v0.9h-5.4V366.9z"/>
	<path class="st0" d="M228.7,366.9h2c1.3,0,2.4,0.4,3.1,1.2c0.6,0.7,1,1.6,1,2.8v0c0,2.3-1.3,3.4-2.8,3.8c1.8,0.4,3,1.7,3,3.9v0
		c0,2.6-1.9,4.1-4.8,4.1h-1.6V366.9z M233.8,370.9c0-1.9-1.3-3.1-3.2-3.1h-1v6.5h0.7C232.6,374.3,233.8,373,233.8,370.9L233.8,370.9
		z M230.4,375.2h-0.8v6.6h0.6c2.3,0,3.8-1.1,3.8-3.2v0C234,376.4,232.7,375.2,230.4,375.2z"/>
	<path class="st0" d="M236.5,375v-0.4c0-5.2,1.6-7.9,3.7-7.9c2.1,0,3.7,2.7,3.7,7.9v0.4c0,5.2-1.6,7.9-3.7,7.9
		C238.1,382.9,236.5,380.2,236.5,375z M242.9,375v-0.4c0-4.6-1.2-7-2.7-7c-1.5,0-2.7,2.4-2.7,7v0.4c0,4.6,1.2,7,2.7,7
		C241.7,382,242.9,379.6,242.9,375z"/>
	<path class="st0" d="M245.5,375v-0.4c0-5.2,1.6-7.9,3.7-7.9c2.1,0,3.7,2.7,3.7,7.9v0.4c0,5.2-1.6,7.9-3.7,7.9
		C247.1,382.9,245.5,380.2,245.5,375z M251.9,375v-0.4c0-4.6-1.2-7-2.7-7c-1.5,0-2.7,2.4-2.7,7v0.4c0,4.6,1.2,7,2.7,7
		C250.7,382,251.9,379.6,251.9,375z"/>
	<path class="st0" d="M255,366.9h1v9l4.3-9h1.1l-3.6,7.1l4,8.7h-1.1l-3.5-7.6l-1.3,2.6v5h-1V366.9z"/>
	<path class="st0" d="M266.2,366.9h1l2.7,14.1l2.7-14.1h1l-3.2,15.9h-1L266.2,366.9z"/>
	<path class="st0" d="M274.4,375v-0.4c0-5.2,1.6-7.9,3.7-7.9c2.1,0,3.7,2.7,3.7,7.9v0.4c0,5.2-1.6,7.9-3.7,7.9
		C276,382.9,274.4,380.2,274.4,375z M280.8,375v-0.4c0-4.6-1.2-7-2.7-7c-1.5,0-2.7,2.4-2.7,7v0.4c0,4.6,1.2,7,2.7,7
		C279.7,382,280.8,379.6,280.8,375z"/>
	<path class="st0" d="M283.9,366.9h1.1l4.8,13.3v-13.3h0.9v15.8h-1l-5-13.6v13.6h-0.9V366.9z"/>
	<path class="st0" d="M301.9,363.1l-3.5,1.1v-7.3l5.6-1.8h5.2v35.1h-7.3V363.1z"/>
	<path class="st0" d="M311.7,383.7l6.4-12.5c1.7-3.4,2.3-4.9,2.3-6.3c0-1.6-0.9-2.9-2.9-2.9c-1.8,0-3.3,0.6-5,1.6v-7.2
		c1.8-0.8,4.1-1.6,7-1.6c4.8,0,8.3,3,8.3,8.4v0.2c0,3-0.8,5.5-2.7,9.1l-5.5,10.3h8.1v7.4h-15.8V383.7z"/>
	<path class="st0" d="M329.6,382.1h7.8v8.1h-7.8V382.1z"/>
	<path class="st0" d="M339.5,389.8v-7.1c1.5,0.6,2.8,0.9,4.7,0.9c2.4,0,4-1.5,4-4v-0.2c0-2.9-2.3-4.3-6.2-4.5v-4.9l5.5-7.5h-7.5
		v-7.1h15.2v6.6l-6,8c3.5,1.2,6.2,3.5,6.2,9.2v0.4c0,7-4.2,11.2-10.1,11.2C342.8,390.8,341,390.4,339.5,389.8z"/>
	<path class="st0" d="M356.7,383.7l6.4-12.5c1.7-3.4,2.3-4.9,2.3-6.3c0-1.6-0.9-2.9-2.9-2.9c-1.8,0-3.3,0.6-5,1.6v-7.2
		c1.8-0.8,4.1-1.6,7-1.6c4.8,0,8.3,3,8.3,8.4v0.2c0,3-0.8,5.5-2.7,9.1l-5.5,10.3h8.1v7.4h-15.8V383.7z"/>
	<path class="st0" d="M383.2,384.3h-9.7v-5.4l9.4-23.7h7.3V378h2.8v6.3h-2.8v5.9h-6.9V384.3z M383.3,378v-11.2l-3.9,11.2H383.3z"/>
	<path class="st0" d="M401.9,366.9h1.9c2.8,0,4.5,1.9,4.5,4.9v0c0,3-1.6,5-4.6,5h-0.9v5.8h-1V366.9z M403.8,376
		c2.2,0,3.5-1.5,3.5-4.1v0c0-2.6-1.4-4-3.5-4h-0.9v8.2H403.8z"/>
	<path class="st0" d="M410,366.9h5.3v0.9H411v6.5h3.9v0.9H411v6.6h4.4v0.9H410V366.9z"/>
	<path class="st0" d="M417.2,366.9h1.9c1.4,0,2.5,0.4,3.2,1.2c0.8,0.8,1.2,2,1.2,3.4v0c0,2.2-1,3.8-2.7,4.4l3,6.7h-1.2l-2.8-6.4
		c-0.3,0-0.6,0.1-0.9,0.1h-0.9v6.4h-1V366.9z M419.1,375.4c2.1,0,3.5-1.4,3.5-3.8v0c0-2.6-1.4-3.8-3.5-3.8h-0.9v7.7H419.1z"/>
	<path class="st0" d="M425.2,382v-1.1c1.1,0.7,2,1,2.7,1c1.3,0,2.2-0.9,2.2-2.3v0c0-1.3-0.5-2.1-2.2-4.5c-2.1-2.8-2.6-3.7-2.6-5.1v0
		c0-1.9,1.4-3.2,3-3.2c0.9,0,1.6,0.2,2.4,0.7v1.1c-0.8-0.6-1.6-0.9-2.4-0.9c-1.2,0-2,0.9-2,2.2v0c0,1.2,0.5,2,2.2,4.3
		c1.9,2.4,2.6,3.7,2.6,5.4v0c0,2-1.4,3.3-3.2,3.3C427,382.9,426.1,382.6,425.2,382z"/>
	<path class="st0" d="M432.6,375v-0.4c0-5.2,1.6-7.9,3.7-7.9c2.1,0,3.7,2.7,3.7,7.9v0.4c0,5.2-1.6,7.9-3.7,7.9
		C434.1,382.9,432.6,380.2,432.6,375z M438.9,375v-0.4c0-4.6-1.2-7-2.7-7s-2.7,2.4-2.7,7v0.4c0,4.6,1.2,7,2.7,7
		S438.9,379.6,438.9,375z"/>
	<path class="st0" d="M442,366.9h1.1l4.8,13.3v-13.3h0.9v15.8h-1l-5-13.6v13.6H442V366.9z"/>
	<path class="st0" d="M451.3,366.9h5.3v0.9h-4.3v6.5h3.9v0.9h-3.9v6.6h4.4v0.9h-5.4V366.9z"/>
	<path class="st0" d="M458.5,366.9h1.1l4.8,13.3v-13.3h0.9v15.8h-1l-5-13.6v13.6h-0.9V366.9z"/>
	<path class="st0" d="M474.3,366.8h1.1l3.4,15.9h-1l-0.9-4.4h-4l-0.9,4.4h-1L474.3,366.8z M476.6,377.4l-1.8-9l-1.8,9H476.6z"/>
	<path class="st0" d="M480.6,366.9h2c1.3,0,2.4,0.4,3.1,1.2c0.6,0.7,1,1.6,1,2.8v0c0,2.3-1.3,3.4-2.8,3.8c1.8,0.4,3,1.7,3,3.9v0
		c0,2.6-1.9,4.1-4.8,4.1h-1.6V366.9z M485.8,370.9c0-1.9-1.3-3.1-3.2-3.1h-1v6.5h0.7C484.6,374.3,485.8,373,485.8,370.9L485.8,370.9
		z M482.4,375.2h-0.8v6.6h0.6c2.3,0,3.8-1.1,3.8-3.2v0C486,376.4,484.7,375.2,482.4,375.2z"/>
	<path class="st0" d="M488.5,375v-0.4c0-5.2,1.6-7.9,3.7-7.9c2.1,0,3.7,2.7,3.7,7.9v0.4c0,5.2-1.6,7.9-3.7,7.9
		C490,382.9,488.5,380.2,488.5,375z M494.9,375v-0.4c0-4.6-1.2-7-2.7-7c-1.5,0-2.7,2.4-2.7,7v0.4c0,4.6,1.2,7,2.7,7
		C493.7,382,494.9,379.6,494.9,375z"/>
	<path class="st0" d="M497.9,366.9h1.1l4.8,13.3v-13.3h0.9v15.8h-1l-5-13.6v13.6h-0.9V366.9z"/>
	<path class="st0" d="M507.2,366.9h1.1l4.8,13.3v-13.3h0.9v15.8h-1l-5-13.6v13.6h-0.9V366.9z"/>
	<path class="st0" d="M516.7,366.9h1v15.8h-1V366.9z"/>
	<path class="st0" d="M520.3,366.9h5.3v0.9h-4.3v6.5h3.9v0.9h-3.9v6.6h4.4v0.9h-5.4V366.9z"/>
	<path class="st0" d="M527.5,366.9h1.9c1.4,0,2.5,0.4,3.2,1.2c0.8,0.8,1.2,2,1.2,3.4v0c0,2.2-1,3.8-2.7,4.4l3,6.7h-1.2l-2.8-6.4
		c-0.3,0-0.6,0.1-0.9,0.1h-0.9v6.4h-1V366.9z M529.5,375.4c2.1,0,3.5-1.4,3.5-3.8v0c0-2.6-1.4-3.8-3.5-3.8h-0.9v7.7H529.5z"/>
	<path class="st0" d="M537.4,367.8h-2.5v-0.9h6v0.9h-2.5v14.9h-1V367.8z"/>
	<path class="st0" d="M170.1,385.5v-1.1H292v1.1H170.1z"/>
	<path class="st0" d="M400.7,385.5v-1.1h140.5v1.1H400.7z"/>
</g>
<g>
	<path class="st0" d="M433.2,298.3h11v5.4h-5.3v5.3h4.7v5.3h-4.7V325h-5.7V298.3z"/>
	<path class="st0" d="M444.9,315.5v-1.6c0-6.6,2.9-10,7-10c4.1,0,6.9,3.4,6.9,10v1.6c0,6.6-2.8,10-6.9,10
		C447.8,325.5,444.9,322,444.9,315.5z M453.4,315.5v-1.7c0-3.6-0.5-5-1.5-5s-1.4,1.4-1.4,5v1.7c0,3.6,0.5,5,1.4,5
		S453.4,319.1,453.4,315.5z"/>
	<path class="st0" d="M460.5,297.9h5.5V325h-5.5V297.9z"/>
	<path class="st0" d="M468,297.9h5.5V325H468V297.9z"/>
	<path class="st0" d="M475.2,315.5v-1.6c0-6.6,2.9-10,7-10c4.1,0,6.9,3.4,6.9,10v1.6c0,6.6-2.8,10-6.9,10
		C478.1,325.5,475.2,322,475.2,315.5z M483.6,315.5v-1.7c0-3.6-0.5-5-1.5-5s-1.4,1.4-1.4,5v1.7c0,3.6,0.5,5,1.4,5
		S483.6,319.1,483.6,315.5z"/>
	<path class="st0" d="M489.4,304.3h5.5l1.3,10.7l1.4-10.7h4.2l1.4,10.7l1.3-10.7h5.4l-3.6,20.7h-5l-1.6-9.9L498,325h-5L489.4,304.3z
		"/>
	<path class="st0" d="M510,315.3v-1.2c0-6.6,2.9-10.2,6.9-10.2c3.9,0,6.4,3.6,6.4,10.4v2.8h-7.9c0.3,2.4,1.4,3.3,3,3.3
		c1.4,0,2.7-0.6,4-1.5l0.3,5c-1.5,1-3.2,1.6-5.2,1.6C513.2,325.4,510,322,510,315.3z M518.2,313.2c0-3.3-0.5-4.5-1.4-4.5
		c-0.8,0-1.4,1-1.5,4.5H518.2z"/>
	<path class="st0" d="M524.8,304.3h5.5v2.9c0.6-2.1,1.6-3.2,3.2-3.1v6.7h-0.1c-2.1,0-3.1,1.4-3.1,4.3v9.9h-5.5V304.3z"/>
</g>
<g>
	<path class="st0" d="M445.2,500.7v-0.4c0-2.8,1.2-3.9,2.8-3.9c0.7,0,1.1,0.2,1.7,0.5v-0.5c0-1.1-0.5-1.7-1.6-1.7
		c-0.8,0-1.6,0.3-2.2,0.6v-3.1c0.9-0.4,1.9-0.6,2.9-0.6c1.3,0,2.4,0.4,3,1c0.7,0.8,1.1,1.9,1.1,3.4v8h-3.3v-1.2
		c-0.5,0.9-1.1,1.4-2,1.4C446.2,504.3,445.2,503,445.2,500.7z M449.7,500.8v-1.9c-0.2-0.1-0.5-0.2-0.7-0.2c-0.5,0-0.8,0.5-0.8,1.4
		v0.5c0,1,0.3,1.3,0.7,1.3C449.3,501.8,449.7,501.5,449.7,500.8z"/>
	<path class="st0" d="M453.9,501.3v-9.4h3.3v8.5c0,0.6,0.2,1,0.7,1c0.4,0,0.7-0.4,0.7-1v-8.5h3.3v12.3h-3.3v-1.4
		c-0.4,0.9-1.1,1.7-2.3,1.7C454.7,504.4,453.9,503.1,453.9,501.3z"/>
	<path class="st0" d="M463.4,494.5h-0.7v-2.7h0.7v-0.5c0-1.1,0.3-2,0.8-2.5c0.6-0.5,1.4-0.8,2.4-0.8c0.6,0,1,0,1.4,0.1v2.6
		c-0.1,0-0.3,0-0.5,0c-0.6,0-0.9,0.3-0.9,0.9v0.3h1.4v2.6h-1.4v9.6h-3.3V494.5z"/>
	<path class="st0" d="M472.1,488.2h3.1c3.1,0,5.3,1.7,5.3,5.4v0.2c0,3.9-2.5,5.4-4.9,5.5h-0.1v4.8h-3.3V488.2z M475.5,496.3
		c0.9,0,1.6-0.7,1.6-2.4v-0.3c0-1.7-0.7-2.4-1.6-2.4h-0.1L475.5,496.3L475.5,496.3z"/>
	<path class="st0" d="M481,498.3v-0.7c0-3.9,1.8-6.1,4.1-6.1s3.8,2.1,3.8,6.2v1.7h-4.7c0.2,1.5,0.8,2,1.8,2c0.8,0,1.6-0.4,2.4-0.9
		l0.2,3c-0.9,0.6-1.9,1-3.1,1C482.9,504.4,481,502.3,481,498.3z M485.9,497.1c0-2-0.3-2.7-0.8-2.7c-0.5,0-0.8,0.6-0.9,2.7H485.9z"/>
	<path class="st0" d="M489.8,491.8h3.3v1.7c0.4-1.2,0.9-1.9,1.9-1.9v4h-0.1c-1.3,0-1.8,0.8-1.8,2.5v5.9h-3.3V491.8z"/>
	<path class="st0" d="M495.8,488h3.3v2.9h-3.3V488z M495.8,491.8h3.3v12.3h-3.3V491.8z"/>
	<path class="st0" d="M500,503.7v-3.2c1,0.5,1.9,0.9,2.5,0.9c0.5,0,0.8-0.3,0.8-0.7v0c0-0.4-0.2-0.7-1.1-1.5c-1.3-1.1-2.3-2.2-2.3-4
		v0c0-2.2,1.5-3.5,3.7-3.5c0.9,0,1.6,0.1,2.4,0.4v3.2c-0.7-0.4-1.5-0.7-2.1-0.7c-0.5,0-0.8,0.2-0.8,0.6v0c0,0.4,0.3,0.6,1.2,1.5
		c1.3,1.2,2.2,2.2,2.2,4v0c0,2.2-1.6,3.7-3.6,3.7C501.9,504.4,500.9,504.1,500,503.7z"/>
	<path class="st0" d="M506.9,498.4v-0.9c0-3.9,1.8-5.9,4.2-5.9c0.9,0,1.4,0.1,2,0.4v3.2c-0.5-0.3-0.9-0.5-1.4-0.5
		c-0.9,0-1.5,0.8-1.5,2.9v0.8c0,2.1,0.6,2.9,1.5,2.9c0.4,0,0.9-0.2,1.4-0.5v3.1c-0.6,0.4-1.2,0.5-2,0.5
		C508.5,504.4,506.9,502.3,506.9,498.4z"/>
	<path class="st0" d="M513.7,498.4v-1c0-3.9,1.7-5.9,4.2-5.9c2.4,0,4.1,2,4.1,5.9v1c0,3.9-1.7,5.9-4.1,5.9
		C515.4,504.4,513.7,502.4,513.7,498.4z M518.7,498.5v-1c0-2.1-0.3-3-0.9-3s-0.9,0.8-0.9,3v1c0,2.1,0.3,3,0.9,3
		S518.7,500.6,518.7,498.5z"/>
	<path class="st0" d="M522.9,491.8h3.3v1.4c0.5-0.9,1.1-1.7,2.2-1.7c1.5,0,2.7,1.2,2.7,5.8v1.2c0,4.5-1.2,5.8-2.7,5.8
		c-1.1,0-1.7-0.8-2.2-1.7v4.4h-3.3V491.8z M527.8,498.6v-1.3c0-1.9-0.2-2.7-0.8-2.7c-0.6,0-0.9,0.9-0.9,2.7v1.3
		c0,1.8,0.3,2.7,0.9,2.7C527.6,501.3,527.8,500.4,527.8,498.6z"/>
	<path class="st0" d="M531.9,498.3v-0.7c0-3.9,1.8-6.1,4.1-6.1s3.8,2.1,3.8,6.2v1.7h-4.7c0.2,1.5,0.8,2,1.8,2c0.8,0,1.6-0.4,2.4-0.9
		l0.2,3c-0.9,0.6-1.9,1-3.1,1C533.8,504.4,531.9,502.3,531.9,498.3z M536.8,497.1c0-2-0.3-2.7-0.8-2.7c-0.5,0-0.8,0.6-0.9,2.7H536.8
		z"/>
</g>
<g>
	<path class="st0" d="M435.2,329.6h1.2l2.6,12.6h-1.2l-0.7-3.2h-2.9l-0.6,3.2h-1.1L435.2,329.6z M437,337.9l-1.3-6.3l-1.3,6.3H437z"
		/>
	<path class="st0" d="M440,338.9v-9.2h1.2v9.3c0,1.6,0.6,2.4,1.6,2.4c1,0,1.7-0.8,1.7-2.4v-9.3h1.2v9.2c0,2.2-1.1,3.5-2.8,3.5
		C441.1,342.3,440,341.1,440,338.9z"/>
	<path class="st0" d="M447.3,329.6h4.2v1.1h-3v4.7h2.7v1.1h-2.7v5.6h-1.2V329.6z"/>
	<path class="st0" d="M456.9,330.7H455v-1.1h4.9v1.1H458v11.5h-1.2V330.7z"/>
	<path class="st0" d="M460.4,329.6h1.2l1.5,10.1l1.8-10.1h1.1l1.8,10.1l1.5-10.1h1.2l-2.1,12.6h-1.2l-1.7-10l-1.8,10h-1.1
		L460.4,329.6z"/>
	<path class="st0" d="M471.7,329.6h1.2v12.5h-1.2V329.6z"/>
	<path class="st0" d="M476,330.7h-1.9v-1.1h4.9v1.1h-1.9v11.5H476V330.7z"/>
	<path class="st0" d="M481.4,330.7h-1.9v-1.1h4.9v1.1h-1.9v11.5h-1.2V330.7z"/>
	<path class="st0" d="M485.6,329.6h4.4v1.1h-3.2v4.6h2.9v1.1h-2.9v4.7h3.3v1.1h-4.4V329.6z"/>
	<path class="st0" d="M491.4,329.6h1.7c1.1,0,2,0.3,2.6,1c0.6,0.6,1,1.6,1,2.8v0.1c0,1.7-0.7,2.9-2,3.5l2.2,5.3h-1.3l-2-4.9
		c-0.2,0-0.3,0-0.5,0h-0.6v4.9h-1.2V329.6z M493.1,336.3c1.5,0,2.5-1,2.5-2.8v-0.1c0-1.9-1-2.7-2.5-2.7h-0.5v5.6H493.1z"/>
</g>
<rect x="165.3" y="237.6" class="st0" width="371.1" height="12.9"/>
<g>
	<path class="st0" d="M529.9,267.9c-1.1,0.5-2.2,0.9-3.5,1.1c-1-0.9-2.4-1.4-4-1.4c-3,0-5.5,2-5.5,4.6c0,0.4,0,0.7,0.1,1
		c-4.6-0.2-8.6-2-11.3-4.8c-0.5,0.7-0.7,1.5-0.7,2.3c0,1.6,1,3,2.4,3.8c-0.9,0-1.7-0.2-2.5-0.6c0,0,0,0,0,0.1c0,2.2,1.9,4.1,4.4,4.5
		c-0.5,0.1-0.9,0.2-1.4,0.2c-0.4,0-0.7,0-1-0.1c0.7,1.8,2.7,3.1,5.1,3.2c-1.9,1.2-4.3,2-6.8,2c-0.4,0-0.9,0-1.3-0.1
		c2.4,1.3,5.3,2.1,8.4,2.1c10.1,0,15.6-7,15.6-13c0-0.2,0-0.4,0-0.6c1.1-0.6,2-1.4,2.7-2.4c-1,0.4-2,0.6-3.2,0.7
		C528.6,269.9,529.5,269,529.9,267.9z"/>
</g>
<g>
	<path class="st0" d="M609.3,216.3c-1.8,0.9-3.8,1.5-5.9,1.9c-1.7-1.5-4.1-2.4-6.7-2.4c-5.1,0-9.2,3.4-9.2,7.7
		c0,0.6,0.1,1.2,0.2,1.8c-7.7-0.3-14.5-3.4-19.1-8c-0.8,1.1-1.3,2.5-1.3,3.9c0,2.7,1.6,5,4.1,6.4c-1.5,0-2.9-0.4-4.2-1
		c0,0,0,0.1,0,0.1c0,3.7,3.2,6.8,7.4,7.5c-0.8,0.2-1.6,0.3-2.4,0.3c-0.6,0-1.2,0-1.7-0.1c1.2,3.1,4.6,5.3,8.6,5.3
		c-3.2,2.1-7.2,3.3-11.5,3.3c-0.7,0-1.5,0-2.2-0.1c4.1,2.2,9,3.5,14.2,3.5c17,0,26.3-11.7,26.3-21.9c0-0.3,0-0.7,0-1
		c1.8-1.1,3.4-2.4,4.6-4c-1.7,0.6-3.4,1-5.3,1.2C607.2,219.6,608.6,218.1,609.3,216.3z"/>
</g>
<g>
	<path class="st0" d="M698.6,104.9c-3.9,1.9-8.3,3.3-12.9,4.1c-3.7-3.3-9-5.3-14.8-5.3c-11.2,0-20.3,7.6-20.3,16.9
		c0,1.3,0.2,2.6,0.5,3.8c-16.9-0.7-31.8-7.4-41.8-17.6c-1.7,2.5-2.7,5.4-2.7,8.5c0,5.9,3.6,11,9,14.1c-3.3-0.1-6.5-0.9-9.2-2.1
		c0,0.1,0,0.1,0,0.2c0,8.2,7,15,16.3,16.6c-1.7,0.4-3.5,0.6-5.3,0.6c-1.3,0-2.6-0.1-3.8-0.3c2.6,6.7,10.1,11.6,19,11.7
		c-6.9,4.5-15.7,7.2-25.2,7.2c-1.6,0-3.3-0.1-4.8-0.2c9,4.8,19.7,7.6,31.1,7.6c37.3,0,57.8-25.7,57.8-48c0-0.7,0-1.5-0.1-2.2
		c4-2.4,7.4-5.3,10.1-8.7c-3.6,1.3-7.5,2.3-11.7,2.7C693.8,112.1,697,108.8,698.6,104.9z"/>
</g>
<g>
	<path class="st0" d="M457.4,419.3c10.9-26.1,39.9,0,39.9,0s29.1-26.1,39.9,0c12.5,29.9-39.9,57.4-39.9,59.9
		C497.4,476.7,445,449.3,457.4,419.3z"/>
</g>
<g>
	<path class="st0" d="M557.5,400.9c7.4-17.8,27.3,0,27.3,0s19.9-17.8,27.3,0c8.5,20.5-27.3,39.2-27.3,40.9
		C584.8,440.1,549,421.4,557.5,400.9z"/>
</g>
<g>
	<path class="st0" d="M603.1,337.8c4.1-9.7,14.9,0,14.9,0s10.9-9.7,14.9,0c4.7,11.2-14.9,21.5-14.9,22.4
		C618,359.2,598.4,349,603.1,337.8z"/>
</g>
<g>
	<path class="st0" d="M641.5,266.5c3-7.3,11.2,0,11.2,0s8.1-7.3,11.2,0c3.5,8.4-11.2,16-11.2,16.7
		C652.7,282.6,638,274.9,641.5,266.5z"/>
</g>
</svg>
