<?xml version="1.0" encoding="utf-8"?>
<!-- Generator: Adobe Illustrator 19.1.0, SVG Export Plug-In . SVG Version: 6.00 Build 0)  -->
<svg version="1.1" id="Ebene_1" xmlns="http://www.w3.org/2000/svg" xmlns:xlink="http://www.w3.org/1999/xlink" x="0px" y="0px"
	 viewBox="0 0 841.9 595.3" style="enable-background:new 0 0 841.9 595.3;" xml:space="preserve">
<style type="text/css">
	.st0{fill:#FFFFFF;}
	.st1{fill:none;}
</style>
<g>
	<polygon class="st0" points="206.6,73.9 218.9,73.9 218.9,175.8 206.6,175.8 206.6,73.9 	"/>
	<g>
		<path class="st0" d="M178.2,73.9h-24.3l0,101.9l24.3,0c3,0,5.4-2.5,5.4-5.5l0-42v-2.2c0-3.2-2.6-5.8-5.7-5.8l0.5,0
			c2.8,0,5.1-2.3,5.1-5.2v-3.3V79.4C183.5,76.3,181.1,73.9,178.2,73.9z M171.2,163.2h-5.1V128h5.1V163.2z M171.2,115.5h-5.1v-29h5.1
			V115.5z"/>
		<rect x="166.2" y="86.5" class="st1" width="5.1" height="29"/>
		<rect x="166.2" y="128" class="st1" width="5.1" height="35.2"/>
	</g>
	<g>
		<path class="st0" d="M241.6,73.9v17.7h-12c-2.9,0-5.3,2.5-5.3,5.5l0,73.2c0,3,2.4,5.5,5.4,5.5l24.3,0v-102H241.6z M241.6,163.2
			h-5.1v-59.1h5.1V163.2z"/>
		<rect x="236.5" y="104.1" class="st1" width="5.1" height="59.1"/>
	</g>
	<polygon class="st0" points="188.9,73.9 201.2,73.9 201.2,86.5 188.9,86.5 188.9,73.9 	"/>
	<polygon class="st0" points="188.9,91.6 201.2,91.6 201.2,175.8 188.9,175.8 188.9,91.6 	"/>
</g>
<g>
	<path class="st0" d="M259.3,134.6v-1.7c0-12.2,5.2-17.1,12.3-17.1c2.9,0,5,0.7,7.3,2v-2.1c0-5-2.4-7.5-7.1-7.5
		c-3.3,0-7.2,1.4-9.7,2.7V97.2c3.8-1.6,8.2-2.5,12.9-2.5c5.9,0,10.3,1.6,13.3,4.6c3.2,3.3,4.9,8.4,4.9,15v35.4h-14.3v-5.1
		c-2.2,3.9-5,6.1-8.9,6.1C263.8,150.7,259.3,144.9,259.3,134.6z M279,135v-8.3c-0.8-0.4-2.2-0.9-3.1-0.9c-2.1,0-3.3,2-3.3,6.1v2
		c0,4.2,1.4,5.8,3.1,5.8C277.3,139.7,279,138.2,279,135z"/>
	<path class="st0" d="M297.5,137.2V95.5h14.4v37.7c0,2.8,1.1,4.5,2.9,4.5c1.8,0,3-1.7,3-4.5V95.5h14.4v54.2h-14.4v-6.2
		c-2,3.8-4.9,7.3-9.9,7.3C301,150.8,297.5,145.2,297.5,137.2z"/>
	<path class="st0" d="M338.8,107.2h-3V95.5h3v-2.4c0-5,1.3-8.6,3.6-11.1c2.5-2.4,6.1-3.6,10.6-3.6c2.8,0,4.4,0.2,6.1,0.5v11.4
		c-0.5-0.1-1.4-0.2-2.1-0.2c-2.6,0-4.1,1.3-4.1,4.1v1.4h6.2v11.6h-6v42.5h-14.4V107.2z"/>
	<path class="st0" d="M377,79.6h13.6c13.7,0,23.1,7.3,23.1,23.9v0.8c0,17-10.8,23.8-21.6,24.2h-0.4v21.1H377V79.6z M391.8,115.2
		c4.1-0.2,7.2-3.2,7.2-10.5v-1.2c0-7.5-2.9-10.6-7.1-10.6h-0.3v22.3H391.8z"/>
	<path class="st0" d="M416,124.2V121c0-17.3,7.7-26.7,17.9-26.7s16.7,9.4,16.7,27.2v7.3h-20.4c0.7,6.4,3.6,8.7,7.8,8.7
		c3.6,0,7.1-1.6,10.5-3.9l0.9,13c-3.9,2.5-8.4,4.2-13.7,4.2C424.3,150.9,416,141.8,416,124.2z M437.3,118.8c0-8.6-1.2-11.8-3.5-11.8
		c-2.2,0-3.6,2.6-3.8,11.8H437.3z"/>
	<path class="st0" d="M454.4,95.5h14.3v7.5c1.7-5.4,4.1-8.5,8.5-8.2v17.5h-0.3c-5.5,0-8.1,3.7-8.1,11.2v26.1h-14.4V95.5z"/>
	<path class="st0" d="M480.6,78.6h14.6v12.8h-14.6V78.6z M480.7,95.5H495v54.2h-14.4V95.5z"/>
	<path class="st0" d="M499.2,147.8v-13.9c4.2,2.4,8.2,4,10.9,4c2.2,0,3.3-1.3,3.3-3.1v-0.1c0-1.7-0.8-2.9-4.9-6.7
		c-5.6-5-9.9-9.5-9.9-17.8v-0.2c0-9.6,6.6-15.4,16-15.4c3.9,0,7,0.6,10.3,1.8v14c-3.1-1.7-6.5-2.9-9.2-2.9c-2.2,0-3.3,1.1-3.3,2.7
		v0.1c0,1.6,1.3,2.8,5.1,6.5c5.9,5.3,9.7,9.6,9.7,17.7v0.2c0,9.7-6.8,16.1-15.6,16.1C507.4,150.8,502.9,149.7,499.2,147.8z"/>
	<path class="st0" d="M529.4,124.4v-3.9c0-17.1,7.9-26.1,18.4-26.1c3.7,0,6,0.6,8.7,1.8v14.2c-2.2-1.3-3.9-2.1-6.2-2.1
		c-3.7,0-6.4,3.5-6.4,12.6v3.3c0,9.1,2.6,12.6,6.6,12.6c1.9,0,3.9-0.9,6.1-2.2v13.8c-2.8,1.6-5.3,2.4-8.9,2.4
		C536.3,150.9,529.4,141.7,529.4,124.4z"/>
	<path class="st0" d="M558.8,124.7v-4.2c0-17.2,7.5-26.2,18.2-26.2c10.6,0,18,9,18,26.2v4.2c0,17.2-7.4,26.2-18.1,26.2
		C566.2,151,558.8,142,558.8,124.7z M580.7,124.8v-4.5c0-9.4-1.3-13.1-3.8-13.1c-2.6,0-3.7,3.7-3.7,13.1v4.5
		c0,9.4,1.2,13.1,3.7,13.1C579.4,138,580.7,134.3,580.7,124.8z"/>
	<path class="st0" d="M599.2,95.5h14.4v6.3c2.2-3.8,4.7-7.4,9.7-7.4c6.4,0,11.8,5.5,11.8,25.5v5.3c0,19.8-5.4,25.5-11.8,25.5
		c-5,0-7.6-3.5-9.7-7.4v19.3h-14.4V95.5z M620.7,125.4v-5.7c0-8.2-1.1-12-3.5-12c-2.6,0-3.7,3.8-3.7,12v5.7c0,8.1,1.2,12,3.7,12
		C619.6,137.5,620.7,133.6,620.7,125.4z"/>
	<path class="st0" d="M638.6,124.2V121c0-17.3,7.7-26.7,17.9-26.7s16.7,9.4,16.7,27.2v7.3h-20.4c0.7,6.4,3.6,8.7,7.8,8.7
		c3.6,0,7.1-1.6,10.5-3.9l0.9,13c-3.9,2.5-8.4,4.2-13.7,4.2C646.8,150.9,638.6,141.8,638.6,124.2z M659.9,118.8
		c0-8.6-1.2-11.8-3.5-11.8c-2.2,0-3.6,2.6-3.8,11.8H659.9z"/>
</g>
<g>
	<path class="st0" d="M265.5,316.1v-2.9c0-18.5,4.5-26.1,13-26.1c8.3,0,13,7.6,13,26.1v2.9c0,18.5-4.7,26.1-13,26.1
		C270,342.2,265.5,334.7,265.5,316.1z M282.4,316.1v-2.8c0-15.2-1.8-17.6-3.9-17.6c-2.2,0-4,2.5-4,17.6v2.8c0,15.2,1.8,17.6,4,17.6
		C280.6,333.7,282.4,331.2,282.4,316.1z"/>
	<path class="st0" d="M299.1,297.8l-5.5,1.8v-9.4l8.1-2.6h6.5v54h-9.2V297.8z"/>
	<path class="st0" d="M263.7,351v-3.8h47.9v3.8H263.7z"/>
</g>
<g>
	<path class="st0" d="M155.2,193.5h3.7c5.3,0,8.6,3.7,8.6,9.5v0.1c0,5.8-3.1,9.7-8.8,9.7h-1.7v11.3h-1.9V193.5z M158.9,211.1
		c4.3,0,6.7-3,6.7-7.9v-0.1c0-5-2.7-7.8-6.8-7.8h-1.8v15.8H158.9z"/>
	<path class="st0" d="M169.8,213v-0.4c0-7.9,2.9-11.8,6.2-11.8c3.3,0,5.9,4.1,5.9,11.2v1.4h-10.2c0.1,6.2,2.6,9.3,5.6,9.3
		c1.4,0,2.4-0.3,3.9-1.4l0.2,1.9c-1.6,0.9-2.6,1.2-4.4,1.2C173.1,224.4,169.8,220.6,169.8,213z M180,211.8c0-5.3-1.7-9.3-4.1-9.3
		c-2.4,0-4.2,3.2-4.4,9.3H180z"/>
	<path class="st0" d="M185.6,201.2h1.8v3.4c0.9-2.1,2.6-3.8,5.3-3.6v2h-0.1c-2.8,0-5.2,1.8-5.2,5.8v15.4h-1.8V201.2z"/>
	<path class="st0" d="M195.7,193.2h2v3.1h-2V193.2z M195.8,201.2h1.8v22.9h-1.8V201.2z"/>
	<path class="st0" d="M201.2,223.2v-1.9c1.5,0.8,3.1,1.3,4.6,1.3c1.9,0,3.4-1.3,3.4-3.4v-0.1c0-1.6-0.9-3.2-3.6-5.8
		c-3.3-3.2-4.4-5-4.4-7.3v-0.1c0-3.2,2.4-5,5.1-5c1.5,0,2.5,0.2,3.7,0.7v1.9c-1.3-0.7-2.5-1-3.8-1c-1.8,0-3.2,1.2-3.2,3.2v0.1
		c0,1.7,0.9,2.9,3.6,5.6c3.2,3.2,4.4,5.1,4.4,7.5v0.1c0,3.2-2.6,5.2-5.3,5.2C204,224.3,202.7,223.9,201.2,223.2z"/>
	<path class="st0" d="M213.5,212.9v-0.4c0-7.9,3.4-11.6,6.9-11.6c1.1,0,2.1,0.3,2.7,0.8v2c-0.8-0.6-1.7-1-2.7-1c-2.3,0-5,3-5,9.8
		v0.6c0,6.9,2.6,9.6,5.2,9.6c0.9,0,1.8-0.4,2.6-1v1.9c-0.7,0.5-1.6,0.9-2.7,0.9C216.8,224.4,213.5,220.9,213.5,212.9z"/>
	<path class="st0" d="M225.1,212.8v-0.4c0-7.2,3-11.6,6.4-11.6c3.4,0,6.3,4.4,6.3,11.6v0.4c0,7.2-3,11.6-6.4,11.6
		C228.1,224.4,225.1,220,225.1,212.8z M236,212.8v-0.4c0-6-2.1-9.9-4.6-9.9c-2.5,0-4.6,3.9-4.6,9.9v0.4c0,6,2.1,9.9,4.6,9.9
		C234,222.7,236,218.8,236,212.8z"/>
	<path class="st0" d="M241.5,201.2h1.8v4.4c0.9-2.6,2.4-4.8,4.7-4.8c3.1,0,5.9,4,5.9,11.4v0.8c0,7.3-2.8,11.4-5.9,11.4
		c-2.3,0-3.8-2.1-4.7-4.8v10.1h-1.8V201.2z M252.1,213v-0.7c0-6.3-2-9.8-4.3-9.8c-2.3,0-4.6,3.5-4.6,9.6v1.1c0,6.2,2.3,9.6,4.6,9.6
		C250.1,222.8,252.1,219.3,252.1,213z"/>
	<path class="st0" d="M256.7,213v-0.4c0-7.9,2.9-11.8,6.2-11.8c3.3,0,5.9,4.1,5.9,11.2v1.4h-10.2c0.1,6.2,2.6,9.3,5.6,9.3
		c1.4,0,2.4-0.3,3.9-1.4l0.2,1.9c-1.6,0.9-2.6,1.2-4.4,1.2C260.1,224.4,256.7,220.6,256.7,213z M267,211.8c0-5.3-1.7-9.3-4.1-9.3
		c-2.4,0-4.2,3.2-4.4,9.3H267z"/>
	<path class="st0" d="M278.8,211.4c0-9.2,3.3-15.4,7.9-18.6v1.5c-3.5,3.4-6.1,8.6-6.1,17.1c0,8.6,2.6,13.7,6.1,17.1v1.5
		C282.2,226.8,278.8,220.6,278.8,211.4z"/>
	<path class="st0" d="M297.2,195.4h-8.5v-1.9H299v1.7l-6.9,28.9h-1.8L297.2,195.4z"/>
	<path class="st0" d="M301,222.8l7.2-15.1c1.3-2.8,2.1-4.9,2.1-7.6c0-3.1-1.7-5-4.2-5c-1.8,0-3.1,0.6-4.4,1.4v-2.1
		c1.2-0.7,2.6-1.3,4.5-1.3c3.7,0,6,2.7,6,6.7v0.2c0,3-0.9,5.3-2.5,8.6l-6.4,13.5h9.2v1.9H301V222.8z"/>
	<path class="st0" d="M323.8,195.4h-8.5v-1.9h10.3v1.7l-6.9,28.9h-1.8L323.8,195.4z"/>
	<path class="st0" d="M335.9,209.2v-0.7c0-10.8,2.6-15.3,6.3-15.3s6.3,4.4,6.3,15.2v0.7c0,10.8-2.6,15.3-6.3,15.3
		S335.9,220,335.9,209.2z M346.6,209.2v-0.7c0-9.1-1.8-13.6-4.4-13.6s-4.4,4.4-4.4,13.5v0.7c0,9.1,1.8,13.6,4.4,13.6
		S346.6,218.3,346.6,209.2z"/>
	<path class="st0" d="M351.8,209.2v-0.7c0-10.8,2.6-15.3,6.3-15.3s6.3,4.4,6.3,15.2v0.7c0,10.8-2.6,15.3-6.3,15.3
		S351.8,220,351.8,209.2z M362.5,209.2v-0.7c0-9.1-1.8-13.6-4.4-13.6s-4.4,4.4-4.4,13.5v0.7c0,9.1,1.8,13.6,4.4,13.6
		S362.5,218.3,362.5,209.2z"/>
	<path class="st0" d="M367.8,209.2v-0.7c0-10.8,2.6-15.3,6.3-15.3s6.3,4.4,6.3,15.2v0.7c0,10.8-2.6,15.3-6.3,15.3
		S367.8,220,367.8,209.2z M378.5,209.2v-0.7c0-9.1-1.8-13.6-4.4-13.6s-4.4,4.4-4.4,13.5v0.7c0,9.1,1.8,13.6,4.4,13.6
		S378.5,218.3,378.5,209.2z"/>
	<path class="st0" d="M394.5,195.3h-4.9v-1.7h11.7v1.7h-4.9v28.8h-1.9V195.3z"/>
	<path class="st0" d="M401.4,201.2h1.9l3.6,19.9l3.8-19.9h1.6l3.7,19.9l3.7-19.9h1.8l-4.7,23h-1.6l-3.8-19.3l-3.7,19.3h-1.6
		L401.4,201.2z"/>
	<path class="st0" d="M425.3,193.2h2v3.1h-2V193.2z M425.4,201.2h1.8v22.9h-1.8V201.2z"/>
	<path class="st0" d="M432.7,220.2v-17.4h-2.1v-1.7h2.1v-6.5h1.8v6.5h3.6v1.7h-3.6V220c0,2,0.9,2.5,2.4,2.5c0.4,0,1-0.1,1.4-0.2v1.7
		c-0.4,0.2-1.1,0.3-1.5,0.3C434.2,224.2,432.7,223.2,432.7,220.2z"/>
	<path class="st0" d="M442.1,220.2v-17.4H440v-1.7h2.1v-6.5h1.8v6.5h3.6v1.7h-3.6V220c0,2,0.9,2.5,2.4,2.5c0.4,0,1-0.1,1.4-0.2v1.7
		c-0.4,0.2-1.1,0.3-1.5,0.3C443.7,224.2,442.1,223.2,442.1,220.2z"/>
	<path class="st0" d="M449.7,213v-0.4c0-7.9,2.9-11.8,6.2-11.8c3.3,0,5.9,4.1,5.9,11.2v1.4h-10.2c0.1,6.2,2.6,9.3,5.6,9.3
		c1.4,0,2.4-0.3,3.9-1.4l0.2,1.9c-1.6,0.9-2.6,1.2-4.4,1.2C453.1,224.4,449.7,220.6,449.7,213z M460,211.8c0-5.3-1.7-9.3-4.1-9.3
		c-2.4,0-4.2,3.2-4.4,9.3H460z"/>
	<path class="st0" d="M465.5,201.2h1.8v3.4c0.9-2.1,2.6-3.8,5.3-3.6v2h-0.1c-2.8,0-5.2,1.8-5.2,5.8v15.4h-1.8V201.2z"/>
	<path class="st0" d="M474.4,210.3h8.1v1.7h-8.1V210.3z"/>
	<path class="st0" d="M486.5,193.5h9.8v1.7h-7.9v13h7.2v1.7h-7.2v14.1h-1.9V193.5z"/>
	<path class="st0" d="M498.2,212.8v-0.4c0-7.2,3-11.6,6.4-11.6c3.4,0,6.3,4.4,6.3,11.6v0.4c0,7.2-3,11.6-6.4,11.6
		C501.2,224.4,498.2,220,498.2,212.8z M509.1,212.8v-0.4c0-6-2.1-9.9-4.6-9.9c-2.5,0-4.6,3.9-4.6,9.9v0.4c0,6,2.1,9.9,4.6,9.9
		C507.1,222.7,509.1,218.8,509.1,212.8z"/>
	<path class="st0" d="M514.8,193.2h1.8v30.9h-1.8V193.2z"/>
	<path class="st0" d="M521.7,193.2h1.8v30.9h-1.8V193.2z"/>
	<path class="st0" d="M527.4,212.8v-0.4c0-7.2,3-11.6,6.4-11.6c3.4,0,6.3,4.4,6.3,11.6v0.4c0,7.2-3,11.6-6.4,11.6
		C530.4,224.4,527.4,220,527.4,212.8z M538.3,212.8v-0.4c0-6-2.1-9.9-4.6-9.9c-2.5,0-4.6,3.9-4.6,9.9v0.4c0,6,2.1,9.9,4.6,9.9
		C536.3,222.7,538.3,218.8,538.3,212.8z"/>
	<path class="st0" d="M542,201.2h1.9l3.6,19.9l3.8-19.9h1.6l3.7,19.9l3.7-19.9h1.8l-4.7,23h-1.6l-3.8-19.3l-3.7,19.3h-1.6L542,201.2
		z"/>
	<path class="st0" d="M564,213v-0.4c0-7.9,2.9-11.8,6.2-11.8c3.3,0,5.9,4.1,5.9,11.2v1.4h-10.2c0.1,6.2,2.6,9.3,5.6,9.3
		c1.4,0,2.4-0.3,3.9-1.4l0.2,1.9c-1.6,0.9-2.6,1.2-4.4,1.2C567.4,224.4,564,220.6,564,213z M574.3,211.8c0-5.3-1.7-9.3-4.1-9.3
		c-2.4,0-4.2,3.2-4.4,9.3H574.3z"/>
	<path class="st0" d="M579.8,201.2h1.8v3.4c0.9-2.1,2.6-3.8,5.3-3.6v2h-0.1c-2.8,0-5.2,1.8-5.2,5.8v15.4h-1.8V201.2z"/>
	<path class="st0" d="M588.2,228.5c3.5-3.4,6.1-8.6,6.1-17.1c0-8.6-2.6-13.7-6.1-17.1v-1.5c4.5,3.3,7.9,9.5,7.9,18.6
		c0,9.2-3.3,15.4-7.9,18.6V228.5z"/>
	<path class="st0" d="M608.7,219.7v4.4H607v-30.9h1.8v12.3c0.9-2.6,2.4-4.8,4.7-4.8c3.1,0,5.9,4,5.9,11.4v0.8
		c0,7.3-2.8,11.4-5.9,11.4C611.2,224.4,609.6,222.3,608.7,219.7z M617.5,213v-0.7c0-6.3-2-9.8-4.3-9.8c-2.3,0-4.6,3.5-4.6,9.6v1.1
		c0,6.2,2.3,9.6,4.6,9.6C615.6,222.8,617.5,219.3,617.5,213z"/>
	<path class="st0" d="M623.2,193.2h2v3.1h-2V193.2z M623.3,201.2h1.8v22.9h-1.8V201.2z"/>
	<path class="st0" d="M629,213v-0.4c0-7.9,2.9-11.8,6.2-11.8c3.3,0,5.9,4.1,5.9,11.2v1.4h-10.2c0.1,6.2,2.6,9.3,5.6,9.3
		c1.4,0,2.4-0.3,3.9-1.4l0.2,1.9c-1.6,0.9-2.6,1.2-4.4,1.2C632.4,224.4,629,220.6,629,213z M639.3,211.8c0-5.3-1.7-9.3-4.1-9.3
		c-2.4,0-4.2,3.2-4.4,9.3H639.3z"/>
	<path class="st0" d="M645.3,220.2v-17.4h-2.1v-1.7h2.1v-6.5h1.8v6.5h3.6v1.7h-3.6V220c0,2,0.9,2.5,2.4,2.5c0.4,0,1-0.1,1.4-0.2v1.7
		c-0.4,0.2-1.1,0.3-1.5,0.3C646.8,224.2,645.3,223.2,645.3,220.2z"/>
	<path class="st0" d="M652.9,213v-0.4c0-7.9,2.9-11.8,6.2-11.8c3.3,0,5.9,4.1,5.9,11.2v1.4h-10.2c0.1,6.2,2.6,9.3,5.6,9.3
		c1.4,0,2.4-0.3,3.9-1.4l0.2,1.9c-1.6,0.9-2.6,1.2-4.4,1.2C656.3,224.4,652.9,220.6,652.9,213z M663.2,211.8c0-5.3-1.7-9.3-4.1-9.3
		c-2.4,0-4.2,3.2-4.4,9.3H663.2z"/>
	<path class="st0" d="M669.2,220.2v-17.4H667v-1.7h2.1v-6.5h1.8v6.5h3.6v1.7H671V220c0,2,0.9,2.5,2.4,2.5c0.4,0,1-0.1,1.4-0.2v1.7
		c-0.4,0.2-1.1,0.3-1.5,0.3C670.7,224.2,669.2,223.2,669.2,220.2z"/>
	<path class="st0" d="M153.9,266.5v-1.9c1.5,0.8,3.1,1.3,4.6,1.3c1.9,0,3.4-1.3,3.4-3.4v-0.1c0-1.6-0.9-3.2-3.6-5.8
		c-3.3-3.2-4.4-5-4.4-7.3v-0.1c0-3.2,2.4-5,5.1-5c1.5,0,2.5,0.2,3.7,0.7v1.9c-1.3-0.7-2.5-1-3.8-1c-1.8,0-3.2,1.2-3.2,3.2v0.1
		c0,1.7,0.9,2.9,3.6,5.6c3.2,3.2,4.4,5.1,4.4,7.5v0.1c0,3.2-2.6,5.2-5.3,5.2C156.6,267.6,155.3,267.2,153.9,266.5z"/>
	<path class="st0" d="M166.1,256.3v-0.4c0-7.9,2.9-11.8,6.2-11.8c3.3,0,5.9,4.1,5.9,11.2v1.4h-10.2c0.1,6.2,2.6,9.3,5.6,9.3
		c1.4,0,2.4-0.3,3.9-1.4l0.2,1.9c-1.6,0.9-2.6,1.2-4.4,1.2C169.5,267.6,166.1,263.9,166.1,256.3z M176.4,255c0-5.3-1.7-9.3-4.1-9.3
		c-2.4,0-4.2,3.2-4.4,9.3H176.4z"/>
	<path class="st0" d="M182.1,236.4h2v3.1h-2V236.4z M182.2,244.4h1.8v22.9h-1.8V244.4z"/>
	<path class="st0" d="M189.4,263.5v-17.4h-2.1v-1.7h2.1v-6.5h1.8v6.5h3.6v1.7h-3.6v17.1c0,2,0.9,2.5,2.4,2.5c0.4,0,1-0.1,1.4-0.2
		v1.7c-0.4,0.2-1.1,0.3-1.5,0.3C191,267.5,189.4,266.4,189.4,263.5z"/>
	<path class="st0" d="M204.3,266l7.2-15.1c1.3-2.8,2.1-4.9,2.1-7.6c0-3.1-1.7-5-4.2-5c-1.8,0-3.1,0.6-4.4,1.4v-2.1
		c1.2-0.7,2.6-1.3,4.5-1.3c3.7,0,6,2.7,6,6.7v0.2c0,3-0.9,5.3-2.5,8.6l-6.4,13.5h9.2v1.9h-11.5V266z"/>
	<path class="st0" d="M219,252.4v-0.7c0-10.8,2.6-15.3,6.3-15.3s6.3,4.4,6.3,15.2v0.7c0,10.8-2.6,15.3-6.3,15.3S219,263.2,219,252.4
		z M229.7,252.4v-0.7c0-9.1-1.8-13.6-4.4-13.6s-4.4,4.4-4.4,13.5v0.7c0,9.1,1.8,13.6,4.4,13.6S229.7,261.5,229.7,252.4z"/>
	<path class="st0" d="M236.9,239.1l-3.1,1.9v-2.2l3.3-2.1h1.7v30.5h-1.8V239.1z"/>
	<path class="st0" d="M243.2,266.9V265c0.9,0.4,1.9,0.9,3.6,0.9c3,0,5.4-3.3,5.4-8v-0.2c0-5.1-2.3-6.8-4.7-6.8
		c-1.3,0-2.1,0.3-2.9,0.6l-1.3-0.9l0.6-13.8h9.1v1.9h-7.5l-0.5,10.9c0.8-0.3,1.5-0.5,2.6-0.5c3.4,0,6.4,2.5,6.4,8.6v0.2
		c0,5.8-3.1,9.9-7.3,9.9C245,267.7,244,267.3,243.2,266.9z"/>
	<path class="st0" d="M264.1,236.8h5.2v25.5h5.5v5.1h-10.8V236.8z"/>
	<path class="st0" d="M276.9,236.5h5.1v5.1h-5.1V236.5z M276.9,243.9h5.1v23.4h-5.1V243.9z"/>
	<path class="st0" d="M283.8,243.9h5l2.4,15.2l2.4-15.2h4.9l-4.7,23.5h-5.2L283.8,243.9z"/>
	<path class="st0" d="M298.9,256.2v-1.1c0-7.5,3.2-11.5,7-11.5c4,0,6.5,4.1,6.5,11.7v2.7H304c0.3,3.7,1.8,4.9,3.5,4.9
		c1.5,0,2.5-0.7,4-1.7l0.4,4.7c-1.8,1.2-3.1,1.8-5.1,1.8C302.5,267.7,298.9,263.8,298.9,256.2z M307.6,253.9c0-3.9-0.6-5.8-1.8-5.8
		c-1.2,0-1.9,1.7-2,5.8H307.6z"/>
	<path class="st0" d="M314.7,251.2h11v5.2h-11V251.2z"/>
	<path class="st0" d="M326.4,236.8h5.3l2.8,19.9l2.8-19.9h5.1l-5.4,30.6h-5.4L326.4,236.8z"/>
	<path class="st0" d="M344,236.5h5.1v5.1H344V236.5z M344,243.9h5.1v23.4H344V243.9z"/>
	<path class="st0" d="M351.6,256.7v-2.1c0-8.3,2.1-11.1,4.9-11.1c2.2,0,3.3,1.9,4,3.3v-10.2h5.1v30.8h-5.1v-2.9
		c-0.7,1.4-1.8,3.4-4,3.4C353.7,267.7,351.6,265.1,351.6,256.7z M360.5,256.4v-1.6c0-4.1-0.7-6.4-2-6.4c-1.3,0-1.9,2.3-1.9,6.4v1.6
		c0,4.2,0.6,6.4,1.9,6.4C359.8,262.8,360.5,260.6,360.5,256.4z"/>
	<path class="st0" d="M367.8,256.2v-1.1c0-7.5,3.2-11.5,7-11.5c4,0,6.5,4.1,6.5,11.7v2.7h-8.4c0.3,3.7,1.8,4.9,3.5,4.9
		c1.5,0,2.5-0.7,4-1.7l0.4,4.7c-1.8,1.2-3.1,1.8-5.1,1.8C371.4,267.7,367.8,263.8,367.8,256.2z M376.6,253.9c0-3.9-0.6-5.8-1.8-5.8
		c-1.2,0-1.9,1.7-2,5.8H376.6z"/>
	<path class="st0" d="M382.9,256.3V255c0-7.5,3-11.4,7.1-11.4c4.1,0,7.1,3.9,7.1,11.4v1.4c0,7.5-3,11.4-7.1,11.4
		C385.9,267.7,382.9,263.9,382.9,256.3z M392.1,256.4v-1.6c0-4.6-0.8-6.7-2.1-6.7c-1.3,0-2.1,2.1-2.1,6.7v1.6c0,4.5,0.8,6.7,2.1,6.7
		C391.3,263.2,392.1,261,392.1,256.4z"/>
	<path class="st0" d="M406.9,248.1h-1.4v-4.2h1.4v-1.7c0-1.9,0.5-3.3,1.4-4.3c1-1,2.5-1.5,4.4-1.5c0.9,0,1.4,0,1.9,0.2v4.3
		c-0.2,0-0.3,0-0.6,0c-1.2,0-2,0.7-2,2.1v0.9h2.6v4.2H412v19.2h-5.1V248.1z"/>
	<path class="st0" d="M416.1,261.6v-17.7h5.1v16.5c0,1.7,0.6,2.7,1.7,2.7c1,0,1.8-1,1.8-2.7v-16.5h5.1v23.4h-5.1v-2.8
		c-0.9,1.8-2.1,3.2-4.1,3.2C417.6,267.7,416.1,265.2,416.1,261.6z M417.5,237.5h4.5v4.7h-4.5V237.5z M423.6,237.5h4.5v4.7h-4.5
		V237.5z"/>
	<path class="st0" d="M432.4,243.9h5.1v2.9c0.7-2,1.8-3.3,3.7-3.2v6.2h-0.1c-2.4,0-3.6,1.7-3.6,5v12.5h-5.1V243.9z"/>
	<path class="st0" d="M449.8,261.6v-17.7h5.1v16.5c0,1.7,0.6,2.7,1.7,2.7c1,0,1.8-1,1.8-2.7v-16.5h5.1v23.4h-5.1v-2.8
		c-0.9,1.8-2.1,3.2-4.1,3.2C451.3,267.7,449.8,265.2,449.8,261.6z"/>
	<path class="st0" d="M466.2,243.9h5.1v2.8c0.9-1.8,2.1-3.2,4.1-3.2c2.9,0,4.4,2.5,4.4,6.1v17.7h-5.1v-16.5c0-1.7-0.6-2.7-1.7-2.7
		s-1.8,1-1.8,2.7v16.5h-5.1V243.9z"/>
	<path class="st0" d="M481.7,266.6v-5.1c1.7,0.9,3.2,1.5,4.3,1.5c1.2,0,1.9-0.7,1.9-1.9c0-1-0.4-1.7-2.6-3.9
		c-2.3-2.3-3.9-4.4-3.9-7.4v-0.1c0-3.9,2.6-6.3,6.5-6.3c1.4,0,2.5,0.2,3.8,0.6v5.1c-1.1-0.6-2.3-1-3.5-1c-1.2,0-1.9,0.7-1.9,1.6
		c0,0.9,0.4,1.5,2.7,3.9c2.8,2.8,3.7,4.7,3.7,7.3v0.1c0,4.1-2.8,6.6-6.4,6.6C484.9,267.7,483.2,267.3,481.7,266.6z"/>
	<path class="st0" d="M494,256.2v-1.1c0-7.5,3.2-11.5,7-11.5c4,0,6.5,4.1,6.5,11.7v2.7h-8.4c0.3,3.7,1.8,4.9,3.5,4.9
		c1.5,0,2.5-0.7,4-1.7l0.4,4.7c-1.8,1.2-3.1,1.8-5.1,1.8C497.6,267.7,494,263.8,494,256.2z M502.8,253.9c0-3.9-0.6-5.8-1.8-5.8
		c-1.2,0-1.9,1.7-2,5.8H502.8z"/>
	<path class="st0" d="M509.6,243.9h5.1v2.9c0.7-2,1.8-3.3,3.7-3.2v6.2h-0.1c-2.4,0-3.6,1.7-3.6,5v12.5h-5.1V243.9z"/>
	<path class="st0" d="M519.1,256.2v-1.1c0-7.5,3.2-11.5,7-11.5c4,0,6.5,4.1,6.5,11.7v2.7h-8.4c0.3,3.7,1.8,4.9,3.5,4.9
		c1.5,0,2.5-0.7,4-1.7l0.4,4.7c-1.8,1.2-3.1,1.8-5.1,1.8C522.7,267.7,519.1,263.8,519.1,256.2z M527.8,253.9c0-3.9-0.6-5.8-1.8-5.8
		c-1.2,0-1.9,1.7-2,5.8H527.8z"/>
	<path class="st0" d="M541.6,236.8h5.4c2.8,0,5.1,0.8,6.8,2.4c1.6,1.6,2.5,4,2.5,7.3v0.4c0,4-1.5,6.5-3.5,8l4,12.4h-5.6l-3.4-10.6
		h-1v10.6h-5.2V236.8z M547,251.9c2.3,0,3.9-1.4,3.9-4.9v-0.3c0-3.8-1.8-4.8-4.1-4.8h-0.1v10.1H547z"/>
	<path class="st0" d="M557.5,256.2v-1.1c0-7.5,3.2-11.5,7-11.5c4,0,6.5,4.1,6.5,11.7v2.7h-8.4c0.3,3.7,1.8,4.9,3.5,4.9
		c1.5,0,2.5-0.7,4-1.7l0.4,4.7c-1.8,1.2-3.1,1.8-5.1,1.8C561.1,267.7,557.5,263.8,557.5,256.2z M566.2,253.9c0-3.9-0.6-5.8-1.8-5.8
		c-1.2,0-1.9,1.7-2,5.8H566.2z"/>
	<path class="st0" d="M573,243.9h5.1v2.9c0.7-1.4,1.8-3.4,4-3.4c2.7,0,4.9,2.7,4.9,11.1v2.1c0,8.3-2.1,11.1-4.9,11.1
		c-2.2,0-3.3-1.9-4-3.3v8.5H573V243.9z M581.9,256.4v-1.6c0-4.2-0.6-6.4-1.9-6.4c-1.3,0-2,2.2-2,6.4v1.6c0,4.1,0.7,6.4,2,6.4
		C581.3,262.8,581.9,260.5,581.9,256.4z"/>
	<path class="st0" d="M589,256.3V255c0-7.5,3-11.4,7.1-11.4c4.1,0,7.1,3.9,7.1,11.4v1.4c0,7.5-3,11.4-7.1,11.4
		C592,267.7,589,263.9,589,256.3z M598.2,256.4v-1.6c0-4.6-0.8-6.7-2.1-6.7c-1.3,0-2.1,2.1-2.1,6.7v1.6c0,4.5,0.8,6.7,2.1,6.7
		C597.4,263.2,598.2,261,598.2,256.4z"/>
	<path class="st0" d="M605.7,243.9h5.1v2.9c0.7-2,1.8-3.3,3.7-3.2v6.2h-0.1c-2.4,0-3.6,1.7-3.6,5v12.5h-5.1V243.9z"/>
	<path class="st0" d="M617,263.3v-15.2h-1.4v-4.2h1.4v-6h5.1v6h2.7v4.2H622v13.4c0,1,0.5,1.4,1.4,1.4c0.4,0,0.8-0.1,1.2-0.3v4.1
		c-0.8,0.4-2,0.8-3,0.8C619.3,267.6,617,266.8,617,263.3z"/>
	<path class="st0" d="M625.8,256.2v-1.1c0-7.5,3.2-11.5,7-11.5c4,0,6.5,4.1,6.5,11.7v2.7h-8.4c0.3,3.7,1.8,4.9,3.5,4.9
		c1.5,0,2.5-0.7,4-1.7l0.4,4.7c-1.8,1.2-3.1,1.8-5.1,1.8C629.4,267.7,625.8,263.8,625.8,256.2z M634.6,253.9c0-3.9-0.6-5.8-1.8-5.8
		c-1.2,0-1.9,1.7-2,5.8H634.6z"/>
	<path class="st0" d="M641.4,243.9h5.1v2.9c0.7-2,1.8-3.3,3.7-3.2v6.2H650c-2.4,0-3.6,1.7-3.6,5v12.5h-5.1V243.9z"/>
</g>
<g>
	<path class="st0" d="M153.6,288.3h2.9c1.9,0,3.5,0.6,4.6,1.8c0.9,1,1.5,2.4,1.5,4.1v0.1c0,3.4-1.9,5-4.2,5.6
		c2.7,0.6,4.5,2.5,4.5,5.7v0.1c0,3.8-2.8,6-7,6h-2.3V288.3z M161.2,294.2c0-2.8-1.9-4.6-4.7-4.6h-1.4v9.6h1
		C159.4,299.2,161.2,297.3,161.2,294.2L161.2,294.2z M156.2,300.5h-1.1v9.8h0.9c3.4,0,5.6-1.6,5.6-4.7v-0.1
		C161.5,302.3,159.6,300.5,156.2,300.5z"/>
	<path class="st0" d="M165.8,288.3h7.8v1.3h-6.3v9.6h5.8v1.3h-5.8v9.8h6.4v1.3h-7.9V288.3z"/>
	<path class="st0" d="M176.7,288.3h1.4v23.3h-1.4V288.3z"/>
	<path class="st0" d="M181.3,310.6V309c1.6,1,2.9,1.5,4,1.5c1.9,0,3.2-1.3,3.2-3.4V307c0-1.9-0.7-3.2-3.2-6.6
		c-3-4.2-3.8-5.4-3.8-7.6v-0.1c0-2.8,2-4.8,4.5-4.8c1.3,0,2.4,0.4,3.5,1v1.7c-1.2-0.9-2.4-1.3-3.5-1.3c-1.8,0-3,1.3-3,3.3v0.1
		c0,1.7,0.7,3,3.2,6.3c2.8,3.6,3.8,5.4,3.8,7.9v0.1c0,3-2,4.9-4.6,4.9C183.9,311.9,182.7,311.4,181.3,310.6z"/>
	<path class="st0" d="M192.9,288.3h2.8c4.1,0,6.6,2.8,6.6,7.3v0.1c0,4.4-2.4,7.4-6.7,7.4h-1.3v8.6h-1.4V288.3z M195.7,301.7
		c3.3,0,5.1-2.3,5.1-6.1v-0.1c0-3.8-2-6-5.2-6h-1.3v12.1H195.7z"/>
	<path class="st0" d="M205,288.3h1.4v23.3H205V288.3z"/>
	<path class="st0" d="M210.4,288.3h7.8v1.3h-6.3v9.6h5.8v1.3h-5.8v9.8h6.4v1.3h-7.9V288.3z"/>
	<path class="st0" d="M221,288.3h1.4v22h5.8v1.3H221V288.3z"/>
	<path class="st0" d="M230.3,288.3h7.8v1.3h-6.3v9.6h5.8v1.3h-5.8v9.8h6.4v1.3h-7.9V288.3z"/>
	<path class="st0" d="M240.7,294.1h2v2.7h-2V294.1z M240.7,308.9h2v2.7h-2V308.9z"/>
</g>
<g>
	<path class="st0" d="M331.1,287.9h2.8c2.3,0,3.9,1.3,3.9,3.9v0c0,2.6-1.6,3.9-3.8,4h-0.7v3.5h-2.1V287.9z M333.8,293.8
		c1.2,0,1.8-0.8,1.8-1.9c0-1.3-0.6-2-1.8-2h-0.6v3.9H333.8z"/>
	<path class="st0" d="M338.3,296.9v-0.2c0-1.9,1-2.8,2.4-2.8c0.6,0,1,0.1,1.5,0.3v-0.4c0-1-0.6-1.4-1.4-1.4c-0.7,0-1.3,0.3-1.5,0.5
		l-0.6-1.7c0.7-0.4,1.5-0.7,2.5-0.7c1,0,1.8,0.3,2.3,0.8c0.5,0.6,0.8,1.4,0.8,2.5v5.5h-2v-0.9c-0.4,0.7-1,1.1-1.8,1.1
		C339.2,299.5,338.3,298.5,338.3,296.9z M342.2,296.7v-1.1c-0.2-0.1-0.6-0.2-0.9-0.2c-0.6,0-1,0.4-1,1.2v0c0,0.8,0.4,1.1,0.8,1.2
		C341.7,297.9,342.2,297.4,342.2,296.7z"/>
	<path class="st0" d="M345.5,296.9v-6.3h2.1v5.7c0,0.8,0.3,1.3,0.9,1.3s1-0.4,1-1.3v-5.7h2.1v8.7h-2.1v-1.1
		c-0.4,0.7-0.9,1.3-1.9,1.3C346.3,299.5,345.5,298.5,345.5,296.9z"/>
	<path class="st0" d="M353,287.7h2.1v11.6H353V287.7z"/>
	<path class="st0" d="M359.7,287.9h3.2c1.2,0,2.1,0.3,2.8,1c0.6,0.6,0.9,1.5,0.9,2.7v0.1c0,1.6-0.7,2.6-1.7,3.2l2,4.4h-2.4l-1.7-3.9
		h-0.9v3.9h-2.1V287.9z M362.7,293.5c1.2,0,1.8-0.7,1.8-1.8c0-1.2-0.6-1.8-1.8-1.8h-0.8v3.6H362.7z"/>
	<path class="st0" d="M367.4,295.2v-0.3c0-2.7,1.4-4.4,3.3-4.4c1.9,0,3.3,1.6,3.3,4.3v0.3c0,2.7-1.4,4.4-3.3,4.4
		C368.8,299.5,367.4,297.9,367.4,295.2z M372,295.1v-0.2c0-1.6-0.5-2.6-1.3-2.6c-0.8,0-1.3,1-1.3,2.6v0.2c0,1.5,0.5,2.6,1.3,2.6
		C371.6,297.7,372,296.6,372,295.1z"/>
	<path class="st0" d="M375.3,290.6h2.1v1.1c0.4-0.7,0.9-1.3,1.9-1.3c1.3,0,2.1,1,2.1,2.6v6.3h-2.1v-5.7c0-0.8-0.4-1.3-0.9-1.3
		c-0.6,0-1,0.4-1,1.3v5.7h-2.1V290.6z"/>
	<path class="st0" d="M382.4,297.8l3-5.5h-2.9v-1.8h5.3v1.5l-3,5.5h3v1.8h-5.4V297.8z"/>
	<path class="st0" d="M388.9,287.7h2.1v4c0.4-0.7,0.9-1.3,1.9-1.3c1.3,0,2.1,1,2.1,2.6v6.3h-2.1v-5.7c0-0.8-0.4-1.3-0.9-1.3
		c-0.6,0-1,0.4-1,1.3v5.7h-2.1V287.7z"/>
	<path class="st0" d="M396,295.1v-0.3c0-2.7,1.4-4.4,3.2-4.4c2,0,3.1,1.8,3.1,4.5c0,0.1,0,0.4,0,0.9h-4.1c0.1,1.2,0.8,1.8,1.6,1.8
		c0.6,0,1.1-0.4,1.5-0.8l0.9,1.6c-0.8,0.7-1.6,1.1-2.6,1.1C397.5,299.5,396,297.9,396,295.1z M400.2,294.3c0-1.3-0.4-2.1-1.1-2.1
		c-0.6,0-1.1,0.7-1.1,2.1H400.2z"/>
	<path class="st0" d="M403.3,287.7h2.1v2h-2.1V287.7z M403.4,290.6h2.1v8.7h-2.1V290.6z"/>
	<path class="st0" d="M406.9,290.6h2.1v1.1c0.4-0.7,1-1.3,1.9-1.3c0.9,0,1.4,0.5,1.8,1.1c0.5-0.6,1.1-1.1,2-1.1
		c1.2,0,2.2,0.9,2.2,2.6v6.3h-2.1v-5.7c0-0.8-0.3-1.3-0.9-1.3c-0.6,0-0.9,0.5-0.9,1.3v5.7h-2.1v-5.7c0-0.8-0.3-1.3-0.9-1.3
		c-0.6,0-0.9,0.5-0.9,1.3v5.7h-2.1V290.6z"/>
	<path class="st0" d="M418,295.1v-0.3c0-2.7,1.4-4.4,3.2-4.4c2,0,3.1,1.8,3.1,4.5c0,0.1,0,0.4,0,0.9H420c0.1,1.2,0.8,1.8,1.6,1.8
		c0.6,0,1.1-0.4,1.5-0.8l0.9,1.6c-0.8,0.7-1.6,1.1-2.6,1.1C419.5,299.5,418,297.9,418,295.1z M422.2,294.3c0-1.3-0.4-2.1-1.1-2.1
		c-0.6,0-1.1,0.7-1.1,2.1H422.2z"/>
	<path class="st0" d="M425.3,290.6h2.1v1.3c0.3-0.9,0.9-1.5,1.9-1.4v2.4h-0.1c-1.2,0-1.8,0.7-1.8,2.3v4.1h-2.1V290.6z"/>
	<path class="st0" d="M434.7,297.8v1.5h-1.1v-11.6h1.1v4.6c0.4-0.9,1.1-1.7,2.2-1.7c1.4,0,2.6,1.4,2.6,4.3v0.3
		c0,2.9-1.2,4.3-2.6,4.3C435.7,299.5,435.1,298.7,434.7,297.8z M438.4,295.2V295c0-2.2-0.8-3.3-1.8-3.3c-1.1,0-2,1.2-2,3.3v0.3
		c0,2,0.9,3.3,2,3.3C437.6,298.5,438.4,297.3,438.4,295.2z"/>
	<path class="st0" d="M440.7,295.2V295c0-2.8,1.3-4.4,2.9-4.4c1.7,0,2.7,1.7,2.7,4.3v0.6h-4.5c0.1,1.9,1.1,3,2.2,3
		c0.7,0,1.2-0.3,1.6-0.7l0.5,0.8c-0.7,0.6-1.4,0.9-2.3,0.9C442.1,299.5,440.7,298,440.7,295.2z M445.2,294.6c0-1.7-0.7-3-1.7-3
		c-1,0-1.7,1.1-1.8,3H445.2z"/>
	<path class="st0" d="M447.7,301l0.3-0.9c0.6,0.3,1.4,0.6,2.1,0.6c1.3,0,2-0.7,2-2v-1.5c-0.4,0.9-1.1,1.7-2.2,1.7
		c-1.4,0-2.6-1.4-2.6-4v-0.1c0-2.7,1.2-4,2.6-4c1.1,0,1.8,0.8,2.2,1.6v-1.5h1.1v7.8c0,1-0.3,1.7-0.8,2.2c-0.5,0.6-1.3,0.8-2.3,0.8
		C449.4,301.6,448.6,301.4,447.7,301z M452.3,294.8L452.3,294.8c0-2-1-3.1-1.9-3.1c-1,0-1.8,1.1-1.8,3.1v0c0,2,0.8,3.1,1.8,3.1
		C451.3,297.8,452.3,296.7,452.3,294.8z"/>
	<path class="st0" d="M455.3,287.7h1.1v11.6h-1.1V287.7z"/>
	<path class="st0" d="M458,295.2V295c0-2.8,1.3-4.4,2.9-4.4c1.7,0,2.7,1.7,2.7,4.3v0.6h-4.5c0.1,1.9,1.1,3,2.2,3
		c0.7,0,1.2-0.3,1.6-0.7l0.5,0.8c-0.7,0.6-1.4,0.9-2.3,0.9C459.4,299.5,458,298,458,295.2z M462.6,294.6c0-1.7-0.7-3-1.7-3
		c-1,0-1.7,1.1-1.8,3H462.6z"/>
	<path class="st0" d="M465.2,287.8h1.2v1.4h-1.2V287.8z M465.2,290.8h1.1v8.5h-1.1V290.8z"/>
	<path class="st0" d="M468.6,297.6v-5.9h-0.8v-1h0.8v-2.4h1.1v2.4h1.7v1h-1.7v5.7c0,0.8,0.4,1,1,1c0.2,0,0.5-0.1,0.7-0.2v0.9
		c-0.3,0.1-0.6,0.2-1,0.2C469.3,299.4,468.6,299,468.6,297.6z"/>
	<path class="st0" d="M472.3,295.2V295c0-2.8,1.3-4.4,2.9-4.4c1.7,0,2.7,1.7,2.7,4.3v0.6h-4.5c0.1,1.9,1.1,3,2.2,3
		c0.7,0,1.2-0.3,1.6-0.7l0.5,0.8c-0.7,0.6-1.4,0.9-2.3,0.9C473.7,299.5,472.3,298,472.3,295.2z M476.8,294.6c0-1.7-0.7-3-1.7-3
		c-1,0-1.7,1.1-1.8,3H476.8z"/>
	<path class="st0" d="M479.6,297.6v-5.9h-0.8v-1h0.8v-2.4h1.1v2.4h1.7v1h-1.7v5.7c0,0.8,0.4,1,1,1c0.2,0,0.5-0.1,0.7-0.2v0.9
		c-0.3,0.1-0.6,0.2-1,0.2C480.4,299.4,479.6,299,479.6,297.6z"/>
	<path class="st0" d="M487.1,287.9h5.3v1.1h-4.2v4.2h3.7v1.1h-3.7v5.1h-1.1V287.9z"/>
	<path class="st0" d="M494,287.7h1.1v11.6H494V287.7z"/>
	<path class="st0" d="M496.9,296.7v-5.9h1.1v5.6c0,1.4,0.5,2.1,1.5,2.1c1,0,1.7-0.8,1.7-2.2v-5.5h1.1v8.5h-1.1V298
		c-0.4,0.8-1,1.4-2,1.4C497.8,299.5,496.9,298.5,496.9,296.7z M498,288.5h1.1v1.3H498V288.5z M500.1,288.5h1.1v1.3h-1.1V288.5z"/>
	<path class="st0" d="M503.8,295.2V295c0-2.8,1.4-4.3,3.1-4.3c0.8,0,1.3,0.3,1.8,0.7l-0.5,0.9c-0.3-0.3-0.7-0.6-1.3-0.6
		c-1.1,0-2,1.2-2,3.4v0.1c0,2.2,1,3.3,2,3.3c0.5,0,0.9-0.3,1.3-0.7l0.6,0.8c-0.4,0.5-1.1,0.9-1.9,0.9
		C505.1,299.5,503.8,298,503.8,295.2z"/>
	<path class="st0" d="M510.1,287.7h1.1v4.4c0.4-0.8,1-1.4,2-1.4c1.3,0,2.2,1,2.2,2.8v5.9h-1.1v-5.6c0-1.4-0.6-2.1-1.5-2.1
		c-1,0-1.7,0.8-1.7,2.1v5.6h-1.1V287.7z"/>
	<path class="st0" d="M517.5,297.6v-5.9h-0.8v-1h0.8v-2.4h1.1v2.4h1.7v1h-1.7v5.7c0,0.8,0.4,1,1,1c0.2,0,0.5-0.1,0.7-0.2v0.9
		c-0.3,0.1-0.6,0.2-1,0.2C518.2,299.4,517.5,299,517.5,297.6z"/>
	<path class="st0" d="M521.8,287.7h1.1v11.6h-1.1V287.7z"/>
	<path class="st0" d="M524.9,287.8h1.2v1.4h-1.2V287.8z M525,290.8h1.1v8.5H525V290.8z"/>
	<path class="st0" d="M528,290.8h1.1v1.3c0.4-0.8,1-1.4,2-1.4c1.3,0,2.2,1,2.2,2.8v5.9h-1.1v-5.6c0-1.4-0.6-2.1-1.5-2.1
		c-1,0-1.7,0.8-1.7,2.1v5.6H528V290.8z"/>
	<path class="st0" d="M535.1,301l0.3-0.9c0.6,0.3,1.4,0.6,2.1,0.6c1.3,0,2-0.7,2-2v-1.5c-0.4,0.9-1.1,1.7-2.2,1.7
		c-1.4,0-2.6-1.4-2.6-4v-0.1c0-2.7,1.2-4,2.6-4c1.1,0,1.8,0.8,2.2,1.6v-1.5h1.1v7.8c0,1-0.3,1.7-0.8,2.2c-0.5,0.6-1.3,0.8-2.3,0.8
		C536.8,301.6,536,301.4,535.1,301z M539.7,294.8L539.7,294.8c0-2-1-3.1-1.9-3.1c-1,0-1.8,1.1-1.8,3.1v0c0,2,0.8,3.1,1.8,3.1
		C538.7,297.8,539.7,296.7,539.7,294.8z"/>
	<path class="st0" d="M542.2,295.2V295c0-2.8,1.3-4.4,2.9-4.4c1.7,0,2.7,1.7,2.7,4.3v0.6h-4.5c0.1,1.9,1.1,3,2.2,3
		c0.7,0,1.2-0.3,1.6-0.7l0.5,0.8c-0.7,0.6-1.4,0.9-2.3,0.9C543.7,299.5,542.2,298,542.2,295.2z M546.8,294.6c0-1.7-0.7-3-1.7-3
		c-1,0-1.7,1.1-1.8,3H546.8z"/>
	<path class="st0" d="M552,290.8h1.1l1.9,6.9l1.9-6.9h1.1l-2.5,8.6h-1L552,290.8z"/>
	<path class="st0" d="M558.5,295.2V295c0-2.6,1.3-4.3,3-4.3c1.7,0,3,1.7,3,4.3v0.2c0,2.6-1.3,4.3-3,4.3S558.5,297.8,558.5,295.2z
		 M563.5,295.1V295c0-2-0.8-3.4-1.9-3.4c-1.1,0-1.9,1.4-1.9,3.4v0.1c0,2,0.8,3.4,1.9,3.4C562.7,298.5,563.5,297.1,563.5,295.1z"/>
	<path class="st0" d="M566.1,290.8h1.1v1.3c0.4-0.8,1-1.4,2-1.4c1.3,0,2.2,1,2.2,2.8v5.9h-1.1v-5.6c0-1.4-0.6-2.1-1.5-2.1
		c-1,0-1.7,0.8-1.7,2.1v5.6h-1.1V290.8z"/>
	<path class="st0" d="M576.5,287.9h1.1v10.3h3.9v1.1h-5V287.9z"/>
	<path class="st0" d="M582.4,295.2V295c0-2.8,1.3-4.4,2.9-4.4c1.7,0,2.7,1.7,2.7,4.3v0.6h-4.5c0.1,1.9,1.1,3,2.2,3
		c0.7,0,1.2-0.3,1.6-0.7l0.5,0.8c-0.7,0.6-1.4,0.9-2.3,0.9C583.8,299.5,582.4,298,582.4,295.2z M586.9,294.6c0-1.7-0.7-3-1.7-3
		c-1,0-1.7,1.1-1.8,3H586.9z"/>
	<path class="st0" d="M588.7,298.3l0.6-0.8c0.6,0.7,1.3,1,1.9,1c0.8,0,1.4-0.6,1.4-1.3v0c0-0.6-0.4-1.1-1.5-1.8
		c-1.4-0.8-2-1.4-2-2.5v0c0-1.3,1-2.2,2.3-2.2c0.9,0,1.6,0.4,2.2,0.9l-0.6,0.8c-0.5-0.5-1-0.7-1.7-0.7c-0.8,0-1.3,0.5-1.3,1.1v0
		c0,0.6,0.4,1,1.5,1.7c1.5,0.9,2,1.5,2,2.6v0c0,1.4-1.1,2.3-2.4,2.3C590.4,299.5,589.5,299.1,588.7,298.3z"/>
	<path class="st0" d="M596.1,297.8v1.5H595v-11.6h1.1v4.6c0.4-0.9,1.1-1.7,2.2-1.7c1.4,0,2.6,1.4,2.6,4.3v0.3c0,2.9-1.2,4.3-2.6,4.3
		C597.2,299.5,596.5,298.7,596.1,297.8z M599.8,295.2V295c0-2.2-0.8-3.3-1.8-3.3c-1.1,0-2,1.2-2,3.3v0.3c0,2,0.9,3.3,2,3.3
		C599,298.5,599.8,297.3,599.8,295.2z"/>
	<path class="st0" d="M602.1,295.2V295c0-2.6,1.3-4.3,3-4.3c1.7,0,3,1.7,3,4.3v0.2c0,2.6-1.3,4.3-3,4.3S602.1,297.8,602.1,295.2z
		 M607.1,295.1V295c0-2-0.8-3.4-1.9-3.4c-1.1,0-1.9,1.4-1.9,3.4v0.1c0,2,0.8,3.4,1.9,3.4C606.2,298.5,607.1,297.1,607.1,295.1z"/>
	<path class="st0" d="M608.9,298.3l0.6-0.8c0.6,0.7,1.3,1,1.9,1c0.8,0,1.4-0.6,1.4-1.3v0c0-0.6-0.4-1.1-1.5-1.8
		c-1.4-0.8-2-1.4-2-2.5v0c0-1.3,1-2.2,2.3-2.2c0.9,0,1.6,0.4,2.2,0.9l-0.6,0.8c-0.5-0.5-1-0.7-1.7-0.7c-0.8,0-1.3,0.5-1.3,1.1v0
		c0,0.6,0.4,1,1.5,1.7c1.5,0.9,2,1.5,2,2.6v0c0,1.4-1.1,2.3-2.4,2.3C610.6,299.5,609.7,299.1,608.9,298.3z"/>
	<path class="st0" d="M332.2,314.8v1.5h-1.1v-11.6h1.1v4.6c0.4-0.9,1.1-1.7,2.2-1.7c1.4,0,2.6,1.4,2.6,4.3v0.3
		c0,2.9-1.2,4.3-2.6,4.3C333.3,316.5,332.6,315.7,332.2,314.8z M335.9,312.2V312c0-2.2-0.8-3.3-1.8-3.3c-1.1,0-2,1.2-2,3.3v0.3
		c0,2,0.9,3.3,2,3.3C335.1,315.5,335.9,314.4,335.9,312.2z"/>
	<path class="st0" d="M338.6,304.8h1.2v1.4h-1.2V304.8z M338.7,307.8h1.1v8.5h-1.1V307.8z"/>
	<path class="st0" d="M340.9,315.3l0.6-0.8c0.6,0.7,1.3,1,1.9,1c0.8,0,1.4-0.6,1.4-1.3v0c0-0.6-0.4-1.1-1.5-1.8
		c-1.4-0.8-2-1.4-2-2.5v0c0-1.3,1-2.2,2.3-2.2c0.9,0,1.6,0.4,2.2,0.9l-0.6,0.8c-0.5-0.5-1-0.7-1.7-0.7c-0.8,0-1.3,0.5-1.3,1.1v0
		c0,0.6,0.4,1,1.5,1.7c1.5,0.9,2,1.5,2,2.6v0c0,1.4-1.1,2.3-2.4,2.3C342.6,316.5,341.7,316.1,340.9,315.3z"/>
	<path class="st0" d="M350.5,305h2.7c1.1,0,2,0.3,2.6,0.9c0.5,0.5,0.7,1.1,0.7,1.9v0c0,1.6-0.9,2.3-1.9,2.7c1.3,0.4,2.2,1.2,2.2,2.7
		v0.1c0,1.9-1.5,3-3.7,3h-2.6V305z M355.4,307.9c0-1.2-0.8-2-2.2-2h-1.5v4.1h1.4C354.5,310.1,355.4,309.3,355.4,307.9L355.4,307.9z
		 M353.2,311.1h-1.5v4.2h1.5c1.5,0,2.5-0.7,2.5-2.1v0C355.7,311.9,354.8,311.1,353.2,311.1z"/>
	<path class="st0" d="M358.1,313.9v-0.1c0-1.7,1-2.7,2.6-2.7c0.7,0,1.2,0.1,1.7,0.3v-0.7c0-1.2-0.7-1.9-1.8-1.9
		c-0.7,0-1.3,0.3-1.7,0.5l-0.4-0.9c0.6-0.4,1.4-0.6,2.2-0.6c0.8,0,1.5,0.2,2,0.7c0.4,0.4,0.7,1.2,0.7,2.1v5.8h-1.1v-1.2
		c-0.4,0.8-1.1,1.4-2,1.4C359.1,316.5,358.1,315.5,358.1,313.9z M362.3,313.6v-1.4c-0.4-0.2-1-0.3-1.5-0.3c-1.1,0-1.7,0.7-1.7,1.8
		v0.1c0,1.1,0.6,1.8,1.4,1.8C361.6,315.6,362.3,314.7,362.3,313.6z"/>
	<path class="st0" d="M369.2,307.8h1.1l-2.3,8.5c-0.5,1.8-1.1,2.3-2.1,2.3c-0.3,0-0.8-0.1-1.2-0.4l0.3-0.9c0.2,0.1,0.5,0.3,0.8,0.3
		c0.5,0,0.8-0.3,1.1-1.3l-2.5-8.6h1.1l1.9,6.9L369.2,307.8z"/>
	<path class="st0" d="M371,312.2V312c0-2.8,1.3-4.4,2.9-4.4c1.7,0,2.7,1.7,2.7,4.3v0.6H372c0.1,1.9,1.1,3,2.2,3
		c0.7,0,1.2-0.3,1.6-0.7l0.5,0.8c-0.7,0.6-1.4,0.9-2.3,0.9C372.4,316.5,371,315,371,312.2z M375.5,311.7c0-1.7-0.7-3-1.7-3
		c-1,0-1.7,1.1-1.8,3H375.5z"/>
	<path class="st0" d="M378.1,307.8h1.1v1.5c0.4-1,1.2-1.7,2.3-1.6v1.2h0c-1.3,0-2.2,0.9-2.2,2.6v4.8h-1.1V307.8z"/>
	<path class="st0" d="M382.7,307.8h1.1v1.3c0.4-0.8,1-1.4,2-1.4c1.3,0,2.2,1,2.2,2.8v5.9H387v-5.6c0-1.4-0.6-2.1-1.5-2.1
		c-1,0-1.7,0.8-1.7,2.1v5.6h-1.1V307.8z"/>
	<path class="st0" d="M392.9,313.7v-5.9h1.1v5.6c0,1.4,0.5,2.1,1.5,2.1c1,0,1.7-0.8,1.7-2.2v-5.5h1.1v8.5h-1.1v-1.3
		c-0.4,0.8-1,1.4-2,1.4C393.8,316.5,392.9,315.5,392.9,313.7z"/>
	<path class="st0" d="M400.1,307.8h1.1v1.3c0.4-0.8,1-1.4,2-1.4c1.3,0,2.2,1,2.2,2.8v5.9h-1.1v-5.6c0-1.4-0.6-2.1-1.5-2.1
		c-1,0-1.7,0.8-1.7,2.1v5.6h-1.1V307.8z"/>
	<path class="st0" d="M406.9,312.2v-0.3c0-2.9,1.2-4.3,2.6-4.3c1.1,0,1.8,0.8,2.2,1.7v-4.6h1.1v11.6h-1.1v-1.6
		c-0.4,0.9-1.1,1.7-2.2,1.7C408.2,316.5,406.9,315.1,406.9,312.2z M411.8,312.2v-0.3c0-2-0.9-3.3-2-3.3c-1,0-1.8,1.1-1.8,3.3v0.2
		c0,2.2,0.8,3.3,1.8,3.3C410.9,315.5,411.8,314.3,411.8,312.2z"/>
	<path class="st0" d="M418.9,314.8v1.5h-1.1v-11.6h1.1v4.6c0.4-0.9,1.1-1.7,2.2-1.7c1.4,0,2.6,1.4,2.6,4.3v0.3
		c0,2.9-1.2,4.3-2.6,4.3C420,316.5,419.3,315.7,418.9,314.8z M422.6,312.2V312c0-2.2-0.8-3.3-1.8-3.3c-1.1,0-2,1.2-2,3.3v0.3
		c0,2,0.9,3.3,2,3.3C421.8,315.5,422.6,314.4,422.6,312.2z"/>
	<path class="st0" d="M424.9,312.2V312c0-2.8,1.3-4.4,2.9-4.4c1.7,0,2.7,1.7,2.7,4.3v0.6H426c0.1,1.9,1.1,3,2.2,3
		c0.7,0,1.2-0.3,1.6-0.7l0.5,0.8c-0.7,0.6-1.4,0.9-2.3,0.9C426.4,316.5,424.9,315,424.9,312.2z M429.5,311.7c0-1.7-0.7-3-1.7-3
		c-1,0-1.7,1.1-1.8,3H429.5z"/>
	<path class="st0" d="M432.1,307.8h1.1v1.5c0.4-1,1.2-1.7,2.3-1.6v1.2h0c-1.3,0-2.2,0.9-2.2,2.6v4.8h-1.1V307.8z"/>
	<path class="st0" d="M436.7,304.8h1.2v1.4h-1.2V304.8z M436.7,307.8h1.1v8.5h-1.1V307.8z"/>
	<path class="st0" d="M439.4,312.2V312c0-2.8,1.4-4.3,3.1-4.3c0.8,0,1.3,0.3,1.8,0.7l-0.5,0.9c-0.3-0.3-0.7-0.6-1.3-0.6
		c-1.1,0-2,1.2-2,3.4v0.1c0,2.2,1,3.3,2,3.3c0.5,0,0.9-0.3,1.3-0.7l0.6,0.8c-0.4,0.5-1.1,0.9-1.9,0.9
		C440.7,316.5,439.4,315,439.4,312.2z"/>
	<path class="st0" d="M445.7,304.7h1.1v4.4c0.4-0.8,1-1.4,2-1.4c1.3,0,2.2,1,2.2,2.8v5.9H450v-5.6c0-1.4-0.6-2.1-1.5-2.1
		c-1,0-1.7,0.8-1.7,2.1v5.6h-1.1V304.7z"/>
	<path class="st0" d="M453.1,314.7v-5.9h-0.8v-1h0.8v-2.4h1.1v2.4h1.7v1h-1.7v5.7c0,0.8,0.4,1,1,1c0.2,0,0.5-0.1,0.7-0.2v0.9
		c-0.3,0.1-0.6,0.2-1,0.2C453.9,316.4,453.1,316,453.1,314.7z"/>
	<path class="st0" d="M456.8,312.2V312c0-2.8,1.3-4.4,2.9-4.4c1.7,0,2.7,1.7,2.7,4.3v0.6h-4.5c0.1,1.9,1.1,3,2.2,3
		c0.7,0,1.2-0.3,1.6-0.7l0.5,0.8c-0.7,0.6-1.4,0.9-2.3,0.9C458.2,316.5,456.8,315,456.8,312.2z M461.4,311.7c0-1.7-0.7-3-1.7-3
		c-1,0-1.7,1.1-1.8,3H461.4z"/>
	<path class="st0" d="M464.2,314.7v-5.9h-0.8v-1h0.8v-2.4h1.1v2.4h1.7v1h-1.7v5.7c0,0.8,0.4,1,1,1c0.2,0,0.5-0.1,0.7-0.2v0.9
		c-0.3,0.1-0.6,0.2-1,0.2C464.9,316.4,464.2,316,464.2,314.7z"/>
	<path class="st0" d="M471.6,304.7h1.1v11.6h-1.1V304.7z"/>
	<path class="st0" d="M474.7,304.8h1.2v1.4h-1.2V304.8z M474.8,307.8h1.1v8.5h-1.1V307.8z"/>
	<path class="st0" d="M477.3,307.8h1.1l1.9,6.9l1.9-6.9h1.1l-2.5,8.6h-1L477.3,307.8z"/>
	<path class="st0" d="M483.9,312.2V312c0-2.8,1.3-4.4,2.9-4.4c1.7,0,2.7,1.7,2.7,4.3v0.6h-4.5c0.1,1.9,1.1,3,2.2,3
		c0.7,0,1.2-0.3,1.6-0.7l0.5,0.8c-0.7,0.6-1.4,0.9-2.3,0.9C485.3,316.5,483.9,315,483.9,312.2z M488.4,311.7c0-1.7-0.7-3-1.7-3
		c-1,0-1.7,1.1-1.8,3H488.4z"/>
	<path class="st0" d="M494.2,305h5.3v1.1h-4.2v4.2h3.7v1.1h-3.7v5.1h-1.1V305z"/>
	<path class="st0" d="M501.1,304.7h1.1v11.6h-1.1V304.7z"/>
	<path class="st0" d="M504.1,313.7v-5.9h1.1v5.6c0,1.4,0.5,2.1,1.5,2.1c1,0,1.7-0.8,1.7-2.2v-5.5h1.1v8.5h-1.1v-1.3
		c-0.4,0.8-1,1.4-2,1.4C504.9,316.5,504.1,315.5,504.1,313.7z M505.1,305.5h1.1v1.3h-1.1V305.5z M507.2,305.5h1.1v1.3h-1.1V305.5z"
		/>
	<path class="st0" d="M510.9,312.2V312c0-2.8,1.4-4.3,3.1-4.3c0.8,0,1.3,0.3,1.8,0.7l-0.5,0.9c-0.3-0.3-0.7-0.6-1.3-0.6
		c-1.1,0-2,1.2-2,3.4v0.1c0,2.2,1,3.3,2,3.3c0.5,0,0.9-0.3,1.3-0.7l0.6,0.8c-0.4,0.5-1.1,0.9-1.9,0.9
		C512.2,316.5,510.9,315,510.9,312.2z"/>
	<path class="st0" d="M517.2,304.7h1.1v4.4c0.4-0.8,1-1.4,2-1.4c1.3,0,2.2,1,2.2,2.8v5.9h-1.1v-5.6c0-1.4-0.6-2.1-1.5-2.1
		c-1,0-1.7,0.8-1.7,2.1v5.6h-1.1V304.7z"/>
	<path class="st0" d="M524.6,314.7v-5.9h-0.8v-1h0.8v-2.4h1.1v2.4h1.7v1h-1.7v5.7c0,0.8,0.4,1,1,1c0.2,0,0.5-0.1,0.7-0.2v0.9
		c-0.3,0.1-0.6,0.2-1,0.2C525.4,316.4,524.6,316,524.6,314.7z"/>
	<path class="st0" d="M528.9,304.7h1.1v11.6h-1.1V304.7z"/>
	<path class="st0" d="M532,304.8h1.2v1.4H532V304.8z M532.1,307.8h1.1v8.5h-1.1V307.8z"/>
	<path class="st0" d="M535.1,307.8h1.1v1.3c0.4-0.8,1-1.4,2-1.4c1.3,0,2.2,1,2.2,2.8v5.9h-1.1v-5.6c0-1.4-0.6-2.1-1.5-2.1
		c-1,0-1.7,0.8-1.7,2.1v5.6h-1.1V307.8z"/>
	<path class="st0" d="M542.2,318l0.3-0.9c0.6,0.3,1.4,0.6,2.1,0.6c1.3,0,2-0.7,2-2v-1.5c-0.4,0.9-1.1,1.7-2.2,1.7
		c-1.4,0-2.6-1.3-2.6-4v-0.1c0-2.7,1.2-4,2.6-4c1.1,0,1.8,0.8,2.2,1.6v-1.5h1.1v7.8c0,1-0.3,1.7-0.8,2.2c-0.5,0.6-1.3,0.8-2.3,0.8
		C543.9,318.7,543.1,318.4,542.2,318z M546.8,311.8L546.8,311.8c0-2-1-3.1-1.9-3.1c-1,0-1.8,1.1-1.8,3.1v0c0,2,0.8,3.1,1.8,3.1
		C545.8,314.8,546.8,313.7,546.8,311.8z"/>
	<path class="st0" d="M548.9,315.3l0.6-0.8c0.6,0.7,1.3,1,1.9,1c0.8,0,1.4-0.6,1.4-1.3v0c0-0.6-0.4-1.1-1.5-1.8
		c-1.4-0.8-2-1.4-2-2.5v0c0-1.3,1-2.2,2.3-2.2c0.9,0,1.6,0.4,2.2,0.9l-0.6,0.8c-0.5-0.5-1-0.7-1.7-0.7c-0.8,0-1.3,0.5-1.3,1.1v0
		c0,0.6,0.4,1,1.5,1.7c1.5,0.9,2,1.5,2,2.6v0c0,1.4-1.1,2.3-2.4,2.3C550.6,316.5,549.7,316.1,548.9,315.3z"/>
	<path class="st0" d="M555.3,304.7h1.1v7.5l2.8-4.5h1.2l-2.3,3.5l2.4,5h-1.2l-1.9-4l-1,1.5v2.5h-1.1V304.7z"/>
	<path class="st0" d="M561.8,307.8h1.1v1.5c0.4-1,1.2-1.7,2.3-1.6v1.2h0c-1.3,0-2.2,0.9-2.2,2.6v4.8h-1.1V307.8z"/>
	<path class="st0" d="M566.4,304.8h1.2v1.4h-1.2V304.8z M566.5,307.8h1.1v8.5h-1.1V307.8z"/>
	<path class="st0" d="M568.7,315.3l0.6-0.8c0.6,0.7,1.3,1,1.9,1c0.8,0,1.4-0.6,1.4-1.3v0c0-0.6-0.4-1.1-1.5-1.8
		c-1.4-0.8-2-1.4-2-2.5v0c0-1.3,1-2.2,2.3-2.2c0.9,0,1.6,0.4,2.2,0.9l-0.6,0.8c-0.5-0.5-1-0.7-1.7-0.7c-0.8,0-1.3,0.5-1.3,1.1v0
		c0,0.6,0.4,1,1.5,1.7c1.5,0.9,2,1.5,2,2.6v0c0,1.4-1.1,2.3-2.4,2.3C570.4,316.5,569.6,316.1,568.7,315.3z"/>
	<path class="st0" d="M574.7,312.2V312c0-2.8,1.3-4.4,2.9-4.4c1.7,0,2.7,1.7,2.7,4.3v0.6h-4.5c0.1,1.9,1.1,3,2.2,3
		c0.7,0,1.2-0.3,1.6-0.7l0.5,0.8c-0.7,0.6-1.4,0.9-2.3,0.9C576.2,316.5,574.7,315,574.7,312.2z M579.3,311.7c0-1.7-0.7-3-1.7-3
		c-1,0-1.7,1.1-1.8,3H579.3z"/>
	<path class="st0" d="M331.3,322h2.4c2.2,0,3.6,1.4,3.6,3.6v0c0,2.3-1.5,3.7-3.7,3.7h-1.3v4h-1.1V322z M333.7,328.3
		c1.6,0,2.6-1,2.6-2.7v0c0-1.7-1-2.6-2.5-2.6h-1.3v5.3H333.7z"/>
	<path class="st0" d="M338.2,330.9v-0.1c0-1.7,1-2.7,2.6-2.7c0.7,0,1.2,0.1,1.7,0.3v-0.7c0-1.2-0.7-1.9-1.8-1.9
		c-0.7,0-1.3,0.3-1.7,0.5l-0.4-0.9c0.6-0.4,1.4-0.6,2.2-0.6c0.8,0,1.5,0.2,2,0.7c0.4,0.4,0.7,1.2,0.7,2.1v5.8h-1.1v-1.2
		c-0.4,0.8-1.1,1.3-2,1.3C339.2,333.5,338.2,332.5,338.2,330.9z M342.4,330.6v-1.4c-0.4-0.2-1-0.3-1.5-0.3c-1.1,0-1.7,0.7-1.7,1.8
		v0.1c0,1.1,0.6,1.8,1.4,1.8C341.7,332.6,342.4,331.7,342.4,330.6z"/>
	<path class="st0" d="M345.2,330.7v-5.9h1.1v5.6c0,1.4,0.5,2.1,1.5,2.1c1,0,1.7-0.8,1.7-2.2v-5.5h1.1v8.5h-1.1v-1.3
		c-0.4,0.8-1,1.4-2,1.4C346.1,333.5,345.2,332.5,345.2,330.7z"/>
	<path class="st0" d="M352.5,321.7h1.1v11.6h-1.1V321.7z"/>
	<path class="st0" d="M358.9,322h2.7c1.1,0,2.1,0.4,2.7,1c0.6,0.6,0.9,1.4,0.9,2.4v0c0,1.7-0.9,2.8-2.2,3.2l2.5,4.7h-1.3l-2.3-4.4
		c-0.1,0-0.3,0-0.4,0H360v4.4h-1.1V322z M361.2,327.9c2,0,2.8-1,2.8-2.4v0c0-1.6-1-2.4-2.5-2.4H360v4.9H361.2z"/>
	<path class="st0" d="M366.3,329.2V329c0-2.6,1.3-4.3,3-4.3c1.7,0,3,1.7,3,4.3v0.2c0,2.6-1.3,4.3-3,4.3S366.3,331.8,366.3,329.2z
		 M371.2,329.2V329c0-2-0.8-3.4-1.9-3.4c-1.1,0-1.9,1.4-1.9,3.4v0.1c0,2,0.8,3.4,1.9,3.4C370.4,332.5,371.2,331.2,371.2,329.2z"/>
	<path class="st0" d="M373.9,324.8h1.1v1.3c0.4-0.8,1-1.4,2-1.4c1.3,0,2.2,1,2.2,2.8v5.9h-1.1v-5.6c0-1.4-0.6-2.1-1.5-2.1
		c-1,0-1.7,0.8-1.7,2.1v5.6h-1.1V324.8z"/>
	<path class="st0" d="M380.6,332.6l3.7-6.9h-3.5v-0.9h4.7v0.7l-3.6,6.9h3.6v0.9h-4.9V332.6z"/>
	<path class="st0" d="M387,321.7h1.1v4.4c0.4-0.8,1-1.4,2-1.4c1.3,0,2.2,1,2.2,2.8v5.9h-1.1v-5.6c0-1.4-0.6-2.1-1.5-2.1
		c-1,0-1.7,0.8-1.7,2.1v5.6H387V321.7z"/>
	<path class="st0" d="M393.7,329.2v-0.2c0-2.8,1.3-4.4,2.9-4.4c1.7,0,2.7,1.7,2.7,4.3v0.6h-4.5c0.1,1.9,1.1,3,2.2,3
		c0.7,0,1.2-0.3,1.6-0.7l0.5,0.8c-0.7,0.6-1.4,0.9-2.3,0.9C395.2,333.5,393.7,332,393.7,329.2z M398.3,328.7c0-1.7-0.7-3-1.7-3
		c-1,0-1.7,1.1-1.8,3H398.3z"/>
	<path class="st0" d="M400.9,321.8h1.2v1.4h-1.2V321.8z M400.9,324.8h1.1v8.5h-1.1V324.8z"/>
	<path class="st0" d="M404,324.8h1.1v1.3c0.4-0.8,1-1.4,2-1.4c0.8,0,1.5,0.5,1.9,1.4c0.4-0.7,1-1.4,2.1-1.4c1.3,0,2.2,0.9,2.2,2.8
		v5.9h-1.1v-5.6c0-1.4-0.5-2.1-1.4-2.1c-0.9,0-1.6,0.8-1.6,2.2v5.5h-1.1v-5.6c0-1.4-0.5-2.1-1.4-2.1c-0.9,0-1.6,0.9-1.6,2.2v5.5H404
		V324.8z"/>
	<path class="st0" d="M414.8,329.2v-0.2c0-2.8,1.3-4.4,2.9-4.4c1.7,0,2.7,1.7,2.7,4.3v0.6h-4.5c0.1,1.9,1.1,3,2.2,3
		c0.7,0,1.2-0.3,1.6-0.7l0.5,0.8c-0.7,0.6-1.4,0.9-2.3,0.9C416.2,333.5,414.8,332,414.8,329.2z M419.3,328.7c0-1.7-0.7-3-1.7-3
		c-1,0-1.7,1.1-1.8,3H419.3z"/>
	<path class="st0" d="M421.9,324.8h1.1v1.5c0.4-1,1.2-1.7,2.3-1.6v1.2h0c-1.3,0-2.2,0.9-2.2,2.6v4.8h-1.1V324.8z"/>
	<path class="st0" d="M429.2,332.6l3.7-6.9h-3.5v-0.9h4.7v0.7l-3.6,6.9h3.6v0.9h-4.9V332.6z"/>
	<path class="st0" d="M435.5,331.7h1.4v1.6h-1.4V331.7z"/>
	<path class="st0" d="M439.7,323h-2.4V322h6v1.1h-2.4v10.3h-1.1V323z"/>
	<path class="st0" d="M443.6,331.7h1.4v1.6h-1.4V331.7z"/>
	<path class="st0" d="M449.9,324.8h1.1v1.3c0.4-0.8,1-1.4,2-1.4c0.8,0,1.5,0.5,1.9,1.4c0.4-0.7,1-1.4,2.1-1.4c1.3,0,2.2,0.9,2.2,2.8
		v5.9h-1.1v-5.6c0-1.4-0.5-2.1-1.4-2.1c-0.9,0-1.6,0.8-1.6,2.2v5.5H454v-5.6c0-1.4-0.5-2.1-1.4-2.1c-0.9,0-1.6,0.9-1.6,2.2v5.5h-1.1
		V324.8z"/>
	<path class="st0" d="M461.1,321.8h1.2v1.4h-1.2V321.8z M461.1,324.8h1.1v8.5h-1.1V324.8z"/>
	<path class="st0" d="M464.5,331.7v-5.9h-0.8v-1h0.8v-2.4h1.1v2.4h1.7v1h-1.7v5.7c0,0.8,0.4,1,1,1c0.2,0,0.5-0.1,0.7-0.2v0.9
		c-0.3,0.1-0.6,0.2-1,0.2C465.2,333.5,464.5,333,464.5,331.7z"/>
	<path class="st0" d="M471.8,330.7v-5.9h1.1v5.6c0,1.4,0.5,2.1,1.5,2.1c1,0,1.7-0.8,1.7-2.2v-5.5h1.1v8.5H476v-1.3
		c-0.4,0.8-1,1.4-2,1.4C472.6,333.5,471.8,332.5,471.8,330.7z M472.8,322.5h1.1v1.3h-1.1V322.5z M474.9,322.5h1.1v1.3h-1.1V322.5z"
		/>
	<path class="st0" d="M480.1,331.8v1.5H479v-11.6h1.1v4.6c0.4-0.9,1.1-1.7,2.2-1.7c1.4,0,2.6,1.4,2.6,4.3v0.3c0,2.9-1.2,4.3-2.6,4.3
		C481.2,333.5,480.5,332.7,480.1,331.8z M483.8,329.2V329c0-2.2-0.8-3.3-1.8-3.3c-1.1,0-2,1.2-2,3.3v0.3c0,2,0.9,3.3,2,3.3
		C483,332.5,483.8,331.4,483.8,329.2z"/>
	<path class="st0" d="M486.1,329.2v-0.2c0-2.8,1.3-4.4,2.9-4.4c1.7,0,2.7,1.7,2.7,4.3v0.6h-4.5c0.1,1.9,1.1,3,2.2,3
		c0.7,0,1.2-0.3,1.6-0.7l0.5,0.8c-0.7,0.6-1.4,0.9-2.3,0.9C487.5,333.5,486.1,332,486.1,329.2z M490.6,328.7c0-1.7-0.7-3-1.7-3
		c-1,0-1.7,1.1-1.8,3H490.6z"/>
	<path class="st0" d="M493.2,324.8h1.1v1.5c0.4-1,1.2-1.7,2.3-1.6v1.2h0c-1.3,0-2.2,0.9-2.2,2.6v4.8h-1.1V324.8z"/>
	<path class="st0" d="M500.3,332.4l1.1-1.7c0.6,0.5,1.1,0.8,1.8,0.8c0.9,0,1.5-0.7,1.5-1.8v0c0-1.1-0.7-1.7-1.6-1.7
		c-0.4,0-0.8,0.1-1.2,0.3l-1.2-0.8l0.3-5.6h5.3v2h-3.6l-0.1,2.2c0.3-0.1,0.6-0.1,1-0.1c1.6,0,3.1,1,3.1,3.6v0c0,2.4-1.5,3.9-3.6,3.9
		C502.2,333.5,501.1,333.1,500.3,332.4z"/>
	<path class="st0" d="M507.8,327.9v-0.4c0-3.7,1.4-5.7,3.7-5.7c2.3,0,3.7,2,3.7,5.7v0.4c0,3.7-1.4,5.7-3.7,5.7
		C509.2,333.5,507.8,331.6,507.8,327.9z M513,327.8v-0.3c0-2.8-0.7-3.7-1.5-3.7c-0.9,0-1.5,0.9-1.5,3.7v0.3c0,2.8,0.7,3.7,1.5,3.7
		C512.4,331.5,513,330.6,513,327.8z"/>
	<path class="st0" d="M516.3,331h2.3v2.4h-2.3V331z"/>
	<path class="st0" d="M519.8,327.9v-0.4c0-3.7,1.4-5.7,3.7-5.7c2.3,0,3.7,2,3.7,5.7v0.4c0,3.7-1.4,5.7-3.7,5.7
		C521.2,333.5,519.8,331.6,519.8,327.9z M525,327.8v-0.3c0-2.8-0.7-3.7-1.5-3.7c-0.9,0-1.5,0.9-1.5,3.7v0.3c0,2.8,0.7,3.7,1.5,3.7
		C524.3,331.5,525,330.6,525,327.8z"/>
	<path class="st0" d="M528.2,327.9v-0.4c0-3.7,1.4-5.7,3.7-5.7c2.3,0,3.7,2,3.7,5.7v0.4c0,3.7-1.4,5.7-3.7,5.7
		C529.6,333.5,528.2,331.6,528.2,327.9z M533.4,327.8v-0.3c0-2.8-0.7-3.7-1.5-3.7c-0.9,0-1.5,0.9-1.5,3.7v0.3c0,2.8,0.7,3.7,1.5,3.7
		C532.8,331.5,533.4,330.6,533.4,327.8z"/>
	<path class="st0" d="M536.7,327.9v-0.4c0-3.7,1.4-5.7,3.7-5.7c2.3,0,3.7,2,3.7,5.7v0.4c0,3.7-1.4,5.7-3.7,5.7
		C538.1,333.5,536.7,331.6,536.7,327.9z M541.9,327.8v-0.3c0-2.8-0.7-3.7-1.5-3.7c-0.9,0-1.5,0.9-1.5,3.7v0.3c0,2.8,0.7,3.7,1.5,3.7
		C541.2,331.5,541.9,330.6,541.9,327.8z"/>
	<path class="st0" d="M548.4,322h2.8c2.3,0,3.9,1.3,3.9,3.9v0c0,2.6-1.6,3.9-3.8,4h-0.7v3.5h-2.1V322z M551.1,327.9
		c1.2,0,1.8-0.8,1.8-1.9c0-1.3-0.6-2-1.8-2h-0.6v3.9H551.1z"/>
	<path class="st0" d="M555.7,329.2v-0.3c0-2.7,1.4-4.4,3.2-4.4c2,0,3.1,1.8,3.1,4.5c0,0.1,0,0.4,0,0.9h-4.1c0.1,1.2,0.8,1.8,1.6,1.8
		c0.6,0,1.1-0.4,1.5-0.8l0.9,1.6c-0.8,0.7-1.6,1.1-2.6,1.1C557.2,333.5,555.7,331.9,555.7,329.2z M559.9,328.4
		c0-1.3-0.4-2.1-1.1-2.1c-0.6,0-1.1,0.7-1.1,2.1H559.9z"/>
	<path class="st0" d="M563,324.6h2.1v1.3c0.3-0.9,0.9-1.5,1.9-1.4v2.4h-0.1c-1.2,0-1.8,0.7-1.8,2.3v4.1H563V324.6z"/>
	<path class="st0" d="M568,321.7h2.1v2H568V321.7z M568,324.6h2.1v8.7H568V324.6z"/>
	<path class="st0" d="M570.9,332.4l1-1.6c0.6,0.5,1.2,0.9,1.8,0.9c0.6,0,0.8-0.3,0.8-0.7v0c0-0.5-0.4-0.7-1.3-1.3
		c-1.2-0.7-1.9-1.4-1.9-2.6v0c0-1.6,1.1-2.6,2.7-2.6c0.8,0,1.6,0.3,2.4,0.9l-0.9,1.6c-0.4-0.3-0.9-0.7-1.5-0.7
		c-0.5,0-0.8,0.3-0.8,0.6v0c0,0.4,0.4,0.7,1.3,1.3c1.3,0.8,1.9,1.5,1.9,2.6v0c0,1.7-1.2,2.6-2.7,2.6
		C572.9,333.5,571.9,333.2,570.9,332.4z"/>
	<path class="st0" d="M577.2,329.2v-0.4c0-2.7,1.4-4.3,3.4-4.3c0.8,0,1.4,0.3,2.1,0.8l-1,1.8c-0.3-0.3-0.6-0.6-1.1-0.6
		c-0.8,0-1.4,0.9-1.4,2.5v0.1c0,1.6,0.4,2.5,1.4,2.5c0.5,0,0.8-0.3,1.1-0.7l0.9,1.6c-0.6,0.6-1.3,1-2.2,1
		C578.5,333.5,577.2,331.9,577.2,329.2z"/>
	<path class="st0" d="M583.2,329.2v-0.3c0-2.7,1.4-4.4,3.3-4.4c1.9,0,3.3,1.6,3.3,4.3v0.3c0,2.7-1.4,4.4-3.3,4.4
		C584.6,333.5,583.2,331.9,583.2,329.2z M587.8,329.1v-0.2c0-1.6-0.5-2.6-1.3-2.6c-0.8,0-1.3,1-1.3,2.6v0.2c0,1.5,0.5,2.6,1.3,2.6
		C587.3,331.7,587.8,330.7,587.8,329.1z"/>
	<path class="st0" d="M591,324.6h2.1v1.2c0.4-0.6,0.9-1.3,1.9-1.3c1.4,0,2.5,1.2,2.5,4.3v0.5c0,3-1.2,4.3-2.5,4.3
		c-1,0-1.5-0.7-1.9-1.3v3.4H591V324.6z M595.5,329.1v-0.3c0-1.5-0.5-2.4-1.2-2.4s-1.2,0.9-1.2,2.4v0.3c0,1.5,0.5,2.4,1.2,2.4
		S595.5,330.7,595.5,329.1z"/>
	<path class="st0" d="M598.5,329.2v-0.3c0-2.7,1.4-4.4,3.2-4.4c2,0,3.1,1.8,3.1,4.5c0,0.1,0,0.4,0,0.9h-4.1c0.1,1.2,0.8,1.8,1.6,1.8
		c0.6,0,1.1-0.4,1.5-0.8l0.9,1.6c-0.8,0.7-1.6,1.1-2.6,1.1C600.1,333.5,598.5,331.9,598.5,329.2z M602.8,328.4
		c0-1.3-0.4-2.1-1.1-2.1c-0.6,0-1.1,0.7-1.1,2.1H602.8z"/>
	<path class="st0" d="M605.8,327.3h4.4v2.1h-4.4V327.3z"/>
	<path class="st0" d="M610.6,322h2.3l1.7,7.6l1.7-7.6h2.2l-2.9,11.4h-2.1L610.6,322z"/>
	<path class="st0" d="M619.3,321.7h2.1v2h-2.1V321.7z M619.3,324.6h2.1v8.7h-2.1V324.6z"/>
	<path class="st0" d="M622.7,329.2v-0.3c0-2.7,1.4-4.4,3.2-4.4c2,0,3.1,1.8,3.1,4.5c0,0.1,0,0.4,0,0.9h-4.1c0.1,1.2,0.8,1.8,1.6,1.8
		c0.6,0,1.1-0.4,1.5-0.8l0.9,1.6c-0.8,0.7-1.6,1.1-2.6,1.1C624.2,333.5,622.7,331.9,622.7,329.2z M626.9,328.4
		c0-1.3-0.4-2.1-1.1-2.1c-0.6,0-1.1,0.7-1.1,2.1H626.9z"/>
	<path class="st0" d="M629.4,324.6h2.1l0.9,5l1-5h1.7l1,5l0.9-5h2.1l-1.9,8.8h-2l-1.1-5l-1.1,5h-2L629.4,324.6z"/>
	<path class="st0" d="M639.5,329.2v-0.3c0-2.7,1.4-4.4,3.2-4.4c2,0,3.1,1.8,3.1,4.5c0,0.1,0,0.4,0,0.9h-4.1c0.1,1.2,0.8,1.8,1.6,1.8
		c0.6,0,1.1-0.4,1.5-0.8l0.9,1.6c-0.8,0.7-1.6,1.1-2.6,1.1C641.1,333.5,639.5,331.9,639.5,329.2z M643.8,328.4
		c0-1.3-0.4-2.1-1.1-2.1c-0.6,0-1.1,0.7-1.1,2.1H643.8z"/>
	<path class="st0" d="M646.9,324.6h2.1v1.3c0.3-0.9,0.9-1.5,1.9-1.4v2.4h-0.1c-1.2,0-1.8,0.7-1.8,2.3v4.1h-2.1V324.6z"/>
	<path class="st0" d="M651.8,324.6h2.1v1.1c0.4-0.7,0.9-1.3,1.9-1.3c1.3,0,2.1,1,2.1,2.6v6.3h-2.1v-5.7c0-0.8-0.4-1.3-0.9-1.3
		c-0.6,0-1,0.4-1,1.3v5.7h-2.1V324.6z"/>
	<path class="st0" d="M658.9,334.8c0.8-0.3,1.1-0.7,1-1.4h-0.6v-1.6h1.4v1.4c0,1.3-0.5,1.9-1.6,2.2L658.9,334.8z"/>
	<path class="st0" d="M331.3,339h2.7c1.1,0,2.1,0.4,2.7,1c0.6,0.6,0.9,1.4,0.9,2.4v0c0,1.7-0.9,2.8-2.2,3.2l2.5,4.7h-1.3l-2.3-4.4
		c-0.1,0-0.3,0-0.4,0h-1.4v4.4h-1.1V339z M333.6,344.9c2,0,2.8-1,2.8-2.4v0c0-1.6-1-2.4-2.5-2.4h-1.5v4.9H333.6z"/>
	<path class="st0" d="M338.7,346.2v-0.2c0-2.8,1.3-4.4,2.9-4.4c1.7,0,2.7,1.7,2.7,4.3v0.6h-4.5c0.1,1.9,1.1,3,2.2,3
		c0.7,0,1.2-0.3,1.6-0.7l0.5,0.8c-0.7,0.6-1.4,0.9-2.3,0.9C340.1,350.5,338.7,349,338.7,346.2z M343.3,345.7c0-1.7-0.7-3-1.7-3
		c-1,0-1.7,1.1-1.8,3H343.3z"/>
	<path class="st0" d="M345.8,341.8h1.1v1.6c0.4-0.9,1.1-1.7,2.2-1.7c1.4,0,2.6,1.4,2.6,4.3v0.3c0,2.9-1.2,4.3-2.6,4.3
		c-1.1,0-1.8-0.8-2.2-1.7v3.8h-1.1V341.8z M350.6,346.2V346c0-2.2-0.8-3.3-1.8-3.3c-1.1,0-2,1.2-2,3.3v0.3c0,2,0.9,3.3,2,3.3
		C349.8,349.5,350.6,348.4,350.6,346.2z"/>
	<path class="st0" d="M352.9,346.2V346c0-2.6,1.3-4.3,3-4.3c1.7,0,3,1.7,3,4.3v0.2c0,2.6-1.3,4.3-3,4.3S352.9,348.8,352.9,346.2z
		 M357.8,346.2V346c0-2-0.8-3.4-1.9-3.4c-1.1,0-1.9,1.3-1.9,3.4v0.1c0,2,0.8,3.4,1.9,3.4C357,349.5,357.8,348.2,357.8,346.2z"/>
	<path class="st0" d="M360.5,341.8h1.1v1.5c0.4-1,1.2-1.7,2.3-1.6v1.2h0c-1.3,0-2.2,0.9-2.2,2.6v4.8h-1.1V341.8z"/>
	<path class="st0" d="M365.4,348.7v-5.9h-0.8v-1h0.8v-2.4h1.1v2.4h1.7v1h-1.7v5.7c0,0.8,0.4,1,1,1c0.2,0,0.5-0.1,0.7-0.2v0.9
		c-0.3,0.1-0.6,0.2-1,0.2C366.2,350.5,365.4,350,365.4,348.7z"/>
	<path class="st0" d="M369.1,346.2v-0.2c0-2.8,1.3-4.4,2.9-4.4c1.7,0,2.7,1.7,2.7,4.3v0.6h-4.5c0.1,1.9,1.1,3,2.2,3
		c0.7,0,1.2-0.3,1.6-0.7l0.5,0.8c-0.7,0.6-1.4,0.9-2.3,0.9C370.5,350.5,369.1,349,369.1,346.2z M373.6,345.7c0-1.7-0.7-3-1.7-3
		c-1,0-1.7,1.1-1.8,3H373.6z"/>
	<path class="st0" d="M376.2,341.8h1.1v1.5c0.4-1,1.2-1.7,2.3-1.6v1.2h0c-1.3,0-2.2,0.9-2.2,2.6v4.8h-1.1V341.8z"/>
	<path class="st0" d="M384,341.8h1.1v1.3c0.4-0.8,1-1.4,2-1.4c0.8,0,1.5,0.5,1.9,1.4c0.4-0.7,1-1.4,2.1-1.4c1.3,0,2.2,0.9,2.2,2.8
		v5.9h-1.1v-5.6c0-1.4-0.5-2.1-1.4-2.1c-0.9,0-1.6,0.8-1.6,2.2v5.5h-1.1v-5.6c0-1.4-0.5-2.1-1.4-2.1c-0.9,0-1.6,0.9-1.6,2.2v5.5H384
		V341.8z"/>
	<path class="st0" d="M395.1,338.8h1.2v1.4h-1.2V338.8z M395.2,341.8h1.1v8.5h-1.1V341.8z"/>
	<path class="st0" d="M398.5,348.7v-5.9h-0.8v-1h0.8v-2.4h1.1v2.4h1.7v1h-1.7v5.7c0,0.8,0.4,1,1,1c0.2,0,0.5-0.1,0.7-0.2v0.9
		c-0.3,0.1-0.6,0.2-1,0.2C399.3,350.5,398.5,350,398.5,348.7z"/>
	<path class="st0" d="M405.6,346.2v-0.3c0-2.9,1.2-4.3,2.6-4.3c1.1,0,1.8,0.8,2.2,1.7v-4.6h1.1v11.6h-1.1v-1.6
		c-0.4,0.9-1.1,1.7-2.2,1.7C406.8,350.5,405.6,349.1,405.6,346.2z M410.4,346.2v-0.3c0-2-0.9-3.3-2-3.3c-1,0-1.8,1.1-1.8,3.3v0.2
		c0,2.2,0.8,3.3,1.8,3.3C409.5,349.5,410.4,348.3,410.4,346.2z"/>
	<path class="st0" d="M413,346.2v-0.2c0-2.8,1.3-4.4,2.9-4.4c1.7,0,2.7,1.7,2.7,4.3v0.6H414c0.1,1.9,1.1,3,2.2,3
		c0.7,0,1.2-0.3,1.6-0.7l0.5,0.8c-0.7,0.6-1.4,0.9-2.3,0.9C414.4,350.5,413,349,413,346.2z M417.5,345.7c0-1.7-0.7-3-1.7-3
		c-1,0-1.7,1.1-1.8,3H417.5z"/>
	<path class="st0" d="M420.1,341.8h1.1v1.3c0.4-0.8,1-1.4,2-1.4c1.3,0,2.2,1,2.2,2.8v5.9h-1.1v-5.6c0-1.4-0.6-2.1-1.5-2.1
		c-1,0-1.7,0.8-1.7,2.1v5.6h-1.1V341.8z"/>
	<path class="st0" d="M429.7,341.6h2.1l0.9,5l1-5h1.7l1,5l0.9-5h2.1l-1.9,8.8h-2l-1.1-5l-1.1,5h-2L429.7,341.6z"/>
	<path class="st0" d="M439.8,346.2v-0.3c0-2.7,1.4-4.4,3.2-4.4c2,0,3.1,1.8,3.1,4.5c0,0.1,0,0.4,0,0.9h-4.1c0.1,1.2,0.8,1.8,1.6,1.8
		c0.6,0,1.1-0.4,1.5-0.8l0.9,1.6c-0.8,0.7-1.6,1.1-2.6,1.1C441.4,350.5,439.8,348.9,439.8,346.2z M444.1,345.4
		c0-1.3-0.4-2.1-1.1-2.1c-0.6,0-1.1,0.7-1.1,2.1H444.1z"/>
	<path class="st0" d="M447.2,338.7h2.1v11.6h-2.1V338.7z"/>
	<path class="st0" d="M451.1,348.5v-5.1h-0.7v-1.8h0.7v-2.2h2.1v2.2h1.4v1.8h-1.4v4.6c0,0.5,0.2,0.7,0.6,0.7c0.2,0,0.5-0.1,0.7-0.2
		v1.7c-0.4,0.2-0.9,0.4-1.4,0.4C452,350.5,451.1,350.1,451.1,348.5z"/>
	<path class="st0" d="M455.1,341.6h2.1l0.9,5l1-5h1.7l1,5l0.9-5h2.1l-1.9,8.8h-2l-1.1-5l-1.1,5h-2L455.1,341.6z"/>
	<path class="st0" d="M465.2,346.2v-0.3c0-2.7,1.4-4.4,3.2-4.4c2,0,3.1,1.8,3.1,4.5c0,0.1,0,0.4,0,0.9h-4.1c0.1,1.2,0.8,1.8,1.6,1.8
		c0.6,0,1.1-0.4,1.5-0.8l0.9,1.6c-0.8,0.7-1.6,1.1-2.6,1.1C466.8,350.5,465.2,348.9,465.2,346.2z M469.5,345.4
		c0-1.3-0.4-2.1-1.1-2.1c-0.6,0-1.1,0.7-1.1,2.1H469.5z"/>
	<path class="st0" d="M472.6,338.7h2.1v2h-2.1V338.7z M472.6,341.6h2.1v8.7h-2.1V341.6z"/>
	<path class="st0" d="M476.5,348.5v-5.1h-0.7v-1.8h0.7v-2.2h2.1v2.2h1.4v1.8h-1.4v4.6c0,0.5,0.2,0.7,0.6,0.7c0.2,0,0.5-0.1,0.7-0.2
		v1.7c-0.4,0.2-0.9,0.4-1.4,0.4C477.4,350.5,476.5,350.1,476.5,348.5z"/>
	<path class="st0" d="M484,341.6h2.1v1.1c0.4-0.7,1-1.3,1.9-1.3c0.9,0,1.4,0.5,1.8,1.1c0.5-0.6,1.1-1.1,2-1.1c1.2,0,2.2,0.9,2.2,2.6
		v6.3h-2.1v-5.7c0-0.8-0.3-1.3-0.9-1.3c-0.6,0-0.9,0.5-0.9,1.3v5.7h-2.1v-5.7c0-0.8-0.3-1.3-0.9-1.3c-0.6,0-0.9,0.5-0.9,1.3v5.7H484
		V341.6z"/>
	<path class="st0" d="M495,346.2v-0.3c0-2.7,1.4-4.4,3.2-4.4c2,0,3.1,1.8,3.1,4.5c0,0.1,0,0.4,0,0.9h-4.1c0.1,1.2,0.8,1.8,1.6,1.8
		c0.6,0,1.1-0.4,1.5-0.8l0.9,1.6c-0.8,0.7-1.6,1.1-2.6,1.1C496.5,350.5,495,348.9,495,346.2z M499.2,345.4c0-1.3-0.4-2.1-1.1-2.1
		c-0.6,0-1.1,0.7-1.1,2.1H499.2z"/>
	<path class="st0" d="M502.3,338.7h2.1v2h-2.1V338.7z M502.4,341.6h2.1v8.7h-2.1V341.6z"/>
	<path class="st0" d="M505.3,349.4l1-1.6c0.6,0.5,1.2,0.9,1.8,0.9c0.6,0,0.8-0.3,0.8-0.7v0c0-0.5-0.4-0.7-1.3-1.3
		c-1.2-0.7-1.9-1.4-1.9-2.6v0c0-1.6,1.1-2.6,2.7-2.6c0.8,0,1.6,0.3,2.4,0.9l-0.9,1.6c-0.4-0.3-0.9-0.7-1.5-0.7
		c-0.5,0-0.8,0.3-0.8,0.6v0c0,0.4,0.4,0.7,1.3,1.3c1.3,0.8,1.9,1.5,1.9,2.6v0c0,1.7-1.2,2.6-2.7,2.6
		C507.3,350.5,506.2,350.2,505.3,349.4z"/>
	<path class="st0" d="M512,348.5v-5.1h-0.7v-1.8h0.7v-2.2h2.1v2.2h1.4v1.8H514v4.6c0,0.5,0.2,0.7,0.6,0.7c0.2,0,0.5-0.1,0.7-0.2v1.7
		c-0.4,0.2-0.9,0.4-1.4,0.4C512.9,350.5,512,350.1,512,348.5z"/>
	<path class="st0" d="M516.1,346.2v-0.3c0-2.7,1.4-4.4,3.2-4.4c2,0,3.1,1.8,3.1,4.5c0,0.1,0,0.4,0,0.9h-4.1c0.1,1.2,0.8,1.8,1.6,1.8
		c0.6,0,1.1-0.4,1.5-0.8l0.9,1.6c-0.8,0.7-1.6,1.1-2.6,1.1C517.6,350.5,516.1,348.9,516.1,346.2z M520.3,345.4
		c0-1.3-0.4-2.1-1.1-2.1c-0.6,0-1.1,0.7-1.1,2.1H520.3z"/>
	<path class="st0" d="M523.4,341.6h2.1v1.1c0.4-0.7,0.9-1.3,1.9-1.3c1.3,0,2.1,1,2.1,2.6v6.3h-2.1v-5.7c0-0.8-0.4-1.3-0.9-1.3
		c-0.6,0-1,0.4-1,1.3v5.7h-2.1V341.6z"/>
	<path class="st0" d="M533.2,339h2.3l1.7,7.6l1.7-7.6h2.2l-2.9,11.4h-2.1L533.2,339z"/>
	<path class="st0" d="M541.9,338.7h2.1v2h-2.1V338.7z M541.9,341.6h2.1v8.7h-2.1V341.6z"/>
	<path class="st0" d="M545.2,346.2v-0.3c0-2.7,1.4-4.4,3.2-4.4c2,0,3.1,1.8,3.1,4.5c0,0.1,0,0.4,0,0.9h-4.1c0.1,1.2,0.8,1.8,1.6,1.8
		c0.6,0,1.1-0.4,1.5-0.8l0.9,1.6c-0.8,0.7-1.6,1.1-2.6,1.1C546.8,350.5,545.2,348.9,545.2,346.2z M549.5,345.4
		c0-1.3-0.4-2.1-1.1-2.1c-0.6,0-1.1,0.7-1.1,2.1H549.5z"/>
	<path class="st0" d="M552,341.6h2.1l0.9,5l1-5h1.7l1,5l0.9-5h2.1l-1.9,8.8h-2l-1.1-5l-1.1,5h-2L552,341.6z"/>
	<path class="st0" d="M562.1,346.2v-0.3c0-2.7,1.4-4.4,3.2-4.4c2,0,3.1,1.8,3.1,4.5c0,0.1,0,0.4,0,0.9h-4.1c0.1,1.2,0.8,1.8,1.6,1.8
		c0.6,0,1.1-0.4,1.5-0.8l0.9,1.6c-0.8,0.7-1.6,1.1-2.6,1.1C563.6,350.5,562.1,348.9,562.1,346.2z M566.3,345.4
		c0-1.3-0.4-2.1-1.1-2.1c-0.6,0-1.1,0.7-1.1,2.1H566.3z"/>
	<path class="st0" d="M569.4,341.6h2.1v1.3c0.3-0.9,0.9-1.5,1.9-1.4v2.4h-0.1c-1.2,0-1.8,0.7-1.8,2.3v4.1h-2.1V341.6z"/>
	<path class="st0" d="M574.4,341.6h2.1v1.1c0.4-0.7,0.9-1.3,1.9-1.3c1.3,0,2.1,1,2.1,2.6v6.3h-2.1v-5.7c0-0.8-0.4-1.3-0.9-1.3
		c-0.6,0-1,0.4-1,1.3v5.7h-2.1V341.6z"/>
</g>
<g>
	<path class="st0" d="M265.5,403.1v-2.9c0-18.5,4.5-26.1,13-26.1c8.3,0,13,7.6,13,26.1v2.9c0,18.5-4.7,26.1-13,26.1
		C270,429.2,265.5,421.7,265.5,403.1z M282.4,403.1v-2.8c0-15.2-1.8-17.6-3.9-17.6c-2.2,0-4,2.5-4,17.6v2.8c0,15.2,1.8,17.6,4,17.6
		C280.6,420.7,282.4,418.2,282.4,403.1z"/>
	<path class="st0" d="M294.1,420.6l9.5-20.5c3-6.5,3.8-9.3,3.8-11.8c0-2.7-1.6-5.1-5-5.1c-2.8,0-5.2,1.2-7.3,2.6v-9
		c2.5-1.3,5.4-2.6,9.4-2.6c7.1,0,11.9,4.6,11.9,12.6v0.4c0,4.2-1,8.3-4.1,14.6l-8.5,17.6h12.3v9.2h-22.1V420.6z"/>
	<path class="st0" d="M263.7,438v-3.8h53.8v3.8H263.7z"/>
</g>
<g>
	<path class="st0" d="M331.3,374.9h2.7c1.1,0,2,0.3,2.6,0.9c0.5,0.5,0.7,1.1,0.7,1.9v0c0,1.6-0.9,2.3-1.9,2.7
		c1.3,0.4,2.2,1.2,2.2,2.7v0.1c0,1.9-1.5,3-3.7,3h-2.6V374.9z M336.1,377.9c0-1.2-0.8-2-2.2-2h-1.5v4.1h1.4
		C335.3,380.1,336.1,379.3,336.1,377.9L336.1,377.9z M333.9,381.1h-1.5v4.2h1.5c1.5,0,2.5-0.7,2.5-2.1v0
		C336.5,381.9,335.5,381.1,333.9,381.1z"/>
	<path class="st0" d="M338.8,382.2V382c0-2.6,1.3-4.3,3-4.3c1.7,0,3,1.7,3,4.3v0.2c0,2.6-1.3,4.3-3,4.3S338.8,384.8,338.8,382.2z
		 M343.7,382.1V382c0-2-0.8-3.4-1.9-3.4c-1.1,0-1.9,1.4-1.9,3.4v0.1c0,2,0.8,3.4,1.9,3.4C342.9,385.5,343.7,384.1,343.7,382.1z"/>
	<path class="st0" d="M346.4,377.8h1.1v1.3c0.4-0.8,1-1.4,2-1.4c0.8,0,1.5,0.5,1.9,1.4c0.4-0.7,1-1.4,2.1-1.4c1.3,0,2.2,0.9,2.2,2.8
		v5.9h-1.1v-5.6c0-1.4-0.5-2.1-1.4-2.1c-0.9,0-1.6,0.8-1.6,2.2v5.5h-1.1v-5.6c0-1.4-0.5-2.1-1.4-2.1c-0.9,0-1.6,0.9-1.6,2.2v5.5
		h-1.1V377.8z"/>
	<path class="st0" d="M358.6,384.8v1.5h-1.1v-11.6h1.1v4.6c0.4-0.9,1.1-1.7,2.2-1.7c1.4,0,2.6,1.4,2.6,4.3v0.3
		c0,2.9-1.2,4.3-2.6,4.3C359.6,386.5,359,385.7,358.6,384.8z M362.3,382.2V382c0-2.2-0.8-3.3-1.8-3.3c-1.1,0-2,1.2-2,3.3v0.3
		c0,2,0.9,3.3,2,3.3C361.5,385.5,362.3,384.3,362.3,382.2z"/>
	<path class="st0" d="M364.6,382.2V382c0-2.8,1.3-4.4,2.9-4.4c1.7,0,2.7,1.7,2.7,4.3v0.6h-4.5c0.1,1.9,1.1,3,2.2,3
		c0.7,0,1.2-0.3,1.6-0.7l0.5,0.8c-0.7,0.6-1.4,0.9-2.3,0.9C366,386.5,364.6,385,364.6,382.2z M369.1,381.6c0-1.7-0.7-3-1.7-3
		c-1,0-1.7,1.1-1.8,3H369.1z"/>
	<path class="st0" d="M371.7,377.8h1.1v1.3c0.4-0.8,1-1.4,2-1.4c1.3,0,2.2,1,2.2,2.8v5.9h-1.1v-5.6c0-1.4-0.6-2.1-1.5-2.1
		c-1,0-1.7,0.8-1.7,2.1v5.6h-1.1V377.8z"/>
	<path class="st0" d="M378.5,382.2v-0.3c0-2.9,1.2-4.3,2.6-4.3c1.1,0,1.8,0.8,2.2,1.7v-4.6h1.1v11.6h-1.1v-1.6
		c-0.4,0.9-1.1,1.7-2.2,1.7C379.8,386.5,378.5,385.1,378.5,382.2z M383.3,382.2v-0.3c0-2-0.9-3.3-2-3.3c-1,0-1.8,1.1-1.8,3.3v0.2
		c0,2.2,0.8,3.3,1.8,3.3C382.4,385.5,383.3,384.3,383.3,382.2z"/>
	<path class="st0" d="M386.3,377.8h1.1v1.5c0.4-1,1.2-1.7,2.3-1.6v1.2h0c-1.3,0-2.2,0.9-2.2,2.6v4.8h-1.1V377.8z"/>
	<path class="st0" d="M390.2,382.2V382c0-2.6,1.3-4.3,3-4.3c1.7,0,3,1.7,3,4.3v0.2c0,2.6-1.3,4.3-3,4.3S390.2,384.8,390.2,382.2z
		 M395.2,382.1V382c0-2-0.8-3.4-1.9-3.4c-1.1,0-1.9,1.4-1.9,3.4v0.1c0,2,0.8,3.4,1.9,3.4C394.3,385.5,395.2,384.1,395.2,382.1z"/>
	<path class="st0" d="M397.8,374.7h1.1v4.4c0.4-0.8,1-1.4,2-1.4c1.3,0,2.2,1,2.2,2.8v5.9h-1.1v-5.6c0-1.4-0.6-2.1-1.5-2.1
		c-1,0-1.7,0.8-1.7,2.1v5.6h-1.1V374.7z"/>
	<path class="st0" d="M404.9,383.7v-5.9h1.1v5.6c0,1.4,0.5,2.1,1.5,2.1c1,0,1.7-0.8,1.7-2.2v-5.5h1.1v8.5h-1.1V385
		c-0.4,0.8-1,1.4-2,1.4C405.7,386.5,404.9,385.5,404.9,383.7z"/>
	<path class="st0" d="M412.1,377.8h1.1v1.3c0.4-0.8,1-1.4,2-1.4c1.3,0,2.2,1,2.2,2.8v5.9h-1.1v-5.6c0-1.4-0.6-2.1-1.5-2.1
		c-1,0-1.7,0.8-1.7,2.1v5.6h-1.1V377.8z"/>
	<path class="st0" d="M419.2,388l0.3-0.9c0.6,0.3,1.4,0.6,2.1,0.6c1.3,0,2-0.7,2-2v-1.5c-0.4,0.9-1.1,1.7-2.2,1.7
		c-1.4,0-2.6-1.4-2.6-4v-0.1c0-2.7,1.2-4,2.6-4c1.1,0,1.8,0.8,2.2,1.6v-1.5h1.1v7.8c0,1-0.3,1.7-0.8,2.2c-0.5,0.6-1.3,0.8-2.3,0.8
		C420.9,388.6,420,388.4,419.2,388z M423.8,381.8L423.8,381.8c0-2-1-3.1-1.9-3.1c-1,0-1.8,1.1-1.8,3.1v0c0,2,0.8,3.1,1.8,3.1
		C422.8,384.8,423.8,383.7,423.8,381.8z"/>
	<path class="st0" d="M430.9,384.8v1.5h-1.1v-11.6h1.1v4.6c0.4-0.9,1.1-1.7,2.2-1.7c1.4,0,2.6,1.4,2.6,4.3v0.3
		c0,2.9-1.2,4.3-2.6,4.3C432,386.5,431.3,385.7,430.9,384.8z M434.6,382.2V382c0-2.2-0.8-3.3-1.8-3.3c-1.1,0-2,1.2-2,3.3v0.3
		c0,2,0.9,3.3,2,3.3C433.8,385.5,434.6,384.3,434.6,382.2z"/>
	<path class="st0" d="M436.9,382.2V382c0-2.8,1.3-4.4,2.9-4.4c1.7,0,2.7,1.7,2.7,4.3v0.6H438c0.1,1.9,1.1,3,2.2,3
		c0.7,0,1.2-0.3,1.6-0.7l0.5,0.8c-0.7,0.6-1.4,0.9-2.3,0.9C438.3,386.5,436.9,385,436.9,382.2z M441.5,381.6c0-1.7-0.7-3-1.7-3
		c-1,0-1.7,1.1-1.8,3H441.5z"/>
	<path class="st0" d="M444.1,374.8h1.2v1.4h-1.2V374.8z M444.1,377.8h1.1v8.5h-1.1V377.8z"/>
	<path class="st0" d="M450.1,380.8v-0.2c0-3.5,1.8-5.7,4.2-5.7c1,0,1.8,0.3,2.5,0.9l-0.6,1c-0.5-0.5-1.1-0.8-1.9-0.8
		c-1.7,0-3.1,1.7-3.1,4.7v0.1c0,3,1.3,4.7,3.2,4.7c0.6,0,1.1-0.2,1.5-0.4v-3.6h-2.1v-1h3.2v5.3c-0.7,0.5-1.6,0.9-2.7,0.9
		C451.8,386.4,450.1,384.4,450.1,380.8z"/>
	<path class="st0" d="M459,374.9h1.1l4.5,8.8v-8.8h1.1v11.4h-1l-4.6-9v9H459V374.9z"/>
	<path class="st0" d="M469.5,376h-2.4v-1.1h6v1.1h-2.4v10.3h-1.1V376z"/>
	<path class="st0" d="M474.6,374.9h1.2l2.7,6l2.7-6h1.2v11.4h-1.1v-9.1l-2.7,6.1h0l-2.7-6.1v9.1h-1.1V374.9z"/>
	<path class="st0" d="M484.3,377.8h1.4v1.6h-1.4V377.8z M484.3,384.7h1.4v1.6h-1.4V384.7z"/>
	<path class="st0" d="M331.1,392h2.8c2.9,0,4.7,2.1,4.7,5.6v0.3c0,3.5-1.7,5.6-4.7,5.6h-2.8V392z M333.2,393.9v7.4h0.6
		c1.5,0,2.5-1.1,2.5-3.6v-0.2c0-2.5-1-3.6-2.5-3.6H333.2z"/>
	<path class="st0" d="M339.4,400.9v-0.2c0-1.9,1-2.8,2.4-2.8c0.6,0,1,0.1,1.5,0.3v-0.4c0-1-0.6-1.4-1.4-1.4c-0.7,0-1.3,0.3-1.5,0.5
		l-0.6-1.7c0.7-0.4,1.5-0.7,2.5-0.7c1,0,1.8,0.3,2.3,0.8c0.5,0.6,0.8,1.4,0.8,2.5v5.5h-2v-0.9c-0.4,0.7-1,1.1-1.8,1.1
		C340.3,403.5,339.4,402.5,339.4,400.9z M343.3,400.7v-1.1c-0.2-0.1-0.6-0.2-0.9-0.2c-0.6,0-1,0.4-1,1.2v0c0,0.8,0.4,1.1,0.8,1.2
		C342.8,401.9,343.3,401.4,343.3,400.7z"/>
	<path class="st0" d="M346.7,394.6h2.1v1.1c0.4-0.7,0.9-1.3,1.9-1.3c1.3,0,2.1,1,2.1,2.6v6.3h-2.1v-5.7c0-0.8-0.4-1.3-0.9-1.3
		c-0.6,0-1,0.4-1,1.3v5.7h-2.1V394.6z"/>
	<path class="st0" d="M354.1,391.7h2.1v2h-2.1V391.7z M354.1,394.6h2.1v8.7h-2.1V394.6z"/>
	<path class="st0" d="M357.4,399.1v-0.3c0-2.7,1.4-4.4,3.2-4.4c2,0,3.1,1.8,3.1,4.5c0,0.1,0,0.4,0,0.9h-4.1c0.1,1.2,0.8,1.8,1.6,1.8
		c0.6,0,1.1-0.4,1.5-0.8l0.9,1.6c-0.8,0.7-1.6,1.1-2.6,1.1C359,403.5,357.4,401.9,357.4,399.1z M361.7,398.3c0-1.3-0.4-2.1-1.1-2.1
		c-0.6,0-1.1,0.7-1.1,2.1H361.7z"/>
	<path class="st0" d="M364.8,391.7h2.1v11.6h-2.1V391.7z"/>
	<path class="st0" d="M371.2,397.8v-0.3c0-3.7,1.8-5.7,4.2-5.7c1.2,0,2,0.4,2.7,1.1l-1.2,1.7c-0.4-0.4-0.9-0.8-1.5-0.8
		c-1.1,0-2,1.3-2,3.7v0.1c0,2.6,1,3.7,2,3.7c0.6,0,1.1-0.3,1.6-0.8l1.1,1.7c-0.8,0.8-1.7,1.2-2.8,1.2
		C372.8,403.5,371.2,401.5,371.2,397.8z"/>
	<path class="st0" d="M379,394.6h2.1v1.3c0.3-0.9,0.9-1.5,1.9-1.4v2.4h-0.1c-1.2,0-1.8,0.7-1.8,2.3v4.1H379V394.6z"/>
	<path class="st0" d="M383.4,399.1v-0.3c0-2.7,1.4-4.4,3.2-4.4c2,0,3.1,1.8,3.1,4.5c0,0.1,0,0.4,0,0.9h-4.1c0.1,1.2,0.8,1.8,1.6,1.8
		c0.6,0,1.1-0.4,1.5-0.8l0.9,1.6c-0.8,0.7-1.6,1.1-2.6,1.1C385,403.5,383.4,401.9,383.4,399.1z M387.7,398.3c0-1.3-0.4-2.1-1.1-2.1
		c-0.6,0-1.1,0.7-1.1,2.1H387.7z"/>
	<path class="st0" d="M390.8,394.6h2.1v1.1c0.4-0.7,1-1.3,1.9-1.3c0.9,0,1.4,0.5,1.8,1.1c0.5-0.6,1.1-1.1,2-1.1
		c1.2,0,2.2,0.9,2.2,2.6v6.3h-2.1v-5.7c0-0.8-0.3-1.3-0.9-1.3c-0.6,0-0.9,0.5-0.9,1.3v5.7h-2.1v-5.7c0-0.8-0.3-1.3-0.9-1.3
		c-0.6,0-0.9,0.5-0.9,1.3v5.7h-2.1V394.6z"/>
	<path class="st0" d="M401.8,399.1v-0.3c0-2.7,1.4-4.4,3.2-4.4c2,0,3.1,1.8,3.1,4.5c0,0.1,0,0.4,0,0.9h-4.1c0.1,1.2,0.8,1.8,1.6,1.8
		c0.6,0,1.1-0.4,1.5-0.8l0.9,1.6c-0.8,0.7-1.6,1.1-2.6,1.1C403.3,403.5,401.8,401.9,401.8,399.1z M406,398.3c0-1.3-0.4-2.1-1.1-2.1
		c-0.6,0-1.1,0.7-1.1,2.1H406z"/>
	<path class="st0" d="M409.1,394.6h2.1v1.3c0.3-0.9,0.9-1.5,1.9-1.4v2.4H413c-1.2,0-1.8,0.7-1.8,2.3v4.1h-2.1V394.6z"/>
	<path class="st0" d="M417.4,391.7h1.1v4.4c0.4-0.8,1-1.4,2-1.4c1.3,0,2.2,1,2.2,2.8v5.9h-1.1v-5.6c0-1.4-0.6-2.1-1.5-2.1
		c-1,0-1.7,0.8-1.7,2.1v5.6h-1.1V391.7z"/>
	<path class="st0" d="M424.1,400.9v-0.1c0-1.7,1-2.7,2.6-2.7c0.7,0,1.2,0.1,1.7,0.3v-0.7c0-1.2-0.7-1.9-1.8-1.9
		c-0.7,0-1.3,0.3-1.7,0.5l-0.4-0.9c0.6-0.4,1.4-0.6,2.2-0.6c0.8,0,1.5,0.2,2,0.7c0.4,0.4,0.7,1.2,0.7,2.1v5.8h-1.1v-1.2
		c-0.4,0.8-1.1,1.4-2,1.4C425.1,403.5,424.1,402.5,424.1,400.9z M428.4,400.6v-1.4c-0.4-0.2-1-0.3-1.5-0.3c-1.1,0-1.7,0.7-1.7,1.8
		v0.1c0,1.1,0.6,1.8,1.4,1.8C427.6,402.6,428.4,401.7,428.4,400.6z"/>
	<path class="st0" d="M431.4,401.7v-5.9h-0.8v-1h0.8v-2.4h1.1v2.4h1.7v1h-1.7v5.7c0,0.8,0.4,1,1,1c0.2,0,0.5-0.1,0.7-0.2v0.9
		c-0.3,0.1-0.6,0.2-1,0.2C432.2,403.4,431.4,403,431.4,401.7z"/>
	<path class="st0" d="M435.9,401.7v-5.9h-0.8v-1h0.8v-2.4h1.1v2.4h1.7v1H437v5.7c0,0.8,0.4,1,1,1c0.2,0,0.5-0.1,0.7-0.2v0.9
		c-0.3,0.1-0.6,0.2-1,0.2C436.7,403.4,435.9,403,435.9,401.7z"/>
	<path class="st0" d="M439.6,399.2V399c0-2.8,1.3-4.4,2.9-4.4c1.7,0,2.7,1.7,2.7,4.3v0.6h-4.5c0.1,1.9,1.1,3,2.2,3
		c0.7,0,1.2-0.3,1.6-0.7l0.5,0.8c-0.7,0.6-1.4,0.9-2.3,0.9C441,403.5,439.6,402,439.6,399.2z M444.2,398.7c0-1.7-0.7-3-1.7-3
		c-1,0-1.7,1.1-1.8,3H444.2z"/>
	<path class="st0" d="M449.9,391.8h1.2v1.4h-1.2V391.8z M449.9,394.8h1.1v8.5h-1.1V394.8z"/>
	<path class="st0" d="M453,394.8h1.1v1.3c0.4-0.8,1-1.4,2-1.4c1.3,0,2.2,1,2.2,2.8v5.9h-1.1v-5.6c0-1.4-0.6-2.1-1.5-2.1
		c-1,0-1.7,0.8-1.7,2.1v5.6H453V394.8z"/>
	<path class="st0" d="M462.6,402.1l0.7-0.9c0.7,0.7,1.5,1.2,2.4,1.2c1.2,0,1.9-0.8,1.9-1.9v0c0-0.8-0.3-1.4-2-2.4
		c-2-1.2-2.6-2.1-2.6-3.4v0c0-1.6,1.2-2.9,3-2.9c0.9,0,1.9,0.3,2.7,1.1l-0.7,0.9c-0.6-0.6-1.3-1-2.1-1c-1.1,0-1.8,0.8-1.8,1.7v0
		c0,0.9,0.4,1.4,2.1,2.5c2,1.2,2.5,2.1,2.5,3.4v0c0,1.7-1.3,3-3.1,3C464.7,403.5,463.6,403.1,462.6,402.1z"/>
	<path class="st0" d="M470.3,394.8h1.1v1.6c0.4-0.9,1.1-1.7,2.2-1.7c1.4,0,2.6,1.4,2.6,4.3v0.3c0,2.9-1.2,4.3-2.6,4.3
		c-1.1,0-1.8-0.8-2.2-1.7v3.8h-1.1V394.8z M475.1,399.2V399c0-2.2-0.8-3.3-1.8-3.3c-1.1,0-2,1.2-2,3.3v0.3c0,2,0.9,3.3,2,3.3
		C474.3,402.5,475.1,401.4,475.1,399.2z"/>
	<path class="st0" d="M477.8,391.8h1.2v1.4h-1.2V391.8z M477.9,394.8h1.1v8.5h-1.1V394.8z"/>
	<path class="st0" d="M481.2,401.7v-5.9h-0.8v-1h0.8v-2.4h1.1v2.4h1.7v1h-1.7v5.7c0,0.8,0.4,1,1,1c0.2,0,0.5-0.1,0.7-0.2v0.9
		c-0.3,0.1-0.6,0.2-1,0.2C482,403.4,481.2,403,481.2,401.7z"/>
	<path class="st0" d="M485,402.6l3.7-6.9h-3.5v-0.9h4.7v0.7l-3.6,6.9h3.6v0.9H485V402.6z"/>
	<path class="st0" d="M490.9,399.2V399c0-2.8,1.3-4.4,2.9-4.4c1.7,0,2.7,1.7,2.7,4.3v0.6h-4.5c0.1,1.9,1.1,3,2.2,3
		c0.7,0,1.2-0.3,1.6-0.7l0.5,0.8c-0.7,0.6-1.4,0.9-2.3,0.9C492.3,403.5,490.9,402,490.9,399.2z M495.4,398.7c0-1.7-0.7-3-1.7-3
		c-1,0-1.7,1.1-1.8,3H495.4z"/>
	<path class="st0" d="M498,394.8h1.1v1.3c0.4-0.8,1-1.4,2-1.4c1.3,0,2.2,1,2.2,2.8v5.9h-1.1v-5.6c0-1.4-0.6-2.1-1.5-2.1
		c-1,0-1.7,0.8-1.7,2.1v5.6H498V394.8z"/>
	<path class="st0" d="M504.7,402.6l3.7-6.9h-3.5v-0.9h4.7v0.7l-3.6,6.9h3.6v0.9h-4.9V402.6z"/>
	<path class="st0" d="M510.5,399.2V399c0-2.8,1.3-4.4,2.9-4.4c1.7,0,2.7,1.7,2.7,4.3v0.6h-4.5c0.1,1.9,1.1,3,2.2,3
		c0.7,0,1.2-0.3,1.6-0.7l0.5,0.8c-0.7,0.6-1.4,0.9-2.3,0.9C512,403.5,510.5,402,510.5,399.2z M515.1,398.7c0-1.7-0.7-3-1.7-3
		c-1,0-1.7,1.1-1.8,3H515.1z"/>
	<path class="st0" d="M517.7,391.8h1.2v1.4h-1.2V391.8z M517.7,394.8h1.1v8.5h-1.1V394.8z"/>
	<path class="st0" d="M521.1,401.7v-5.9h-0.8v-1h0.8v-2.4h1.1v2.4h1.7v1h-1.7v5.7c0,0.8,0.4,1,1,1c0.2,0,0.5-0.1,0.7-0.2v0.9
		c-0.3,0.1-0.6,0.2-1,0.2C521.9,403.4,521.1,403,521.1,401.7z"/>
	<path class="st0" d="M524.8,399.2V399c0-2.8,1.3-4.4,2.9-4.4c1.7,0,2.7,1.7,2.7,4.3v0.6h-4.5c0.1,1.9,1.1,3,2.2,3
		c0.7,0,1.2-0.3,1.6-0.7l0.5,0.8c-0.7,0.6-1.4,0.9-2.3,0.9C526.2,403.5,524.8,402,524.8,399.2z M529.3,398.7c0-1.7-0.7-3-1.7-3
		c-1,0-1.7,1.1-1.8,3H529.3z"/>
	<path class="st0" d="M531.9,394.8h1.1v1.3c0.4-0.8,1-1.4,2-1.4c1.3,0,2.2,1,2.2,2.8v5.9h-1.1v-5.6c0-1.4-0.6-2.1-1.5-2.1
		c-1,0-1.7,0.8-1.7,2.1v5.6h-1.1V394.8z"/>
	<path class="st0" d="M542.2,394.8h1.1v1.5c0.4-1,1.2-1.7,2.3-1.6v1.2h0c-1.3,0-2.2,0.9-2.2,2.6v4.8h-1.1V394.8z"/>
	<path class="st0" d="M546.7,400.7v-5.9h1.1v5.6c0,1.4,0.5,2.1,1.5,2.1c1,0,1.7-0.8,1.7-2.2v-5.5h1.1v8.5H551v-1.3
		c-0.4,0.8-1,1.4-2,1.4C547.6,403.5,546.7,402.5,546.7,400.7z"/>
	<path class="st0" d="M554,394.8h1.1v1.3c0.4-0.8,1-1.4,2-1.4c1.3,0,2.2,1,2.2,2.8v5.9h-1.1v-5.6c0-1.4-0.6-2.1-1.5-2.1
		c-1,0-1.7,0.8-1.7,2.1v5.6H554V394.8z"/>
	<path class="st0" d="M560.8,399.2v-0.3c0-2.9,1.2-4.3,2.6-4.3c1.1,0,1.8,0.8,2.2,1.7v-4.6h1.1v11.6h-1.1v-1.6
		c-0.4,0.9-1.1,1.7-2.2,1.7C562,403.5,560.8,402.1,560.8,399.2z M565.6,399.2v-0.3c0-2-0.9-3.3-2-3.3c-1,0-1.8,1.1-1.8,3.3v0.2
		c0,2.2,0.8,3.3,1.8,3.3C564.7,402.5,565.6,401.3,565.6,399.2z"/>
	<path class="st0" d="M330.4,419.4l1-1.7c0.4,0.3,0.9,0.8,1.8,0.8c0.9,0,1.5-0.6,1.5-1.6v0c0-1-0.8-1.7-2.3-1.7h-0.3l-0.1-1.4
		l2.2-2.8h-3.3v-2h5.8v1.8l-2.4,2.9c1.3,0.3,2.5,1.3,2.5,3.2v0.1c0,2.2-1.5,3.6-3.5,3.6C332.1,420.5,331.1,420.1,330.4,419.4z"/>
	<path class="st0" d="M337.9,414.9v-0.4c0-3.7,1.4-5.7,3.7-5.7c2.3,0,3.7,2,3.7,5.7v0.4c0,3.7-1.4,5.7-3.7,5.7
		C339.3,420.5,337.9,418.6,337.9,414.9z M343.1,414.8v-0.3c0-2.8-0.7-3.7-1.5-3.7c-0.9,0-1.5,0.9-1.5,3.7v0.3c0,2.8,0.7,3.7,1.5,3.7
		C342.4,418.5,343.1,417.6,343.1,414.8z"/>
	<path class="st0" d="M346.4,414.9v-0.4c0-3.7,1.4-5.7,3.7-5.7c2.3,0,3.7,2,3.7,5.7v0.4c0,3.7-1.4,5.7-3.7,5.7
		C347.7,420.5,346.4,418.6,346.4,414.9z M351.5,414.8v-0.3c0-2.8-0.7-3.7-1.5-3.7c-0.9,0-1.5,0.9-1.5,3.7v0.3c0,2.8,0.7,3.7,1.5,3.7
		C350.9,418.5,351.5,417.6,351.5,414.8z"/>
	<path class="st0" d="M354.8,414.9v-0.4c0-3.7,1.4-5.7,3.7-5.7c2.3,0,3.7,2,3.7,5.7v0.4c0,3.7-1.4,5.7-3.7,5.7
		C356.2,420.5,354.8,418.6,354.8,414.9z M360,414.8v-0.3c0-2.8-0.7-3.7-1.5-3.7c-0.9,0-1.5,0.9-1.5,3.7v0.3c0,2.8,0.7,3.7,1.5,3.7
		C359.4,418.5,360,417.6,360,414.8z"/>
	<path class="st0" d="M366.3,418.7l3.9-7.7h-3.8v-2h6.3v1.7l-3.9,7.7h3.9v2h-6.4V418.7z"/>
	<path class="st0" d="M373.8,417.9v-6.3h2.1v5.7c0,0.8,0.3,1.3,0.9,1.3s1-0.4,1-1.3v-5.7h2.1v8.7h-2.1v-1.1
		c-0.4,0.7-0.9,1.3-1.9,1.3C374.6,420.5,373.8,419.5,373.8,417.9z"/>
	<path class="st0" d="M380.6,419.4l1-1.6c0.6,0.5,1.2,0.9,1.8,0.9c0.6,0,0.8-0.3,0.8-0.7v0c0-0.5-0.4-0.7-1.3-1.3
		c-1.2-0.7-1.9-1.4-1.9-2.6v0c0-1.6,1.1-2.6,2.7-2.6c0.8,0,1.6,0.3,2.4,0.9l-0.9,1.6c-0.4-0.3-0.9-0.7-1.5-0.7
		c-0.5,0-0.8,0.3-0.8,0.6v0c0,0.4,0.4,0.7,1.3,1.3c1.3,0.8,1.9,1.5,1.9,2.6v0c0,1.7-1.2,2.6-2.7,2.6
		C382.6,420.5,381.6,420.2,380.6,419.4z"/>
	<path class="st0" d="M386.9,416.2v-0.4c0-2.7,1.4-4.3,3.4-4.3c0.8,0,1.4,0.3,2.1,0.8l-1,1.8c-0.3-0.3-0.6-0.6-1.1-0.6
		c-0.8,0-1.4,0.9-1.4,2.5v0.1c0,1.6,0.4,2.5,1.4,2.5c0.5,0,0.8-0.3,1.1-0.7l0.9,1.6c-0.6,0.6-1.3,1-2.2,1
		C388.2,420.5,386.9,418.9,386.9,416.2z"/>
	<path class="st0" d="M393.3,408.7h2.1v4c0.4-0.7,0.9-1.3,1.9-1.3c1.3,0,2.1,1,2.1,2.6v6.3h-2.1v-5.7c0-0.8-0.4-1.3-0.9-1.3
		c-0.6,0-1,0.4-1,1.3v5.7h-2.1V408.7z"/>
	<path class="st0" d="M400.4,417.9v-0.2c0-1.9,1-2.8,2.4-2.8c0.6,0,1,0.1,1.5,0.3v-0.4c0-1-0.6-1.4-1.4-1.4c-0.7,0-1.3,0.3-1.5,0.5
		l-0.6-1.7c0.7-0.4,1.5-0.7,2.5-0.7c1,0,1.8,0.3,2.3,0.8c0.5,0.6,0.8,1.4,0.8,2.5v5.5h-2v-0.9c-0.4,0.7-1,1.1-1.8,1.1
		C401.3,420.5,400.4,419.5,400.4,417.9z M404.3,417.7v-1.1c-0.2-0.1-0.6-0.2-0.9-0.2c-0.6,0-1,0.4-1,1.2v0c0,0.8,0.4,1.1,0.8,1.2
		C403.8,418.9,404.3,418.4,404.3,417.7z"/>
	<path class="st0" d="M407.6,417.9v-6.3h2.1v5.7c0,0.8,0.3,1.3,0.9,1.3s1-0.4,1-1.3v-5.7h2.1v8.7h-2.1v-1.1
		c-0.4,0.7-0.9,1.3-1.9,1.3C408.4,420.5,407.6,419.5,407.6,417.9z"/>
	<path class="st0" d="M414.8,416.2v-0.3c0-2.7,1.4-4.4,3.2-4.4c2,0,3.1,1.8,3.1,4.5c0,0.1,0,0.4,0,0.9h-4.1c0.1,1.2,0.8,1.8,1.6,1.8
		c0.6,0,1.1-0.4,1.5-0.8l0.9,1.6c-0.8,0.7-1.6,1.1-2.6,1.1C416.3,420.5,414.8,418.9,414.8,416.2z M419,415.4c0-1.3-0.4-2.1-1.1-2.1
		c-0.6,0-1.1,0.7-1.1,2.1H419z"/>
	<path class="st0" d="M422.1,411.6h2.1v1.3c0.3-0.9,0.9-1.5,1.9-1.4v2.4H426c-1.2,0-1.8,0.7-1.8,2.3v4.1h-2.1V411.6z"/>
</g>
<g>
	<path class="st0" d="M265.5,487.6v-2.9c0-18.5,4.5-26.1,13-26.1c8.3,0,13,7.6,13,26.1v2.9c0,18.5-4.7,26.1-13,26.1
		C270,513.7,265.5,506.2,265.5,487.6z M282.4,487.6v-2.8c0-15.2-1.8-17.6-3.9-17.6c-2.2,0-4,2.5-4,17.6v2.8c0,15.2,1.8,17.6,4,17.6
		C280.6,505.2,282.4,502.7,282.4,487.6z"/>
	<path class="st0" d="M294,512.3v-8.9c2.2,0.9,3.8,1.5,6.6,1.5c3.7,0,6.5-2.8,6.5-7.7v-0.6c0-5.6-3.6-7.9-9.2-8.3v-6.1l8.6-13.7
		h-11.9v-9.1h21.2v8.3l-8.9,14c5.3,1.8,9.2,5.7,9.2,14.2v0.8c0,10.6-6.1,17-14.4,17C298.6,513.7,296.2,513.2,294,512.3z"/>
	<path class="st0" d="M263.7,522.5v-3.8h53.9v3.8H263.7z"/>
</g>
<g>
	<path class="st0" d="M333.9,459.4h1.2l3.3,11.5h-1.2l-0.8-3h-3.8l-0.8,3h-1.1L333.9,459.4z M336.1,466.8l-1.6-5.8l-1.6,5.8H336.1z"
		/>
	<path class="st0" d="M339.8,459.2h1.1v7.5l2.8-4.5h1.2l-2.3,3.5l2.4,5h-1.2l-1.9-4.1l-1,1.5v2.5h-1.1V459.2z"/>
	<path class="st0" d="M346.6,469.1v-5.9h-0.8v-1h0.8v-2.4h1.1v2.4h1.7v1h-1.7v5.7c0,0.8,0.4,1,1,1c0.2,0,0.5-0.1,0.7-0.2v0.9
		c-0.3,0.1-0.6,0.2-1,0.2C347.3,470.9,346.6,470.5,346.6,469.1z"/>
	<path class="st0" d="M350.8,459.3h1.2v1.4h-1.2V459.3z M350.9,462.3h1.1v8.5h-1.1V462.3z"/>
	<path class="st0" d="M353.6,466.7v-0.2c0-2.6,1.3-4.3,3-4.3c1.7,0,3,1.7,3,4.3v0.2c0,2.6-1.3,4.3-3,4.3S353.6,469.3,353.6,466.7z
		 M358.5,466.6v-0.1c0-2-0.8-3.4-1.9-3.4c-1.1,0-1.9,1.4-1.9,3.4v0.1c0,2,0.8,3.4,1.9,3.4C357.7,470,358.5,468.6,358.5,466.6z"/>
	<path class="st0" d="M361.2,462.3h1.1v1.3c0.4-0.8,1-1.4,2-1.4c1.3,0,2.2,1,2.2,2.8v5.9h-1.1v-5.6c0-1.4-0.6-2.1-1.5-2.1
		c-1,0-1.7,0.8-1.7,2.1v5.6h-1.1V462.3z"/>
	<path class="st0" d="M368,466.7v-0.2c0-2.8,1.3-4.4,2.9-4.4c1.7,0,2.7,1.7,2.7,4.3v0.6H369c0.1,1.9,1.1,3,2.2,3
		c0.7,0,1.2-0.3,1.6-0.7l0.5,0.8c-0.7,0.6-1.4,0.9-2.3,0.9C369.4,471,368,469.5,368,466.7z M372.5,466.1c0-1.7-0.7-3-1.7-3
		c-1,0-1.7,1.1-1.8,3H372.5z"/>
	<path class="st0" d="M375.1,462.3h1.1v1.3c0.4-0.8,1-1.4,2-1.4c1.3,0,2.2,1,2.2,2.8v5.9h-1.1v-5.6c0-1.4-0.6-2.1-1.5-2.1
		c-1,0-1.7,0.8-1.7,2.1v5.6h-1.1V462.3z"/>
	<path class="st0" d="M385.3,468.2v-5.9h1.1v5.6c0,1.4,0.5,2.1,1.5,2.1c1,0,1.7-0.8,1.7-2.2v-5.5h1.1v8.5h-1.1v-1.3
		c-0.4,0.8-1,1.4-2,1.4C386.1,471,385.3,470,385.3,468.2z M386.3,460h1.1v1.3h-1.1V460z M388.4,460h1.1v1.3h-1.1V460z"/>
	<path class="st0" d="M393.6,469.3v1.5h-1.1v-11.6h1.1v4.6c0.4-0.9,1.1-1.7,2.2-1.7c1.4,0,2.6,1.4,2.6,4.3v0.3
		c0,2.9-1.2,4.3-2.6,4.3C394.7,471,394,470.2,393.6,469.3z M397.3,466.7v-0.2c0-2.2-0.8-3.3-1.8-3.3c-1.1,0-2,1.2-2,3.3v0.3
		c0,2,0.9,3.3,2,3.3C396.5,470,397.3,468.8,397.3,466.7z"/>
	<path class="st0" d="M399.6,466.7v-0.2c0-2.8,1.3-4.4,2.9-4.4c1.7,0,2.7,1.7,2.7,4.3v0.6h-4.5c0.1,1.9,1.1,3,2.2,3
		c0.7,0,1.2-0.3,1.6-0.7l0.5,0.8c-0.7,0.6-1.4,0.9-2.3,0.9C401,471,399.6,469.5,399.6,466.7z M404.1,466.1c0-1.7-0.7-3-1.7-3
		c-1,0-1.7,1.1-1.8,3H404.1z"/>
	<path class="st0" d="M406.7,462.3h1.1v1.5c0.4-1,1.2-1.7,2.3-1.6v1.2h0c-1.3,0-2.2,0.9-2.2,2.6v4.8h-1.1V462.3z"/>
	<path class="st0" d="M414.1,466.7v-0.3c0-2.9,1.2-4.3,2.6-4.3c1.1,0,1.8,0.8,2.2,1.7v-4.6h1.1v11.6h-1.1v-1.6
		c-0.4,0.9-1.1,1.7-2.2,1.7C415.4,471,414.1,469.6,414.1,466.7z M419,466.7v-0.3c0-2-0.9-3.3-2-3.3c-1,0-1.8,1.1-1.8,3.3v0.2
		c0,2.2,0.8,3.3,1.8,3.3C418,470,419,468.8,419,466.7z"/>
	<path class="st0" d="M421.5,466.7v-0.2c0-2.8,1.3-4.4,2.9-4.4c1.7,0,2.7,1.7,2.7,4.3v0.6h-4.5c0.1,1.9,1.1,3,2.2,3
		c0.7,0,1.2-0.3,1.6-0.7l0.5,0.8c-0.7,0.6-1.4,0.9-2.3,0.9C423,471,421.5,469.5,421.5,466.7z M426.1,466.1c0-1.7-0.7-3-1.7-3
		c-1,0-1.7,1.1-1.8,3H426.1z"/>
	<path class="st0" d="M428.7,462.3h1.1v1.3c0.4-0.8,1-1.4,2-1.4c1.3,0,2.2,1,2.2,2.8v5.9h-1.1v-5.6c0-1.4-0.6-2.1-1.5-2.1
		c-1,0-1.7,0.8-1.7,2.1v5.6h-1.1V462.3z"/>
	<path class="st0" d="M439.1,459.4h2.7c1.1,0,2,0.3,2.6,0.9c0.5,0.5,0.7,1.1,0.7,1.9v0c0,1.6-0.9,2.3-1.9,2.7
		c1.3,0.4,2.2,1.2,2.2,2.7v0.1c0,1.9-1.5,3-3.7,3h-2.6V459.4z M443.9,462.4c0-1.2-0.8-2-2.2-2h-1.5v4.1h1.4
		C443.1,464.6,443.9,463.8,443.9,462.4L443.9,462.4z M441.7,465.6h-1.5v4.2h1.5c1.5,0,2.5-0.7,2.5-2.1v0
		C444.3,466.4,443.3,465.6,441.7,465.6z"/>
	<path class="st0" d="M447.1,459.4h1.1v11.4h-1.1V459.4z"/>
	<path class="st0" d="M450.5,459.4h1.1v10.3h3.9v1.1h-5V459.4z"/>
	<path class="st0" d="M457,459.4h2.3c2.7,0,4.5,2.1,4.5,5.6v0.2c0,3.5-1.8,5.6-4.5,5.6H457V459.4z M458.1,460.5v9.3h1.1
		c2,0,3.4-1.6,3.4-4.6V465c0-2.9-1.4-4.6-3.4-4.6H458.1z"/>
	<path class="st0" d="M465.3,465.4h3.7v1.1h-3.7V465.4z"/>
	<path class="st0" d="M473.1,459.4h1.2l3.3,11.5h-1.2l-0.8-3h-3.8l-0.8,3h-1.1L473.1,459.4z M475.3,466.8l-1.6-5.8l-1.6,5.8H475.3z"
		/>
	<path class="st0" d="M478.4,466.7v-0.2c0-2.8,1.4-4.3,3.1-4.3c0.8,0,1.3,0.3,1.8,0.7l-0.5,0.9c-0.3-0.3-0.7-0.6-1.3-0.6
		c-1.1,0-2,1.2-2,3.4v0.1c0,2.2,1,3.3,2,3.3c0.5,0,0.9-0.3,1.3-0.7l0.6,0.8c-0.4,0.5-1.1,0.9-1.9,0.9
		C479.7,471,478.4,469.5,478.4,466.7z"/>
	<path class="st0" d="M484.2,466.7v-0.2c0-2.8,1.4-4.3,3.1-4.3c0.8,0,1.3,0.3,1.8,0.7l-0.5,0.9c-0.3-0.3-0.7-0.6-1.3-0.6
		c-1.1,0-2,1.2-2,3.4v0.1c0,2.2,1,3.3,2,3.3c0.5,0,0.9-0.3,1.3-0.7l0.6,0.8c-0.4,0.5-1.1,0.9-1.9,0.9
		C485.5,471,484.2,469.5,484.2,466.7z"/>
	<path class="st0" d="M489.9,466.7v-0.2c0-2.6,1.3-4.3,3-4.3c1.7,0,3,1.7,3,4.3v0.2c0,2.6-1.3,4.3-3,4.3S489.9,469.3,489.9,466.7z
		 M494.9,466.6v-0.1c0-2-0.8-3.4-1.9-3.4c-1.1,0-1.9,1.4-1.9,3.4v0.1c0,2,0.8,3.4,1.9,3.4C494,470,494.9,468.6,494.9,466.6z"/>
	<path class="st0" d="M497.4,468.2v-5.9h1.1v5.6c0,1.4,0.5,2.1,1.5,2.1c1,0,1.7-0.8,1.7-2.2v-5.5h1.1v8.5h-1.1v-1.3
		c-0.4,0.8-1,1.4-2,1.4C498.3,471,497.4,470,497.4,468.2z"/>
	<path class="st0" d="M504.6,462.3h1.1v1.3c0.4-0.8,1-1.4,2-1.4c1.3,0,2.2,1,2.2,2.8v5.9h-1.1v-5.6c0-1.4-0.6-2.1-1.5-2.1
		c-1,0-1.7,0.8-1.7,2.1v5.6h-1.1V462.3z"/>
	<path class="st0" d="M512,469.1v-5.9h-0.8v-1h0.8v-2.4h1.1v2.4h1.7v1h-1.7v5.7c0,0.8,0.4,1,1,1c0.2,0,0.5-0.1,0.7-0.2v0.9
		c-0.3,0.1-0.6,0.2-1,0.2C512.8,470.9,512,470.5,512,469.1z"/>
	<path class="st0" d="M520.5,469.3v1.5h-1.1v-11.6h1.1v4.6c0.4-0.9,1.1-1.7,2.2-1.7c1.4,0,2.6,1.4,2.6,4.3v0.3
		c0,2.9-1.2,4.3-2.6,4.3C521.5,471,520.9,470.2,520.5,469.3z M524.2,466.7v-0.2c0-2.2-0.8-3.3-1.8-3.3c-1.1,0-2,1.2-2,3.3v0.3
		c0,2,0.9,3.3,2,3.3C523.4,470,524.2,468.8,524.2,466.7z"/>
	<path class="st0" d="M526.5,466.7v-0.2c0-2.8,1.3-4.4,2.9-4.4c1.7,0,2.7,1.7,2.7,4.3v0.6h-4.5c0.1,1.9,1.1,3,2.2,3
		c0.7,0,1.2-0.3,1.6-0.7l0.5,0.8c-0.7,0.6-1.4,0.9-2.3,0.9C527.9,471,526.5,469.5,526.5,466.7z M531,466.1c0-1.7-0.7-3-1.7-3
		c-1,0-1.7,1.1-1.8,3H531z"/>
	<path class="st0" d="M533.6,459.3h1.2v1.4h-1.2V459.3z M533.7,462.3h1.1v8.5h-1.1V462.3z"/>
	<path class="st0" d="M540,459.4h2.4c2.2,0,3.6,1.4,3.6,3.6v0c0,2.3-1.5,3.7-3.7,3.7h-1.3v4H540V459.4z M542.4,465.8
		c1.6,0,2.6-1,2.6-2.7v0c0-1.7-1-2.6-2.5-2.6h-1.3v5.3H542.4z"/>
	<path class="st0" d="M547,466.7v-0.2c0-2.8,1.3-4.4,2.9-4.4c1.7,0,2.7,1.7,2.7,4.3v0.6h-4.5c0.1,1.9,1.1,3,2.2,3
		c0.7,0,1.2-0.3,1.6-0.7l0.5,0.8c-0.7,0.6-1.4,0.9-2.3,0.9C548.5,471,547,469.5,547,466.7z M551.6,466.1c0-1.7-0.7-3-1.7-3
		c-1,0-1.7,1.1-1.8,3H551.6z"/>
	<path class="st0" d="M554.2,462.3h1.1v1.5c0.4-1,1.2-1.7,2.3-1.6v1.2h0c-1.3,0-2.2,0.9-2.2,2.6v4.8h-1.1V462.3z"/>
	<path class="st0" d="M558.8,459.3h1.2v1.4h-1.2V459.3z M558.9,462.3h1.1v8.5h-1.1V462.3z"/>
	<path class="st0" d="M561.1,469.8l0.6-0.8c0.6,0.7,1.3,1,1.9,1c0.8,0,1.4-0.6,1.4-1.3v0c0-0.6-0.4-1.1-1.5-1.8
		c-1.4-0.8-2-1.4-2-2.5v0c0-1.3,1-2.2,2.3-2.2c0.9,0,1.6,0.4,2.2,0.9l-0.6,0.8c-0.5-0.5-1-0.7-1.7-0.7c-0.8,0-1.3,0.5-1.3,1.1v0
		c0,0.6,0.4,1,1.5,1.7c1.5,0.9,2,1.5,2,2.6v0c0,1.4-1.1,2.3-2.4,2.3C562.8,471,561.9,470.6,561.1,469.8z"/>
	<path class="st0" d="M567.1,466.7v-0.2c0-2.8,1.4-4.3,3.1-4.3c0.8,0,1.3,0.3,1.8,0.7l-0.5,0.9c-0.3-0.3-0.7-0.6-1.3-0.6
		c-1.1,0-2,1.2-2,3.4v0.1c0,2.2,1,3.3,2,3.3c0.5,0,0.9-0.3,1.3-0.7l0.6,0.8c-0.4,0.5-1.1,0.9-1.9,0.9
		C568.4,471,567.1,469.5,567.1,466.7z"/>
	<path class="st0" d="M572.9,466.7v-0.2c0-2.6,1.3-4.3,3-4.3c1.7,0,3,1.7,3,4.3v0.2c0,2.6-1.3,4.3-3,4.3S572.9,469.3,572.9,466.7z
		 M577.8,466.6v-0.1c0-2-0.8-3.4-1.9-3.4c-1.1,0-1.9,1.4-1.9,3.4v0.1c0,2,0.8,3.4,1.9,3.4C577,470,577.8,468.6,577.8,466.6z"/>
	<path class="st0" d="M580.4,462.3h1.1v1.6c0.4-0.9,1.1-1.7,2.2-1.7c1.4,0,2.6,1.4,2.6,4.3v0.3c0,2.9-1.2,4.3-2.6,4.3
		c-1.1,0-1.8-0.8-2.2-1.7v3.8h-1.1V462.3z M585.2,466.7v-0.2c0-2.2-0.8-3.3-1.8-3.3c-1.1,0-2,1.2-2,3.3v0.3c0,2,0.9,3.3,2,3.3
		C584.4,470,585.2,468.8,585.2,466.7z"/>
	<path class="st0" d="M587.5,466.7v-0.2c0-2.8,1.3-4.4,2.9-4.4c1.7,0,2.7,1.7,2.7,4.3v0.6h-4.5c0.1,1.9,1.1,3,2.2,3
		c0.7,0,1.2-0.3,1.6-0.7l0.5,0.8c-0.7,0.6-1.4,0.9-2.3,0.9C588.9,471,587.5,469.5,587.5,466.7z M592.1,466.1c0-1.7-0.7-3-1.7-3
		c-1,0-1.7,1.1-1.8,3H592.1z"/>
	<path class="st0" d="M594,472.2c0.8-0.3,1.1-0.7,1-1.4h-0.6v-1.6h1.4v1.4c0,1.3-0.5,1.9-1.6,2.2L594,472.2z"/>
	<path class="st0" d="M600.4,466.7v-0.2c0-2.8,1.3-4.4,2.9-4.4c1.7,0,2.7,1.7,2.7,4.3v0.6h-4.5c0.1,1.9,1.1,3,2.2,3
		c0.7,0,1.2-0.3,1.6-0.7l0.5,0.8c-0.7,0.6-1.4,0.9-2.3,0.9C601.8,471,600.4,469.5,600.4,466.7z M604.9,466.1c0-1.7-0.7-3-1.7-3
		c-1,0-1.7,1.1-1.8,3H604.9z"/>
	<path class="st0" d="M607.7,469.1v-5.9h-0.8v-1h0.8v-2.4h1.1v2.4h1.7v1h-1.7v5.7c0,0.8,0.4,1,1,1c0.2,0,0.5-0.1,0.7-0.2v0.9
		c-0.3,0.1-0.6,0.2-1,0.2C608.5,470.9,607.7,470.5,607.7,469.1z"/>
	<path class="st0" d="M611.4,462.3h1.1l1.5,6.7l1.5-6.7h0.9l1.5,6.7l1.5-6.7h1.1l-2,8.6h-1l-1.5-6.6l-1.5,6.6h-1L611.4,462.3z"/>
	<path class="st0" d="M621.2,468.4v-0.1c0-1.7,1-2.7,2.6-2.7c0.7,0,1.2,0.1,1.7,0.3v-0.7c0-1.2-0.7-1.9-1.8-1.9
		c-0.7,0-1.3,0.3-1.7,0.5l-0.4-0.9c0.6-0.4,1.4-0.6,2.2-0.6c0.8,0,1.5,0.2,2,0.7c0.4,0.4,0.7,1.2,0.7,2.1v5.8h-1.1v-1.2
		c-0.4,0.8-1.1,1.3-2,1.3C622.3,471,621.2,470,621.2,468.4z M625.5,468.1v-1.4c-0.4-0.2-1-0.3-1.5-0.3c-1.1,0-1.7,0.7-1.7,1.8v0.1
		c0,1.1,0.6,1.8,1.4,1.8C624.8,470.1,625.5,469.2,625.5,468.1z"/>
	<path class="st0" d="M628.4,462.3h1.4v1.6h-1.4V462.3z M628.4,469.2h1.4v1.6h-1.4V469.2z"/>
	<path class="st0" d="M337.4,485.3h-1.3l-0.3,2.5h-1.5l0.3-2.5H333l-0.3,2.5h-1.6l0.3-2.5h-0.9v-1.9h1.2l0.3-2.6h-1.1v-1.9h1.3
		l0.3-2.5h1.6l-0.3,2.5h1.5l0.3-2.5h1.6l-0.3,2.5h0.9v1.9h-1.2l-0.3,2.6h1.1V485.3z M333.2,483.5h1.5l0.3-2.7h-1.5L333.2,483.5z"/>
	<path class="st0" d="M338.7,486l2.8-3.8c1-1.3,1.3-1.9,1.3-2.6c0-0.7-0.5-1.2-1.2-1.2c-0.7,0-1.2,0.4-1.8,1.2l-1.2-1.5
		c0.8-1.1,2-1.7,3.2-1.7c1.8,0,3.1,1.1,3.1,3.1v0c0,1.3-0.4,2.1-1.8,3.9l-1.9,2.5h3.6v2h-6.1V486z"/>
	<path class="st0" d="M349.8,485.6h-4.1l-0.2-1.6l4.3-7.6h2v7.3h1.2v1.9h-1.2v2.2h-2V485.6z M349.8,483.7v-3.8l-2.1,3.8H349.8z"/>
	<path class="st0" d="M354.1,476.2h2.1v4c0.4-0.7,0.9-1.3,1.9-1.3c1.3,0,2.1,1,2.1,2.6v6.3h-2.1v-5.7c0-0.8-0.4-1.3-0.9-1.3
		c-0.6,0-1,0.4-1,1.3v5.7h-2.1V476.2z"/>
	<path class="st0" d="M361.6,476.5h3c1.2,0,2.3,0.3,2.9,1c0.5,0.5,0.8,1.1,0.8,1.9v0.1c0,1.4-0.8,2.1-1.6,2.5
		c1.1,0.5,1.9,1.2,1.9,2.6v0.1c0,2-1.6,3.1-3.9,3.1h-3.1V476.5z M366.2,479.8c0-0.9-0.6-1.4-1.5-1.4h-0.9v2.7h0.9
		C365.6,481.2,366.2,480.7,366.2,479.8L366.2,479.8z M364.8,483h-1.1v2.8h1.1c1,0,1.6-0.5,1.6-1.4v0
		C366.5,483.6,365.9,483,364.8,483z"/>
	<path class="st0" d="M369.9,476.5h2.1v11.4h-2.1V476.5z"/>
	<path class="st0" d="M373.8,476.5h2.1v9.4h3.4v2h-5.5V476.5z"/>
	<path class="st0" d="M380.5,476.5h2.8c2.9,0,4.7,2.1,4.7,5.6v0.3c0,3.5-1.7,5.6-4.7,5.6h-2.8V476.5z M382.7,478.4v7.4h0.6
		c1.5,0,2.5-1.1,2.5-3.6v-0.2c0-2.5-1-3.6-2.5-3.6H382.7z"/>
	<path class="st0" d="M413.8,487.1c-0.8-0.8-1.3-2-1.3-4.5v-0.1c0-4.3,1.5-6.2,4-6.2c0.9,0,1.6,0.3,2.4,0.8l-0.9,1.8
		c-0.3-0.3-0.9-0.6-1.5-0.6c-1.1,0-1.7,1-1.8,2.8c0.5-0.4,1.1-0.6,1.8-0.6c1.5,0,2.9,1.1,2.9,3.6v0c0,2.3-1.5,3.9-3.4,3.9
		C415.1,488,414.4,487.7,413.8,487.1z M417.3,484.2L417.3,484.2c0-1.2-0.5-1.9-1.3-1.9c-0.8,0-1.3,0.7-1.3,1.9v0
		c0,1.2,0.5,1.9,1.3,1.9C416.8,486.1,417.3,485.4,417.3,484.2z"/>
	<path class="st0" d="M424.5,485.6h-4.1l-0.2-1.6l4.3-7.6h2v7.3h1.2v1.9h-1.2v2.2h-2V485.6z M424.5,483.7v-3.8l-2.1,3.8H424.5z"/>
	<path class="st0" d="M428.8,485.5h2.3v2.4h-2.3V485.5z"/>
	<path class="st0" d="M432.3,482.4V482c0-3.7,1.4-5.7,3.7-5.7c2.3,0,3.7,2,3.7,5.7v0.4c0,3.7-1.4,5.7-3.7,5.7
		C433.6,488,432.3,486.1,432.3,482.4z M437.5,482.3V482c0-2.8-0.7-3.7-1.5-3.7c-0.9,0-1.5,0.9-1.5,3.7v0.3c0,2.8,0.7,3.7,1.5,3.7
		C436.8,486,437.5,485.1,437.5,482.3z"/>
	<path class="st0" d="M440.7,482.4V482c0-3.7,1.4-5.7,3.7-5.7c2.3,0,3.7,2,3.7,5.7v0.4c0,3.7-1.4,5.7-3.7,5.7
		C442.1,488,440.7,486.1,440.7,482.4z M445.9,482.3V482c0-2.8-0.7-3.7-1.5-3.7c-0.9,0-1.5,0.9-1.5,3.7v0.3c0,2.8,0.7,3.7,1.5,3.7
		C445.3,486,445.9,485.1,445.9,482.3z"/>
	<path class="st0" d="M449.2,482.4V482c0-3.7,1.4-5.7,3.7-5.7c2.3,0,3.7,2,3.7,5.7v0.4c0,3.7-1.4,5.7-3.7,5.7
		C450.6,488,449.2,486.1,449.2,482.4z M454.4,482.3V482c0-2.8-0.7-3.7-1.5-3.7c-0.9,0-1.5,0.9-1.5,3.7v0.3c0,2.8,0.7,3.7,1.5,3.7
		C453.7,486,454.4,485.1,454.4,482.3z"/>
	<path class="st0" d="M461.3,476.5h1.1v10.3h3.9v1.1h-5V476.5z"/>
	<path class="st0" d="M467.7,476.3h1.2v1.4h-1.2V476.3z M467.8,479.3h1.1v8.5h-1.1V479.3z"/>
	<path class="st0" d="M470.3,479.3h1.1l1.9,6.9l1.9-6.9h1.1l-2.5,8.6h-1L470.3,479.3z"/>
	<path class="st0" d="M476.9,483.7v-0.2c0-2.8,1.3-4.4,2.9-4.4c1.7,0,2.7,1.7,2.7,4.3v0.6h-4.5c0.1,1.9,1.1,3,2.2,3
		c0.7,0,1.2-0.3,1.6-0.7l0.5,0.8c-0.7,0.6-1.4,0.9-2.3,0.9C478.3,488,476.9,486.5,476.9,483.7z M481.4,483.2c0-1.7-0.7-3-1.7-3
		c-1,0-1.7,1.1-1.8,3H481.4z"/>
	<path class="st0" d="M483.8,482.4h3.7v1.1h-3.7V482.4z"/>
	<path class="st0" d="M488.2,476.5h1.2l2.5,9.5l2.5-9.5h1.2l-3.2,11.5h-1.1L488.2,476.5z"/>
	<path class="st0" d="M496.9,476.3h1.2v1.4h-1.2V476.3z M497,479.3h1.1v8.5H497V479.3z"/>
	<path class="st0" d="M499.7,483.7v-0.2c0-2.8,1.3-4.4,2.9-4.4c1.7,0,2.7,1.7,2.7,4.3v0.6h-4.5c0.1,1.9,1.1,3,2.2,3
		c0.7,0,1.2-0.3,1.6-0.7l0.5,0.8c-0.7,0.6-1.4,0.9-2.3,0.9C501.1,488,499.7,486.5,499.7,483.7z M504.2,483.2c0-1.7-0.7-3-1.7-3
		c-1,0-1.7,1.1-1.8,3H504.2z"/>
	<path class="st0" d="M506.1,479.3h1.1l1.5,6.7l1.5-6.7h0.9l1.5,6.7l1.5-6.7h1.1l-2,8.6h-1l-1.5-6.6l-1.5,6.6h-1L506.1,479.3z"/>
	<path class="st0" d="M515.9,483.7v-0.2c0-2.8,1.3-4.4,2.9-4.4c1.7,0,2.7,1.7,2.7,4.3v0.6H517c0.1,1.9,1.1,3,2.2,3
		c0.7,0,1.2-0.3,1.6-0.7l0.5,0.8c-0.7,0.6-1.4,0.9-2.3,0.9C517.4,488,515.9,486.5,515.9,483.7z M520.5,483.2c0-1.7-0.7-3-1.7-3
		c-1,0-1.7,1.1-1.8,3H520.5z"/>
	<path class="st0" d="M523.1,479.3h1.1v1.5c0.4-1,1.2-1.7,2.3-1.6v1.2h0c-1.3,0-2.2,0.9-2.2,2.6v4.8h-1.1V479.3z"/>
	<path class="st0" d="M413.5,495.7l-1.4,0.4l-0.2-2l2.3-0.7h1.5v11.5h-2.1V495.7z"/>
	<path class="st0" d="M417.2,503l2.8-3.8c1-1.3,1.3-1.9,1.3-2.6c0-0.7-0.5-1.2-1.2-1.2c-0.7,0-1.2,0.4-1.8,1.2l-1.2-1.5
		c0.8-1.1,2-1.7,3.2-1.7c1.8,0,3.1,1.1,3.1,3.1v0c0,1.3-0.4,2.1-1.8,3.9l-1.9,2.5h3.6v2h-6.1V503z"/>
	<path class="st0" d="M424.5,499.4V499c0-3.7,1.4-5.7,3.7-5.7c2.3,0,3.7,2,3.7,5.7v0.4c0,3.7-1.4,5.7-3.7,5.7
		C425.9,505,424.5,503.1,424.5,499.4z M429.7,499.3V499c0-2.8-0.7-3.7-1.5-3.7c-0.9,0-1.5,0.9-1.5,3.7v0.3c0,2.8,0.7,3.7,1.5,3.7
		C429,503,429.7,502.1,429.7,499.3z"/>
	<path class="st0" d="M433,502.5h2.3v2.4H433V502.5z"/>
	<path class="st0" d="M436.4,499.4V499c0-3.7,1.4-5.7,3.7-5.7c2.3,0,3.7,2,3.7,5.7v0.4c0,3.7-1.4,5.7-3.7,5.7
		C437.8,505,436.4,503.1,436.4,499.4z M441.6,499.3V499c0-2.8-0.7-3.7-1.5-3.7c-0.9,0-1.5,0.9-1.5,3.7v0.3c0,2.8,0.7,3.7,1.5,3.7
		C441,503,441.6,502.1,441.6,499.3z"/>
	<path class="st0" d="M444.9,499.4V499c0-3.7,1.4-5.7,3.7-5.7c2.3,0,3.7,2,3.7,5.7v0.4c0,3.7-1.4,5.7-3.7,5.7
		C446.3,505,444.9,503.1,444.9,499.4z M450.1,499.3V499c0-2.8-0.7-3.7-1.5-3.7c-0.9,0-1.5,0.9-1.5,3.7v0.3c0,2.8,0.7,3.7,1.5,3.7
		C449.4,503,450.1,502.1,450.1,499.3z"/>
	<path class="st0" d="M453.4,499.4V499c0-3.7,1.4-5.7,3.7-5.7c2.3,0,3.7,2,3.7,5.7v0.4c0,3.7-1.4,5.7-3.7,5.7
		C454.7,505,453.4,503.1,453.4,499.4z M458.5,499.3V499c0-2.8-0.7-3.7-1.5-3.7c-0.9,0-1.5,0.9-1.5,3.7v0.3c0,2.8,0.7,3.7,1.5,3.7
		C457.9,503,458.5,502.1,458.5,499.3z"/>
	<path class="st0" d="M465.5,493.5h1.1v5.1h4.2v-5.1h1.1v11.4h-1.1v-5.2h-4.2v5.2h-1.1V493.5z"/>
	<path class="st0" d="M473.6,500.7v-0.2c0-2.8,1.3-4.4,2.9-4.4c1.7,0,2.7,1.7,2.7,4.3v0.6h-4.5c0.1,1.9,1.1,3,2.2,3
		c0.7,0,1.2-0.3,1.6-0.7l0.5,0.8c-0.7,0.6-1.4,0.9-2.3,0.9C475,505,473.6,503.5,473.6,500.7z M478.2,500.2c0-1.7-0.7-3-1.7-3
		c-1,0-1.7,1.1-1.8,3H478.2z"/>
	<path class="st0" d="M480.7,496.3h1.1v1.5c0.4-1,1.2-1.7,2.3-1.6v1.2h0c-1.3,0-2.2,0.9-2.2,2.6v4.8h-1.1V496.3z"/>
	<path class="st0" d="M484.8,504.1l3.7-6.9h-3.5v-0.9h4.7v0.7l-3.6,6.9h3.6v0.9h-4.9V504.1z"/>
	<path class="st0" d="M490.6,500.7v-0.2c0-2.8,1.3-4.4,2.9-4.4c1.7,0,2.7,1.7,2.7,4.3v0.6h-4.5c0.1,1.9,1.1,3,2.2,3
		c0.7,0,1.2-0.3,1.6-0.7l0.5,0.8c-0.7,0.6-1.4,0.9-2.3,0.9C492,505,490.6,503.5,490.6,500.7z M495.2,500.2c0-1.7-0.7-3-1.7-3
		c-1,0-1.7,1.1-1.8,3H495.2z"/>
	<path class="st0" d="M497.7,496.3h1.1v1.3c0.4-0.8,1-1.4,2-1.4c1.3,0,2.2,1,2.2,2.8v5.9H502v-5.6c0-1.4-0.6-2.1-1.5-2.1
		c-1,0-1.7,0.8-1.7,2.1v5.6h-1.1V496.3z"/>
	<path class="st0" d="M413.5,512.7l-1.4,0.4l-0.2-2l2.3-0.7h1.5v11.5h-2.1V512.7z"/>
	<path class="st0" d="M421.8,517.4c-0.5,0.4-1.1,0.6-1.8,0.6c-1.5,0-2.9-1.1-2.9-3.6v0c0-2.4,1.5-4,3.4-4c0.9,0,1.7,0.3,2.2,0.9
		c0.8,0.8,1.3,2,1.3,4.5v0.1c0,4.3-1.5,6.2-4,6.2c-0.9,0-1.7-0.3-2.6-1l0.9-1.8c0.5,0.4,1,0.7,1.7,0.7
		C421,520,421.7,519.1,421.8,517.4z M421.8,514.2L421.8,514.2c0-1.2-0.5-1.9-1.3-1.9c-0.8,0-1.3,0.7-1.3,1.9v0
		c0,1.2,0.5,1.9,1.3,1.9C421.3,516.1,421.8,515.4,421.8,514.2z"/>
	<path class="st0" d="M424.9,520.1l2.8-3.8c1-1.3,1.3-1.9,1.3-2.6c0-0.7-0.5-1.2-1.2-1.2c-0.7,0-1.2,0.4-1.8,1.2l-1.2-1.5
		c0.8-1.1,2-1.7,3.2-1.7c1.8,0,3.1,1.1,3.1,3.1v0c0,1.3-0.4,2.1-1.8,3.9l-1.9,2.5h3.6v2h-6.1V520.1z"/>
	<path class="st0" d="M431.8,520.9l1-1.7c0.4,0.3,0.9,0.8,1.8,0.8c0.9,0,1.5-0.6,1.5-1.6v0c0-1-0.8-1.7-2.3-1.7h-0.3l-0.1-1.4
		l2.2-2.8h-3.3v-2h5.8v1.8l-2.4,2.9c1.3,0.3,2.5,1.3,2.5,3.2v0.1c0,2.2-1.5,3.6-3.5,3.6C433.6,522,432.6,521.6,431.8,520.9z"/>
	<path class="st0" d="M442.2,520.6l0.7-0.9c0.7,0.7,1.5,1.2,2.4,1.2c1.2,0,1.9-0.8,1.9-1.9v0c0-0.8-0.3-1.4-2-2.4
		c-2-1.2-2.6-2.1-2.6-3.4v0c0-1.6,1.2-2.9,3-2.9c0.9,0,1.9,0.3,2.7,1.1l-0.7,0.9c-0.6-0.6-1.3-1-2.1-1c-1.1,0-1.8,0.8-1.8,1.7v0
		c0,0.9,0.4,1.4,2.1,2.5c2,1.2,2.5,2.1,2.5,3.4v0c0,1.7-1.3,3-3.1,3C444.3,522,443.2,521.6,442.2,520.6z"/>
	<path class="st0" d="M450.2,520.2v-5.9h-0.8v-1h0.8v-2.4h1.1v2.4h1.7v1h-1.7v5.7c0,0.8,0.4,1,1,1c0.2,0,0.5-0.1,0.7-0.2v0.9
		c-0.3,0.1-0.6,0.2-1,0.2C451,522,450.2,521.5,450.2,520.2z"/>
	<path class="st0" d="M454.4,519.2v-5.9h1.1v5.6c0,1.4,0.5,2.1,1.5,2.1c1,0,1.7-0.8,1.7-2.2v-5.5h1.1v8.5h-1.1v-1.3
		c-0.4,0.8-1,1.4-2,1.4C455.2,522,454.4,521,454.4,519.2z"/>
	<path class="st0" d="M461.6,513.3h1.1v1.3c0.4-0.8,1-1.4,2-1.4c1.3,0,2.2,1,2.2,2.8v5.9h-1.1v-5.6c0-1.4-0.6-2.1-1.5-2.1
		c-1,0-1.7,0.8-1.7,2.1v5.6h-1.1V513.3z"/>
	<path class="st0" d="M468.4,517.7v-0.3c0-2.9,1.2-4.3,2.6-4.3c1.1,0,1.8,0.8,2.2,1.7v-4.6h1.1v11.6h-1.1v-1.6
		c-0.4,0.9-1.1,1.7-2.2,1.7C469.7,522,468.4,520.6,468.4,517.7z M473.3,517.7v-0.3c0-2-0.9-3.3-2-3.3c-1,0-1.8,1.1-1.8,3.3v0.2
		c0,2.2,0.8,3.3,1.8,3.3C472.3,521,473.3,519.8,473.3,517.7z"/>
	<path class="st0" d="M475.8,517.7v-0.2c0-2.8,1.3-4.4,2.9-4.4c1.7,0,2.7,1.7,2.7,4.3v0.6h-4.5c0.1,1.9,1.1,3,2.2,3
		c0.7,0,1.2-0.3,1.6-0.7l0.5,0.8c-0.7,0.6-1.4,0.9-2.3,0.9C477.3,522,475.8,520.5,475.8,517.7z M480.4,517.2c0-1.7-0.7-3-1.7-3
		c-1,0-1.7,1.1-1.8,3H480.4z"/>
	<path class="st0" d="M483,513.3h1.1v1.3c0.4-0.8,1-1.4,2-1.4c1.3,0,2.2,1,2.2,2.8v5.9h-1.1v-5.6c0-1.4-0.6-2.1-1.5-2.1
		c-1,0-1.7,0.8-1.7,2.1v5.6H483V513.3z"/>
	<path class="st0" d="M492.6,520.6l0.7-0.9c0.7,0.7,1.5,1.2,2.4,1.2c1.2,0,1.9-0.8,1.9-1.9v0c0-0.8-0.3-1.4-2-2.4
		c-2-1.2-2.6-2.1-2.6-3.4v0c0-1.6,1.2-2.9,3-2.9c0.9,0,1.9,0.3,2.7,1.1l-0.7,0.9c-0.6-0.6-1.3-1-2.1-1c-1.1,0-1.8,0.8-1.8,1.7v0
		c0,0.9,0.4,1.4,2.1,2.5c2,1.2,2.5,2.1,2.5,3.4v0c0,1.7-1.3,3-3.1,3C494.6,522,493.6,521.6,492.6,520.6z"/>
	<path class="st0" d="M499.9,517.7v-0.2c0-2.8,1.3-4.4,2.9-4.4c1.7,0,2.7,1.7,2.7,4.3v0.6H501c0.1,1.9,1.1,3,2.2,3
		c0.7,0,1.2-0.3,1.6-0.7l0.5,0.8c-0.7,0.6-1.4,0.9-2.3,0.9C501.4,522,499.9,520.5,499.9,517.7z M504.5,517.2c0-1.7-0.7-3-1.7-3
		c-1,0-1.7,1.1-1.8,3H504.5z"/>
	<path class="st0" d="M507.1,510.2h1.1v4.4c0.4-0.8,1-1.4,2-1.4c1.3,0,2.2,1,2.2,2.8v5.9h-1.1v-5.6c0-1.4-0.6-2.1-1.5-2.1
		c-1,0-1.7,0.8-1.7,2.1v5.6h-1.1V510.2z"/>
	<path class="st0" d="M513.9,517.7v-0.3c0-2.9,1.2-4.3,2.6-4.3c1.1,0,1.8,0.8,2.2,1.7v-4.6h1.1v11.6h-1.1v-1.6
		c-0.4,0.9-1.1,1.7-2.2,1.7C515.1,522,513.9,520.6,513.9,517.7z M518.7,517.7v-0.3c0-2-0.9-3.3-2-3.3c-1,0-1.8,1.1-1.8,3.3v0.2
		c0,2.2,0.8,3.3,1.8,3.3C517.8,521,518.7,519.8,518.7,517.7z"/>
	<path class="st0" d="M521.2,519.4v-0.1c0-1.7,1-2.7,2.6-2.7c0.7,0,1.2,0.1,1.7,0.3v-0.7c0-1.2-0.7-1.9-1.8-1.9
		c-0.7,0-1.3,0.3-1.7,0.5l-0.4-0.9c0.6-0.4,1.4-0.6,2.2-0.6c0.8,0,1.5,0.2,2,0.7c0.4,0.4,0.7,1.2,0.7,2.1v5.8h-1.1v-1.2
		c-0.4,0.8-1.1,1.4-2,1.4C522.2,522,521.2,521,521.2,519.4z M525.5,519.1v-1.4c-0.4-0.2-1-0.3-1.5-0.3c-1.1,0-1.7,0.7-1.7,1.8v0.1
		c0,1.1,0.6,1.8,1.4,1.8C524.7,521.1,525.5,520.2,525.5,519.1z"/>
	<path class="st0" d="M528.2,519.2v-5.9h1.1v5.6c0,1.4,0.5,2.1,1.5,2.1c1,0,1.7-0.8,1.7-2.2v-5.5h1.1v8.5h-1.1v-1.3
		c-0.4,0.8-1,1.4-2,1.4C529.1,522,528.2,521,528.2,519.2z"/>
	<path class="st0" d="M535.1,517.7v-0.2c0-2.8,1.3-4.4,2.9-4.4c1.7,0,2.7,1.7,2.7,4.3v0.6h-4.5c0.1,1.9,1.1,3,2.2,3
		c0.7,0,1.2-0.3,1.6-0.7l0.5,0.8c-0.7,0.6-1.4,0.9-2.3,0.9C536.5,522,535.1,520.5,535.1,517.7z M539.6,517.2c0-1.7-0.7-3-1.7-3
		c-1,0-1.7,1.1-1.8,3H539.6z"/>
	<path class="st0" d="M542.2,513.3h1.1v1.5c0.4-1,1.2-1.7,2.3-1.6v1.2h0c-1.3,0-2.2,0.9-2.2,2.6v4.8h-1.1V513.3z"/>
</g>
<rect x="260.9" y="156.6" class="st0" width="330.3" height="19.5"/>
<rect x="622.8" y="156.6" class="st0" width="51.1" height="19.5"/>
<g>
	<path class="st0" d="M509,87.3V78h0.8v9.4c0,1.7,0.7,2.7,1.9,2.7s1.9-1,1.9-2.7V78h0.8v9.4c0,2.1-1,3.4-2.7,3.4S509,89.4,509,87.3z
		 M510.4,76h0.9v1.1h-0.9V76z M512.2,76h0.9v1.1h-0.9V76z"/>
	<path class="st0" d="M516.3,78h1.6c1,0,1.9,0.3,2.5,1c0.5,0.5,0.8,1.3,0.8,2.2v0c0,1.9-1,2.7-2.3,3c1.5,0.3,2.4,1.3,2.4,3.1v0
		c0,2.1-1.5,3.3-3.8,3.3h-1.3V78z M520.4,81.2c0-1.5-1-2.5-2.6-2.5h-0.8v5.2h0.5C519.4,83.9,520.4,82.8,520.4,81.2L520.4,81.2z
		 M517.7,84.6h-0.6v5.3h0.5c1.9,0,3-0.9,3-2.6v0C520.6,85.5,519.5,84.6,517.7,84.6z"/>
	<path class="st0" d="M522.9,78h4.2v0.7h-3.4v5.2h3.1v0.7h-3.1v5.3h3.5v0.7h-4.3V78z"/>
	<path class="st0" d="M528.6,78h1.5c1.1,0,2,0.3,2.6,1c0.6,0.6,1,1.6,1,2.7v0c0,1.7-0.8,3-2.1,3.5l2.4,5.3H533l-2.2-5.1
		c-0.2,0-0.4,0.1-0.7,0.1h-0.7v5.1h-0.8V78z M530.2,84.8c1.7,0,2.8-1.1,2.8-3.1v0c0-2-1.1-3-2.8-3h-0.7v6.1H530.2z"/>
	<path class="st0" d="M538.8,80.3l-1.3,0.4v-2.2l1.9-0.6h1.5v12.7h-2.2V80.3z"/>
	<path class="st0" d="M542.2,84.6v-0.7c0-4.4,1.1-6.1,3.1-6.1c2,0,3.1,1.8,3.1,6.1v0.7c0,4.4-1.1,6.1-3.1,6.1
		C543.3,90.7,542.2,89,542.2,84.6z M546.2,84.6v-0.6c0-3.6-0.4-4.1-0.9-4.1c-0.5,0-0.9,0.6-0.9,4.1v0.6c0,3.6,0.4,4.1,0.9,4.1
		C545.8,88.7,546.2,88.2,546.2,84.6z"/>
	<path class="st0" d="M552.2,78h2.2l1.5,4.8l1.5-4.8h2.2v12.6h-2.1v-7.6l-1.6,4.8h0l-1.6-4.8v7.6h-2.1V78z"/>
	<path class="st0" d="M560.8,78h2.2v12.6h-2.2V78z"/>
	<path class="st0" d="M564,84.6v-0.6c0-4.2,1.3-6.2,3.3-6.2c2,0,3.3,2,3.3,6.2v0.6c0,4.2-1.3,6.2-3.3,6.2
		C565.4,90.7,564,88.7,564,84.6z M568.4,84.6v-0.6c0-3.2-0.4-4.1-1.1-4.1c-0.7,0-1.1,0.9-1.1,4.1v0.6c0,3.2,0.4,4.1,1.1,4.1
		C568,88.7,568.4,87.8,568.4,84.6z"/>
	<path class="st0" d="M571.6,88.1h2.4v2.5h-2.4V88.1z"/>
	<path class="st0" d="M578.2,78h2l2.2,6.5V78h2.1v12.6h-1.9l-2.3-6.8v6.8h-2.1V78z"/>
	<path class="st0" d="M585.8,86.9V78h2.2v9.1c0,1.1,0.4,1.6,0.9,1.6c0.5,0,0.9-0.4,0.9-1.6V78h2.2v8.9c0,2.6-1.3,3.8-3.1,3.8
		S585.8,89.5,585.8,86.9z"/>
	<path class="st0" d="M594.3,80.1h-1.5V78h5.2v2.1h-1.5v10.5h-2.2V80.1z"/>
	<path class="st0" d="M598.6,88.8l2.8-8.8h-2.7V78h5.1v1.7l-2.8,8.8h2.8v2.1h-5.2V88.8z"/>
	<path class="st0" d="M604.9,78h4.7v2.1H607v3.1h2.3v2.1H607v3.2h2.6v2.1h-4.8V78z"/>
	<path class="st0" d="M610.7,78h2.2c1.1,0,2.1,0.3,2.8,1c0.7,0.7,1,1.6,1,3v0.2c0,1.6-0.6,2.7-1.4,3.3l1.7,5.1h-2.3l-1.4-4.4h-0.4
		v4.4h-2.2V78z M612.9,84.2c0.9,0,1.6-0.6,1.6-2V82c0-1.6-0.7-2-1.7-2h-0.1v4.2H612.9z"/>
	<path class="st0" d="M620.5,78h0.8l1.7,11l2-11h0.7l2,11l1.7-11h0.8l-2.1,12.7h-0.7l-2-11l-2,11h-0.7L620.5,78z"/>
	<path class="st0" d="M631.8,78h4.2v0.7h-3.4v5.2h3.1v0.7h-3.1v5.3h3.5v0.7h-4.3V78z"/>
	<path class="st0" d="M637.5,78h0.8v11.9h3.1v0.7h-3.9V78z"/>
	<path class="st0" d="M643.1,78.7h-2V78h4.8v0.7h-2v11.9h-0.8V78.7z"/>
	<path class="st0" d="M646.5,78h0.8l1.7,11l2-11h0.7l2,11l1.7-11h0.8l-2.1,12.7h-0.7l-2-11l-2,11h-0.7L646.5,78z"/>
	<path class="st0" d="M657.7,78h4.2v0.7h-3.4v5.2h3.1v0.7h-3.1v5.3h3.5v0.7h-4.3V78z"/>
	<path class="st0" d="M663.6,78h0.8v12.6h-0.8V78z"/>
	<path class="st0" d="M667.7,78.7h-2V78h4.8v0.7h-2v11.9h-0.8V78.7z"/>
</g>
</svg>
