<?xml version="1.0" encoding="utf-8"?>
<!-- Generator: Adobe Illustrator 19.1.0, SVG Export Plug-In . SVG Version: 6.00 Build 0)  -->
<svg version="1.1" id="Ebene_1" xmlns="http://www.w3.org/2000/svg" xmlns:xlink="http://www.w3.org/1999/xlink" x="0px" y="0px"
	 viewBox="0 0 841.9 595.3" style="enable-background:new 0 0 841.9 595.3;" xml:space="preserve">
<style type="text/css">
	.st0{fill:#FFFFFF;}
	.st1{fill:none;}
</style>
<g>
	<polygon class="st0" points="229.3,93.7 238,93.7 238,165.5 229.3,165.5 229.3,93.7 	"/>
	<g>
		<path class="st0" d="M209.3,93.7h-17.1l0,71.8l17.1,0c2.1,0,3.8-1.7,3.8-3.9l0-29.6v-1.6c0-2.2-1.8-4.1-4-4.1l0.4,0
			c2,0,3.6-1.6,3.6-3.7v-2.4V97.5C213.1,95.4,211.4,93.7,209.3,93.7z M204.4,156.6h-3.6v-24.8h3.6V156.6z M204.4,123h-3.6v-20.5h3.6
			V123z"/>
		<rect x="200.9" y="102.5" class="st1" width="3.6" height="20.5"/>
		<rect x="200.9" y="131.8" class="st1" width="3.6" height="24.8"/>
	</g>
	<g>
		<path class="st0" d="M254,93.7v12.5h-8.5c-2.1,0-3.7,1.7-3.8,3.9l0,51.5c0,2.1,1.7,3.9,3.8,3.9l17.1,0V93.7H254z M254,156.6h-3.6
			v-41.6h3.6V156.6z"/>
		<rect x="250.4" y="114.9" class="st1" width="3.6" height="41.6"/>
	</g>
	<polygon class="st0" points="216.9,93.7 225.5,93.7 225.5,102.5 216.9,102.5 216.9,93.7 	"/>
	<polygon class="st0" points="216.9,106.2 225.5,106.2 225.5,165.5 216.9,165.5 216.9,106.2 	"/>
</g>
<g>
	<path class="st0" d="M214.6,442.1l6.2-17.4h-5.9v-1h7.2v0.7l-6.2,17.4h6.2v1h-7.5V442.1z"/>
	<path class="st0" d="M223.9,438.5v-10.1h1.1v9.9c0,2.4,0.8,3.7,2.3,3.7c1.5,0,2.7-1.6,2.7-3.9v-9.7h1.1v14.4H230v-2.1
		c-0.5,1.2-1.3,2.3-2.9,2.3C225.2,443,223.9,441.4,223.9,438.5z"/>
	<path class="st0" d="M234,428.4h1.1v2.1c0.5-1.3,1.6-2.4,3.3-2.3v1.2h-0.1c-1.8,0-3.3,1.2-3.3,3.7v9.6H234V428.4z"/>
	<path class="st0" d="M239.3,442.1l5.1-12.7h-4.9v-1h6.1v0.7l-5.1,12.7h5v1h-6.2V442.1z"/>
	<path class="st0" d="M247,435.9v-0.2c0-5,1.8-7.4,3.9-7.4c2.1,0,3.7,2.5,3.7,7v0.8h-6.4c0.1,3.9,1.6,5.8,3.5,5.8
		c0.9,0,1.5-0.2,2.4-0.8l0.1,1.2c-1,0.6-1.6,0.8-2.7,0.8C249.1,443,247,440.6,247,435.9z M253.4,435.1c0-3.3-1.1-5.8-2.6-5.8
		c-1.5,0-2.6,2-2.7,5.8H253.4z"/>
	<path class="st0" d="M257,423.4h1.2v1.9H257V423.4z M257,428.4h1.1v14.4H257V428.4z"/>
	<path class="st0" d="M261.6,440.4v-10.9h-1.3v-1.1h1.3v-4.1h1.1v4.1h2.3v1.1h-2.3v10.7c0,1.3,0.6,1.6,1.5,1.6
		c0.3,0,0.6-0.1,0.9-0.1v1.1c-0.3,0.1-0.7,0.2-1,0.2C262.6,442.9,261.6,442.2,261.6,440.4z"/>
	<path class="st0" d="M271.5,445.9v-3c0.9,0.3,2,0.6,2.7,0.6c1.4,0,2.3-0.6,2.3-2.3v-1.5c-0.5,0.9-1.2,2.1-2.6,2.1c-1.7,0-3-1.8-3-7
		v-0.2c0-5.2,1.3-7,3-7c1.4,0,2.1,1.2,2.6,2.1v-1.8h3.2v13.4c0,1.6-0.4,2.8-1.2,3.6c-0.9,0.9-2.2,1.3-3.8,1.3
		C273.3,446.4,272.5,446.2,271.5,445.9z M276.5,434.9L276.5,434.9c0-2.7-0.5-4-1.3-4s-1.2,1.3-1.2,3.9v0.1c0,2.6,0.4,3.9,1.2,3.9
		S276.5,437.5,276.5,434.9z"/>
	<path class="st0" d="M281.4,428.1h3.2v1.8c0.4-1.3,1.1-2.1,2.3-2v3.9h-0.1c-1.5,0-2.3,1-2.3,3.1v7.8h-3.2V428.1z"/>
	<path class="st0" d="M287.5,435.9V435c0-4.7,1.9-7.1,4.5-7.1s4.5,2.4,4.5,7.1v0.9c0,4.7-1.9,7.1-4.5,7.1S287.5,440.6,287.5,435.9z
		 M288.6,423.9h2.8v3h-2.8V423.9z M293.2,436v-1c0-2.9-0.5-4.2-1.3-4.2s-1.3,1.3-1.3,4.2v1c0,2.8,0.5,4.2,1.3,4.2
		S293.2,438.8,293.2,436z M292.4,423.9h2.8v3h-2.8V423.9z"/>
	<path class="st0" d="M302.4,440.1c1.2-0.2,1.8-1.2,1.8-2.9v-0.1c0-1.6-0.5-2.7-1.8-3v-2.4c1-0.7,1.4-1.8,1.4-3.2v-0.2
		c0-1.4-0.5-2.1-1.3-2.1c-0.9,0-1.4,1-1.4,2.8v13.8h-3.2v-13.6c0-3.4,1.6-5.7,4.6-5.7c2.8,0,4.3,2.1,4.3,4.5v0.2
		c0,2.2-0.8,3.5-2.1,4.4c1.6,0.8,2.6,2.2,2.6,4.5v0.2c0,3.4-1.6,5.5-4.9,5.6V440.1z"/>
	<path class="st0" d="M309,440.3v-9.5h-0.9v-2.6h0.9v-3.8h3.2v3.8h1.7v2.6h-1.7v8.4c0,0.7,0.3,0.9,0.9,0.9c0.2,0,0.5-0.1,0.8-0.2
		v2.6c-0.5,0.3-1.2,0.5-1.9,0.5C310.4,443,309,442.5,309,440.3z"/>
	<path class="st0" d="M314.5,435.8v-0.7c0-4.7,2-7.2,4.4-7.2c2.5,0,4.1,2.5,4.1,7.4v1.7h-5.3c0.2,2.3,1.1,3.1,2.2,3.1
		c1,0,1.6-0.4,2.5-1.1l0.2,3c-1.1,0.7-2,1.1-3.2,1.1C316.8,443.1,314.5,440.6,314.5,435.8z M320,434.4c0-2.5-0.3-3.6-1.1-3.6
		c-0.7,0-1.2,1-1.2,3.6H320z"/>
	<path class="st0" d="M328.3,436.1v-1.3c0-5.2,1.3-7,3.1-7c1.4,0,2,1.2,2.5,2.1v-6.4h3.2v19.3h-3.2v-1.8c-0.5,0.9-1.1,2.1-2.5,2.1
		C329.7,443.1,328.3,441.4,328.3,436.1z M334,435.9v-1c0-2.6-0.5-4-1.3-4s-1.2,1.4-1.2,4v1c0,2.6,0.4,4,1.2,4S334,438.6,334,435.9z"
		/>
	<path class="st0" d="M338.5,435.8v-0.7c0-4.7,2-7.2,4.4-7.2c2.5,0,4.1,2.5,4.1,7.4v1.7h-5.3c0.2,2.3,1.1,3.1,2.2,3.1
		c1,0,1.6-0.4,2.5-1.1l0.2,3c-1.1,0.7-2,1.1-3.2,1.1C340.8,443.1,338.5,440.6,338.5,435.8z M344,434.4c0-2.5-0.3-3.6-1.1-3.6
		c-0.7,0-1.2,1-1.2,3.6H344z"/>
	<path class="st0" d="M348.2,439.2v-11.1h3.2v10.4c0,1.1,0.4,1.7,1,1.7s1.1-0.6,1.1-1.7v-10.4h3.2v14.7h-3.2V441
		c-0.6,1.1-1.3,2-2.6,2C349.1,443.1,348.2,441.5,348.2,439.2z"/>
	<path class="st0" d="M358.8,440.3v-9.5H358v-2.6h0.9v-3.8h3.2v3.8h1.7v2.6H362v8.4c0,0.7,0.3,0.9,0.9,0.9c0.2,0,0.5-0.1,0.8-0.2
		v2.6c-0.5,0.3-1.2,0.5-1.9,0.5C360.3,443,358.8,442.5,358.8,440.3z"/>
	<path class="st0" d="M364.6,442.4v-3.2c1.1,0.6,2,1,2.7,1c0.8,0,1.2-0.4,1.2-1.2c0-0.6-0.2-1.1-1.6-2.4c-1.5-1.5-2.4-2.8-2.4-4.6
		v-0.1c0-2.4,1.6-4,4.1-4c0.9,0,1.6,0.1,2.4,0.4v3.2c-0.7-0.4-1.4-0.7-2.2-0.7c-0.8,0-1.2,0.4-1.2,1c0,0.6,0.2,1,1.7,2.4
		c1.8,1.8,2.3,2.9,2.3,4.6v0.1c0,2.5-1.7,4.2-4,4.2C366.6,443.1,365.5,442.8,364.6,442.4z"/>
	<path class="st0" d="M372.4,435.9V435c0-4.7,1.9-7.1,4.5-7.1c0.9,0,1.3,0.1,2,0.4v3.3c-0.5-0.3-1-0.5-1.6-0.5c-1,0-1.7,1-1.7,3.9v1
		c0,2.8,0.7,3.9,1.8,3.9c0.5,0,1-0.3,1.6-0.6v3.2c-0.7,0.4-1.3,0.6-2.1,0.6C374.2,443.1,372.4,440.6,372.4,435.9z"/>
	<path class="st0" d="M380.3,423.5h3.2v6.4c0.6-1.1,1.3-2,2.6-2c1.8,0,2.8,1.6,2.8,3.8v11.1h-3.2v-10.4c0-1.1-0.4-1.7-1-1.7
		s-1.1,0.6-1.1,1.7v10.4h-3.2V423.5z"/>
	<path class="st0" d="M390.2,435.8v-0.7c0-4.7,2-7.2,4.4-7.2c2.5,0,4.1,2.5,4.1,7.4v1.7h-5.3c0.2,2.3,1.1,3.1,2.2,3.1
		c1,0,1.6-0.4,2.5-1.1l0.2,3c-1.1,0.7-2,1.1-3.2,1.1C392.4,443.1,390.2,440.6,390.2,435.8z M395.7,434.4c0-2.5-0.3-3.6-1.1-3.6
		c-0.7,0-1.2,1-1.2,3.6H395.7z"/>
	<path class="st0" d="M404.3,423.6h3.3l2.3,7.3l2.3-7.3h3.3v19.2h-3.1v-11.6l-2.4,7.3h-0.1l-2.4-7.3v11.6h-3.1V423.6z"/>
	<path class="st0" d="M416.9,435.8v-0.7c0-4.7,2-7.2,4.4-7.2c2.5,0,4.1,2.5,4.1,7.4v1.7h-5.3c0.2,2.3,1.1,3.1,2.2,3.1
		c1,0,1.6-0.4,2.5-1.1l0.2,3c-1.1,0.7-2,1.1-3.2,1.1C419.2,443.1,416.9,440.6,416.9,435.8z M422.4,434.4c0-2.5-0.3-3.6-1.1-3.6
		c-0.7,0-1.2,1-1.2,3.6H422.4z"/>
	<path class="st0" d="M426.5,436.1v-1.3c0-5.2,1.3-7,3.1-7c1.4,0,2,1.2,2.5,2.1v-6.4h3.2v19.3H432v-1.8c-0.5,0.9-1.1,2.1-2.5,2.1
		C427.8,443.1,426.5,441.4,426.5,436.1z M432.1,435.9v-1c0-2.6-0.5-4-1.3-4s-1.2,1.4-1.2,4v1c0,2.6,0.4,4,1.2,4
		S432.1,438.6,432.1,435.9z"/>
	<path class="st0" d="M437,423.5h3.2v3.2H437V423.5z M437,428.1h3.2v14.7H437V428.1z"/>
	<path class="st0" d="M441.6,435.8v-0.7c0-4.7,2-7.2,4.4-7.2c2.5,0,4.1,2.5,4.1,7.4v1.7h-5.3c0.2,2.3,1.1,3.1,2.2,3.1
		c1,0,1.6-0.4,2.5-1.1l0.2,3c-1.1,0.7-2,1.1-3.2,1.1C443.9,443.1,441.6,440.6,441.6,435.8z M447.1,434.4c0-2.5-0.3-3.6-1.1-3.6
		c-0.7,0-1.2,1-1.2,3.6H447.1z"/>
	<path class="st0" d="M451.4,428.1h3.2v1.8c0.6-1.1,1.3-2,2.6-2c1.8,0,2.8,1.6,2.8,3.8v11.1h-3.2v-10.4c0-1.1-0.4-1.7-1-1.7
		s-1.1,0.6-1.1,1.7v10.4h-3.2V428.1z"/>
	<path class="st0" d="M461.6,428.1h3.2v1.7c0.6-1.2,1.4-2,2.6-2c1.2,0,1.9,0.7,2.4,1.7c0.6-0.8,1.3-1.7,2.6-1.7c1.5,0,3,1.3,3,3.9
		v11.1h-3.2v-10.4c0-1.1-0.4-1.7-1-1.7s-1.1,0.6-1.1,1.7v10.4h-3.2v-10.4c0-1.1-0.4-1.7-1-1.7s-1.1,0.6-1.1,1.7v10.4h-3.2V428.1z"/>
	<path class="st0" d="M476.5,438.7v-0.5c0-3.3,1.3-4.7,3.2-4.7c0.7,0,1.3,0.2,1.9,0.5v-0.9c0-1.5-0.7-2.3-2-2.3
		c-0.8,0-1.7,0.3-2.4,0.7v-3.1c1-0.4,2.1-0.6,2.9-0.6c1.6,0,2.6,0.4,3.4,1.2c0.9,0.9,1.3,2.2,1.3,3.9v9.8h-3.2v-1.6
		c-0.6,1.2-1.3,1.8-2.4,1.8C477.7,443,476.5,441.4,476.5,438.7z M481.7,438.9v-2.5c-0.2-0.1-0.7-0.3-1-0.3c-0.6,0-1.1,0.5-1.1,1.9
		v0.4c0,1.5,0.4,1.9,1,1.9C481.1,440.3,481.7,439.9,481.7,438.9z"/>
	<path class="st0" d="M486.5,428.1h3.2v1.8c0.4-1.3,1.1-2.1,2.3-2v3.9h-0.1c-1.5,0-2.3,1-2.3,3.1v7.8h-3.2V428.1z"/>
	<path class="st0" d="M493.2,423.5h3.2v10.4l2.1-5.8h3.4l-2.5,5.9l2.4,8.7h-3.5l-1.3-5.6l-0.6,1.6v4h-3.2V423.5z"/>
	<path class="st0" d="M502.3,435.8v-0.7c0-4.7,2-7.2,4.4-7.2c2.5,0,4.1,2.5,4.1,7.4v1.7h-5.3c0.2,2.3,1.1,3.1,2.2,3.1
		c1,0,1.6-0.4,2.5-1.1l0.2,3c-1.1,0.7-2,1.1-3.2,1.1C504.6,443.1,502.3,440.6,502.3,435.8z M507.8,434.4c0-2.5-0.3-3.6-1.1-3.6
		c-0.7,0-1.2,1-1.2,3.6H507.8z"/>
	<path class="st0" d="M516.4,438.6v-0.2c0-2.7,1.3-4.6,3.7-4.6c1,0,1.7,0.2,2.4,0.5v-1.8c0-2-0.9-3.2-2.7-3.2c-1,0-1.8,0.2-2.6,0.7
		v-1.1c0.8-0.4,1.7-0.6,2.7-0.6c1.1,0,2,0.3,2.7,1c0.6,0.6,1,1.7,1,3.1v10.4h-1.1v-2.1c-0.6,1.4-1.5,2.3-2.8,2.3
		C517.7,443,516.4,441.1,516.4,438.6z M522.4,438.3v-2.9c-0.8-0.4-1.5-0.6-2.3-0.6c-1.7,0-2.6,1.5-2.6,3.5v0.2
		c0,1.9,0.8,3.5,2.3,3.5C521.4,442,522.4,440.2,522.4,438.3z"/>
	<path class="st0" d="M526.2,438.5v-10.1h1.1v9.9c0,2.4,0.8,3.7,2.3,3.7c1.5,0,2.7-1.6,2.7-3.9v-9.7h1.1v14.4h-1.1v-2.1
		c-0.5,1.2-1.3,2.3-2.9,2.3C527.5,443,526.2,441.4,526.2,438.5z"/>
	<path class="st0" d="M536.9,429.5h-1.5v-1.1h1.5v-1.7c0-1.2,0.3-2.1,0.8-2.7c0.5-0.5,1.1-0.7,1.9-0.7c0.2,0,0.6,0.1,0.8,0.1v1.1
		c-0.2-0.1-0.6-0.1-0.8-0.1c-1.1,0-1.6,0.7-1.6,2.3v1.6h2.3v1.1H538v13.3h-1.1V429.5z"/>
	<path class="st0" d="M546,442v-1.4c1.3,0.8,2.4,1.2,3.3,1.2c1.6,0,2.6-1.1,2.6-2.8V439c0-1.6-0.6-2.6-2.6-5.5
		c-2.5-3.4-3.1-4.5-3.1-6.2v-0.1c0-2.3,1.6-3.9,3.7-3.9c1.1,0,1.9,0.3,2.8,0.8v1.4c-1-0.7-2-1.1-2.9-1.1c-1.5,0-2.5,1.1-2.5,2.7v0.1
		c0,1.4,0.6,2.5,2.7,5.2c2.3,2.9,3.1,4.4,3.1,6.5v0.1c0,2.4-1.6,4-3.8,4C548.1,443,547.1,442.6,546,442z"/>
	<path class="st0" d="M555.4,428.4h1.1v2.1c0.5-1.2,1.3-2.3,2.9-2.3c1.9,0,3.2,1.6,3.2,4.5v10.1h-1.1v-9.9c0-2.4-0.8-3.7-2.3-3.7
		c-1.5,0-2.7,1.6-2.7,3.9v9.7h-1.1V428.4z"/>
	<path class="st0" d="M564.8,438.6v-0.2c0-2.7,1.3-4.6,3.7-4.6c1,0,1.7,0.2,2.4,0.5v-1.8c0-2-0.9-3.2-2.7-3.2c-1,0-1.8,0.2-2.6,0.7
		v-1.1c0.8-0.4,1.7-0.6,2.7-0.6c1.1,0,2,0.3,2.7,1c0.6,0.6,1,1.7,1,3.1v10.4h-1.1v-2.1c-0.6,1.4-1.5,2.3-2.8,2.3
		C566.1,443,564.8,441.1,564.8,438.6z M570.8,438.3v-2.9c-0.8-0.4-1.5-0.6-2.3-0.6c-1.7,0-2.6,1.5-2.6,3.5v0.2
		c0,1.9,0.8,3.5,2.3,3.5C569.8,442,570.8,440.2,570.8,438.3z"/>
	<path class="st0" d="M574.7,428.4h1.1v2.8c0.6-1.6,1.5-3,3-3c1.9,0,3.7,2.5,3.7,7.1v0.5c0,4.6-1.7,7.1-3.7,7.1c-1.4,0-2.4-1.3-3-3
		v6.3h-1.1V428.4z M581.3,435.8v-0.5c0-3.9-1.2-6.2-2.7-6.2c-1.4,0-2.9,2.2-2.9,6.1v0.7c0,3.9,1.5,6.1,2.9,6.1
		C580.1,442,581.3,439.8,581.3,435.8z"/>
	<path class="st0" d="M584.2,435.8v-0.3c0-5,2.1-7.3,4.3-7.3c0.7,0,1.3,0.2,1.7,0.5v1.3c-0.5-0.4-1-0.7-1.7-0.7
		c-1.5,0-3.1,1.9-3.1,6.1v0.4c0,4.3,1.6,6.1,3.3,6.1c0.6,0,1.1-0.2,1.6-0.7v1.2c-0.5,0.3-1,0.5-1.7,0.5
		C586.3,443,584.2,440.8,584.2,435.8z"/>
	<path class="st0" d="M592.4,423.4h1.1v7.1c0.5-1.2,1.3-2.3,2.9-2.3c1.9,0,3.2,1.6,3.2,4.5v10.1h-1.1v-9.9c0-2.4-0.8-3.7-2.3-3.7
		c-1.5,0-2.7,1.6-2.7,3.9v9.7h-1.1V423.4z"/>
	<path class="st0" d="M601.7,438.6v-0.2c0-2.7,1.3-4.6,3.7-4.6c1,0,1.7,0.2,2.4,0.5v-1.8c0-2-0.9-3.2-2.7-3.2c-1,0-1.8,0.2-2.6,0.7
		v-1.1c0.8-0.4,1.7-0.6,2.7-0.6c1.1,0,2,0.3,2.7,1c0.6,0.6,1,1.7,1,3.1v10.4h-1.1v-2.1c-0.6,1.4-1.5,2.3-2.8,2.3
		C603,443,601.7,441.1,601.7,438.6z M607.7,438.3v-2.9c-0.8-0.4-1.5-0.6-2.3-0.6c-1.7,0-2.6,1.5-2.6,3.5v0.2c0,1.9,0.8,3.5,2.3,3.5
		C606.7,442,607.7,440.2,607.7,438.3z"/>
	<path class="st0" d="M611.9,440.4v-10.9h-1.3v-1.1h1.3v-4.1h1.1v4.1h2.3v1.1H613v10.7c0,1.3,0.6,1.6,1.5,1.6c0.3,0,0.6-0.1,0.9-0.1
		v1.1c-0.3,0.1-0.7,0.2-1,0.2C612.9,442.9,611.9,442.2,611.9,440.4z"/>
</g>
<g>
	<path class="st0" d="M256.7,485.6V484c1.4,1,2.7,1.4,3.7,1.4c1.8,0,2.9-1.2,2.9-3.1v-0.1c0-1.8-0.6-2.9-3-6.1c-2.8-3.8-3.5-5-3.5-7
		v-0.1c0-2.6,1.8-4.4,4.1-4.4c1.2,0,2.2,0.3,3.2,1v1.5c-1.1-0.8-2.2-1.2-3.2-1.2c-1.6,0-2.8,1.2-2.8,3v0.1c0,1.6,0.6,2.8,3,5.8
		c2.6,3.3,3.5,5,3.5,7.3v0.1c0,2.7-1.8,4.5-4.3,4.5C259.1,486.7,258,486.3,256.7,485.6z"/>
	<path class="st0" d="M266.7,478.7v-0.3c0-5.6,2-8.3,4.3-8.3c2.4,0,4.1,2.9,4.1,7.9v1h-7.2c0.1,4.4,1.8,6.5,4,6.5c1,0,1.7-0.2,2.7-1
		l0.2,1.3c-1.1,0.6-1.8,0.9-3.1,0.9C269.1,486.7,266.7,484,266.7,478.7z M273.9,477.8c0-3.7-1.2-6.5-2.9-6.5c-1.7,0-3,2.2-3.1,6.5
		H273.9z"/>
	<path class="st0" d="M277.8,464.7h1.3v8c0.5-1.4,1.5-2.6,3.3-2.6c2.1,0,3.6,1.8,3.6,5.1v11.3h-1.3v-11.2c0-2.7-0.9-4.1-2.6-4.1
		c-1.7,0-3,1.8-3,4.4v10.9h-1.3V464.7z"/>
	<path class="st0" d="M289,470.3h1.3v2.4c0.6-1.5,1.8-2.7,3.7-2.6v1.4h-0.1c-2,0-3.6,1.3-3.6,4.1v10.8H289V470.3z"/>
	<path class="st0" d="M300.4,470h3.6v2.1c0.5-1,1.3-2.4,2.8-2.4c1.9,0,3.4,1.9,3.4,7.8v1.5c0,5.9-1.5,7.8-3.4,7.8
		c-1.6,0-2.3-1.3-2.8-2.3v6h-3.6V470z M306.7,478.8v-1.1c0-3-0.4-4.5-1.3-4.5c-0.9,0-1.4,1.6-1.4,4.5v1.1c0,2.9,0.5,4.5,1.4,4.5
		C306.3,483.3,306.7,481.7,306.7,478.8z"/>
	<path class="st0" d="M311.7,478.7v-1c0-5.3,2.1-8,5-8s5,2.7,5,8v1c0,5.3-2.1,8-5,8S311.7,484,311.7,478.7z M318.2,478.8v-1.1
		c0-3.3-0.5-4.7-1.4-4.7c-0.9,0-1.4,1.5-1.4,4.7v1.1c0,3.2,0.5,4.7,1.4,4.7C317.6,483.5,318.2,482,318.2,478.8z"/>
	<path class="st0" d="M322.9,486v-3.6c1.2,0.6,2.2,1.1,3,1.1c0.8,0,1.3-0.5,1.3-1.3c0-0.7-0.3-1.2-1.8-2.7c-1.6-1.6-2.7-3.1-2.7-5.2
		v-0.1c0-2.7,1.8-4.5,4.6-4.5c1,0,1.7,0.1,2.7,0.4v3.6c-0.8-0.4-1.6-0.7-2.4-0.7c-0.9,0-1.4,0.5-1.4,1.1c0,0.6,0.3,1.1,1.9,2.7
		c2,2,2.6,3.3,2.6,5.2v0.1c0,2.9-2,4.7-4.5,4.7C325.2,486.8,324,486.5,322.9,486z"/>
	<path class="st0" d="M332,464.8h3.6v3.6H332V464.8z M332,470h3.6v16.5H332V470z"/>
	<path class="st0" d="M338,483.6v-10.7h-1v-3h1v-4.2h3.6v4.2h1.9v3h-1.9v9.5c0,0.7,0.4,1,1,1c0.3,0,0.6-0.1,0.9-0.2v2.9
		c-0.5,0.3-1.4,0.6-2.1,0.6C339.6,486.7,338,486.1,338,483.6z"/>
	<path class="st0" d="M345,464.8h3.6v3.6H345V464.8z M345,470h3.6v16.5H345V470z"/>
	<path class="st0" d="M349.9,470h3.5l1.7,10.7l1.7-10.7h3.5l-3.3,16.5h-3.6L349.9,470z"/>
	<path class="st0" d="M360.5,478.7v-0.8c0-5.3,2.2-8.1,4.9-8.1c2.8,0,4.6,2.9,4.6,8.3v1.9H364c0.2,2.6,1.3,3.5,2.4,3.5
		c1.1,0,1.8-0.5,2.8-1.2l0.3,3.3c-1.2,0.8-2.2,1.3-3.6,1.3C363,486.8,360.5,484,360.5,478.7z M366.6,477.1c0-2.8-0.4-4.1-1.2-4.1
		c-0.8,0-1.3,1.2-1.4,4.1H366.6z"/>
	<path class="st0" d="M370.9,486v-3.6c1.2,0.6,2.2,1.1,3,1.1c0.8,0,1.3-0.5,1.3-1.3c0-0.7-0.3-1.2-1.8-2.7c-1.6-1.6-2.7-3.1-2.7-5.2
		v-0.1c0-2.7,1.8-4.5,4.6-4.5c1,0,1.7,0.1,2.7,0.4v3.6c-0.8-0.4-1.6-0.7-2.4-0.7c-0.9,0-1.4,0.5-1.4,1.1c0,0.6,0.3,1.1,1.9,2.7
		c2,2,2.6,3.3,2.6,5.2v0.1c0,2.9-2,4.7-4.5,4.7C373.2,486.8,372,486.5,370.9,486z"/>
	<path class="st0" d="M384.9,464.9h7.7v3.6h-4v5.4h3.5v3.6h-3.5v9h-3.7V464.9z"/>
	<path class="st0" d="M393.4,478.7v-0.8c0-5.3,2.2-8.1,4.9-8.1c2.8,0,4.6,2.9,4.6,8.3v1.9H397c0.2,2.6,1.3,3.5,2.4,3.5
		c1.1,0,1.8-0.5,2.8-1.2l0.3,3.3c-1.2,0.8-2.2,1.3-3.6,1.3C396,486.8,393.4,484,393.4,478.7z M399.6,477.1c0-2.8-0.4-4.1-1.2-4.1
		c-0.8,0-1.3,1.2-1.4,4.1H399.6z"/>
	<path class="st0" d="M404,478.7v-0.8c0-5.3,2.2-8.1,4.9-8.1c2.8,0,4.6,2.9,4.6,8.3v1.9h-5.9c0.2,2.6,1.3,3.5,2.4,3.5
		c1.1,0,1.8-0.5,2.8-1.2l0.3,3.3c-1.2,0.8-2.2,1.3-3.6,1.3C406.5,486.8,404,484,404,478.7z M410.1,477.1c0-2.8-0.4-4.1-1.2-4.1
		c-0.8,0-1.3,1.2-1.4,4.1H410.1z"/>
	<path class="st0" d="M414.7,479v-1.5c0-5.9,1.5-7.8,3.4-7.8c1.6,0,2.3,1.3,2.8,2.3v-7.2h3.6v21.7H421v-2.1c-0.5,1-1.3,2.4-2.8,2.4
		C416.2,486.8,414.7,484.9,414.7,479z M421,478.8v-1.1c0-2.9-0.5-4.5-1.4-4.5c-0.9,0-1.3,1.6-1.3,4.5v1.1c0,3,0.4,4.5,1.3,4.5
		C420.5,483.3,421,481.7,421,478.8z"/>
	<path class="st0" d="M430.1,484.5v2h-3.6v-21.7h3.6v7.3c0.5-1,1.3-2.4,2.8-2.4c1.9,0,3.4,1.9,3.4,7.8v1.5c0,5.9-1.5,7.8-3.4,7.8
		C431.3,486.8,430.6,485.4,430.1,484.5z M432.8,478.8v-1.1c0-3-0.4-4.5-1.3-4.5c-0.9,0-1.4,1.6-1.4,4.5v1.1c0,2.9,0.5,4.5,1.4,4.5
		C432.4,483.3,432.8,481.7,432.8,478.8z"/>
	<path class="st0" d="M437.5,481.9v-0.5c0-3.7,1.4-5.2,3.6-5.2c0.8,0,1.4,0.2,2.1,0.6v-1c0-1.7-0.8-2.6-2.3-2.6
		c-0.9,0-1.9,0.4-2.7,0.8v-3.4c1.1-0.5,2.3-0.7,3.2-0.7c1.7,0,2.9,0.4,3.8,1.3c1,1,1.4,2.5,1.4,4.4v10.9h-3.6v-1.8
		c-0.6,1.4-1.5,2-2.7,2C438.8,486.7,437.5,484.9,437.5,481.9z M443.3,482.1v-2.8c-0.3-0.2-0.8-0.3-1.1-0.3c-0.7,0-1.2,0.6-1.2,2.2
		v0.4c0,1.6,0.5,2.1,1.1,2.1C442.6,483.7,443.3,483.2,443.3,482.1z"/>
	<path class="st0" d="M448.3,478.7v-1c0-5.3,2.2-8,5.1-8c1,0,1.5,0.1,2.2,0.4v3.7c-0.6-0.4-1.1-0.6-1.8-0.6c-1.1,0-1.9,1.2-1.9,4.4
		v1.1c0,3.2,0.8,4.4,2,4.4c0.5,0,1.1-0.3,1.7-0.7v3.6c-0.8,0.5-1.4,0.7-2.4,0.7C450.3,486.8,448.3,484,448.3,478.7z"/>
	<path class="st0" d="M457.3,464.8h3.6v11.6l2.3-6.5h3.8l-2.8,6.7l2.7,9.8h-3.9l-1.4-6.3l-0.7,1.8v4.5h-3.6V464.8z"/>
	<path class="st0" d="M473,478.7v-0.6c0-5.1,2-8,4.1-8c1.6,0,2.7,1.5,3.3,3.3v-8.7h1.3v21.7h-1.3v-3.1c-0.6,1.8-1.7,3.3-3.3,3.3
		C475,486.7,473,483.9,473,478.7z M480.6,478.8V478c0-4.3-1.6-6.8-3.2-6.8c-1.6,0-3,2.5-3,6.9v0.5c0,4.4,1.4,6.9,3,6.9
		C478.9,485.6,480.6,483.1,480.6,478.8z"/>
	<path class="st0" d="M484.3,478.7v-0.3c0-5.6,2-8.3,4.3-8.3c2.4,0,4.1,2.9,4.1,7.9v1h-7.2c0.1,4.4,1.8,6.5,3.9,6.5
		c1,0,1.7-0.2,2.7-1l0.2,1.3c-1.1,0.6-1.8,0.9-3.1,0.9C486.7,486.7,484.3,484,484.3,478.7z M491.6,477.8c0-3.7-1.2-6.5-2.9-6.5
		c-1.7,0-3,2.2-3.1,6.5H491.6z"/>
	<path class="st0" d="M495.4,470.3h1.3v2.4c0.6-1.5,1.8-2.7,3.7-2.6v1.4h-0.1c-2,0-3.6,1.3-3.6,4.1v10.8h-1.3V470.3z"/>
	<path class="st0" d="M507.6,464.9h1.4l6.6,18.1v-18.1h1.3v21.5h-1.3l-6.7-18.5v18.5h-1.3V464.9z"/>
	<path class="st0" d="M520,481.6v-11.3h1.3v11.2c0,2.7,0.9,4.1,2.6,4.1c1.7,0,3-1.8,3-4.4v-10.9h1.3v16.1h-1.3v-2.4
		c-0.5,1.4-1.5,2.6-3.3,2.6C521.5,486.7,520,484.9,520,481.6z"/>
	<path class="st0" d="M531.8,483.8v-12.2h-1.5v-1.2h1.5v-4.5h1.3v4.5h2.6v1.2h-2.6v12c0,1.4,0.6,1.8,1.7,1.8c0.3,0,0.7-0.1,1-0.2
		v1.2c-0.3,0.1-0.8,0.2-1.1,0.2C532.9,486.6,531.8,485.8,531.8,483.8z"/>
	<path class="st0" d="M537.3,485.7l5.8-14.2h-5.5v-1.1h6.8v0.8l-5.8,14.2h5.6v1.1h-7V485.7z"/>
	<path class="st0" d="M546,478.7v-0.3c0-5.6,2-8.3,4.3-8.3c2.4,0,4.1,2.9,4.1,7.9v1h-7.2c0.1,4.4,1.8,6.5,4,6.5c1,0,1.7-0.2,2.7-1
		l0.2,1.3c-1.1,0.6-1.8,0.9-3.1,0.9C548.3,486.7,546,484,546,478.7z M553.2,477.8c0-3.7-1.2-6.5-2.9-6.5c-1.7,0-3,2.2-3.1,6.5H553.2
		z"/>
	<path class="st0" d="M557.1,470.3h1.3v2.4c0.6-1.5,1.8-2.7,3.7-2.6v1.4H562c-2,0-3.6,1.3-3.6,4.1v10.8h-1.3V470.3z"/>
	<path class="st0" d="M568.7,476.7h9.6v1.2h-9.6V476.7z"/>
	<path class="st0" d="M305.8,498.9h4.9v16l3.2-8.9h5.2l-3.8,9.2l3.6,13.5h-5.3l-2-8.7l-0.9,2.5v6.2h-4.9V498.9z"/>
	<path class="st0" d="M319.9,518v-1.1c0-7.3,3.1-11.2,6.8-11.2c3.9,0,6.3,3.9,6.3,11.4v2.6h-8.2c0.3,3.5,1.7,4.8,3.4,4.8
		c1.5,0,2.4-0.6,3.9-1.6l0.4,4.6c-1.7,1.1-3,1.7-4.9,1.7C323.4,529.1,319.9,525.3,319.9,518z M328.3,515.8c0-3.8-0.5-5.6-1.7-5.6
		c-1.1,0-1.8,1.6-1.9,5.6H328.3z"/>
	<path class="st0" d="M334.9,498.9h5v5h-5V498.9z M335,506.1h4.9v22.6H335V506.1z"/>
	<path class="st0" d="M342.7,506.1h4.9v2.7c0.9-1.7,2-3.1,3.9-3.1c2.8,0,4.3,2.5,4.3,5.9v17.2h-4.9v-16c0-1.6-0.6-2.6-1.6-2.6
		s-1.7,0.9-1.7,2.6v16h-4.9V506.1z"/>
	<path class="st0" d="M357.8,518v-1.1c0-7.3,3.1-11.2,6.8-11.2c3.9,0,6.3,3.9,6.3,11.4v2.6h-8.2c0.3,3.5,1.7,4.8,3.4,4.8
		c1.5,0,2.4-0.6,3.9-1.6l0.4,4.6c-1.7,1.1-3,1.7-4.9,1.7C361.3,529.1,357.8,525.3,357.8,518z M366.3,515.8c0-3.8-0.5-5.6-1.7-5.6
		c-1.1,0-1.8,1.6-1.9,5.6H366.3z"/>
	<path class="st0" d="M379,527.7v-5.3c1.8,1.1,2.9,1.6,4.5,1.6c1.6,0,2.8-1,2.8-2.9c0-1-0.3-2.3-2.8-5.1c-3.6-4-4.9-6-4.9-9.5
		c0-4.7,3-7.7,7.2-7.7c1.9,0,3.2,0.4,4.4,0.9v5.3c-1.6-0.9-2.5-1.4-3.9-1.4c-1.4,0-2.6,0.9-2.6,2.7c0,1.2,0.4,2.1,2.8,4.9
		c4,4.7,4.9,6.7,4.9,9.8c0,4.6-3.2,7.7-7.2,7.7C382.1,528.9,380.4,528.4,379,527.7z"/>
	<path class="st0" d="M392.9,498.9h4.9v9.8c0.9-1.7,2-3.1,3.9-3.1c2.8,0,4.3,2.5,4.3,5.9v17.2h-4.9v-16c0-1.6-0.6-2.6-1.6-2.6
		s-1.7,0.9-1.7,2.6v16h-4.9V498.9z"/>
	<path class="st0" d="M408.7,498.9h5v5h-5V498.9z M408.7,506.1h4.9v22.6h-4.9V506.1z"/>
	<path class="st0" d="M417,524.8v-14.7h-1.3v-4.1h1.3v-5.8h4.9v5.8h2.6v4.1h-2.6v13c0,1,0.5,1.4,1.4,1.4c0.4,0,0.8-0.1,1.2-0.3v4
		c-0.7,0.4-1.9,0.8-2.9,0.8C419.2,529,417,528.2,417,524.8z"/>
	<path class="st0" d="M425.8,528.1v-4.9c1.7,0.9,3.1,1.5,4.2,1.5c1.2,0,1.8-0.7,1.8-1.8c0-0.9-0.4-1.6-2.5-3.8
		c-2.2-2.2-3.8-4.3-3.8-7.1v-0.1c0-3.8,2.5-6.1,6.3-6.1c1.4,0,2.4,0.2,3.6,0.6v4.9c-1-0.5-2.2-1-3.4-1c-1.2,0-1.9,0.6-1.9,1.6
		c0,0.9,0.4,1.5,2.7,3.8c2.7,2.7,3.6,4.5,3.6,7.1v0.1c0,3.9-2.7,6.4-6.2,6.4C428.9,529.1,427.2,528.7,425.8,528.1z"/>
	<path class="st0" d="M438.6,524.8v-14.7h-1.3v-4.1h1.3v-5.8h4.9v5.8h2.6v4.1h-2.6v13c0,1,0.5,1.4,1.4,1.4c0.4,0,0.8-0.1,1.2-0.3v4
		c-0.7,0.4-1.9,0.8-2.9,0.8C440.9,529,438.6,528.2,438.6,524.8z"/>
	<path class="st0" d="M447.3,518.1v-1.4c0-7.3,2.9-11,6.9-11s6.9,3.8,6.9,11v1.4c0,7.3-2.9,11-6.9,11S447.3,525.4,447.3,518.1z
		 M456.2,518.2v-1.5c0-4.5-0.7-6.5-2-6.5s-2,2-2,6.5v1.5c0,4.4,0.7,6.5,2,6.5S456.2,522.6,456.2,518.2z"/>
	<path class="st0" d="M463.4,506.1h4.9v2.8c0.7-1.9,1.7-3.2,3.6-3.1v6h-0.1c-2.3,0-3.5,1.6-3.5,4.8v12.1h-4.9V506.1z"/>
	<path class="st0" d="M473.8,506.1h4.9v2.7c1-1.9,2.1-3.1,3.9-3.1c1.9,0,2.9,1.1,3.7,2.6c0.9-1.2,2.1-2.6,4-2.6c2.4,0,4.6,2,4.6,6
		v17.1H490v-16c0-1.6-0.6-2.6-1.6-2.6c-1,0-1.7,1-1.7,2.6v16h-4.9v-16c0-1.6-0.6-2.6-1.6-2.6s-1.7,1-1.7,2.6v16h-4.9V506.1z"/>
	<path class="st0" d="M497,528.1v-4.9c1.7,0.9,3.1,1.5,4.2,1.5c1.2,0,1.8-0.7,1.8-1.8c0-0.9-0.4-1.6-2.5-3.8
		c-2.2-2.2-3.8-4.3-3.8-7.1v-0.1c0-3.8,2.5-6.1,6.3-6.1c1.4,0,2.4,0.2,3.6,0.6v4.9c-1-0.5-2.2-1-3.4-1c-1.2,0-1.9,0.6-1.9,1.6
		c0,0.9,0.4,1.5,2.7,3.8c2.7,2.7,3.6,4.5,3.6,7.1v0.1c0,3.9-2.7,6.4-6.2,6.4C500.1,529.1,498.4,528.7,497,528.1z"/>
	<path class="st0" d="M509.7,500v-0.8h6v0.8l-1.7,19.5h-2.5L509.7,500z M509.8,522.8h5.7v5.9h-5.7V522.8z"/>
	<path class="st0" d="M518.9,500v-0.8h6v0.8l-1.7,19.5h-2.5L518.9,500z M519,522.8h5.7v5.9H519V522.8z"/>
	<path class="st0" d="M528.1,500v-0.8h6v0.8l-1.7,19.5h-2.5L528.1,500z M528.2,522.8h5.7v5.9h-5.7V522.8z"/>
</g>
<g>
	<path class="st0" d="M194.4,196.1v-11h0.9v11c0,2,0.9,3.1,2.2,3.1c1.4,0,2.2-1.1,2.2-3.1v-11h0.9v11c0,2.5-1.2,4-3.2,4
		C195.6,200.1,194.4,198.6,194.4,196.1z M195.9,182.9h1v1.3h-1V182.9z M198.1,182.9h1v1.3h-1V182.9z"/>
	<path class="st0" d="M203.7,197.8v2.1h-0.9V185h0.9v6c0.4-1.3,1.2-2.3,2.3-2.3c1.5,0,2.8,1.9,2.8,5.5v0.4c0,3.5-1.3,5.5-2.8,5.5
		C204.9,200.1,204.2,199.1,203.7,197.8z M208,194.6v-0.4c0-3-1-4.8-2.1-4.8c-1.1,0-2.2,1.7-2.2,4.7v0.5c0,3,1.1,4.7,2.2,4.7
		C207,199.3,208,197.6,208,194.6z"/>
	<path class="st0" d="M210.2,194.6v-0.2c0-3.8,1.4-5.7,3-5.7c1.6,0,2.8,2,2.8,5.4v0.7h-5c0,3,1.2,4.5,2.7,4.5c0.7,0,1.2-0.2,1.9-0.7
		l0.1,0.9c-0.8,0.4-1.3,0.6-2.1,0.6C211.9,200.1,210.2,198.3,210.2,194.6z M215.2,194c0-2.6-0.8-4.5-2-4.5c-1.1,0-2,1.5-2.1,4.5
		H215.2z"/>
	<path class="st0" d="M217.9,188.9h0.9v1.6c0.4-1,1.3-1.8,2.6-1.8v1h0c-1.4,0-2.5,0.9-2.5,2.8v7.4h-0.9V188.9z"/>
	<path class="st0" d="M227,199.4c-1-1-1.4-2.9-1.4-6.1v-0.5c0-6.1,1.7-7.8,4.1-7.8c0.8,0,1.3,0.1,1.7,0.3v2.4
		c-0.4-0.2-1-0.4-1.5-0.4c-1.1,0-1.9,0.8-2,3.7c0.5-0.4,1-0.6,1.6-0.6c1.3,0,2.7,1,2.7,4.3v0.4c0,3-1.4,5-3.4,5
		C228.2,200.2,227.5,199.9,227,199.4z M230,195.2v-0.5c0-1.7-0.5-2.3-1.1-2.3c-0.4,0-0.7,0.2-0.9,0.4v1.8c0,2.3,0.4,3.1,1,3.1
		C229.6,197.9,230,197.1,230,195.2z"/>
	<path class="st0" d="M233.2,193v-0.8c0-5.1,1.2-7.2,3.6-7.2c2.3,0,3.6,2.1,3.6,7.2v0.8c0,5.1-1.3,7.2-3.6,7.2
		C234.5,200.2,233.2,198.1,233.2,193z M237.9,192.9v-0.8c0-4.2-0.5-4.9-1.1-4.9c-0.6,0-1.1,0.7-1.1,4.9v0.8c0,4.2,0.5,4.9,1.1,4.9
		C237.4,197.8,237.9,197.1,237.9,192.9z"/>
	<path class="st0" d="M244.9,185.2h2.3c2.8,0,4.7,1.5,4.7,5v0c0,3.3-1.8,4.9-4.4,5.1h0v4.6h-2.5V185.2z M247.5,192.9
		c1.1-0.1,1.9-0.8,1.9-2.6v0c0-1.9-0.7-2.7-1.8-2.7h-0.1L247.5,192.9L247.5,192.9z"/>
	<path class="st0" d="M252.9,188.6h2.4v1.4c0.3-1,0.9-1.6,1.8-1.5v3h0c-1.2,0-1.7,0.8-1.7,2.4v6h-2.4V188.6z"/>
	<path class="st0" d="M257.5,194.6V194c0-3.6,1.5-5.5,3.4-5.5s3.4,1.9,3.4,5.5v0.7c0,3.6-1.5,5.5-3.4,5.5S257.5,198.3,257.5,194.6z
		 M262,194.7v-0.8c0-2.2-0.4-3.3-1-3.3c-0.6,0-1,1-1,3.3v0.8c0,2.2,0.4,3.3,1,3.3C261.6,197.9,262,196.9,262,194.7z"/>
	<path class="st0" d="M265,198.2l2.9-7.4h-2.8v-2.1h5.4v1.8l-2.9,7.4h2.9v2.1H265V198.2z"/>
	<path class="st0" d="M271,194.6V194c0-3.6,1.5-5.6,3.4-5.6c1.9,0,3.2,2,3.2,5.7v1.3h-4.1c0.1,1.8,0.9,2.4,1.7,2.4
		c0.7,0,1.2-0.3,2-0.8l0.2,2.3c-0.9,0.6-1.5,0.9-2.4,0.9C272.7,200.2,271,198.2,271,194.6z M275.2,193.5c0-1.9-0.3-2.8-0.9-2.8
		c-0.6,0-0.9,0.8-1,2.8H275.2z"/>
	<path class="st0" d="M278.5,188.6h2.4v1.4c0.4-0.9,1-1.6,2-1.6c1.4,0,2.1,1.2,2.1,3v8.6h-2.4v-8c0-0.8-0.3-1.3-0.8-1.3
		s-0.9,0.5-0.9,1.3v8h-2.4V188.6z"/>
	<path class="st0" d="M286.6,198v-7.4h-0.7v-2h0.7v-2.9h2.4v2.9h1.3v2H289v6.5c0,0.5,0.2,0.7,0.7,0.7c0.2,0,0.4,0,0.6-0.1v2
		c-0.4,0.2-1,0.4-1.5,0.4C287.7,200.1,286.6,199.7,286.6,198z"/>
	<path class="st0" d="M294.5,194.8v-1c0-4,1-5.4,2.4-5.4c1.1,0,1.6,0.9,2,1.6v-4.9h2.4V200h-2.4v-1.4c-0.4,0.7-0.9,1.6-2,1.6
		C295.5,200.2,294.5,198.9,294.5,194.8z M298.8,194.7v-0.8c0-2-0.4-3.1-1-3.1c-0.6,0-0.9,1.1-0.9,3.1v0.8c0,2,0.3,3.1,0.9,3.1
		C298.5,197.8,298.8,196.7,298.8,194.7z"/>
	<path class="st0" d="M302.3,194.6V194c0-3.6,1.5-5.6,3.4-5.6c1.9,0,3.2,2,3.2,5.7v1.3h-4.1c0.1,1.8,0.9,2.4,1.7,2.4
		c0.7,0,1.2-0.3,2-0.8l0.2,2.3c-0.9,0.6-1.5,0.9-2.4,0.9C304.1,200.2,302.3,198.2,302.3,194.6z M306.6,193.5c0-1.9-0.3-2.8-0.9-2.8
		c-0.6,0-0.9,0.8-1,2.8H306.6z"/>
	<path class="st0" d="M309.9,188.6h2.4v1.4c0.3-1,0.9-1.6,1.8-1.5v3h0c-1.2,0-1.7,0.8-1.7,2.4v6h-2.4V188.6z"/>
	<path class="st0" d="M319.5,187.9l-1.5,0.5v-2.6l2.2-0.7h1.8V200h-2.5V187.9z"/>
	<path class="st0" d="M323.2,199.8v-2.5c0.6,0.3,1.1,0.4,1.8,0.4c1,0,1.8-0.8,1.8-2.1v-0.2c0-1.5-1-2.2-2.5-2.3v-1.7l2.4-3.8h-3.3
		v-2.5h5.9v2.3l-2.4,3.9c1.5,0.5,2.5,1.6,2.5,3.9v0.2c0,2.9-1.7,4.7-4,4.7C324.5,200.2,323.8,200,323.2,199.8z"/>
	<path class="st0" d="M330.5,192.1h5.4v2.5h-5.4V192.1z"/>
	<path class="st0" d="M343.1,198.6v1.4h-2.4v-14.9h2.4v5c0.4-0.7,0.9-1.6,2-1.6c1.3,0,2.4,1.3,2.4,5.4v1c0,4-1,5.4-2.4,5.4
		C344,200.2,343.5,199.3,343.1,198.6z M345,194.7v-0.8c0-2-0.3-3.1-0.9-3.1c-0.6,0-1,1.1-1,3.1v0.8c0,2,0.4,3.1,1,3.1
		C344.7,197.8,345,196.7,345,194.7z"/>
	<path class="st0" d="M348.6,185.1h2.5v2.5h-2.5V185.1z M348.7,188.6h2.4V200h-2.4V188.6z"/>
	<path class="st0" d="M352.2,199.6v-2.5c0.8,0.4,1.5,0.7,2.1,0.7c0.6,0,0.9-0.3,0.9-0.9c0-0.5-0.2-0.8-1.2-1.9
		c-1.1-1.1-1.9-2.1-1.9-3.6v0c0-1.9,1.3-3.1,3.2-3.1c0.7,0,1.2,0.1,1.8,0.3v2.5c-0.5-0.3-1.1-0.5-1.7-0.5c-0.6,0-0.9,0.3-0.9,0.8
		c0,0.4,0.2,0.7,1.3,1.9c1.4,1.4,1.8,2.3,1.8,3.6v0c0,2-1.3,3.2-3.1,3.2C353.7,200.2,352.9,200,352.2,199.6z"/>
	<path class="st0" d="M361.3,199.8v-2.5c0.6,0.3,1.1,0.4,1.8,0.4c1,0,1.8-0.8,1.8-2.1v-0.2c0-1.5-1-2.2-2.5-2.3v-1.7l2.4-3.8h-3.3
		v-2.5h5.9v2.3l-2.4,3.9c1.5,0.5,2.5,1.6,2.5,3.9v0.2c0,2.9-1.7,4.7-4,4.7C362.6,200.2,361.9,200,361.3,199.8z"/>
	<path class="st0" d="M372.1,197.2h-3.9v-2l3.8-10.1h2.5v9.9h1.2v2.2h-1.2v2.7h-2.4V197.2z M372.1,195v-5.4l-1.9,5.4H372.1z"/>
	<path class="st0" d="M376.6,192.1h5.4v2.5h-5.4V192.1z"/>
	<path class="st0" d="M382.1,199.9v-2.6c0.4,0.1,0.8,0.3,1.2,0.3c0.8,0,1.3-0.4,1.3-1.5v-10.9h2.5v11.1c0,1.3-0.4,2.3-1,2.9
		c-0.6,0.6-1.5,0.9-2.5,0.9C383,200.1,382.5,200,382.1,199.9z"/>
	<path class="st0" d="M388.2,196.8v-0.4c0-2.5,1-3.6,2.5-3.6c0.5,0,1,0.1,1.5,0.4v-0.7c0-1.2-0.5-1.8-1.6-1.8
		c-0.6,0-1.3,0.3-1.8,0.5V189c0.7-0.3,1.6-0.5,2.2-0.5c1.2,0,2,0.3,2.6,0.9c0.7,0.7,1,1.7,1,3v7.5h-2.4v-1.2c-0.4,0.9-1,1.4-1.8,1.4
		C389,200.1,388.2,198.9,388.2,196.8z M388.9,185.4h2.2v2.3h-2.2V185.4z M392.1,197V195c-0.2-0.1-0.6-0.2-0.8-0.2
		c-0.5,0-0.8,0.4-0.8,1.5v0.3c0,1.1,0.3,1.5,0.8,1.5C391.7,198.1,392.1,197.7,392.1,197z M391.8,185.4h2.2v2.3h-2.2V185.4z"/>
	<path class="st0" d="M395.8,185.1h2.4v4.9c0.4-0.9,1-1.6,2-1.6c1.4,0,2.1,1.2,2.1,3v8.6h-2.4v-8c0-0.8-0.3-1.3-0.8-1.3
		s-0.9,0.5-0.9,1.3v8h-2.4V185.1z"/>
	<path class="st0" d="M403.7,188.6h2.4v1.4c0.3-1,0.9-1.6,1.8-1.5v3h0c-1.2,0-1.7,0.8-1.7,2.4v6h-2.4V188.6z"/>
	<path class="st0" d="M408.9,185.1h2.5v2.5h-2.5V185.1z M408.9,188.6h2.4V200h-2.4V188.6z"/>
	<path class="st0" d="M413,202.4v-2.3c0.7,0.3,1.6,0.5,2.1,0.5c1.1,0,1.8-0.5,1.8-1.8v-1.1c-0.4,0.7-0.9,1.6-2,1.6
		c-1.3,0-2.3-1.4-2.3-5.4v-0.1c0-4,1-5.4,2.3-5.4c1.1,0,1.6,0.9,2,1.6v-1.4h2.4V199c0,1.3-0.3,2.2-1,2.8c-0.7,0.7-1.7,1-2.9,1
		C414.4,202.7,413.8,202.6,413,202.4z M416.9,193.9L416.9,193.9c0-2-0.4-3.1-1-3.1s-0.9,1-0.9,3v0c0,2,0.3,3,0.9,3
		S416.9,195.9,416.9,193.9z"/>
	<path class="st0" d="M420.4,194.6V194c0-3.6,1.5-5.6,3.4-5.6c1.9,0,3.2,2,3.2,5.7v1.3h-4.1c0.1,1.8,0.9,2.4,1.7,2.4
		c0.7,0,1.2-0.3,2-0.8l0.2,2.3c-0.9,0.6-1.5,0.9-2.4,0.9C422.2,200.2,420.4,198.2,420.4,194.6z M424.7,193.5c0-1.9-0.3-2.8-0.9-2.8
		c-0.6,0-0.9,0.8-1,2.8H424.7z"/>
	<path class="st0" d="M428,188.6h2.4v1.4c0.4-0.9,1-1.6,2-1.6c1.4,0,2.1,1.2,2.1,3v8.6h-2.4v-8c0-0.8-0.3-1.3-0.8-1.3
		s-0.9,0.5-0.9,1.3v8H428V188.6z"/>
	<path class="st0" d="M439.3,199.3v-1.1c1,0.7,1.8,1,2.5,1c1.2,0,2-0.8,2-2.1v0c0-1.2-0.4-2-2-4.2c-1.9-2.6-2.4-3.4-2.4-4.8v0
		c0-1.8,1.3-3,2.8-3c0.8,0,1.5,0.2,2.2,0.7v1.1c-0.8-0.5-1.5-0.8-2.2-0.8c-1.1,0-1.9,0.8-1.9,2.1v0c0,1.1,0.4,1.9,2.1,4
		c1.8,2.3,2.4,3.4,2.4,5v0c0,1.9-1.3,3.1-2.9,3.1C440.9,200.1,440.1,199.8,439.3,199.3z"/>
	<path class="st0" d="M446.6,188.9h0.9v1.6c0.4-0.9,1-1.8,2.2-1.8c1.2,0,1.8,0.8,2.1,1.9c0.4-0.9,1.1-1.9,2.4-1.9
		c1.5,0,2.5,1.2,2.5,3.5v7.8h-0.9v-7.7c0-1.8-0.6-2.8-1.7-2.8c-1.1,0-2,1.2-2,3v7.5h-0.9v-7.7c0-1.8-0.6-2.8-1.7-2.8
		c-1.1,0-2,1.2-2,3v7.5h-0.9V188.9z"/>
	<path class="st0" d="M458.2,196.7v-0.2c0-2.1,1-3.6,2.9-3.6c0.7,0,1.3,0.2,1.8,0.4V192c0-1.5-0.7-2.5-2.1-2.5c-0.8,0-1.4,0.1-2,0.5
		v-0.9c0.6-0.3,1.3-0.5,2.1-0.5c0.9,0,1.6,0.3,2.1,0.8c0.5,0.5,0.8,1.3,0.8,2.4v8h-0.9v-1.6c-0.4,1.1-1.1,1.8-2.2,1.8
		C459.3,200.1,458.2,198.7,458.2,196.7z M462.9,196.5v-2.2c-0.6-0.3-1.1-0.4-1.8-0.4c-1.3,0-2,1.1-2,2.7v0.2c0,1.5,0.6,2.7,1.7,2.7
		C462.1,199.4,462.9,197.9,462.9,196.5z"/>
	<path class="st0" d="M465.9,188.9h0.9v1.6c0.4-1,1.3-1.8,2.6-1.8v1h0c-1.4,0-2.5,0.9-2.5,2.8v7.4h-0.9V188.9z"/>
	<path class="st0" d="M471.1,198.1v-8.4h-1v-0.8h1v-3.1h0.9v3.1h1.8v0.8H472v8.3c0,1,0.4,1.2,1.1,1.2c0.2,0,0.5,0,0.7-0.1v0.8
		c-0.2,0.1-0.5,0.1-0.7,0.1C471.9,200,471.1,199.5,471.1,198.1z"/>
	<path class="st0" d="M475.4,188.9h0.9v2.1c0.4-1.3,1.2-2.3,2.3-2.3c1.5,0,2.8,1.9,2.8,5.5v0.4c0,3.5-1.3,5.5-2.8,5.5
		c-1.1,0-1.8-1-2.3-2.3v4.9h-0.9V188.9z M480.6,194.6v-0.4c0-3-1-4.8-2.1-4.8c-1.1,0-2.2,1.7-2.2,4.7v0.5c0,3,1.1,4.7,2.2,4.7
		C479.6,199.3,480.6,197.6,480.6,194.6z"/>
	<path class="st0" d="M483.2,185h0.9v5.5c0.4-0.9,1-1.8,2.2-1.8c1.5,0,2.5,1.2,2.5,3.5v7.8H488v-7.7c0-1.8-0.6-2.8-1.8-2.8
		c-1.2,0-2.1,1.2-2.1,3v7.5h-0.9V185z"/>
	<path class="st0" d="M490.5,194.5v-0.2c0-3.5,1.5-5.6,3.1-5.6s3.1,2.1,3.1,5.6v0.2c0,3.5-1.5,5.6-3.1,5.6
		C492,200.1,490.5,198,490.5,194.5z M495.8,194.5v-0.2c0-2.9-1-4.8-2.2-4.8c-1.2,0-2.2,1.9-2.2,4.8v0.2c0,2.9,1,4.8,2.2,4.8
		C494.8,199.3,495.8,197.4,495.8,194.5z"/>
	<path class="st0" d="M498.5,188.9h0.9v1.6c0.4-0.9,1-1.8,2.2-1.8c1.5,0,2.5,1.2,2.5,3.5v7.8h-0.9v-7.7c0-1.8-0.6-2.8-1.8-2.8
		c-1.2,0-2.1,1.2-2.1,3v7.5h-0.9V188.9z"/>
	<path class="st0" d="M505.7,194.6v-0.2c0-3.8,1.4-5.7,3-5.7c1.6,0,2.8,2,2.8,5.4v0.7h-5c0,3,1.2,4.5,2.7,4.5c0.7,0,1.2-0.2,1.9-0.7
		l0.1,0.9c-0.8,0.4-1.3,0.6-2.1,0.6C507.4,200.1,505.7,198.3,505.7,194.6z M510.7,194c0-2.6-0.8-4.5-2-4.5c-1.1,0-2,1.5-2.1,4.5
		H510.7z"/>
	<path class="st0" d="M513.1,193.3h3.9v0.8h-3.9V193.3z"/>
	<path class="st0" d="M519,185.2h1.9c1.2,0,2.2,0.4,2.9,1.1c0.6,0.6,1,1.5,1,2.6v0c0,2.2-1.2,3.2-2.7,3.6c1.7,0.4,2.8,1.6,2.8,3.6v0
		c0,2.4-1.8,3.8-4.5,3.8H519V185.2z M523.9,188.9c0-1.8-1.2-2.9-3-2.9h-0.9v6.1h0.6C522.7,192.1,523.9,190.9,523.9,188.9
		L523.9,188.9z M520.7,192.9h-0.7v6.2h0.6c2.2,0,3.5-1,3.5-3v0C524,194,522.8,192.9,520.7,192.9z"/>
	<path class="st0" d="M526.3,194.6v-0.2c0-3.8,1.4-5.7,3-5.7c1.6,0,2.8,2,2.8,5.4v0.7h-5c0,3,1.2,4.5,2.7,4.5c0.7,0,1.2-0.2,1.9-0.7
		l0.1,0.9c-0.8,0.4-1.3,0.6-2.1,0.6C527.9,200.1,526.3,198.3,526.3,194.6z M531.2,194c0-2.6-0.8-4.5-2-4.5c-1.1,0-2,1.5-2.1,4.5
		H531.2z"/>
	<path class="st0" d="M533.3,199.6v-0.9c0.7,0.4,1.5,0.6,2.2,0.6c0.9,0,1.7-0.6,1.7-1.6v0c0-0.8-0.4-1.6-1.7-2.8
		c-1.6-1.6-2.1-2.4-2.1-3.6v0c0-1.5,1.2-2.4,2.5-2.4c0.7,0,1.2,0.1,1.8,0.4v0.9c-0.6-0.3-1.2-0.5-1.8-0.5c-0.9,0-1.6,0.6-1.6,1.6v0
		c0,0.8,0.4,1.4,1.7,2.7c1.5,1.5,2.1,2.5,2.1,3.6v0c0,1.6-1.2,2.5-2.6,2.5C534.7,200.1,534,199.9,533.3,199.6z"/>
	<path class="st0" d="M539.8,185h1v1.5h-1V185z M539.8,188.9h0.9V200h-0.9V188.9z"/>
	<path class="st0" d="M543.4,198.1v-8.4h-1v-0.8h1v-3.1h0.9v3.1h1.8v0.8h-1.8v8.3c0,1,0.4,1.2,1.1,1.2c0.2,0,0.5,0,0.7-0.1v0.8
		c-0.2,0.1-0.5,0.1-0.7,0.1C544.1,200,543.4,199.5,543.4,198.1z"/>
	<path class="st0" d="M547.1,199.4l4-9.8h-3.8v-0.8h4.7v0.5l-4,9.8h3.9v0.8h-4.8V199.4z"/>
	<path class="st0" d="M553.1,194.6v-0.2c0-3.8,1.4-5.7,3-5.7c1.6,0,2.8,2,2.8,5.4v0.7h-5c0,3,1.2,4.5,2.7,4.5c0.7,0,1.2-0.2,1.9-0.7
		l0.1,0.9c-0.8,0.4-1.3,0.6-2.1,0.6C554.7,200.1,553.1,198.3,553.1,194.6z M558,194c0-2.6-0.8-4.5-2-4.5c-1.1,0-2,1.5-2.1,4.5H558z"
		/>
	<path class="st0" d="M560.7,188.9h0.9v1.6c0.4-1,1.3-1.8,2.6-1.8v1h0c-1.4,0-2.5,0.9-2.5,2.8v7.4h-0.9V188.9z"/>
	<path class="st0" d="M569.1,185h1v1.5h-1V185z M569.1,188.9h0.9V200h-0.9V188.9z"/>
	<path class="st0" d="M572.3,188.9h0.9v1.6c0.4-0.9,1-1.8,2.2-1.8c1.5,0,2.5,1.2,2.5,3.5v7.8H577v-7.7c0-1.8-0.6-2.8-1.8-2.8
		c-1.2,0-2.1,1.2-2.1,3v7.5h-0.9V188.9z"/>
	<path class="st0" d="M583.1,194.6v-0.4c0-3.5,1.3-5.5,2.8-5.5c1.1,0,1.8,1,2.3,2.3v-6h0.9V200h-0.9v-2.1c-0.4,1.3-1.2,2.3-2.3,2.3
		C584.4,200.1,583.1,198.2,583.1,194.6z M588.2,194.7v-0.5c0-3-1.1-4.7-2.2-4.7c-1.1,0-2.1,1.7-2.1,4.8v0.4c0,3,1,4.8,2.1,4.8
		C587.1,199.3,588.2,197.7,588.2,194.7z"/>
	<path class="st0" d="M590.8,194.6v-0.2c0-3.8,1.4-5.7,3-5.7c1.6,0,2.8,2,2.8,5.4v0.7h-5c0,3,1.2,4.5,2.7,4.5c0.7,0,1.2-0.2,1.9-0.7
		l0.1,0.9c-0.8,0.4-1.3,0.6-2.1,0.6C592.5,200.1,590.8,198.3,590.8,194.6z M595.8,194c0-2.6-0.8-4.5-2-4.5c-1.1,0-2,1.5-2.1,4.5
		H595.8z"/>
	<path class="st0" d="M598.5,188.9h0.9v1.6c0.4-0.9,1-1.8,2.2-1.8c1.5,0,2.5,1.2,2.5,3.5v7.8h-0.9v-7.7c0-1.8-0.6-2.8-1.8-2.8
		c-1.2,0-2.1,1.2-2.1,3v7.5h-0.9V188.9z"/>
	<path class="st0" d="M609.6,196.1v-11h0.9v11c0,2,0.9,3.1,2.2,3.1c1.4,0,2.2-1.1,2.2-3.1v-11h0.9v11c0,2.5-1.2,4-3.2,4
		C610.8,200.1,609.6,198.6,609.6,196.1z"/>
	<path class="st0" d="M617.7,199.3v-1.1c1,0.7,1.8,1,2.5,1c1.2,0,2-0.8,2-2.1v0c0-1.2-0.4-2-2-4.2c-1.9-2.6-2.4-3.4-2.4-4.8v0
		c0-1.8,1.3-3,2.8-3c0.8,0,1.5,0.2,2.2,0.7v1.1c-0.8-0.5-1.5-0.8-2.2-0.8c-1.1,0-1.9,0.8-1.9,2.1v0c0,1.1,0.4,1.9,2.1,4
		c1.8,2.3,2.4,3.4,2.4,5v0c0,1.9-1.3,3.1-2.9,3.1C619.3,200.1,618.5,199.8,617.7,199.3z"/>
	<path class="st0" d="M627.5,185.1h1l3.2,14.9h-1l-0.9-4.1h-3.8l-0.9,4.1h-0.9L627.5,185.1z M629.7,195l-1.7-8.4l-1.7,8.4H629.7z"/>
	<path class="st0" d="M235.3,215.3h-3.6v-2.6h6.1v1.8l-2.7,13h-2.5L235.3,215.3z"/>
	<path class="st0" d="M242.2,212.7h2.6l1.7,5.6l1.7-5.6h2.6v14.8h-2.4v-9l-1.8,5.6h0l-1.8-5.6v9h-2.4V212.7z"/>
	<path class="st0" d="M252.2,212.6h2.5v2.5h-2.5V212.6z M252.3,216.2h2.4v11.3h-2.4V216.2z"/>
	<path class="st0" d="M256.1,212.6h2.4v14.9h-2.4V212.6z"/>
	<path class="st0" d="M260,212.6h2.4v14.9H260V212.6z"/>
	<path class="st0" d="M263.8,212.6h2.5v2.5h-2.5V212.6z M263.8,216.2h2.4v11.3h-2.4V216.2z"/>
	<path class="st0" d="M267.3,224.4V224c0-2.5,1-3.6,2.5-3.6c0.5,0,1,0.1,1.5,0.4v-0.7c0-1.2-0.5-1.8-1.6-1.8c-0.6,0-1.3,0.3-1.8,0.5
		v-2.4c0.7-0.3,1.6-0.5,2.2-0.5c1.2,0,2,0.3,2.6,0.9c0.7,0.7,1,1.7,1,3v7.5h-2.4v-1.2c-0.4,0.9-1,1.4-1.8,1.4
		C268.2,227.7,267.3,226.5,267.3,224.4z M271.2,224.6v-1.9c-0.2-0.1-0.6-0.2-0.8-0.2c-0.5,0-0.8,0.4-0.8,1.5v0.3
		c0,1.1,0.3,1.5,0.8,1.5C270.8,225.6,271.2,225.3,271.2,224.6z"/>
	<path class="st0" d="M274.9,216.2h2.4v1.4c0.3-1,0.9-1.6,1.8-1.5v3h0c-1.2,0-1.7,0.8-1.7,2.4v6h-2.4V216.2z"/>
	<path class="st0" d="M279.8,222.4v-1c0-4,1-5.4,2.4-5.4c1.1,0,1.6,0.9,2,1.6v-4.9h2.4v14.9h-2.4v-1.4c-0.4,0.7-0.9,1.6-2,1.6
		C280.8,227.7,279.8,226.5,279.8,222.4z M284.1,222.2v-0.8c0-2-0.4-3.1-1-3.1c-0.6,0-0.9,1.1-0.9,3.1v0.8c0,2,0.3,3.1,0.9,3.1
		C283.7,225.4,284.1,224.3,284.1,222.2z"/>
	<path class="st0" d="M287.6,222.2v-0.5c0-3.6,1.5-5.6,3.4-5.6c1.9,0,3.2,2,3.2,5.7v1.3h-4.1c0.1,1.8,0.9,2.4,1.7,2.4
		c0.7,0,1.2-0.3,2-0.8l0.2,2.3c-0.9,0.6-1.5,0.9-2.4,0.9C289.4,227.7,287.6,225.8,287.6,222.2z M291.9,221.1c0-1.9-0.3-2.8-0.9-2.8
		c-0.6,0-0.9,0.8-1,2.8H291.9z"/>
	<path class="st0" d="M295.1,216.2h2.4v1.4c0.4-0.9,1-1.6,2-1.6c1.4,0,2.1,1.2,2.1,3v8.6h-2.4v-8c0-0.8-0.3-1.3-0.8-1.3
		s-0.9,0.5-0.9,1.3v8h-2.4V216.2z"/>
	<path class="st0" d="M306.3,212.7h1l2.6,13.1l2.6-13.1h0.9l-3,14.9h-0.9L306.3,212.7z"/>
	<path class="st0" d="M315.1,212.6h1v1.5h-1V212.6z M315.1,216.4h0.9v11.1h-0.9V216.4z"/>
	<path class="st0" d="M317.9,222.2v-0.4c0-3.5,1.3-5.5,2.8-5.5c1.1,0,1.8,1,2.3,2.3v-6h0.9v14.9H323v-2.1c-0.4,1.3-1.2,2.3-2.3,2.3
		C319.3,227.7,317.9,225.8,317.9,222.2z M323.1,222.2v-0.5c0-3-1.1-4.7-2.2-4.7c-1.1,0-2.1,1.7-2.1,4.8v0.4c0,3,1,4.8,2.1,4.8
		C322,226.9,323.1,225.2,323.1,222.2z"/>
	<path class="st0" d="M325.7,222.2V222c0-3.8,1.4-5.7,3-5.7c1.6,0,2.8,2,2.8,5.4v0.7h-5c0,3,1.2,4.5,2.7,4.5c0.7,0,1.2-0.2,1.9-0.7
		l0.1,0.9c-0.8,0.4-1.3,0.6-2.1,0.6C327.3,227.7,325.7,225.9,325.7,222.2z M330.6,221.6c0-2.6-0.8-4.5-2-4.5c-1.1,0-2,1.5-2.1,4.5
		H330.6z"/>
	<path class="st0" d="M332.9,222.1v-0.2c0-3.5,1.5-5.6,3.1-5.6s3.1,2.1,3.1,5.6v0.2c0,3.5-1.5,5.6-3.1,5.6
		C334.3,227.7,332.9,225.6,332.9,222.1z M338.2,222.1v-0.2c0-2.9-1-4.8-2.2-4.8c-1.2,0-2.2,1.9-2.2,4.8v0.2c0,2.9,1,4.8,2.2,4.8
		C337.2,226.9,338.2,225,338.2,222.1z"/>
	<path class="st0" d="M340.6,220.9h3.9v0.8h-3.9V220.9z"/>
	<path class="st0" d="M345.4,212.7h1l2.6,13.1l2.6-13.1h0.9l-3,14.9h-0.9L345.4,212.7z"/>
	<path class="st0" d="M354.1,212.6h1v1.5h-1V212.6z M354.1,216.4h0.9v11.1h-0.9V216.4z"/>
	<path class="st0" d="M356.9,222.2V222c0-3.8,1.4-5.7,3-5.7c1.6,0,2.8,2,2.8,5.4v0.7h-5c0,3,1.2,4.5,2.7,4.5c0.7,0,1.2-0.2,1.9-0.7
		l0.1,0.9c-0.8,0.4-1.3,0.6-2.1,0.6C358.5,227.7,356.9,225.9,356.9,222.2z M361.9,221.6c0-2.6-0.8-4.5-2-4.5c-1.1,0-2,1.5-2.1,4.5
		H361.9z"/>
	<path class="st0" d="M363.7,216.4h0.9l1.7,9.6l1.8-9.6h0.8l1.8,9.6l1.8-9.6h0.9l-2.3,11.2h-0.8l-1.8-9.3l-1.8,9.3H366L363.7,216.4z
		"/>
	<path class="st0" d="M374.5,227.1v-0.9c0.7,0.4,1.5,0.6,2.2,0.6c0.9,0,1.7-0.6,1.7-1.6v0c0-0.8-0.4-1.6-1.7-2.8
		c-1.6-1.6-2.1-2.4-2.1-3.6v0c0-1.5,1.2-2.4,2.5-2.4c0.7,0,1.2,0.1,1.8,0.4v0.9c-0.6-0.3-1.2-0.5-1.8-0.5c-0.9,0-1.6,0.6-1.6,1.6v0
		c0,0.8,0.4,1.4,1.7,2.7c1.5,1.5,2.1,2.5,2.1,3.6v0c0,1.6-1.2,2.5-2.6,2.5C375.8,227.7,375.2,227.5,374.5,227.1z"/>
	<path class="st0" d="M384.3,216.4h0.9v2.1c0.4-1.3,1.2-2.3,2.3-2.3c1.5,0,2.8,1.9,2.8,5.5v0.4c0,3.5-1.3,5.5-2.8,5.5
		c-1.1,0-1.8-1-2.3-2.3v4.9h-0.9V216.4z M389.4,222.2v-0.4c0-3-1-4.8-2.1-4.8c-1.1,0-2.2,1.7-2.2,4.7v0.5c0,3,1.1,4.7,2.2,4.7
		C388.5,226.9,389.4,225.2,389.4,222.2z"/>
	<path class="st0" d="M392.1,216.4h0.9v1.6c0.4-1,1.3-1.8,2.6-1.8v1h0c-1.4,0-2.5,0.9-2.5,2.8v7.4h-0.9V216.4z"/>
	<path class="st0" d="M396.1,222.1v-0.2c0-3.5,1.5-5.6,3.1-5.6s3.1,2.1,3.1,5.6v0.2c0,3.5-1.5,5.6-3.1,5.6
		C397.5,227.7,396.1,225.6,396.1,222.1z M401.4,222.1v-0.2c0-2.9-1-4.8-2.2-4.8c-1.2,0-2.2,1.9-2.2,4.8v0.2c0,2.9,1,4.8,2.2,4.8
		C400.4,226.9,401.4,225,401.4,222.1z"/>
	<path class="st0" d="M409,213.6h-2.4v-0.8h5.6v0.8h-2.4v13.9H409V213.6z"/>
	<path class="st0" d="M412.4,224.3v-0.2c0-2.1,1-3.6,2.9-3.6c0.7,0,1.3,0.2,1.8,0.4v-1.4c0-1.5-0.7-2.5-2.1-2.5
		c-0.8,0-1.4,0.1-2,0.5v-0.9c0.6-0.3,1.3-0.5,2.1-0.5c0.9,0,1.6,0.3,2.1,0.8c0.5,0.5,0.8,1.3,0.8,2.4v8H417v-1.6
		c-0.4,1.1-1.1,1.8-2.2,1.8C413.4,227.7,412.4,226.3,412.4,224.3z M417,224.1v-2.2c-0.6-0.3-1.1-0.4-1.8-0.4c-1.3,0-2,1.1-2,2.7v0.2
		c0,1.5,0.6,2.7,1.7,2.7C416.3,226.9,417,225.5,417,224.1z"/>
	<path class="st0" d="M420.1,229.9V229c0.8,0.3,1.7,0.5,2.4,0.5c1.5,0,2.2-0.7,2.2-2.2v-2.6c-0.4,1.3-1.2,2.3-2.3,2.3
		c-1.5,0-2.8-1.8-2.8-5.2v-0.2c0-3.4,1.4-5.2,2.8-5.2c1.1,0,1.8,1,2.3,2.3v-2.1h0.9v10.8c0,1-0.3,1.8-0.8,2.3
		c-0.5,0.5-1.3,0.8-2.4,0.8C421.7,230.3,420.8,230.2,420.1,229.9z M424.8,221.7v-0.2c0-2.8-1.2-4.5-2.2-4.5c-1.1,0-2.1,1.6-2.1,4.5
		v0.1c0,2.9,1,4.5,2.1,4.5C423.6,226.2,424.8,224.5,424.8,221.7z"/>
	<path class="st0" d="M430.9,221.4c0-4.4,1.6-7.4,3.8-9v0.7c-1.7,1.6-2.9,4.1-2.9,8.3c0,4.1,1.3,6.7,2.9,8.3v0.7
		C432.5,228.8,430.9,225.8,430.9,221.4z"/>
	<path class="st0" d="M436.6,217.3h-1.1v-0.8h1.1v-1.3c0-0.9,0.2-1.6,0.6-2c0.4-0.4,0.9-0.5,1.5-0.5c0.2,0,0.5,0,0.6,0.1v0.9
		c-0.2,0-0.5-0.1-0.6-0.1c-0.8,0-1.3,0.5-1.3,1.8v1.3h1.8v0.8h-1.8v10.3h-0.9V217.3z"/>
	<path class="st0" d="M439.9,224.3v-0.2c0-2.1,1-3.6,2.9-3.6c0.7,0,1.3,0.2,1.8,0.4v-1.4c0-1.5-0.7-2.5-2.1-2.5
		c-0.8,0-1.4,0.1-2,0.5v-0.9c0.6-0.3,1.3-0.5,2.1-0.5c0.9,0,1.6,0.3,2.1,0.8c0.5,0.5,0.8,1.3,0.8,2.4v8h-0.9v-1.6
		c-0.4,1.1-1.1,1.8-2.2,1.8C441,227.7,439.9,226.3,439.9,224.3z M444.6,224.1v-2.2c-0.6-0.3-1.1-0.4-1.8-0.4c-1.3,0-2,1.1-2,2.7v0.2
		c0,1.5,0.6,2.7,1.7,2.7C443.8,226.9,444.6,225.5,444.6,224.1z"/>
	<path class="st0" d="M447,227.1v-0.9c0.7,0.4,1.5,0.6,2.2,0.6c0.9,0,1.7-0.6,1.7-1.6v0c0-0.8-0.4-1.6-1.7-2.8
		c-1.6-1.6-2.1-2.4-2.1-3.6v0c0-1.5,1.2-2.4,2.5-2.4c0.7,0,1.2,0.1,1.8,0.4v0.9c-0.6-0.3-1.2-0.5-1.8-0.5c-0.9,0-1.6,0.6-1.6,1.6v0
		c0,0.8,0.4,1.4,1.7,2.7c1.5,1.5,2.1,2.5,2.1,3.6v0c0,1.6-1.2,2.5-2.6,2.5C448.4,227.7,447.7,227.5,447,227.1z"/>
	<path class="st0" d="M453.6,225.7v-8.4h-1v-0.8h1v-3.1h0.9v3.1h1.8v0.8h-1.8v8.3c0,1,0.4,1.2,1.1,1.2c0.2,0,0.5,0,0.7-0.1v0.8
		c-0.2,0.1-0.5,0.1-0.7,0.1C454.4,227.6,453.6,227.1,453.6,225.7z"/>
	<path class="st0" d="M460.8,227.1v-0.9c0.7,0.4,1.5,0.6,2.2,0.6c0.9,0,1.7-0.6,1.7-1.6v0c0-0.8-0.4-1.6-1.7-2.8
		c-1.6-1.6-2.1-2.4-2.1-3.6v0c0-1.5,1.2-2.4,2.5-2.4c0.7,0,1.2,0.1,1.8,0.4v0.9c-0.6-0.3-1.2-0.5-1.8-0.5c-0.9,0-1.6,0.6-1.6,1.6v0
		c0,0.8,0.4,1.4,1.7,2.7c1.5,1.5,2.1,2.5,2.1,3.6v0c0,1.6-1.2,2.5-2.6,2.5C462.1,227.7,461.5,227.5,460.8,227.1z"/>
	<path class="st0" d="M466.7,222.1v-0.2c0-3.5,1.5-5.6,3.1-5.6s3.1,2.1,3.1,5.6v0.2c0,3.5-1.5,5.6-3.1,5.6
		C468.2,227.7,466.7,225.6,466.7,222.1z M472.1,222.1v-0.2c0-2.9-1-4.8-2.2-4.8c-1.2,0-2.2,1.9-2.2,4.8v0.2c0,2.9,1,4.8,2.2,4.8
		C471.1,226.9,472.1,225,472.1,222.1z"/>
	<path class="st0" d="M477.6,216.4h0.9l2.2,9.6l2.2-9.6h0.9l-2.7,11.2h-0.7L477.6,216.4z"/>
	<path class="st0" d="M485.4,212.6h1v1.5h-1V212.6z M485.5,216.4h0.9v11.1h-0.9V216.4z"/>
	<path class="st0" d="M488.2,222.2V222c0-3.8,1.4-5.7,3-5.7c1.6,0,2.8,2,2.8,5.4v0.7h-5c0,3,1.2,4.5,2.7,4.5c0.7,0,1.2-0.2,1.9-0.7
		l0.1,0.9c-0.8,0.4-1.3,0.6-2.1,0.6C489.9,227.7,488.2,225.9,488.2,222.2z M493.2,221.6c0-2.6-0.8-4.5-2-4.5c-1.1,0-2,1.5-2.1,4.5
		H493.2z"/>
	<path class="st0" d="M496,212.6h0.9v14.9H496V212.6z"/>
	<path class="st0" d="M498.8,222.2V222c0-3.8,1.4-5.7,3-5.7c1.6,0,2.8,2,2.8,5.4v0.7h-5c0,3,1.2,4.5,2.7,4.5c0.7,0,1.2-0.2,1.9-0.7
		l0.1,0.9c-0.8,0.4-1.3,0.6-2.1,0.6C500.4,227.7,498.8,225.9,498.8,222.2z M503.7,221.6c0-2.6-0.8-4.5-2-4.5c-1.1,0-2,1.5-2.1,4.5
		H503.7z"/>
	<path class="st0" d="M509.4,216.4h0.9l1.7,9.6l1.8-9.6h0.8l1.8,9.6l1.8-9.6h0.9l-2.3,11.2h-0.8l-1.8-9.3l-1.8,9.3h-0.8L509.4,216.4
		z"/>
	<path class="st0" d="M521,212.6h1v1.5h-1V212.6z M521,216.4h0.9v11.1H521V216.4z"/>
	<path class="st0" d="M523.8,222.2V222c0-3.8,1.4-5.7,3-5.7c1.6,0,2.8,2,2.8,5.4v0.7h-5c0,3,1.2,4.5,2.7,4.5c0.7,0,1.2-0.2,1.9-0.7
		l0.1,0.9c-0.8,0.4-1.3,0.6-2.1,0.6C525.4,227.7,523.8,225.9,523.8,222.2z M528.8,221.6c0-2.6-0.8-4.5-2-4.5c-1.1,0-2,1.5-2.1,4.5
		H528.8z"/>
	<path class="st0" d="M534.9,212.7h4.8v0.8h-3.8v6.3h3.5v0.8h-3.5v6.8h-0.9V212.7z"/>
	<path class="st0" d="M540.4,224.3v-0.2c0-2.1,1-3.6,2.9-3.6c0.7,0,1.3,0.2,1.8,0.4v-1.4c0-1.5-0.7-2.5-2.1-2.5
		c-0.8,0-1.4,0.1-2,0.5v-0.9c0.6-0.3,1.3-0.5,2.1-0.5c0.9,0,1.6,0.3,2.1,0.8c0.5,0.5,0.8,1.3,0.8,2.4v8h-0.9v-1.6
		c-0.4,1.1-1.1,1.8-2.2,1.8C541.4,227.7,540.4,226.3,540.4,224.3z M545.1,224.1v-2.2c-0.6-0.3-1.1-0.4-1.8-0.4c-1.3,0-2,1.1-2,2.7
		v0.2c0,1.5,0.6,2.7,1.7,2.7C544.3,226.9,545.1,225.5,545.1,224.1z"/>
	<path class="st0" d="M547.6,222.1v-0.2c0-3.8,1.7-5.6,3.3-5.6c0.5,0,1,0.2,1.3,0.4v1c-0.4-0.3-0.8-0.5-1.3-0.5
		c-1.1,0-2.4,1.5-2.4,4.7v0.3c0,3.3,1.3,4.7,2.5,4.7c0.5,0,0.9-0.2,1.2-0.5v0.9c-0.4,0.3-0.8,0.4-1.3,0.4
		C549.2,227.7,547.6,226,547.6,222.1z"/>
	<path class="st0" d="M553.2,222.2V222c0-3.8,1.4-5.7,3-5.7c1.6,0,2.8,2,2.8,5.4v0.7h-5c0,3,1.2,4.5,2.7,4.5c0.7,0,1.2-0.2,1.9-0.7
		l0.1,0.9c-0.8,0.4-1.3,0.6-2.1,0.6C554.9,227.7,553.2,225.9,553.2,222.2z M558.2,221.6c0-2.6-0.8-4.5-2-4.5c-1.1,0-2,1.5-2.1,4.5
		H558.2z"/>
	<path class="st0" d="M561.8,225.4v2.1h-0.9v-14.9h0.9v6c0.4-1.3,1.2-2.3,2.3-2.3c1.5,0,2.8,1.9,2.8,5.5v0.4c0,3.5-1.3,5.5-2.8,5.5
		C562.9,227.7,562.2,226.7,561.8,225.4z M566,222.2v-0.4c0-3-1-4.8-2.1-4.8c-1.1,0-2.2,1.7-2.2,4.7v0.5c0,3,1.1,4.7,2.2,4.7
		C565.1,226.9,566,225.2,566,222.2z"/>
	<path class="st0" d="M568.3,222.1v-0.2c0-3.5,1.5-5.6,3.1-5.6s3.1,2.1,3.1,5.6v0.2c0,3.5-1.5,5.6-3.1,5.6
		C569.7,227.7,568.3,225.6,568.3,222.1z M573.6,222.1v-0.2c0-2.9-1-4.8-2.2-4.8c-1.2,0-2.2,1.9-2.2,4.8v0.2c0,2.9,1,4.8,2.2,4.8
		C572.6,226.9,573.6,225,573.6,222.1z"/>
	<path class="st0" d="M575.8,222.1v-0.2c0-3.5,1.5-5.6,3.1-5.6s3.1,2.1,3.1,5.6v0.2c0,3.5-1.5,5.6-3.1,5.6
		C577.2,227.7,575.8,225.6,575.8,222.1z M581.1,222.1v-0.2c0-2.9-1-4.8-2.2-4.8c-1.2,0-2.2,1.9-2.2,4.8v0.2c0,2.9,1,4.8,2.2,4.8
		C580.1,226.9,581.1,225,581.1,222.1z"/>
	<path class="st0" d="M583.7,212.6h0.9v10l3.1-6.1h1l-2.4,4.5l2.7,6.6h-1l-2.2-5.7l-1.2,2.1v3.6h-0.9V212.6z"/>
	<path class="st0" d="M589.7,229.7c1.7-1.6,2.9-4.1,2.9-8.3c0-4.1-1.3-6.7-2.9-8.3v-0.7c2.2,1.6,3.8,4.6,3.8,9c0,4.4-1.6,7.4-3.8,9
		V229.7z"/>
	<path class="st0" d="M236.2,240.3h1.7c2.7,0,4.6,2.5,4.6,7.2v0.4c0,4.7-2,7.2-4.6,7.2h-1.7V240.3z M237.1,241.2v13.1h0.8
		c2.2,0,3.7-2.2,3.7-6.4v-0.4c0-4.2-1.6-6.4-3.8-6.4H237.1z"/>
	<path class="st0" d="M244,249.8v-0.2c0-3.8,1.4-5.7,3-5.7c1.6,0,2.8,2,2.8,5.4v0.7h-5c0,3,1.2,4.5,2.7,4.5c0.7,0,1.2-0.2,1.9-0.7
		l0.1,0.9c-0.8,0.4-1.3,0.6-2.1,0.6C245.7,255.3,244,253.4,244,249.8z M249,249.2c0-2.6-0.8-4.5-2-4.5c-1.1,0-2,1.5-2.1,4.5H249z"/>
	<path class="st0" d="M251.6,251.8V244h0.9v7.7c0,1.8,0.6,2.8,1.8,2.8c1.2,0,2.1-1.2,2.1-3V244h0.9v11.1h-0.9v-1.6
		c-0.4,0.9-1,1.8-2.2,1.8C252.6,255.3,251.6,254,251.6,251.8z"/>
	<path class="st0" d="M259.7,253.3v-8.4h-1V244h1v-3.1h0.9v3.1h1.8v0.8h-1.8v8.3c0,1,0.4,1.2,1.1,1.2c0.2,0,0.5,0,0.7-0.1v0.8
		c-0.2,0.1-0.5,0.1-0.7,0.1C260.5,255.2,259.7,254.7,259.7,253.3z"/>
	<path class="st0" d="M263.5,254.7v-0.9c0.7,0.4,1.5,0.6,2.2,0.6c0.9,0,1.7-0.6,1.7-1.6v0c0-0.8-0.4-1.6-1.7-2.8
		c-1.6-1.6-2.1-2.4-2.1-3.6v0c0-1.5,1.2-2.4,2.5-2.4c0.7,0,1.2,0.1,1.8,0.4v0.9c-0.6-0.3-1.2-0.5-1.8-0.5c-0.9,0-1.6,0.6-1.6,1.6v0
		c0,0.8,0.4,1.4,1.7,2.7c1.5,1.5,2.1,2.5,2.1,3.6v0c0,1.6-1.2,2.5-2.6,2.5C264.8,255.2,264.2,255,263.5,254.7z"/>
	<path class="st0" d="M269.4,249.7v-0.2c0-3.8,1.7-5.6,3.3-5.6c0.5,0,1,0.2,1.3,0.4v1c-0.4-0.3-0.8-0.5-1.3-0.5
		c-1.1,0-2.4,1.5-2.4,4.7v0.3c0,3.3,1.3,4.7,2.5,4.7c0.5,0,0.9-0.2,1.2-0.5v0.9c-0.4,0.3-0.8,0.4-1.3,0.4
		C271,255.3,269.4,253.6,269.4,249.7z"/>
	<path class="st0" d="M275.7,240.2h0.9v5.5c0.4-0.9,1-1.8,2.2-1.8c1.5,0,2.5,1.2,2.5,3.5v7.8h-0.9v-7.7c0-1.8-0.6-2.8-1.8-2.8
		c-1.2,0-2.1,1.2-2.1,3v7.5h-0.9V240.2z"/>
	<path class="st0" d="M283.5,240.2h0.9v14.9h-0.9V240.2z"/>
	<path class="st0" d="M286.2,251.9v-0.2c0-2.1,1-3.6,2.9-3.6c0.7,0,1.3,0.2,1.8,0.4v-1.4c0-1.5-0.7-2.5-2.1-2.5
		c-0.8,0-1.4,0.1-2,0.5v-0.9c0.6-0.3,1.3-0.5,2.1-0.5c0.9,0,1.6,0.3,2.1,0.8c0.5,0.5,0.8,1.3,0.8,2.4v8h-0.9v-1.6
		c-0.4,1.1-1.1,1.8-2.2,1.8C287.2,255.3,286.2,253.8,286.2,251.9z M290.9,251.6v-2.2c-0.6-0.3-1.1-0.4-1.8-0.4c-1.3,0-2,1.1-2,2.7
		v0.2c0,1.5,0.6,2.7,1.7,2.7C290.1,254.5,290.9,253.1,290.9,251.6z"/>
	<path class="st0" d="M293.9,244h0.9v1.6c0.4-0.9,1-1.8,2.2-1.8c1.5,0,2.5,1.2,2.5,3.5v7.8h-0.9v-7.7c0-1.8-0.6-2.8-1.8-2.8
		c-1.2,0-2.1,1.2-2.1,3v7.5h-0.9V244z"/>
	<path class="st0" d="M301.2,249.8v-0.4c0-3.5,1.3-5.5,2.8-5.5c1.1,0,1.8,1,2.3,2.3v-6h0.9v14.9h-0.9V253c-0.4,1.3-1.2,2.3-2.3,2.3
		C302.6,255.3,301.2,253.3,301.2,249.8z M306.4,249.8v-0.5c0-3-1.1-4.7-2.2-4.7c-1.1,0-2.1,1.7-2.1,4.8v0.4c0,3,1,4.8,2.1,4.8
		C305.3,254.5,306.4,252.8,306.4,249.8z"/>
	<path class="st0" d="M309.3,244h1.3v1.7h-1.3V244z M309.3,253.4h1.3v1.7h-1.3V253.4z"/>
	<path class="st0" d="M316.1,240.2h0.9v10l3.1-6.1h1l-2.4,4.5l2.7,6.6h-1l-2.2-5.7l-1.2,2.1v3.6h-0.9V240.2z"/>
	<path class="st0" d="M322.3,251.9v-0.2c0-2.1,1-3.6,2.9-3.6c0.7,0,1.3,0.2,1.8,0.4v-1.4c0-1.5-0.7-2.5-2.1-2.5
		c-0.8,0-1.4,0.1-2,0.5v-0.9c0.6-0.3,1.3-0.5,2.1-0.5c0.9,0,1.6,0.3,2.1,0.8c0.5,0.5,0.8,1.3,0.8,2.4v8H327v-1.6
		c-0.4,1.1-1.1,1.8-2.2,1.8C323.3,255.3,322.3,253.8,322.3,251.9z M327,251.6v-2.2c-0.6-0.3-1.1-0.4-1.8-0.4c-1.3,0-2,1.1-2,2.7v0.2
		c0,1.5,0.6,2.7,1.7,2.7C326.2,254.5,327,253.1,327,251.6z"/>
	<path class="st0" d="M329.9,251.8V244h0.9v7.7c0,1.8,0.6,2.8,1.8,2.8c1.2,0,2.1-1.2,2.1-3V244h0.9v11.1h-0.9v-1.6
		c-0.4,0.9-1,1.8-2.2,1.8C330.9,255.3,329.9,254,329.9,251.8z"/>
	<path class="st0" d="M337.7,244h0.9v1.6c0.4-0.9,1-1.8,2.2-1.8c1.2,0,1.8,0.8,2.1,1.9c0.4-0.9,1.1-1.9,2.4-1.9
		c1.5,0,2.5,1.2,2.5,3.5v7.8h-0.9v-7.7c0-1.8-0.6-2.8-1.7-2.8c-1.1,0-2,1.2-2,3v7.5h-0.9v-7.7c0-1.8-0.6-2.8-1.7-2.8
		c-1.1,0-2,1.2-2,3v7.5h-0.9V244z"/>
	<path class="st0" d="M352.9,254.6l4.8-13.5h-4.6v-0.8h5.5v0.5l-4.8,13.5h4.8v0.8h-5.8V254.6z"/>
	<path class="st0" d="M359.8,251.9v-0.2c0-2.1,1-3.6,2.9-3.6c0.7,0,1.3,0.2,1.8,0.4v-1.4c0-1.5-0.7-2.5-2.1-2.5
		c-0.8,0-1.4,0.1-2,0.5v-0.9c0.6-0.3,1.3-0.5,2.1-0.5c0.9,0,1.6,0.3,2.1,0.8c0.5,0.5,0.8,1.3,0.8,2.4v8h-0.9v-1.6
		c-0.4,1.1-1.1,1.8-2.2,1.8C360.8,255.3,359.8,253.8,359.8,251.9z M364.5,251.6v-2.2c-0.6-0.3-1.1-0.4-1.8-0.4c-1.3,0-2,1.1-2,2.7
		v0.2c0,1.5,0.6,2.7,1.7,2.7C363.7,254.5,364.5,253.1,364.5,251.6z"/>
	<path class="st0" d="M367.5,240.2h0.9v5.5c0.4-0.9,1-1.8,2.2-1.8c1.5,0,2.5,1.2,2.5,3.5v7.8h-0.9v-7.7c0-1.8-0.6-2.8-1.8-2.8
		c-1.2,0-2.1,1.2-2.1,3v7.5h-0.9V240.2z"/>
	<path class="st0" d="M375.3,240.2h0.9v14.9h-0.9V240.2z"/>
	<path class="st0" d="M378.1,249.8v-0.2c0-3.8,1.4-5.7,3-5.7c1.6,0,2.8,2,2.8,5.4v0.7h-5c0,3,1.2,4.5,2.7,4.5c0.7,0,1.2-0.2,1.9-0.7
		l0.1,0.9c-0.8,0.4-1.3,0.6-2.1,0.6C379.7,255.3,378.1,253.4,378.1,249.8z M383,249.2c0-2.6-0.8-4.5-2-4.5c-1.1,0-2,1.5-2.1,4.5H383
		z"/>
	<path class="st0" d="M385.7,244h0.9v1.6c0.4-0.9,1-1.8,2.2-1.8c1.5,0,2.5,1.2,2.5,3.5v7.8h-0.9v-7.7c0-1.8-0.6-2.8-1.8-2.8
		c-1.2,0-2.1,1.2-2.1,3v7.5h-0.9V244z"/>
	<path class="st0" d="M393.2,253.4h1.3v1.7h-1.3V253.4z"/>
	<path class="st0" d="M399.6,240.3h2.5v12.3h2.7v2.5h-5.2V240.3z"/>
	<path class="st0" d="M405.4,252v-0.4c0-2.5,1-3.6,2.5-3.6c0.5,0,1,0.1,1.5,0.4v-0.7c0-1.2-0.5-1.8-1.6-1.8c-0.6,0-1.3,0.3-1.8,0.5
		v-2.4c0.7-0.3,1.6-0.5,2.2-0.5c1.2,0,2,0.3,2.6,0.9c0.7,0.7,1,1.7,1,3v7.5h-2.4v-1.2c-0.4,0.9-1,1.4-1.8,1.4
		C406.3,255.3,405.4,254,405.4,252z M409.3,252.1v-1.9c-0.2-0.1-0.6-0.2-0.8-0.2c-0.5,0-0.8,0.4-0.8,1.5v0.3c0,1.1,0.3,1.5,0.8,1.5
		C408.9,253.2,409.3,252.8,409.3,252.1z"/>
	<path class="st0" d="M413,252.4v-8.6h2.4v8c0,0.8,0.3,1.3,0.8,1.3s0.9-0.5,0.9-1.3v-8h2.4v11.3h-2.4v-1.4c-0.4,0.9-1,1.6-2,1.6
		C413.7,255.3,413,254.1,413,252.4z"/>
	<path class="st0" d="M421.2,253.2v-7.4h-0.7v-2h0.7v-2.9h2.4v2.9h1.3v2h-1.3v6.5c0,0.5,0.2,0.7,0.7,0.7c0.2,0,0.4,0,0.6-0.1v2
		c-0.4,0.2-1,0.4-1.5,0.4C422.3,255.3,421.2,254.9,421.2,253.2z"/>
	<path class="st0" d="M429,254.6V252c0.9,0.5,1.5,0.8,2.2,0.8c0.8,0,1.4-0.5,1.4-1.5c0-0.5-0.1-1.2-1.4-2.5c-1.8-2-2.4-3-2.4-4.7
		c0-2.3,1.5-3.8,3.6-3.8c1,0,1.6,0.2,2.2,0.5v2.6c-0.8-0.5-1.3-0.7-1.9-0.7c-0.7,0-1.3,0.5-1.3,1.3c0,0.6,0.2,1,1.4,2.5
		c2,2.3,2.4,3.3,2.4,4.9c0,2.3-1.6,3.9-3.6,3.9C430.6,255.2,429.7,255,429,254.6z"/>
	<path class="st0" d="M436.3,253.2v-7.4h-0.7v-2h0.7v-2.9h2.4v2.9h1.3v2h-1.3v6.5c0,0.5,0.2,0.7,0.7,0.7c0.2,0,0.4,0,0.6-0.1v2
		c-0.4,0.2-1,0.4-1.5,0.4C437.4,255.3,436.3,254.9,436.3,253.2z"/>
	<path class="st0" d="M441,252.4v-8.6h2.4v8c0,0.8,0.3,1.3,0.8,1.3s0.9-0.5,0.9-1.3v-8h2.4v11.3h-2.4v-1.4c-0.4,0.9-1,1.6-2,1.6
		C441.7,255.3,441,254.1,441,252.4z"/>
	<path class="st0" d="M448.8,250v-1c0-4,1-5.4,2.4-5.4c1.1,0,1.6,0.9,2,1.6v-4.9h2.4v14.9h-2.4v-1.4c-0.4,0.7-0.9,1.6-2,1.6
		C449.8,255.3,448.8,254,448.8,250z M453.1,249.8v-0.8c0-2-0.4-3.1-1-3.1c-0.6,0-0.9,1.1-0.9,3.1v0.8c0,2,0.3,3.1,0.9,3.1
		C452.7,252.9,453.1,251.9,453.1,249.8z"/>
	<path class="st0" d="M456.9,240.2h2.5v2.5h-2.5V240.2z M456.9,243.8h2.4v11.3h-2.4V243.8z"/>
	<path class="st0" d="M460.5,249.7v-0.5c0-3.6,1.5-5.6,3.4-5.6c1.9,0,3.2,2,3.2,5.7v1.3h-4.1c0.1,1.8,0.9,2.4,1.7,2.4
		c0.7,0,1.2-0.3,2-0.8l0.2,2.3c-0.9,0.6-1.5,0.9-2.4,0.9C462.2,255.3,460.5,253.4,460.5,249.7z M464.7,248.6c0-1.9-0.3-2.8-0.9-2.8
		c-0.6,0-0.9,0.8-1,2.8H464.7z"/>
	<path class="st0" d="M468.3,243.8h2.9v2.9h-2.9V243.8z M468.3,252.2h2.9v2.9h-2.9V252.2z"/>
	<path class="st0" d="M475.8,252.9l2.6-5.7c0.8-1.8,1.1-2.6,1.1-3.3c0-0.7-0.4-1.4-1.4-1.4c-0.8,0-1.4,0.3-2,0.7v-2.5
		c0.7-0.4,1.5-0.7,2.6-0.7c2,0,3.3,1.3,3.3,3.5v0.1c0,1.2-0.3,2.3-1.1,4l-2.3,4.9h3.4v2.5h-6.1V252.9z"/>
	<path class="st0" d="M482.8,254.9v-2.5c0.5,0.3,1.1,0.4,1.7,0.4c1.2,0,1.8-1,1.8-2.6v-0.1c0-1.6-0.6-2.1-1.4-2.1
		c-0.4,0-0.6,0.1-1,0.2l-1.2-0.8l0.4-7.1h5.2v2.5H485l-0.2,3c0.3-0.1,0.6-0.1,1-0.1c1.5,0,3.1,1.1,3.1,4.4v0.2c0,3.2-1.7,5-4.1,5
		C484,255.3,483.3,255.1,482.8,254.9z"/>
	<path class="st0" d="M493,244.4v-0.5c0-2.3,0.9-3.7,2.3-3.7s2.3,1.4,2.3,3.7v0.5c0,2.3-0.9,3.7-2.3,3.7S493,246.7,493,244.4z
		 M501,240.3h1.5L499,248l-3.2,7.1h-1.5l3.5-7.7L501,240.3z M494.7,243.9v0.4c0,1.6,0.2,2,0.6,2c0.4,0,0.6-0.5,0.6-2v-0.4
		c0-1.6-0.2-2-0.6-2C494.9,241.9,494.7,242.4,494.7,243.9z M499.1,251.5v-0.5c0-2.3,0.9-3.7,2.3-3.7s2.3,1.4,2.3,3.7v0.5
		c0,2.3-0.9,3.7-2.3,3.7S499.1,253.8,499.1,251.5z M502.1,251.5v-0.4c0-1.6-0.2-2-0.6-2c-0.4,0-0.6,0.5-0.6,2v0.4c0,1.6,0.2,2,0.6,2
		C501.8,253.5,502.1,253.1,502.1,251.5z"/>
	<path class="st0" d="M508.1,250v-1c0-4,1-5.4,2.4-5.4c1.1,0,1.6,0.9,2,1.6v-4.9h2.4v14.9h-2.4v-1.4c-0.4,0.7-0.9,1.6-2,1.6
		C509.1,255.3,508.1,254,508.1,250z M512.4,249.8v-0.8c0-2-0.4-3.1-1-3.1c-0.6,0-0.9,1.1-0.9,3.1v0.8c0,2,0.3,3.1,0.9,3.1
		C512.1,252.9,512.4,251.9,512.4,249.8z"/>
	<path class="st0" d="M516,249.7v-0.5c0-3.6,1.5-5.6,3.4-5.6c1.9,0,3.2,2,3.2,5.7v1.3h-4.1c0.1,1.8,0.9,2.4,1.7,2.4
		c0.7,0,1.2-0.3,2-0.8l0.2,2.3c-0.9,0.6-1.5,0.9-2.4,0.9C517.7,255.3,516,253.4,516,249.7z M520.2,248.6c0-1.9-0.3-2.8-0.9-2.8
		c-0.6,0-0.9,0.8-1,2.8H520.2z"/>
	<path class="st0" d="M523.5,243.8h2.4v1.4c0.3-1,0.9-1.6,1.8-1.5v3h0c-1.2,0-1.7,0.8-1.7,2.4v6h-2.4V243.8z"/>
	<path class="st0" d="M533.4,242.8h-1.8v-2.5h6.1v2.5h-1.8v12.3h-2.5V242.8z"/>
	<path class="st0" d="M537.6,249.7v-0.5c0-3.6,1.5-5.6,3.4-5.6c1.9,0,3.2,2,3.2,5.7v1.3H540c0.1,1.8,0.9,2.4,1.7,2.4
		c0.7,0,1.2-0.3,2-0.8l0.2,2.3c-0.9,0.6-1.5,0.9-2.4,0.9C539.3,255.3,537.6,253.4,537.6,249.7z M541.8,248.6c0-1.9-0.3-2.8-0.9-2.8
		c-0.6,0-0.9,0.8-1,2.8H541.8z"/>
	<path class="st0" d="M544.9,249.7v-0.5c0-3.6,1.5-5.6,3.4-5.6c1.9,0,3.2,2,3.2,5.7v1.3h-4.1c0.1,1.8,0.9,2.4,1.7,2.4
		c0.7,0,1.2-0.3,2-0.8l0.2,2.3c-0.9,0.6-1.5,0.9-2.4,0.9C546.6,255.3,544.9,253.4,544.9,249.7z M549.1,248.6c0-1.9-0.3-2.8-0.9-2.8
		c-0.6,0-0.9,0.8-1,2.8H549.1z"/>
	<path class="st0" d="M552.4,243.8h2.4v1.4c0.4-0.9,1-1.6,2-1.6c1.4,0,2.1,1.2,2.1,3v8.6h-2.4v-8c0-0.8-0.3-1.3-0.8-1.3
		s-0.9,0.5-0.9,1.3v8h-2.4V243.8z"/>
	<path class="st0" d="M559.9,252v-0.4c0-2.5,1-3.6,2.5-3.6c0.5,0,1,0.1,1.5,0.4v-0.7c0-1.2-0.5-1.8-1.6-1.8c-0.6,0-1.3,0.3-1.8,0.5
		v-2.4c0.7-0.3,1.6-0.5,2.2-0.5c1.2,0,2,0.3,2.6,0.9c0.7,0.7,1,1.7,1,3v7.5h-2.4v-1.2c-0.4,0.9-1,1.4-1.8,1.4
		C560.7,255.3,559.9,254,559.9,252z M563.8,252.1v-1.9c-0.2-0.1-0.6-0.2-0.8-0.2c-0.5,0-0.8,0.4-0.8,1.5v0.3c0,1.1,0.3,1.5,0.8,1.5
		C563.4,253.2,563.8,252.8,563.8,252.1z"/>
	<path class="st0" d="M567.8,257.5v-2.3c0.7,0.3,1.6,0.5,2.1,0.5c1.1,0,1.8-0.5,1.8-1.8v-1.1c-0.4,0.7-0.9,1.6-2,1.6
		c-1.3,0-2.3-1.4-2.3-5.4v-0.1c0-4,1-5.4,2.3-5.4c1.1,0,1.6,0.9,2,1.6v-1.4h2.4v10.3c0,1.3-0.3,2.2-1,2.8c-0.7,0.7-1.7,1-2.9,1
		C569.2,257.9,568.6,257.8,567.8,257.5z M571.7,249L571.7,249c0-2-0.4-3.1-1-3.1s-0.9,1-0.9,3v0c0,2,0.3,3,0.9,3
		S571.7,251.1,571.7,249z"/>
	<path class="st0" d="M575.2,249.7v-0.5c0-3.6,1.5-5.6,3.4-5.6c1.9,0,3.2,2,3.2,5.7v1.3h-4.1c0.1,1.8,0.9,2.4,1.7,2.4
		c0.7,0,1.2-0.3,2-0.8l0.2,2.3c-0.9,0.6-1.5,0.9-2.4,0.9C576.9,255.3,575.2,253.4,575.2,249.7z M579.4,248.6c0-1.9-0.3-2.8-0.9-2.8
		c-0.6,0-0.9,0.8-1,2.8H579.4z"/>
	<path class="st0" d="M582.7,243.8h2.4v1.4c0.3-1,0.9-1.6,1.8-1.5v3h0c-1.2,0-1.7,0.8-1.7,2.4v6h-2.4V243.8z"/>
	<path class="st0" d="M239.7,282.1V281c1,0.7,1.8,1,2.5,1c1.2,0,2-0.8,2-2.1v0c0-1.2-0.4-2-2-4.2c-1.9-2.6-2.4-3.4-2.4-4.8v0
		c0-1.8,1.3-3,2.8-3c0.8,0,1.5,0.2,2.2,0.7v1.1c-0.8-0.5-1.5-0.8-2.2-0.8c-1.1,0-1.9,0.8-1.9,2.1v0c0,1.1,0.4,1.9,2.1,4
		c1.8,2.3,2.4,3.4,2.4,5v0c0,1.9-1.3,3.1-2.9,3.1C241.3,282.9,240.5,282.6,239.7,282.1z"/>
	<path class="st0" d="M247,271.6h0.9v1.6c0.4-0.9,1-1.8,2.2-1.8c1.5,0,2.5,1.2,2.5,3.5v7.8h-0.9V275c0-1.8-0.6-2.8-1.8-2.8
		c-1.2,0-2.1,1.2-2.1,3v7.5H247V271.6z"/>
	<path class="st0" d="M254.2,279.5v-0.2c0-2,1-3.6,2.9-3.6c0.7,0,1.3,0.2,1.8,0.4v-1.4c0-1.5-0.7-2.5-2.1-2.5c-0.8,0-1.4,0.1-2,0.5
		V272c0.6-0.3,1.3-0.5,2.1-0.5c0.9,0,1.6,0.3,2.1,0.8c0.5,0.5,0.8,1.3,0.8,2.4v8h-0.9v-1.6c-0.4,1.1-1.1,1.8-2.2,1.8
		C255.2,282.9,254.2,281.4,254.2,279.5z M258.8,279.2V277c-0.6-0.3-1.1-0.4-1.8-0.4c-1.3,0-2,1.1-2,2.7v0.2c0,1.5,0.6,2.7,1.7,2.7
		C258.1,282.1,258.8,280.7,258.8,279.2z"/>
	<path class="st0" d="M261.8,271.6h0.9v2.1c0.4-1.3,1.2-2.3,2.3-2.3c1.5,0,2.8,1.9,2.8,5.5v0.4c0,3.5-1.3,5.5-2.8,5.5
		c-1.1,0-1.8-1-2.3-2.3v4.9h-0.9V271.6z M267,277.3V277c0-3-1-4.8-2.1-4.8c-1.1,0-2.2,1.7-2.2,4.7v0.5c0,3,1.1,4.7,2.2,4.7
		C266,282.1,267,280.4,267,277.3z"/>
	<path class="st0" d="M269.2,277.3v-0.2c0-3.8,1.7-5.6,3.3-5.6c0.5,0,1,0.2,1.3,0.4v1c-0.4-0.3-0.8-0.5-1.3-0.5
		c-1.1,0-2.4,1.5-2.4,4.7v0.3c0,3.3,1.3,4.7,2.5,4.7c0.5,0,0.9-0.2,1.2-0.5v0.9c-0.4,0.3-0.8,0.4-1.3,0.4
		C270.8,282.8,269.2,281.1,269.2,277.3z"/>
	<path class="st0" d="M275.5,267.7h0.9v5.5c0.4-0.9,1-1.8,2.2-1.8c1.5,0,2.5,1.2,2.5,3.5v7.8h-0.9V275c0-1.8-0.6-2.8-1.8-2.8
		c-1.2,0-2.1,1.2-2.1,3v7.5h-0.9V267.7z"/>
	<path class="st0" d="M282.7,279.5v-0.2c0-2,1-3.6,2.9-3.6c0.7,0,1.3,0.2,1.8,0.4v-1.4c0-1.5-0.7-2.5-2.1-2.5c-0.8,0-1.4,0.1-2,0.5
		V272c0.6-0.3,1.3-0.5,2.1-0.5c0.9,0,1.6,0.3,2.1,0.8c0.5,0.5,0.8,1.3,0.8,2.4v8h-0.9v-1.6c-0.4,1.1-1.1,1.8-2.2,1.8
		C283.7,282.9,282.7,281.4,282.7,279.5z M287.4,279.2V277c-0.6-0.3-1.1-0.4-1.8-0.4c-1.3,0-2,1.1-2,2.7v0.2c0,1.5,0.6,2.7,1.7,2.7
		C286.6,282.1,287.4,280.7,287.4,279.2z"/>
	<path class="st0" d="M290.6,280.8v-8.4h-1v-0.8h1v-3.1h0.9v3.1h1.8v0.8h-1.8v8.3c0,1,0.4,1.2,1.1,1.2c0.2,0,0.5,0,0.7-0.1v0.8
		c-0.2,0.1-0.5,0.1-0.7,0.1C291.3,282.8,290.6,282.2,290.6,280.8z"/>
	<path class="st0" d="M294.3,276h3.9v0.8h-3.9V276z"/>
	<path class="st0" d="M299.8,282.1V281c1,0.7,1.8,1,2.5,1c1.2,0,2-0.8,2-2.1v0c0-1.2-0.4-2-2-4.2c-1.9-2.6-2.4-3.4-2.4-4.8v0
		c0-1.8,1.3-3,2.8-3c0.8,0,1.5,0.2,2.2,0.7v1.1c-0.8-0.5-1.5-0.8-2.2-0.8c-1.1,0-1.9,0.8-1.9,2.1v0c0,1.1,0.4,1.9,2.1,4
		c1.8,2.3,2.4,3.4,2.4,5v0c0,1.9-1.3,3.1-2.9,3.1C301.4,282.9,300.6,282.6,299.8,282.1z"/>
	<path class="st0" d="M307.4,280.8v-8.4h-1v-0.8h1v-3.1h0.9v3.1h1.8v0.8h-1.8v8.3c0,1,0.4,1.2,1.1,1.2c0.2,0,0.5,0,0.7-0.1v0.8
		c-0.2,0.1-0.5,0.1-0.7,0.1C308.1,282.8,307.4,282.2,307.4,280.8z"/>
	<path class="st0" d="M311.1,277.2V277c0-3.5,1.5-5.6,3.1-5.6s3.1,2.1,3.1,5.6v0.2c0,3.5-1.5,5.6-3.1,5.6
		C312.5,282.9,311.1,280.7,311.1,277.2z M316.4,277.2V277c0-2.9-1-4.8-2.2-4.8c-1.2,0-2.2,1.9-2.2,4.8v0.2c0,2.9,1,4.8,2.2,4.8
		C315.4,282,316.4,280.2,316.4,277.2z"/>
	<path class="st0" d="M319,271.6h0.9v1.6c0.4-1,1.3-1.8,2.6-1.8v1h0c-1.4,0-2.5,0.9-2.5,2.8v7.4H319V271.6z"/>
	<path class="st0" d="M324,267.7h1v1.5h-1V267.7z M324,271.6h0.9v11.1H324V271.6z"/>
	<path class="st0" d="M326.8,277.3v-0.2c0-3.8,1.4-5.7,3-5.7c1.6,0,2.8,2,2.8,5.4v0.7h-5c0,3,1.2,4.5,2.7,4.5c0.7,0,1.2-0.2,1.9-0.7
		l0.1,0.9c-0.8,0.4-1.3,0.6-2.1,0.6C328.4,282.8,326.8,281,326.8,277.3z M331.7,276.7c0-2.6-0.8-4.5-2-4.5c-1.1,0-2,1.5-2.1,4.5
		H331.7z"/>
	<path class="st0" d="M333.8,282.3v-0.9c0.7,0.4,1.5,0.6,2.2,0.6c0.9,0,1.7-0.6,1.7-1.6v0c0-0.8-0.4-1.6-1.7-2.8
		c-1.6-1.6-2.1-2.4-2.1-3.5v0c0-1.5,1.2-2.4,2.5-2.4c0.7,0,1.2,0.1,1.8,0.4v0.9c-0.6-0.3-1.2-0.5-1.8-0.5c-0.9,0-1.6,0.6-1.6,1.6v0
		c0,0.8,0.4,1.4,1.7,2.7c1.5,1.5,2.1,2.5,2.1,3.6v0c0,1.6-1.2,2.5-2.6,2.5C335.2,282.8,334.5,282.6,333.8,282.3z"/>
	<path class="st0" d="M343.1,279.5v-0.2c0-2,1-3.6,2.9-3.6c0.7,0,1.3,0.2,1.8,0.4v-1.4c0-1.5-0.7-2.5-2.1-2.5c-0.8,0-1.4,0.1-2,0.5
		V272c0.6-0.3,1.3-0.5,2.1-0.5c0.9,0,1.6,0.3,2.1,0.8c0.5,0.5,0.8,1.3,0.8,2.4v8h-0.9v-1.6c-0.4,1.1-1.1,1.8-2.2,1.8
		C344.1,282.9,343.1,281.4,343.1,279.5z M347.8,279.2V277c-0.6-0.3-1.1-0.4-1.8-0.4c-1.3,0-2,1.1-2,2.7v0.2c0,1.5,0.6,2.7,1.7,2.7
		C347,282.1,347.8,280.7,347.8,279.2z"/>
	<path class="st0" d="M350.7,279.3v-7.8h0.9v7.7c0,1.8,0.6,2.8,1.8,2.8c1.2,0,2.1-1.2,2.1-3v-7.5h0.9v11.1h-0.9v-1.6
		c-0.4,0.9-1,1.8-2.2,1.8C351.7,282.9,350.7,281.6,350.7,279.3z"/>
	<path class="st0" d="M358.9,272.4h-1.1v-0.8h1.1v-1.3c0-0.9,0.2-1.6,0.6-2.1c0.4-0.4,0.9-0.5,1.5-0.5c0.2,0,0.5,0,0.6,0.1v0.9
		c-0.2,0-0.5-0.1-0.6-0.1c-0.8,0-1.3,0.5-1.3,1.8v1.3h1.8v0.8h-1.8v10.3h-0.9V272.4z"/>
	<path class="st0" d="M366,277.3v-0.4c0-3.5,1.3-5.5,2.8-5.5c1.1,0,1.8,1,2.3,2.3v-6h0.9v14.9h-0.9v-2.1c-0.4,1.3-1.2,2.3-2.3,2.3
		C367.3,282.9,366,280.9,366,277.3z M371.1,277.4v-0.5c0-3-1.1-4.7-2.2-4.7c-1.1,0-2.1,1.7-2.1,4.8v0.4c0,3,1,4.8,2.1,4.8
		C370,282.1,371.1,280.4,371.1,277.4z"/>
	<path class="st0" d="M373.7,277.3v-0.2c0-3.8,1.4-5.7,3-5.7c1.6,0,2.8,2,2.8,5.4v0.7h-5c0,3,1.2,4.5,2.7,4.5c0.7,0,1.2-0.2,1.9-0.7
		l0.1,0.9c-0.8,0.4-1.3,0.6-2.1,0.6C375.4,282.8,373.7,281,373.7,277.3z M378.7,276.7c0-2.6-0.8-4.5-2-4.5c-1.1,0-2,1.5-2.1,4.5
		H378.7z"/>
	<path class="st0" d="M381.4,271.6h0.9v1.6c0.4-0.9,1-1.8,2.2-1.8c1.5,0,2.5,1.2,2.5,3.5v7.8h-0.9V275c0-1.8-0.6-2.8-1.8-2.8
		c-1.2,0-2.1,1.2-2.1,3v7.5h-0.9V271.6z"/>
	<path class="st0" d="M392.6,267.9h0.9v8.4l4-8.4h1l-3.3,6.7l3.8,8.1h-1l-3.3-7.1l-1.2,2.4v4.7h-0.9V267.9z"/>
	<path class="st0" d="M399.7,279.5v-0.2c0-2,1-3.6,2.9-3.6c0.7,0,1.3,0.2,1.8,0.4v-1.4c0-1.5-0.7-2.5-2.1-2.5c-0.8,0-1.4,0.1-2,0.5
		V272c0.6-0.3,1.3-0.5,2.1-0.5c0.9,0,1.6,0.3,2.1,0.8c0.5,0.5,0.8,1.3,0.8,2.4v8h-0.9v-1.6c-0.4,1.1-1.1,1.8-2.2,1.8
		C400.7,282.9,399.7,281.4,399.7,279.5z M404.4,279.2V277c-0.6-0.3-1.1-0.4-1.8-0.4c-1.3,0-2,1.1-2,2.7v0.2c0,1.5,0.6,2.7,1.7,2.7
		C403.6,282.1,404.4,280.7,404.4,279.2z"/>
	<path class="st0" d="M407.4,271.6h0.9v1.6c0.4-0.9,1-1.8,2.2-1.8c1.5,0,2.5,1.2,2.5,3.5v7.8h-0.9V275c0-1.8-0.6-2.8-1.8-2.8
		c-1.2,0-2.1,1.2-2.1,3v7.5h-0.9V271.6z"/>
	<path class="st0" d="M414.6,279.5v-0.2c0-2,1-3.6,2.9-3.6c0.7,0,1.3,0.2,1.8,0.4v-1.4c0-1.5-0.7-2.5-2.1-2.5c-0.8,0-1.4,0.1-2,0.5
		V272c0.6-0.3,1.3-0.5,2.1-0.5c0.9,0,1.6,0.3,2.1,0.8c0.5,0.5,0.8,1.3,0.8,2.4v8h-0.9v-1.6c-0.4,1.1-1.1,1.8-2.2,1.8
		C415.6,282.9,414.6,281.4,414.6,279.5z M419.2,279.2V277c-0.6-0.3-1.1-0.4-1.8-0.4c-1.3,0-2,1.1-2,2.7v0.2c0,1.5,0.6,2.7,1.7,2.7
		C418.5,282.1,419.2,280.7,419.2,279.2z"/>
	<path class="st0" d="M422.4,267.7h0.9v14.9h-0.9V267.7z"/>
	<path class="st0" d="M428.5,285.1c1.7-0.4,2.1-1.5,2-2.4h-1.3v-2.9h2.9v2.4c0,2.2-1.1,3.7-3.4,4L428.5,285.1z M432.6,285.1
		c1.7-0.4,2.1-1.5,2-2.4h-1.3v-2.9h2.9v2.4c0,2.2-1.1,3.7-3.4,4L432.6,285.1z"/>
	<path class="st0" d="M437.9,267.8h2.4v4.9c0.4-0.9,1-1.6,2-1.6c1.4,0,2.1,1.2,2.1,3v8.6H442v-8c0-0.8-0.3-1.3-0.8-1.3
		s-0.9,0.5-0.9,1.3v8h-2.4V267.8z"/>
	<path class="st0" d="M445.5,277.3v-0.5c0-3.6,1.5-5.6,3.4-5.6c1.9,0,3.2,2,3.2,5.7v1.3h-4.1c0.1,1.8,0.9,2.4,1.7,2.4
		c0.7,0,1.2-0.3,2-0.8l0.2,2.3c-0.9,0.6-1.5,0.9-2.4,0.9C447.2,282.9,445.5,281,445.5,277.3z M449.7,276.2c0-1.9-0.3-2.8-0.9-2.8
		c-0.6,0-0.9,0.8-1,2.8H449.7z"/>
	<path class="st0" d="M453,267.8h2.4v14.9H453V267.8z"/>
	<path class="st0" d="M456.9,267.8h2.4v14.9h-2.4V267.8z"/>
	<path class="st0" d="M460.5,277.4v-0.7c0-3.6,1.5-5.5,3.4-5.5s3.4,1.9,3.4,5.5v0.7c0,3.6-1.5,5.5-3.4,5.5S460.5,281,460.5,277.4z
		 M465,277.4v-0.8c0-2.2-0.4-3.3-1-3.3c-0.6,0-1,1-1,3.3v0.8c0,2.2,0.4,3.3,1,3.3C464.6,280.7,465,279.6,465,277.4z"/>
	<path class="st0" d="M471,281.3v1.4h-2.4v-14.9h2.4v5c0.4-0.7,0.9-1.6,2-1.6c1.3,0,2.4,1.3,2.4,5.4v1c0,4-1,5.4-2.4,5.4
		C471.9,282.9,471.4,282,471,281.3z M472.9,277.4v-0.8c0-2-0.3-3.1-0.9-3.1c-0.6,0-1,1.1-1,3.1v0.8c0,2,0.4,3.1,1,3.1
		C472.6,280.5,472.9,279.4,472.9,277.4z"/>
	<path class="st0" d="M476.5,267.8h2.5v2.5h-2.5V267.8z M476.6,271.4h2.4v11.3h-2.4V271.4z"/>
	<path class="st0" d="M480.4,267.8h2.4v14.9h-2.4V267.8z"/>
	<path class="st0" d="M484.1,277.5v-1c0-4,1-5.4,2.4-5.4c1.1,0,1.6,0.9,2,1.6v-4.9h2.4v14.9h-2.4v-1.4c-0.4,0.7-0.9,1.6-2,1.6
		C485.1,282.9,484.1,281.6,484.1,277.5z M488.4,277.4v-0.8c0-2-0.4-3.1-1-3.1c-0.6,0-0.9,1.1-0.9,3.1v0.8c0,2,0.3,3.1,0.9,3.1
		C488.1,280.5,488.4,279.4,488.4,277.4z"/>
	<path class="st0" d="M492.4,271.8c0-2.2,1.1-3.7,3.1-4l0.2,1c-1.5,0.3-1.8,1.5-1.7,2.4h1.3v2.9h-2.9V271.8z M496.3,271.8
		c0-2.2,1.1-3.7,3.1-4l0.2,1c-1.5,0.3-1.8,1.5-1.7,2.4h1.3v2.9h-2.9V271.8z"/>
	<path class="st0" d="M504.1,282.2l4-9.8h-3.8v-0.8h4.7v0.5l-4,9.8h3.9v0.8h-4.8V282.2z"/>
	<path class="st0" d="M510.6,279.3v-7.8h0.9v7.7c0,1.8,0.6,2.8,1.8,2.8c1.2,0,2.1-1.2,2.1-3v-7.5h0.9v11.1h-0.9v-1.6
		c-0.4,0.9-1,1.8-2.2,1.8C511.6,282.9,510.6,281.6,510.6,279.3z"/>
	<path class="st0" d="M518.5,285v-0.9c0.8,0.3,1.7,0.5,2.4,0.5c1.5,0,2.2-0.7,2.2-2.2v-2.6c-0.4,1.3-1.2,2.3-2.3,2.3
		c-1.5,0-2.8-1.8-2.8-5.2v-0.2c0-3.4,1.4-5.2,2.8-5.2c1.1,0,1.8,1,2.3,2.3v-2.1h0.9v10.8c0,1-0.3,1.8-0.8,2.3
		c-0.5,0.5-1.3,0.8-2.4,0.8C520.1,285.5,519.2,285.3,518.5,285z M523.2,276.9v-0.2c0-2.8-1.2-4.5-2.2-4.5c-1.1,0-2.1,1.6-2.1,4.5
		v0.1c0,2.9,1,4.5,2.1,4.5C522,281.3,523.2,279.7,523.2,276.9z"/>
	<path class="st0" d="M525.8,277.3v-0.2c0-3.8,1.4-5.7,3-5.7c1.6,0,2.8,2,2.8,5.4v0.7h-5c0,3,1.2,4.5,2.7,4.5c0.7,0,1.2-0.2,1.9-0.7
		l0.1,0.9c-0.8,0.4-1.3,0.6-2.1,0.6C527.4,282.8,525.8,281,525.8,277.3z M530.7,276.7c0-2.6-0.8-4.5-2-4.5c-1.1,0-2,1.5-2.1,4.5
		H530.7z"/>
	<path class="st0" d="M532.8,282.3v-0.9c0.7,0.4,1.5,0.6,2.2,0.6c0.9,0,1.7-0.6,1.7-1.6v0c0-0.8-0.4-1.6-1.7-2.8
		c-1.6-1.6-2.1-2.4-2.1-3.5v0c0-1.5,1.2-2.4,2.5-2.4c0.7,0,1.2,0.1,1.8,0.4v0.9c-0.6-0.3-1.2-0.5-1.8-0.5c-0.9,0-1.6,0.6-1.6,1.6v0
		c0,0.8,0.4,1.4,1.7,2.7c1.5,1.5,2.1,2.5,2.1,3.6v0c0,1.6-1.2,2.5-2.6,2.5C534.2,282.8,533.5,282.6,532.8,282.3z"/>
	<path class="st0" d="M538.8,277.3v-0.2c0-3.8,1.7-5.6,3.3-5.6c0.5,0,1,0.2,1.3,0.4v1c-0.4-0.3-0.8-0.5-1.3-0.5
		c-1.1,0-2.4,1.5-2.4,4.7v0.3c0,3.3,1.3,4.7,2.5,4.7c0.5,0,0.9-0.2,1.2-0.5v0.9c-0.4,0.3-0.8,0.4-1.3,0.4
		C540.4,282.8,538.8,281.1,538.8,277.3z"/>
	<path class="st0" d="M545,267.7h0.9v5.5c0.4-0.9,1-1.8,2.2-1.8c1.5,0,2.5,1.2,2.5,3.5v7.8h-0.9V275c0-1.8-0.6-2.8-1.8-2.8
		c-1.2,0-2.1,1.2-2.1,3v7.5H545V267.7z"/>
	<path class="st0" d="M552.8,271.6h0.9v1.6c0.4-0.9,1-1.8,2.2-1.8c1.5,0,2.5,1.2,2.5,3.5v7.8h-0.9V275c0-1.8-0.6-2.8-1.8-2.8
		c-1.2,0-2.1,1.2-2.1,3v7.5h-0.9V271.6z"/>
	<path class="st0" d="M560.6,267.7h1v1.5h-1V267.7z M560.6,271.6h0.9v11.1h-0.9V271.6z"/>
	<path class="st0" d="M564.1,280.8v-8.4h-1v-0.8h1v-3.1h0.9v3.1h1.8v0.8H565v8.3c0,1,0.4,1.2,1.1,1.2c0.2,0,0.5,0,0.7-0.1v0.8
		c-0.2,0.1-0.5,0.1-0.7,0.1C564.9,282.8,564.1,282.2,564.1,280.8z"/>
	<path class="st0" d="M568.7,280.8v-8.4h-1v-0.8h1v-3.1h0.9v3.1h1.8v0.8h-1.8v8.3c0,1,0.4,1.2,1.1,1.2c0.2,0,0.5,0,0.7-0.1v0.8
		c-0.2,0.1-0.5,0.1-0.7,0.1C569.4,282.8,568.7,282.2,568.7,280.8z"/>
	<path class="st0" d="M572.4,277.3v-0.2c0-3.8,1.4-5.7,3-5.7c1.6,0,2.8,2,2.8,5.4v0.7h-5c0,3,1.2,4.5,2.7,4.5c0.7,0,1.2-0.2,1.9-0.7
		l0.1,0.9c-0.8,0.4-1.3,0.6-2.1,0.6C574,282.8,572.4,281,572.4,277.3z M577.4,276.7c0-2.6-0.8-4.5-2-4.5c-1.1,0-2,1.5-2.1,4.5H577.4
		z"/>
	<path class="st0" d="M580,271.6h0.9v1.6c0.4-0.9,1-1.8,2.2-1.8c1.5,0,2.5,1.2,2.5,3.5v7.8h-0.9V275c0-1.8-0.6-2.8-1.8-2.8
		c-1.2,0-2.1,1.2-2.1,3v7.5H580V271.6z"/>
</g>
<g>
	<path class="st0" d="M267.6,136v-1.2c0-8.6,3.7-12.1,8.7-12.1c2,0,3.5,0.5,5.1,1.4v-1.5c0-3.5-1.7-5.3-5-5.3c-2.4,0-5.1,1-6.9,1.9
		v-9.6c2.7-1.1,5.7-1.8,9.1-1.8c4.2,0,7.3,1.1,9.3,3.2c2.3,2.3,3.5,5.9,3.5,10.6v24.9h-10v-3.6c-1.5,2.8-3.5,4.3-6.3,4.3
		C270.8,147.4,267.6,143.3,267.6,136z M281.5,136.3v-5.9c-0.6-0.3-1.5-0.6-2.2-0.6c-1.5,0-2.4,1.4-2.4,4.3v1.4c0,3,1,4.1,2.2,4.1
		C280.3,139.6,281.5,138.6,281.5,136.3z"/>
	<path class="st0" d="M294.5,137.9v-29.3h10.1V135c0,2,0.8,3.2,2.1,3.2c1.2,0,2.1-1.2,2.1-3.2v-26.5H319v38.2h-10.1v-4.4
		c-1.4,2.7-3.5,5.1-7,5.1C297,147.5,294.5,143.5,294.5,137.9z"/>
	<path class="st0" d="M323.6,116.8h-2.1v-8.3h2.1v-1.7c0-3.5,0.9-6.1,2.6-7.8c1.7-1.7,4.3-2.5,7.5-2.5c1.9,0,3.1,0.1,4.3,0.4v8
		c-0.3-0.1-1-0.1-1.5-0.1c-1.8,0-2.9,0.9-2.9,2.9v1h4.4v8.2h-4.2v29.9h-10.1V116.8z"/>
	<path class="st0" d="M350,144.7v-10.5c3,1.8,5.7,3,8.5,3c2.4,0,3.9-1.3,3.9-3.7v-0.1c0-1.6-1-3.3-4.2-6.6c-6.2-5.9-8.9-9.4-8.9-16
		v-0.2c0-8.5,5.6-13.9,13-13.9c3.7,0,6.4,0.8,8.6,1.8v10.7c-2.8-1.6-5.1-2.4-7.5-2.4c-2.1,0-3.7,1.3-3.7,3.5v0.1
		c0,1.8,1,3.1,4.2,6.5c6.6,6.6,8.9,9.9,8.9,16.3v0.3c0,8.3-6,13.9-13.1,13.9C356,147.2,352.5,146.2,350,144.7z"/>
	<path class="st0" d="M375.2,108.5h10.1v4.4c1.4-2.7,3.5-5.1,7-5.1c4.9,0,7.3,3.9,7.3,9.6v29.3h-10.1v-26.6c0-2-0.8-3.1-2.1-3.1
		c-1.2,0-2.1,1.1-2.1,3.1v26.6h-10.1V108.5z"/>
	<path class="st0" d="M401.9,136v-1.2c0-8.6,3.7-12.1,8.7-12.1c2,0,3.5,0.5,5.1,1.4v-1.5c0-3.5-1.7-5.3-5-5.3c-2.4,0-5.1,1-6.9,1.9
		v-9.6c2.7-1.1,5.7-1.8,9.1-1.8c4.2,0,7.3,1.1,9.3,3.2c2.3,2.3,3.5,5.9,3.5,10.6v24.9h-10v-3.6c-1.5,2.8-3.5,4.3-6.3,4.3
		C405.1,147.4,401.9,143.3,401.9,136z M415.7,136.3v-5.9c-0.6-0.3-1.5-0.6-2.2-0.6c-1.5,0-2.4,1.4-2.4,4.3v1.4c0,3,1,4.1,2.2,4.1
		C414.6,139.6,415.7,138.6,415.7,136.3z"/>
	<path class="st0" d="M429,108.5h10.1v4.4c1.5-2.7,3.3-5.2,6.9-5.2c4.5,0,8.3,3.9,8.3,18v3.7c0,14-3.8,18-8.3,18
		c-3.5,0-5.3-2.5-6.9-5.2v13.6H429V108.5z M444.2,129.6v-4c0-5.8-0.8-8.5-2.5-8.5c-1.8,0-2.6,2.7-2.6,8.5v4c0,5.7,0.8,8.5,2.6,8.5
		C443.4,138.1,444.2,135.3,444.2,129.6z"/>
	<path class="st0" d="M456.9,128.9v-2.8c0-12.1,5.5-18.4,12.9-18.4c2.6,0,4.2,0.4,6.1,1.3v10c-1.5-0.9-2.8-1.5-4.4-1.5
		c-2.6,0-4.5,2.5-4.5,8.9v2.3c0,6.4,1.8,8.9,4.6,8.9c1.3,0,2.8-0.6,4.3-1.6v9.7c-1.9,1.1-3.7,1.7-6.3,1.7
		C461.8,147.5,456.9,141,456.9,128.9z"/>
	<path class="st0" d="M478.9,96.6H489v16.3c1.4-2.7,3.5-5.1,7-5.1c4.9,0,7.3,3.9,7.3,9.6v29.3h-10.1v-26.6c0-2-0.8-3.1-2.1-3.1
		c-1.2,0-2.1,1.1-2.1,3.1v26.6h-10.1V96.6z"/>
	<path class="st0" d="M505.6,136v-1.2c0-8.6,3.7-12.1,8.7-12.1c2,0,3.5,0.5,5.1,1.4v-1.5c0-3.5-1.7-5.3-5-5.3c-2.4,0-5.1,1-6.9,1.9
		v-9.6c2.7-1.1,5.7-1.8,9.1-1.8c4.2,0,7.3,1.1,9.3,3.2c2.3,2.3,3.5,5.9,3.5,10.6v24.9h-10v-3.6c-1.5,2.8-3.5,4.3-6.3,4.3
		C508.8,147.4,505.6,143.3,505.6,136z M519.4,136.3v-5.9c-0.6-0.3-1.5-0.6-2.2-0.6c-1.5,0-2.4,1.4-2.4,4.3v1.4c0,3,1,4.1,2.2,4.1
		C518.3,139.6,519.4,138.6,519.4,136.3z"/>
	<path class="st0" d="M533.2,139.3v-22.6h-2.1v-8.3h2.1v-9.3h10.1v9.3h4.2v8.3h-4.2v19.4c0,1.3,0.6,2,1.9,2c0.7,0,1.4-0.2,2.2-0.6
		v8.3c-1.6,0.8-3.8,1.5-6,1.5C537,147.3,533.2,145.5,533.2,139.3z"/>
</g>
<rect x="268.7" y="151.6" class="st0" width="156.3" height="13.7"/>
<rect x="442.8" y="151.6" class="st0" width="188.4" height="13.7"/>
<g>
	<path class="st0" d="M554.7,111.8v-10.1h0.8v10.1c0,1.8,0.8,2.9,2,2.9s2.1-1,2.1-2.9v-10.1h0.8v10.1c0,2.2-1.1,3.7-2.9,3.7
		S554.7,114.1,554.7,111.8z M556.1,99.6h1v1.2h-1V99.6z M558,99.6h1v1.2h-1V99.6z"/>
	<path class="st0" d="M562.5,101.7h1.7c1.1,0,2,0.4,2.7,1c0.6,0.6,0.9,1.4,0.9,2.4v0c0,2-1.1,2.9-2.4,3.3c1.6,0.4,2.6,1.5,2.6,3.3v0
		c0,2.2-1.6,3.5-4.1,3.5h-1.4V101.7z M566.9,105.2c0-1.6-1.1-2.7-2.8-2.7h-0.8v5.6h0.6C565.9,108.1,566.9,107,566.9,105.2
		L566.9,105.2z M564,108.8h-0.7v5.7h0.5c2,0,3.2-0.9,3.2-2.8v0C567.1,109.9,566,108.8,564,108.8z"/>
	<path class="st0" d="M569.6,101.7h4.5v0.8h-3.7v5.6h3.4v0.8h-3.4v5.7h3.7v0.8h-4.6V101.7z"/>
	<path class="st0" d="M575.8,101.7h1.7c1.2,0,2.1,0.4,2.8,1s1,1.7,1,2.9v0c0,1.9-0.9,3.2-2.3,3.8l2.5,5.7h-1l-2.4-5.5
		c-0.2,0-0.5,0.1-0.7,0.1h-0.7v5.5h-0.8V101.7z M577.4,109.1c1.8,0,3-1.2,3-3.3v0c0-2.2-1.2-3.2-3-3.2h-0.8v6.6H577.4z"/>
	<path class="st0" d="M586.8,104.2l-1.4,0.4v-2.4l2.1-0.7h1.7v13.7h-2.3V104.2z"/>
	<path class="st0" d="M590.4,108.9v-0.7c0-4.7,1.1-6.6,3.3-6.6c2.1,0,3.3,1.9,3.3,6.6v0.7c0,4.7-1.2,6.6-3.3,6.6
		C591.5,115.5,590.4,113.6,590.4,108.9z M594.7,108.9v-0.7c0-3.8-0.5-4.5-1-4.5c-0.6,0-1,0.6-1,4.5v0.7c0,3.8,0.5,4.5,1,4.5
		C594.2,113.3,594.7,112.7,594.7,108.9z"/>
	<path class="st0" d="M597.9,108.9v-0.7c0-4.7,1.1-6.6,3.3-6.6c2.1,0,3.3,1.9,3.3,6.6v0.7c0,4.7-1.2,6.6-3.3,6.6
		C599,115.5,597.9,113.6,597.9,108.9z M602.2,108.9v-0.7c0-3.8-0.5-4.5-1-4.5c-0.6,0-1,0.6-1,4.5v0.7c0,3.8,0.5,4.5,1,4.5
		C601.7,113.3,602.2,112.7,602.2,108.9z"/>
	<path class="st0" d="M608.6,101.7h2.3l1.6,5.2l1.6-5.2h2.3v13.6h-2.2v-8.2l-1.7,5.2h0l-1.7-5.2v8.2h-2.2V101.7z"/>
	<path class="st0" d="M617.9,101.7h2.3v13.6h-2.3V101.7z"/>
	<path class="st0" d="M621.4,108.9v-0.7c0-4.5,1.4-6.6,3.5-6.6c2.1,0,3.5,2.2,3.5,6.6v0.7c0,4.5-1.4,6.6-3.5,6.6
		C622.8,115.5,621.4,113.3,621.4,108.9z M626.1,108.9v-0.7c0-3.5-0.5-4.5-1.2-4.5c-0.7,0-1.2,1-1.2,4.5v0.7c0,3.5,0.5,4.5,1.2,4.5
		C625.6,113.3,626.1,112.4,626.1,108.9z"/>
	<path class="st0" d="M629.6,112.6h2.6v2.7h-2.6V112.6z"/>
	<path class="st0" d="M557.1,117.6h0.9l2.9,13.6h-0.9l-0.8-3.8h-3.5l-0.8,3.8h-0.8L557.1,117.6z M559.1,126.7l-1.6-7.7l-1.6,7.7
		H559.1z"/>
	<path class="st0" d="M562.5,117.7h0.8v7.7l3.7-7.7h1l-3.1,6.1l3.4,7.4h-0.9l-3-6.5l-1.1,2.2v4.3h-0.8V117.7z"/>
	<path class="st0" d="M570.5,118.5h-2.2v-0.8h5.2v0.8h-2.2v12.8h-0.8V118.5z"/>
	<path class="st0" d="M575,117.7h0.8v13.6H575V117.7z"/>
	<path class="st0" d="M577.5,117.7h0.9l2.3,12.1l2.3-12.1h0.8l-2.8,13.7h-0.8L577.5,117.7z"/>
	<path class="st0" d="M585.5,117.7h4.5v0.8h-3.7v5.6h3.4v0.8h-3.4v5.7h3.7v0.8h-4.6V117.7z"/>
	<path class="st0" d="M594.8,117.7h0.9l4.1,11.4v-11.4h0.8v13.6h-0.8l-4.2-11.7v11.7h-0.8V117.7z"/>
	<path class="st0" d="M602.7,127.8v-10.1h0.8v10.1c0,1.8,0.8,2.9,2,2.9s2.1-1,2.1-2.9v-10.1h0.8v10.1c0,2.2-1.1,3.7-2.9,3.7
		S602.7,130,602.7,127.8z"/>
	<path class="st0" d="M611.9,118.5h-2.2v-0.8h5.2v0.8h-2.2v12.8h-0.8V118.5z"/>
	<path class="st0" d="M615.5,130.7l4.4-12.3h-4.2v-0.7h5.1v0.5l-4.4,12.3h4.4v0.7h-5.3V130.7z"/>
	<path class="st0" d="M622.4,117.7h4.5v0.8h-3.7v5.6h3.4v0.8h-3.4v5.7h3.7v0.8h-4.6V117.7z"/>
	<path class="st0" d="M628.6,117.7h1.7c1.2,0,2.1,0.4,2.8,1s1,1.7,1,2.9v0c0,1.9-0.9,3.2-2.3,3.8l2.5,5.7h-1l-2.4-5.5
		c-0.2,0-0.5,0.1-0.7,0.1h-0.7v5.5h-0.8V117.7z M630.2,125c1.8,0,3-1.2,3-3.3v0c0-2.2-1.2-3.2-3-3.2h-0.8v6.6H630.2z"/>
	<path class="st0" d="M640.3,118.5h-2.2v-0.8h5.2v0.8h-2.2v12.8h-0.8V118.5z"/>
	<path class="st0" d="M646.2,117.6h0.9l2.9,13.6h-0.9l-0.8-3.8h-3.5l-0.8,3.8h-0.8L646.2,117.6z M648.2,126.7l-1.6-7.7l-1.6,7.7
		H648.2z M645.1,115.4h1v1.2h-1V115.4z M647.1,115.4h1v1.2h-1V115.4z"/>
	<path class="st0" d="M650.6,124.6v-0.3c0-4.5,1.9-6.7,4-6.7c0.7,0,1.1,0.2,1.6,0.4v0.9c-0.6-0.3-1.1-0.5-1.6-0.5
		c-1.6,0-3.2,2-3.2,5.9v0.3c0,4,1.4,6,3.2,6c0.4,0,0.6,0,0.9-0.2v-5.3h-2v-0.8h2.8v6.6c-0.7,0.4-1.1,0.5-1.8,0.5
		C652.4,131.4,650.6,129.1,650.6,124.6z"/>
	<path class="st0" d="M658.5,117.7h0.8v12.8h3.3v0.8h-4.2V117.7z"/>
	<path class="st0" d="M664,117.7h0.8v13.6H664V117.7z"/>
	<path class="st0" d="M666.8,124.6v-0.3c0-4.5,1.7-6.7,3.6-6.7c0.6,0,0.9,0.1,1.3,0.3v0.9c-0.5-0.3-0.9-0.4-1.3-0.4
		c-1.5,0-2.7,2-2.7,5.9v0.3c0,3.9,1.2,5.9,2.7,5.9c0.5,0,0.9-0.1,1.4-0.4v0.9c-0.4,0.2-0.8,0.4-1.4,0.4
		C668.3,131.4,666.8,129.2,666.8,124.6z"/>
	<path class="st0" d="M673.4,117.7h0.8v6.4h4.1v-6.4h0.8v13.6h-0.8v-6.4h-4.1v6.4h-0.8V117.7z"/>
	<path class="st0" d="M680.6,132.8c0.7-0.3,1-0.8,1-1.5h-0.5v-1.6h1.2v1.4c0,1.2-0.4,1.7-1.4,2.2L680.6,132.8z"/>
	<path class="st0" d="M554.2,147v-2.3c0.4,0.2,1,0.4,1.5,0.4c1.1,0,1.7-0.9,1.7-2.4v-0.1c0-1.4-0.5-1.9-1.3-1.9
		c-0.3,0-0.6,0.1-0.9,0.2l-1.1-0.8l0.4-6.5h4.7v2.2h-3l-0.2,2.8c0.2-0.1,0.5-0.1,0.9-0.1c1.4,0,2.8,1,2.8,4.1v0.2
		c0,2.9-1.5,4.6-3.7,4.6C555.3,147.4,554.7,147.2,554.2,147z"/>
	<path class="st0" d="M560.5,140.8V140c0-4.7,1.1-6.6,3.3-6.6c2.1,0,3.3,1.9,3.3,6.6v0.7c0,4.7-1.2,6.6-3.3,6.6
		C561.6,147.4,560.5,145.5,560.5,140.8z M564.7,140.8v-0.7c0-3.8-0.5-4.5-1-4.5c-0.6,0-1,0.6-1,4.5v0.7c0,3.8,0.5,4.5,1,4.5
		C564.3,145.2,564.7,144.6,564.7,140.8z"/>
	<path class="st0" d="M571,137.4v-0.4c0-2.1,0.8-3.4,2.1-3.4s2.1,1.3,2.1,3.4v0.4c0,2.1-0.8,3.4-2.1,3.4S571,139.5,571,137.4z
		 M578.4,133.6h1.4l-3.3,7.1l-3,6.5h-1.4l3.3-7.1L578.4,133.6z M572.6,136.9v0.4c0,1.4,0.2,1.9,0.6,1.9c0.4,0,0.6-0.4,0.6-1.9v-0.4
		c0-1.4-0.2-1.9-0.6-1.9C572.8,135.1,572.6,135.5,572.6,136.9z M576.6,143.9v-0.4c0-2.1,0.8-3.4,2.1-3.4c1.3,0,2.1,1.3,2.1,3.4v0.4
		c0,2.1-0.8,3.4-2.1,3.4C577.5,147.3,576.6,146,576.6,143.9z M579.3,143.9v-0.4c0-1.4-0.2-1.9-0.6-1.9c-0.4,0-0.6,0.4-0.6,1.9v0.4
		c0,1.4,0.2,1.9,0.6,1.9C579.1,145.7,579.3,145.3,579.3,143.9z"/>
	<path class="st0" d="M587.1,133.6h2.5l2.5,13.6h-2.3l-0.4-2.7h-2.1l-0.4,2.7h-2.2L587.1,133.6z M589,142.4l-0.7-4.5l-0.7,4.5H589z"
		/>
	<path class="st0" d="M592.6,143.2v-9.6h2.3v9.8c0,1.2,0.4,1.7,1,1.7c0.6,0,1-0.5,1-1.7v-9.8h2.3v9.6c0,2.8-1.4,4.1-3.3,4.1
		C594,147.4,592.6,146.1,592.6,143.2z"/>
	<path class="st0" d="M600.3,146.7v-2.4c0.8,0.5,1.4,0.8,2.1,0.8c0.7,0,1.3-0.4,1.3-1.3c0-0.4-0.1-1.1-1.3-2.3
		c-1.6-1.8-2.2-2.8-2.2-4.3c0-2.2,1.4-3.5,3.3-3.5c0.9,0,1.5,0.2,2,0.4v2.4c-0.7-0.4-1.2-0.6-1.8-0.6c-0.6,0-1.2,0.4-1.2,1.2
		c0,0.6,0.2,0.9,1.3,2.2c1.8,2.2,2.2,3.1,2.2,4.5c0,2.1-1.5,3.5-3.3,3.5C601.7,147.3,601,147.1,600.3,146.7z"/>
	<path class="st0" d="M609.7,143.2v-9.6h2.3v9.8c0,1.2,0.4,1.7,1,1.7c0.6,0,1-0.5,1-1.7v-9.8h2.3v9.6c0,2.8-1.4,4.1-3.3,4.1
		C611.2,147.4,609.7,146.1,609.7,143.2z"/>
	<path class="st0" d="M617.4,146.7v-2.4c0.8,0.5,1.4,0.8,2.1,0.8c0.7,0,1.3-0.4,1.3-1.3c0-0.4-0.1-1.1-1.3-2.3
		c-1.6-1.8-2.2-2.8-2.2-4.3c0-2.2,1.4-3.5,3.3-3.5c0.9,0,1.5,0.2,2,0.4v2.4c-0.7-0.4-1.2-0.6-1.8-0.6c-0.6,0-1.2,0.4-1.2,1.2
		c0,0.6,0.2,0.9,1.3,2.2c1.8,2.2,2.2,3.1,2.2,4.5c0,2.1-1.5,3.5-3.3,3.5C618.9,147.3,618.1,147.1,617.4,146.7z"/>
	<path class="st0" d="M625.7,133.6h2.5l2.5,13.6h-2.3l-0.4-2.7h-2.1l-0.4,2.7h-2.2L625.7,133.6z M627.6,142.4l-0.7-4.5l-0.7,4.5
		H627.6z"/>
</g>
<g>
	<path class="st0" d="M321.9,342.2v-7.7c1.6,0.6,3.1,1,5.1,1c2.5,0,4.3-1.7,4.3-4.4v-0.3c0-3.2-2.4-4.6-6.7-4.9v-5.3l6-8.1h-8.2
		v-7.7h16.5v7.1l-6.5,8.7c3.8,1.3,6.7,3.8,6.7,9.9v0.5c0,7.6-4.6,12.1-10.9,12.1C325.5,343.3,323.6,342.9,321.9,342.2z"/>
	<path class="st0" d="M341.3,321.9h14.4v7.8h-14.4V321.9z"/>
	<path class="st0" d="M368.2,336.3h-10.5v-5.8l10.1-25.6h7.9v24.6h3v6.9h-3v6.4h-7.5V336.3z M368.3,329.4v-12.1l-4.2,12.1H368.3z"/>
	<path class="st0" d="M388.2,341.2v-8c2.3,1.3,4.4,2.3,6.5,2.3c1.9,0,3-1,3-2.8v-0.1c0-1.2-0.7-2.5-3.2-5c-4.7-4.5-6.8-7.2-6.8-12.3
		v-0.2c0-6.5,4.3-10.6,10-10.6c2.8,0,4.9,0.6,6.6,1.3v8.1c-2.1-1.2-3.9-1.8-5.8-1.8c-1.6,0-2.8,1-2.8,2.6v0.1c0,1.3,0.7,2.4,3.2,5
		c5,5,6.8,7.6,6.8,12.5v0.2c0,6.4-4.6,10.6-10,10.6C392.8,343.1,390.1,342.3,388.2,341.2z"/>
	<path class="st0" d="M407.8,337.1v-17.3h-1.6v-6.3h1.6v-7.1h7.7v7.1h3.2v6.3h-3.2v14.8c0,1,0.5,1.5,1.5,1.5c0.5,0,1.1-0.2,1.7-0.4
		v6.3c-1.2,0.6-2.9,1.1-4.6,1.1C410.7,343.2,407.8,341.8,407.8,337.1z"/>
	<path class="st0" d="M419.8,329.3V327c0-9.3,4-14.1,9.8-14.1c5.7,0,9.7,4.9,9.7,14.1v2.3c0,9.3-4,14.1-9.7,14.1
		C423.8,343.4,419.8,338.6,419.8,329.3z M431.6,329.3v-2.4c0-5.1-0.7-7.1-2.1-7.1c-1.4,0-2,2-2,7.1v2.4c0,5.1,0.6,7.1,2,7.1
		C430.9,336.4,431.6,334.4,431.6,329.3z"/>
	<path class="st0" d="M441.6,313.5h7.7v4c0.9-2.9,2.2-4.6,4.6-4.4v9.4h-0.2c-3,0-4.3,2-4.3,6v14.1h-7.7V313.5z"/>
	<path class="st0" d="M455.7,304.4h7.8v6.9h-7.8V304.4z M455.7,313.5h7.7v29.2h-7.7V313.5z"/>
	<path class="st0" d="M465.7,329v-1.7c0-9.3,4.1-14.4,9.6-14.4s9,5.1,9,14.7v3.9h-11c0.4,3.5,2,4.7,4.2,4.7c2,0,3.8-0.9,5.7-2.1
		l0.5,7c-2.1,1.3-4.5,2.3-7.4,2.3C470.2,343.4,465.7,338.4,465.7,329z M477.2,326.1c0-4.6-0.6-6.4-1.9-6.4c-1.2,0-2,1.4-2.1,6.4
		H477.2z"/>
	<path class="st0" d="M485.9,341.7v-7.5c2.3,1.3,4.4,2.2,5.9,2.2c1.2,0,1.8-0.7,1.8-1.7v-0.1c0-0.9-0.4-1.6-2.6-3.6
		c-3-2.7-5.4-5.1-5.4-9.6v-0.1c0-5.2,3.5-8.3,8.6-8.3c2.1,0,3.8,0.3,5.6,1v7.6c-1.7-0.9-3.5-1.6-5-1.6c-1.2,0-1.8,0.6-1.8,1.5v0.1
		c0,0.9,0.7,1.5,2.8,3.5c3.2,2.9,5.2,5.2,5.2,9.6v0.1c0,5.2-3.7,8.7-8.4,8.7C490.3,343.3,487.9,342.7,485.9,341.7z"/>
</g>
<g>
	<path class="st0" d="M331.5,386.5c-1.2,0.8-2.5,1.2-4.1,1.2c-3.8,0-7.6-2.4-7.6-11.2v-1.3c0-8.7,4.1-13.3,9.4-13.3
		c2.4,0,4.4,0.7,6,2.3c2.6,2.6,3.9,7.8,3.9,16v1.1c0,15.6-5.4,19.6-11.9,19.6c-2.1,0-4-0.4-5.5-1v-7.3c1.4,0.6,3.1,1.2,4.9,1.2
		C329.4,393.9,331.2,392,331.5,386.5z M331.5,380.8v-5.3c0-5-0.9-6.6-2.2-6.6c-1.3,0-2.1,1.4-2.1,6.1v1.3c0,4.1,1,5.2,2.4,5.2
		C330.3,381.5,331,381.2,331.5,380.8z"/>
	<path class="st0" d="M341.3,400v-7.8c1.4,0.7,3,1.1,4.8,1.1c2.7,0,4.5-2,4.5-5.3v-0.3c0-3.2-1.5-4.5-3.4-4.5c-1,0-1.6,0.1-2.4,0.4
		l-3.7-2.2l1-18.8h15v7.7H348l-0.4,6c0.4-0.1,1-0.1,1.7-0.1c4.9,0,9.2,3,9.2,11.3v0.4c0,8.6-4.7,13.1-11.5,13.1
		C344.8,401,342.7,400.6,341.3,400z"/>
	<path class="st0" d="M360.2,373.4v-1c0-6.7,2.4-10.1,6.1-10.1s6.2,3.4,6.2,10.1v1c0,6.6-2.5,10-6.2,10
		C362.6,383.4,360.2,380,360.2,373.4z M381.1,362.7h4.2l-9.1,19.3l-8.4,18.5h-4.2l9-19.3L381.1,362.7z M364.9,372v1.7
		c0,3.8,0.4,4.9,1.4,4.9s1.4-1.1,1.4-4.9V372c0-3.8-0.5-5-1.4-5S364.9,368.2,364.9,372z M376.3,390.7v-1c0-6.6,2.5-10.1,6.1-10.1
		c3.7,0,6.2,3.4,6.2,10.1v1c0,6.6-2.5,10.1-6.2,10.1S376.3,397.4,376.3,390.7z M383.9,391.1v-1.7c0-3.8-0.5-5-1.4-5s-1.4,1.1-1.4,5
		v1.7c0,3.8,0.4,4.9,1.4,4.9S383.9,394.9,383.9,391.1z"/>
</g>
<g>
	<path class="st0" d="M254.4,320.5h2.5c3.9,0,6.8,3.6,6.8,10.5v0.6c0,6.9-2.8,10.5-6.8,10.5h-2.5V320.5z M255.7,321.7v19.1h1.2
		c3.2,0,5.4-3.2,5.4-9.2V331c0-6.1-2.3-9.2-5.5-9.2H255.7z"/>
	<path class="st0" d="M265.7,334.2V334c0-5.6,2-8.3,4.3-8.3c2.4,0,4.1,2.9,4.1,7.9v1H267c0.1,4.4,1.8,6.5,4,6.5c1,0,1.7-0.2,2.7-1
		l0.2,1.3c-1.1,0.6-1.8,0.9-3.1,0.9C268.1,342.2,265.7,339.6,265.7,334.2z M272.9,333.3c0-3.7-1.2-6.5-2.9-6.5c-1.7,0-3,2.2-3.1,6.5
		H272.9z"/>
	<path class="st0" d="M276.8,325.9h1.3v2.4c0.6-1.5,1.8-2.7,3.7-2.6v1.4h-0.1c-2,0-3.6,1.3-3.6,4.1V342h-1.3V325.9z"/>
	<path class="st0" d="M282.8,341.2l5.8-14.2h-5.5v-1.1h6.8v0.8l-5.8,14.2h5.6v1.1h-7V341.2z"/>
	<path class="st0" d="M291.4,334.2V334c0-5.6,2-8.3,4.3-8.3c2.4,0,4.1,2.9,4.1,7.9v1h-7.2c0.1,4.4,1.8,6.5,3.9,6.5
		c1,0,1.7-0.2,2.7-1l0.2,1.3c-1.1,0.6-1.8,0.9-3.1,0.9C293.8,342.2,291.4,339.6,291.4,334.2z M298.6,333.3c0-3.7-1.2-6.5-2.9-6.5
		c-1.7,0-3,2.2-3.1,6.5H298.6z"/>
	<path class="st0" d="M302.6,320.3h1.4v2.2h-1.4V320.3z M302.7,325.9h1.3V342h-1.3V325.9z"/>
	<path class="st0" d="M307.8,339.3v-12.2h-1.5v-1.2h1.5v-4.5h1.3v4.5h2.6v1.2h-2.6v12c0,1.4,0.6,1.8,1.7,1.8c0.3,0,0.7-0.1,1-0.2
		v1.2c-0.3,0.1-0.8,0.2-1.1,0.2C308.9,342.1,307.8,341.4,307.8,339.3z"/>
</g>
<g>
	<path class="st0" d="M511.9,337.3v-0.2c0-3,1.5-5.2,4.2-5.2c1.1,0,1.9,0.3,2.7,0.6v-2c0-2.2-1-3.6-3-3.6c-1.1,0-2,0.2-2.9,0.7v-1.3
		c0.9-0.4,1.9-0.7,3-0.7c1.3,0,2.3,0.4,3.1,1.2c0.7,0.7,1.1,1.9,1.1,3.5V342h-1.3v-2.3c-0.6,1.6-1.7,2.6-3.2,2.6
		C513.4,342.3,511.9,340.2,511.9,337.3z M518.7,337v-3.2c-0.8-0.4-1.7-0.6-2.6-0.6c-2,0-3,1.7-3,3.9v0.2c0,2.2,0.9,3.9,2.5,3.9
		C517.6,341.1,518.7,339.1,518.7,337z"/>
	<path class="st0" d="M523.1,325.9h1.3v2.4c0.5-1.4,1.5-2.6,3.2-2.6c1.7,0,2.6,1.2,3.1,2.7c0.6-1.3,1.6-2.7,3.5-2.7
		c2.2,0,3.6,1.8,3.6,5V342h-1.3v-11.2c0-2.7-0.9-4.1-2.5-4.1c-1.6,0-2.9,1.7-2.9,4.3v11h-1.3v-11.2c0-2.7-0.9-4.1-2.5-4.1
		c-1.6,0-2.9,1.7-2.9,4.3v11h-1.3V325.9z"/>
	<path class="st0" d="M548,321.7h-3.4v-1.2h8.2v1.2h-3.4V342H548V321.7z"/>
	<path class="st0" d="M552.9,337.3v-0.2c0-3,1.5-5.2,4.2-5.2c1.1,0,1.9,0.3,2.7,0.6v-2c0-2.2-1-3.6-3-3.6c-1.1,0-2,0.2-2.9,0.7v-1.3
		c0.9-0.4,1.9-0.7,3-0.7c1.3,0,2.3,0.4,3.1,1.2c0.7,0.7,1.1,1.9,1.1,3.5V342h-1.3v-2.3c-0.6,1.6-1.7,2.6-3.2,2.6
		C554.4,342.3,552.9,340.2,552.9,337.3z M559.7,337v-3.2c-0.8-0.4-1.7-0.6-2.6-0.6c-2,0-3,1.7-3,3.9v0.2c0,2.2,0.9,3.9,2.5,3.9
		C558.6,341.1,559.7,339.1,559.7,337z"/>
	<path class="st0" d="M564.1,345.4v-1.3c1.1,0.5,2.5,0.8,3.5,0.8c2.1,0,3.3-1,3.3-3.3v-3.8c-0.6,1.8-1.7,3.3-3.3,3.3
		c-2.1,0-4.1-2.7-4.1-7.6v-0.3c0-4.9,2-7.6,4.1-7.6c1.6,0,2.7,1.5,3.3,3.3v-3.1h1.3v15.7c0,1.5-0.4,2.6-1.1,3.3
		c-0.8,0.8-2,1.2-3.5,1.2C566.5,346.1,565.2,345.8,564.1,345.4z M571,333.5v-0.3c0-4.1-1.7-6.5-3.2-6.5c-1.6,0-3,2.3-3,6.5v0.2
		c0,4.2,1.4,6.5,3,6.5C569.3,340,571,337.6,571,333.5z"/>
</g>
<g>
	<path class="st0" d="M397.3,378.9h2.5c3.9,0,6.8,3.6,6.8,10.5v0.6c0,6.9-2.8,10.5-6.8,10.5h-2.5V378.9z M398.6,380.2v19.1h1.2
		c3.2,0,5.4-3.2,5.4-9.2v-0.6c0-6.1-2.3-9.2-5.5-9.2H398.6z"/>
	<path class="st0" d="M409.1,395.6v-11.3h1.3v11.2c0,2.7,0.9,4.1,2.6,4.1c1.7,0,3-1.8,3-4.4v-10.9h1.3v16.1H416v-2.4
		c-0.5,1.4-1.5,2.6-3.3,2.6C410.6,400.7,409.1,398.9,409.1,395.6z"/>
	<path class="st0" d="M420.5,384.3h1.3v2.4c0.6-1.5,1.8-2.7,3.7-2.6v1.4h-0.1c-2,0-3.6,1.3-3.6,4.1v10.8h-1.3V384.3z"/>
	<path class="st0" d="M426.3,392.6v-0.3c0-5.6,2.4-8.2,4.8-8.2c0.8,0,1.4,0.2,1.9,0.6v1.4c-0.5-0.4-1.2-0.7-1.9-0.7
		c-1.6,0-3.5,2.1-3.5,6.9v0.4c0,4.9,1.8,6.8,3.6,6.8c0.7,0,1.3-0.3,1.8-0.7v1.4c-0.5,0.4-1.1,0.6-1.9,0.6
		C428.6,400.7,426.3,398.2,426.3,392.6z"/>
	<path class="st0" d="M435.4,378.7h1.3v8c0.5-1.4,1.5-2.6,3.3-2.6c2.1,0,3.6,1.8,3.6,5.1v11.3h-1.3v-11.2c0-2.7-0.9-4.1-2.6-4.1
		c-1.7,0-3,1.8-3,4.4v10.9h-1.3V378.7z"/>
	<path class="st0" d="M445.8,399.9v-1.4c1.1,0.6,2.2,0.9,3.2,0.9c1.3,0,2.4-0.9,2.4-2.4V397c0-1.1-0.6-2.3-2.5-4.1
		c-2.4-2.3-3.1-3.5-3.1-5.2v-0.1c0-2.2,1.7-3.5,3.6-3.5c1.1,0,1.8,0.2,2.6,0.5v1.4c-0.9-0.5-1.7-0.7-2.7-0.7c-1.3,0-2.3,0.9-2.3,2.3
		v0.1c0,1.2,0.6,2.1,2.5,4c2.2,2.2,3.1,3.6,3.1,5.3v0.1c0,2.3-1.8,3.7-3.7,3.7C447.7,400.6,446.8,400.4,445.8,399.9z"/>
	<path class="st0" d="M454.4,392.6v-0.3c0-5.6,2.4-8.2,4.8-8.2c0.8,0,1.4,0.2,1.9,0.6v1.4c-0.5-0.4-1.2-0.7-1.9-0.7
		c-1.6,0-3.5,2.1-3.5,6.9v0.4c0,4.9,1.8,6.8,3.6,6.8c0.7,0,1.3-0.3,1.8-0.7v1.4c-0.5,0.4-1.1,0.6-1.9,0.6
		C456.7,400.7,454.4,398.2,454.4,392.6z"/>
	<path class="st0" d="M463.5,378.7h1.3v8c0.5-1.4,1.5-2.6,3.3-2.6c2.1,0,3.6,1.8,3.6,5.1v11.3h-1.3v-11.2c0-2.7-0.9-4.1-2.6-4.1
		c-1.7,0-3,1.8-3,4.4v10.9h-1.3V378.7z"/>
	<path class="st0" d="M473.9,395.7v-0.2c0-3,1.5-5.2,4.2-5.2c1.1,0,1.9,0.3,2.7,0.6v-2c0-2.2-1-3.6-3-3.6c-1.1,0-2,0.2-2.9,0.7v-1.3
		c0.9-0.4,1.9-0.7,3-0.7c1.3,0,2.3,0.4,3.1,1.2c0.7,0.7,1.1,1.9,1.1,3.5v11.7h-1.3v-2.3c-0.6,1.6-1.7,2.6-3.2,2.6
		C475.4,400.7,473.9,398.6,473.9,395.7z M480.8,395.4v-3.2c-0.8-0.4-1.7-0.6-2.6-0.6c-2,0-3,1.7-3,3.9v0.2c0,2.2,0.9,3.9,2.5,3.9
		C479.6,399.6,480.8,397.5,480.8,395.4z"/>
	<path class="st0" d="M485,395.6v-11.3h1.3v11.2c0,2.7,0.9,4.1,2.6,4.1c1.7,0,3-1.8,3-4.4v-10.9h1.3v16.1h-1.3v-2.4
		c-0.5,1.4-1.5,2.6-3.3,2.6C486.5,400.7,485,398.9,485,395.6z"/>
	<path class="st0" d="M495.9,390.7h5.7v1.2h-5.7V390.7z"/>
	<path class="st0" d="M504.5,378.9h2.6c1.8,0,3.3,0.6,4.4,1.7c1.1,1.1,1.7,2.7,1.7,4.7v0.1c0,3-1.4,5.1-3.6,6l4,9.1H512l-3.8-8.8
		c-0.4,0.1-0.8,0.1-1.2,0.1h-1.2v8.7h-1.3V378.9z M507.1,390.6c2.9,0,4.7-1.9,4.7-5.2v-0.1c0-3.5-1.9-5.1-4.8-5.1h-1.2v10.4H507.1z"
		/>
	<path class="st0" d="M515.2,395.7v-0.2c0-3,1.5-5.2,4.2-5.2c1.1,0,1.9,0.3,2.7,0.6v-2c0-2.2-1-3.6-3-3.6c-1.1,0-2,0.2-2.9,0.7v-1.3
		c0.9-0.4,1.9-0.7,3-0.7c1.3,0,2.3,0.4,3.1,1.2c0.7,0.7,1.1,1.9,1.1,3.5v11.7H522v-2.3c-0.6,1.6-1.7,2.6-3.2,2.6
		C516.7,400.7,515.2,398.6,515.2,395.7z M522,395.4v-3.2c-0.8-0.4-1.7-0.6-2.6-0.6c-2,0-3,1.7-3,3.9v0.2c0,2.2,0.9,3.9,2.5,3.9
		C520.9,399.6,522,397.5,522,395.4z"/>
	<path class="st0" d="M526.7,397.7v-12.2h-1.5v-1.2h1.5v-4.5h1.3v4.5h2.6v1.2h-2.6v12c0,1.4,0.6,1.8,1.7,1.8c0.3,0,0.7-0.1,1-0.2
		v1.2c-0.3,0.1-0.8,0.2-1.1,0.2C527.8,400.6,526.7,399.8,526.7,397.7z"/>
	<path class="st0" d="M532,392.7v-0.3c0-5.6,2-8.3,4.3-8.3c2.4,0,4.1,2.9,4.1,7.9v1h-7.2c0.1,4.4,1.8,6.5,3.9,6.5c1,0,1.7-0.2,2.7-1
		l0.2,1.3c-1.1,0.6-1.8,0.9-3.1,0.9C534.4,400.7,532,398,532,392.7z M539.3,391.8c0-3.7-1.2-6.5-2.9-6.5c-1.7,0-3,2.2-3.1,6.5H539.3
		z"/>
</g>
</svg>
