<?xml version="1.0" encoding="utf-8"?>
<!-- Generator: Adobe Illustrator 19.1.0, SVG Export Plug-In . SVG Version: 6.00 Build 0)  -->
<svg version="1.1" id="Ebene_1" xmlns="http://www.w3.org/2000/svg" xmlns:xlink="http://www.w3.org/1999/xlink" x="0px" y="0px"
	 viewBox="0 0 841.9 595.3" style="enable-background:new 0 0 841.9 595.3;" xml:space="preserve">
<style type="text/css">
	.st0{fill:#FFFFFF;}
	.st1{fill:none;}
</style>
<g>
	<polygon class="st0" points="248.6,68.6 263.4,68.6 263.4,198 248.6,198 248.6,68.6 	"/>
	<g>
		<path class="st0" d="M214.7,68.6h-29.1l0,129.4l29.1,0c3.5,0,6.4-3.1,6.4-7l0-53.3v-2.8c0-4-3.1-7.3-6.8-7.3l0.6,0
			c3.4,0,6.2-3,6.2-6.6v-4.2V75.6C221.1,71.7,218.2,68.6,214.7,68.6z M206.4,181.9h-6.1v-44.7h6.1V181.9z M206.4,121.4h-6.1V84.5
			h6.1V121.4z"/>
		<rect x="200.3" y="84.5" class="st1" width="6.1" height="36.9"/>
		<rect x="200.3" y="137.3" class="st1" width="6.1" height="44.7"/>
	</g>
	<g>
		<path class="st0" d="M290.5,68.6v22.5h-14.4c-3.5,0-6.4,3.1-6.4,7l0,92.9c0,3.9,2.9,7,6.4,7l29.1,0V68.6H290.5z M290.6,181.9h-6.1
			v-75h6.1V181.9z"/>
		<rect x="284.5" y="106.9" class="st1" width="6.1" height="75"/>
	</g>
	<polygon class="st0" points="227.5,68.6 242.2,68.6 242.2,84.5 227.5,84.5 227.5,68.6 	"/>
	<polygon class="st0" points="227.5,91.1 242.2,91.1 242.2,198 227.5,198 227.5,91.1 	"/>
</g>
<g>
	<path class="st0" d="M363.4,85.7h-9.9V69.4h36.1v16.2h-9.9v63.2h-16.2V85.7z"/>
	<path class="st0" d="M388.3,87.5h15.8l3.7,32l4-32h12.1l3.9,32l3.8-32H447l-10.4,61.6h-14.3l-4.6-29.5l-4.6,29.5h-14.3L388.3,87.5z
		"/>
	<path class="st0" d="M450.2,68.3h16v14.5h-16V68.3z M450.3,87.5H466v61.4h-15.8V87.5z"/>
	<path class="st0" d="M473.4,137.1v-36.3h-3.2V87.5h3.2v-15h15.8v15h6.6v13.3h-6.6V132c0,2.2,1,3.2,3,3.2c1.1,0,2.2-0.3,3.5-0.9
		v13.3c-2.5,1.4-5.9,2.4-9.3,2.4C479.2,149.9,473.4,146.9,473.4,137.1z"/>
	<path class="st0" d="M501.2,137.1v-36.3h-3.2V87.5h3.2v-15h15.8v15h6.6v13.3h-6.6V132c0,2.2,1,3.2,3,3.2c1.1,0,2.2-0.3,3.5-0.9
		v13.3c-2.5,1.4-5.9,2.4-9.3,2.4C507,149.9,501.2,146.9,501.2,137.1z"/>
	<path class="st0" d="M525.5,120v-3.6c0-19.6,8.4-30.3,19.7-30.3c11.2,0,18.4,10.7,18.4,30.9v8.3H541c0.8,7.3,4,9.9,8.5,9.9
		c4,0,7.8-1.8,11.6-4.4l1,14.8c-4.3,2.8-9.2,4.8-15,4.8C534.5,150.2,525.5,139.9,525.5,120z M548.9,113.9c0-9.8-1.3-13.4-3.9-13.4
		c-2.4,0-4,3-4.2,13.4H548.9z"/>
	<path class="st0" d="M567.7,87.5h15.7V96c1.8-6.1,4.5-9.6,9.3-9.3v19.9h-0.3c-6.1,0-8.9,4.2-8.9,12.7v29.6h-15.8V87.5z"/>
</g>
<g>
	<path class="st0" d="M312.4,142.1v-0.6c0-4.6,2.3-6.5,5.3-6.5c1.2,0,2.2,0.3,3.1,0.8V135c0-1.9-1-2.8-3.1-2.8c-1.4,0-3.1,0.5-4.2,1
		v-5.1c1.7-0.6,3.5-0.9,5.6-0.9c2.6,0,4.5,0.6,5.7,1.7c1.4,1.2,2.1,3.2,2.1,5.7v13.3h-6.2v-1.9c-0.9,1.5-2.2,2.3-3.9,2.3
		C314.3,148.2,312.4,146,312.4,142.1z M320.9,142.3v-3.1c-0.3-0.2-0.9-0.3-1.4-0.3c-0.9,0-1.4,0.8-1.4,2.3v0.8
		c0,1.6,0.6,2.2,1.4,2.2C320.1,144.1,320.9,143.5,320.9,142.3z"/>
	<path class="st0" d="M328.9,143.1v-15.7h6.2v14.2c0,1.1,0.5,1.7,1.3,1.7c0.8,0,1.3-0.6,1.3-1.7v-14.2h6.2v20.4h-6.2v-2.3
		c-0.8,1.4-2.1,2.8-4.3,2.8C330.4,148.3,328.9,146.1,328.9,143.1z"/>
	<path class="st0" d="M346.7,131.8h-1.3v-4.4h1.3v-0.9c0-1.9,0.6-3.2,1.6-4.2c1.1-0.9,2.6-1.4,4.6-1.4c1.2,0,1.9,0.1,2.6,0.2v4.3
		c-0.2,0-0.6-0.1-0.9-0.1c-1.1,0-1.8,0.5-1.8,1.5v0.5h2.7v4.4h-2.6v16h-6.2V131.8z"/>
</g>
<g>
	<path class="st0" d="M314.6,306.3v-1.4c0-14,5.7-23.8,12.8-29.1c-7.1-5.5-11.5-14.3-11.5-25.4v-1.2c0-19.1,12.2-31.9,28.7-31.9
		c16.5,0,28.7,12.6,28.7,31.7v1.2c0,10.9-4.4,19.9-11.7,25.4c7.3,5.3,13,15,13,29.1v1.4c0,21.5-12.2,34.9-30.2,34.9
		C326.6,341,314.6,327.7,314.6,306.3z M351.4,304.4v-1.5c0-12.1-2.8-16.5-6.8-16.5c-4.1,0-7,4.4-7,16.5v1.5c0,12.4,3.1,16.4,7,16.4
		S351.4,316.8,351.4,304.4z M350.9,252.9v-1.2c0-11.1-2.8-14.5-6.3-14.5c-3.6,0-6.3,3.4-6.3,14.5v1.2c0,10.2,2.4,14.7,6.3,14.7
		C348.3,267.6,350.9,263.2,350.9,252.9z"/>
	<path class="st0" d="M380,337.4v-24.7c4.2,2.2,9.1,3.6,14.6,3.6c8.3,0,13.8-6.3,13.8-16.9v-0.9c0-10.2-4.5-14.1-10.5-14.1
		c-2.9,0-4.9,0.3-7.3,1.4l-11.2-6.8l2.9-59.5h45.9v24.2h-27.7l-1.1,18.9c1.3-0.2,3.1-0.3,5.2-0.3c14.9,0,28.1,9.4,28.1,35.6v1.4
		c0,27.1-14.4,41.4-35.2,41.4C390.7,340.7,384.2,339.3,380,337.4z"/>
</g>
<g>
	<path class="st0" d="M321,379.8l-6,1.9v-12.8l9.6-3.2h8.9v61.7H321V379.8z"/>
	<path class="st0" d="M351.2,366h12.1l6.9,20.5l6.8-20.5h12.2v61.4h-12.1v-32.9l-6.8,20.1h-0.2l-6.9-20.1v32.9h-12V366z"/>
	<path class="st0" d="M393.7,365.1h12.4v11.2h-12.4V365.1z M393.8,379.9H406v47.5h-12.2V379.9z"/>
	<path class="st0" d="M409.7,405.6v-3.7c0-15.1,6.3-23,15.5-23c9,0,15.3,7.9,15.3,23v3.7c0,15.1-6.3,23-15.4,23
		C416,428.5,409.7,420.7,409.7,405.6z M428.3,405.6v-3.9c0-8.2-1.1-11.5-3.3-11.5c-2.2,0-3.2,3.2-3.2,11.5v3.9
		c0,8.2,1,11.5,3.2,11.5C427.2,417.1,428.3,413.9,428.3,405.6z"/>
	<path class="st0" d="M443.9,413.2h13.4v14.2h-13.4V413.2z"/>
</g>
<g>
	<path class="st0" d="M467.4,399.3h11.5v5.9h-5.6v5.7h4.9v5.8h-4.9v11.6h-5.9V399.3z"/>
	<path class="st0" d="M479.6,418v-1.7c0-7.1,3-10.9,7.3-10.9c4.3,0,7.2,3.7,7.2,10.9v1.7c0,7.1-3,10.9-7.3,10.9
		C482.6,428.9,479.6,425.2,479.6,418z M488.4,418.1v-1.9c0-3.9-0.5-5.4-1.5-5.4c-1,0-1.5,1.5-1.5,5.4v1.9c0,3.9,0.5,5.4,1.5,5.4
		C487.9,423.5,488.4,422,488.4,418.1z"/>
	<path class="st0" d="M495.9,398.9h5.8v29.5h-5.8V398.9z"/>
	<path class="st0" d="M503.8,398.9h5.8v29.5h-5.8V398.9z"/>
	<path class="st0" d="M511.3,418v-1.7c0-7.1,3-10.9,7.3-10.9c4.3,0,7.2,3.7,7.2,10.9v1.7c0,7.1-3,10.9-7.3,10.9
		C514.3,428.9,511.3,425.2,511.3,418z M520.1,418.1v-1.9c0-3.9-0.5-5.4-1.5-5.4s-1.5,1.5-1.5,5.4v1.9c0,3.9,0.5,5.4,1.5,5.4
		S520.1,422,520.1,418.1z"/>
	<path class="st0" d="M526.1,405.9h5.8l1.3,11.7l1.5-11.7h4.4l1.4,11.7l1.4-11.7h5.7l-3.8,22.6h-5.2l-1.7-10.8l-1.7,10.8H530
		L526.1,405.9z"/>
	<path class="st0" d="M547.8,417.8v-1.3c0-7.2,3.1-11.1,7.2-11.1c4.1,0,6.7,3.9,6.7,11.3v3h-8.2c0.3,2.7,1.5,3.6,3.1,3.6
		c1.5,0,2.8-0.7,4.2-1.6l0.4,5.4c-1.6,1-3.4,1.7-5.5,1.7C551.1,428.9,547.8,425.1,547.8,417.8z M556.4,415.6c0-3.6-0.5-4.9-1.4-4.9
		c-0.9,0-1.5,1.1-1.5,4.9H556.4z"/>
	<path class="st0" d="M563.2,405.9h5.7v3.1c0.7-2.2,1.7-3.5,3.4-3.4v7.3h-0.1c-2.2,0-3.2,1.5-3.2,4.7v10.8h-5.8V405.9z"/>
</g>
<g>
	<path class="st0" d="M248.3,419.7v-20.4h5.9v20.8c0,2.1,0.7,2.9,1.7,2.9c1,0,1.7-0.8,1.7-2.9v-20.8h5.9v20.3c0,6.4-3.3,9.2-7.7,9.2
		C251.5,428.8,248.3,426,248.3,419.7z M250.6,393.6h4.6v4.6h-4.6V393.6z M256.6,393.6h4.6v4.6h-4.6V393.6z"/>
	<path class="st0" d="M271.3,425.8v2.6h-5.8v-29.5h5.8v9.6c0.9-1.6,1.9-3.1,3.9-3.1c2.6,0,4.7,2.3,4.7,10.6v2.2
		c0,8.2-2.2,10.6-4.7,10.6C273.2,428.8,272.2,427.4,271.3,425.8z M274.2,418.3V416c0-3.4-0.4-5-1.4-5c-1,0-1.5,1.6-1.5,5v2.4
		c0,3.4,0.5,5,1.5,5C273.8,423.3,274.2,421.7,274.2,418.3z"/>
	<path class="st0" d="M281.4,417.8v-1.3c0-7.2,3.1-11.1,7.2-11.1c4.1,0,6.7,3.9,6.7,11.3v3h-8.2c0.3,2.7,1.5,3.6,3.1,3.6
		c1.5,0,2.8-0.7,4.2-1.6l0.4,5.4c-1.6,1-3.4,1.7-5.5,1.7C284.7,428.9,281.4,425.1,281.4,417.8z M290,415.6c0-3.6-0.5-4.9-1.4-4.9
		c-0.9,0-1.5,1.1-1.5,4.9H290z"/>
	<path class="st0" d="M296.9,405.9h5.7v3.1c0.7-2.2,1.7-3.5,3.4-3.4v7.3h-0.1c-2.2,0-3.2,1.5-3.2,4.7v10.8h-5.8V405.9z"/>
</g>
<g>
	<path class="st0" d="M440,220h6.4c3.5,0,6.7,0.8,8.7,2.9c1.4,1.4,2.1,3.4,2.1,6v0.4c0,3.9-2.1,6.2-4.3,7.4c2.4,1.3,4.8,3.4,4.8,7.5
		v0.4c0,6.4-4.6,9.6-11.2,9.6H440V220z M450.5,230.3c0-2.5-1.4-3.5-3.4-3.5h-0.3v7.3h0.3C449.1,234,450.5,232.9,450.5,230.3
		L450.5,230.3z M447.2,240h-0.4v7.5h0.4c2.1,0,3.6-1.2,3.6-3.6v-0.2C450.8,241.2,449.3,240,447.2,240z"/>
	<path class="st0" d="M459.6,220h7v34.2h-7V220z"/>
	<path class="st0" d="M469.2,220h7v27.2h6.2v7h-13.2V220z"/>
	<path class="st0" d="M484.2,220h6.5c7.9,0,12.1,5.7,12.1,16.3v1.7c0,10.6-4.2,16.3-12.1,16.3h-6.5V220z M491.2,226.7v20.7
		c2.6,0,4.6-2.1,4.6-9.5v-1.8C495.8,228.7,493.8,226.7,491.2,226.7z"/>
	<path class="st0" d="M505,235.4h12.6v7.1H505V235.4z"/>
	<path class="st0" d="M443.5,269.4h-4.3v-7h15.5v7h-4.3v27.2h-7V269.4z"/>
	<path class="st0" d="M454.2,270.2h6.8l1.6,13.8l1.7-13.8h5.2l1.7,13.8l1.6-13.8h6.7l-4.5,26.5h-6.1l-2-12.7l-2,12.7h-6.1
		L454.2,270.2z"/>
	<path class="st0" d="M480.9,261.9h6.9v6.3h-6.9V261.9z M480.9,270.2h6.8v26.4h-6.8V270.2z"/>
	<path class="st0" d="M490.9,291.5v-15.6h-1.4v-5.7h1.4v-6.5h6.8v6.5h2.8v5.7h-2.8v13.4c0,0.9,0.4,1.4,1.3,1.4
		c0.5,0,0.9-0.1,1.5-0.4v5.7c-1.1,0.6-2.6,1-4,1C493.4,297,490.9,295.8,490.9,291.5z"/>
	<path class="st0" d="M502.8,291.5v-15.6h-1.4v-5.7h1.4v-6.5h6.8v6.5h2.8v5.7h-2.8v13.4c0,0.9,0.4,1.4,1.3,1.4
		c0.5,0,0.9-0.1,1.5-0.4v5.7c-1.1,0.6-2.6,1-4,1C505.4,297,502.8,295.8,502.8,291.5z"/>
	<path class="st0" d="M513.3,284.2v-1.6c0-8.5,3.6-13.1,8.5-13.1c4.8,0,7.9,4.6,7.9,13.3v3.6H520c0.3,3.1,1.7,4.3,3.7,4.3
		c1.7,0,3.4-0.8,5-1.9l0.4,6.4c-1.9,1.2-4,2.1-6.5,2.1C517.2,297.2,513.3,292.7,513.3,284.2z M523.4,281.6c0-4.2-0.6-5.8-1.7-5.8
		c-1,0-1.7,1.3-1.8,5.8H523.4z"/>
	<path class="st0" d="M531.5,270.2h6.7v3.7c0.8-2.6,2-4.2,4-4v8.6h-0.1c-2.6,0-3.8,1.8-3.8,5.5v12.8h-6.8V270.2z"/>
	<path class="st0" d="M543.6,277.8h12.6v7.1h-12.6V277.8z"/>
	<path class="st0" d="M440.1,304.8h7v13l3.9-13h7.3l-5.1,14.5l5.3,19.7H451l-3-12l-1,3.1v8.9h-7V304.8z"/>
	<path class="st0" d="M458.8,331.6v-0.8c0-6,2.5-8.4,5.8-8.4c1.3,0,2.4,0.3,3.4,1v-1c0-2.4-1.1-3.7-3.4-3.7c-1.6,0-3.4,0.7-4.6,1.3
		v-6.6c1.8-0.8,3.9-1.2,6.1-1.2c2.8,0,4.9,0.8,6.3,2.2c1.5,1.6,2.3,4.1,2.3,7.3V339H468v-2.5c-1,1.9-2.4,3-4.2,3
		C460.9,339.5,458.8,336.7,458.8,331.6z M468.1,331.8v-4.1c-0.4-0.2-1-0.4-1.5-0.4c-1,0-1.6,1-1.6,3v1c0,2.1,0.7,2.8,1.5,2.8
		C467.3,334.1,468.1,333.4,468.1,331.8z"/>
	<path class="st0" d="M477,312.6h6.8v3c0.9-1.9,2.3-3.6,4.7-3.6c3.3,0,4.9,2.7,4.9,6.6V339h-6.8v-18.4c0-1.4-0.5-2.2-1.4-2.2
		c-0.8,0-1.4,0.8-1.4,2.2V339H477V312.6z"/>
	<path class="st0" d="M495,331.6v-0.8c0-6,2.5-8.4,5.8-8.4c1.3,0,2.4,0.3,3.4,1v-1c0-2.4-1.1-3.7-3.4-3.7c-1.6,0-3.4,0.7-4.6,1.3
		v-6.6c1.8-0.8,3.9-1.2,6.1-1.2c2.8,0,4.9,0.8,6.3,2.2c1.5,1.6,2.3,4.1,2.3,7.3V339h-6.7v-2.5c-1,1.9-2.4,3-4.2,3
		C497.1,339.5,495,336.7,495,331.6z M497.3,305h5.3v5.6h-5.3V305z M504.3,331.8v-4.1c-0.4-0.2-1-0.4-1.5-0.4c-1,0-1.6,1-1.6,3v1
		c0,2.1,0.7,2.8,1.5,2.8C503.5,334.1,504.3,333.4,504.3,331.8z M503.9,305h5.3v5.6h-5.3V305z"/>
	<path class="st0" d="M513.3,304.3h6.8V339h-6.8V304.3z"/>
	<path class="st0" d="M522.1,326.6V325c0-8.5,3.6-13.1,8.5-13.1c4.8,0,7.9,4.6,7.9,13.3v3.6h-9.7c0.3,3.1,1.7,4.3,3.7,4.3
		c1.7,0,3.4-0.8,5-1.9l0.4,6.4c-1.9,1.2-4,2.1-6.5,2.1C526,339.6,522.1,335.1,522.1,326.6z M532.2,323.9c0-4.2-0.6-5.8-1.7-5.8
		c-1,0-1.7,1.3-1.8,5.8H532.2z"/>
</g>
<g>
	<path class="st0" d="M315.2,534.6v-9c1.9,0.8,3.5,1.2,5.8,1.2c2.9,0,4.9-2,4.9-5.1v-0.3c0-3.7-2.8-5.5-7.7-5.8v-6.2l6.8-9.5h-9.3
		v-9.1h18.8v8.4l-7.4,10.2c4.3,1.5,7.6,4.5,7.6,11.7v0.6c0,8.9-5.2,14.3-12.4,14.3C319.3,535.9,317.2,535.5,315.2,534.6z"/>
	<path class="st0" d="M336.6,523.1v-0.5c0-5.2,2.1-8.9,4.8-10.9c-2.7-2-4.3-5.3-4.3-9.5v-0.4c0-7.1,4.5-11.9,10.7-11.9
		c6.2,0,10.7,4.7,10.7,11.8v0.4c0,4.1-1.6,7.4-4.4,9.5c2.7,2,4.8,5.6,4.8,10.9v0.5c0,8-4.5,13-11.2,13
		C341,536,336.6,531.1,336.6,523.1z M350.3,522.4v-0.6c0-4.5-1-6.2-2.5-6.2c-1.5,0-2.6,1.6-2.6,6.2v0.6c0,4.6,1.1,6.1,2.6,6.1
		C349.2,528.5,350.3,527,350.3,522.4z M350.1,503.2v-0.4c0-4.1-1-5.4-2.4-5.4c-1.3,0-2.4,1.3-2.4,5.4v0.4c0,3.8,0.9,5.5,2.4,5.5
		C349.1,508.7,350.1,507,350.1,503.2z"/>
	<path class="st0" d="M364.9,500.7l-4.4,1.4v-9.3l6.9-2.3h6.5v44.6h-9.1V500.7z"/>
</g>
<g>
	<path class="st0" d="M382.1,490.8h3.2c1.6,0,3,0.5,4,1.5c0.9,1,1.5,2.4,1.5,4.4v0.2c0,2.4-0.9,3.9-2.1,4.8l2.4,7.5h-3.3l-2-6.4
		h-0.6v6.4h-3.1V490.8z M385.3,499.9c1.3,0,2.3-0.8,2.3-3v-0.2c0-2.3-1.1-2.9-2.4-2.9h-0.1v6.1H385.3z"/>
	<path class="st0" d="M391.5,502.6v-0.7c0-4.5,1.9-7,4.1-7c2.3,0,3.8,2.4,3.8,7.1v1.6h-4.9c0.2,2.2,1.1,3,2,3c0.9,0,1.5-0.4,2.4-1
		l0.2,2.8c-1,0.7-1.8,1.1-3,1.1C393.6,509.5,391.5,507.1,391.5,502.6z M396.6,501.2c0-2.4-0.3-3.5-1-3.5c-0.7,0-1.1,1-1.2,3.5H396.6
		z"/>
	<path class="st0" d="M400.6,495.1h3v1.8c0.4-0.8,1.1-2,2.4-2c1.6,0,2.9,1.6,2.9,6.7v1.3c0,5-1.3,6.7-2.9,6.7c-1.3,0-1.9-1.1-2.4-2
		v5.1h-3V495.1z M405.8,502.7v-0.9c0-2.5-0.4-3.9-1.1-3.9c-0.8,0-1.2,1.3-1.2,3.9v0.9c0,2.5,0.4,3.9,1.2,3.9
		C405.4,506.6,405.8,505.2,405.8,502.7z"/>
	<path class="st0" d="M409.9,502.7v-0.8c0-4.5,1.8-6.9,4.2-6.9c2.4,0,4.2,2.3,4.2,6.9v0.8c0,4.5-1.8,6.9-4.2,6.9
		C411.7,509.5,409.9,507.2,409.9,502.7z M415.3,502.7v-0.9c0-2.8-0.5-4.1-1.2-4.1c-0.8,0-1.2,1.3-1.2,4.1v0.9c0,2.7,0.5,4.1,1.2,4.1
		C414.9,506.8,415.3,505.4,415.3,502.7z"/>
	<path class="st0" d="M419.7,495.1h3v1.8c0.4-1.2,1-2,2.2-1.9v3.7h-0.1c-1.4,0-2.1,1-2.1,3v7.5h-3V495.1z"/>
	<path class="st0" d="M426.3,506.8v-9.2h-0.8v-2.5h0.8v-3.6h3v3.6h1.6v2.5h-1.6v8.1c0,0.6,0.3,0.9,0.8,0.9c0.2,0,0.5-0.1,0.7-0.2
		v2.5c-0.5,0.3-1.2,0.5-1.8,0.5C427.7,509.4,426.3,509,426.3,506.8z"/>
	<path class="st0" d="M431.5,502.6v-0.7c0-4.5,1.9-7,4.1-7c2.3,0,3.8,2.4,3.8,7.1v1.6h-4.9c0.2,2.2,1.1,3,2,3c0.9,0,1.5-0.4,2.4-1
		l0.2,2.8c-1,0.7-1.8,1.1-3,1.1C433.6,509.5,431.5,507.1,431.5,502.6z M436.6,501.2c0-2.4-0.3-3.5-1-3.5c-0.7,0-1.1,1-1.2,3.5H436.6
		z"/>
	<path class="st0" d="M440.6,495.1h3v1.8c0.4-1.2,1-2,2.2-1.9v3.7h-0.1c-1.4,0-2.1,1-2.1,3v7.5h-3V495.1z"/>
	<path class="st0" d="M381.8,531.4v-0.3c0-2.7,1.3-4.5,3.3-4.5c0.8,0,1.5,0.2,2.1,0.5v-1.5c0-1.8-0.8-2.8-2.4-2.8
		c-0.9,0-1.6,0.2-2.4,0.6v-1.6c0.8-0.4,1.7-0.6,2.6-0.6c1.2,0,2,0.3,2.7,1c0.6,0.7,1,1.8,1,3.2v9.9h-1.6v-1.9
		c-0.5,1.3-1.3,2.1-2.5,2.1C383,535.6,381.8,533.8,381.8,531.4z M387.3,531.2v-2.7c-0.6-0.3-1.2-0.5-1.8-0.5c-1.4,0-2.1,1.2-2.1,3
		v0.3c0,1.7,0.7,2.9,1.8,2.9C386.4,534.2,387.3,532.8,387.3,531.2z"/>
	<path class="st0" d="M391,531.4v-10h1.6v9.7c0,1.9,0.7,3,1.9,3c1.2,0,2.1-1.3,2.1-3.2v-9.5h1.6v13.9h-1.6v-1.9
		c-0.5,1.1-1.3,2.2-2.6,2.2C392.1,535.6,391,534.1,391,531.4z"/>
	<path class="st0" d="M400.9,522.9h-1.2v-1.4h1.2V520c0-1.2,0.3-2,0.8-2.6c0.5-0.5,1.2-0.7,2-0.7c0.3,0,0.7,0,0.9,0.1v1.5
		c-0.2-0.1-0.5-0.1-0.7-0.1c-0.9,0-1.4,0.6-1.4,1.9v1.3h2v1.4h-2v12.5h-1.6V522.9z"/>
	<path class="st0" d="M411.8,518.5h-2.7v-1.6h7v1.6h-2.7v16.8h-1.6V518.5z"/>
	<path class="st0" d="M416.2,521.5h1.6l1.8,11l2-11h1.3l1.9,11l1.9-11h1.6l-2.6,14h-1.5l-2-10.6l-1.9,10.6h-1.5L416.2,521.5z"/>
	<path class="st0" d="M430.1,516.8h1.7v2.2h-1.7V516.8z M430.2,521.5h1.6v13.9h-1.6V521.5z"/>
	<path class="st0" d="M434.6,533v-10.1h-1.1v-1.4h1.1v-3.8h1.6v3.8h2v1.4h-2v9.7c0,1.1,0.5,1.3,1.2,1.3c0.2,0,0.6-0.1,0.8-0.1v1.4
		c-0.3,0.1-0.8,0.2-1.1,0.2C435.7,535.5,434.6,534.9,434.6,533z"/>
	<path class="st0" d="M440.3,533v-10.1h-1.1v-1.4h1.1v-3.8h1.6v3.8h2v1.4h-2v9.7c0,1.1,0.5,1.3,1.2,1.3c0.2,0,0.6-0.1,0.8-0.1v1.4
		c-0.3,0.1-0.8,0.2-1.1,0.2C441.3,535.5,440.3,534.9,440.3,533z"/>
	<path class="st0" d="M444.9,528.7v-0.4c0-4.7,1.7-7.1,3.7-7.1c2.1,0,3.5,2.5,3.5,6.8v1.1h-5.7c0.1,3.3,1.4,4.9,3,4.9
		c0.8,0,1.4-0.3,2.3-0.9l0.1,1.6c-1,0.6-1.6,0.8-2.7,0.8C447,535.6,444.9,533.3,444.9,528.7z M450.7,527.8c0-3-0.8-5-2-5
		c-1.2,0-2.1,1.7-2.2,5H450.7z"/>
	<path class="st0" d="M454.2,521.5h1.6v1.9c0.5-1.2,1.4-2.2,2.8-2.1v1.9h0c-1.6,0-2.8,1.1-2.8,3.4v8.8h-1.6V521.5z"/>
</g>
<g>
	<path class="st0" d="M322.6,440.7h1.8l5.7,27.5h-1.7l-1.5-7.7h-6.8l-1.5,7.7h-1.6L322.6,440.7z M326.6,459l-3.1-15.6l-3.1,15.6
		H326.6z"/>
	<path class="st0" d="M332.3,461.2v-20.3h1.6v20.4c0,3.7,1.5,5.8,4,5.8c2.5,0,4-2.1,4-5.8v-20.4h1.6v20.3c0,4.5-2.2,7.4-5.7,7.4
		C334.5,468.6,332.3,465.7,332.3,461.2z"/>
	<path class="st0" d="M347.6,440.9h8.5v1.6h-6.9V454h6.3v1.6h-6.3v12.6h-1.6V440.9z"/>
	<path class="st0" d="M365.2,440.9h3.1c4.8,0,8.3,4.6,8.3,13.3v0.7c0,8.8-3.5,13.3-8.3,13.3h-3.1V440.9z M366.8,442.4v24.3h1.5
		c3.9,0,6.7-4,6.7-11.8v-0.7c0-7.7-2.9-11.8-6.7-11.8H366.8z"/>
	<path class="st0" d="M380.1,440.9h8.9v1.6h-7.2v11.2h6.6v1.6h-6.6v11.5h7.3v1.6h-9V440.9z"/>
	<path class="st0" d="M392.2,440.9h2l4.8,15.3l4.8-15.3h2v27.4h-1.6v-23.6l-5.2,15.9h-0.1l-5.2-15.9v23.6h-1.6V440.9z"/>
	<path class="st0" d="M416.1,440.9h1.6v12.8h8v-12.8h1.6v27.4h-1.6v-13h-8v13h-1.6V440.9z"/>
	<path class="st0" d="M436.3,440.7h1.8l5.7,27.5h-1.7l-1.5-7.7h-6.8l-1.5,7.7h-1.6L436.3,440.7z M440.2,459l-3.1-15.6l-3.1,15.6
		H440.2z"/>
	<path class="st0" d="M446,461.2v-20.3h1.6v20.4c0,3.7,1.5,5.8,4,5.8c2.5,0,4-2.1,4-5.8v-20.4h1.6v20.3c0,4.5-2.2,7.4-5.7,7.4
		C448.2,468.6,446,465.7,446,461.2z"/>
	<path class="st0" d="M461.3,440.9h3.2c4.6,0,7.5,3.3,7.5,8.5v0.1c0,5.2-2.7,8.7-7.6,8.7H463v10.1h-1.6V440.9z M464.6,456.6
		c3.8,0,5.8-2.7,5.8-7.1v-0.1c0-4.5-2.3-7-5.9-7H463v14.2H464.6z"/>
	<path class="st0" d="M476.9,442.4h-4.2v-1.6h10.1v1.6h-4.2v25.8h-1.6V442.4z"/>
	<path class="st0" d="M488.3,440.7h1.8l5.7,27.5h-1.7l-1.5-7.7h-6.8l-1.5,7.7h-1.6L488.3,440.7z M492.3,459l-3.1-15.6l-3.1,15.6
		H492.3z"/>
	<path class="st0" d="M497.1,454.9v-0.7c0-9.1,3.2-13.6,7-13.6c1.2,0,1.8,0.2,2.5,0.7v1.8c-1-0.6-1.7-0.9-2.5-0.9
		c-2.9,0-5.3,4.1-5.3,11.9v0.7c0,7.8,2.4,11.9,5.3,11.9c0.9,0,1.7-0.3,2.6-0.9v1.8c-0.7,0.5-1.6,0.8-2.7,0.8
		C500.2,468.5,497.1,464,497.1,454.9z"/>
	<path class="st0" d="M508.5,454.9v-0.7c0-9.1,3.2-13.6,7-13.6c1.2,0,1.8,0.2,2.5,0.7v1.8c-1-0.6-1.7-0.9-2.5-0.9
		c-2.9,0-5.3,4.1-5.3,11.9v0.7c0,7.8,2.4,11.9,5.3,11.9c0.9,0,1.7-0.3,2.6-0.9v1.8c-0.7,0.5-1.6,0.8-2.7,0.8
		C511.5,468.5,508.5,464,508.5,454.9z"/>
	<path class="st0" d="M519.8,454.9v-0.6c0-9,2.6-13.7,6.2-13.7c3.5,0,6.2,4.7,6.2,13.7v0.6c0,9-2.6,13.7-6.2,13.7
		C522.4,468.6,519.8,463.9,519.8,454.9z M530.5,454.9v-0.6c0-8-2-12.1-4.5-12.1s-4.5,4.1-4.5,12.1v0.6c0,8,2,12.1,4.5,12.1
		S530.5,462.8,530.5,454.9z"/>
	<path class="st0" d="M535.5,461.2v-20.3h1.6v20.4c0,3.7,1.5,5.8,4,5.8c2.5,0,4-2.1,4-5.8v-20.4h1.6v20.3c0,4.5-2.2,7.4-5.7,7.4
		C537.6,468.6,535.5,465.7,535.5,461.2z"/>
	<path class="st0" d="M550.8,440.9h1.8l8.1,23v-23h1.6v27.4h-1.6l-8.3-23.5v23.5h-1.6V440.9z"/>
	<path class="st0" d="M569,442.4h-4.2v-1.6h10.1v1.6h-4.2v25.8H569V442.4z"/>
</g>
<rect x="313.8" y="177.8" class="st0" width="282.4" height="20.2"/>
<g>
	<path class="st0" d="M314.5,168.9l1.9-1.9c0.9,1,1.8,1.6,3,1.6c1,0,1.8-0.6,1.8-1.6v0c0-1.1-0.9-1.7-2.5-1.7h-1.2l-0.4-1.9l3-3.2
		h-4.9v-2.5h8.5v2.2l-3.2,3.2c1.7,0.3,3.4,1.2,3.4,3.7v0c0,2.5-1.7,4.3-4.5,4.3C317.1,171.2,315.6,170.2,314.5,168.9z"/>
	<path class="st0" d="M325.9,164.4L325.9,164.4c0-3.9,2.3-6.9,5.6-6.9c3.3,0,5.6,3,5.6,6.8v0c0,3.8-2.2,6.8-5.6,6.8
		C328.2,171.2,325.9,168.2,325.9,164.4z M334.3,164.4L334.3,164.4c0-2.4-1.1-4.3-2.8-4.3s-2.7,1.8-2.7,4.2v0c0,2.4,1.1,4.2,2.8,4.2
		C333.2,168.5,334.3,166.8,334.3,164.4z"/>
	<path class="st0" d="M344.8,160.2h-5.9v-2.5h9.1v2.2l-5.6,11h-3.1L344.8,160.2z"/>
	<path class="st0" d="M355.7,157.7h3l3.3,5.6l3.3-5.6h3v13.2h-2.8v-8.6L362,168h-0.1l-3.5-5.6v8.6h-2.7V157.7z"/>
	<path class="st0" d="M371.4,157.7h2.8v13.2h-2.8V157.7z"/>
	<path class="st0" d="M376.8,164.4L376.8,164.4c0-3.8,2.8-6.9,6.7-6.9c3.9,0,6.7,3,6.7,6.8v0c0,3.8-2.8,6.8-6.7,6.8
		S376.8,168.1,376.8,164.4z M387.3,164.4L387.3,164.4c0-2.3-1.6-4.2-3.8-4.2s-3.8,1.9-3.8,4.1v0c0,2.3,1.6,4.2,3.8,4.2
		C385.7,168.5,387.3,166.6,387.3,164.4z"/>
	<path class="st0" d="M391.5,167.9h2.9v3h-2.9V167.9z"/>
	<path class="st0" d="M402.5,157.7h0.9l8.7,11.5v-11.5h0.9v13.2h-0.7l-8.9-11.7v11.7h-0.9V157.7z"/>
	<path class="st0" d="M416.5,165.4v-7.7h0.9v7.6c0,3.1,1.6,4.9,4.3,4.9c2.6,0,4.2-1.6,4.2-4.8v-7.7h0.9v7.6c0,3.8-2.1,5.8-5.2,5.8
		C418.6,171.1,416.5,169.1,416.5,165.4z"/>
	<path class="st0" d="M433.9,158.6h-4.4v-0.9h9.7v0.9h-4.4v12.3h-0.9V158.6z"/>
	<path class="st0" d="M441,170.4l8.6-11.8h-8.3v-0.9h9.6v0.5l-8.6,11.8h8.6v0.9H441V170.4z"/>
	<path class="st0" d="M454,157.7h9v0.9h-8v5.2h7.2v0.9H455v5.3h8.1v0.9h-9V157.7z"/>
	<path class="st0" d="M466.1,157.7h5.3c1.5,0,2.8,0.5,3.5,1.3c0.6,0.6,1,1.5,1,2.5v0c0,2.2-1.6,3.5-3.7,3.8l4.2,5.6h-1.2l-4-5.5H467
		v5.5h-0.9V157.7z M471.3,164.6c2.1,0,3.7-1.1,3.7-3v0c0-1.8-1.3-2.9-3.6-2.9H467v6H471.3z"/>
	<path class="st0" d="M483.5,157.7h1l4,11.8l3.7-11.8h0.7l3.7,11.8l4-11.8h1L497,171h-0.8l-3.7-11.5l-3.7,11.5h-0.8L483.5,157.7z"/>
	<path class="st0" d="M504.3,157.7h9v0.9h-8v5.2h7.2v0.9h-7.2v5.3h8.1v0.9h-9V157.7z"/>
	<path class="st0" d="M516.4,157.7h0.9V170h7.4v0.9h-8.3V157.7z"/>
	<path class="st0" d="M529.2,158.6h-4.4v-0.9h9.7v0.9h-4.4v12.3h-0.9V158.6z"/>
	<path class="st0" d="M536.4,157.7h1l4,11.8l3.7-11.8h0.7l3.7,11.8l4-11.8h1l-4.6,13.3h-0.8l-3.7-11.5l-3.7,11.5H541L536.4,157.7z"
		/>
	<path class="st0" d="M557.2,157.7h9v0.9h-8v5.2h7.2v0.9h-7.2v5.3h8.1v0.9h-9V157.7z"/>
	<path class="st0" d="M569.4,157.7h0.9v13.2h-0.9V157.7z"/>
	<path class="st0" d="M577.7,158.6h-4.4v-0.9h9.7v0.9h-4.4v12.3h-0.9V158.6z"/>
</g>
</svg>
