<?xml version="1.0" encoding="utf-8"?>
<!-- Generator: Adobe Illustrator 19.1.0, SVG Export Plug-In . SVG Version: 6.00 Build 0)  -->
<svg version="1.1" id="Ebene_1" xmlns="http://www.w3.org/2000/svg" xmlns:xlink="http://www.w3.org/1999/xlink" x="0px" y="0px"
	 viewBox="0 0 841.9 595.3" style="enable-background:new 0 0 841.9 595.3;" xml:space="preserve">
<style type="text/css">
	.st0{fill:#FFFFFF;}
	.st1{fill:none;}
</style>
<g>
	<path class="st0" d="M330.2,255.3h1.4c2.1,0,3.6,1.8,3.6,5.4v0.3c0,3.5-1.4,5.4-3.6,5.4h-1.4V255.3z M331.2,256.2v9.2h0.5
		c1.4,0,2.5-1.4,2.5-4.5v-0.3c0-3-1.1-4.5-2.5-4.5H331.2z"/>
	<path class="st0" d="M336.1,262.3v-0.2c0-2.8,1.1-4.3,2.3-4.3c1.3,0,2.2,1.5,2.2,4.1v0.6h-3.5c0.1,2,0.9,2.9,1.8,2.9
		c0.5,0,0.9-0.2,1.4-0.5l0.1,1c-0.6,0.4-1,0.5-1.7,0.5C337.4,266.5,336.1,265.1,336.1,262.3z M339.7,261.8c0-1.8-0.5-3-1.3-3
		c-0.7,0-1.3,1-1.4,3H339.7z"/>
	<path class="st0" d="M341.8,264v-6h1v5.8c0,1.2,0.4,1.8,1.2,1.8c0.7,0,1.3-0.8,1.3-1.9V258h1v8.4h-1v-1.2c-0.3,0.7-0.8,1.3-1.6,1.3
		C342.5,266.5,341.8,265.6,341.8,264z"/>
	<path class="st0" d="M347.9,264.9v-6.1h-0.7V258h0.7v-2.3h1v2.3h1.2v0.9h-1.2v5.9c0,0.6,0.3,0.8,0.8,0.8c0.1,0,0.3,0,0.5-0.1v0.9
		c-0.2,0.1-0.5,0.1-0.7,0.1C348.5,266.4,347.9,266.1,347.9,264.9z"/>
	<path class="st0" d="M350.8,266.1v-1c0.6,0.3,1.1,0.5,1.6,0.5c0.6,0,1.1-0.4,1.1-1.1v0c0-0.5-0.3-1-1.2-1.9
		c-1.1-1.1-1.6-1.8-1.6-2.7v0c0-1.2,0.9-2,2-2c0.5,0,0.9,0.1,1.4,0.3v1c-0.5-0.2-0.9-0.3-1.4-0.3c-0.6,0-1,0.4-1,1v0
		c0,0.5,0.3,0.9,1.2,1.9c1.1,1.1,1.5,1.8,1.5,2.7v0c0,1.3-0.9,2-2,2C351.9,266.5,351.4,266.3,350.8,266.1z"/>
	<path class="st0" d="M355.3,262.3v-0.3c0-2.8,1.2-4.2,2.5-4.2c0.4,0,0.8,0.1,1,0.3v1c-0.3-0.2-0.6-0.4-1-0.4c-0.8,0-1.6,1-1.6,3.2
		v0.3c0,2.3,0.8,3.2,1.6,3.2c0.3,0,0.6-0.2,0.9-0.4v1c-0.3,0.2-0.6,0.3-1,0.3C356.5,266.5,355.3,265.2,355.3,262.3z"/>
	<path class="st0" d="M360,255.2h1v4c0.3-0.7,0.8-1.3,1.6-1.3c1.1,0,1.8,0.9,1.8,2.5v6h-1v-5.8c0-1.2-0.4-1.8-1.2-1.8
		s-1.3,0.8-1.3,1.9v5.7h-1V255.2z"/>
	<path class="st0" d="M365.5,262.3v-0.2c0-2.8,1.1-4.3,2.3-4.3c1.3,0,2.2,1.5,2.2,4.1v0.6h-3.5c0.1,2,0.9,2.9,1.8,2.9
		c0.5,0,0.9-0.2,1.4-0.5l0.1,1c-0.6,0.4-1,0.5-1.7,0.5C366.7,266.5,365.5,265.1,365.5,262.3z M369.1,261.8c0-1.8-0.5-3-1.3-3
		c-0.7,0-1.3,1-1.4,3H369.1z"/>
	<path class="st0" d="M373.3,255.3h1l1.7,9.1l1.7-9.1h1l-2.2,11.2h-1L373.3,255.3z"/>
	<path class="st0" d="M379,262.3v-0.2c0-2.8,1.1-4.3,2.3-4.3c1.3,0,2.2,1.5,2.2,4.1v0.6h-3.5c0.1,2,0.9,2.9,1.8,2.9
		c0.5,0,0.9-0.2,1.4-0.5l0.1,1c-0.6,0.4-1,0.5-1.7,0.5C380.2,266.5,379,265.1,379,262.3z M382.6,261.8c0-1.8-0.5-3-1.3-3
		c-0.7,0-1.3,1-1.4,3H382.6z"/>
	<path class="st0" d="M384.7,258h1v1.2c0.3-0.7,0.9-1.3,1.8-1.3v1.1h0c-1,0-1.7,0.6-1.7,2v5.3h-1V258z"/>
	<path class="st0" d="M387.9,266.1v-1c0.6,0.3,1.1,0.5,1.6,0.5c0.6,0,1.1-0.4,1.1-1.1v0c0-0.5-0.3-1-1.2-1.9
		c-1.1-1.1-1.6-1.8-1.6-2.7v0c0-1.2,0.9-2,2-2c0.5,0,0.9,0.1,1.4,0.3v1c-0.5-0.2-0.9-0.3-1.4-0.3c-0.6,0-1,0.4-1,1v0
		c0,0.5,0.3,0.9,1.2,1.9c1.1,1.1,1.5,1.8,1.5,2.7v0c0,1.3-0.9,2-2,2C388.9,266.5,388.4,266.3,387.9,266.1z"/>
	<path class="st0" d="M392.7,255.2h1v1.3h-1V255.2z M392.7,258h1v8.4h-1V258z"/>
	<path class="st0" d="M395,262.3v-0.2c0-2.6,1.1-4.2,2.4-4.2c1.3,0,2.4,1.6,2.4,4.2v0.2c0,2.6-1.1,4.2-2.4,4.2
		C396.1,266.5,395,264.9,395,262.3z M398.8,262.3V262c0-2-0.6-3.3-1.4-3.3c-0.8,0-1.4,1.2-1.4,3.3v0.3c0,2,0.6,3.3,1.4,3.3
		C398.1,265.6,398.8,264.3,398.8,262.3z"/>
	<path class="st0" d="M400.9,258h1v1.2c0.3-0.7,0.8-1.3,1.6-1.3c1.1,0,1.8,0.9,1.8,2.5v6h-1v-5.8c0-1.2-0.4-1.8-1.2-1.8
		s-1.3,0.8-1.3,1.9v5.7h-1V258z"/>
	<path class="st0" d="M408.9,263.9v-0.2c0-1.6,0.8-2.7,2.1-2.7c0.5,0,0.9,0.1,1.3,0.3v-0.9c0-1.1-0.5-1.7-1.5-1.7
		c-0.5,0-1,0.1-1.5,0.4v-1c0.5-0.2,1-0.4,1.6-0.4c0.7,0,1.3,0.2,1.7,0.6c0.4,0.4,0.6,1.1,0.6,1.9v5.9h-1v-1.1
		c-0.3,0.8-0.8,1.3-1.6,1.3C409.6,266.5,408.9,265.4,408.9,263.9z M412.3,263.8v-1.6c-0.4-0.2-0.7-0.3-1.1-0.3
		c-0.8,0-1.3,0.7-1.3,1.8v0.2c0,1,0.4,1.8,1.1,1.8C411.7,265.6,412.3,264.8,412.3,263.8z"/>
	<path class="st0" d="M414.6,264v-6h1v5.8c0,1.2,0.4,1.8,1.2,1.8c0.7,0,1.3-0.8,1.3-1.9V258h1v8.4h-1v-1.2c-0.3,0.7-0.8,1.3-1.6,1.3
		C415.3,266.5,414.6,265.6,414.6,264z"/>
	<path class="st0" d="M420.7,258.8H420V258h0.7v-0.9c0-0.7,0.2-1.2,0.5-1.5c0.3-0.3,0.7-0.4,1.2-0.4c0.2,0,0.4,0,0.5,0.1v0.9
		c-0.1,0-0.3,0-0.4,0c-0.6,0-0.9,0.4-0.9,1.2v0.8h1.2v0.9h-1.2v7.5h-1V258.8z"/>
	<path class="st0" d="M426.4,255.3h3.7v1h-2.7v4.2h2.4v1h-2.4v5h-1V255.3z"/>
	<path class="st0" d="M430.6,263.9v-0.2c0-1.6,0.8-2.7,2.1-2.7c0.5,0,0.9,0.1,1.3,0.3v-0.9c0-1.1-0.5-1.7-1.5-1.7
		c-0.5,0-1,0.1-1.5,0.4v-1c0.5-0.2,1-0.4,1.6-0.4c0.7,0,1.3,0.2,1.7,0.6c0.4,0.4,0.6,1.1,0.6,1.9v5.9h-1v-1.1
		c-0.3,0.8-0.8,1.3-1.6,1.3C431.3,266.5,430.6,265.4,430.6,263.9z M433.9,263.8v-1.6c-0.4-0.2-0.7-0.3-1.1-0.3
		c-0.8,0-1.3,0.7-1.3,1.8v0.2c0,1,0.4,1.8,1.1,1.8C433.4,265.6,433.9,264.8,433.9,263.8z"/>
	<path class="st0" d="M436,262.3v-0.3c0-2.8,1.2-4.2,2.5-4.2c0.4,0,0.8,0.1,1,0.3v1c-0.3-0.2-0.6-0.4-1-0.4c-0.8,0-1.6,1-1.6,3.2
		v0.3c0,2.3,0.8,3.2,1.6,3.2c0.3,0,0.6-0.2,0.9-0.4v1c-0.3,0.2-0.6,0.3-1,0.3C437.2,266.5,436,265.2,436,262.3z"/>
	<path class="st0" d="M440.2,262.3v-0.2c0-2.8,1.1-4.3,2.3-4.3c1.3,0,2.2,1.5,2.2,4.1v0.6h-3.5c0.1,2,0.9,2.9,1.8,2.9
		c0.5,0,0.9-0.2,1.4-0.5l0.1,1c-0.6,0.4-1,0.5-1.7,0.5C441.5,266.5,440.2,265.1,440.2,262.3z M443.8,261.8c0-1.8-0.5-3-1.3-3
		c-0.7,0-1.3,1-1.4,3H443.8z"/>
	<path class="st0" d="M446.9,264.9v1.4h-1v-11.2h1v4.3c0.3-0.8,0.8-1.6,1.6-1.6c1.1,0,2,1.3,2,4.1v0.4c0,2.8-0.9,4.1-2,4.1
		C447.7,266.5,447.2,265.7,446.9,264.9z M449.6,262.3V262c0-2.1-0.6-3.2-1.3-3.2c-0.7,0-1.4,1.1-1.4,3.2v0.4c0,2,0.7,3.2,1.4,3.2
		C449.1,265.6,449.6,264.4,449.6,262.3z"/>
	<path class="st0" d="M451.6,262.3v-0.2c0-2.6,1.1-4.2,2.4-4.2c1.3,0,2.4,1.6,2.4,4.2v0.2c0,2.6-1.1,4.2-2.4,4.2
		C452.6,266.5,451.6,264.9,451.6,262.3z M455.3,262.3V262c0-2-0.6-3.3-1.4-3.3c-0.8,0-1.4,1.2-1.4,3.3v0.3c0,2,0.6,3.3,1.4,3.3
		C454.7,265.6,455.3,264.3,455.3,262.3z"/>
	<path class="st0" d="M457.2,262.3v-0.2c0-2.6,1.1-4.2,2.4-4.2c1.3,0,2.4,1.6,2.4,4.2v0.2c0,2.6-1.1,4.2-2.4,4.2
		C458.3,266.5,457.2,264.9,457.2,262.3z M461,262.3V262c0-2-0.6-3.3-1.4-3.3c-0.8,0-1.4,1.2-1.4,3.3v0.3c0,2,0.6,3.3,1.4,3.3
		C460.4,265.6,461,264.3,461,262.3z"/>
	<path class="st0" d="M463.2,255.2h1v7.1l2-4.3h1.1l-1.7,3.4l1.8,5h-1.1l-1.4-4l-0.7,1.4v2.6h-1V255.2z"/>
	<path class="st0" d="M468.4,258h1.3v1.5h-1.3V258z M468.4,264.8h1.3v1.5h-1.3V264.8z"/>
	<path class="st0" d="M477,265.9c-0.7-0.7-1.1-2.2-1.1-4.6v-0.4c0-4.6,1.3-5.8,3.1-5.8c0.6,0,0.9,0.1,1.3,0.3v1.8
		c-0.3-0.2-0.7-0.3-1.1-0.3c-0.9,0-1.4,0.6-1.5,2.8c0.4-0.3,0.7-0.5,1.2-0.5c1,0,2,0.8,2,3.2v0.3c0,2.3-1.1,3.8-2.5,3.8
		C477.9,266.5,477.4,266.3,477,265.9z M479.2,262.8v-0.3c0-1.3-0.4-1.7-0.8-1.7c-0.3,0-0.5,0.1-0.7,0.3v1.4c0,1.7,0.3,2.4,0.7,2.4
		C478.9,264.8,479.2,264.2,479.2,262.8z"/>
	<path class="st0" d="M482.4,257.3l-1.1,0.4v-1.9l1.7-0.5h1.4v11.2h-1.9V257.3z"/>
	<path class="st0" d="M488,257.2h-2.7v-1.9h4.5v1.4l-2,9.7h-1.8L488,257.2z"/>
	<path class="st0" d="M493,261.1v-0.6c0-3.8,0.9-5.4,2.7-5.4c1.7,0,2.7,1.6,2.7,5.4v0.6c0,3.8-1,5.4-2.7,5.4
		C493.9,266.5,493,264.9,493,261.1z M496.5,261.1v-0.6c0-3.1-0.4-3.6-0.8-3.6c-0.5,0-0.8,0.5-0.8,3.6v0.6c0,3.1,0.4,3.6,0.8,3.6
		C496.1,264.7,496.5,264.2,496.5,261.1z"/>
	<path class="st0" d="M499.1,261.1v-0.6c0-3.8,0.9-5.4,2.7-5.4c1.7,0,2.7,1.6,2.7,5.4v0.6c0,3.8-1,5.4-2.7,5.4
		C500.1,266.5,499.1,264.9,499.1,261.1z M502.6,261.1v-0.6c0-3.1-0.4-3.6-0.8-3.6c-0.5,0-0.8,0.5-0.8,3.6v0.6c0,3.1,0.4,3.6,0.8,3.6
		C502.3,264.7,502.6,264.2,502.6,261.1z"/>
	<path class="st0" d="M505.3,261.1v-0.6c0-3.8,0.9-5.4,2.7-5.4c1.7,0,2.7,1.6,2.7,5.4v0.6c0,3.8-1,5.4-2.7,5.4
		C506.2,266.5,505.3,264.9,505.3,261.1z M508.8,261.1v-0.6c0-3.1-0.4-3.6-0.8-3.6c-0.5,0-0.8,0.5-0.8,3.6v0.6c0,3.1,0.4,3.6,0.8,3.6
		C508.4,264.7,508.8,264.2,508.8,261.1z"/>
	<path class="st0" d="M513.5,255.3h1.9l1,7.2l1-7.2h1.9l-1.9,11.1h-2L513.5,255.3z"/>
	<path class="st0" d="M519.9,255.2h1.9v1.9h-1.9V255.2z M519.9,257.9h1.8v8.5h-1.8V257.9z"/>
	<path class="st0" d="M522.6,262.3v-0.4c0-2.7,1.2-4.2,2.5-4.2c1.4,0,2.4,1.5,2.4,4.3v1h-3.1c0.1,1.3,0.7,1.8,1.3,1.8
		c0.6,0,0.9-0.2,1.5-0.6l0.1,1.7c-0.6,0.4-1.1,0.6-1.8,0.6C523.9,266.5,522.6,265.1,522.6,262.3z M525.7,261.5
		c0-1.4-0.2-2.1-0.6-2.1c-0.4,0-0.7,0.6-0.7,2.1H525.7z"/>
	<path class="st0" d="M527.9,257.9h1.9l0.6,4.9l0.7-4.9h1.4l0.7,4.9l0.6-4.9h1.8l-1.4,8.5h-1.7l-0.8-4.8l-0.7,4.8h-1.7L527.9,257.9z
		"/>
	<path class="st0" d="M536.1,266.1v-1.8c0.6,0.3,1.2,0.6,1.6,0.6c0.4,0,0.7-0.3,0.7-0.7c0-0.3-0.1-0.6-0.9-1.4
		c-0.8-0.8-1.4-1.6-1.4-2.7v0c0-1.4,0.9-2.3,2.4-2.3c0.5,0,0.9,0.1,1.4,0.2v1.8c-0.4-0.2-0.8-0.4-1.3-0.4c-0.5,0-0.7,0.2-0.7,0.6
		c0,0.3,0.1,0.6,1,1.4c1,1,1.4,1.7,1.4,2.7v0c0,1.5-1,2.4-2.3,2.4C537.3,266.5,536.7,266.3,536.1,266.1z"/>
	<path class="st0" d="M330.2,273.4h3.8v1h-2.8v4.1h2.5v1h-2.5v4.1h2.9v1h-3.9V273.4z"/>
	<path class="st0" d="M335.2,276.2h1v1.2c0.3-0.7,0.8-1.3,1.6-1.3c1.1,0,1.8,0.9,1.8,2.5v6h-1v-5.8c0-1.2-0.4-1.8-1.2-1.8
		c-0.7,0-1.3,0.8-1.3,1.9v5.7h-1V276.2z"/>
	<path class="st0" d="M341.1,286.3v-1c0.6,0.2,1.3,0.4,1.7,0.4c1,0,1.6-0.5,1.6-1.6v-1.6c-0.3,0.8-0.8,1.6-1.6,1.6c-1.1,0-2-1.3-2-4
		V280c0-2.7,1-4,2-4c0.8,0,1.3,0.8,1.6,1.6v-1.4h1v8c0,0.8-0.2,1.4-0.6,1.8c-0.4,0.4-1.1,0.6-1.9,0.6
		C342.3,286.6,341.7,286.5,341.1,286.3z M344.5,280.1V280c0-2-0.7-3.1-1.4-3.1c-0.7,0-1.3,1.1-1.3,3.1v0.1c0,2,0.6,3.1,1.3,3.1
		C343.7,283.1,344.5,282,344.5,280.1z"/>
	<path class="st0" d="M346.9,273.3h1v11.2h-1V273.3z"/>
	<path class="st0" d="M349.5,273.3h1v1.3h-1V273.3z M349.5,276.2h1v8.4h-1V276.2z"/>
	<path class="st0" d="M351.7,284.2v-1c0.6,0.3,1.1,0.5,1.6,0.5c0.6,0,1.1-0.4,1.1-1.1v0c0-0.5-0.3-1-1.2-1.9
		c-1.1-1.1-1.6-1.8-1.6-2.7v0c0-1.2,0.9-2,2-2c0.5,0,0.9,0.1,1.4,0.3v1c-0.5-0.2-0.9-0.3-1.4-0.3c-0.6,0-1,0.4-1,1v0
		c0,0.5,0.3,0.9,1.2,1.9c1.1,1.1,1.5,1.8,1.5,2.7v0c0,1.3-0.9,2-2,2C352.7,284.6,352.2,284.5,351.7,284.2z"/>
	<path class="st0" d="M356.1,280.5v-0.3c0-2.8,1.2-4.2,2.5-4.2c0.4,0,0.8,0.1,1,0.3v1c-0.3-0.2-0.6-0.4-1-0.4c-0.8,0-1.6,1-1.6,3.2
		v0.3c0,2.3,0.8,3.2,1.6,3.2c0.3,0,0.6-0.2,0.9-0.4v1c-0.3,0.2-0.6,0.3-1,0.3C357.3,284.6,356.1,283.3,356.1,280.5z"/>
	<path class="st0" d="M360.8,273.3h1v4c0.3-0.7,0.8-1.3,1.6-1.3c1.1,0,1.8,0.9,1.8,2.5v6h-1v-5.8c0-1.2-0.4-1.8-1.2-1.8
		s-1.3,0.8-1.3,1.9v5.7h-1V273.3z"/>
	<path class="st0" d="M366.3,280.5v-0.2c0-2.8,1.1-4.3,2.3-4.3c1.3,0,2.2,1.5,2.2,4.1v0.6h-3.5c0.1,2,0.9,2.9,1.8,2.9
		c0.5,0,0.9-0.2,1.4-0.5l0.1,1c-0.6,0.4-1,0.5-1.7,0.5C367.6,284.6,366.3,283.3,366.3,280.5z M369.9,280c0-1.8-0.5-3-1.3-3
		c-0.7,0-1.3,1-1.4,3H369.9z"/>
	<path class="st0" d="M374.2,273.4h1l1.7,9.1l1.7-9.1h1l-2.2,11.2h-1L374.2,273.4z"/>
	<path class="st0" d="M379.8,280.5v-0.2c0-2.8,1.1-4.3,2.3-4.3c1.3,0,2.2,1.5,2.2,4.1v0.6h-3.5c0.1,2,0.9,2.9,1.8,2.9
		c0.5,0,0.9-0.2,1.4-0.5l0.1,1c-0.6,0.4-1,0.5-1.7,0.5C381.1,284.6,379.8,283.3,379.8,280.5z M383.4,280c0-1.8-0.5-3-1.3-3
		c-0.7,0-1.3,1-1.4,3H383.4z"/>
	<path class="st0" d="M385.5,276.2h1v1.2c0.3-0.7,0.9-1.3,1.8-1.3v1.1h0c-1,0-1.7,0.6-1.7,2v5.3h-1V276.2z"/>
	<path class="st0" d="M388.7,284.2v-1c0.6,0.3,1.1,0.5,1.6,0.5c0.6,0,1.1-0.4,1.1-1.1v0c0-0.5-0.3-1-1.2-1.9
		c-1.1-1.1-1.6-1.8-1.6-2.7v0c0-1.2,0.9-2,2-2c0.5,0,0.9,0.1,1.4,0.3v1c-0.5-0.2-0.9-0.3-1.4-0.3c-0.6,0-1,0.4-1,1v0
		c0,0.5,0.3,0.9,1.2,1.9c1.1,1.1,1.5,1.8,1.5,2.7v0c0,1.3-0.9,2-2,2C389.8,284.6,389.3,284.5,388.7,284.2z"/>
	<path class="st0" d="M393.5,273.3h1v1.3h-1V273.3z M393.5,276.2h1v8.4h-1V276.2z"/>
	<path class="st0" d="M395.8,280.5v-0.2c0-2.6,1.1-4.2,2.4-4.2c1.3,0,2.4,1.6,2.4,4.2v0.2c0,2.6-1.1,4.2-2.4,4.2
		C396.9,284.7,395.8,283.1,395.8,280.5z M399.6,280.5v-0.3c0-2-0.6-3.3-1.4-3.3c-0.8,0-1.4,1.2-1.4,3.3v0.3c0,2,0.6,3.3,1.4,3.3
		C399,283.8,399.6,282.5,399.6,280.5z"/>
	<path class="st0" d="M401.8,276.2h1v1.2c0.3-0.7,0.8-1.3,1.6-1.3c1.1,0,1.8,0.9,1.8,2.5v6h-1v-5.8c0-1.2-0.4-1.8-1.2-1.8
		c-0.7,0-1.3,0.8-1.3,1.9v5.7h-1V276.2z"/>
	<path class="st0" d="M409.7,282.1V282c0-1.6,0.8-2.7,2.1-2.7c0.5,0,0.9,0.1,1.3,0.3v-0.9c0-1.1-0.5-1.7-1.5-1.7
		c-0.5,0-1,0.1-1.5,0.4v-1c0.5-0.2,1-0.4,1.6-0.4c0.7,0,1.3,0.2,1.7,0.6c0.4,0.4,0.6,1.1,0.6,1.9v5.9h-1v-1.1
		c-0.3,0.8-0.8,1.3-1.6,1.3C410.5,284.7,409.7,283.6,409.7,282.1z M413.1,282v-1.6c-0.4-0.2-0.7-0.3-1.1-0.3c-0.8,0-1.3,0.7-1.3,1.8
		v0.2c0,1,0.4,1.8,1.1,1.8C412.6,283.8,413.1,283,413.1,282z"/>
	<path class="st0" d="M415.4,282.1v-6h1v5.8c0,1.2,0.4,1.8,1.2,1.8s1.3-0.8,1.3-1.9v-5.7h1v8.4h-1v-1.2c-0.3,0.7-0.8,1.3-1.6,1.3
		C416.1,284.7,415.4,283.7,415.4,282.1z"/>
	<path class="st0" d="M421.6,277h-0.7v-0.9h0.7v-0.9c0-0.7,0.2-1.2,0.5-1.5c0.3-0.3,0.7-0.4,1.2-0.4c0.2,0,0.4,0,0.5,0.1v0.9
		c-0.1,0-0.3,0-0.4,0c-0.6,0-0.9,0.4-0.9,1.2v0.8h1.2v0.9h-1.2v7.5h-1V277z"/>
	<path class="st0" d="M427.3,273.4h3.7v1h-2.7v4.2h2.4v1h-2.4v5h-1V273.4z"/>
	<path class="st0" d="M431.4,282.1V282c0-1.6,0.8-2.7,2.1-2.7c0.5,0,0.9,0.1,1.3,0.3v-0.9c0-1.1-0.5-1.7-1.5-1.7
		c-0.5,0-1,0.1-1.5,0.4v-1c0.5-0.2,1-0.4,1.6-0.4c0.7,0,1.3,0.2,1.7,0.6c0.4,0.4,0.6,1.1,0.6,1.9v5.9h-1v-1.1
		c-0.3,0.8-0.8,1.3-1.6,1.3C432.1,284.7,431.4,283.6,431.4,282.1z M434.8,282v-1.6c-0.4-0.2-0.7-0.3-1.1-0.3c-0.8,0-1.3,0.7-1.3,1.8
		v0.2c0,1,0.4,1.8,1.1,1.8C434.2,283.8,434.8,283,434.8,282z"/>
	<path class="st0" d="M436.9,280.5v-0.3c0-2.8,1.2-4.2,2.5-4.2c0.4,0,0.8,0.1,1,0.3v1c-0.3-0.2-0.6-0.4-1-0.4c-0.8,0-1.6,1-1.6,3.2
		v0.3c0,2.3,0.8,3.2,1.6,3.2c0.3,0,0.6-0.2,0.9-0.4v1c-0.3,0.2-0.6,0.3-1,0.3C438,284.6,436.9,283.3,436.9,280.5z"/>
	<path class="st0" d="M441.1,280.5v-0.2c0-2.8,1.1-4.3,2.3-4.3c1.3,0,2.2,1.5,2.2,4.1v0.6H442c0.1,2,0.9,2.9,1.8,2.9
		c0.5,0,0.9-0.2,1.4-0.5l0.1,1c-0.6,0.4-1,0.5-1.7,0.5C442.3,284.6,441.1,283.3,441.1,280.5z M444.7,280c0-1.8-0.5-3-1.3-3
		c-0.7,0-1.3,1-1.4,3H444.7z"/>
	<path class="st0" d="M447.8,283.1v1.4h-1v-11.2h1v4.3c0.3-0.8,0.8-1.6,1.6-1.6c1.1,0,2,1.3,2,4.1v0.4c0,2.8-0.9,4.1-2,4.1
		C448.6,284.7,448.1,283.9,447.8,283.1z M450.5,280.5v-0.3c0-2.1-0.6-3.2-1.3-3.2c-0.7,0-1.4,1.1-1.4,3.2v0.4c0,2,0.7,3.2,1.4,3.2
		C449.9,283.7,450.5,282.6,450.5,280.5z"/>
	<path class="st0" d="M452.4,280.5v-0.2c0-2.6,1.1-4.2,2.4-4.2c1.3,0,2.4,1.6,2.4,4.2v0.2c0,2.6-1.1,4.2-2.4,4.2
		C453.5,284.7,452.4,283.1,452.4,280.5z M456.2,280.5v-0.3c0-2-0.6-3.3-1.4-3.3c-0.8,0-1.4,1.2-1.4,3.3v0.3c0,2,0.6,3.3,1.4,3.3
		C455.6,283.8,456.2,282.5,456.2,280.5z"/>
	<path class="st0" d="M458.1,280.5v-0.2c0-2.6,1.1-4.2,2.4-4.2c1.3,0,2.4,1.6,2.4,4.2v0.2c0,2.6-1.1,4.2-2.4,4.2
		C459.2,284.7,458.1,283.1,458.1,280.5z M461.9,280.5v-0.3c0-2-0.6-3.3-1.4-3.3c-0.8,0-1.4,1.2-1.4,3.3v0.3c0,2,0.6,3.3,1.4,3.3
		C461.3,283.8,461.9,282.5,461.9,280.5z"/>
	<path class="st0" d="M464.1,273.3h1v7.1l2-4.3h1.1l-1.7,3.4l1.8,5h-1.1l-1.4-4l-0.7,1.4v2.6h-1V273.3z"/>
	<path class="st0" d="M469.3,276.2h1.3v1.5h-1.3V276.2z M469.3,283h1.3v1.5h-1.3V283z"/>
	<path class="st0" d="M474,284.4v-1.8c0.5,0.2,0.8,0.3,1.4,0.3c0.8,0,1.4-0.6,1.4-1.6v-0.1c0-1.2-0.7-1.6-1.9-1.7v-1.3l1.8-2.8h-2.5
		v-1.9h4.4v1.7l-1.8,2.9c1.1,0.4,1.9,1.2,1.9,2.9v0.2c0,2.2-1.3,3.5-3,3.5C475,284.7,474.5,284.6,474,284.4z"/>
	<path class="st0" d="M481.8,275.4h-2.7v-1.9h4.5v1.4l-2,9.7h-1.9L481.8,275.4z"/>
	<path class="st0" d="M486.8,279.3v-0.6c0-3.8,0.9-5.4,2.7-5.4c1.7,0,2.7,1.6,2.7,5.4v0.6c0,3.8-1,5.4-2.7,5.4
		C487.8,284.7,486.8,283.1,486.8,279.3z M490.3,279.3v-0.6c0-3.1-0.4-3.6-0.8-3.6c-0.5,0-0.8,0.5-0.8,3.6v0.6c0,3.1,0.4,3.6,0.8,3.6
		C490,282.9,490.3,282.4,490.3,279.3z"/>
	<path class="st0" d="M493,279.3v-0.6c0-3.8,0.9-5.4,2.7-5.4c1.7,0,2.7,1.6,2.7,5.4v0.6c0,3.8-1,5.4-2.7,5.4
		C493.9,284.7,493,283.1,493,279.3z M496.5,279.3v-0.6c0-3.1-0.4-3.6-0.8-3.6c-0.5,0-0.8,0.5-0.8,3.6v0.6c0,3.1,0.4,3.6,0.8,3.6
		C496.1,282.9,496.5,282.4,496.5,279.3z"/>
	<path class="st0" d="M499.1,279.3v-0.6c0-3.8,0.9-5.4,2.7-5.4c1.7,0,2.7,1.6,2.7,5.4v0.6c0,3.8-1,5.4-2.7,5.4
		C500,284.7,499.1,283.1,499.1,279.3z M502.6,279.3v-0.6c0-3.1-0.4-3.6-0.8-3.6c-0.5,0-0.8,0.5-0.8,3.6v0.6c0,3.1,0.4,3.6,0.8,3.6
		C502.2,282.9,502.6,282.4,502.6,279.3z"/>
	<path class="st0" d="M507.3,273.4h1.9l1,7.2l1-7.2h1.9l-1.9,11.1h-2L507.3,273.4z"/>
	<path class="st0" d="M513.7,273.4h1.9v1.9h-1.9V273.4z M513.7,276h1.8v8.5h-1.8V276z"/>
	<path class="st0" d="M516.4,280.5v-0.4c0-2.7,1.2-4.2,2.5-4.2c1.4,0,2.4,1.5,2.4,4.3v1h-3.1c0.1,1.3,0.7,1.8,1.3,1.8
		c0.6,0,0.9-0.2,1.5-0.6l0.1,1.7c-0.6,0.4-1.1,0.6-1.8,0.6C517.7,284.7,516.4,283.2,516.4,280.5z M519.6,279.7
		c0-1.4-0.2-2.1-0.6-2.1c-0.4,0-0.7,0.6-0.7,2.1H519.6z"/>
	<path class="st0" d="M521.7,276h1.9l0.6,4.9l0.7-4.9h1.4l0.7,4.9l0.6-4.9h1.8l-1.4,8.5h-1.7l-0.8-4.8l-0.7,4.8h-1.7L521.7,276z"/>
	<path class="st0" d="M530,284.3v-1.8c0.6,0.3,1.2,0.6,1.6,0.6c0.4,0,0.7-0.3,0.7-0.7c0-0.3-0.1-0.6-0.9-1.4
		c-0.8-0.8-1.4-1.6-1.4-2.7v0c0-1.4,0.9-2.3,2.4-2.3c0.5,0,0.9,0.1,1.4,0.2v1.8c-0.4-0.2-0.8-0.4-1.3-0.4c-0.5,0-0.7,0.2-0.7,0.6
		c0,0.3,0.1,0.6,1,1.4c1,1,1.4,1.7,1.4,2.7v0c0,1.5-1,2.4-2.3,2.4C531.1,284.7,530.5,284.5,530,284.3z"/>
	<path class="st0" d="M330.2,291.6h3.8v1h-2.8v4.1h2.5v1h-2.5v4.1h2.9v1h-3.9V291.6z"/>
	<path class="st0" d="M335.2,294.3h1v1.2c0.3-0.7,0.8-1.3,1.6-1.3c1.1,0,1.8,0.9,1.8,2.5v6h-1v-5.8c0-1.2-0.4-1.8-1.2-1.8
		c-0.7,0-1.3,0.8-1.3,1.9v5.7h-1V294.3z"/>
	<path class="st0" d="M341.1,304.5v-1c0.6,0.2,1.3,0.4,1.7,0.4c1,0,1.6-0.5,1.6-1.6v-1.6c-0.3,0.8-0.8,1.6-1.6,1.6c-1.1,0-2-1.3-2-4
		v-0.1c0-2.7,1-4,2-4c0.8,0,1.3,0.8,1.6,1.6v-1.4h1v8c0,0.8-0.2,1.4-0.6,1.8c-0.4,0.4-1.1,0.6-1.9,0.6
		C342.3,304.8,341.7,304.7,341.1,304.5z M344.5,298.3v-0.1c0-2-0.7-3.1-1.4-3.1c-0.7,0-1.3,1.1-1.3,3.1v0.1c0,2,0.6,3.1,1.3,3.1
		C343.7,301.3,344.5,300.2,344.5,298.3z"/>
	<path class="st0" d="M346.9,291.5h1v11.2h-1V291.5z"/>
	<path class="st0" d="M349.5,291.5h1v1.3h-1V291.5z M349.5,294.3h1v8.4h-1V294.3z"/>
	<path class="st0" d="M351.7,302.4v-1c0.6,0.3,1.1,0.5,1.6,0.5c0.6,0,1.1-0.4,1.1-1.1v0c0-0.5-0.3-1-1.2-1.9
		c-1.1-1.1-1.6-1.8-1.6-2.7v0c0-1.2,0.9-2,2-2c0.5,0,0.9,0.1,1.4,0.3v1c-0.5-0.2-0.9-0.3-1.4-0.3c-0.6,0-1,0.4-1,1v0
		c0,0.5,0.3,0.9,1.2,1.9c1.1,1.1,1.5,1.8,1.5,2.7v0c0,1.3-0.9,2-2,2C352.7,302.8,352.2,302.7,351.7,302.4z"/>
	<path class="st0" d="M356.1,298.6v-0.3c0-2.8,1.2-4.2,2.5-4.2c0.4,0,0.8,0.1,1,0.3v1c-0.3-0.2-0.6-0.4-1-0.4c-0.8,0-1.6,1-1.6,3.2
		v0.3c0,2.3,0.8,3.2,1.6,3.2c0.3,0,0.6-0.2,0.9-0.4v1c-0.3,0.2-0.6,0.3-1,0.3C357.3,302.8,356.1,301.5,356.1,298.6z"/>
	<path class="st0" d="M360.8,291.5h1v4c0.3-0.7,0.8-1.3,1.6-1.3c1.1,0,1.8,0.9,1.8,2.5v6h-1v-5.8c0-1.2-0.4-1.8-1.2-1.8
		s-1.3,0.8-1.3,1.9v5.7h-1V291.5z"/>
	<path class="st0" d="M366.3,298.7v-0.2c0-2.8,1.1-4.3,2.3-4.3c1.3,0,2.2,1.5,2.2,4.1v0.6h-3.5c0.1,2,0.9,2.9,1.8,2.9
		c0.5,0,0.9-0.2,1.4-0.5l0.1,1c-0.6,0.4-1,0.5-1.7,0.5C367.6,302.8,366.3,301.4,366.3,298.7z M369.9,298.1c0-1.8-0.5-3-1.3-3
		c-0.7,0-1.3,1-1.4,3H369.9z"/>
	<path class="st0" d="M374.2,291.6h1l1.7,9.1l1.7-9.1h1l-2.2,11.2h-1L374.2,291.6z"/>
	<path class="st0" d="M379.8,298.7v-0.2c0-2.8,1.1-4.3,2.3-4.3c1.3,0,2.2,1.5,2.2,4.1v0.6h-3.5c0.1,2,0.9,2.9,1.8,2.9
		c0.5,0,0.9-0.2,1.4-0.5l0.1,1c-0.6,0.4-1,0.5-1.7,0.5C381.1,302.8,379.8,301.4,379.8,298.7z M383.4,298.1c0-1.8-0.5-3-1.3-3
		c-0.7,0-1.3,1-1.4,3H383.4z"/>
	<path class="st0" d="M385.5,294.3h1v1.2c0.3-0.7,0.9-1.3,1.8-1.3v1.1h0c-1,0-1.7,0.6-1.7,2v5.3h-1V294.3z"/>
	<path class="st0" d="M388.7,302.4v-1c0.6,0.3,1.1,0.5,1.6,0.5c0.6,0,1.1-0.4,1.1-1.1v0c0-0.5-0.3-1-1.2-1.9
		c-1.1-1.1-1.6-1.8-1.6-2.7v0c0-1.2,0.9-2,2-2c0.5,0,0.9,0.1,1.4,0.3v1c-0.5-0.2-0.9-0.3-1.4-0.3c-0.6,0-1,0.4-1,1v0
		c0,0.5,0.3,0.9,1.2,1.9c1.1,1.1,1.5,1.8,1.5,2.7v0c0,1.3-0.9,2-2,2C389.8,302.8,389.3,302.7,388.7,302.4z"/>
	<path class="st0" d="M393.5,291.5h1v1.3h-1V291.5z M393.5,294.3h1v8.4h-1V294.3z"/>
	<path class="st0" d="M395.8,298.6v-0.2c0-2.6,1.1-4.2,2.4-4.2c1.3,0,2.4,1.6,2.4,4.2v0.2c0,2.6-1.1,4.2-2.4,4.2
		C396.9,302.8,395.8,301.3,395.8,298.6z M399.6,298.6v-0.3c0-2-0.6-3.3-1.4-3.3c-0.8,0-1.4,1.2-1.4,3.3v0.3c0,2,0.6,3.3,1.4,3.3
		C399,301.9,399.6,300.7,399.6,298.6z"/>
	<path class="st0" d="M401.8,294.3h1v1.2c0.3-0.7,0.8-1.3,1.6-1.3c1.1,0,1.8,0.9,1.8,2.5v6h-1v-5.8c0-1.2-0.4-1.8-1.2-1.8
		c-0.7,0-1.3,0.8-1.3,1.9v5.7h-1V294.3z"/>
	<path class="st0" d="M409.7,294.3h1l1.4,6.7l1.4-6.7h0.9l-1.9,8.4h-0.9L409.7,294.3z"/>
	<path class="st0" d="M415,298.6v-0.2c0-2.6,1.1-4.2,2.4-4.2c1.3,0,2.4,1.6,2.4,4.2v0.2c0,2.6-1.1,4.2-2.4,4.2
		C416.1,302.8,415,301.3,415,298.6z M418.8,298.6v-0.3c0-2-0.6-3.3-1.4-3.3c-0.8,0-1.4,1.2-1.4,3.3v0.3c0,2,0.6,3.3,1.4,3.3
		C418.2,301.9,418.8,300.7,418.8,298.6z"/>
	<path class="st0" d="M421,294.3h1v1.2c0.3-0.7,0.8-1.3,1.6-1.3c1.1,0,1.8,0.9,1.8,2.5v6h-1v-5.8c0-1.2-0.4-1.8-1.2-1.8
		s-1.3,0.8-1.3,1.9v5.7h-1V294.3z"/>
	<path class="st0" d="M429.4,291.6h1l3,8.3v-8.3h1v11.1h-0.9l-3.1-8.6v8.6h-1V291.6z"/>
	<path class="st0" d="M435.6,298.6v-0.2c0-2.6,1.1-4.2,2.4-4.2c1.3,0,2.4,1.6,2.4,4.2v0.2c0,2.6-1.1,4.2-2.4,4.2
		C436.7,302.8,435.6,301.3,435.6,298.6z M439.4,298.6v-0.3c0-2-0.6-3.3-1.4-3.3c-0.8,0-1.4,1.2-1.4,3.3v0.3c0,2,0.6,3.3,1.4,3.3
		C438.8,301.9,439.4,300.7,439.4,298.6z"/>
	<path class="st0" d="M441,294.3h1l1.1,6.6l1.2-6.6h0.8l1.2,6.6l1.2-6.6h1l-1.6,8.4h-0.9l-1.2-6.4l-1.2,6.4h-0.9L441,294.3z"/>
	<path class="st0" d="M450.7,292.6H449v-1h4.3v1h-1.7v10.1h-1V292.6z"/>
	<path class="st0" d="M454.3,291.5h1v4c0.3-0.7,0.8-1.3,1.6-1.3c1.1,0,1.8,0.9,1.8,2.5v6h-1v-5.8c0-1.2-0.4-1.8-1.2-1.8
		s-1.3,0.8-1.3,1.9v5.7h-1V291.5z"/>
	<path class="st0" d="M460.1,291.5h1v1.3h-1V291.5z M460.2,294.3h1v8.4h-1V294.3z"/>
	<path class="st0" d="M462.3,302.4v-1c0.6,0.3,1.1,0.5,1.6,0.5c0.6,0,1.1-0.4,1.1-1.1v0c0-0.5-0.3-1-1.2-1.9
		c-1.1-1.1-1.6-1.8-1.6-2.7v0c0-1.2,0.9-2,2-2c0.5,0,0.9,0.1,1.4,0.3v1c-0.5-0.2-0.9-0.3-1.4-0.3c-0.6,0-1,0.4-1,1v0
		c0,0.5,0.3,0.9,1.2,1.9c1.1,1.1,1.5,1.8,1.5,2.7v0c0,1.3-0.9,2-2,2C463.3,302.8,462.8,302.7,462.3,302.4z"/>
	<path class="st0" d="M467,294.3h1.3v1.5H467V294.3z M467,301.2h1.3v1.5H467V301.2z"/>
	<path class="st0" d="M471.8,302.5v-1.8c0.5,0.2,0.8,0.3,1.4,0.3c0.8,0,1.4-0.6,1.4-1.6v-0.1c0-1.2-0.7-1.6-1.9-1.7v-1.3l1.8-2.8
		h-2.5v-1.9h4.4v1.7l-1.8,2.9c1.1,0.4,1.9,1.2,1.9,2.9v0.2c0,2.2-1.3,3.5-3,3.5C472.8,302.8,472.3,302.7,471.8,302.5z"/>
	<path class="st0" d="M479.6,293.5h-2.7v-1.9h4.5v1.4l-2,9.7h-1.9L479.6,293.5z"/>
	<path class="st0" d="M482.1,297.4v-0.6c0-3.8,0.9-5.4,2.7-5.4c1.7,0,2.7,1.6,2.7,5.4v0.6c0,3.8-1,5.4-2.7,5.4
		C483,302.8,482.1,301.3,482.1,297.4z M485.5,297.4v-0.6c0-3.1-0.4-3.6-0.8-3.6c-0.5,0-0.8,0.5-0.8,3.6v0.6c0,3.1,0.4,3.6,0.8,3.6
		C485.2,301.1,485.5,300.6,485.5,297.4z"/>
	<path class="st0" d="M490.6,297.4v-0.6c0-3.8,0.9-5.4,2.7-5.4c1.7,0,2.7,1.6,2.7,5.4v0.6c0,3.8-1,5.4-2.7,5.4
		C491.6,302.8,490.6,301.3,490.6,297.4z M494.1,297.4v-0.6c0-3.1-0.4-3.6-0.8-3.6c-0.5,0-0.8,0.5-0.8,3.6v0.6c0,3.1,0.4,3.6,0.8,3.6
		C493.8,301.1,494.1,300.6,494.1,297.4z"/>
	<path class="st0" d="M496.8,297.4v-0.6c0-3.8,0.9-5.4,2.7-5.4c1.7,0,2.7,1.6,2.7,5.4v0.6c0,3.8-1,5.4-2.7,5.4
		C497.7,302.8,496.8,301.3,496.8,297.4z M500.3,297.4v-0.6c0-3.1-0.4-3.6-0.8-3.6c-0.5,0-0.8,0.5-0.8,3.6v0.6c0,3.1,0.4,3.6,0.8,3.6
		C499.9,301.1,500.3,300.6,500.3,297.4z"/>
	<path class="st0" d="M502.9,297.4v-0.6c0-3.8,0.9-5.4,2.7-5.4c1.7,0,2.7,1.6,2.7,5.4v0.6c0,3.8-1,5.4-2.7,5.4
		C503.8,302.8,502.9,301.3,502.9,297.4z M506.4,297.4v-0.6c0-3.1-0.4-3.6-0.8-3.6c-0.5,0-0.8,0.5-0.8,3.6v0.6c0,3.1,0.4,3.6,0.8,3.6
		C506,301.1,506.4,300.6,506.4,297.4z"/>
	<path class="st0" d="M511.1,291.6h1.9l1,7.2l1-7.2h1.9l-1.9,11.1h-2L511.1,291.6z"/>
	<path class="st0" d="M517.5,291.5h1.9v1.9h-1.9V291.5z M517.5,294.2h1.8v8.5h-1.8V294.2z"/>
	<path class="st0" d="M520.2,298.7v-0.4c0-2.7,1.2-4.2,2.5-4.2c1.4,0,2.4,1.5,2.4,4.3v1H522c0.1,1.3,0.7,1.8,1.3,1.8
		c0.6,0,0.9-0.2,1.5-0.6l0.1,1.7c-0.6,0.4-1.1,0.6-1.8,0.6C521.5,302.8,520.2,301.4,520.2,298.7z M523.4,297.8
		c0-1.4-0.2-2.1-0.6-2.1c-0.4,0-0.7,0.6-0.7,2.1H523.4z"/>
	<path class="st0" d="M525.5,294.2h1.9l0.6,4.9l0.7-4.9h1.4l0.7,4.9l0.6-4.9h1.8l-1.4,8.5h-1.7l-0.8-4.8l-0.7,4.8h-1.7L525.5,294.2z
		"/>
	<path class="st0" d="M533.8,302.5v-1.8c0.6,0.3,1.2,0.6,1.6,0.6c0.4,0,0.7-0.3,0.7-0.7c0-0.3-0.1-0.6-0.9-1.4
		c-0.8-0.8-1.4-1.6-1.4-2.7v0c0-1.4,0.9-2.3,2.4-2.3c0.5,0,0.9,0.1,1.4,0.2v1.8c-0.4-0.2-0.8-0.4-1.3-0.4c-0.5,0-0.7,0.2-0.7,0.6
		c0,0.3,0.1,0.6,1,1.4c1,1,1.4,1.7,1.4,2.7v0c0,1.5-1,2.4-2.3,2.4C534.9,302.8,534.3,302.7,533.8,302.5z"/>
	<path class="st0" d="M330.2,309.8h1.4c2.1,0,3.6,1.8,3.6,5.4v0.3c0,3.5-1.4,5.4-3.6,5.4h-1.4V309.8z M331.2,310.7v9.2h0.5
		c1.4,0,2.5-1.4,2.5-4.5v-0.3c0-3-1.1-4.5-2.5-4.5H331.2z"/>
	<path class="st0" d="M336.1,316.8v-0.2c0-2.8,1.1-4.3,2.3-4.3c1.3,0,2.2,1.5,2.2,4.1v0.6h-3.5c0.1,2,0.9,2.9,1.8,2.9
		c0.5,0,0.9-0.2,1.4-0.5l0.1,1c-0.6,0.4-1,0.5-1.7,0.5C337.4,321,336.1,319.6,336.1,316.8z M339.7,316.3c0-1.8-0.5-3-1.3-3
		c-0.7,0-1.3,1-1.4,3H339.7z"/>
	<path class="st0" d="M341.8,318.5v-6h1v5.8c0,1.2,0.4,1.8,1.2,1.8c0.7,0,1.3-0.8,1.3-1.9v-5.7h1v8.4h-1v-1.2
		c-0.3,0.7-0.8,1.3-1.6,1.3C342.5,321,341.8,320.1,341.8,318.5z"/>
	<path class="st0" d="M347.9,319.4v-6.1h-0.7v-0.9h0.7v-2.3h1v2.3h1.2v0.9h-1.2v5.9c0,0.6,0.3,0.8,0.8,0.8c0.1,0,0.3,0,0.5-0.1v0.9
		c-0.2,0.1-0.5,0.1-0.7,0.1C348.5,320.9,347.9,320.6,347.9,319.4z"/>
	<path class="st0" d="M350.8,320.6v-1c0.6,0.3,1.1,0.5,1.6,0.5c0.6,0,1.1-0.4,1.1-1.1v0c0-0.5-0.3-1-1.2-1.9
		c-1.1-1.1-1.6-1.8-1.6-2.7v0c0-1.2,0.9-2,2-2c0.5,0,0.9,0.1,1.4,0.3v1c-0.5-0.2-0.9-0.3-1.4-0.3c-0.6,0-1,0.4-1,1v0
		c0,0.5,0.3,0.9,1.2,1.9c1.1,1.1,1.5,1.8,1.5,2.7v0c0,1.3-0.9,2-2,2C351.9,321,351.4,320.8,350.8,320.6z"/>
	<path class="st0" d="M355.3,316.8v-0.3c0-2.8,1.2-4.2,2.5-4.2c0.4,0,0.8,0.1,1,0.3v1c-0.3-0.2-0.6-0.4-1-0.4c-0.8,0-1.6,1-1.6,3.2
		v0.3c0,2.3,0.8,3.2,1.6,3.2c0.3,0,0.6-0.2,0.9-0.4v1c-0.3,0.2-0.6,0.3-1,0.3C356.5,321,355.3,319.7,355.3,316.8z"/>
	<path class="st0" d="M360,309.7h1v4c0.3-0.7,0.8-1.3,1.6-1.3c1.1,0,1.8,0.9,1.8,2.5v6h-1V315c0-1.2-0.4-1.8-1.2-1.8
		s-1.3,0.8-1.3,1.9v5.7h-1V309.7z"/>
	<path class="st0" d="M365.5,316.8v-0.2c0-2.8,1.1-4.3,2.3-4.3c1.3,0,2.2,1.5,2.2,4.1v0.6h-3.5c0.1,2,0.9,2.9,1.8,2.9
		c0.5,0,0.9-0.2,1.4-0.5l0.1,1c-0.6,0.4-1,0.5-1.7,0.5C366.7,321,365.5,319.6,365.5,316.8z M369.1,316.3c0-1.8-0.5-3-1.3-3
		c-0.7,0-1.3,1-1.4,3H369.1z"/>
	<path class="st0" d="M373.3,309.8h1l1.7,9.1l1.7-9.1h1l-2.2,11.2h-1L373.3,309.8z"/>
	<path class="st0" d="M379,316.8v-0.2c0-2.8,1.1-4.3,2.3-4.3c1.3,0,2.2,1.5,2.2,4.1v0.6h-3.5c0.1,2,0.9,2.9,1.8,2.9
		c0.5,0,0.9-0.2,1.4-0.5l0.1,1c-0.6,0.4-1,0.5-1.7,0.5C380.2,321,379,319.6,379,316.8z M382.6,316.3c0-1.8-0.5-3-1.3-3
		c-0.7,0-1.3,1-1.4,3H382.6z"/>
	<path class="st0" d="M384.7,312.5h1v1.2c0.3-0.7,0.9-1.3,1.8-1.3v1.1h0c-1,0-1.7,0.6-1.7,2v5.3h-1V312.5z"/>
	<path class="st0" d="M387.9,320.6v-1c0.6,0.3,1.1,0.5,1.6,0.5c0.6,0,1.1-0.4,1.1-1.1v0c0-0.5-0.3-1-1.2-1.9
		c-1.1-1.1-1.6-1.8-1.6-2.7v0c0-1.2,0.9-2,2-2c0.5,0,0.9,0.1,1.4,0.3v1c-0.5-0.2-0.9-0.3-1.4-0.3c-0.6,0-1,0.4-1,1v0
		c0,0.5,0.3,0.9,1.2,1.9c1.1,1.1,1.5,1.8,1.5,2.7v0c0,1.3-0.9,2-2,2C388.9,321,388.4,320.8,387.9,320.6z"/>
	<path class="st0" d="M392.7,309.7h1v1.3h-1V309.7z M392.7,312.5h1v8.4h-1V312.5z"/>
	<path class="st0" d="M395,316.8v-0.2c0-2.6,1.1-4.2,2.4-4.2c1.3,0,2.4,1.6,2.4,4.2v0.2c0,2.6-1.1,4.2-2.4,4.2
		C396.1,321,395,319.4,395,316.8z M398.8,316.8v-0.3c0-2-0.6-3.3-1.4-3.3c-0.8,0-1.4,1.2-1.4,3.3v0.3c0,2,0.6,3.3,1.4,3.3
		C398.1,320.1,398.8,318.8,398.8,316.8z"/>
	<path class="st0" d="M400.9,312.5h1v1.2c0.3-0.7,0.8-1.3,1.6-1.3c1.1,0,1.8,0.9,1.8,2.5v6h-1V315c0-1.2-0.4-1.8-1.2-1.8
		s-1.3,0.8-1.3,1.9v5.7h-1V312.5z"/>
	<path class="st0" d="M408.9,318.4v-0.2c0-1.6,0.8-2.7,2.1-2.7c0.5,0,0.9,0.1,1.3,0.3V315c0-1.1-0.5-1.7-1.5-1.7
		c-0.5,0-1,0.1-1.5,0.4v-1c0.5-0.2,1-0.4,1.6-0.4c0.7,0,1.3,0.2,1.7,0.6c0.4,0.4,0.6,1.1,0.6,1.9v5.9h-1v-1.1
		c-0.3,0.8-0.8,1.3-1.6,1.3C409.6,321,408.9,319.9,408.9,318.4z M412.3,318.4v-1.6c-0.4-0.2-0.7-0.3-1.1-0.3c-0.8,0-1.3,0.7-1.3,1.8
		v0.2c0,1,0.4,1.8,1.1,1.8C411.7,320.1,412.3,319.3,412.3,318.4z"/>
	<path class="st0" d="M414.6,318.5v-6h1v5.8c0,1.2,0.4,1.8,1.2,1.8c0.7,0,1.3-0.8,1.3-1.9v-5.7h1v8.4h-1v-1.2
		c-0.3,0.7-0.8,1.3-1.6,1.3C415.3,321,414.6,320.1,414.6,318.5z"/>
	<path class="st0" d="M420.7,313.3H420v-0.9h0.7v-0.9c0-0.7,0.2-1.2,0.5-1.5c0.3-0.3,0.7-0.4,1.2-0.4c0.2,0,0.4,0,0.5,0.1v0.9
		c-0.1,0-0.3,0-0.4,0c-0.6,0-0.9,0.4-0.9,1.2v0.8h1.2v0.9h-1.2v7.5h-1V313.3z"/>
	<path class="st0" d="M427.9,316.2l-2.2-6.4h1.1l1.6,5.1l1.7-5.1h1l-2.2,6.4v4.7h-1V316.2z"/>
	<path class="st0" d="M431,316.8v-0.2c0-2.6,1.1-4.2,2.4-4.2c1.3,0,2.4,1.6,2.4,4.2v0.2c0,2.6-1.1,4.2-2.4,4.2
		C432,321,431,319.4,431,316.8z M434.8,316.8v-0.3c0-2-0.6-3.3-1.4-3.3c-0.8,0-1.4,1.2-1.4,3.3v0.3c0,2,0.6,3.3,1.4,3.3
		C434.1,320.1,434.8,318.8,434.8,316.8z"/>
	<path class="st0" d="M436.9,318.5v-6h1v5.8c0,1.2,0.4,1.8,1.2,1.8s1.3-0.8,1.3-1.9v-5.7h1v8.4h-1v-1.2c-0.3,0.7-0.8,1.3-1.6,1.3
		C437.6,321,436.9,320.1,436.9,318.5z"/>
	<path class="st0" d="M443,319.4v-6.1h-0.7v-0.9h0.7v-2.3h1v2.3h1.2v0.9H444v5.9c0,0.6,0.3,0.8,0.8,0.8c0.1,0,0.3,0,0.5-0.1v0.9
		c-0.2,0.1-0.5,0.1-0.7,0.1C443.6,320.9,443,320.6,443,319.4z"/>
	<path class="st0" d="M446.3,318.5v-6h1v5.8c0,1.2,0.4,1.8,1.2,1.8s1.3-0.8,1.3-1.9v-5.7h1v8.4h-1v-1.2c-0.3,0.7-0.8,1.3-1.6,1.3
		C447,321,446.3,320.1,446.3,318.5z"/>
	<path class="st0" d="M453.1,319.4v1.4h-1v-11.2h1v4.3c0.3-0.8,0.8-1.6,1.6-1.6c1.1,0,2,1.3,2,4.1v0.4c0,2.8-0.9,4.1-2,4.1
		C453.9,321,453.4,320.2,453.1,319.4z M455.8,316.8v-0.3c0-2.1-0.6-3.2-1.3-3.2c-0.7,0-1.4,1.1-1.4,3.2v0.4c0,2,0.7,3.2,1.4,3.2
		C455.2,320.1,455.8,318.9,455.8,316.8z"/>
	<path class="st0" d="M457.7,316.8v-0.2c0-2.8,1.1-4.3,2.3-4.3c1.3,0,2.2,1.5,2.2,4.1v0.6h-3.5c0.1,2,0.9,2.9,1.8,2.9
		c0.5,0,0.9-0.2,1.4-0.5l0.1,1c-0.6,0.4-1,0.5-1.7,0.5C459,321,457.7,319.6,457.7,316.8z M461.3,316.3c0-1.8-0.5-3-1.3-3
		c-0.7,0-1.3,1-1.4,3H461.3z"/>
	<path class="st0" d="M463.4,312.5h1.3v1.5h-1.3V312.5z M463.4,319.3h1.3v1.5h-1.3V319.3z"/>
	<path class="st0" d="M469.3,311.8l-1.1,0.4v-1.9l1.7-0.5h1.4v11.2h-1.9V311.8z"/>
	<path class="st0" d="M472.1,320.7v-1.8c0.5,0.2,0.8,0.3,1.4,0.3c0.8,0,1.4-0.6,1.4-1.6v-0.1c0-1.2-0.7-1.6-1.9-1.7v-1.3l1.8-2.8
		h-2.5v-1.9h4.4v1.7l-1.8,2.9c1.1,0.4,1.9,1.2,1.9,2.9v0.2c0,2.2-1.3,3.5-3,3.5C473.1,321,472.6,320.9,472.1,320.7z"/>
	<path class="st0" d="M477.4,315.6V315c0-3.8,0.9-5.4,2.7-5.4c1.7,0,2.7,1.6,2.7,5.4v0.6c0,3.8-1,5.4-2.7,5.4
		C478.3,321,477.4,319.4,477.4,315.6z M480.9,315.6V315c0-3.1-0.4-3.6-0.8-3.6c-0.5,0-0.8,0.5-0.8,3.6v0.6c0,3.1,0.4,3.6,0.8,3.6
		C480.5,319.2,480.9,318.7,480.9,315.6z"/>
	<path class="st0" d="M486,315.6V315c0-3.8,0.9-5.4,2.7-5.4c1.7,0,2.7,1.6,2.7,5.4v0.6c0,3.8-1,5.4-2.7,5.4
		C486.9,321,486,319.4,486,315.6z M489.5,315.6V315c0-3.1-0.4-3.6-0.8-3.6c-0.5,0-0.8,0.5-0.8,3.6v0.6c0,3.1,0.4,3.6,0.8,3.6
		C489.1,319.2,489.5,318.7,489.5,315.6z"/>
	<path class="st0" d="M492.1,315.6V315c0-3.8,0.9-5.4,2.7-5.4c1.7,0,2.7,1.6,2.7,5.4v0.6c0,3.8-1,5.4-2.7,5.4
		C493,321,492.1,319.4,492.1,315.6z M495.6,315.6V315c0-3.1-0.4-3.6-0.8-3.6c-0.5,0-0.8,0.5-0.8,3.6v0.6c0,3.1,0.4,3.6,0.8,3.6
		C495.2,319.2,495.6,318.7,495.6,315.6z"/>
	<path class="st0" d="M498.2,315.6V315c0-3.8,0.9-5.4,2.7-5.4c1.7,0,2.7,1.6,2.7,5.4v0.6c0,3.8-1,5.4-2.7,5.4
		C499.2,321,498.2,319.4,498.2,315.6z M501.7,315.6V315c0-3.1-0.4-3.6-0.8-3.6c-0.5,0-0.8,0.5-0.8,3.6v0.6c0,3.1,0.4,3.6,0.8,3.6
		C501.4,319.2,501.7,318.7,501.7,315.6z"/>
	<path class="st0" d="M506.5,309.8h1.9l1,7.2l1-7.2h1.9l-1.9,11.1h-2L506.5,309.8z"/>
	<path class="st0" d="M512.8,309.7h1.9v1.9h-1.9V309.7z M512.9,312.4h1.8v8.5h-1.8V312.4z"/>
	<path class="st0" d="M515.5,316.8v-0.4c0-2.7,1.2-4.2,2.5-4.2c1.4,0,2.4,1.5,2.4,4.3v1h-3.1c0.1,1.3,0.7,1.8,1.3,1.8
		c0.6,0,0.9-0.2,1.5-0.6l0.1,1.7c-0.6,0.4-1.1,0.6-1.8,0.6C516.8,321,515.5,319.6,515.5,316.8z M518.7,316c0-1.4-0.2-2.1-0.6-2.1
		c-0.4,0-0.7,0.6-0.7,2.1H518.7z"/>
	<path class="st0" d="M520.8,312.4h1.9l0.6,4.9l0.7-4.9h1.4l0.7,4.9l0.6-4.9h1.8l-1.4,8.5h-1.7l-0.8-4.8l-0.7,4.8h-1.7L520.8,312.4z
		"/>
	<path class="st0" d="M529.1,320.6v-1.8c0.6,0.3,1.2,0.6,1.6,0.6c0.4,0,0.7-0.3,0.7-0.7c0-0.3-0.1-0.6-0.9-1.4
		c-0.8-0.8-1.4-1.6-1.4-2.7v0c0-1.4,0.9-2.3,2.4-2.3c0.5,0,0.9,0.1,1.4,0.2v1.8c-0.4-0.2-0.8-0.4-1.3-0.4c-0.5,0-0.7,0.2-0.7,0.6
		c0,0.3,0.1,0.6,1,1.4c1,1,1.4,1.7,1.4,2.7v0c0,1.5-1,2.4-2.3,2.4C530.3,321,529.6,320.9,529.1,320.6z"/>
</g>
<g>
	<path class="st0" d="M329.5,333.7h3.7V351h-3.7V333.7z"/>
	<path class="st0" d="M334.5,337.6h3.6v1.5c0.5-0.9,1.2-1.8,2.5-1.8c1.7,0,2.6,1.4,2.6,3.4V351h-3.6v-9.3c0-0.7-0.3-1.1-0.7-1.1
		c-0.4,0-0.8,0.4-0.8,1.1v9.3h-3.6V337.6z"/>
	<path class="st0" d="M344.1,350.6v-3.4c1.1,0.6,2,1,2.7,1c0.5,0,0.8-0.3,0.8-0.8v0c0-0.4-0.2-0.7-1.2-1.7c-1.4-1.2-2.5-2.4-2.5-4.4
		v0c0-2.4,1.6-3.8,4-3.8c1,0,1.7,0.1,2.6,0.4v3.5c-0.8-0.4-1.6-0.7-2.3-0.7c-0.5,0-0.8,0.3-0.8,0.7v0c0,0.4,0.3,0.7,1.3,1.6
		c1.5,1.3,2.4,2.4,2.4,4.4v0c0,2.4-1.7,4-3.9,4C346.2,351.3,345,351,344.1,350.6z"/>
	<path class="st0" d="M352.3,353.9v-3.2c1,0.3,2.1,0.6,3,0.6c1.2,0,1.9-0.6,1.9-1.9v-1c-0.6,0.9-1.3,1.8-2.5,1.8
		c-1.6,0-2.9-1.4-2.9-6v-0.5c0-4.7,1.3-6.2,2.9-6.2c1.3,0,1.9,0.8,2.4,1.8v-1.5h3.6v11.7c0,1.7-0.4,2.9-1.2,3.7
		c-0.9,0.9-2.2,1.3-3.9,1.3C354.3,354.4,353.3,354.2,352.3,353.9z M357.2,344v-0.5c0-2-0.3-2.9-0.9-2.9c-0.6,0-0.9,0.9-0.9,2.9v0.5
		c0,2,0.3,2.9,0.9,2.9C356.9,346.9,357.2,346,357.2,344z"/>
	<path class="st0" d="M361.8,344.8V344c0-4.3,1.9-6.6,4.5-6.6c2.6,0,4.2,2.3,4.2,6.7v1.8h-5.1c0.2,1.6,0.9,2.2,1.9,2.2
		c0.9,0,1.8-0.4,2.6-1l0.2,3.2c-1,0.6-2.1,1-3.4,1C363.8,351.3,361.8,349.1,361.8,344.8z M367.1,343.4c0-2.1-0.3-2.9-0.9-2.9
		c-0.5,0-0.9,0.6-1,2.9H367.1z"/>
	<path class="st0" d="M371.1,350.6v-3.4c1.1,0.6,2,1,2.7,1c0.5,0,0.8-0.3,0.8-0.8v0c0-0.4-0.2-0.7-1.2-1.7c-1.4-1.2-2.5-2.4-2.5-4.4
		v0c0-2.4,1.6-3.8,4-3.8c1,0,1.7,0.1,2.6,0.4v3.5c-0.8-0.4-1.6-0.7-2.3-0.7c-0.5,0-0.8,0.3-0.8,0.7v0c0,0.4,0.3,0.7,1.3,1.6
		c1.5,1.3,2.4,2.4,2.4,4.4v0c0,2.4-1.7,4-3.9,4C373.1,351.3,372,351,371.1,350.6z"/>
	<path class="st0" d="M378.5,347.3v-0.4c0-3,1.3-4.2,3.1-4.2c0.7,0,1.3,0.2,1.8,0.5v-0.5c0-1.2-0.6-1.9-1.8-1.9
		c-0.8,0-1.8,0.3-2.4,0.7v-3.4c1-0.4,2-0.6,3.2-0.6c1.5,0,2.6,0.4,3.3,1.1c0.8,0.8,1.2,2.1,1.2,3.7v8.7h-3.6v-1.3
		c-0.5,1-1.3,1.5-2.2,1.5C379.6,351.3,378.5,349.9,378.5,347.3z M383.4,347.4v-2.1c-0.2-0.1-0.5-0.2-0.8-0.2c-0.5,0-0.8,0.5-0.8,1.5
		v0.5c0,1,0.3,1.4,0.8,1.4C383,348.6,383.4,348.2,383.4,347.4z"/>
	<path class="st0" d="M388.1,337.6h3.6v1.5c0.5-1,1.3-1.8,2.5-1.8c1.2,0,1.9,0.7,2.3,1.7c0.5-0.8,1.3-1.7,2.6-1.7
		c1.6,0,2.7,1.3,2.7,3.4V351h-3.6v-9.3c0-0.7-0.3-1.1-0.7-1.1c-0.4,0-0.8,0.4-0.8,1.1v9.3h-3.6v-9.3c0-0.7-0.3-1.1-0.7-1.1
		c-0.5,0-0.8,0.4-0.8,1.1v9.3h-3.6V337.6z"/>
	<path class="st0" d="M403.3,348.5v-7.9h-0.7v-2.9h0.7v-3.3h3.6v3.3h1.5v2.9h-1.5v6.8c0,0.5,0.2,0.7,0.7,0.7c0.2,0,0.5-0.1,0.8-0.2
		v2.9c-0.6,0.3-1.3,0.5-2.1,0.5C404.6,351.3,403.3,350.6,403.3,348.5z"/>
	<path class="st0" d="M409.4,337.6h3.9v4h-3.9V337.6z M409.4,347h3.9v4h-3.9V347z"/>
</g>
<g>
	<path class="st0" d="M330.9,178.3h4.9c6.7,0,10.5,4.9,10.5,14.6v1c0,9.7-3.8,14.6-10.5,14.6h-4.9V178.3z M336.1,183.1v20.5h0.2
		c2.5,0,4.6-2.2,4.6-9.7v-1c0-7.5-2.1-9.7-4.6-9.7H336.1z"/>
	<path class="st0" d="M348.7,178.1h5.1v5.1h-5.1V178.1z M348.7,185.4h5v23.1h-5V185.4z"/>
	<path class="st0" d="M356.1,197.5v-1.1c0-7.4,3.2-11.4,7-11.4c4,0,6.5,4,6.5,11.6v2.7h-8.4c0.3,3.6,1.8,4.9,3.5,4.9
		c1.5,0,2.5-0.6,4-1.7l0.4,4.7c-1.8,1.2-3.1,1.8-5,1.8C359.7,208.9,356.1,205,356.1,197.5z M364.8,195.3c0-3.9-0.6-5.7-1.8-5.7
		c-1.2,0-1.9,1.6-2,5.7H364.8z"/>
	<path class="st0" d="M378.9,213.4v-4.7c1.4,0.5,3.2,0.9,4.3,0.9c2.3,0,3.7-0.9,3.7-3.6v-2.3c-0.7,1.4-1.8,3.3-4.1,3.3
		c-2.7,0-4.8-2.8-4.8-10.9v-0.3c0-8.2,2.1-10.9,4.8-10.9c2.2,0,3.3,1.8,4.1,3.2v-2.8h5v21.1c0,2.6-0.6,4.4-2,5.7
		c-1.4,1.4-3.5,2-6.1,2C381.8,214.1,380.6,213.9,378.9,213.4z M386.9,196L386.9,196c0-4.2-0.8-6.3-2-6.3c-1.2,0-1.9,2.1-1.9,6.2v0.1
		c0,4.1,0.7,6.2,1.9,6.2C386.1,202.2,386.9,200.2,386.9,196z"/>
	<path class="st0" d="M394.2,197.5v-1.1c0-7.4,3.2-11.4,7-11.4c4,0,6.5,4,6.5,11.6v2.7h-8.4c0.3,3.6,1.8,4.9,3.5,4.9
		c1.5,0,2.5-0.6,4-1.7l0.4,4.7c-1.8,1.2-3.1,1.8-5,1.8C397.8,208.9,394.2,205,394.2,197.5z M402.9,195.3c0-3.9-0.6-5.7-1.8-5.7
		c-1.2,0-1.9,1.6-2,5.7H402.9z"/>
	<path class="st0" d="M410.2,189.5h-1.4v-4.1h1.4v-1.7c0-1.9,0.5-3.3,1.4-4.2c1-1,2.5-1.5,4.4-1.5c0.9,0,1.4,0,1.9,0.2v4.2
		c-0.2,0-0.3,0-0.6,0c-1.2,0-2,0.7-2,2.1v0.9h2.6v4.1h-2.6v19h-5V189.5z"/>
	<path class="st0" d="M418.5,202v-0.7c0-5.2,2-7.3,5.1-7.3c1.1,0,2,0.3,3,0.9v-1.4c0-2.4-1.1-3.6-3.2-3.6c-1.3,0-2.7,0.5-3.8,1.1
		v-4.8c1.5-0.7,3.3-1,4.6-1c2.5,0,4.1,0.6,5.4,1.9c1.4,1.4,2,3.4,2,6.2v15.3h-5V206c-0.9,1.9-2.1,2.8-3.8,2.8
		C420.3,208.8,418.5,206.3,418.5,202z M419.9,178.7h4.5v4.7h-4.5V178.7z M426.6,202.4v-4c-0.4-0.2-1.2-0.5-1.6-0.5
		c-1,0-1.7,0.9-1.7,3.1v0.6c0,2.3,0.7,3,1.6,3C425.7,204.6,426.6,203.8,426.6,202.4z M426,178.7h4.5v4.7H426V178.7z"/>
	<path class="st0" d="M434.2,178.1h5v10c0.9-1.8,2-3.2,4.1-3.2c2.9,0,4.4,2.5,4.4,6v17.5h-5v-16.3c0-1.7-0.6-2.6-1.7-2.6
		c-1,0-1.8,0.9-1.8,2.6v16.3h-5V178.1z"/>
	<path class="st0" d="M450.4,185.4h5v2.9c0.7-2,1.8-3.3,3.7-3.1v6.1H459c-2.4,0-3.6,1.6-3.6,4.9v12.3h-5V185.4z"/>
	<path class="st0" d="M461.1,178.1h5v30.4h-5V178.1z"/>
	<path class="st0" d="M469,178.1h5.1v5.1H469V178.1z M469.1,185.4h5v23.1h-5V185.4z"/>
	<path class="st0" d="M476.5,197.6v-1.4c0-7.4,3.1-11.3,7.2-11.3c1.5,0,2.1,0.1,3.2,0.6v5.2c-0.9-0.5-1.6-0.9-2.5-0.9
		c-1.6,0-2.7,1.6-2.7,6.2v1.6c0,4.5,1.2,6.2,2.8,6.2c0.7,0,1.6-0.4,2.5-1v5c-1.2,0.6-2,0.9-3.3,0.9
		C479.4,208.9,476.5,205.1,476.5,197.6z"/>
	<path class="st0" d="M489.2,178.1h5v10c0.9-1.8,2-3.2,4.1-3.2c2.9,0,4.4,2.5,4.4,6v17.5h-5v-16.3c0-1.7-0.6-2.6-1.7-2.6
		c-1,0-1.8,0.9-1.8,2.6v16.3h-5V178.1z"/>
	<path class="st0" d="M504.7,207.8v-5c1.7,0.9,3.2,1.5,4.3,1.5c1.2,0,1.9-0.7,1.9-1.9c0-0.9-0.4-1.7-2.6-3.8
		c-2.3-2.3-3.9-4.4-3.9-7.3v-0.1c0-3.8,2.6-6.3,6.5-6.3c1.4,0,2.5,0.2,3.8,0.6v5c-1.1-0.6-2.3-1-3.5-1c-1.2,0-1.9,0.6-1.9,1.6
		c0,0.9,0.4,1.5,2.7,3.8c2.8,2.8,3.7,4.6,3.7,7.2v0.1c0,4-2.8,6.6-6.4,6.6C507.8,208.9,506.1,208.5,504.7,207.8z"/>
	<path class="st0" d="M517.9,204.5v-15h-1.4v-4.1h1.4v-5.9h5v5.9h2.7v4.1h-2.7v13.3c0,1,0.5,1.4,1.4,1.4c0.4,0,0.8-0.1,1.2-0.3v4.1
		c-0.8,0.4-2,0.8-3,0.8C520.2,208.8,517.9,208,517.9,204.5z"/>
	<path class="st0" d="M526.7,197.5v-1.1c0-7.4,3.2-11.4,7-11.4c4,0,6.5,4,6.5,11.6v2.7h-8.4c0.3,3.6,1.8,4.9,3.5,4.9
		c1.5,0,2.5-0.6,4-1.7l0.4,4.7c-1.8,1.2-3.1,1.8-5,1.8C530.3,208.9,526.7,205,526.7,197.5z M535.4,195.3c0-3.9-0.6-5.7-1.8-5.7
		c-1.2,0-1.9,1.6-2,5.7H535.4z"/>
	<path class="st0" d="M330.9,215.2h10.9v5h-5.7v7.6h5v5h-5v12.6h-5.2V215.2z"/>
	<path class="st0" d="M343.6,222.3h5v2.9c0.7-2,1.8-3.3,3.7-3.1v6.1h-0.1c-2.4,0-3.6,1.6-3.6,4.9v12.3h-5V222.3z"/>
	<path class="st0" d="M353.2,234.6v-1.4c0-7.4,3-11.3,7.1-11.3s7.1,3.8,7.1,11.3v1.4c0,7.4-3,11.3-7.1,11.3S353.2,242,353.2,234.6z
		 M362.3,234.7v-1.6c0-4.6-0.8-6.6-2-6.6c-1.3,0-2,2.1-2,6.6v1.6c0,4.5,0.8,6.6,2,6.6C361.6,241.3,362.3,239.2,362.3,234.7z"/>
	<path class="st0" d="M369.8,222.3h5v2.8c0.9-1.8,2-3.2,4.1-3.2c2.9,0,4.4,2.5,4.4,6v17.5h-5v-16.3c0-1.7-0.6-2.6-1.7-2.6
		c-1,0-1.8,0.9-1.8,2.6v16.3h-5V222.3z"/>
	<path class="st0" d="M386.3,241.5v-15H385v-4.1h1.4v-5.9h5v5.9h2.7v4.1h-2.7v13.3c0,1,0.5,1.4,1.4,1.4c0.4,0,0.8-0.1,1.2-0.3v4.1
		c-0.8,0.4-2,0.8-3,0.8C388.6,245.7,386.3,244.9,386.3,241.5z"/>
	<path class="st0" d="M402.6,234.9v-2.1c0-8.2,2.1-10.9,4.9-10.9c2.2,0,3.2,1.9,4,3.2V215h5v30.4h-5v-2.9c-0.7,1.4-1.8,3.3-4,3.3
		C404.7,245.9,402.6,243.2,402.6,234.9z M411.5,234.6v-1.6c0-4.1-0.7-6.3-2-6.3c-1.3,0-1.9,2.2-1.9,6.3v1.6c0,4.1,0.6,6.3,1.9,6.3
		C410.8,241,411.5,238.8,411.5,234.6z"/>
	<path class="st0" d="M418.8,234.5v-1.1c0-7.4,3.2-11.4,7-11.4c4,0,6.5,4,6.5,11.6v2.7h-8.4c0.3,3.6,1.8,4.9,3.5,4.9
		c1.5,0,2.5-0.6,4-1.7l0.4,4.7c-1.8,1.2-3.1,1.8-5,1.8C422.4,245.9,418.8,241.9,418.8,234.5z M427.5,232.2c0-3.9-0.6-5.7-1.8-5.7
		c-1.2,0-1.9,1.6-2,5.7H427.5z"/>
	<path class="st0" d="M434.3,222.3h5v2.9c0.7-2,1.8-3.3,3.7-3.1v6.1h-0.1c-2.4,0-3.6,1.6-3.6,4.9v12.3h-5V222.3z"/>
	<path class="st0" d="M450.5,215.2h5.3l2.2,18.5l2.6-18.5h4.8l2.6,18.5l2.2-18.5h5.2l-4.5,30.3h-5.5l-2.5-17.9l-2.5,17.9H455
		L450.5,215.2z"/>
	<path class="st0" d="M475.6,234.5v-1.1c0-7.4,3.2-11.4,7-11.4c4,0,6.5,4,6.5,11.6v2.7h-8.4c0.3,3.6,1.8,4.9,3.5,4.9
		c1.5,0,2.5-0.6,4-1.7l0.4,4.7c-1.8,1.2-3.1,1.8-5,1.8C479.2,245.9,475.6,241.9,475.6,234.5z M484.3,232.2c0-3.9-0.6-5.7-1.8-5.7
		c-1.2,0-1.9,1.6-2,5.7H484.3z"/>
	<path class="st0" d="M491.1,215h5v30.4h-5V215z"/>
	<path class="st0" d="M499.6,241.5v-15h-1.4v-4.1h1.4v-5.9h5v5.9h2.7v4.1h-2.7v13.3c0,1,0.5,1.4,1.4,1.4c0.4,0,0.8-0.1,1.2-0.3v4.1
		c-0.8,0.4-2,0.8-3,0.8C501.9,245.7,499.6,244.9,499.6,241.5z"/>
</g>
<g>
	<path class="st0" d="M335,373.2l-5.3,1.6v-10.7l8.5-2.6h7.9V413h-11V373.2z"/>
	<path class="st0" d="M349.5,419.7c5.1-1.2,6.7-4,6.6-6.7h-5.6v-11.9h11.8v9.7c0,7.9-4.6,12-11.8,13.1L349.5,419.7z"/>
	<path class="st0" d="M367.6,373.2l-5.3,1.6v-10.7l8.5-2.6h7.9V413h-11V373.2z"/>
	<path class="st0" d="M382.8,412.4v-10.6c1.9,1,4.1,1.5,6.6,1.5c3.7,0,6.2-2.7,6.2-7.3v-0.4c0-4.4-2.1-6.1-4.8-6.1
		c-1.3,0-2.2,0.1-3.3,0.6l-5.1-2.9l1.3-25.6h20.8v10.4H392l-0.5,8.1c0.6-0.1,1.4-0.1,2.4-0.1c6.8,0,12.7,4,12.7,15.3v0.6
		c0,11.7-6.5,17.8-15.9,17.8C387.6,413.8,384.7,413.2,382.8,412.4z"/>
	<path class="st0" d="M423,404.3h-14.6v-7.9l14-34.8h10.9v33.4h4.2v9.3h-4.2v8.7H423V404.3z M423.1,394.9v-16.4l-5.9,16.4H423.1z"/>
	<path class="st0" d="M451.2,361.6h10.7l6.1,17.2l6-17.2h10.7V413H474v-27.5l-6,16.8h-0.1l-6.1-16.8V413h-10.6V361.6z"/>
	<path class="st0" d="M488.6,360.9h10.9v9.4h-10.9V360.9z M488.6,373.3h10.7V413h-10.7V373.3z"/>
	<path class="st0" d="M502.6,394.7v-3.1c0-12.6,5.6-19.2,13.6-19.2c7.9,0,13.4,6.6,13.4,19.2v3.1c0,12.6-5.5,19.2-13.5,19.2
		C508.2,413.9,502.6,407.3,502.6,394.7z M519,394.8v-3.3c0-6.9-1-9.6-2.9-9.6c-1.9,0-2.8,2.7-2.8,9.6v3.3c0,6.9,0.9,9.6,2.8,9.6
		C518,404.4,519,401.7,519,394.8z"/>
	<path class="st0" d="M532.7,401.1h11.8V413h-11.8V401.1z"/>
</g>
<g>
	<path class="st0" d="M332.3,487.1h7.1v3.5H336v3.4h3v3.5h-3v6.9h-3.7V487.1z"/>
	<path class="st0" d="M339.4,500.7v-0.4c0-3,1.3-4.2,3.1-4.2c0.7,0,1.3,0.2,1.8,0.5V496c0-1.2-0.6-1.9-1.8-1.9
		c-0.8,0-1.8,0.3-2.4,0.7v-3.4c1-0.4,2-0.6,3.2-0.6c1.5,0,2.6,0.4,3.3,1.1c0.8,0.8,1.2,2.1,1.2,3.7v8.7h-3.6v-1.3
		c-0.5,1-1.3,1.5-2.2,1.5C340.6,504.7,339.4,503.2,339.4,500.7z M344.3,500.8v-2.1c-0.2-0.1-0.5-0.2-0.8-0.2c-0.5,0-0.8,0.5-0.8,1.5
		v0.5c0,1,0.3,1.4,0.8,1.4C343.9,502,344.3,501.6,344.3,500.8z"/>
	<path class="st0" d="M348.8,498.2v-1c0-4.2,2-6.5,4.6-6.5c0.9,0,1.5,0.1,2.2,0.4v3.5c-0.5-0.3-1-0.5-1.5-0.5
		c-0.9,0-1.6,0.9-1.6,3.1v0.8c0,2.3,0.6,3.1,1.6,3.1c0.5,0,1-0.2,1.5-0.5v3.4c-0.7,0.4-1.3,0.6-2.2,0.6
		C350.6,504.7,348.8,502.5,348.8,498.2z"/>
	<path class="st0" d="M356.1,498.1v-0.8c0-4.3,1.9-6.6,4.5-6.6c2.6,0,4.2,2.3,4.2,6.7v1.8h-5.1c0.2,1.6,0.9,2.2,1.9,2.2
		c0.9,0,1.8-0.4,2.6-1l0.2,3.2c-1,0.6-2.1,1-3.4,1C358.2,504.7,356.1,502.5,356.1,498.1z M361.4,496.8c0-2.1-0.3-2.9-0.9-2.9
		c-0.5,0-0.9,0.6-1,2.9H361.4z"/>
	<path class="st0" d="M369.3,502.9v1.6h-3.6v-17.6h3.6v5.7c0.5-0.9,1.2-1.8,2.4-1.8c1.6,0,2.9,1.4,2.9,6.3v1.3
		c0,4.9-1.3,6.3-2.9,6.3C370.5,504.7,369.8,503.8,369.3,502.9z M371.1,498.4V497c0-2-0.3-3-0.9-3c-0.6,0-0.9,0.9-0.9,3v1.4
		c0,2,0.3,3,0.9,3C370.8,501.4,371.1,500.4,371.1,498.4z"/>
	<path class="st0" d="M375.6,498.3v-1c0-4.3,1.9-6.5,4.5-6.5c2.6,0,4.5,2.2,4.5,6.5v1c0,4.3-1.8,6.5-4.5,6.5
		C377.4,504.8,375.6,502.5,375.6,498.3z M381,498.3v-1.1c0-2.3-0.3-3.2-1-3.2c-0.6,0-0.9,0.9-0.9,3.2v1.1c0,2.3,0.3,3.2,0.9,3.2
		C380.7,501.5,381,500.6,381,498.3z"/>
	<path class="st0" d="M385.4,498.3v-1c0-4.3,1.9-6.5,4.5-6.5c2.6,0,4.5,2.2,4.5,6.5v1c0,4.3-1.8,6.5-4.5,6.5
		C387.3,504.8,385.4,502.5,385.4,498.3z M390.9,498.3v-1.1c0-2.3-0.3-3.2-1-3.2s-0.9,0.9-0.9,3.2v1.1c0,2.3,0.3,3.2,0.9,3.2
		S390.9,500.6,390.9,498.3z"/>
	<path class="st0" d="M395.5,486.9h3.6v8.7l1.5-4.5h3.7l-2.1,5.5l2.1,7.9h-3.8l-1.1-4.8l-0.4,1.1v3.7h-3.6V486.9z"/>
	<path class="st0" d="M405.1,491h3.9v4h-3.9V491z M405.1,500.4h3.9v4h-3.9V500.4z"/>
	<path class="st0" d="M415.7,503.7c-1.2-1.2-1.8-3.6-1.8-7.3v-0.5c0-7.2,2.5-9,5.5-9c0.9,0,1.7,0.1,2.3,0.3v3.4
		c-0.5-0.3-1.3-0.5-2-0.5c-1.4,0-2.2,0.9-2.3,3.6c0.5-0.4,1.2-0.6,1.9-0.6c1.7,0,3.5,1.1,3.5,5v0.7c0,3.8-1.9,6-4.4,6
		C417.3,504.8,416.4,504.4,415.7,503.7z M419.4,498.9v-0.7c0-1.7-0.5-2.2-1.1-2.2c-0.4,0-0.6,0.1-0.9,0.3v2.3c0,2.3,0.4,3,1,3
		C419,501.6,419.4,500.9,419.4,498.9z"/>
	<path class="st0" d="M423.6,496.3v-1.1c0-5.8,1.7-8.5,4.8-8.5c3,0,4.8,2.7,4.8,8.4v1.1c0,5.8-1.8,8.5-4.8,8.5
		C425.3,504.8,423.6,502.1,423.6,496.3z M429.5,496.5V495c0-4.1-0.5-4.8-1.2-4.8c-0.7,0-1.2,0.7-1.2,4.8v1.5c0,4.1,0.5,4.8,1.2,4.8
		C429.1,501.3,429.5,500.6,429.5,496.5z"/>
	<path class="st0" d="M434.1,500.4h3.9v4h-3.9V500.4z"/>
	<path class="st0" d="M439.8,491l-1.8,0.5v-3.6l2.8-0.9h2.6v17.4h-3.7V491z"/>
	<path class="st0" d="M444.7,496.3v-1.1c0-5.8,1.7-8.5,4.8-8.5c3,0,4.8,2.7,4.8,8.4v1.1c0,5.8-1.8,8.5-4.8,8.5
		C446.4,504.8,444.7,502.1,444.7,496.3z M450.7,496.5V495c0-4.1-0.5-4.8-1.2-4.8c-0.7,0-1.2,0.7-1.2,4.8v1.5c0,4.1,0.5,4.8,1.2,4.8
		C450.2,501.3,450.7,500.6,450.7,496.5z"/>
	<path class="st0" d="M455.2,496.3v-1.1c0-5.8,1.7-8.5,4.8-8.5c3,0,4.8,2.7,4.8,8.4v1.1c0,5.8-1.8,8.5-4.8,8.5
		C456.9,504.8,455.2,502.1,455.2,496.3z M461.2,496.5V495c0-4.1-0.5-4.8-1.2-4.8s-1.2,0.7-1.2,4.8v1.5c0,4.1,0.5,4.8,1.2,4.8
		S461.2,500.6,461.2,496.5z"/>
	<path class="st0" d="M468.8,487.1h3.8l1.4,10.4l1.5-10.4h3.7l-3.2,17.4h-3.9L468.8,487.1z"/>
	<path class="st0" d="M479.7,486.9h3.6v3.2h-3.6V486.9z M479.8,491h3.6v13.4h-3.6V491z"/>
	<path class="st0" d="M484.4,498.1v-0.8c0-4.3,1.9-6.6,4.5-6.6c2.6,0,4.2,2.3,4.2,6.7v1.8h-5.1c0.2,1.6,0.9,2.2,1.9,2.2
		c0.9,0,1.8-0.4,2.6-1l0.2,3.2c-1,0.6-2.1,1-3.4,1C486.4,504.7,484.4,502.5,484.4,498.1z M489.7,496.8c0-2.1-0.3-2.9-0.9-2.9
		c-0.5,0-0.9,0.6-1,2.9H489.7z"/>
	<path class="st0" d="M493.2,491h3.6l0.8,7l0.9-7h2.7l0.9,7l0.9-7h3.5l-2.4,13.4h-3.2l-1.1-6.4l-1.1,6.4h-3.2L493.2,491z"/>
	<path class="st0" d="M507,504v-3.4c1.1,0.6,2,1,2.7,1c0.5,0,0.8-0.3,0.8-0.8v0c0-0.4-0.2-0.7-1.2-1.7c-1.4-1.2-2.5-2.4-2.5-4.4
		v-0.1c0-2.4,1.6-3.8,4-3.8c1,0,1.7,0.1,2.6,0.4v3.5c-0.8-0.4-1.6-0.7-2.3-0.7c-0.5,0-0.8,0.3-0.8,0.7v0c0,0.4,0.3,0.7,1.3,1.6
		c1.5,1.3,2.4,2.4,2.4,4.4v0c0,2.4-1.7,4-3.9,4C509,504.7,507.9,504.4,507,504z"/>
	<path class="st0" d="M334.8,518.6l-3.3-10.9h3.8l1.4,6.1l1.4-6.1h3.7l-3.3,10.9v6.5h-3.7V518.6z"/>
	<path class="st0" d="M340.5,518.9v-1c0-4.3,1.9-6.5,4.5-6.5c2.6,0,4.5,2.2,4.5,6.5v1c0,4.3-1.8,6.5-4.5,6.5
		C342.4,525.4,340.5,523.1,340.5,518.9z M346,518.9v-1.1c0-2.3-0.3-3.2-1-3.2s-0.9,0.9-0.9,3.2v1.1c0,2.3,0.3,3.2,0.9,3.2
		S346,521.2,346,518.9z"/>
	<path class="st0" d="M350.5,522v-10.3h3.6v9.3c0,0.7,0.3,1.1,0.7,1.1c0.4,0,0.8-0.4,0.8-1.1v-9.3h3.6v13.4h-3.6v-1.5
		c-0.5,0.9-1.2,1.8-2.5,1.8C351.4,525.3,350.5,523.9,350.5,522z"/>
	<path class="st0" d="M360.8,522.5v-7.9h-0.7v-2.9h0.7v-3.3h3.6v3.3h1.5v2.9h-1.5v6.8c0,0.5,0.2,0.7,0.7,0.7c0.2,0,0.5-0.1,0.8-0.2
		v2.9c-0.6,0.3-1.3,0.5-2.1,0.5C362.1,525.3,360.8,524.6,360.8,522.5z"/>
	<path class="st0" d="M366.7,522v-10.3h3.6v9.3c0,0.7,0.3,1.1,0.7,1.1c0.4,0,0.8-0.4,0.8-1.1v-9.3h3.6v13.4h-3.6v-1.5
		c-0.5,0.9-1.2,1.8-2.5,1.8C367.6,525.3,366.7,523.9,366.7,522z"/>
	<path class="st0" d="M380.3,523.5v1.6h-3.6v-17.6h3.6v5.7c0.5-0.9,1.2-1.8,2.4-1.8c1.6,0,2.9,1.4,2.9,6.3v1.3
		c0,4.9-1.3,6.3-2.9,6.3C381.4,525.3,380.8,524.5,380.3,523.5z M382,519.1v-1.4c0-2-0.3-3-0.9-3c-0.6,0-0.9,0.9-0.9,3v1.4
		c0,2,0.3,3,0.9,3C381.8,522,382,521.1,382,519.1z"/>
	<path class="st0" d="M386.5,518.8V518c0-4.3,1.9-6.6,4.5-6.6c2.6,0,4.2,2.3,4.2,6.7v1.8H390c0.2,1.6,0.9,2.2,1.9,2.2
		c0.9,0,1.8-0.4,2.6-1l0.2,3.2c-1,0.6-2.1,1-3.4,1C388.6,525.4,386.5,523.1,386.5,518.8z M391.8,517.4c0-2.1-0.3-2.9-0.9-2.9
		c-0.5,0-0.9,0.6-1,2.9H391.8z"/>
	<path class="st0" d="M396.2,511.7h3.9v4h-3.9V511.7z M396.2,521h3.9v4h-3.9V521z"/>
	<path class="st0" d="M414,511.6l-1.8,0.5v-3.6l2.8-0.9h2.6v17.4H414V511.6z"/>
	<path class="st0" d="M418.8,524.8v-3.5c0.8,0.3,1.4,0.5,2.4,0.5c1.2,0,2-0.8,2-2v-0.1c0-1.5-1.1-2.1-3.1-2.3V515l2.8-3.7H419v-3.5
		h7.6v3.3l-3,4c1.7,0.6,3.1,1.8,3.1,4.6v0.2c0,3.5-2.1,5.6-5.1,5.6C420.5,525.3,419.6,525.2,418.8,524.8z"/>
	<path class="st0" d="M427.8,521h3.9v4h-3.9V521z"/>
	<path class="st0" d="M433,524.9v-3.6c0.6,0.3,1.4,0.5,2.2,0.5c1.3,0,2.1-0.9,2.1-2.5v-0.1c0-1.5-0.7-2.1-1.6-2.1
		c-0.4,0-0.7,0-1.1,0.2l-1.7-1l0.4-8.6h6.9v3.5H436l-0.2,2.7c0.2,0,0.5-0.1,0.8-0.1c2.3,0,4.2,1.4,4.2,5.2v0.2c0,3.9-2.2,6-5.3,6
		C434.6,525.3,433.6,525.1,433,524.9z"/>
	<path class="st0" d="M441.6,516.9v-1.1c0-5.8,1.7-8.5,4.8-8.5c3,0,4.8,2.7,4.8,8.4v1.1c0,5.8-1.8,8.5-4.8,8.5
		C443.4,525.4,441.6,522.7,441.6,516.9z M447.6,517.1v-1.5c0-4.1-0.5-4.8-1.2-4.8c-0.7,0-1.2,0.7-1.2,4.8v1.5c0,4.1,0.5,4.8,1.2,4.8
		C447.1,521.9,447.6,521.2,447.6,517.1z"/>
	<path class="st0" d="M452.1,516.9v-1.1c0-5.8,1.7-8.5,4.8-8.5c3,0,4.8,2.7,4.8,8.4v1.1c0,5.8-1.8,8.5-4.8,8.5
		C453.9,525.4,452.1,522.7,452.1,516.9z M458.1,517.1v-1.5c0-4.1-0.5-4.8-1.2-4.8s-1.2,0.7-1.2,4.8v1.5c0,4.1,0.5,4.8,1.2,4.8
		S458.1,521.2,458.1,517.1z"/>
	<path class="st0" d="M465.8,507.7h3.8l1.4,10.4l1.5-10.4h3.7l-3.2,17.4H469L465.8,507.7z"/>
	<path class="st0" d="M476.7,507.5h3.6v3.2h-3.6V507.5z M476.7,511.7h3.6v13.4h-3.6V511.7z"/>
	<path class="st0" d="M481.3,518.8V518c0-4.3,1.9-6.6,4.5-6.6c2.6,0,4.2,2.3,4.2,6.7v1.8h-5.1c0.2,1.6,0.9,2.2,1.9,2.2
		c0.9,0,1.8-0.4,2.6-1l0.2,3.2c-1,0.6-2.1,1-3.4,1C483.4,525.4,481.3,523.1,481.3,518.8z M486.6,517.4c0-2.1-0.3-2.9-0.9-2.9
		c-0.5,0-0.9,0.6-1,2.9H486.6z"/>
	<path class="st0" d="M490.1,511.7h3.6l0.8,7l0.9-7h2.7l0.9,7l0.9-7h3.5l-2.4,13.4h-3.2l-1.1-6.4l-1.1,6.4h-3.2L490.1,511.7z"/>
	<path class="st0" d="M503.9,524.6v-3.4c1.1,0.6,2,1,2.7,1c0.5,0,0.8-0.3,0.8-0.8v0c0-0.4-0.2-0.7-1.2-1.7c-1.4-1.2-2.5-2.4-2.5-4.4
		v0c0-2.4,1.6-3.8,4-3.8c1,0,1.7,0.1,2.6,0.4v3.5c-0.8-0.4-1.6-0.7-2.3-0.7c-0.5,0-0.8,0.3-0.8,0.7v0c0,0.4,0.3,0.7,1.3,1.6
		c1.5,1.3,2.4,2.4,2.4,4.4v0c0,2.4-1.7,4-3.9,4C506,525.3,504.8,525.1,503.9,524.6z"/>
</g>
<g>
	<path class="st0" d="M333.1,470.2v-5.4c1.8,1.1,3,1.7,4.6,1.7c1.7,0,2.9-1,2.9-3c0-1-0.3-2.4-2.9-5.2c-3.7-4.1-5-6.2-5-9.7
		c0-4.8,3.1-7.8,7.4-7.8c2,0,3.3,0.4,4.5,0.9v5.4c-1.6-0.9-2.6-1.4-4-1.4c-1.5,0-2.7,0.9-2.7,2.7c0,1.3,0.4,2.1,2.9,5
		c4.1,4.8,5,6.8,5,10c0,4.7-3.3,7.9-7.4,7.9C336.4,471.5,334.6,471,333.1,470.2z"/>
	<path class="st0" d="M346.9,457v-1.6c0-10,3.2-14.7,7.9-14.7s7.9,4.8,7.9,14.7v1.6c0,10-3.2,14.7-7.9,14.7S346.9,466.9,346.9,457z
		 M357.5,457v-1.6c0-7.8-1.1-9.9-2.6-9.9s-2.6,2.2-2.6,9.9v1.6c0,7.8,1.1,9.9,2.6,9.9S357.5,464.7,357.5,457z"/>
	<path class="st0" d="M364.5,470.2v-5.4c1.8,1.1,3,1.7,4.6,1.7c1.7,0,2.9-1,2.9-3c0-1-0.3-2.4-2.9-5.2c-3.7-4.1-5-6.2-5-9.7
		c0-4.8,3.1-7.8,7.4-7.8c2,0,3.3,0.4,4.5,0.9v5.4c-1.6-0.9-2.6-1.4-4-1.4c-1.5,0-2.7,0.9-2.7,2.7c0,1.3,0.4,2.1,2.9,5
		c4.1,4.8,5,6.8,5,10c0,4.7-3.3,7.9-7.4,7.9C367.7,471.5,366,471,364.5,470.2z"/>
	<path class="st0" d="M385.8,441.1h10.9v5H391v7.6h5v5h-5v12.6h-5.2V441.1z"/>
	<path class="st0" d="M399,440.9h5v30.4h-5V440.9z"/>
	<path class="st0" d="M406.7,465.7v-17.5h5v16.3c0,1.7,0.6,2.6,1.7,2.6c1,0,1.8-0.9,1.8-2.6v-16.3h5v23.1h-5v-2.8
		c-0.9,1.8-2,3.2-4.1,3.2C408.2,471.7,406.7,469.2,406.7,465.7z M408.2,441.9h4.5v4.7h-4.5V441.9z M414.2,441.9h4.5v4.7h-4.5V441.9z
		"/>
	<path class="st0" d="M422.6,460.4v-1.4c0-7.4,3.1-11.3,7.2-11.3c1.5,0,2.1,0.1,3.2,0.6v5.2c-0.9-0.5-1.6-0.9-2.5-0.9
		c-1.6,0-2.7,1.6-2.7,6.2v1.6c0,4.5,1.2,6.2,2.8,6.2c0.7,0,1.6-0.4,2.5-1v5c-1.2,0.6-2,0.9-3.3,0.9
		C425.4,471.7,422.6,467.9,422.6,460.4z"/>
	<path class="st0" d="M435.2,440.9h5v10c0.9-1.8,2-3.2,4.1-3.2c2.9,0,4.4,2.5,4.4,6v17.5h-5v-16.3c0-1.7-0.6-2.6-1.7-2.6
		c-1,0-1.8,0.9-1.8,2.6v16.3h-5V440.9z"/>
	<path class="st0" d="M451.8,467.3v-15h-1.4v-4.1h1.4v-5.9h5v5.9h2.7v4.1h-2.7v13.3c0,1,0.5,1.4,1.4,1.4c0.4,0,0.8-0.1,1.2-0.3v4.1
		c-0.8,0.4-2,0.8-3,0.8C454.1,471.6,451.8,470.8,451.8,467.3z"/>
	<path class="st0" d="M461.7,440.9h5v30.4h-5V440.9z"/>
	<path class="st0" d="M469.6,440.9h5.1v5.1h-5.1V440.9z M469.6,448.2h5v23.1h-5V448.2z"/>
	<path class="st0" d="M477.5,448.2h5v2.8c0.9-1.8,2-3.2,4.1-3.2c2.9,0,4.4,2.5,4.4,6v17.5h-5v-16.3c0-1.7-0.6-2.6-1.7-2.6
		c-1,0-1.8,0.9-1.8,2.6v16.3h-5V448.2z"/>
	<path class="st0" d="M494.3,476.2v-4.7c1.4,0.5,3.2,0.9,4.3,0.9c2.3,0,3.7-0.9,3.7-3.6v-2.3c-0.7,1.4-1.8,3.3-4.1,3.3
		c-2.7,0-4.8-2.8-4.8-10.9v-0.3c0-8.2,2.1-10.9,4.8-10.9c2.2,0,3.3,1.8,4.1,3.2v-2.8h5v21.1c0,2.6-0.6,4.4-2,5.7
		c-1.4,1.4-3.5,2-6.1,2C497.1,477,495.9,476.7,494.3,476.2z M502.3,458.9L502.3,458.9c0-4.2-0.8-6.2-2-6.2s-1.9,2.1-1.9,6.2v0.1
		c0,4.1,0.7,6.2,1.9,6.2S502.3,463,502.3,458.9z"/>
	<path class="st0" d="M509.5,460.3v-1.1c0-7.4,3.2-11.4,7-11.4c4,0,6.5,4,6.5,11.6v2.7h-8.4c0.3,3.6,1.8,4.9,3.5,4.9
		c1.5,0,2.5-0.6,4-1.7l0.4,4.7c-1.8,1.2-3.1,1.8-5,1.8C513.1,471.7,509.5,467.8,509.5,460.3z M518.2,458.1c0-3.9-0.6-5.7-1.8-5.7
		c-1.2,0-1.9,1.6-2,5.7H518.2z"/>
</g>
<g>
	<polygon class="st0" points="374.2,73.6 384.1,73.6 384.1,157.7 374.2,157.7 374.2,73.6 	"/>
	<g>
		<path class="st0" d="M351.4,73.6h-19.5l0,84.1l19.5,0c2.4,0,4.3-2,4.3-4.5l0-34.7v-1.8c0-2.6-2.1-4.8-4.6-4.8l0.4,0
			c2.3,0,4.1-1.9,4.1-4.3v-2.8V78.1C355.7,75.6,353.8,73.6,351.4,73.6z M345.9,147.3h-4.1v-29.1h4.1V147.3z M345.9,107.9h-4.1V84
			h4.1V107.9z"/>
		<rect x="341.8" y="84" class="st1" width="4.1" height="24"/>
		<rect x="341.8" y="118.2" class="st1" width="4.1" height="29.1"/>
	</g>
	<g>
		<path class="st0" d="M402.3,73.6v14.6h-9.6c-2.4,0-4.3,2-4.3,4.5l0,60.4c0,2.5,1.9,4.5,4.3,4.5l19.5,0V73.6H402.3z M402.3,147.3
			h-4.1V98.5h4.1V147.3z"/>
		<rect x="398.2" y="98.5" class="st1" width="4.1" height="48.8"/>
	</g>
	<polygon class="st0" points="360,73.6 369.9,73.6 369.9,84 360,84 360,73.6 	"/>
	<polygon class="st0" points="360,88.2 369.9,88.2 369.9,157.7 360,157.7 360,88.2 	"/>
</g>
<g>
	<path class="st0" d="M418.5,100.2h7.6l2.9,21l3-21h7.3l-6.4,35.2H425L418.5,100.2z"/>
	<path class="st0" d="M440.4,100.2h7.4c3.4,0,6.4,0.9,8.5,3c1.8,1.9,2.9,4.6,2.9,8.4v0.5c0,4.8-1.8,7.6-4,9.3l4.6,13.9h-7.9
		l-3.5-11.4h-0.6v11.4h-7.3V100.2z M448,117.5c2.1,0,3.6-1.4,3.6-5v-0.8c0-3.8-1.6-4.9-3.7-4.9h-0.2v10.6H448z"/>
	<path class="st0" d="M470.5,96.8h5.4l-11.4,43.4h-5.4L470.5,96.8z"/>
	<path class="st0" d="M476.1,134.8v-7.1c1.5,0.6,2.9,1,4.7,1c2.4,0,4-1.6,4-4.1v-0.3c0-3-2.3-4.3-6.2-4.6v-4.9l5.6-7.5h-7.6v-7.2
		h15.3v6.6l-6,8.1c3.5,1.2,6.2,3.6,6.2,9.2v0.5c0,7.1-4.2,11.3-10.1,11.3C479.5,135.8,477.7,135.4,476.1,134.8z"/>
	<path class="st0" d="M497.3,133.7c-2.4-2.5-3.6-7.2-3.6-14.8v-1c0-14.5,4.9-18.2,11-18.2c1.8,0,3.3,0.3,4.6,0.7v6.9
		c-1.1-0.6-2.6-1-4-1c-2.8,0-4.5,1.9-4.5,7.2c1-0.8,2.4-1.2,3.8-1.2c3.5,0,7.1,2.3,7.1,10.1v1.4c0,7.8-3.8,12.1-8.8,12.1
		C500.6,135.9,498.8,135.2,497.3,133.7z M504.7,124.1v-1.4c0-3.5-1-4.5-2.3-4.5c-0.7,0-1.3,0.3-1.7,0.6v4.6c0,4.6,0.8,6.1,2,6.1
		C504,129.5,504.7,128.2,504.7,124.1z"/>
	<path class="st0" d="M513.1,118.8v-2.2c0-11.7,3.5-17.1,9.7-17.1c6.1,0,9.6,5.4,9.6,17.1v2.2c0,11.7-3.5,17.1-9.6,17.1
		C516.6,135.9,513.1,130.5,513.1,118.8z M525.1,119.2v-3c0-8.3-0.9-9.8-2.3-9.8c-1.4,0-2.3,1.5-2.3,9.8v3c0,8.2,0.9,9.7,2.3,9.7
		C524.1,128.9,525.1,127.4,525.1,119.2z"/>
	<path class="st0" d="M534.1,109.2v-1.1c0-5,2.4-8.2,6-8.2c3.5,0,5.9,3.2,5.9,8.2v1.1c0,5.1-2.4,8.3-6,8.3
		C536.5,117.4,534.1,114.2,534.1,109.2z M541.4,109.2v-1.1c0-3-0.5-4-1.4-4c-0.8,0-1.3,1-1.3,4v1.1c0,3,0.5,3.9,1.3,3.9
		C540.9,113.1,541.4,112.1,541.4,109.2z"/>
</g>
<rect x="417.9" y="144.6" class="st0" width="118.8" height="13.1"/>
</svg>
