<?xml version="1.0" encoding="utf-8"?>
<!-- Generator: Adobe Illustrator 19.1.0, SVG Export Plug-In . SVG Version: 6.00 Build 0)  -->
<svg version="1.1" id="Ebene_1" xmlns="http://www.w3.org/2000/svg" xmlns:xlink="http://www.w3.org/1999/xlink" x="0px" y="0px"
	 viewBox="0 0 841.9 595.3" style="enable-background:new 0 0 841.9 595.3;" xml:space="preserve">
<style type="text/css">
	.st0{fill:#FFFFFF;}
	.st1{fill:none;}
</style>
<g>
	<path class="st0" d="M358.3,471h1.1l2.3,15.2l2.8-15.2h1l2.8,15.2l2.3-15.2h1.1l-3,17.5h-1l-2.8-15.2l-2.8,15.2h-1L358.3,471z"/>
	<path class="st0" d="M372.6,482.1v-0.2c0-4.5,1.6-6.7,3.5-6.7c1.9,0,3.3,2.3,3.3,6.4v0.8h-5.8c0,3.5,1.5,5.3,3.2,5.3
		c0.8,0,1.4-0.2,2.2-0.8l0.1,1.1c-0.9,0.5-1.5,0.7-2.5,0.7C374.5,488.6,372.6,486.4,372.6,482.1z M378.4,481.4c0-3-1-5.3-2.3-5.3
		c-1.3,0-2.4,1.8-2.5,5.3H378.4z"/>
	<path class="st0" d="M381.7,470.8h1.1v1.7h-1.1V470.8z M381.7,475.3h1v13.1h-1V475.3z"/>
	<path class="st0" d="M385.9,486.2v-9.9h-1.2v-1h1.2v-3.7h1v3.7h2.1v1h-2.1v9.8c0,1.1,0.5,1.4,1.3,1.4c0.2,0,0.6,0,0.8-0.1v1
		c-0.2,0.1-0.6,0.1-0.9,0.1C386.8,488.5,385.9,487.9,385.9,486.2z"/>
	<path class="st0" d="M390.2,482.1v-0.2c0-4.5,1.6-6.7,3.5-6.7c1.9,0,3.3,2.3,3.3,6.4v0.8h-5.8c0,3.5,1.5,5.3,3.2,5.3
		c0.8,0,1.4-0.2,2.2-0.8l0.1,1.1c-0.9,0.5-1.5,0.7-2.5,0.7C392.2,488.6,390.2,486.4,390.2,482.1z M396.1,481.4c0-3-1-5.3-2.3-5.3
		c-1.3,0-2.4,1.8-2.5,5.3H396.1z"/>
	<path class="st0" d="M399.2,475.3h1v1.9c0.5-1.2,1.5-2.2,3-2.1v1.1h0c-1.6,0-3,1-3,3.3v8.8h-1V475.3z"/>
	<path class="st0" d="M404,482.1v-0.2c0-4.5,1.6-6.7,3.5-6.7c1.9,0,3.3,2.3,3.3,6.4v0.8H405c0,3.5,1.5,5.3,3.2,5.3
		c0.8,0,1.4-0.2,2.2-0.8l0.1,1.1c-0.9,0.5-1.5,0.7-2.5,0.7C405.9,488.6,404,486.4,404,482.1z M409.8,481.4c0-3-1-5.3-2.3-5.3
		c-1.3,0-2.4,1.8-2.5,5.3H409.8z"/>
	<path class="st0" d="M417.1,471h5.6v1h-4.5v7.4h4.1v1h-4.1v8h-1.1V471z"/>
	<path class="st0" d="M423.7,482v-0.2c0-4.1,1.7-6.6,3.7-6.6c1.9,0,3.6,2.5,3.6,6.6v0.2c0,4.1-1.7,6.6-3.6,6.6
		C425.4,488.6,423.7,486.1,423.7,482z M430,482v-0.2c0-3.4-1.2-5.7-2.6-5.7c-1.4,0-2.6,2.2-2.6,5.7v0.2c0,3.4,1.2,5.7,2.6,5.7
		C428.8,487.6,430,485.4,430,482z"/>
	<path class="st0" d="M433.1,475.3h1v1.9c0.5-1.2,1.5-2.2,3-2.1v1.1h0c-1.6,0-3,1-3,3.3v8.8h-1V475.3z"/>
	<path class="st0" d="M438.8,475.3h1v1.9c0.4-1.1,1.2-2.1,2.6-2.1c1.4,0,2.1,1,2.5,2.2c0.5-1.1,1.3-2.2,2.8-2.2
		c1.8,0,2.9,1.4,2.9,4.1v9.2h-1v-9.1c0-2.2-0.8-3.3-2-3.3c-1.3,0-2.4,1.4-2.4,3.5v8.9h-1v-9.1c0-2.2-0.8-3.3-2-3.3
		c-1.3,0-2.4,1.4-2.4,3.5v8.9h-1V475.3z"/>
	<path class="st0" d="M452.6,484.6v-0.2c0-2.4,1.2-4.2,3.4-4.2c0.9,0,1.6,0.2,2.2,0.5v-1.6c0-1.8-0.8-2.9-2.4-2.9
		c-0.9,0-1.6,0.2-2.4,0.6v-1c0.7-0.3,1.5-0.6,2.4-0.6c1,0,1.9,0.3,2.5,0.9c0.5,0.5,0.9,1.5,0.9,2.8v9.5h-1v-1.9
		c-0.5,1.3-1.3,2.1-2.6,2.1C453.8,488.6,452.6,486.9,452.6,484.6z M458.1,484.3v-2.6c-0.7-0.3-1.3-0.5-2.1-0.5
		c-1.6,0-2.4,1.3-2.4,3.2v0.2c0,1.8,0.7,3.2,2.1,3.2C457.2,487.7,458.1,486,458.1,484.3z"/>
	<path class="st0" d="M461.9,486.2v-9.9h-1.2v-1h1.2v-3.7h1v3.7h2.1v1h-2.1v9.8c0,1.1,0.5,1.4,1.3,1.4c0.2,0,0.6,0,0.8-0.1v1
		c-0.2,0.1-0.6,0.1-0.9,0.1C462.8,488.5,461.9,487.9,461.9,486.2z"/>
	<path class="st0" d="M466.2,482.1v-0.2c0-4.5,1.6-6.7,3.5-6.7c1.9,0,3.3,2.3,3.3,6.4v0.8h-5.8c0,3.5,1.5,5.3,3.2,5.3
		c0.8,0,1.4-0.2,2.2-0.8l0.1,1.1c-0.9,0.5-1.5,0.7-2.5,0.7C468.2,488.6,466.2,486.4,466.2,482.1z M472.1,481.4c0-3-1-5.3-2.3-5.3
		c-1.3,0-2.4,1.8-2.5,5.3H472.1z"/>
	<path class="st0" d="M475.1,475.3h1.5v2h-1.5V475.3z M475.1,486.4h1.5v2h-1.5V486.4z"/>
	<path class="st0" d="M360.2,503.5h2.5c1.8,0,3.4,0.4,4.4,1.5c0.7,0.7,1.1,1.7,1.1,3v0.1c0,2.2-1.2,3.3-2.5,3.9
		c1.4,0.6,2.7,1.7,2.7,3.9v0.2c0,3.1-2.3,4.8-5.7,4.8h-2.7V503.5z M365.4,508.4c0-1.5-0.9-2.2-2.2-2.2h0v4.5h0
		C364.5,510.8,365.4,510,365.4,508.4L365.4,508.4z M363.2,513.4L363.2,513.4l-0.1,4.7h0.1c1.4,0,2.3-0.8,2.3-2.3v-0.1
		C365.6,514.2,364.6,513.4,363.2,513.4z"/>
	<path class="st0" d="M369.8,503.5h3v17.4h-3V503.5z"/>
	<path class="st0" d="M374.6,503.5h3V518h3.2v2.9h-6.1V503.5z"/>
	<path class="st0" d="M381.9,503.5h2.8c3.8,0,6,2.8,6,8.4v0.6c0,5.6-2.2,8.4-6,8.4h-2.8V503.5z M384.9,506.2v11.8h0.1
		c1.4,0,2.6-1.3,2.6-5.6v-0.6c0-4.4-1.2-5.6-2.6-5.6H384.9z"/>
	<path class="st0" d="M392.3,511.7h6.3v3h-6.3V511.7z"/>
	<path class="st0" d="M400.4,503.5h2.5c1.8,0,3.4,0.4,4.4,1.5c0.7,0.7,1.1,1.7,1.1,3v0.1c0,2.2-1.2,3.3-2.5,3.9
		c1.4,0.6,2.7,1.7,2.7,3.9v0.2c0,3.1-2.3,4.8-5.7,4.8h-2.7V503.5z M405.6,508.4c0-1.5-0.9-2.2-2.2-2.2h0v4.5h0
		C404.7,510.8,405.6,510,405.6,508.4L405.6,508.4z M403.4,513.4L403.4,513.4l-0.1,4.7h0.1c1.4,0,2.3-0.8,2.3-2.3v-0.1
		C405.7,514.2,404.8,513.4,403.4,513.4z"/>
	<path class="st0" d="M409.7,512.6v-0.9c0-5.8,1.8-8.5,4.5-8.5s4.5,2.8,4.5,8.5v0.9c0,5.8-1.8,8.5-4.5,8.5S409.7,518.4,409.7,512.6z
		 M415.7,512.6v-0.9c0-4.5-0.6-5.7-1.5-5.7s-1.5,1.2-1.5,5.7v0.9c0,4.5,0.6,5.7,1.5,5.7S415.7,517.1,415.7,512.6z"/>
	<path class="st0" d="M428.2,503.5l-2.7,8.5l2.8,8.9h-3.2l-1.4-5.3l-1.5,5.3h-3.1l2.8-8.9l-2.7-8.5h3.2l1.3,5.1l1.4-5.1H428.2z"/>
	<path class="st0" d="M428.9,523.7c1.8-0.4,2.2-1.7,2.1-2.8h-1.5v-3.5h3.4v2.8c0,2.6-1.2,4.3-3.7,4.7L428.9,523.7z"/>
	<path class="st0" d="M437.7,503.5h3.1l1.2,10.7l1.5-10.7h2.8l1.5,10.7l1.3-10.7h3l-2.6,17.5h-3.1l-1.4-10.3l-1.4,10.3h-3.1
		L437.7,503.5z"/>
	<path class="st0" d="M452.2,514.6v-0.8c0-4.3,1.7-6.5,4.1-6.5c2.3,0,4.1,2.2,4.1,6.5v0.8c0,4.3-1.7,6.5-4.1,6.5
		C453.9,521.1,452.2,518.9,452.2,514.6z M457.4,514.7v-0.9c0-2.6-0.4-3.8-1.2-3.8c-0.7,0-1.2,1.2-1.2,3.8v0.9c0,2.6,0.4,3.8,1.2,3.8
		C457,518.5,457.4,517.3,457.4,514.7z"/>
	<path class="st0" d="M461.7,507.5h2.9v1.7c0.4-1.1,1-1.9,2.1-1.8v3.5h0c-1.4,0-2.1,0.9-2.1,2.8v7.1h-2.9V507.5z"/>
	<path class="st0" d="M467.3,514.8v-1.2c0-4.8,1.2-6.3,2.8-6.3c1.3,0,1.9,1.1,2.3,1.9v-5.8h2.9v17.5h-2.9v-1.7
		c-0.4,0.8-1,1.9-2.3,1.9C468.6,521.1,467.3,519.6,467.3,514.8z M472.5,514.7v-0.9c0-2.4-0.4-3.7-1.1-3.7c-0.7,0-1.1,1.3-1.1,3.7
		v0.9c0,2.4,0.3,3.7,1.1,3.7C472,518.3,472.5,517,472.5,514.7z"/>
</g>
<g>
	<polygon class="st0" points="315.3,72.8 328.4,72.8 328.4,184.2 315.3,184.2 315.3,72.8 	"/>
	<g>
		<path class="st0" d="M285.2,72.8h-25.9l0,111.4l25.8,0c3.1,0,5.7-2.7,5.7-6l0-45.9v-2.4c0-3.5-2.7-6.3-6-6.3l0.6,0
			c3,0,5.5-2.5,5.5-5.7v-3.7V78.8C290.8,75.5,288.3,72.8,285.2,72.8z M277.8,170.4h-5.4v-38.5h5.4V170.4z M277.8,118.3h-5.4V86.6
			h5.4V118.3z"/>
		<rect x="272.4" y="86.6" class="st1" width="5.4" height="31.7"/>
		<rect x="272.4" y="131.9" class="st1" width="5.4" height="38.5"/>
	</g>
	<g>
		<path class="st0" d="M352.5,72.8v19.4h-12.8c-3.1,0-5.7,2.7-5.7,6l0,80c0,3.3,2.6,6,5.7,6l25.8,0V72.8H352.5z M352.5,170.4h-5.4
			v-64.6h5.4V170.4z"/>
		<rect x="347.1" y="105.8" class="st1" width="5.4" height="64.6"/>
	</g>
	<polygon class="st0" points="296.5,72.8 309.6,72.8 309.6,86.6 296.5,86.6 296.5,72.8 	"/>
	<polygon class="st0" points="296.5,92.2 309.6,92.2 309.6,184.2 296.5,184.2 296.5,92.2 	"/>
</g>
<g>
	<path class="st0" d="M381.1,121.1l-10.9-36.5h12.6l4.6,20.4l4.6-20.4h12.2l-10.8,36.5v21.7h-12.2V121.1z"/>
	<path class="st0" d="M400.1,122.1v-3.5c0-14.3,6.2-21.8,15.1-21.8c8.8,0,14.9,7.5,14.9,21.8v3.5c0,14.3-6.1,21.8-15,21.8
		C406.3,143.8,400.1,136.4,400.1,122.1z M418.2,122.2v-3.7c0-7.8-1.1-10.9-3.2-10.9c-2.1,0-3.1,3.1-3.1,10.9v3.7
		c0,7.8,1,10.9,3.1,10.9C417.2,133,418.2,130,418.2,122.2z"/>
	<path class="st0" d="M433.3,132.4V97.8h11.9v31.2c0,2.3,0.9,3.7,2.4,3.7c1.5,0,2.5-1.4,2.5-3.7V97.8h11.9v44.9h-11.9v-5.2
		c-1.6,3.2-4.1,6.1-8.2,6.1C436.2,143.7,433.3,139,433.3,132.4z"/>
	<path class="st0" d="M467.6,134.1v-26.6h-2.4v-9.7h2.4v-11h11.9v11h5v9.7h-5v22.8c0,1.6,0.7,2.3,2.3,2.3c0.8,0,1.6-0.2,2.6-0.7v9.7
		c-1.9,1-4.5,1.7-7,1.7C472,143.5,467.6,141.4,467.6,134.1z"/>
	<path class="st0" d="M487.3,132.4V97.8h11.9v31.2c0,2.3,0.9,3.7,2.4,3.7c1.5,0,2.5-1.4,2.5-3.7V97.8h11.9v44.9h-11.9v-5.2
		c-1.6,3.2-4.1,6.1-8.2,6.1C490.2,143.7,487.3,139,487.3,132.4z"/>
	<path class="st0" d="M532.2,137.5v5.2h-11.9v-59h11.9v19.3c1.8-3.2,3.9-6.1,8.1-6.1c5.3,0,9.8,4.6,9.8,21.2v4.4
		c0,16.4-4.5,21.2-9.8,21.2C536.1,143.7,534,140.8,532.2,137.5z M538.2,122.7v-4.7c0-6.8-0.9-10-2.9-10c-2.1,0-3.1,3.2-3.1,10v4.7
		c0,6.7,1,10,3.1,10C537.3,132.6,538.2,129.4,538.2,122.7z"/>
	<path class="st0" d="M553,121.7V119c0-14.4,6.4-22.2,14.8-22.2c8.5,0,13.9,7.8,13.9,22.6v6.1h-17c0.6,5.3,3,7.2,6.4,7.2
		c3,0,5.9-1.3,8.7-3.2l0.7,10.8c-3.3,2.1-6.9,3.5-11.3,3.5C559.9,143.8,553,136.2,553,121.7z M570.7,117.2c0-7.1-1-9.8-2.9-9.8
		c-1.8,0-3,2.2-3.2,9.8H570.7z"/>
</g>
<g>
	<path class="st0" d="M409,88.6V88c0-4,2-5.6,4.7-5.6c1.1,0,1.9,0.2,2.8,0.6v-0.7c0-1.6-0.9-2.4-2.7-2.4c-1.3,0-2.8,0.5-3.7,0.9
		v-4.4c1.5-0.5,3.1-0.8,4.9-0.8c2.3,0,4,0.5,5.1,1.5c1.2,1.1,1.9,2.7,1.9,4.9v11.5h-5.5v-1.7c-0.8,1.3-1.9,2-3.4,2
		C410.7,93.8,409,91.9,409,88.6z M416.5,88.7V86c-0.3-0.1-0.8-0.3-1.2-0.3c-0.8,0-1.3,0.6-1.3,2v0.6c0,1.4,0.5,1.9,1.2,1.9
		C415.9,90.2,416.5,89.8,416.5,88.7z"/>
	<path class="st0" d="M423.6,89.4V75.9h5.5v12.2c0,0.9,0.4,1.5,1.1,1.5c0.7,0,1.2-0.6,1.2-1.5V75.9h5.5v17.6h-5.5v-2
		c-0.8,1.2-1.9,2.4-3.8,2.4C425,93.9,423.6,92,423.6,89.4z"/>
	<path class="st0" d="M439.5,79.7h-1.2v-3.8h1.2v-0.8c0-1.6,0.5-2.8,1.4-3.6c0.9-0.8,2.3-1.2,4.1-1.2c1.1,0,1.7,0.1,2.3,0.2v3.7
		c-0.2,0-0.5-0.1-0.8-0.1c-1,0-1.6,0.4-1.6,1.3V76h2.4v3.8H445v13.8h-5.5V79.7z"/>
</g>
<g>
	<path class="st0" d="M270.9,227.8l-11.4,3.5v-23.1l18.2-5.7h17v111.2h-23.8V227.8z"/>
	<path class="st0" d="M302.7,261.8V255c0-36.9,11.2-54.1,31.2-54.1c19.6,0,30.9,17.1,30.9,53.9v6.8c0,36.9-11.4,54.1-31,54.1
		C313.8,315.8,302.7,298.7,302.7,261.8z M341.2,263.1v-9.5c0-26.1-3-30.8-7.4-30.8s-7.4,4.7-7.4,30.8v9.5c0,25.9,3,30.7,7.4,30.7
		S341.2,289,341.2,263.1z"/>
</g>
<g>
	<path class="st0" d="M258.4,388.3V377c2.4,0.9,4.5,1.5,7.4,1.5c3.7,0,6.3-2.4,6.3-6.4v-0.4c0-4.7-3.6-6.8-9.8-7.2v-7.7L271,345
		h-11.9v-11.3h24.1v10.4l-9.4,12.7c5.5,1.9,9.8,5.6,9.8,14.5v0.7c0,11.1-6.7,17.8-16,17.8C263.6,389.8,260.8,389.3,258.4,388.3z"/>
</g>
<g>
	<path class="st0" d="M290.1,333.8h6.1c3.3,0,6.4,0.7,8.3,2.6c1.3,1.3,2,3.1,2,5.5v0.4c0,3.5-2,5.7-4.1,6.8c2.3,1.2,4.5,3.1,4.5,6.9
		v0.4c0,5.9-4.3,8.8-10.6,8.8h-6.2V333.8z M300.1,343.2c0-2.3-1.3-3.2-3.3-3.2h-0.3v6.7h0.3C298.7,346.7,300.1,345.6,300.1,343.2
		L300.1,343.2z M296.9,352.1h-0.4v6.9h0.4c2,0,3.4-1.1,3.4-3.3v-0.2C300.3,353.3,298.9,352.1,296.9,352.1z"/>
	<path class="st0" d="M308.3,359.6v-18.7h6.4v16.9c0,1.3,0.5,2,1.3,2c0.8,0,1.4-0.8,1.4-2v-16.9h6.4v24.3h-6.4v-2.8
		c-0.9,1.7-2.2,3.3-4.4,3.3C309.9,365.7,308.3,363.2,308.3,359.6z"/>
	<path class="st0" d="M326.2,340.9h6.4v2.8c0.9-1.7,2.2-3.3,4.4-3.3c3.1,0,4.7,2.5,4.7,6.1v18.7h-6.4v-16.9c0-1.3-0.5-2-1.3-2
		c-0.8,0-1.4,0.7-1.4,2v16.9h-6.4V340.9z"/>
	<path class="st0" d="M343.6,354.2v-2.4c0-8.9,2.4-11.4,5.3-11.4c2.2,0,3.4,1.6,4.4,3.3v-10.4h6.4v31.8h-6.4v-2.9
		c-1,1.7-2.1,3.4-4.4,3.4C346,365.7,343.6,363.2,343.6,354.2z M353.3,354.3v-2.6c0-3.7-0.5-5.4-1.7-5.4c-1.1,0-1.6,1.7-1.6,5.4v2.6
		c0,3.7,0.5,5.4,1.6,5.4C352.7,359.7,353.3,358,353.3,354.3z"/>
	<path class="st0" d="M361.5,353.8v-1.4c0-7.8,3.4-12,8-12c4.6,0,7.5,4.2,7.5,12.2v3.3h-9.2c0.3,2.9,1.6,3.9,3.5,3.9
		c1.6,0,3.2-0.7,4.7-1.7l0.4,5.8c-1.8,1.1-3.7,1.9-6.1,1.9C365.2,365.7,361.5,361.6,361.5,353.8z M371.1,351.4
		c0-3.9-0.5-5.3-1.6-5.3c-1,0-1.6,1.2-1.7,5.3H371.1z"/>
	<path class="st0" d="M378.2,364.3v-6.2c1.9,1.1,3.7,1.8,4.9,1.8c1,0,1.5-0.6,1.5-1.4v0c0-0.8-0.4-1.3-2.2-3c-2.5-2.2-4.4-4.3-4.4-8
		v-0.1c0-4.3,2.9-6.9,7.2-6.9c1.8,0,3.1,0.3,4.6,0.8v6.3c-1.4-0.8-2.9-1.3-4.1-1.3c-1,0-1.5,0.5-1.5,1.2v0c0,0.7,0.6,1.3,2.3,2.9
		c2.6,2.4,4.4,4.3,4.4,7.9v0.1c0,4.3-3,7.2-7,7.2C381.9,365.7,379.9,365.2,378.2,364.3z"/>
	<path class="st0" d="M392.3,333.3h6.4v31.8h-6.4V333.3z"/>
	<path class="st0" d="M401.1,333.3h6.5v5.7h-6.5V333.3z M401.1,340.9h6.4v24.3h-6.4V340.9z"/>
	<path class="st0" d="M410.6,370.4v-5.8c1.7,0.6,3.8,1,5.3,1c2.2,0,3.4-1.1,3.4-3.5v-1.9c-1.1,1.7-2.3,3.2-4.4,3.2
		c-2.9,0-5.3-2.5-5.3-10.9v-0.9c0-8.6,2.4-11.2,5.3-11.2c2.2,0,3.4,1.5,4.4,3.3v-2.8h6.4v21.2c0,3.1-0.7,5.3-2.2,6.8
		c-1.6,1.7-4,2.3-7,2.3C414.1,371.2,412.3,370.9,410.6,370.4z M419.3,352.5v-0.9c0-3.6-0.6-5.2-1.7-5.2c-1.1,0-1.6,1.6-1.6,5.2v0.9
		c0,3.6,0.5,5.2,1.6,5.2C418.7,357.7,419.3,356.1,419.3,352.5z"/>
	<path class="st0" d="M427.3,358.4v-0.8c0-5.5,2.3-7.7,5.5-7.7c1.3,0,2.2,0.3,3.3,0.9v-0.9c0-2.2-1.1-3.4-3.2-3.4
		c-1.5,0-3.2,0.6-4.4,1.2v-6.1c1.7-0.7,3.7-1.1,5.8-1.1c2.6,0,4.6,0.7,5.9,2.1c1.5,1.5,2.2,3.8,2.2,6.7v15.8H436v-2.3
		c-1,1.7-2.2,2.7-4,2.7C429.3,365.6,427.3,363,427.3,358.4z M436.1,358.6v-3.7c-0.4-0.2-1-0.4-1.4-0.4c-0.9,0-1.5,0.9-1.5,2.7v0.9
		c0,1.9,0.6,2.6,1.4,2.6C435.3,360.7,436.1,360,436.1,358.6z"/>
	<path class="st0" d="M444.6,347.9h11.9v6.5h-11.9V347.9z"/>
	<path class="st0" d="M458.9,333.8h12.8v6.4h-6.2v6.2h5.5v6.3h-5.5v12.6h-6.6V333.8z"/>
	<path class="st0" d="M472.5,354v-1.9c0-7.7,3.3-11.7,8.1-11.7c4.8,0,8.1,4,8.1,11.7v1.9c0,7.7-3.3,11.7-8.1,11.7
		C475.9,365.8,472.5,361.7,472.5,354z M482.4,354.1v-2c0-4.2-0.6-5.9-1.7-5.9s-1.7,1.7-1.7,5.9v2c0,4.2,0.5,5.9,1.7,5.9
		S482.4,358.3,482.4,354.1z"/>
	<path class="st0" d="M490.6,340.9h6.4v3.4c0.7-2.4,1.8-3.8,3.8-3.7v7.8h-0.1c-2.5,0-3.6,1.7-3.6,5v11.7h-6.4V340.9z"/>
	<path class="st0" d="M502.3,340.9h6.4v2.7c1-1.8,2.2-3.2,4.4-3.2c2.2,0,3.4,1.3,4.2,3c0.9-1.5,2.4-3,4.6-3c2.9,0,4.9,2.3,4.9,6.1
		v18.6h-6.4v-16.9c0-1.3-0.5-2-1.3-2c-0.8,0-1.4,0.8-1.4,2v16.9h-6.4v-16.9c0-1.3-0.5-2-1.3-2c-0.8,0-1.4,0.8-1.4,2v16.9h-6.4V340.9
		z"/>
	<path class="st0" d="M528.3,358.4v-0.8c0-5.5,2.3-7.7,5.5-7.7c1.3,0,2.2,0.3,3.3,0.9v-0.9c0-2.2-1.1-3.4-3.2-3.4
		c-1.5,0-3.2,0.6-4.4,1.2v-6.1c1.7-0.7,3.7-1.1,5.8-1.1c2.6,0,4.6,0.7,5.9,2.1c1.5,1.5,2.2,3.8,2.2,6.7v15.8h-6.4v-2.3
		c-1,1.7-2.2,2.7-4,2.7C530.3,365.6,528.3,363,528.3,358.4z M537.1,358.6v-3.7c-0.4-0.2-1-0.4-1.4-0.4c-0.9,0-1.5,0.9-1.5,2.7v0.9
		c0,1.9,0.6,2.6,1.4,2.6C536.4,360.7,537.1,360,537.1,358.6z"/>
	<path class="st0" d="M545.9,360.5v-14.4h-1.3v-5.2h1.3V335h6.4v5.9h2.7v5.2h-2.7v12.3c0,0.9,0.4,1.3,1.2,1.3c0.4,0,0.9-0.1,1.4-0.4
		v5.2c-1,0.5-2.4,0.9-3.8,0.9C548.2,365.6,545.9,364.4,545.9,360.5z"/>
	<path class="st0" d="M555.8,353.8v-1.4c0-7.8,3.4-12,8-12s7.5,4.2,7.5,12.2v3.3h-9.2c0.3,2.9,1.6,3.9,3.5,3.9
		c1.6,0,3.2-0.7,4.7-1.7l0.4,5.8c-1.8,1.1-3.7,1.9-6.1,1.9C559.5,365.7,555.8,361.6,555.8,353.8z M565.3,351.4
		c0-3.9-0.5-5.3-1.6-5.3c-1,0-1.6,1.2-1.7,5.3H565.3z"/>
	<path class="st0" d="M573.1,340.9h7v7.2h-7V340.9z M573.1,357.9h7v7.3h-7V357.9z"/>
</g>
<g>
	<path class="st0" d="M260.9,424.3h1.1v17.9h-1.1V424.3z"/>
	<path class="st0" d="M265,424.3h1.2l5.5,15v-15h1.1v17.9h-1.1l-5.6-15.4v15.4H265V424.3z"/>
	<path class="st0" d="M275,441.5v-1.3c1.2,0.8,2.2,1.2,3.1,1.2c1.5,0,2.4-1,2.4-2.6v-0.1c0-1.5-0.5-2.4-2.5-5.1
		c-2.3-3.2-2.9-4.2-2.9-5.8v-0.1c0-2.1,1.5-3.7,3.4-3.7c1,0,1.8,0.3,2.7,0.8v1.3c-1-0.7-1.8-1-2.7-1c-1.4,0-2.3,1-2.3,2.5v0.1
		c0,1.3,0.5,2.3,2.5,4.8c2.1,2.7,2.9,4.1,2.9,6.1v0.1c0,2.3-1.5,3.7-3.6,3.7C277,442.5,276,442.1,275,441.5z"/>
	<path class="st0" d="M283.3,433.5v-0.5c0-5.9,2.5-8.9,5.3-8.9c0.9,0,1.5,0.2,2.1,0.6v1.2c-0.7-0.5-1.4-0.7-2.2-0.7
		c-2.2,0-4.2,2.6-4.2,7.8v0.5c0,5.2,1.9,7.9,4.2,7.9c0.5,0,0.8-0.1,1.2-0.2v-7.1h-2.6v-1h3.7v8.7c-0.9,0.5-1.5,0.6-2.3,0.6
		C285.7,442.4,283.3,439.4,283.3,433.5z"/>
	<path class="st0" d="M293.6,424.3h6v1h-4.9v7.3h4.4v1h-4.4v7.5h4.9v1h-6.1V424.3z"/>
	<path class="st0" d="M301.2,441.5v-1.3c1.2,0.8,2.2,1.2,3.1,1.2c1.5,0,2.4-1,2.4-2.6v-0.1c0-1.5-0.5-2.4-2.5-5.1
		c-2.3-3.2-2.9-4.2-2.9-5.8v-0.1c0-2.1,1.5-3.7,3.4-3.7c1,0,1.8,0.3,2.7,0.8v1.3c-1-0.7-1.8-1-2.7-1c-1.4,0-2.3,1-2.3,2.5v0.1
		c0,1.3,0.5,2.3,2.5,4.8c2.1,2.7,2.9,4.1,2.9,6.1v0.1c0,2.3-1.5,3.7-3.6,3.7C303.3,442.5,302.3,442.1,301.2,441.5z"/>
	<path class="st0" d="M313.2,424.3h1.2l3.8,18h-1.2l-1-5h-4.6l-1,5h-1.1L313.2,424.3z M315.8,436.2l-2.1-10.2l-2.1,10.2H315.8z"/>
	<path class="st0" d="M320.3,424.3h1.4l3.2,10l3.3-10h1.3v17.9h-1.1v-15.4l-3.5,10.4h-0.1l-3.5-10.4v15.4h-1.1V424.3z"/>
	<path class="st0" d="M334.1,425.4h-2.9v-1h6.8v1h-2.9v16.9h-1.1V425.4z"/>
	<path class="st0" d="M345.9,443.4l7.2-14.1c1.9-3.9,2.6-5.5,2.6-7.2c0-1.8-1-3.3-3.3-3.3c-2,0-3.8,0.7-5.7,1.8v-8.2
		c2-1,4.7-1.8,7.9-1.8c5.4,0,9.4,3.4,9.4,9.5v0.3c0,3.4-0.9,6.2-3.1,10.3l-6.2,11.7h9.1v8.4h-17.8V443.4z"/>
	<path class="st0" d="M365.4,450.3v-8c1.7,0.7,3.2,1.1,5.3,1.1c2.7,0,4.5-1.8,4.5-4.6v-0.3c0-3.3-2.5-4.9-7-5.1v-5.5l6.3-8.5h-8.5
		v-8.1h17.2v7.5l-6.8,9.1c3.9,1.4,7,4,7,10.4v0.5c0,8-4.8,12.7-11.4,12.7C369.1,451.4,367.1,451,365.4,450.3z"/>
	<path class="st0" d="M385.1,432.3v-2.4c0-13.2,3.9-19.3,10.9-19.3c6.9,0,10.8,6.1,10.8,19.3v2.4c0,13.2-4,19.3-10.9,19.3
		C389,451.5,385.1,445.4,385.1,432.3z M398.5,432.7v-3.4c0-9.3-1.1-11-2.6-11c-1.6,0-2.6,1.7-2.6,11v3.4c0,9.3,1.1,11,2.6,11
		C397.5,443.7,398.5,442,398.5,432.7z"/>
	<path class="st0" d="M408.8,441.6h8.9v9.1h-8.9V441.6z"/>
	<path class="st0" d="M419.6,432.3v-2.4c0-13.2,3.9-19.3,10.9-19.3c6.9,0,10.8,6.1,10.8,19.3v2.4c0,13.2-4,19.3-10.9,19.3
		C423.5,451.5,419.6,445.4,419.6,432.3z M433.1,432.7v-3.4c0-9.3-1.1-11-2.6-11c-1.6,0-2.6,1.7-2.6,11v3.4c0,9.3,1.1,11,2.6,11
		C432,443.7,433.1,442,433.1,432.7z"/>
	<path class="st0" d="M443.3,432.3v-2.4c0-13.2,3.9-19.3,10.9-19.3c6.9,0,10.8,6.1,10.8,19.3v2.4c0,13.2-4,19.3-10.9,19.3
		C447.2,451.5,443.3,445.4,443.3,432.3z M456.8,432.7v-3.4c0-9.3-1.1-11-2.6-11c-1.6,0-2.6,1.7-2.6,11v3.4c0,9.3,1.1,11,2.6,11
		C455.7,443.7,456.8,442,456.8,432.7z"/>
	<path class="st0" d="M467,432.3v-2.4c0-13.2,3.9-19.3,10.9-19.3c6.9,0,10.8,6.1,10.8,19.3v2.4c0,13.2-4,19.3-10.9,19.3
		C470.9,451.5,467,445.4,467,432.3z M480.5,432.7v-3.4c0-9.3-1.1-11-2.6-11s-2.6,1.7-2.6,11v3.4c0,9.3,1.1,11,2.6,11
		S480.5,442,480.5,432.7z"/>
	<path class="st0" d="M498.9,441.5v-1.3c1.2,0.8,2.2,1.2,3.1,1.2c1.5,0,2.4-1,2.4-2.6v-0.1c0-1.5-0.5-2.4-2.5-5.1
		c-2.3-3.2-2.9-4.2-2.9-5.8v-0.1c0-2.1,1.5-3.7,3.4-3.7c1,0,1.8,0.3,2.7,0.8v1.3c-1-0.7-1.8-1-2.7-1c-1.4,0-2.3,1-2.3,2.5v0.1
		c0,1.3,0.5,2.3,2.5,4.8c2.1,2.7,2.9,4.1,2.9,6.1v0.1c0,2.3-1.5,3.7-3.6,3.7C500.9,442.5,500,442.1,498.9,441.5z"/>
	<path class="st0" d="M507.7,437.6v-13.3h1.1v13.3c0,2.4,1,3.8,2.7,3.8s2.7-1.4,2.7-3.8v-13.3h1.1v13.3c0,3-1.5,4.8-3.8,4.8
		C509.2,442.5,507.7,440.6,507.7,437.6z"/>
	<path class="st0" d="M518,424.3h2.3c1.5,0,2.7,0.5,3.5,1.4c0.7,0.7,1.2,1.8,1.2,3.1v0.1c0,2.6-1.5,3.8-3.2,4.3
		c2.1,0.5,3.4,1.9,3.4,4.4v0.1c0,2.9-2.1,4.6-5.4,4.6H518V424.3z M523.9,428.9c0-2.2-1.5-3.5-3.6-3.5h-1.1v7.3h0.8
		C522.5,432.7,523.9,431.3,523.9,428.9L523.9,428.9z M520,433.7h-0.9v7.5h0.7c2.6,0,4.3-1.3,4.3-3.6v-0.1
		C524.1,435.1,522.6,433.7,520,433.7z"/>
	<path class="st0" d="M526.8,441.5v-1.3c1.2,0.8,2.2,1.2,3.1,1.2c1.5,0,2.4-1,2.4-2.6v-0.1c0-1.5-0.5-2.4-2.5-5.1
		c-2.3-3.2-2.9-4.2-2.9-5.8v-0.1c0-2.1,1.5-3.7,3.4-3.7c1,0,1.8,0.3,2.7,0.8v1.3c-1-0.7-1.8-1-2.7-1c-1.4,0-2.3,1-2.3,2.5v0.1
		c0,1.3,0.5,2.3,2.5,4.8c2.1,2.7,2.9,4.1,2.9,6.1v0.1c0,2.3-1.5,3.7-3.6,3.7C528.9,442.5,527.9,442.1,526.8,441.5z"/>
	<path class="st0" d="M535.2,433.5v-0.5c0-6,2.2-8.9,4.7-8.9c0.8,0,1.2,0.2,1.7,0.4v1.2c-0.7-0.4-1.1-0.6-1.7-0.6
		c-2,0-3.6,2.7-3.6,7.8v0.5c0,5.1,1.6,7.8,3.6,7.8c0.6,0,1.2-0.2,1.8-0.6v1.2c-0.5,0.3-1.1,0.5-1.8,0.5
		C537.2,442.4,535.2,439.5,535.2,433.5z"/>
	<path class="st0" d="M543.9,424.3h2.2c1.5,0,2.8,0.5,3.7,1.4c0.9,0.9,1.4,2.2,1.4,3.9v0.1c0,2.5-1.1,4.3-3,5l3.4,7.6h-1.3L547,435
		c-0.3,0.1-0.6,0.1-1,0.1h-1v7.2h-1.1V424.3z M546.1,434c2.4,0,3.9-1.6,3.9-4.3v-0.1c0-2.9-1.6-4.3-4-4.3h-1v8.7H546.1z"/>
	<path class="st0" d="M553.7,424.3h1.1v17.9h-1.1V424.3z"/>
	<path class="st0" d="M557.8,424.3h2.3c1.5,0,2.7,0.5,3.5,1.4c0.7,0.7,1.2,1.8,1.2,3.1v0.1c0,2.6-1.5,3.8-3.2,4.3
		c2.1,0.5,3.4,1.9,3.4,4.4v0.1c0,2.9-2.1,4.6-5.4,4.6h-1.8V424.3z M563.6,428.9c0-2.2-1.5-3.5-3.6-3.5h-1.1v7.3h0.8
		C562.3,432.7,563.6,431.3,563.6,428.9L563.6,428.9z M559.8,433.7h-0.9v7.5h0.7c2.6,0,4.3-1.3,4.3-3.6v-0.1
		C563.9,435.1,562.4,433.7,559.8,433.7z"/>
	<path class="st0" d="M567.2,424.3h6v1h-4.9v7.3h4.4v1h-4.4v7.5h4.9v1h-6.1V424.3z"/>
	<path class="st0" d="M575.3,424.3h2.2c1.5,0,2.8,0.5,3.7,1.4c0.9,0.9,1.4,2.2,1.4,3.9v0.1c0,2.5-1.1,4.3-3,5l3.4,7.6h-1.3l-3.2-7.3
		c-0.3,0.1-0.6,0.1-1,0.1h-1v7.2h-1.1V424.3z M577.5,434c2.4,0,3.9-1.6,3.9-4.3v-0.1c0-2.9-1.6-4.3-4-4.3h-1v8.7H577.5z"/>
	<path class="st0" d="M259.3,445.4v-1.3h79.1v1.3H259.3z"/>
	<path class="st0" d="M498,445.4v-1.3h85.5v1.3H498z"/>
</g>
<g>
	<path class="st0" d="M283.3,391.7c1-0.3,1.3-0.9,1.2-1.7h-0.7v-1.9h1.6v1.6c0,1.4-0.5,2.2-1.9,2.6L283.3,391.7z M286.1,391.7
		c1-0.3,1.3-0.9,1.2-1.7h-0.7v-1.9h1.6v1.6c0,1.4-0.5,2.2-1.9,2.6L286.1,391.7z"/>
	<path class="st0" d="M290.1,376.4h1.8c1.2,0,2.2,0.4,2.9,1.1c0.6,0.6,0.9,1.4,0.9,2.4v0.1c0,1.9-1.1,2.8-2.3,3.2
		c1.5,0.4,2.5,1.4,2.5,3.3v0.1c0,2.3-1.7,3.6-4.2,3.6h-1.6V376.4z M294.4,379.9c0-1.5-1-2.4-2.5-2.4h-0.6v5h0.4
		C293.5,382.6,294.4,381.6,294.4,379.9L294.4,379.9z M291.8,383.7h-0.5v5.2h0.4c1.8,0,2.9-0.9,2.9-2.5v-0.1
		C294.6,384.6,293.6,383.7,291.8,383.7z"/>
	<path class="st0" d="M297.2,387.1v-7.4h1.2v7.2c0,1.4,0.5,2.2,1.4,2.2s1.6-0.9,1.6-2.3v-7.1h1.2V390h-1.2v-1.4
		c-0.4,0.8-1,1.6-2,1.6C298.1,390.2,297.2,389,297.2,387.1z"/>
	<path class="st0" d="M304.4,379.7h1.2v1.4c0.4-0.9,1-1.6,2-1.6c1.3,0,2.2,1.2,2.2,3.1v7.4h-1.2v-7.2c0-1.4-0.5-2.2-1.4-2.2
		c-0.9,0-1.6,0.9-1.6,2.4v7h-1.2V379.7z"/>
	<path class="st0" d="M311.3,385.1v-0.5c0-3.4,1.2-5.1,2.5-5.1c1,0,1.6,0.9,2,2v-5.2h1.2V390h-1.2v-1.8c-0.4,1-1,2-2,2
		C312.4,390.2,311.3,388.6,311.3,385.1z M315.8,385.1v-0.5c0-2.5-0.8-3.9-1.7-3.9c-0.9,0-1.6,1.4-1.6,4v0.4c0,2.6,0.7,4,1.6,4
		C315,389.1,315.8,387.7,315.8,385.1z"/>
	<path class="st0" d="M318.5,385.1v-0.3c0-3.5,1.3-5.2,2.9-5.2c1.6,0,2.7,1.8,2.7,5.1v0.8h-4.4c0.1,2.5,1.1,3.6,2.3,3.6
		c0.6,0,1.1-0.2,1.8-0.6l0.1,1.2c-0.7,0.4-1.2,0.6-2,0.6C320,390.2,318.5,388.5,318.5,385.1z M322.9,384.4c0-2.2-0.6-3.7-1.6-3.7
		c-0.9,0-1.6,1.2-1.7,3.7H322.9z"/>
	<path class="st0" d="M325,389.7v-1.2c0.7,0.4,1.4,0.6,2,0.6c0.8,0,1.4-0.5,1.4-1.3v0c0-0.6-0.3-1.3-1.5-2.4
		c-1.4-1.3-1.9-2.2-1.9-3.3v0c0-1.5,1.1-2.4,2.5-2.4c0.7,0,1.1,0.1,1.7,0.3v1.2c-0.6-0.3-1.1-0.4-1.7-0.4c-0.7,0-1.3,0.5-1.3,1.2v0
		c0,0.6,0.3,1.1,1.5,2.3c1.4,1.4,1.9,2.2,1.9,3.3v0c0,1.5-1.2,2.5-2.5,2.5C326.3,390.2,325.7,390,325,389.7z"/>
	<path class="st0" d="M330.9,376.2h1.2V390h-1.2V376.2z"/>
	<path class="st0" d="M334.1,376.2h1.3v1.6h-1.3V376.2z M334.1,379.7h1.2V390h-1.2V379.7z"/>
	<path class="st0" d="M337.4,392.2V391c0.7,0.3,1.6,0.5,2.1,0.5c1.3,0,2-0.6,2-2v-2c-0.4,1-1,2-2,2c-1.3,0-2.5-1.6-2.5-4.9v-0.2
		c0-3.3,1.2-4.9,2.5-4.9c1,0,1.6,0.9,2,2v-1.8h1.2v9.8c0,1-0.3,1.7-0.8,2.2c-0.5,0.5-1.3,0.8-2.3,0.8
		C338.8,392.6,338.1,392.5,337.4,392.2z M341.5,384.6v-0.1c0-2.4-0.9-3.8-1.7-3.8c-0.9,0-1.6,1.3-1.6,3.8v0.1c0,2.5,0.7,3.8,1.6,3.8
		C340.6,388.3,341.5,387,341.5,384.6z"/>
	<path class="st0" d="M344,387v-0.2c0-2,1-3.3,2.5-3.3c0.6,0,1.1,0.2,1.6,0.4v-1.1c0-1.3-0.6-2.1-1.8-2.1c-0.7,0-1.2,0.2-1.8,0.5
		V380c0.6-0.3,1.3-0.4,2-0.4c0.9,0,1.6,0.3,2.1,0.8c0.5,0.5,0.8,1.3,0.8,2.4v7.3h-1.2v-1.4c-0.4,1-1,1.6-1.9,1.6
		C344.9,390.2,344,388.9,344,387z M348.2,386.9v-2c-0.4-0.2-0.9-0.4-1.4-0.4c-1,0-1.6,0.9-1.6,2.2v0.2c0,1.3,0.5,2.2,1.4,2.2
		C347.5,389.1,348.2,388.1,348.2,386.9z"/>
	<path class="st0" d="M351,383.6h4v1.2h-4V383.6z"/>
	<path class="st0" d="M356.3,389.5v-1.4c0.9,0.6,1.6,0.8,2.3,0.8c1,0,1.7-0.7,1.7-1.8v0c0-1-0.3-1.7-1.7-3.5
		c-1.7-2.3-2.2-3.1-2.2-4.4v0c0-1.8,1.2-3,2.8-3c0.8,0,1.4,0.2,2,0.5v1.4c-0.7-0.5-1.3-0.7-2-0.7c-0.9,0-1.6,0.7-1.6,1.7v0
		c0,0.9,0.3,1.5,1.7,3.3c1.7,2.1,2.2,3.1,2.2,4.6v0c0,1.9-1.3,3-2.9,3C357.8,390.2,357,389.9,356.3,389.5z"/>
	<path class="st0" d="M362.9,376.2h1.2v4.9c0.4-0.9,1-1.6,2-1.6c1.3,0,2.2,1.2,2.2,3.1v7.4h-1.2v-7.2c0-1.4-0.5-2.2-1.4-2.2
		s-1.6,0.9-1.6,2.4v7h-1.2V376.2z"/>
	<path class="st0" d="M369.8,385v-0.3c0-3.3,1.3-5.2,2.9-5.2c1.6,0,2.9,1.9,2.9,5.2v0.3c0,3.3-1.3,5.2-2.9,5.2
		C371.1,390.2,369.8,388.3,369.8,385z M374.4,385v-0.3c0-2.5-0.8-4-1.7-4c-1,0-1.7,1.5-1.7,4v0.3c0,2.5,0.8,4.1,1.7,4.1
		C373.7,389.1,374.4,387.5,374.4,385z"/>
	<path class="st0" d="M376.4,379.7h1.2l1.4,8.1l1.5-8.1h1l1.5,8.1l1.4-8.1h1.2l-2,10.4h-1.1l-1.5-7.9l-1.5,7.9h-1.1L376.4,379.7z"/>
	<path class="st0" d="M386.8,378.9c0-1.4,0.5-2.2,1.8-2.6l0.2,0.6c-0.9,0.3-1.2,0.9-1.1,1.7h0.7v2h-1.6V378.9z M389.6,378.9
		c0-1.4,0.5-2.2,1.8-2.6l0.2,0.6c-0.9,0.3-1.2,0.9-1.1,1.7h0.7v2h-1.6V378.9z"/>
	<path class="st0" d="M392.4,391.7c0.9-0.3,1.2-0.9,1.1-1.7h-0.7v-1.9h1.6v1.6c0,1.4-0.5,2.2-1.8,2.6L392.4,391.7z"/>
	<path class="st0" d="M398.8,391.7c1-0.3,1.3-0.9,1.2-1.7h-0.7v-1.9h1.6v1.6c0,1.4-0.5,2.2-1.9,2.6L398.8,391.7z M401.7,391.7
		c1-0.3,1.3-0.9,1.2-1.7h-0.7v-1.9h1.6v1.6c0,1.4-0.5,2.2-1.9,2.6L401.7,391.7z"/>
	<path class="st0" d="M404.3,376.4h1.3l2,11.3l2.1-11.3h1.2l-2.7,13.7H407L404.3,376.4z"/>
	<path class="st0" d="M411.3,385v-0.3c0-3.3,1.3-5.2,2.9-5.2c1.6,0,2.9,1.9,2.9,5.2v0.3c0,3.3-1.3,5.2-2.9,5.2
		C412.6,390.2,411.3,388.3,411.3,385z M416,385v-0.3c0-2.5-0.8-4-1.7-4c-1,0-1.7,1.5-1.7,4v0.3c0,2.5,0.8,4.1,1.7,4.1
		C415.2,389.1,416,387.5,416,385z"/>
	<path class="st0" d="M418.7,376.2h1.3v1.6h-1.3V376.2z M418.7,379.7h1.2V390h-1.2V379.7z"/>
	<path class="st0" d="M421.5,385v-0.3c0-3.5,1.5-5.2,3.1-5.2c0.5,0,0.9,0.1,1.3,0.3v1.3c-0.4-0.3-0.7-0.4-1.2-0.4
		c-0.9,0-2,1.2-2,3.9v0.4c0,2.8,1,3.9,2,3.9c0.4,0,0.8-0.2,1.1-0.5v1.2c-0.4,0.3-0.7,0.4-1.3,0.4C422.9,390.2,421.5,388.6,421.5,385
		z"/>
	<path class="st0" d="M426.7,385.1v-0.3c0-3.5,1.3-5.2,2.9-5.2c1.6,0,2.7,1.8,2.7,5.1v0.8h-4.4c0.1,2.5,1.1,3.6,2.3,3.6
		c0.6,0,1.1-0.2,1.8-0.6l0.1,1.2c-0.7,0.4-1.2,0.6-2,0.6C428.2,390.2,426.7,388.5,426.7,385.1z M431.1,384.4c0-2.2-0.6-3.7-1.6-3.7
		c-0.9,0-1.6,1.2-1.7,3.7H431.1z"/>
	<path class="st0" d="M436.5,385v-0.3c0-3.3,1.3-5.2,2.9-5.2c1.6,0,2.9,1.9,2.9,5.2v0.3c0,3.3-1.3,5.2-2.9,5.2
		C437.8,390.2,436.5,388.3,436.5,385z M441.2,385v-0.3c0-2.5-0.8-4-1.7-4c-1,0-1.7,1.5-1.7,4v0.3c0,2.5,0.8,4.1,1.7,4.1
		C440.4,389.1,441.2,387.5,441.2,385z"/>
	<path class="st0" d="M444.2,380.8h-0.9v-1.1h0.9v-1.1c0-0.9,0.2-1.5,0.6-1.9c0.4-0.4,0.9-0.5,1.5-0.5c0.2,0,0.5,0,0.7,0.1v1.1
		c-0.1,0-0.4-0.1-0.5-0.1c-0.7,0-1.1,0.4-1.1,1.4v1h1.5v1.1h-1.5v9.2h-1.2V380.8z"/>
	<path class="st0" d="M451.2,376.4h1.8c1.2,0,2.2,0.4,2.9,1.1c0.6,0.6,0.9,1.4,0.9,2.4v0.1c0,1.9-1.1,2.8-2.3,3.2
		c1.5,0.4,2.5,1.4,2.5,3.3v0.1c0,2.3-1.7,3.6-4.2,3.6h-1.6V376.4z M455.6,379.9c0-1.5-1-2.4-2.5-2.4h-0.6v5h0.4
		C454.6,382.6,455.6,381.6,455.6,379.9L455.6,379.9z M452.9,383.7h-0.5v5.2h0.4c1.8,0,2.9-0.9,2.9-2.5v-0.1
		C455.7,384.6,454.7,383.7,452.9,383.7z"/>
	<path class="st0" d="M458.3,387.1v-7.4h1.2v7.2c0,1.4,0.5,2.2,1.4,2.2c0.9,0,1.6-0.9,1.6-2.3v-7.1h1.2V390h-1.2v-1.4
		c-0.4,0.8-1,1.6-2,1.6C459.2,390.2,458.3,389,458.3,387.1z"/>
	<path class="st0" d="M465.5,379.7h1.2v1.4c0.4-0.9,1-1.6,2-1.6c1.3,0,2.2,1.2,2.2,3.1v7.4h-1.2v-7.2c0-1.4-0.5-2.2-1.4-2.2
		c-0.9,0-1.6,0.9-1.6,2.4v7h-1.2V379.7z"/>
	<path class="st0" d="M472.4,385.1v-0.5c0-3.4,1.2-5.1,2.5-5.1c1,0,1.6,0.9,2,2v-5.2h1.2V390h-1.2v-1.8c-0.4,1-1,2-2,2
		C473.6,390.2,472.4,388.6,472.4,385.1z M477,385.1v-0.5c0-2.5-0.8-3.9-1.7-3.9c-0.9,0-1.6,1.4-1.6,4v0.4c0,2.6,0.7,4,1.6,4
		C476.1,389.1,477,387.7,477,385.1z"/>
	<path class="st0" d="M479.6,385.1v-0.3c0-3.5,1.3-5.2,2.9-5.2c1.6,0,2.7,1.8,2.7,5.1v0.8h-4.4c0.1,2.5,1.1,3.6,2.3,3.6
		c0.6,0,1.1-0.2,1.8-0.6l0.1,1.2c-0.7,0.4-1.2,0.6-2,0.6C481.1,390.2,479.6,388.5,479.6,385.1z M484,384.4c0-2.2-0.6-3.7-1.6-3.7
		c-0.9,0-1.6,1.2-1.7,3.7H484z"/>
	<path class="st0" d="M486.1,389.7v-1.2c0.7,0.4,1.4,0.6,2,0.6c0.8,0,1.4-0.5,1.4-1.3v0c0-0.6-0.3-1.3-1.5-2.4
		c-1.4-1.3-1.9-2.2-1.9-3.3v0c0-1.5,1.1-2.4,2.5-2.4c0.7,0,1.1,0.1,1.7,0.3v1.2c-0.6-0.3-1.1-0.4-1.7-0.4c-0.7,0-1.3,0.5-1.3,1.2v0
		c0,0.6,0.3,1.1,1.5,2.3c1.4,1.4,1.9,2.2,1.9,3.3v0c0,1.5-1.2,2.5-2.5,2.5C487.4,390.2,486.8,390,486.1,389.7z"/>
	<path class="st0" d="M492.1,376.2h1.2V390h-1.2V376.2z"/>
	<path class="st0" d="M495.2,376.2h1.3v1.6h-1.3V376.2z M495.3,379.7h1.2V390h-1.2V379.7z"/>
	<path class="st0" d="M498.5,392.2V391c0.7,0.3,1.6,0.5,2.1,0.5c1.3,0,2-0.6,2-2v-2c-0.4,1-1,2-2,2c-1.3,0-2.5-1.6-2.5-4.9v-0.2
		c0-3.3,1.2-4.9,2.5-4.9c1,0,1.6,0.9,2,2v-1.8h1.2v9.8c0,1-0.3,1.7-0.8,2.2c-0.5,0.5-1.3,0.8-2.3,0.8
		C499.9,392.6,499.2,392.5,498.5,392.2z M502.6,384.6v-0.1c0-2.4-0.9-3.8-1.7-3.8c-0.9,0-1.6,1.3-1.6,3.8v0.1c0,2.5,0.7,3.8,1.6,3.8
		C501.8,388.3,502.6,387,502.6,384.6z"/>
	<path class="st0" d="M505.2,387v-0.2c0-2,1-3.3,2.5-3.3c0.6,0,1.1,0.2,1.6,0.4v-1.1c0-1.3-0.6-2.1-1.8-2.1c-0.7,0-1.2,0.2-1.8,0.5
		V380c0.6-0.3,1.3-0.4,2-0.4c0.9,0,1.6,0.3,2.1,0.8c0.5,0.5,0.8,1.3,0.8,2.4v7.3h-1.2v-1.4c-0.4,1-1,1.6-1.9,1.6
		C506.1,390.2,505.2,388.9,505.2,387z M509.3,386.9v-2c-0.4-0.2-0.9-0.4-1.4-0.4c-1,0-1.6,0.9-1.6,2.2v0.2c0,1.3,0.5,2.2,1.4,2.2
		C508.7,389.1,509.3,388.1,509.3,386.9z"/>
	<path class="st0" d="M512.1,378.9c0-1.4,0.5-2.2,1.8-2.6l0.2,0.6c-0.9,0.3-1.2,0.9-1.1,1.7h0.7v2h-1.6V378.9z M514.9,378.9
		c0-1.4,0.5-2.2,1.8-2.6l0.2,0.6c-0.9,0.3-1.2,0.9-1.1,1.7h0.7v2h-1.6V378.9z"/>
	<path class="st0" d="M517.7,391.7c0.9-0.3,1.2-0.9,1.1-1.7h-0.7v-1.9h1.6v1.6c0,1.4-0.5,2.2-1.8,2.6L517.7,391.7z"/>
	<path class="st0" d="M524.1,391.7c1-0.3,1.3-0.9,1.2-1.7h-0.7v-1.9h1.6v1.6c0,1.4-0.5,2.2-1.9,2.6L524.1,391.7z M527,391.7
		c1-0.3,1.3-0.9,1.2-1.7h-0.7v-1.9h1.6v1.6c0,1.4-0.5,2.2-1.9,2.6L527,391.7z"/>
	<path class="st0" d="M531.6,377.5h-2v-1.2h5.3v1.2h-2V390h-1.2V377.5z"/>
	<path class="st0" d="M534.8,385v-0.3c0-3.3,1.3-5.2,2.9-5.2c1.6,0,2.9,1.9,2.9,5.2v0.3c0,3.3-1.3,5.2-2.9,5.2
		C536.2,390.2,534.8,388.3,534.8,385z M539.5,385v-0.3c0-2.5-0.8-4-1.7-4c-1,0-1.7,1.5-1.7,4v0.3c0,2.5,0.8,4.1,1.7,4.1
		C538.7,389.1,539.5,387.5,539.5,385z"/>
	<path class="st0" d="M542.2,379.7h1.2v1.8c0.4-1,1-2,2-2c1.3,0,2.5,1.6,2.5,5.1v0.5c0,3.4-1.2,5.1-2.5,5.1c-1,0-1.6-0.9-2-2v4.3
		h-1.2V379.7z M546.7,385.1v-0.4c0-2.6-0.7-4-1.6-4c-0.9,0-1.7,1.4-1.7,3.9v0.5c0,2.5,0.8,3.9,1.7,3.9
		C546,389.1,546.7,387.6,546.7,385.1z"/>
	<path class="st0" d="M553.9,377.5h-2v-1.2h5.3v1.2h-2V390h-1.2V377.5z"/>
	<path class="st0" d="M557.2,385v-0.3c0-3.3,1.3-5.2,2.9-5.2c1.6,0,2.9,1.9,2.9,5.2v0.3c0,3.3-1.3,5.2-2.9,5.2
		C558.5,390.2,557.2,388.3,557.2,385z M561.9,385v-0.3c0-2.5-0.8-4-1.7-4c-1,0-1.7,1.5-1.7,4v0.3c0,2.5,0.8,4.1,1.7,4.1
		C561.1,389.1,561.9,387.5,561.9,385z"/>
	<path class="st0" d="M564.5,379.7h1.2v1.4c0.4-0.9,1.1-1.6,2.2-1.6v1.4h0c-1.2,0-2.1,0.8-2.1,2.5v6.5h-1.2V379.7z"/>
	<path class="st0" d="M568.4,385.1v-0.3c0-3.5,1.3-5.2,2.9-5.2c1.6,0,2.7,1.8,2.7,5.1v0.8h-4.4c0.1,2.5,1.1,3.6,2.3,3.6
		c0.6,0,1.1-0.2,1.8-0.6l0.1,1.2c-0.7,0.4-1.2,0.6-2,0.6C569.9,390.2,568.4,388.5,568.4,385.1z M572.8,384.4c0-2.2-0.6-3.7-1.6-3.7
		s-1.6,1.2-1.7,3.7H572.8z"/>
	<path class="st0" d="M575.3,378.9c0-1.4,0.5-2.2,1.8-2.6l0.2,0.6c-0.9,0.3-1.2,0.9-1.1,1.7h0.7v2h-1.6V378.9z M578.1,378.9
		c0-1.4,0.5-2.2,1.8-2.6l0.2,0.6c-0.9,0.3-1.2,0.9-1.1,1.7h0.7v2h-1.6V378.9z"/>
</g>
<g>
	<path class="st0" d="M374.2,204.6h5.6l3.2,9.1l3.2-9.1h5.6v27.2h-5.6v-14.6l-3.2,8.9h-0.1l-3.2-8.9v14.6h-5.5V204.6z"/>
	<path class="st0" d="M393.8,204.2h5.7v5h-5.7V204.2z M393.8,210.8h5.6v21h-5.6V210.8z"/>
	<path class="st0" d="M401.1,222.1v-1.6c0-6.7,2.9-10.2,7.1-10.2c4.2,0,7,3.5,7,10.2v1.6c0,6.7-2.9,10.2-7.1,10.2
		C404,232.3,401.1,228.8,401.1,222.1z M409.7,222.2v-1.7c0-3.7-0.5-5.1-1.5-5.1c-1,0-1.5,1.4-1.5,5.1v1.7c0,3.7,0.5,5.1,1.5,5.1
		C409.2,227.3,409.7,225.8,409.7,222.2z"/>
	<path class="st0" d="M416.9,225.5h6.2v6.3h-6.2V225.5z"/>
	<path class="st0" d="M429.7,204.6h5.9l2.3,16.3l2.3-16.3h5.7l-5,27.3h-6.1L429.7,204.6z"/>
	<path class="st0" d="M446.8,204.2h5.7v5h-5.7V204.2z M446.8,210.8h5.6v21h-5.6V210.8z"/>
	<path class="st0" d="M454.2,222.3v-2.1c0-7.7,2.1-9.9,4.6-9.9c2,0,3,1.4,3.8,2.8v-9h5.6v27.6h-5.6v-2.5c-0.8,1.5-1.8,2.9-3.8,2.9
		C456.3,232.2,454.2,230.1,454.2,222.3z M462.7,222.4v-2.2c0-3.2-0.5-4.7-1.5-4.7c-1,0-1.4,1.5-1.4,4.7v2.2c0,3.2,0.4,4.7,1.4,4.7
		C462.2,227.1,462.7,225.6,462.7,222.4z"/>
	<path class="st0" d="M469.9,221.9v-1.2c0-6.7,3-10.4,7-10.4c4,0,6.5,3.7,6.5,10.6v2.8h-8c0.3,2.5,1.4,3.4,3,3.4
		c1.4,0,2.8-0.6,4.1-1.5l0.3,5c-1.5,1-3.3,1.6-5.3,1.6C473.1,232.3,469.9,228.7,469.9,221.9z M478.2,219.8c0-3.3-0.5-4.6-1.4-4.6
		c-0.8,0-1.4,1-1.5,4.6H478.2z"/>
	<path class="st0" d="M484.6,222.1v-1.6c0-6.7,2.9-10.2,7.1-10.2c4.2,0,7,3.5,7,10.2v1.6c0,6.7-2.9,10.2-7.1,10.2
		C487.5,232.3,484.6,228.8,484.6,222.1z M493.1,222.2v-1.7c0-3.7-0.5-5.1-1.5-5.1c-1,0-1.5,1.4-1.5,5.1v1.7c0,3.7,0.5,5.1,1.5,5.1
		C492.6,227.3,493.1,225.8,493.1,222.2z"/>
	<path class="st0" d="M499.8,225.9v-0.7c0-4.7,2-6.6,4.8-6.6c1.1,0,2,0.3,2.8,0.8v-0.8c0-1.9-0.9-2.9-2.8-2.9c-1.3,0-2.8,0.5-3.8,1
		v-5.3c1.5-0.6,3.2-1,5-1c2.3,0,4,0.6,5.2,1.8c1.3,1.3,1.9,3.3,1.9,5.8v13.7h-5.6v-2c-0.8,1.5-2,2.4-3.5,2.4
		C501.5,232.2,499.8,229.9,499.8,225.9z M507.5,226.1v-3.2c-0.3-0.2-0.8-0.3-1.2-0.3c-0.8,0-1.3,0.8-1.3,2.4v0.8
		c0,1.6,0.5,2.3,1.2,2.3C506.8,227.9,507.5,227.3,507.5,226.1z"/>
	<path class="st0" d="M520.5,229.4v2.4h-5.6v-27.6h5.6v9c0.8-1.5,1.8-2.9,3.8-2.9c2.5,0,4.6,2.1,4.6,9.9v2.1c0,7.7-2.1,9.9-4.6,9.9
		C522.3,232.2,521.3,230.9,520.5,229.4z M523.3,222.4v-2.2c0-3.2-0.4-4.7-1.4-4.7c-1,0-1.5,1.5-1.5,4.7v2.2c0,3.1,0.5,4.7,1.5,4.7
		C522.8,227.1,523.3,225.6,523.3,222.4z"/>
	<path class="st0" d="M530.6,210.8h5.6v2.9c0.7-2.1,1.6-3.3,3.3-3.2v6.8h-0.1c-2.2,0-3.2,1.4-3.2,4.3v10.1h-5.6V210.8z"/>
	<path class="st0" d="M540.8,226.9v-16.2h5.6v14.6c0,1.1,0.4,1.7,1.2,1.7c0.7,0,1.2-0.7,1.2-1.7v-14.6h5.6v21h-5.6v-2.4
		c-0.8,1.5-1.9,2.8-3.9,2.8C542.1,232.2,540.8,230.1,540.8,226.9z"/>
	<path class="st0" d="M556.9,215.3h-1.2v-4.5h1.2v-0.9c0-1.9,0.5-3.3,1.4-4.3c1-0.9,2.4-1.4,4.2-1.4c1.1,0,1.7,0.1,2.4,0.2v4.4
		c-0.2,0-0.5-0.1-0.8-0.1c-1,0-1.6,0.5-1.6,1.6v0.5h2.4v4.5h-2.3v16.5h-5.6V215.3z"/>
	<path class="st0" d="M565.2,221.9v-1.2c0-6.7,3-10.4,7-10.4s6.5,3.7,6.5,10.6v2.8h-8c0.3,2.5,1.4,3.4,3,3.4c1.4,0,2.8-0.6,4.1-1.5
		l0.3,5c-1.5,1-3.3,1.6-5.3,1.6C568.5,232.3,565.2,228.7,565.2,221.9z M573.6,219.8c0-3.3-0.5-4.6-1.4-4.6c-0.8,0-1.4,1-1.5,4.6
		H573.6z"/>
	<path class="st0" d="M374.1,236.6h5.7v5h-5.7V236.6z M374.1,243.1h5.6v21h-5.6V243.1z"/>
	<path class="st0" d="M381.8,243.1h5.6v2.4c0.8-1.6,2-2.8,3.9-2.8c1.9,0,3,1.1,3.7,2.6c0.8-1.3,2.1-2.6,4-2.6c2.5,0,4.3,2,4.3,5.3
		v16.1h-5.6v-14.6c0-1.1-0.4-1.7-1.2-1.7c-0.7,0-1.2,0.7-1.2,1.7v14.6h-5.6v-14.6c0-1.1-0.4-1.7-1.1-1.7c-0.7,0-1.2,0.7-1.2,1.7
		v14.6h-5.6V243.1z"/>
	<path class="st0" d="M411,237h5.6l3.2,9.1l3.2-9.1h5.6v27.2h-5.6v-14.6l-3.2,8.9h-0.1l-3.2-8.9v14.6H411V237z"/>
	<path class="st0" d="M430.2,254.5v-1.6c0-6.7,2.9-10.2,7.1-10.2c4.2,0,7,3.5,7,10.2v1.6c0,6.7-2.9,10.2-7.1,10.2
		C433.1,264.6,430.2,261.2,430.2,254.5z M438.8,254.5v-1.7c0-3.7-0.5-5.1-1.5-5.1c-1,0-1.5,1.4-1.5,5.1v1.7c0,3.7,0.5,5.1,1.5,5.1
		C438.3,259.6,438.8,258.2,438.8,254.5z"/>
	<path class="st0" d="M446,243.1h5.6v2.4c0.8-1.5,1.9-2.8,3.9-2.8c2.7,0,4.1,2.1,4.1,5.3v16.2H454v-14.6c0-1.1-0.4-1.7-1.2-1.7
		c-0.7,0-1.2,0.6-1.2,1.7v14.6H446V243.1z"/>
	<path class="st0" d="M460.8,258.3v-0.7c0-4.7,2-6.6,4.8-6.6c1.1,0,2,0.3,2.8,0.8v-0.8c0-1.9-0.9-2.9-2.8-2.9c-1.3,0-2.8,0.5-3.8,1
		v-5.3c1.5-0.6,3.2-1,5-1c2.3,0,4,0.6,5.2,1.8c1.3,1.3,1.9,3.3,1.9,5.8v13.7h-5.6v-2c-0.8,1.5-2,2.4-3.5,2.4
		C462.6,264.5,460.8,262.3,460.8,258.3z M468.5,258.4v-3.2c-0.3-0.2-0.8-0.3-1.2-0.3c-0.8,0-1.3,0.8-1.3,2.4v0.8
		c0,1.6,0.5,2.3,1.2,2.3C467.9,260.3,468.5,259.7,468.5,258.4z"/>
	<path class="st0" d="M476.2,260.1v-12.4H475v-4.5h1.2V238h5.6v5.1h2.3v4.5h-2.3v10.7c0,0.7,0.3,1.1,1.1,1.1c0.4,0,0.8-0.1,1.2-0.3
		v4.5c-0.9,0.5-2.1,0.8-3.3,0.8C478.3,264.5,476.2,263.5,476.2,260.1z"/>
</g>
<g>
	<path class="st0" d="M374.3,273.7h2.2c3.3,0,5.5,2.8,5.5,8.2v0.5c0,5.4-2.2,8.2-5.5,8.2h-2.2V273.7z M375.9,275.1v14.1h0.7
		c2.2,0,3.8-2.2,3.8-6.8v-0.5c0-4.6-1.7-6.8-3.9-6.8H375.9z"/>
	<path class="st0" d="M386.3,273.6h1.7l3.6,17h-1.6l-0.9-4.4h-3.9l-0.9,4.4h-1.5L386.3,273.6z M388.8,284.9l-1.7-8.5l-1.7,8.5H388.8
		z"/>
	<path class="st0" d="M391.6,273.7h1.6l2.6,14l2.6-14h1.6l-3.4,17.1H395L391.6,273.7z"/>
	<path class="st0" d="M400.6,282.5v-0.5c0-5.6,1.8-8.4,4.1-8.4c2.4,0,4.1,2.8,4.1,8.4v0.5c0,5.6-1.7,8.4-4.1,8.4
		C402.4,290.9,400.6,288.1,400.6,282.5z M407.3,282.5v-0.5c0-4.8-1.1-7-2.5-7c-1.4,0-2.5,2.2-2.5,7v0.5c0,4.8,1.1,7,2.5,7
		C406.2,289.4,407.3,287.2,407.3,282.5z"/>
	<path class="st0" d="M410.9,273.7h1.6l4.6,12.8v-12.8h1.5v17h-1.5l-4.8-13.1v13.1h-1.5V273.7z"/>
	<path class="st0" d="M424.3,286.3v-0.2c0-2,0.9-3.6,2.1-4.3c-1.2-0.7-1.8-2-1.8-3.9v-0.1c0-2.7,1.5-4.3,3.2-4.3
		c1.8,0,3.2,1.6,3.2,4.3v0.1c0,1.9-0.7,3.2-1.8,3.9c1.2,0.7,2.1,2.2,2.1,4.3v0.2c0,2.8-1.4,4.6-3.5,4.6
		C425.7,290.9,424.3,289,424.3,286.3z M429.8,286.2L429.8,286.2c0-2.3-0.9-3.6-2-3.6c-1.1,0-2,1.4-2,3.5v0.1c0,2.1,0.8,3.4,2,3.4
		S429.8,288.2,429.8,286.2z M429.5,278L429.5,278c0-2-0.7-3.1-1.7-3.1s-1.8,1.1-1.8,3.1v0.1c0,1.8,0.7,3.3,1.8,3.3
		C428.8,281.2,429.5,279.8,429.5,278z"/>
	<path class="st0" d="M432.3,292.8c1.2-0.4,1.5-1.1,1.4-2.1h-0.9v-2.3h2v2c0,1.8-0.6,2.7-2.3,3.2L432.3,292.8z"/>
	<path class="st0" d="M436.7,290.4v-1.5c0.5,0.2,1.1,0.5,2,0.5c1.6,0,2.8-1.6,2.8-4v-0.1c0-2.5-1.1-3.4-2.4-3.4
		c-0.6,0-1,0.1-1.5,0.3l-0.9-0.6l0.4-7.8h5.3v1.5h-4.1l-0.2,5.4c0.4-0.1,0.8-0.3,1.4-0.3c1.9,0,3.6,1.4,3.6,4.9v0.1
		c0,3.3-1.8,5.6-4.2,5.6C437.9,290.9,437.2,290.7,436.7,290.4z"/>
	<path class="st0" d="M448.9,273.7h1.7l2.8,8.6l2.8-8.6h1.7v17h-1.5v-13.4l-3,8.9h-0.1l-3-8.9v13.4h-1.5V273.7z"/>
	<path class="st0" d="M460.5,273.7h1.6v17h-1.6V273.7z"/>
	<path class="st0" d="M464.3,282.5v-0.5c0-5.6,1.8-8.4,4.1-8.4c2.4,0,4.1,2.8,4.1,8.4v0.5c0,5.6-1.7,8.4-4.1,8.4
		C466,290.9,464.3,288.1,464.3,282.5z M470.9,282.5v-0.5c0-4.8-1.1-7-2.5-7c-1.4,0-2.5,2.2-2.5,7v0.5c0,4.8,1.1,7,2.5,7
		C469.8,289.4,470.9,287.2,470.9,282.5z"/>
	<path class="st0" d="M474.2,288.3h2v2.3h-2V288.3z"/>
	<path class="st0" d="M374.3,298.4h2.2c1.5,0,2.8,0.5,3.6,1.3c0.7,0.7,1.1,1.7,1.1,2.9v0.1c0,2.4-1.3,3.5-2.9,4
		c1.8,0.5,3.1,1.7,3.1,4v0.1c0,2.8-2.1,4.5-5.3,4.5h-1.9V298.4z M379.8,302.9c0-1.9-1.2-3-3.1-3h-0.8v6.2h0.6
		C378.6,306.1,379.8,304.9,379.8,302.9L379.8,302.9z M376.5,307.5h-0.6v6.4h0.5c2.2,0,3.6-1.1,3.6-3.1v-0.1
		C380,308.7,378.7,307.5,376.5,307.5z"/>
	<path class="st0" d="M383.3,310.9v-12.4h1.6v12.5c0,2.1,0.9,3.2,2.2,3.2c1.4,0,2.2-1.1,2.2-3.2v-12.5h1.6v12.4c0,3-1.5,4.7-3.8,4.7
		C384.8,315.6,383.3,313.9,383.3,310.9z"/>
	<path class="st0" d="M393.2,298.4h1.6l4.6,12.8v-12.8h1.5v17h-1.5l-4.8-13.1v13.1h-1.5V298.4z"/>
	<path class="st0" d="M403.3,298.4h2.2c3.3,0,5.5,2.8,5.5,8.2v0.5c0,5.4-2.2,8.2-5.5,8.2h-2.2V298.4z M404.9,299.9V314h0.7
		c2.2,0,3.8-2.2,3.8-6.8v-0.5c0-4.7-1.7-6.8-3.9-6.8H404.9z"/>
	<path class="st0" d="M413,298.4h5.9v1.5h-4.3v6.2h3.9v1.5h-3.9v6.3h4.4v1.5h-6V298.4z"/>
	<path class="st0" d="M420.4,314.7V313c1.1,0.7,2,1,2.9,1c1.3,0,2.1-0.8,2.1-2.2v0c0-1.2-0.4-2.1-2.2-4.3c-2.2-2.8-2.8-3.8-2.8-5.5
		v0c0-2.2,1.6-3.7,3.5-3.7c1,0,1.8,0.3,2.5,0.7v1.7c-0.9-0.6-1.7-0.9-2.5-0.9c-1.2,0-2,0.8-2,2.1v0c0,1.1,0.4,1.9,2.2,4.1
		c2.1,2.6,2.8,3.9,2.8,5.7v0c0,2.3-1.6,3.8-3.6,3.8C422.3,315.6,421.3,315.2,420.4,314.7z"/>
	<path class="st0" d="M428.8,298.4h1.6v15.5h3.9v1.5h-5.5V298.4z"/>
	<path class="st0" d="M435.8,298.4h1.6v17h-1.6V298.4z"/>
	<path class="st0" d="M439.6,307.1v-0.5c0-5.6,2.4-8.4,5.2-8.4c0.9,0,1.5,0.2,2.1,0.5v1.7c-0.7-0.4-1.4-0.7-2.1-0.7
		c-2,0-3.7,2.3-3.7,6.9v0.5c0,4.8,1.7,7,3.6,7c0.4,0,0.6,0,0.9-0.2v-6.1h-2.2v-1.4h3.7v8.5c-0.9,0.5-1.5,0.6-2.4,0.6
		C441.9,315.6,439.6,312.8,439.6,307.1z"/>
	<path class="st0" d="M452.3,298.4h1.7l3.6,17h-1.6l-0.9-4.4h-3.9l-0.9,4.4h-1.5L452.3,298.4z M454.8,309.6l-1.7-8.5l-1.7,8.5H454.8
		z"/>
</g>
<rect x="373.1" y="166.8" class="st0" width="209.7" height="17.4"/>
<g>
	<path class="st0" d="M372,149.9h0.8l2.2,9.8l2.3-9.8h0.6l2.3,9.8l2.2-9.8h0.8l-2.6,11.2h-0.6l-2.3-9.7l-2.3,9.7h-0.6L372,149.9z"/>
	<path class="st0" d="M384.8,149.9h5.1v0.7h-4.4v4.5h4v0.7h-4v4.6h4.5v0.7h-5.2V149.9z"/>
	<path class="st0" d="M391.8,149.9h0.7v10.5h4v0.7h-4.8V149.9z"/>
	<path class="st0" d="M398.9,150.6h-2.5v-0.7h5.7v0.7h-2.5v10.5h-0.7V150.6z"/>
	<path class="st0" d="M403.1,149.9h0.8l2.2,9.8l2.3-9.8h0.6l2.3,9.8l2.2-9.8h0.8l-2.6,11.2h-0.6l-2.3-9.7l-2.3,9.7h-0.6L403.1,149.9
		z"/>
	<path class="st0" d="M415.9,149.9h5.1v0.7h-4.4v4.5h4v0.7h-4v4.6h4.5v0.7h-5.2V149.9z"/>
	<path class="st0" d="M423,149.9h0.7v11.2H423V149.9z"/>
	<path class="st0" d="M427.8,150.6h-2.5v-0.7h5.7v0.7h-2.5v10.5h-0.7V150.6z"/>
	<path class="st0" d="M435.8,149.9h0.8l2.9,6.4l2.9-6.4h0.8v11.2h-0.7v-9.7l-2.9,6.5h-0.1l-2.9-6.5v9.7h-0.7V149.9z"/>
	<path class="st0" d="M445.4,149.9h5.1v0.7h-4.4v4.5h4v0.7h-4v4.6h4.5v0.7h-5.2V149.9z"/>
	<path class="st0" d="M452.4,149.9h0.7v5.2h4.6v-5.2h0.7v11.2h-0.7v-5.3h-4.6v5.3h-0.7V149.9z"/>
	<path class="st0" d="M460.7,149.9h2.5c1.1,0,2,0.4,2.6,0.9c0.5,0.6,0.8,1.4,0.8,2.3v0c0,1.7-1,2.8-2.3,3.2l2.6,4.7h-0.9l-2.5-4.6
		c-0.2,0-0.4,0-0.6,0h-1.5v4.5h-0.7V149.9z M462.8,155.9c2.2,0,3.1-1.1,3.1-2.6v0c0-1.7-1.1-2.6-2.7-2.6h-1.7v5.2H462.8z"/>
	<path class="st0" d="M474.4,149.9h0.8l3.3,11.2h-0.8l-0.9-3.1h-4.1l-0.9,3.1h-0.7L474.4,149.9z M476.7,157.3l-1.8-6.4l-1.9,6.4
		H476.7z"/>
	<path class="st0" d="M480.2,149.9h0.7v10.5h4v0.7h-4.8V149.9z"/>
	<path class="st0" d="M485.7,160l0.5-0.6c0.7,0.7,1.5,1.2,2.5,1.2c1.3,0,2.1-0.9,2.1-2.1v0c0-0.9-0.4-1.6-2.1-2.6
		c-2.1-1.3-2.5-2.1-2.5-3.3v0c0-1.5,1.2-2.7,2.8-2.7c0.9,0,1.8,0.3,2.5,1.1l-0.5,0.6c-0.7-0.6-1.4-1-2.1-1c-1.3,0-2,0.9-2,1.9v0
		c0,1,0.4,1.6,2.2,2.6c2.1,1.3,2.5,2.2,2.5,3.3v0c0,1.6-1.2,2.8-2.9,2.8C487.6,161.2,486.7,160.9,485.7,160z"/>
	<path class="st0" d="M497.2,152.1l-1.4,0.4l-0.2-2l2.2-0.7h1.5v11.2h-2.1V152.1z"/>
	<path class="st0" d="M504,149.9h2.1l1.9,4.3l1.9-4.3h2.2v11.2h-2v-6.9l-2,4.4h0l-2-4.4v6.9h-2V149.9z"/>
	<path class="st0" d="M513.8,149.9h3.1c1.1,0,2.1,0.3,2.7,1c0.6,0.6,0.9,1.5,0.9,2.6v0.1c0,1.6-0.7,2.6-1.7,3.1l1.9,4.3h-2.3
		l-1.6-3.8h-0.9v3.8h-2.1V149.9z M516.7,155.4c1.1,0,1.7-0.7,1.7-1.8c0-1.2-0.6-1.8-1.8-1.8h-0.8v3.5H516.7z"/>
	<path class="st0" d="M521.9,149.9h2.7c2.9,0,4.6,2,4.6,5.4v0.3c0,3.4-1.7,5.4-4.6,5.4h-2.7V149.9z M524,151.9v7.3h0.6
		c1.5,0,2.4-1.1,2.4-3.6v-0.2c0-2.5-1-3.6-2.4-3.6H524z"/>
	<path class="st0" d="M530.1,158.7h2.3v2.3h-2.3V158.7z"/>
	<path class="st0" d="M536.9,149.9h1.9l3.1,6.1v-6.1h2v11.2h-1.8l-3.2-6.3v6.3h-2V149.9z"/>
	<path class="st0" d="M545.6,157.3v-7.3h2.1v7.4c0,1.3,0.5,1.9,1.4,1.9s1.4-0.6,1.4-1.9v-7.5h2.1v7.3c0,2.7-1.4,4-3.5,4
		C547,161.2,545.6,160,545.6,157.3z"/>
	<path class="st0" d="M555.8,151.9h-2.1v-2h6.3v2h-2.1v9.1h-2.1V151.9z"/>
	<path class="st0" d="M560.8,159.4l3.8-7.6h-3.7v-1.9h6.1v1.7l-3.8,7.6h3.8v1.9h-6.3V159.4z"/>
	<path class="st0" d="M568.5,149.9h5.7v2h-3.6v2.6h3.2v2h-3.2v2.6h3.7v2h-5.8V149.9z"/>
	<path class="st0" d="M575.6,149.9h3.1c1.1,0,2.1,0.3,2.7,1c0.6,0.6,0.9,1.5,0.9,2.6v0.1c0,1.6-0.7,2.6-1.7,3.1l1.9,4.3h-2.3
		l-1.6-3.8h-0.9v3.8h-2.1V149.9z M578.6,155.4c1.1,0,1.7-0.7,1.7-1.8c0-1.2-0.6-1.8-1.8-1.8h-0.8v3.5H578.6z"/>
</g>
</svg>
